<svg width="60" height="60" viewBox="0 0 60 60" fill="none" xmlns="http://www.w3.org/2000/svg">
<path d="M13.4831 60L46.5169 60C53.9634 60 60 53.9634 60 46.5169L60 13.4831C60 6.03661 53.9634 0 46.5169 0L13.4831 0C6.03661 0 0 6.03661 0 13.4831L0 46.5169C0 53.9634 6.03661 60 13.4831 60Z" fill="#3AD88E"/>
<path d="M41.0171 32.2652C40.7098 32.2438 40.4058 32.1891 40.1103 32.102C39.5075 31.9688 38.9151 31.7919 38.338 31.5728C37.7098 31.344 37.0191 31.3561 36.3993 31.6067C35.7795 31.8574 35.2746 32.3288 34.982 32.9299L34.684 33.5461C33.3656 32.8104 32.1545 31.8972 31.0847 30.8319C30.0219 29.7579 29.1114 28.5432 28.3786 27.2218L28.9469 26.8416C29.5473 26.5457 30.0174 26.0387 30.2671 25.4176C30.5168 24.7966 30.5285 24.1053 30.3 23.4762C30.0851 22.8959 29.9087 22.302 29.7721 21.6984C29.7047 21.3998 29.6501 21.0876 29.6096 20.7755C29.4475 19.8203 28.9493 18.9546 28.205 18.3344C27.4607 17.7142 26.5193 17.3804 25.5505 17.3933H21.4908C20.9069 17.3888 20.329 17.5101 19.7962 17.7489C19.2635 17.9877 18.7884 18.3384 18.4032 18.7771C18.018 19.2159 17.7319 19.7325 17.5641 20.2917C17.3963 20.8509 17.3509 21.4397 17.431 22.018C18.144 27.6971 20.7291 32.9768 24.7777 37.0228C28.8264 41.0687 34.1078 43.6503 39.7874 44.3596H40.3018C40.8372 44.3601 41.3674 44.2546 41.8618 44.0492C42.3562 43.8439 42.8051 43.5426 43.1825 43.1629C43.5599 42.7831 43.8584 42.3324 44.0608 41.8367C44.2632 41.3411 44.3654 40.8102 44.3616 40.2748V36.2029C44.3464 35.2608 44.0047 34.3531 43.3947 33.6349C42.7847 32.9168 41.9443 32.4326 41.0171 32.2652ZM41.6912 40.4076C41.6911 40.6002 41.65 40.7906 41.5707 40.9661C41.4915 41.1415 41.3758 41.2982 41.2314 41.4256C41.0808 41.557 40.904 41.6549 40.7127 41.713C40.5214 41.7711 40.3201 41.788 40.1218 41.7627C35.0486 41.1043 30.3389 38.7761 26.7352 35.1452C23.1315 31.5143 20.8388 26.7872 20.2186 21.7092C20.1969 21.5105 20.2156 21.3095 20.2735 21.1183C20.3315 20.927 20.4274 20.7494 20.5557 20.5962C20.6823 20.4513 20.8385 20.3351 21.0138 20.2556C21.189 20.1761 21.3792 20.135 21.5717 20.1351H25.6301C25.9456 20.1281 26.2537 20.2316 26.501 20.4277C26.7483 20.6238 26.9193 20.9002 26.9845 21.209C27.0384 21.5798 27.1058 21.9463 27.1867 22.3085C27.343 23.0238 27.5509 23.7268 27.809 24.4119L25.9146 25.2937C25.7525 25.3686 25.6067 25.4747 25.4856 25.6059C25.3646 25.7372 25.2705 25.891 25.2089 26.0586C25.1473 26.2262 25.1194 26.4043 25.1266 26.5827C25.1339 26.7611 25.1762 26.9364 25.2512 27.0984C27.196 31.2784 30.5496 34.6408 34.7245 36.5966C35.0584 36.7252 35.4284 36.724 35.7616 36.5934C36.0947 36.4627 36.3669 36.2121 36.5245 35.8908L37.3604 33.991C38.0598 34.2419 38.7737 34.4503 39.4982 34.6153C39.8577 34.6966 40.2231 34.764 40.5944 34.8175C40.9031 34.8837 41.1792 35.0555 41.3748 35.3034C41.5705 35.5512 41.6736 35.8596 41.6663 36.1753L41.6912 40.4076Z" fill="white"/>
</svg>
