<svg width="60" height="60" viewBox="0 0 60 60" fill="none" xmlns="http://www.w3.org/2000/svg">
<g clip-path="url(#clip0)">
<path d="M13.4831 60L46.5169 60C53.9634 60 60 53.9634 60 46.5169L60 13.4831C60 6.03661 53.9634 0 46.5169 0L13.4831 0C6.03661 0 0 6.03661 0 13.4831L0 46.5169C0 53.9634 6.03661 60 13.4831 60Z" fill="#0078FF"/>
<path d="M42.482 40.4238C43.3898 39.2068 44.0128 37.8016 44.3049 36.3117C44.5971 34.8218 44.551 33.2853 44.17 31.8156C43.789 30.346 43.0828 28.9806 42.1037 27.8203C41.1245 26.66 39.8972 25.7343 38.5125 25.1117C38.2116 23.3757 37.5189 21.7311 36.487 20.303C35.455 18.8749 34.1111 17.7009 32.5573 16.8703C31.0035 16.0396 29.2808 15.5742 27.5201 15.5093C25.7594 15.4444 24.0071 15.7818 22.3964 16.4959C20.7857 17.2099 19.359 18.2819 18.2247 19.6301C17.0905 20.9784 16.2786 22.5675 15.8508 24.2767C15.4229 25.9858 15.3904 27.77 15.7557 29.4936C16.121 31.2173 16.8745 32.8349 17.9588 34.2236L15.9451 36.2225C15.745 36.4267 15.6094 36.6853 15.5551 36.9661C15.5009 37.2468 15.5305 37.5374 15.6401 37.8015C15.7498 38.0655 15.9347 38.2915 16.1719 38.4513C16.409 38.6111 16.6879 38.6976 16.9739 38.7H25.2161C26.0366 40.4311 27.3306 41.8944 28.9483 42.9205C30.566 43.9466 32.4413 44.4934 34.357 44.4977H43.0496C43.3356 44.4953 43.6145 44.4088 43.8516 44.2491C44.0888 44.0893 44.2737 43.8633 44.3834 43.5992C44.493 43.3351 44.5226 43.0446 44.4684 42.7638C44.4141 42.4831 44.2785 42.2245 44.0784 42.0202L42.482 40.4238ZM24.2123 34.3564C24.2143 34.8415 24.2531 35.3259 24.3283 35.8052H20.4647L20.9716 35.3123C21.1074 35.1777 21.2151 35.0175 21.2886 34.8409C21.3621 34.6644 21.4 34.4751 21.4 34.2839C21.4 34.0927 21.3621 33.9034 21.2886 33.7269C21.2151 33.5504 21.1074 33.3902 20.9716 33.2555C20.1592 32.452 19.5152 31.4944 19.0774 30.4389C18.6396 29.3834 18.4168 28.2512 18.422 27.1085C18.4225 24.8041 19.3381 22.5942 20.9675 20.9647C22.5969 19.3351 24.8068 18.4193 27.1112 18.4186C28.9103 18.408 30.6676 18.9616 32.1358 20.0016C33.6039 21.0416 34.7092 22.5156 35.2961 24.2164H34.3523C31.6644 24.2178 29.0869 25.2864 27.1864 27.1872C25.286 29.0881 24.2179 31.6657 24.217 34.3537L24.2123 34.3564ZM39.4853 41.5968L39.5575 41.669H34.3577C32.6821 41.6659 31.0595 41.082 29.7661 40.0167C28.4727 38.9515 27.5887 37.4708 27.2646 35.8268C26.9405 34.1829 27.1964 32.4775 27.9887 31.001C28.7809 29.5246 30.0606 28.3685 31.6096 27.7297C33.1586 27.0909 34.8812 27.0089 36.4839 27.4977C38.0866 27.9865 39.4703 29.0159 40.3992 30.4104C41.3281 31.8049 41.7448 33.4783 41.5783 35.1456C41.4118 36.8129 40.6724 38.3709 39.486 39.5541C39.3484 39.6863 39.2389 39.8448 39.164 40.0204C39.0892 40.1959 39.0507 40.3847 39.0507 40.5755C39.0507 40.7663 39.0892 40.9551 39.164 41.1306C39.2389 41.3061 39.3484 41.4647 39.486 41.5968H39.4853Z" fill="white"/>
</g>
<defs>
<clipPath id="clip0">
<rect width="60" height="60" fill="white"/>
</clipPath>
</defs>
</svg>
