<svg width="60" height="60" viewBox="0 0 60 60" fill="none" xmlns="http://www.w3.org/2000/svg">
<g clip-path="url(#clip0)">
<path d="M13.4831 60L46.5169 60C53.9634 60 60 53.9634 60 46.5169L60 13.4831C60 6.03661 53.9634 0 46.5169 0L13.4831 0C6.03661 0 0 6.03661 0 13.4831L0 46.5169C0 53.9634 6.03661 60 13.4831 60Z" fill="#FA6565"/>
<path d="M39.3327 19.3333H20.666C19.6051 19.3333 18.5877 19.7548 17.8376 20.5049C17.0874 21.2551 16.666 22.2725 16.666 23.3333V36.6667C16.666 37.7275 17.0874 38.745 17.8376 39.4951C18.5877 40.2452 19.6051 40.6667 20.666 40.6667H39.3327C40.3935 40.6667 41.411 40.2452 42.1611 39.4951C42.9113 38.745 43.3327 37.7275 43.3327 36.6667V23.3333C43.3327 22.2725 42.9113 21.2551 42.1611 20.5049C41.411 19.7548 40.3935 19.3333 39.3327 19.3333ZM20.666 22H39.3327C39.6863 22 40.0254 22.1405 40.2755 22.3905C40.5255 22.6406 40.666 22.9797 40.666 23.3333L29.9993 29.84L19.3327 23.3333C19.3327 22.9797 19.4732 22.6406 19.7232 22.3905C19.9733 22.1405 20.3124 22 20.666 22ZM40.666 36.6667C40.666 37.0203 40.5255 37.3594 40.2755 37.6095C40.0254 37.8595 39.6863 38 39.3327 38H20.666C20.3124 38 19.9733 37.8595 19.7232 37.6095C19.4732 37.3594 19.3327 37.0203 19.3327 36.6667V26.3733L29.306 32.4667C29.5087 32.5837 29.7386 32.6453 29.9727 32.6453C30.2067 32.6453 30.4367 32.5837 30.6393 32.4667L40.666 26.3733V36.6667Z" fill="white"/>
</g>
<defs>
<clipPath id="clip0">
<rect width="60" height="60" fill="white"/>
</clipPath>
</defs>
</svg>
