<svg width="60" height="60" viewBox="0 0 60 60" fill="none" xmlns="http://www.w3.org/2000/svg">
<path d="M13.4831 60L46.5169 60C53.9634 60 60 53.9634 60 46.5169L60 13.4831C60 6.03661 53.9634 0 46.5169 0L13.4831 0C6.03661 0 0 6.03661 0 13.4831L0 46.5169C0 53.9634 6.03661 60 13.4831 60Z" fill="#FF815C"/>
<path d="M29.9204 35.3124C29.8624 35.3764 29.8084 35.444 29.7586 35.5146C29.7076 35.5898 29.6667 35.6714 29.6372 35.7573C29.5984 35.8337 29.5711 35.9155 29.5563 36C29.5497 36.0898 29.5497 36.1799 29.5563 36.2697C29.5518 36.4465 29.5887 36.622 29.6642 36.782C29.7248 36.9493 29.8214 37.1013 29.9472 37.2271C30.073 37.3529 30.225 37.4496 30.3923 37.5101C30.5537 37.5814 30.7282 37.6183 30.9046 37.6183C31.0811 37.6183 31.2556 37.5814 31.417 37.5101C31.5843 37.4496 31.7363 37.3529 31.8621 37.2271C31.9879 37.1013 32.0845 36.9493 32.1451 36.782C32.2624 36.491 32.2755 36.1684 32.1822 35.8689C32.0889 35.5693 31.895 35.3112 31.6332 35.1383C31.3714 34.9653 31.0579 34.8882 30.7457 34.9199C30.4336 34.9516 30.142 35.0903 29.9204 35.3124ZM30.8777 17.3932C28.211 17.3932 25.6041 18.184 23.3868 19.6656C21.1696 21.1471 19.4414 23.2529 18.4209 25.7166C17.4004 28.1803 17.1334 30.8914 17.6536 33.5068C18.1739 36.1223 19.458 38.5248 21.3437 40.4104C23.2293 42.2961 25.6318 43.5802 28.2473 44.1005C30.8627 44.6207 33.5737 44.3537 36.0375 43.3332C38.5012 42.3127 40.607 40.5845 42.0885 38.3672C43.5701 36.1499 44.3608 33.5431 44.3608 30.8764C44.3608 27.3004 42.9403 23.871 40.4117 21.3424C37.8831 18.8138 34.4536 17.3932 30.8777 17.3932ZM30.8777 41.6629C28.7443 41.6629 26.6588 41.0303 24.885 39.8451C23.1112 38.6598 21.7286 36.9752 20.9122 35.0042C20.0958 33.0332 19.8822 30.8644 20.2984 28.7721C20.7146 26.6797 21.7419 24.7577 23.2505 23.2492C24.759 21.7407 26.681 20.7133 28.7733 20.2971C30.8657 19.8809 33.0345 20.0945 35.0055 20.911C36.9765 21.7274 38.6611 23.1099 39.8463 24.8837C41.0316 26.6576 41.6642 28.743 41.6642 30.8764C41.6642 33.7372 40.5278 36.4808 38.5049 38.5036C36.482 40.5265 33.7384 41.6629 30.8777 41.6629ZM30.8777 24.1348C30.1672 24.1344 29.4691 24.3211 28.8537 24.6761C28.2383 25.0311 27.7273 25.542 27.3721 26.1573C27.2745 26.3108 27.209 26.4824 27.1795 26.6618C27.15 26.8412 27.1571 27.0248 27.2003 27.2014C27.2436 27.378 27.3221 27.5441 27.4312 27.6896C27.5403 27.835 27.6777 27.957 27.8352 28.048C27.9926 28.139 28.1668 28.1972 28.3473 28.2191C28.5279 28.241 28.711 28.2262 28.8856 28.1756C29.0602 28.1249 29.2228 28.0394 29.3636 27.9243C29.5043 27.8092 29.6204 27.6667 29.7046 27.5056C29.8229 27.3008 29.9929 27.1308 30.1976 27.0124C30.4023 26.8941 30.6345 26.8317 30.871 26.8315C31.1074 26.8312 31.3398 26.8932 31.5447 27.0111C31.7497 27.129 31.92 27.2988 32.0387 27.5033C32.1573 27.7078 32.22 27.94 32.2206 28.1764C32.2212 28.4129 32.1596 28.6453 32.042 28.8505C31.9244 29.0556 31.7549 29.2262 31.5505 29.3451C31.3462 29.464 31.1141 29.5271 30.8777 29.5281C30.5201 29.5281 30.1771 29.6701 29.9243 29.923C29.6714 30.1759 29.5294 30.5188 29.5294 30.8764V32.2247C29.5294 32.5823 29.6714 32.9253 29.9243 33.1781C30.1771 33.431 30.5201 33.573 30.8777 33.573C31.2353 33.573 31.5782 33.431 31.8311 33.1781C32.0839 32.9253 32.226 32.5823 32.226 32.2247V31.982C33.1177 31.6584 33.8674 31.0318 34.3439 30.2115C34.8204 29.3912 34.9935 28.4296 34.8328 27.4947C34.6722 26.5598 34.1881 25.711 33.4651 25.0969C32.7421 24.4827 31.8263 24.1422 30.8777 24.1348Z" fill="white"/>
</svg>
