<svg width="60" height="60" viewBox="0 0 60 60" fill="none" xmlns="http://www.w3.org/2000/svg">
<g clip-path="url(#clip0)">
<path d="M13.4831 60L46.5169 60C53.9634 60 60 53.9634 60 46.5169L60 13.4831C60 6.03661 53.9634 0 46.5169 0L13.4831 0C6.03661 0 0 6.03661 0 13.4831L0 46.5169C0 53.9634 6.03661 60 13.4831 60Z" fill="#FF815C"/>
<path d="M42.5404 27.4112C42.1615 26.9563 41.6875 26.5902 41.1516 26.3386C40.6158 26.0869 40.0312 25.956 39.4392 25.955H33.2908L34.0459 24.0269C34.36 23.1827 34.4646 22.2749 34.3507 21.3813C34.2369 20.4878 33.908 19.6353 33.3922 18.8968C32.8765 18.1583 32.1893 17.556 31.3896 17.1414C30.5899 16.7269 29.7016 16.5125 28.8009 16.5167C28.5415 16.5172 28.2878 16.5925 28.0702 16.7336C27.8526 16.8747 27.6803 17.0756 27.5739 17.3122L23.7312 25.955H20.5626C19.4898 25.955 18.4609 26.3812 17.7023 27.1398C16.9437 27.8983 16.5176 28.9272 16.5176 30V39.4383C16.5176 40.5111 16.9437 41.54 17.7023 42.2986C18.4609 43.0572 19.4898 43.4833 20.5626 43.4833H37.7269C38.6731 43.483 39.5894 43.151 40.3161 42.5449C41.0428 41.9389 41.5341 41.0973 41.7044 40.1664L43.4168 30.7281C43.5227 30.1448 43.4991 29.5453 43.3477 28.9721C43.1962 28.3989 42.9206 27.8661 42.5404 27.4112ZM23.2592 40.7867H20.5626C20.205 40.7867 19.862 40.6446 19.6092 40.3917C19.3563 40.1389 19.2142 39.7959 19.2142 39.4383V30C19.2142 29.6424 19.3563 29.2994 19.6092 29.0466C19.862 28.7937 20.205 28.6517 20.5626 28.6517H23.2592V40.7867ZM40.7876 30.2427L39.0752 39.681C39.0178 39.9951 38.8507 40.2787 38.6038 40.4811C38.3569 40.6836 38.0461 40.7919 37.7269 40.7867H25.9559V27.5865L29.6234 19.3347C30.0009 19.4447 30.3515 19.6319 30.653 19.8842C30.9546 20.1366 31.2006 20.4488 31.3754 20.801C31.5502 21.1532 31.6502 21.5378 31.6689 21.9306C31.6876 22.3234 31.6247 22.7158 31.4841 23.083L30.7695 25.0112C30.6172 25.4187 30.5658 25.857 30.6196 26.2888C30.6735 26.7205 30.831 27.1327 31.0787 27.4904C31.3264 27.8481 31.657 28.1405 32.0422 28.3427C32.4274 28.5449 32.8558 28.6509 33.2908 28.6517H39.4392C39.6373 28.6513 39.8331 28.6947 40.0125 28.7786C40.1919 28.8625 40.3507 28.9849 40.4775 29.1371C40.6074 29.2872 40.7025 29.4641 40.7561 29.6552C40.8097 29.8463 40.8205 30.0469 40.7876 30.2427Z" fill="white"/>
</g>
<defs>
<clipPath id="clip0">
<rect width="60" height="60" fill="white"/>
</clipPath>
</defs>
</svg>
