<svg width="60" height="60" viewBox="0 0 60 60" fill="none" xmlns="http://www.w3.org/2000/svg">
<g clip-path="url(#clip0)">
<path d="M13.4831 60L46.5169 60C53.9634 60 60 53.9634 60 46.5169L60 13.4831C60 6.03661 53.9634 0 46.5169 0L13.4831 0C6.03661 0 0 6.03661 0 13.4831L0 46.5169C0 53.9634 6.03661 60 13.4831 60Z" fill="#262433"/>
<path d="M39.3327 32.6667H41.9993C42.353 32.6667 42.6921 32.5262 42.9422 32.2761C43.1922 32.0261 43.3327 31.687 43.3327 31.3333C43.3327 30.9797 43.1922 30.6406 42.9422 30.3905C42.6921 30.1405 42.353 30 41.9993 30H39.3327V28.6667C39.3209 28.0524 39.2267 27.4425 39.0527 26.8533C40.306 26.3728 41.385 25.5252 42.1487 24.4214C42.9123 23.3175 43.325 22.0089 43.3327 20.6667C43.3327 20.313 43.1922 19.9739 42.9422 19.7239C42.6921 19.4738 42.353 19.3333 41.9993 19.3333C41.6457 19.3333 41.3066 19.4738 41.0565 19.7239C40.8065 19.9739 40.666 20.313 40.666 20.6667C40.6648 21.5265 40.3867 22.363 39.8727 23.0523C39.3588 23.7415 38.6364 24.2469 37.8127 24.4933C37.1551 23.6506 36.3045 22.9784 35.3327 22.5333C35.3465 22.3558 35.3465 22.1775 35.3327 22C35.3327 20.5855 34.7708 19.229 33.7706 18.2288C32.7704 17.2286 31.4138 16.6667 29.9993 16.6667C28.5849 16.6667 27.2283 17.2286 26.2281 18.2288C25.2279 19.229 24.666 20.5855 24.666 22C24.6522 22.1775 24.6522 22.3558 24.666 22.5333C23.6748 22.9711 22.8053 23.6438 22.1327 24.4933C21.3189 24.2374 20.6083 23.7281 20.1045 23.0396C19.6008 22.3512 19.3304 21.5197 19.3327 20.6667C19.3327 20.313 19.1922 19.9739 18.9422 19.7239C18.6921 19.4738 18.353 19.3333 17.9993 19.3333C17.6457 19.3333 17.3066 19.4738 17.0565 19.7239C16.8065 19.9739 16.666 20.313 16.666 20.6667C16.6737 22.0089 17.0864 23.3175 17.85 24.4214C18.6137 25.5252 19.6927 26.3728 20.946 26.8533C20.772 27.4425 20.6778 28.0524 20.666 28.6667V30H17.9993C17.6457 30 17.3066 30.1405 17.0565 30.3905C16.8065 30.6406 16.666 30.9797 16.666 31.3333C16.666 31.687 16.8065 32.0261 17.0565 32.2761C17.3066 32.5262 17.6457 32.6667 17.9993 32.6667H20.666V34C20.6672 34.618 20.7297 35.2344 20.8527 35.84C19.6211 36.3336 18.5647 37.1834 17.8189 38.2808C17.0731 39.3782 16.6716 40.6732 16.666 42C16.666 42.3536 16.8065 42.6928 17.0565 42.9428C17.3066 43.1929 17.6457 43.3333 17.9993 43.3333C18.353 43.3333 18.6921 43.1929 18.9422 42.9428C19.1922 42.6928 19.3327 42.3536 19.3327 42C19.3363 41.2224 19.5665 40.4627 19.9951 39.8138C20.4237 39.165 21.0322 38.6551 21.746 38.3467C22.539 39.8483 23.7266 41.1052 25.1809 41.9819C26.6352 42.8585 28.3012 43.3218 29.9993 43.3218C31.6975 43.3218 33.3635 42.8585 34.8178 41.9819C36.2721 41.1052 37.4597 39.8483 38.2527 38.3467C38.9665 38.6551 39.575 39.165 40.0036 39.8138C40.4322 40.4627 40.6624 41.2224 40.666 42C40.666 42.3536 40.8065 42.6928 41.0565 42.9428C41.3066 43.1929 41.6457 43.3333 41.9993 43.3333C42.353 43.3333 42.6921 43.1929 42.9422 42.9428C43.1922 42.6928 43.3327 42.3536 43.3327 42C43.3271 40.6732 42.9256 39.3782 42.1798 38.2808C41.434 37.1834 40.3776 36.3336 39.146 35.84C39.269 35.2344 39.3315 34.618 39.3327 34V32.6667ZM28.666 40.5333C27.1602 40.226 25.8068 39.4078 24.8349 38.2172C23.8631 37.0267 23.3324 35.5369 23.3327 34V28.6667C23.3327 27.6058 23.7541 26.5884 24.5043 25.8382C25.2544 25.0881 26.2718 24.6667 27.3327 24.6667H28.666V40.5333ZM27.3327 22C27.3327 21.2928 27.6136 20.6145 28.1137 20.1144C28.6138 19.6143 29.2921 19.3333 29.9993 19.3333C30.7066 19.3333 31.3849 19.6143 31.885 20.1144C32.3851 20.6145 32.666 21.2928 32.666 22H27.3327ZM36.666 34C36.6663 35.5369 36.1356 37.0267 35.1638 38.2172C34.1919 39.4078 32.8385 40.226 31.3327 40.5333V24.6667H32.666C33.7269 24.6667 34.7443 25.0881 35.4944 25.8382C36.2446 26.5884 36.666 27.6058 36.666 28.6667V34Z" fill="white"/>
</g>
<defs>
<clipPath id="clip0">
<rect width="60" height="60" fill="white"/>
</clipPath>
</defs>
</svg>
