<svg width="60" height="60" viewBox="0 0 60 60" fill="none" xmlns="http://www.w3.org/2000/svg">
<g clip-path="url(#clip0)">
<path d="M13.4831 60L46.5169 60C53.9634 60 60 53.9634 60 46.5169L60 13.4831C60 6.03661 53.9634 0 46.5169 0L13.4831 0C6.03661 0 0 6.03661 0 13.4831L0 46.5169C0 53.9634 6.03661 60 13.4831 60Z" fill="#262433"/>
<path d="M44.1337 16.7493C44.0736 16.521 43.9539 16.3126 43.7869 16.1457C43.6199 15.9787 43.4116 15.859 43.1832 15.7988C40.448 15.0884 37.5678 15.1649 34.8742 16.0195C32.1807 16.8742 29.7832 18.4722 27.9579 20.6296L26.4714 22.3947L22.9983 21.5567C22.154 21.2623 21.2316 21.2834 20.4016 21.6161C19.5716 21.9488 18.89 22.5705 18.4827 23.3665L15.5491 28.5664C15.4463 28.7485 15.3878 28.9523 15.3783 29.1612C15.3688 29.3701 15.4087 29.5784 15.4945 29.7691C15.5804 29.9598 15.7099 30.1276 15.8727 30.259C16.0354 30.3903 16.2267 30.4816 16.4312 30.5253L20.5282 31.4036C20.1812 32.4601 19.9334 33.5466 19.788 34.649C19.7617 34.8516 19.7822 35.0575 19.848 35.2508C19.9138 35.4442 20.0231 35.6198 20.1676 35.7643L24.301 39.8977C24.4248 40.0216 24.5717 40.1198 24.7335 40.1869C24.8952 40.2539 25.0686 40.2884 25.2437 40.2884C25.2821 40.2884 25.3205 40.2864 25.3596 40.2832C26.4867 40.1819 27.6001 39.9629 28.6817 39.6299L29.5399 43.6341C29.5838 43.8385 29.6751 44.0298 29.8065 44.1925C29.9379 44.3552 30.1057 44.4846 30.2964 44.5705C30.487 44.6564 30.6952 44.6962 30.9041 44.6868C31.113 44.6773 31.3168 44.6189 31.4989 44.5163L36.7059 41.5794C37.4388 41.1341 38.0113 40.4675 38.3408 39.6758C38.6703 38.8841 38.7398 38.0082 38.5393 37.1745L37.6477 33.4958L39.2971 31.9791C41.4625 30.159 43.0667 27.7614 43.9229 25.0653C44.7791 22.3692 44.8522 19.4854 44.1337 16.7493ZM18.762 28.2975L20.8368 24.6178C20.9657 24.368 21.1853 24.177 21.4505 24.0839C21.7157 23.9908 22.0065 24.0027 22.2633 24.1172L24.5532 24.6721L23.6865 25.7012C22.8648 26.6859 22.1542 27.7582 21.5674 28.8987L18.762 28.2975ZM35.3889 39.2604L31.7678 41.3027L31.1952 38.6298C32.356 38.0509 33.4375 37.325 34.413 36.47L35.4044 35.5584L35.9423 37.7779C36.0121 38.052 35.9965 38.3408 35.8976 38.6058C35.7987 38.8707 35.6212 39.0991 35.3889 39.2604ZM37.5413 29.9733L32.6285 34.4883C30.6839 36.17 28.2853 37.2389 25.7346 37.5606L22.5289 34.3548C22.9595 31.7975 24.0645 29.4013 25.7301 27.4135L27.9679 24.7566C28.0051 24.7176 28.0399 24.6763 28.072 24.6329L29.9853 22.3613C31.3999 20.6905 33.2326 19.4251 35.2962 18.6942C37.3599 17.9633 39.5805 17.7932 41.7314 18.2012C42.1492 20.3588 41.9809 22.589 41.244 24.6595C40.507 26.7299 39.2284 28.5649 37.5413 29.9733ZM36.3106 21.755C35.915 21.755 35.5284 21.8723 35.1995 22.092C34.8706 22.3118 34.6142 22.6242 34.4628 22.9896C34.3115 23.3551 34.2719 23.7572 34.349 24.1452C34.4262 24.5331 34.6167 24.8895 34.8964 25.1692C35.1761 25.4489 35.5325 25.6394 35.9204 25.7166C36.3084 25.7937 36.7105 25.7541 37.076 25.6027C37.4414 25.4514 37.7538 25.195 37.9735 24.8661C38.1933 24.5372 38.3106 24.1505 38.3106 23.755C38.3106 23.4923 38.2589 23.2322 38.1584 22.9896C38.0579 22.7469 37.9106 22.5264 37.7248 22.3407C37.5391 22.155 37.3186 22.0077 37.076 21.9072C36.8333 21.8067 36.5732 21.7549 36.3106 21.755L36.3106 21.755Z" fill="white"/>
</g>
<defs>
<clipPath id="clip0">
<rect width="60" height="60" fill="white"/>
</clipPath>
</defs>
</svg>
