<svg width="60" height="60" viewBox="0 0 60 60" fill="none" xmlns="http://www.w3.org/2000/svg">
<g clip-path="url(#clip0)">
<path d="M13.4831 60L46.5169 60C53.9634 60 60 53.9634 60 46.5169L60 13.4831C60 6.03661 53.9634 0 46.5169 0L13.4831 0C6.03661 0 0 6.03661 0 13.4831L0 46.5169C0 53.9634 6.03661 60 13.4831 60Z" fill="#30A3E6"/>
<path d="M43.4589 19.0524C43.1099 18.762 42.6886 18.5717 42.24 18.5018C41.7913 18.4318 41.3321 18.4849 40.9113 18.6553L18.9439 27.5238C18.4741 27.7172 18.0743 28.0488 17.7974 28.4746C17.5205 28.9005 17.3796 29.4005 17.3935 29.9083C17.4074 30.4161 17.5754 30.9077 17.8752 31.3178C18.1749 31.7279 18.5923 32.0371 19.0719 32.2045L23.5153 33.7497L25.9922 41.94C26.0258 42.0494 26.0746 42.1536 26.1371 42.2494C26.1466 42.2643 26.16 42.2751 26.1702 42.2892C26.2424 42.39 26.3297 42.4791 26.429 42.5535C26.4573 42.5751 26.4843 42.5953 26.5146 42.6142C26.631 42.6912 26.7599 42.7476 26.8955 42.7807H26.9104L26.9185 42.784C27.0001 42.8006 27.0832 42.8089 27.1666 42.809C27.1746 42.809 27.1814 42.8049 27.1895 42.8049C27.3152 42.8017 27.4396 42.779 27.5582 42.7375C27.5859 42.7281 27.6095 42.7126 27.6364 42.7011C27.725 42.6644 27.809 42.6173 27.8866 42.5609L28.0733 42.4038L31.3854 38.7472L36.3257 42.5744C36.7606 42.913 37.296 43.0971 37.8472 43.0975C38.4248 43.0968 38.9846 42.8975 39.4328 42.5331C39.8809 42.1687 40.1901 41.6613 40.3086 41.0959L44.309 21.4692C44.3996 21.0273 44.3684 20.5691 44.2187 20.1437C44.0689 19.7182 43.8063 19.3414 43.4589 19.0537V19.0524ZM27.6533 34.1434C27.4822 34.3123 27.3649 34.5281 27.3162 34.7636L26.9367 36.6074L25.9753 33.4288L30.9587 30.8339L27.6533 34.1434ZM37.829 40.6443L31.9908 36.122C31.7465 35.9334 31.4401 35.8437 31.1327 35.8708C30.8252 35.8979 30.5392 36.0398 30.3317 36.2683L29.2706 37.4393L29.6454 35.6191L38.3286 26.9299C38.5366 26.7231 38.6637 26.4486 38.6865 26.1561C38.7094 25.8637 38.6266 25.5727 38.4533 25.3361C38.2799 25.0995 38.0274 24.9329 37.7416 24.8666C37.4559 24.8003 37.1559 24.8387 36.896 24.9748L24.4349 31.4656L19.8702 29.795L41.9077 20.9784L37.829 40.6443Z" fill="white"/>
</g>
<defs>
<clipPath id="clip0">
<rect width="60" height="60" fill="white"/>
</clipPath>
</defs>
</svg>
