<svg width="24" height="24" viewBox="0 0 24 24" fill="none" xmlns="http://www.w3.org/2000/svg">
<path fill-rule="evenodd" clip-rule="evenodd" d="M9.69497 12.455C9.36497 12.005 8.88997 11.69 8.26997 11.51C8.79997 11.31 9.20997 11 9.49997 10.58C9.78997 10.15 9.93497 9.645 9.93497 9.065C9.93497 8.485 9.78497 7.98 9.48497 7.55C9.19497 7.12 8.77497 6.785 8.22497 6.545C7.68497 6.305 7.05497 6.185 6.33497 6.185C5.62497 6.185 4.93497 6.295 4.26497 6.515C3.59497 6.725 3.04497 7.015 2.61497 7.385L3.36497 9.065C3.82497 8.725 4.29497 8.47 4.77497 8.3C5.25497 8.12 5.72497 8.03 6.18497 8.03C6.67497 8.03 7.04997 8.145 7.30997 8.375C7.57997 8.605 7.71497 8.94 7.71497 9.38C7.71497 9.82 7.56497 10.15 7.26497 10.37C6.96497 10.58 6.50497 10.685 5.88497 10.685H4.60997V12.515H6.13997C6.78997 12.515 7.25997 12.625 7.54997 12.845C7.84997 13.055 7.99997 13.395 7.99997 13.865C7.99997 14.355 7.84997 14.715 7.54997 14.945C7.25997 15.165 6.78997 15.275 6.13997 15.275C5.13997 15.275 4.16497 14.93 3.21497 14.24L2.46497 15.92C2.88497 16.29 3.43497 16.585 4.11497 16.805C4.79497 17.015 5.50497 17.12 6.24497 17.12C7.46497 17.12 8.42997 16.85 9.13997 16.31C9.84997 15.77 10.205 15.03 10.205 14.09C10.205 13.44 10.035 12.895 9.69497 12.455ZM16.1841 6.32H12.0591V17L13 17C13 15.9223 13.5328 14.9441 14.3991 14.2248V8.21H16.0341C18.3141 8.21 19.4541 9.355 19.4541 11.645C19.4541 12.2072 19.3866 12.701 19.2515 13.1263C20.0511 13.2912 20.7731 13.6103 21.3652 14.0416C21.6512 13.3467 21.7941 12.5478 21.7941 11.645C21.7941 10.535 21.5691 9.58 21.1191 8.78C20.6791 7.98 20.0391 7.37 19.1991 6.95C18.3591 6.53 17.3541 6.32 16.1841 6.32Z" fill="white"/>
<path fill-rule="evenodd" clip-rule="evenodd" d="M18 14C19.6394 14 21.1589 15.0913 21.9666 16.85C21.9886 16.8973 22 16.9484 22 17C22 17.0516 21.9886 17.1027 21.9666 17.15C21.1589 18.9088 19.6394 20 18 20C16.3606 20 14.8411 18.9088 14.0334 17.15C14.0114 17.1027 14 17.0516 14 17C14 16.9484 14.0114 16.8973 14.0334 16.85C14.8411 15.0913 16.3606 14 18 14ZM18 19C19.1046 19 20 18.1046 20 17C20 15.8954 19.1046 15 18 15C16.8954 15 16 15.8954 16 17C16 18.1046 16.8954 19 18 19Z" fill="white"/>
<circle cx="18" cy="17" r="1" fill="white"/>
</svg>
