<svg width="20" height="20" viewBox="0 0 20 20" fill="none" xmlns="http://www.w3.org/2000/svg">
<path d="M16.0189 4.82888L11.1784 2.035C10.7613 1.79395 10.2881 1.66704 9.80638 1.66704C9.32469 1.66704 8.8515 1.79395 8.43445 2.035L3.59389 4.82888C3.17672 5.06992 2.83031 5.41647 2.58945 5.83374C2.34859 6.25101 2.22177 6.7243 2.22168 7.2061V12.795C2.22179 13.2766 2.34865 13.7498 2.58952 14.1669C2.83039 14.5839 3.17677 14.9303 3.59389 15.1711L8.43445 17.9661C8.85161 18.2068 9.32475 18.3335 9.80638 18.3335C10.288 18.3335 10.7612 18.2068 11.1784 17.9661L16.0189 15.1711C16.436 14.9303 16.7824 14.5839 17.0233 14.1669C17.2642 13.7498 17.391 13.2766 17.3911 12.795V7.2061C17.391 6.7243 17.2642 6.25101 17.0233 5.83374C16.7825 5.41647 16.436 5.06992 16.0189 4.82888ZM8.88279 15.5305C8.88272 15.6036 8.8634 15.6753 8.8268 15.7385C8.7902 15.8017 8.7376 15.8541 8.67428 15.8905C8.61097 15.9269 8.53921 15.9459 8.46619 15.9458C8.39316 15.9456 8.32146 15.9261 8.25833 15.8894L4.18779 13.5194C4.05202 13.4401 3.93946 13.3265 3.86146 13.19C3.78345 13.0535 3.74274 12.8989 3.74335 12.7417V8.03165C3.74332 7.95858 3.76254 7.8868 3.7991 7.82354C3.83566 7.76027 3.88826 7.70776 3.95159 7.6713C4.01491 7.63485 4.08675 7.61574 4.15982 7.6159C4.23289 7.61606 4.30461 7.63549 4.36778 7.67222L8.44279 10.0383C8.57899 10.1174 8.69204 10.2309 8.77062 10.3674C8.8492 10.5039 8.89054 10.6586 8.89055 10.8161L8.88279 15.5305ZM9.35889 8.625L5.27445 6.27777C5.21056 6.24158 5.15739 6.18908 5.12041 6.12564C5.08343 6.0622 5.06395 5.99009 5.06395 5.91666C5.06395 5.84323 5.08343 5.77111 5.12041 5.70767C5.15739 5.64423 5.21056 5.59172 5.27445 5.55554L9.35777 3.20389C9.4941 3.12524 9.64873 3.08383 9.80611 3.08383C9.9635 3.08383 10.1181 3.12524 10.2544 3.20389L14.3378 5.55554C14.4017 5.59172 14.4548 5.64423 14.4918 5.70767C14.5288 5.77111 14.5483 5.84323 14.5483 5.91666C14.5483 5.99009 14.5288 6.0622 14.4918 6.12564C14.4548 6.18908 14.4017 6.24158 14.3378 6.27777L10.2533 8.625C10.1173 8.70307 9.96322 8.74415 9.80638 8.74415C9.64955 8.74415 9.49545 8.70307 9.35944 8.625H9.35889ZM15.87 12.7433C15.8705 12.9005 15.8298 13.0551 15.7518 13.1916C15.6738 13.3281 15.5613 13.4418 15.4256 13.5211L11.3522 15.89C11.2891 15.9267 11.2174 15.9461 11.1444 15.9463C11.0714 15.9465 10.9996 15.9274 10.9363 15.891C10.873 15.8547 10.8204 15.8022 10.7838 15.739C10.7472 15.6758 10.7278 15.6041 10.7278 15.5311V10.8183C10.7274 10.6611 10.7682 10.5066 10.8462 10.3701C10.9242 10.2337 11.0366 10.12 11.1722 10.0406L15.2483 7.67444C15.3115 7.63781 15.3831 7.61846 15.4561 7.61836C15.529 7.61825 15.6008 7.63739 15.664 7.67385C15.7272 7.7103 15.7797 7.76277 15.8161 7.82598C15.8526 7.88919 15.8718 7.96091 15.8717 8.03389L15.87 12.7433Z" fill="white"/>
<path opacity="0.6" d="M3.59342 15.1717L8.43395 17.9656C8.851 18.2066 9.32422 18.3336 9.80592 18.3336C10.2876 18.3336 10.7608 18.2066 11.1779 17.9656L16.0184 15.1717C16.4356 14.9307 16.782 14.5841 17.0229 14.1669C17.2637 13.7496 17.3905 13.2763 17.3906 12.7945L17.3906 7.20561C17.3905 6.72397 17.2637 6.25083 17.0228 5.83374C16.7819 5.41666 16.4355 5.07032 16.0184 4.82949L11.1779 2.03449C10.7607 1.79377 10.2876 1.66706 9.80592 1.66706C9.32429 1.66706 8.85111 1.79377 8.43395 2.03449L3.59343 4.82949C3.17631 5.07031 2.82989 5.41666 2.58902 5.83374C2.34815 6.25083 2.2213 6.72397 2.22118 7.20561L2.22118 12.7945C2.22127 13.2763 2.34813 13.7496 2.58899 14.1669C2.82985 14.5841 3.17626 14.9307 3.59342 15.1717ZM10.7295 4.47005C10.7296 4.39702 10.7489 4.32531 10.7855 4.26212C10.8221 4.19893 10.8747 4.1465 10.938 4.11011C11.0013 4.07372 11.0731 4.05465 11.1461 4.05484C11.2191 4.05502 11.2908 4.07445 11.354 4.11116L15.4245 6.48116C15.5603 6.56045 15.6728 6.67406 15.7508 6.81058C15.8289 6.94709 15.8696 7.1017 15.869 7.25893L15.869 11.9689C15.869 12.042 15.8498 12.1138 15.8132 12.1771C15.7766 12.2403 15.724 12.2928 15.6607 12.3293C15.5974 12.3657 15.5256 12.3849 15.4525 12.3847C15.3794 12.3845 15.3077 12.3651 15.2445 12.3284L11.1695 9.96228C11.0333 9.88319 10.9203 9.76971 10.8417 9.63322C10.7631 9.49672 10.7218 9.34199 10.7218 9.18449L10.7295 4.47005ZM10.2534 11.3756L14.3379 13.7228C14.4017 13.759 14.4549 13.8115 14.4919 13.875C14.5289 13.9384 14.5484 14.0105 14.5484 14.0839C14.5484 14.1574 14.5289 14.2295 14.4919 14.2929C14.4549 14.3564 14.4017 14.4089 14.3379 14.4451L10.2545 16.7967C10.1182 16.8754 9.96358 16.9168 9.80619 16.9168C9.64881 16.9168 9.49419 16.8754 9.35786 16.7967L5.27454 14.4451C5.21064 14.4089 5.15747 14.3564 5.12049 14.2929C5.08351 14.2295 5.06403 14.1574 5.06403 14.0839C5.06403 14.0105 5.08351 13.9384 5.12049 13.875C5.15747 13.8115 5.21064 13.759 5.27454 13.7228L9.35898 11.3756C9.49499 11.2975 9.64909 11.2564 9.80592 11.2564C9.96275 11.2564 10.1174 11.2975 10.2534 11.3756ZM3.74232 7.25727C3.74176 7.10005 3.78252 6.94545 3.86052 6.80895C3.93852 6.67244 4.05102 6.55883 4.18675 6.47949L8.26007 4.1106C8.3232 4.07389 8.39491 4.05448 8.46793 4.0543C8.54095 4.05411 8.61271 4.07316 8.67603 4.10955C8.73934 4.14594 8.79194 4.19837 8.82855 4.26156C8.86515 4.32475 8.88447 4.39646 8.88453 4.46949L8.88453 9.18227C8.88492 9.33945 8.84407 9.49399 8.76609 9.63047C8.6881 9.76694 8.57571 9.88058 8.44009 9.96004L4.36396 12.3262C4.30085 12.3628 4.22921 12.3821 4.15624 12.3822C4.08326 12.3823 4.01153 12.3632 3.94831 12.3267C3.88509 12.2903 3.83263 12.2378 3.79616 12.1746C3.7597 12.1114 3.74053 12.0397 3.74062 11.9667L3.74232 7.25727Z" fill="white"/>
</svg>
