<svg width="100%" height="100%" viewBox="0 0 16 16" fill="none" xmlns="http://www.w3.org/2000/svg">
<g filter="url(#filter0_d)">
<path d="M8 6.66667C7.73629 6.66667 7.47851 6.74486 7.25924 6.89137C7.03998 7.03788 6.86908 7.24612 6.76816 7.48976C6.66724 7.73339 6.64084 8.00148 6.69229 8.26012C6.74373 8.51876 6.87072 8.75634 7.05719 8.94281C7.24366 9.12928 7.48124 9.25627 7.73988 9.30771C7.99852 9.35916 8.26661 9.33276 8.51025 9.23184C8.75388 9.13092 8.96212 8.96003 9.10863 8.74076C9.25514 8.52149 9.33333 8.26371 9.33333 8C9.33333 7.64638 9.19286 7.30724 8.94281 7.05719C8.69276 6.80714 8.35362 6.66667 8 6.66667ZM3.33333 6.66667C3.06963 6.66667 2.81184 6.74486 2.59257 6.89137C2.37331 7.03788 2.20241 7.24612 2.10149 7.48976C2.00058 7.73339 1.97417 8.00148 2.02562 8.26012C2.07707 8.51876 2.20405 8.75634 2.39052 8.94281C2.57699 9.12928 2.81457 9.25627 3.07321 9.30771C3.33185 9.35916 3.59994 9.33276 3.84358 9.23184C4.08721 9.13092 4.29545 8.96003 4.44196 8.74076C4.58847 8.52149 4.66667 8.26371 4.66667 8C4.66667 7.64638 4.52619 7.30724 4.27614 7.05719C4.02609 6.80714 3.68696 6.66667 3.33333 6.66667ZM12.6667 6.66667C12.403 6.66667 12.1452 6.74486 11.9259 6.89137C11.7066 7.03788 11.5357 7.24612 11.4348 7.48976C11.3339 7.73339 11.3075 8.00148 11.359 8.26012C11.4104 8.51876 11.5374 8.75634 11.7239 8.94281C11.9103 9.12928 12.1479 9.25627 12.4065 9.30771C12.6652 9.35916 12.9333 9.33276 13.1769 9.23184C13.4205 9.13092 13.6288 8.96003 13.7753 8.74076C13.9218 8.52149 14 8.26371 14 8C14 7.64638 13.8595 7.30724 13.6095 7.05719C13.3594 6.80714 13.0203 6.66667 12.6667 6.66667Z" fill="white"/>
</g>
<defs>
<filter id="filter0_d" x="0" y="4.66667" width="16" height="6.66667" filterUnits="userSpaceOnUse" color-interpolation-filters="sRGB">
<feFlood flood-opacity="0" result="BackgroundImageFix"/>
<feColorMatrix in="SourceAlpha" type="matrix" values="0 0 0 0 0 0 0 0 0 0 0 0 0 0 0 0 0 0 127 0"/>
<feOffset/>
<feGaussianBlur stdDeviation="1"/>
<feColorMatrix type="matrix" values="0 0 0 0 0 0 0 0 0 0 0 0 0 0 0 0 0 0 0.5 0"/>
<feBlend mode="normal" in2="BackgroundImageFix" result="effect1_dropShadow"/>
<feBlend mode="normal" in="SourceGraphic" in2="effect1_dropShadow" result="shape"/>
</filter>
</defs>
</svg>
