<svg width="20" height="20" viewBox="0 0 20 20" fill="none" xmlns="http://www.w3.org/2000/svg">
<path d="M16.0179 4.82889L11.1774 2.03501C10.7603 1.79397 10.2871 1.66705 9.80541 1.66705C9.32371 1.66705 8.85052 1.79397 8.43347 2.03501L3.59291 4.82889C3.17575 5.06994 2.82934 5.41649 2.58847 5.83375C2.34761 6.25102 2.22079 6.72432 2.2207 7.20611V12.795C2.22082 13.2766 2.34767 13.7498 2.58854 14.1669C2.82941 14.584 3.1758 14.9303 3.59291 15.1711L8.43347 17.9661C8.85063 18.2068 9.32378 18.3336 9.80541 18.3336C10.287 18.3336 10.7602 18.2068 11.1774 17.9661L16.0179 15.1711C16.435 14.9303 16.7814 14.584 17.0223 14.1669C17.2632 13.7498 17.39 13.2766 17.3901 12.795V7.20611C17.3901 6.72432 17.2632 6.25102 17.0223 5.83375C16.7815 5.41649 16.4351 5.06994 16.0179 4.82889ZM8.88181 15.5306C8.88175 15.6036 8.86243 15.6753 8.82583 15.7385C8.78923 15.8017 8.73662 15.8541 8.67331 15.8905C8.60999 15.9269 8.53823 15.946 8.46521 15.9458C8.39219 15.9456 8.32048 15.9262 8.25735 15.8894L4.18682 13.5195C4.05105 13.4402 3.93849 13.3265 3.86048 13.19C3.78247 13.0535 3.74176 12.8989 3.74238 12.7417V8.03166C3.74234 7.95859 3.76156 7.88682 3.79812 7.82355C3.83468 7.76028 3.88728 7.70777 3.95061 7.67132C4.01394 7.63487 4.08577 7.61575 4.15884 7.61591C4.23191 7.61607 4.30363 7.6355 4.3668 7.67223L8.44181 10.0383C8.57801 10.1174 8.69106 10.2309 8.76964 10.3674C8.84822 10.5039 8.88957 10.6586 8.88957 10.8161L8.88181 15.5306ZM9.35792 8.62501L5.27348 6.27778C5.20958 6.2416 5.15641 6.1891 5.11943 6.12565C5.08245 6.06221 5.06297 5.99011 5.06297 5.91668C5.06297 5.84325 5.08245 5.77112 5.11943 5.70768C5.15641 5.64424 5.20958 5.59174 5.27348 5.55555L9.3568 3.2039C9.49313 3.12526 9.64775 3.08385 9.80514 3.08385C9.96252 3.08385 10.1171 3.12526 10.2535 3.2039L14.3368 5.55555C14.4007 5.59174 14.4539 5.64424 14.4908 5.70768C14.5278 5.77112 14.5473 5.84325 14.5473 5.91668C14.5473 5.99011 14.5278 6.06221 14.4908 6.12565C14.4539 6.1891 14.4007 6.2416 14.3368 6.27778L10.2524 8.62501C10.1163 8.70309 9.96224 8.74416 9.80541 8.74416C9.64857 8.74416 9.49448 8.70309 9.35846 8.62501H9.35792ZM15.869 12.7433C15.8696 12.9006 15.8288 13.0552 15.7508 13.1917C15.6728 13.3282 15.5603 13.4418 15.4246 13.5211L11.3513 15.89C11.2881 15.9267 11.2164 15.9461 11.1434 15.9463C11.0704 15.9465 10.9986 15.9274 10.9353 15.8911C10.872 15.8547 10.8194 15.8022 10.7828 15.739C10.7462 15.6759 10.7269 15.6041 10.7268 15.5311V10.8183C10.7264 10.6612 10.7673 10.5066 10.8452 10.3701C10.9232 10.2337 11.0356 10.12 11.1712 10.0406L15.2474 7.67446C15.3105 7.63782 15.3821 7.61847 15.4551 7.61837C15.5281 7.61827 15.5998 7.63741 15.663 7.67386C15.7262 7.71032 15.7787 7.76278 15.8152 7.82599C15.8516 7.8892 15.8708 7.96093 15.8707 8.0339L15.869 12.7433Z" fill="white"/>
<path opacity="0.6" d="M3.59342 15.1717L8.43395 17.9656C8.851 18.2066 9.32422 18.3336 9.80592 18.3336C10.2876 18.3336 10.7608 18.2066 11.1779 17.9656L16.0184 15.1717C16.4356 14.9307 16.782 14.5841 17.0229 14.1669C17.2637 13.7496 17.3905 13.2763 17.3906 12.7945L17.3906 7.20561C17.3905 6.72397 17.2637 6.25083 17.0228 5.83374C16.7819 5.41666 16.4355 5.07032 16.0184 4.82949L11.1779 2.03449C10.7607 1.79377 10.2876 1.66706 9.80592 1.66706C9.32429 1.66706 8.85111 1.79377 8.43395 2.03449L3.59343 4.82949C3.17631 5.07031 2.82989 5.41666 2.58902 5.83374C2.34815 6.25083 2.2213 6.72397 2.22118 7.20561L2.22118 12.7945C2.22127 13.2763 2.34813 13.7496 2.58899 14.1669C2.82985 14.5841 3.17626 14.9307 3.59342 15.1717ZM10.7295 4.47005C10.7296 4.39702 10.7489 4.32531 10.7855 4.26212C10.8221 4.19893 10.8747 4.1465 10.938 4.11011C11.0013 4.07372 11.0731 4.05465 11.1461 4.05484C11.2191 4.05502 11.2908 4.07445 11.354 4.11116L15.4245 6.48116C15.5603 6.56045 15.6728 6.67406 15.7508 6.81058C15.8289 6.94709 15.8696 7.1017 15.869 7.25893L15.869 11.9689C15.869 12.042 15.8498 12.1138 15.8132 12.1771C15.7766 12.2403 15.724 12.2928 15.6607 12.3293C15.5974 12.3657 15.5256 12.3849 15.4525 12.3847C15.3794 12.3845 15.3077 12.3651 15.2445 12.3284L11.1695 9.96228C11.0333 9.88319 10.9203 9.76971 10.8417 9.63322C10.7631 9.49672 10.7218 9.34199 10.7218 9.18449L10.7295 4.47005ZM10.2534 11.3756L14.3379 13.7228C14.4017 13.759 14.4549 13.8115 14.4919 13.875C14.5289 13.9384 14.5484 14.0105 14.5484 14.0839C14.5484 14.1574 14.5289 14.2295 14.4919 14.2929C14.4549 14.3564 14.4017 14.4089 14.3379 14.4451L10.2545 16.7967C10.1182 16.8754 9.96358 16.9168 9.80619 16.9168C9.64881 16.9168 9.49419 16.8754 9.35786 16.7967L5.27454 14.4451C5.21064 14.4089 5.15747 14.3564 5.12049 14.2929C5.08351 14.2295 5.06403 14.1574 5.06403 14.0839C5.06403 14.0105 5.08351 13.9384 5.12049 13.875C5.15747 13.8115 5.21064 13.759 5.27454 13.7228L9.35898 11.3756C9.49499 11.2975 9.64909 11.2564 9.80592 11.2564C9.96275 11.2564 10.1174 11.2975 10.2534 11.3756ZM3.74232 7.25727C3.74176 7.10005 3.78252 6.94545 3.86052 6.80895C3.93852 6.67244 4.05102 6.55883 4.18675 6.47949L8.26007 4.1106C8.3232 4.07389 8.39491 4.05448 8.46793 4.0543C8.54095 4.05411 8.61271 4.07316 8.67603 4.10955C8.73934 4.14594 8.79194 4.19837 8.82855 4.26156C8.86515 4.32475 8.88447 4.39646 8.88453 4.46949L8.88453 9.18227C8.88492 9.33945 8.84407 9.49399 8.76609 9.63047C8.6881 9.76694 8.57571 9.88058 8.44009 9.96004L4.36396 12.3262C4.30085 12.3628 4.22921 12.3821 4.15624 12.3822C4.08326 12.3823 4.01153 12.3632 3.94831 12.3267C3.88509 12.2903 3.83263 12.2378 3.79616 12.1746C3.7597 12.1114 3.74053 12.0397 3.74062 11.9667L3.74232 7.25727Z" fill="white"/>
</svg>
