<svg width="30" viewBox="0 0 24 24" fill="none" xmlns="http://www.w3.org/2000/svg">
<path d="M16.9997 14.8301C16.8123 15.0163 16.5589 15.1208 16.2947 15.1208C16.0305 15.1208 15.7771 15.0163 15.5897 14.8301L11.9997 11.2901L8.4597 14.8301C8.27234 15.0163 8.01889 15.1208 7.7547 15.1208C7.49052 15.1208 7.23707 15.0163 7.0497 14.8301C6.95598 14.7371 6.88158 14.6265 6.83081 14.5046C6.78004 14.3828 6.75391 14.2521 6.75391 14.1201C6.75391 13.988 6.78004 13.8573 6.83081 13.7355C6.88158 13.6136 6.95598 13.503 7.0497 13.4101L11.2897 9.17006C11.3827 9.07633 11.4933 9.00193 11.6151 8.95117C11.737 8.9004 11.8677 8.87426 11.9997 8.87426C12.1317 8.87426 12.2624 8.9004 12.3843 8.95117C12.5061 9.00193 12.6167 9.07633 12.7097 9.17006L16.9997 13.4101C17.0934 13.503 17.1678 13.6136 17.2186 13.7355C17.2694 13.8573 17.2955 13.988 17.2955 14.1201C17.2955 14.2521 17.2694 14.3828 17.2186 14.5046C17.1678 14.6265 17.0934 14.7371 16.9997 14.8301Z" fill="black"/>
</svg>
