<svg xmlns="http://www.w3.org/2000/svg" width="48" height="48" viewBox="0 0 48 48"><circle cx="24" cy="24" r="24" fill="#141323"/><path d="M17.458,12.625A4.523,4.523,0,0,1,19.62,8.82a4.672,4.672,0,0,0-3.658-1.984c-1.558-.158-3.039.917-3.829.917s-2.009-.894-3.3-.869A4.9,4.9,0,0,0,4.694,9.391c-1.762,3.06-.45,7.594,1.268,10.077C6.8,20.681,7.8,22.048,9.119,22c1.268-.05,1.746-.819,3.277-.819s1.962.819,3.3.794c1.363-.025,2.228-1.239,3.062-2.457a10.946,10.946,0,0,0,1.384-2.844,4.42,4.42,0,0,1-2.684-4.047ZM14.941,5.193A4.405,4.405,0,0,0,15.982,2a4.483,4.483,0,0,0-2.946,1.516,4.185,4.185,0,0,0-1.061,3.094,3.709,3.709,0,0,0,2.967-1.416Z" transform="translate(12.143 12)" fill="#fff"/></svg>