<svg fill="white" width="24" height="24" viewBox="0 0 24 24" xmlns="http://www.w3.org/2000/svg">
<path fill-rule="evenodd" clip-rule="evenodd" d="M4.99601 13.788H9.65801L10.61 16H12.766L8.18801 6.03201H6.42401L1.84601 16H4.04401L4.99601 13.788ZM7.33401 8.38401L8.94401 12.122H5.72401L7.33401 8.38401ZM21.2327 13.9484C20.4996 13.4508 19.5849 13.1194 18.5793 13.0266L18.4471 12.682C18.3444 12.4207 18.1857 12.2387 17.9711 12.136C17.7657 12.0333 17.5044 11.982 17.1871 11.982H15.7731V13.4177C14.861 13.7812 14.1073 14.3612 13.6171 15.0735V6.03201H18.0551C19.2124 6.03201 20.0897 6.28401 20.6871 6.78801C21.2844 7.29201 21.5831 8.01535 21.5831 8.95801C21.5831 9.62068 21.4057 10.19 21.0511 10.666C20.7057 11.142 20.2064 11.4827 19.5531 11.688C20.1411 11.8093 20.5657 12.2153 20.8271 12.906L21.2327 13.9484ZM19.1051 10.008C18.8157 10.2133 18.3584 10.316 17.7331 10.316H15.7451V7.71201H17.7331C18.3584 7.71201 18.8157 7.81935 19.1051 8.03401C19.3944 8.23935 19.5391 8.56601 19.5391 9.01401C19.5391 9.46201 19.3944 9.79335 19.1051 10.008Z" />
<path fill-rule="evenodd" clip-rule="evenodd" d="M18 14C19.6394 14 21.1589 15.0913 21.9666 16.85C21.9886 16.8973 22 16.9484 22 17C22 17.0516 21.9886 17.1027 21.9666 17.15C21.1589 18.9088 19.6394 20 18 20C16.3606 20 14.8411 18.9088 14.0334 17.15C14.0114 17.1027 14 17.0516 14 17C14 16.9484 14.0114 16.8973 14.0334 16.85C14.8411 15.0913 16.3606 14 18 14ZM18 19C19.1046 19 20 18.1046 20 17C20 15.8954 19.1046 15 18 15C16.8954 15 16 15.8954 16 17C16 18.1046 16.8954 19 18 19Z" />
<circle cx="18" cy="17" r="1" />
</svg>
