<svg width="31" height="31" viewBox="0 0 31 31" fill="none" xmlns="http://www.w3.org/2000/svg">
<path d="M30.3371 27.4111C30.3371 28.1798 30.0318 28.917 29.4882 29.4605C28.9447 30.0041 28.2075 30.3094 27.4388 30.3094C26.6702 30.3094 25.933 30.0041 25.3895 29.4605C24.8459 28.917 24.5406 28.1798 24.5406 27.4111V27.0725C26.3511 25.6521 27.8134 23.8372 28.8162 21.766C29.819 19.6948 30.3358 17.4221 30.3271 15.1209" fill="url(#paint0_linear)"/>
<g style="mix-blend-mode:multiply">
<path d="M30.3371 15.1608L24.5406 26.0168C24.5406 26.6144 24.5406 27.5008 24.5406 27.5008C24.5498 27.7399 24.5865 27.9772 24.6501 28.2079C29.0722 24.742 30.3371 19.8618 30.3371 15.1608Z" fill="#5E5E5E"/>
</g>
<path d="M24.5406 2.91044V3.24906C21.7136 1.01567 18.1808 -0.13249 14.5809 0.0121779C10.8894 0.269293 7.40703 1.82073 4.74707 4.39324C2.0871 6.96576 0.420165 10.3944 0.0398348 14.0752C-0.107725 16.1059 0.155612 18.1456 0.814109 20.0723C1.4726 21.9989 2.51275 23.7731 3.87238 25.2887C5.23201 26.8043 6.88322 28.0303 8.72735 28.8934C10.5715 29.7565 12.5707 30.2389 14.6055 30.3119C16.6402 30.3849 18.6689 30.047 20.5701 29.3183C22.4713 28.5896 24.2062 27.4851 25.6709 26.0708C27.1357 24.6565 28.3003 22.9615 29.0952 21.087C29.8901 19.2124 30.2989 17.1969 30.2972 15.1608V2.91044C30.2973 2.14862 29.9974 1.41741 29.4625 0.875015C28.9276 0.332617 28.2006 0.0226496 27.4388 0.0121779C26.6702 0.0121779 25.933 0.317529 25.3894 0.861058C24.8459 1.40459 24.5406 2.14177 24.5406 2.91044ZM19.6305 12.2526C19.6174 12.3466 19.5852 12.437 19.5359 12.5182C19.4866 12.5994 19.4213 12.6697 19.3439 12.7247C19.2665 12.7797 19.1786 12.8183 19.0858 12.8382C18.9929 12.8581 18.897 12.8587 18.8038 12.8402C18.5511 12.7919 18.2942 12.7685 18.0369 12.7705C17.6549 12.7342 17.2695 12.7823 16.9081 12.9113C16.5466 13.0404 16.218 13.2473 15.9454 13.5175C15.4528 14.2494 15.2277 15.1288 15.308 16.0074V20.1605C15.308 20.3402 15.2366 20.5124 15.1096 20.6394C14.9826 20.7664 14.8103 20.8378 14.6307 20.8378H12.7882C12.6086 20.8378 12.4363 20.7664 12.3093 20.6394C12.1823 20.5124 12.1109 20.3402 12.1109 20.1605V10.5296C12.1109 10.3499 12.1823 10.1777 12.3093 10.0507C12.4363 9.92366 12.6086 9.85231 12.7882 9.85231H14.561C14.6516 9.85227 14.7414 9.87043 14.8249 9.9057C14.9084 9.94097 14.9839 9.99265 15.0471 10.0577C15.1102 10.1227 15.1597 10.1997 15.1925 10.2842C15.2254 10.3687 15.2409 10.4589 15.2383 10.5495L15.1885 12.6808C15.4188 11.7709 15.8982 10.9431 16.5728 10.2905C17.1896 9.75344 17.9863 9.4689 18.8038 9.49376L19.3217 9.54356C19.411 9.55458 19.4971 9.58327 19.5752 9.62795C19.6532 9.67263 19.7216 9.73241 19.7763 9.80379C19.831 9.87519 19.871 9.95675 19.8938 10.0437C19.9166 10.1307 19.9219 10.2214 19.9093 10.3105L19.6305 12.2526Z" fill="url(#paint1_linear)"/>
<defs>
<linearGradient id="paint0_linear" x1="27.4687" y1="22.501" x2="27.648" y2="30.9767" gradientUnits="userSpaceOnUse">
<stop stop-color="#319CFF"/>
<stop offset="1" stop-color="#721AA5"/>
</linearGradient>
<linearGradient id="paint1_linear" x1="10.0592" y1="24.1743" x2="23.8633" y2="0.251209" gradientUnits="userSpaceOnUse">
<stop stop-color="#FF0079"/>
<stop offset="1" stop-color="#721AA6"/>
</linearGradient>
</defs>
</svg>
