<svg width="16" height="16" viewBox="0 0 16 16" fill="none" xmlns="http://www.w3.org/2000/svg">
<path d="M5.13931 4.19334C5.07733 4.13085 5.0036 4.08126 4.92236 4.04741C4.84112 4.01357 4.75398 3.99614 4.66597 3.99614C4.57797 3.99614 4.49083 4.01357 4.40959 4.04741C4.32835 4.08126 4.25462 4.13085 4.19264 4.19334L0.859308 7.52667C0.796823 7.58865 0.747226 7.66238 0.713381 7.74362C0.679535 7.82486 0.662109 7.912 0.662109 8C0.662109 8.08801 0.679535 8.17515 0.713381 8.25639C0.747226 8.33763 0.796823 8.41136 0.859308 8.47334L4.19264 11.8067C4.25462 11.8692 4.32835 11.9188 4.40959 11.9526C4.49083 11.9864 4.57797 12.0039 4.66597 12.0039C4.75398 12.0039 4.84112 11.9864 4.92236 11.9526C5.0036 11.9188 5.07733 11.8692 5.13931 11.8067C5.20179 11.7447 5.25139 11.671 5.28524 11.5897C5.31908 11.5085 5.33651 11.4213 5.33651 11.3333C5.33651 11.2453 5.31908 11.1582 5.28524 11.077C5.25139 10.9957 5.20179 10.922 5.13931 10.86L2.27264 8L5.13931 5.14C5.20179 5.07803 5.25139 5.0043 5.28524 4.92306C5.31908 4.84182 5.33651 4.75468 5.33651 4.66667C5.33651 4.57866 5.31908 4.49153 5.28524 4.41029C5.25139 4.32905 5.20179 4.25531 5.13931 4.19334ZM15.1393 7.52667L11.806 4.19334C11.7438 4.13118 11.67 4.08187 11.5888 4.04823C11.5076 4.01459 11.4205 3.99728 11.3326 3.99728C11.1551 3.99728 10.9848 4.0678 10.8593 4.19334C10.7971 4.2555 10.7478 4.32929 10.7142 4.41051C10.6806 4.49172 10.6632 4.57877 10.6632 4.66667C10.6632 4.84421 10.7338 5.01447 10.8593 5.14L13.726 8L10.8593 10.86C10.7968 10.922 10.7472 10.9957 10.7134 11.077C10.6795 11.1582 10.6621 11.2453 10.6621 11.3333C10.6621 11.4213 10.6795 11.5085 10.7134 11.5897C10.7472 11.671 10.7968 11.7447 10.8593 11.8067C10.9213 11.8692 10.995 11.9188 11.0763 11.9526C11.1575 11.9864 11.2446 12.0039 11.3326 12.0039C11.4206 12.0039 11.5078 11.9864 11.589 11.9526C11.6703 11.9188 11.744 11.8692 11.806 11.8067L15.1393 8.47334C15.2018 8.41136 15.2514 8.33763 15.2852 8.25639C15.3191 8.17515 15.3365 8.08801 15.3365 8C15.3365 7.912 15.3191 7.82486 15.2852 7.74362C15.2514 7.66238 15.2018 7.58865 15.1393 7.52667Z" fill="white"/>
<path fill-rule="evenodd" clip-rule="evenodd" d="M9.20228 2.14261C9.56195 2.22137 9.78967 2.57679 9.71091 2.93645L7.44508 13.2836C7.36632 13.6433 7.01091 13.871 6.65124 13.7922C6.29157 13.7135 6.06385 13.3581 6.14261 12.9984L8.40844 2.65124C8.4872 2.29157 8.84261 2.06385 9.20228 2.14261Z" fill="white"/>
</svg>
