<svg width="20" height="20" viewBox="0 0 20 20" fill="none" xmlns="http://www.w3.org/2000/svg">
<g clip-path="url(#clip0)">
<path d="M1 14.9998L10 9.5498L19 14.9998L10 19.9998L1 14.9998Z" fill="#68AFFF"/>
<path d="M1 5.45455L10 0V9.54545L1 15V5.45455Z" fill="#469DFF"/>
<path d="M19 5.45455L10 0V9.54545L19 15V5.45455Z" fill="#8AC1FF"/>
<path d="M15.7335 5.84569L11.2662 3.33116C10.8813 3.11422 10.4445 3 9.99998 3C9.55542 3 9.11871 3.11422 8.73381 3.33116L4.26642 5.84569C3.88142 6.06263 3.56171 6.37452 3.33942 6.75007C3.11712 7.12561 3.00008 7.55158 3 7.9852V13.0153C3.0001 13.4487 3.11718 13.8746 3.33948 14.2499C3.56178 14.6253 3.88146 14.937 4.26642 15.1538L8.73381 17.6693C9.11882 17.886 9.55548 18 9.99998 18C10.4445 18 10.8812 17.886 11.2662 17.6693L15.7335 15.1538C16.1185 14.937 16.4382 14.6253 16.6605 14.2499C16.8828 13.8746 16.9999 13.4487 17 13.0153V7.9852C16.9999 7.55158 16.8828 7.12561 16.6605 6.75007C16.4383 6.37452 16.1186 6.06263 15.7335 5.84569ZM9.14759 15.4773C9.14753 15.543 9.1297 15.6075 9.09592 15.6644C9.06214 15.7213 9.01359 15.7685 8.95516 15.8012C8.89673 15.834 8.8305 15.8511 8.76311 15.851C8.69571 15.8508 8.62953 15.8333 8.57127 15.8003L4.81454 13.6673C4.68924 13.5959 4.58536 13.4937 4.51336 13.3708C4.44137 13.2479 4.4038 13.1088 4.40437 12.9673V8.72821C4.40433 8.66244 4.42207 8.59785 4.45581 8.5409C4.48956 8.48396 4.5381 8.4367 4.59654 8.40389C4.65499 8.37109 4.72128 8.35388 4.78872 8.35403C4.85616 8.35417 4.92235 8.37166 4.98065 8.40472L8.74151 10.5342C8.86721 10.6054 8.97154 10.7075 9.04407 10.8304C9.11659 10.9532 9.15475 11.0925 9.15475 11.2342L9.14759 15.4773ZM9.58699 9.26222L5.81743 7.1497C5.75846 7.11713 5.70939 7.06988 5.67526 7.01278C5.64113 6.95568 5.62316 6.89079 5.62316 6.8247C5.62316 6.75861 5.64113 6.6937 5.67526 6.6366C5.70939 6.57951 5.75846 6.53225 5.81743 6.49968L9.58596 4.38318C9.71178 4.3124 9.85448 4.27513 9.99973 4.27513C10.145 4.27513 10.2877 4.3124 10.4135 4.38318L14.182 6.49968C14.241 6.53225 14.2901 6.57951 14.3242 6.6366C14.3583 6.6937 14.3763 6.75861 14.3763 6.8247C14.3763 6.89079 14.3583 6.95568 14.3242 7.01278C14.2901 7.06988 14.241 7.11713 14.182 7.1497L10.4125 9.26222C10.2869 9.33249 10.1447 9.36946 9.99998 9.36946C9.85524 9.36946 9.71302 9.33249 9.58749 9.26222H9.58699ZM15.5961 12.9688C15.5966 13.1103 15.559 13.2494 15.487 13.3723C15.4151 13.4951 15.3112 13.5974 15.186 13.6688L11.4267 15.8008C11.3684 15.8338 11.3022 15.8513 11.2348 15.8515C11.1674 15.8516 11.1012 15.8345 11.0428 15.8017C10.9843 15.769 10.9358 15.7218 10.902 15.6649C10.8682 15.6081 10.8504 15.5435 10.8503 15.4778V11.2362C10.85 11.0948 10.8877 10.9557 10.9597 10.8329C11.0316 10.71 11.1354 10.6078 11.2605 10.5362L15.0224 8.40672C15.0807 8.37375 15.1468 8.35633 15.2141 8.35624C15.2815 8.35615 15.3477 8.37337 15.406 8.40618C15.4644 8.43899 15.5128 8.48621 15.5464 8.5431C15.5801 8.59999 15.5978 8.66454 15.5977 8.73022L15.5961 12.9688Z" fill="white"/>
</g>
<defs>
<clipPath id="clip0">
<rect width="20" height="20" fill="white"/>
</clipPath>
</defs>
</svg>
