<svg width="18" height="18" viewBox="0 0 18 18" fill="#ffffff"
    xmlns="http://www.w3.org/2000/svg">
    <path d="M15.8804 3.41482L10.5195 0.397398C10.0576 0.137067 9.53356 0 9.00008 0C8.4666 0 7.94255 0.137067 7.48068 0.397398L2.1198 3.41482C1.6578 3.67515 1.27415 4.04943 1.0074 4.50008C0.740647 4.95074 0.600195 5.4619 0.600098 5.98224V12.0183C0.600224 12.5385 0.740714 13.0495 1.00748 13.4999C1.27424 13.9504 1.65785 14.3244 2.1198 14.5845L7.48068 17.6032C7.94268 17.8631 8.46668 18 9.00008 18C9.53348 18 10.0575 17.8631 10.5195 17.6032L15.8804 14.5845C16.3423 14.3244 16.726 13.9504 16.9927 13.4999C17.2595 13.0495 17.4 12.5385 17.4001 12.0183V5.98224C17.4 5.4619 17.2595 4.95074 16.9928 4.50008C16.726 4.04943 16.3424 3.67515 15.8804 3.41482ZM7.9772 14.9727C7.97714 15.0516 7.95574 15.1291 7.9152 15.1973C7.87467 15.2655 7.81641 15.3222 7.74629 15.3615C7.67617 15.4008 7.5967 15.4214 7.51583 15.4212C7.43495 15.421 7.35554 15.4 7.28562 15.3603L2.77755 12.8007C2.62718 12.7151 2.50253 12.5924 2.41613 12.4449C2.32974 12.2975 2.28466 12.1305 2.28534 11.9607V6.87385C2.2853 6.79493 2.30658 6.71741 2.34707 6.64909C2.38757 6.58076 2.44581 6.52404 2.51595 6.48467C2.58609 6.4453 2.66564 6.42466 2.74657 6.42483C2.82749 6.42501 2.90692 6.44599 2.97688 6.48566L7.48991 9.04107C7.64075 9.12649 7.76595 9.24905 7.85298 9.39646C7.94001 9.54388 7.9858 9.71099 7.9858 9.88109L7.9772 14.9727ZM8.50449 7.51467L3.98102 4.97964C3.91025 4.94056 3.85137 4.88386 3.81041 4.81534C3.76946 4.74682 3.74788 4.66895 3.74788 4.58964C3.74788 4.51033 3.76946 4.43244 3.81041 4.36392C3.85137 4.29541 3.91025 4.2387 3.98102 4.19962L8.50325 1.65981C8.65423 1.57488 8.82548 1.53015 8.99978 1.53015C9.17408 1.53015 9.34533 1.57488 9.49631 1.65981L14.0185 4.19962C14.0893 4.2387 14.1482 4.29541 14.1891 4.36392C14.2301 4.43244 14.2517 4.51033 14.2517 4.58964C14.2517 4.66895 14.2301 4.74682 14.1891 4.81534C14.1482 4.88386 14.0893 4.94056 14.0185 4.97964L9.49507 7.51467C9.34443 7.59899 9.17377 7.64336 9.00008 7.64336C8.82639 7.64336 8.65573 7.59899 8.50509 7.51467H8.50449ZM15.7155 11.9625C15.7161 12.1323 15.6709 12.2993 15.5846 12.4467C15.4982 12.5941 15.3736 12.7168 15.2233 12.8025L10.7121 15.3609C10.6422 15.4006 10.5628 15.4216 10.4819 15.4218C10.401 15.422 10.3215 15.4014 10.2514 15.3621C10.1813 15.3228 10.123 15.2662 10.0825 15.1979C10.042 15.1297 10.0206 15.0522 10.0205 14.9733V9.88349C10.0201 9.71373 10.0653 9.54682 10.1517 9.39943C10.2381 9.25204 10.3625 9.12931 10.5127 9.04349L15.027 6.48806C15.0969 6.4485 15.1762 6.4276 15.257 6.42749C15.3379 6.42738 15.4173 6.44805 15.4873 6.48742C15.5573 6.52679 15.6154 6.58345 15.6558 6.65172C15.6962 6.71999 15.7174 6.79745 15.7173 6.87627L15.7155 11.9625Z"/>
</svg>
