  <svg xmlns="http://www.w3.org/2000/svg" viewBox="0 0 23.117 28.88">
  <path id="Union_20" data-name="Union 20" d="M-5226.555-8995.392h-4.537a1.447,1.447,0,0,1-1.444-1.448v-2.9a4.341,4.341,0,0,1,2.889-4.082v-4.6a8.68,8.68,0,0,1,7.224-8.555v-1.58a1.447,1.447,0,0,1,1.446-1.446,1.447,1.447,0,0,1,1.444,1.446v1.58a8.68,8.68,0,0,1,7.224,8.555v4.6a4.345,4.345,0,0,1,2.891,4.082v2.9a1.448,1.448,0,0,1-1.446,1.448h-4.537a5.778,5.778,0,0,1-5.576,4.271A5.779,5.779,0,0,1-5226.555-8995.392Zm5.578,1.446a2.887,2.887,0,0,0,2.483-1.446h-4.969A2.889,2.889,0,0,0-5220.978-8993.945Z" transform="translate(5232.536 9020)" fill="#141323"/>
</svg>
