<svg xmlns="http://www.w3.org/2000/svg"  viewBox="0 0 20.126 25.143" fill="#141323">
  <path id="bell" d="M21.61,16.089V12.082a7.557,7.557,0,0,0-6.289-7.448V3.26a1.258,1.258,0,1,0-2.516,0V4.634a7.557,7.557,0,0,0-6.289,7.448v4.007A3.78,3.78,0,0,0,4,19.643v2.52a1.259,1.259,0,0,0,1.258,1.26h3.95a5.029,5.029,0,0,0,9.711,0h3.95a1.259,1.259,0,0,0,1.258-1.26v-2.52a3.78,3.78,0,0,0-2.516-3.554ZM9.031,12.082a5.031,5.031,0,1,1,10.063,0v3.781H9.031Zm5.031,12.6a2.515,2.515,0,0,1-2.163-1.26h4.327A2.515,2.515,0,0,1,14.063,24.684ZM21.61,20.9H6.516v-1.26a1.259,1.259,0,0,1,1.258-1.26H20.352a1.259,1.259,0,0,1,1.258,1.26Z" transform="translate(-4 -2)" />
</svg>
