<svg width="16" height="16" viewBox="0 0 16 16" fill="none" xmlns="http://www.w3.org/2000/svg">
<path d="M7.9987 14.6667C11.6806 14.6667 14.6654 11.6819 14.6654 8C14.6654 4.3181 11.6806 1.33334 7.9987 1.33334C4.3168 1.33334 1.33203 4.3181 1.33203 8C1.33203 11.6819 4.3168 14.6667 7.9987 14.6667Z" fill="#0078FF"/>
<path d="M11.032 6.72616L7.42087 10.3373C7.31669 10.4414 7.17541 10.4999 7.0281 10.4999C6.88078 10.4999 6.7395 10.4414 6.63532 10.3373L4.82976 8.53171C4.7767 8.48046 4.73437 8.41916 4.70526 8.35138C4.67614 8.2836 4.66082 8.2107 4.66018 8.13693C4.65954 8.06317 4.67359 7.99002 4.70153 7.92174C4.72946 7.85347 4.77072 7.79144 4.82288 7.73927C4.87504 7.68711 4.93706 7.64586 5.00534 7.61792C5.07362 7.58999 5.14677 7.57593 5.22054 7.57657C5.29431 7.57721 5.3672 7.59255 5.43498 7.62166C5.50276 7.65078 5.56407 7.6931 5.61532 7.74616L7.0281 9.15893L10.2464 5.9406C10.2977 5.88754 10.359 5.84522 10.4268 5.81611C10.4945 5.78699 10.5674 5.77166 10.6412 5.77102C10.715 5.77038 10.7881 5.78443 10.8564 5.81237C10.9247 5.8403 10.9867 5.88156 11.0389 5.93372C11.091 5.98588 11.1323 6.04791 11.1602 6.11619C11.1882 6.18446 11.2022 6.25761 11.2016 6.33138C11.2009 6.40515 11.1856 6.47804 11.1565 6.54582C11.1274 6.6136 11.085 6.67491 11.032 6.72616Z" fill="#FAFAFA"/>
</svg>
