<svg xmlns="http://www.w3.org/2000/svg" xmlns:xlink="http://www.w3.org/1999/xlink"  viewBox="0 0 213 237"><defs><radialGradient id="a" cx="0.609" cy="0.25" r="1.084" gradientTransform="matrix(-0.603, 0.798, -0.798, -0.603, 1.175, -0.086)" gradientUnits="objectBoundingBox"><stop offset="0" stop-color="#acd3ff"/><stop offset="0.389" stop-color="#58a7ff"/><stop offset="1" stop-color="#0078ff"/><stop offset="1"/></radialGradient><filter id="b" x="0" y="9.5" width="213" height="213" filterUnits="userSpaceOnUse"><feOffset dy="25" input="SourceAlpha"/><feGaussianBlur stdDeviation="17.5" result="c"/><feFlood flood-color="#0078ff" flood-opacity="0.302"/><feComposite operator="in" in2="c"/><feComposite in="SourceGraphic"/></filter></defs><g transform="translate(14.5)"><rect width="183" height="237" rx="30" fill="#f1f1f1"/><text transform="translate(92 210)" fill="#141323" font-size="20" font-family="SegoeUIBlack, Segoe UI"><tspan x="-42.598" y="0">Business</tspan></text><g transform="translate(-215 -283)" opacity="0"><g transform="translate(227 295)" fill="#0078ff" stroke="#0078ff" stroke-width="4"><circle cx="12" cy="12" r="12" stroke="none"/><circle cx="12" cy="12" r="10" fill="none"/></g><path d="M152.8,167.047l-6.5,6.5a1,1,0,0,1-1.414,0l-3.25-3.25a1,1,0,1,1,1.414-1.414l2.543,2.543,5.793-5.793a1,1,0,1,1,1.414,1.414Z" transform="translate(91.66 137.66)" fill="#fafafa"/></g><g transform="matrix(1, 0, 0, 1, -14.5, 0)" filter="url(#b)"><circle cx="54" cy="54" r="54" transform="translate(52.5 37)" fill="url(#a)"/></g><g transform="translate(-328 -602)"><g transform="translate(396 669)" fill="#fff" stroke="#707070" stroke-width="1" opacity="0"><rect width="48" height="48" stroke="none"/><rect x="0.5" y="0.5" width="47" height="47" fill="none"/></g><path d="M28.4,15.2h2.2a2.2,2.2,0,0,0,0-4.4H28.4a2.2,2.2,0,1,0,0,4.4Zm0,8.8h2.2a2.2,2.2,0,0,0,0-4.4H28.4a2.2,2.2,0,1,0,0,4.4Zm-11-8.8h2.2a2.2,2.2,0,1,0,0-4.4H17.4a2.2,2.2,0,1,0,0,4.4Zm0,8.8h2.2a2.2,2.2,0,0,0,0-4.4H17.4a2.2,2.2,0,1,0,0,4.4ZM43.8,41.6H41.6V4.2A2.2,2.2,0,0,0,39.4,2H8.6A2.2,2.2,0,0,0,6.4,4.2V41.6H4.2a2.2,2.2,0,0,0,0,4.4H43.8a2.2,2.2,0,0,0,0-4.4Zm-17.6,0H21.8V32.8h4.4Zm11,0H30.6v-11a2.2,2.2,0,0,0-2.2-2.2H19.6a2.2,2.2,0,0,0-2.2,2.2v11H10.8V6.4H37.2Z" transform="translate(396 669)" fill="#fff"/></g><rect width="183" height="237" rx="30" fill="#f1f1f1" style="mix-blend-mode:color;isolation:isolate"/></g></svg>