<svg width="51" height="51" viewBox="0 0 51 51" fill="none" xmlns="http://www.w3.org/2000/svg">
<path d="M25.5 46.75C37.2361 46.75 46.75 37.2361 46.75 25.5C46.75 13.7639 37.2361 4.25 25.5 4.25C13.7639 4.25 4.25 13.7639 4.25 25.5C4.25 37.2361 13.7639 46.75 25.5 46.75Z" fill="#57DF8E"/>
<path d="M35.1696 21.4396L23.6592 32.95C23.3271 33.282 22.8767 33.4685 22.4072 33.4685C21.9376 33.4685 21.4873 33.282 21.1552 32.95L15.4 27.1948C15.2309 27.0315 15.0959 26.836 15.0031 26.62C14.9103 26.4039 14.8615 26.1716 14.8594 25.9364C14.8574 25.7013 14.9022 25.4682 14.9912 25.2505C15.0803 25.0329 15.2118 24.8352 15.3781 24.6689C15.5443 24.5026 15.742 24.3711 15.9596 24.2821C16.1773 24.1931 16.4105 24.1483 16.6456 24.1503C16.8807 24.1523 17.1131 24.2012 17.3291 24.294C17.5452 24.3868 17.7406 24.5217 17.904 24.6908L22.4072 29.1941L32.6656 18.9356C32.829 18.7665 33.0244 18.6316 33.2404 18.5388C33.4565 18.446 33.6888 18.3971 33.924 18.3951C34.1591 18.393 34.3923 18.4379 34.6099 18.5269C34.8275 18.6159 35.0253 18.7474 35.1915 18.9137C35.3578 19.08 35.4893 19.2777 35.5783 19.4953C35.6674 19.7129 35.7122 19.9461 35.7101 20.1812C35.7081 20.4164 35.6592 20.6487 35.5664 20.8648C35.4736 21.0808 35.3387 21.2762 35.1696 21.4396Z" fill="#FAFAFA"/>
</svg>
