<svg width="30" height="30" viewBox="0 0 30 30" fill="none" xmlns="http://www.w3.org/2000/svg">
<path d="M15 27.5C21.9036 27.5 27.5 21.9036 27.5 15C27.5 8.09644 21.9036 2.5 15 2.5C8.09644 2.5 2.5 8.09644 2.5 15C2.5 21.9036 8.09644 27.5 15 27.5Z" fill="white"/>
<path d="M20.6874 12.6117L13.9166 19.3826C13.7212 19.5778 13.4563 19.6875 13.1801 19.6875C12.9039 19.6875 12.639 19.5778 12.4437 19.3826L9.05824 15.9971C8.95875 15.9011 8.87939 15.7861 8.8248 15.659C8.77021 15.5319 8.74148 15.3952 8.74027 15.2569C8.73907 15.1186 8.76543 14.9815 8.81781 14.8535C8.87018 14.7254 8.94753 14.6091 9.04534 14.5113C9.14314 14.4135 9.25944 14.3362 9.38745 14.2838C9.51547 14.2314 9.65264 14.2051 9.79095 14.2063C9.92926 14.2075 10.066 14.2362 10.193 14.2908C10.3201 14.3454 10.4351 14.4247 10.5312 14.5242L13.1801 17.1732L19.2145 11.1388C19.3106 11.0393 19.4255 10.96 19.5526 10.9054C19.6797 10.8508 19.8164 10.822 19.9547 10.8208C20.093 10.8196 20.2302 10.846 20.3582 10.8984C20.4862 10.9507 20.6025 11.0281 20.7003 11.1259C20.7981 11.2237 20.8755 11.34 20.9279 11.468C20.9802 11.5961 21.0066 11.7332 21.0054 11.8715C21.0042 12.0098 20.9755 12.1465 20.9209 12.2736C20.8663 12.4007 20.7869 12.5156 20.6874 12.6117Z" fill="#0078FF"/>
</svg>
