<svg xmlns="http://www.w3.org/2000/svg" xmlns:xlink="http://www.w3.org/1999/xlink" width="213" height="213" viewBox="0 0 213 213"><defs><linearGradient id="a" x1="0.5" x2="0.5" y2="1" gradientUnits="objectBoundingBox"><stop offset="0" stop-color="#f187fb"/><stop offset="1" stop-color="#439cfb"/></linearGradient><linearGradient id="b" x1="0.5" x2="0.5" y2="1" gradientUnits="objectBoundingBox"><stop offset="0" stop-color="#61f4de"/><stop offset="1" stop-color="#6e78ff"/></linearGradient><radialGradient id="c" cx="0.609" cy="0.25" r="1.084" gradientTransform="matrix(-0.603, 0.798, -0.798, -0.603, 1.175, -0.086)" gradientUnits="objectBoundingBox"><stop offset="0" stop-color="#ffc1a1"/><stop offset="0.389" stop-color="#ff8d53"/><stop offset="1" stop-color="#ff1dac"/><stop offset="1"/></radialGradient><filter id="d" x="0" y="0" width="213" height="213" filterUnits="userSpaceOnUse"><feOffset dy="25" input="SourceAlpha"/><feGaussianBlur stdDeviation="17.5" result="e"/><feFlood flood-color="#ff3897" flood-opacity="0.302"/><feComposite operator="in" in2="e"/><feComposite in="SourceGraphic"/></filter></defs><g transform="translate(6.003 19.106)"><g transform="translate(-308.503 -604.606)"><rect width="64" height="64" transform="translate(377 635)" fill="#fff" opacity="0"/><path d="M25.333,31.333A2.667,2.667,0,0,0,22.667,34v8A2.667,2.667,0,1,0,28,42V34A2.667,2.667,0,0,0,25.333,31.333ZM38.667,20.667V15.333a13.333,13.333,0,1,0-26.667,0v5.333a8,8,0,0,0-8,8V47.333a8,8,0,0,0,8,8H38.667a8,8,0,0,0,8-8V28.667A8,8,0,0,0,38.667,20.667ZM17.333,15.333a8,8,0,1,1,16,0v5.333h-16Zm24,32A2.667,2.667,0,0,1,38.667,50H12a2.667,2.667,0,0,1-2.667-2.667V28.667A2.667,2.667,0,0,1,12,26H38.667a2.667,2.667,0,0,1,2.667,2.667Z" transform="translate(383.667 638.333)" fill="#fff"/></g><g transform="matrix(0.966, 0.259, -0.259, 0.966, -259.367, -619.795)"><path d="M30.884,17.667a11.667,11.667,0,0,0-21.77-5.833,3.334,3.334,0,1,0,5.775,3.333,5,5,0,1,1,4.329,7.5H19.21a3.166,3.166,0,0,0-.631.129,3.439,3.439,0,0,0-.662.135,3.276,3.276,0,0,0-.518.349,3.36,3.36,0,0,0-.54.366,3.348,3.348,0,0,0-.39.579,3.26,3.26,0,0,0-.322.481,3.408,3.408,0,0,0-.143.706,3.161,3.161,0,0,0-.119.588v3.333l.008.038,0,1.637a3.334,3.334,0,0,0,3.333,3.325h.008a3.333,3.333,0,0,0,3.325-3.341l-.005-2.2a11.645,11.645,0,0,0,8.327-11.12ZM16.876,40.3A3.333,3.333,0,0,0,19.208,46a3.453,3.453,0,0,0,2.368-.967,3.384,3.384,0,0,0,0-4.733,3.447,3.447,0,0,0-4.7,0Z" transform="translate(569.333 488)" fill="url(#a)"/></g><g transform="matrix(-0.966, 0.259, -0.259, -0.966, 44.091, 82.861)"><rect width="36" height="36" transform="translate(0 0)" opacity="0" fill="url(#b)"/></g><g transform="translate(10.761)"><g transform="matrix(1, 0, 0, 1, -16.76, -19.11)" filter="url(#d)"><circle cx="54" cy="54" r="54" transform="translate(52.5 27.5)" fill="url(#c)"/></g><rect width="48" height="48" transform="matrix(0.966, 0.259, -0.259, 0.966, 149.765, 0)" opacity="0" fill="url(#a)"/><path d="M16.663,21.25A8.75,8.75,0,0,1,.335,25.625a2.5,2.5,0,0,1,4.331-2.5A3.75,3.75,0,1,0,7.913,17.5H7.907a2.374,2.374,0,0,1-.473-.1,2.579,2.579,0,0,1-.5-.1,2.457,2.457,0,0,1-.389-.262,2.52,2.52,0,0,1-.4-.274,2.511,2.511,0,0,1-.293-.434,2.445,2.445,0,0,1-.242-.36,2.556,2.556,0,0,1-.107-.53A2.371,2.371,0,0,1,5.413,15V12.5l.006-.028,0-1.228a2.5,2.5,0,0,1,2.5-2.494h.006a2.5,2.5,0,0,1,2.494,2.506l0,1.653a8.734,8.734,0,0,1,6.245,8.34ZM6.157,4.275A2.5,2.5,0,0,1,7.906,0,2.59,2.59,0,0,1,9.682.725a2.538,2.538,0,0,1,0,3.55,2.586,2.586,0,0,1-3.525,0Z" transform="matrix(-0.966, 0.259, -0.259, -0.966, 23.86, 82.293)" fill="url(#b)"/></g></g></svg>