<svg xmlns="http://www.w3.org/2000/svg" width="24" height="24" viewBox="0 0 24 24"><g fill="none"><path d="M0,12A12,12,0,1,0,12,0,12.014,12.014,0,0,0,0,12Z" stroke="none"/><path d="M 12 2 C 6.485979080200195 2 2 6.485979080200195 2 12 C 2 17.51401901245117 6.485979080200195 22 12 22 C 17.51401901245117 22 22 17.51401901245117 22 12 C 22 6.485979080200195 17.51401901245117 2 12 2 M 12 0 C 18.61687088012695 0 24 5.383119583129883 24 12 C 24 18.61687088012695 18.61687088012695 24 12 24 C 5.383119583129883 24 0 18.61687088012695 0 12 C 0 5.383119583129883 5.383119583129883 0 12 0 Z" stroke="none" fill="#141323"/></g><path d="M152.8,167.047l-6.5,6.5a1,1,0,0,1-1.414,0l-3.25-3.25a1,1,0,1,1,1.414-1.414l2.543,2.543,5.793-5.793a1,1,0,1,1,1.414,1.414Z" transform="translate(-134.715 -157.59)" fill="#141323"/></svg>