<svg width="24" height="24" viewBox="0 0 24 24" fill="none" xmlns="http://www.w3.org/2000/svg">
<path d="M15.5553 22C14.6792 22 13.8342 21.5112 13.4272 20.6797L12.2492 18.4741L11.581 19.7497C11.5638 19.7824 11.5444 19.8139 11.5228 19.8438C11.0842 20.4524 10.3627 20.6687 9.82844 20.6687C9.82415 20.6687 9.81985 20.6687 9.81551 20.6687C9.21847 20.6648 8.62398 20.4086 8.18456 19.9658C7.72819 19.5059 7.4769 18.8955 7.4769 18.2468V8.13131C7.4769 7.20868 7.99674 6.39414 8.83351 6.00555C9.66235 5.62062 10.6099 5.74297 11.3128 6.32387L16.4592 10.1564C16.8053 10.4141 16.8769 10.9035 16.6192 11.2496C16.3615 11.5956 15.8721 11.6672 15.526 11.4095L10.3622 7.56412C10.3495 7.55458 10.337 7.5447 10.3248 7.53439C9.97137 7.23595 9.59781 7.37345 9.49164 7.42271C9.38555 7.47197 9.03945 7.66865 9.03945 8.13131V18.2468C9.03945 18.7502 9.45387 19.1038 9.82586 19.1062C9.82704 19.1062 9.82829 19.1062 9.82946 19.1062C9.98149 19.1062 10.1486 19.0433 10.2319 18.9579L11.5506 16.4407C11.6849 16.1843 11.9501 16.0232 12.2395 16.022C12.2406 16.022 12.2416 16.022 12.2426 16.022C12.5309 16.022 12.7959 16.1808 12.9318 16.4352L14.8127 19.9569C14.818 19.9669 14.8231 19.9769 14.8279 19.987C15.0154 20.3778 15.488 20.5478 15.8813 20.3657C16.0771 20.2751 16.2249 20.1134 16.2974 19.9103C16.3678 19.7134 16.3587 19.5018 16.2724 19.3122L14.3741 15.9342C14.2381 15.6923 14.2407 15.3965 14.3809 15.157C14.521 14.9175 14.7777 14.7703 15.0552 14.7703H17.7336C18.1869 14.7471 18.3679 14.3902 18.4128 14.2805C18.4589 14.168 18.5841 13.7743 18.2606 13.4312C17.9647 13.1173 17.9792 12.6228 18.2931 12.3268C18.607 12.0308 19.1015 12.0454 19.3975 12.3593C20.0385 13.0392 20.2153 14.0023 19.8588 14.8727C19.5042 15.7383 18.7076 16.2976 17.7797 16.3322C17.77 16.3326 17.7602 16.3328 17.7505 16.3328H16.3904L17.648 18.5708C17.6557 18.5846 17.6631 18.5985 17.67 18.6127C17.9485 19.1872 17.9836 19.8347 17.7689 20.4359C17.5541 21.0371 17.1168 21.5159 16.5373 21.7839C16.22 21.9305 15.8854 21.9999 15.5553 22ZM8.36026 5.06804C8.73863 4.86057 8.8771 4.38569 8.66964 4.00736L8.00557 2.79641C7.79811 2.41809 7.3233 2.27961 6.94494 2.48707C6.56657 2.69454 6.4281 3.16942 6.63556 3.54775L7.29963 4.7587C7.44174 5.01784 7.70924 5.16444 7.98534 5.16444C8.11229 5.16444 8.24112 5.13343 8.36026 5.06804ZM6.70818 6.84466C6.88111 6.44934 6.70083 5.98867 6.30556 5.81574L5.05554 5.26886C4.66023 5.09589 4.1996 5.2762 4.02663 5.67148C3.8537 6.0668 4.03397 6.52747 4.42925 6.7004L5.67926 7.24728C5.78118 7.29189 5.88743 7.31298 5.992 7.31298C6.29298 7.31294 6.57982 7.13802 6.70818 6.84466ZM11.5774 4.3176L12.0071 3.02852C12.1435 2.61919 11.9223 2.17672 11.513 2.04031C11.1038 1.90379 10.6612 2.12508 10.5248 2.53442L10.0951 3.82349C9.95864 4.23283 10.1799 4.6753 10.5892 4.81171C10.6711 4.83905 10.7544 4.85202 10.8363 4.85202C11.1634 4.85202 11.4683 4.64495 11.5774 4.3176ZM13.645 6.29992L14.6997 5.51867C15.0464 5.26183 15.1193 4.77257 14.8625 4.42584C14.6056 4.07912 14.1163 4.00627 13.7697 4.26307L12.715 5.04433C12.3682 5.30116 12.2954 5.79043 12.5522 6.13715C12.7055 6.34407 12.9415 6.45344 13.1806 6.45344C13.3422 6.45344 13.5052 6.40348 13.645 6.29992ZM5.1107 10.6944L6.28259 10.2257C6.68322 10.0654 6.87806 9.61074 6.71783 9.21015C6.55755 8.80948 6.10282 8.61463 5.70231 8.77491L4.53042 9.24366C4.12979 9.4039 3.93495 9.85859 4.09518 10.2592C4.21737 10.5647 4.51073 10.7505 4.82078 10.7505C4.91738 10.7505 5.01554 10.7325 5.1107 10.6944Z" fill="white" stroke="white" stroke-width="0.5"/>
</svg>
