<svg xmlns="http://www.w3.org/2000/svg" width="43.001" height="42.999" viewBox="0 0 43.001 42.999"><path d="M42,38.951a15.042,15.042,0,0,0-5.888-22.713A17.191,17.191,0,1,0,5.624,29.754L2.637,32.719a2.162,2.162,0,0,0,1.526,3.675H16.389a15.042,15.042,0,0,0,13.559,8.6H42.842a2.162,2.162,0,0,0,1.526-3.675Zm-27.1-9a14.247,14.247,0,0,0,.172,2.149H9.341l.752-.731a2.149,2.149,0,0,0,0-3.051A12.743,12.743,0,0,1,6.311,19.2,12.893,12.893,0,0,1,19.2,6.31a12.764,12.764,0,0,1,12.141,8.6h-1.4A15.042,15.042,0,0,0,14.907,29.947ZM37.555,40.691l.107.107H29.949a10.744,10.744,0,1,1,7.607-3.137,2.1,2.1,0,0,0,0,3.03Z" transform="translate(-1.988 -1.99)" fill="#fff"/></svg>