<svg width="100%" viewBox="0 0 16 16" fill="none" xmlns="http://www.w3.org/2000/svg">
<path d="M10.6668 6H14.0002C14.177 6 14.3465 5.92976 14.4716 5.80474C14.5966 5.67971 14.6668 5.51014 14.6668 5.33333C14.6668 5.15652 14.5966 4.98695 14.4716 4.86193C14.3465 4.7369 14.177 4.66667 14.0002 4.66667H11.3335V2C11.3335 1.82319 11.2633 1.65362 11.1382 1.52859C11.0132 1.40357 10.8436 1.33333 10.6668 1.33333C10.49 1.33333 10.3204 1.40357 10.1954 1.52859C10.0704 1.65362 10.0002 1.82319 10.0002 2V5.33333C10.0002 5.51014 10.0704 5.67971 10.1954 5.80474C10.3204 5.92976 10.49 6 10.6668 6ZM5.3335 10H2.00016C1.82335 10 1.65378 10.0702 1.52876 10.1953C1.40373 10.3203 1.3335 10.4899 1.3335 10.6667C1.3335 10.8435 1.40373 11.013 1.52876 11.1381C1.65378 11.2631 1.82335 11.3333 2.00016 11.3333H4.66683V14C4.66683 14.1768 4.73707 14.3464 4.86209 14.4714C4.98712 14.5964 5.15669 14.6667 5.3335 14.6667C5.51031 14.6667 5.67988 14.5964 5.8049 14.4714C5.92992 14.3464 6.00016 14.1768 6.00016 14V10.6667C6.00016 10.4899 5.92992 10.3203 5.8049 10.1953C5.67988 10.0702 5.51031 10 5.3335 10ZM5.3335 1.33333C5.15669 1.33333 4.98712 1.40357 4.86209 1.52859C4.73707 1.65362 4.66683 1.82319 4.66683 2V4.66667H2.00016C1.82335 4.66667 1.65378 4.7369 1.52876 4.86193C1.40373 4.98695 1.3335 5.15652 1.3335 5.33333C1.3335 5.51014 1.40373 5.67971 1.52876 5.80474C1.65378 5.92976 1.82335 6 2.00016 6H5.3335C5.51031 6 5.67988 5.92976 5.8049 5.80474C5.92992 5.67971 6.00016 5.51014 6.00016 5.33333V2C6.00016 1.82319 5.92992 1.65362 5.8049 1.52859C5.67988 1.40357 5.51031 1.33333 5.3335 1.33333ZM14.0002 10H10.6668C10.49 10 10.3204 10.0702 10.1954 10.1953C10.0704 10.3203 10.0002 10.4899 10.0002 10.6667V14C10.0002 14.1768 10.0704 14.3464 10.1954 14.4714C10.3204 14.5964 10.49 14.6667 10.6668 14.6667C10.8436 14.6667 11.0132 14.5964 11.1382 14.4714C11.2633 14.3464 11.3335 14.1768 11.3335 14V11.3333H14.0002C14.177 11.3333 14.3465 11.2631 14.4716 11.1381C14.5966 11.013 14.6668 10.8435 14.6668 10.6667C14.6668 10.4899 14.5966 10.3203 14.4716 10.1953C14.3465 10.0702 14.177 10 14.0002 10Z" fill="#262433"/>
</svg>
