<svg xmlns="http://www.w3.org/2000/svg" width="24" height="24" viewBox="0 0 24 24"><circle cx="12" cy="12" r="12" fill="#1fd39e"/><path d="M15.78,78.337a.625.625,0,0,0-.679-.087l-3.42,1.665-3.209-3.7a.625.625,0,0,0-.944,0l-3.209,3.7L.9,78.251a.625.625,0,0,0-.872.744L2.4,86.807a.625.625,0,0,0,.6.443H13a.625.625,0,0,0,.6-.443l2.375-7.812A.625.625,0,0,0,15.78,78.337ZM12.537,86H3.463L1.64,80,4.2,81.249a.625.625,0,0,0,.746-.152L8,77.579,11.051,81.1a.625.625,0,0,0,.746.152L14.36,80Z" transform="translate(4 -69.333)" fill="#fff"/></svg>