<svg xmlns="http://www.w3.org/2000/svg" xmlns:xlink="http://www.w3.org/1999/xlink" width="30.465" height="36" viewBox="0 0 30.465 36"><defs><linearGradient id="a" x1="0.5" x2="0.5" y2="1" gradientUnits="objectBoundingBox"><stop offset="0" stop-color="#ff0079"/><stop offset="1" stop-color="#721aa6"/></linearGradient></defs><path d="M34.045,11.691v-.144l-.108-.271a1.281,1.281,0,0,0-.126-.162,1.7,1.7,0,0,0-.162-.217l-.162-.126-.289-.144L19.664,2.272a1.8,1.8,0,0,0-1.913,0L4.328,10.626l-.162.144L4,10.9a1.7,1.7,0,0,0-.162.217,1.281,1.281,0,0,0-.126.162l-.108.271v.144a2.075,2.075,0,0,0,0,.469V27.93a1.8,1.8,0,0,0,.848,1.534l13.532,8.354h0a.848.848,0,0,0,.271.108H18.4a1.552,1.552,0,0,0,.938,0h.144a.848.848,0,0,0,.271-.108h0L33.2,29.463a1.8,1.8,0,0,0,.848-1.534V12.16a2.075,2.075,0,0,0,0-.469ZM16.958,33.054,7.034,26.919V15.408l9.924,6.117Zm1.8-14.651L8.658,12.16l10.1-6.225,10.1,6.225ZM30.49,26.919l-9.924,6.135V21.524l9.924-6.117Z" transform="translate(-3.593 -1.998)" fill="url(#a)"/></svg>