<svg xmlns="http://www.w3.org/2000/svg" width="53.405" height="68" viewBox="0 0 53.405 68"><path d="M782.344,480.7l-4.712-2.714,1.053-.608a9.838,9.838,0,0,0,4.9-8.5V449.43a9.841,9.841,0,0,0-4.9-8.5L761.836,431.2a9.876,9.876,0,0,0-9.809,0l-16.85,9.731a9.841,9.841,0,0,0-4.9,8.5v19.455a9.828,9.828,0,0,0,4.9,8.492l1.053.611-4.712,2.714a2.569,2.569,0,0,0,0,4.455L750.9,496.3a12.149,12.149,0,0,0,12.063,0l19.378-11.139a2.567,2.567,0,0,0,0-4.455Zm-9.761-34.725-14.22,8.172a2.894,2.894,0,0,1-2.866,0l-14.217-8.172a1.19,1.19,0,0,1,0-2.062l14.22-8.192a2.866,2.866,0,0,1,2.869,0l14.217,8.192a1.167,1.167,0,0,1,.6,1.026A1.18,1.18,0,0,1,772.583,445.977Zm-11.591,33.888a1.18,1.18,0,0,1-.6-1.036l-.007-16.4a2.88,2.88,0,0,1,1.431-2.488l14.19-8.243a1.19,1.19,0,0,1,1.786,1.036l-.007,16.4a2.893,2.893,0,0,1-1.428,2.488l-14.173,8.246A1.167,1.167,0,0,1,760.992,479.865Zm-24.93-27.134a1.194,1.194,0,0,1,1.789-1.036l14.186,8.243a2.867,2.867,0,0,1,1.431,2.488l-.007,16.4a1.183,1.183,0,0,1-.594,1.036,1.158,1.158,0,0,1-1.2,0l-14.17-8.246a2.889,2.889,0,0,1-1.431-2.488Z" transform="translate(-730.229 -429.9)" fill="#fff"/></svg>