<svg width="100%" height="100%" viewBox="0 0 200 200" fill="none" xmlns="http://www.w3.org/2000/svg">
<circle cx="100" cy="100" r="100" fill="#E4E4E4"/>
<path d="M118.859 103.609C123.843 99.6882 127.48 94.3114 129.266 88.2267C131.051 82.1421 130.896 75.6522 128.821 69.66C126.747 63.6677 122.856 58.4712 117.69 54.7932C112.525 51.1152 106.341 49.1387 99.9999 49.1387C93.6587 49.1387 87.4751 51.1152 82.3095 54.7932C77.1439 58.4712 73.2531 63.6677 71.1784 69.66C69.1038 75.6522 68.9484 82.1421 70.7339 88.2267C72.5194 94.3114 76.157 99.6882 81.1407 103.609C72.6011 107.03 65.15 112.705 59.5817 120.028C54.0135 127.351 50.5368 136.047 49.5224 145.191C49.4489 145.858 49.5077 146.534 49.6953 147.179C49.8829 147.824 50.1957 148.425 50.6158 148.949C51.4643 150.007 52.6983 150.685 54.0465 150.833C55.3947 150.982 56.7466 150.588 57.8048 149.74C58.8629 148.891 59.5407 147.657 59.689 146.309C60.8053 136.372 65.5434 127.195 72.9983 120.531C80.4532 113.866 90.1021 110.182 100.102 110.182C110.101 110.182 119.75 113.866 127.205 120.531C134.66 127.195 139.398 136.372 140.514 146.309C140.652 147.558 141.248 148.712 142.187 149.547C143.126 150.383 144.341 150.841 145.597 150.833H146.157C147.489 150.68 148.707 150.006 149.545 148.959C150.383 147.911 150.773 146.575 150.63 145.242C149.611 136.072 146.115 127.353 140.518 120.019C134.921 112.685 127.434 107.012 118.859 103.609ZM99.9999 100C95.9783 100 92.0471 98.8075 88.7033 96.5732C85.3595 94.339 82.7533 91.1633 81.2143 87.4479C79.6753 83.7325 79.2727 79.6441 80.0572 75.6998C80.8418 71.7556 82.7784 68.1325 85.622 65.2888C88.4657 62.4452 92.0887 60.5086 96.033 59.724C99.9773 58.9395 104.066 59.3421 107.781 60.8811C111.497 62.4201 114.672 65.0263 116.906 68.3701C119.141 71.7139 120.333 75.6451 120.333 79.6667C120.333 85.0594 118.191 90.2313 114.378 94.0445C110.564 97.8577 105.393 100 99.9999 100Z" fill="white"/>
</svg>
