<svg width="30" height="30" viewBox="0 0 30 30" fill="none" xmlns="http://www.w3.org/2000/svg">
<circle cx="15" cy="15" r="14.5" fill="white" stroke="#141323"/>
<path d="M19.6673 9.66666H10.334C9.80355 9.66666 9.29484 9.87738 8.91977 10.2525C8.5447 10.6275 8.33398 11.1362 8.33398 11.6667V18.3333C8.33398 18.8638 8.5447 19.3725 8.91977 19.7475C9.29484 20.1226 9.80355 20.3333 10.334 20.3333H19.6673C20.1978 20.3333 20.7065 20.1226 21.0815 19.7475C21.4566 19.3725 21.6673 18.8638 21.6673 18.3333V11.6667C21.6673 11.1362 21.4566 10.6275 21.0815 10.2525C20.7065 9.87738 20.1978 9.66666 19.6673 9.66666ZM10.334 11H19.6673C19.8441 11 20.0137 11.0702 20.1387 11.1953C20.2637 11.3203 20.334 11.4899 20.334 11.6667L15.0007 14.92L9.66732 11.6667C9.66732 11.4899 9.73756 11.3203 9.86258 11.1953C9.9876 11.0702 10.1572 11 10.334 11ZM20.334 18.3333C20.334 18.5101 20.2637 18.6797 20.1387 18.8047C20.0137 18.9298 19.8441 19 19.6673 19H10.334C10.1572 19 9.9876 18.9298 9.86258 18.8047C9.73756 18.6797 9.66732 18.5101 9.66732 18.3333V13.1867L14.654 16.2333C14.7553 16.2918 14.8703 16.3226 14.9873 16.3226C15.1043 16.3226 15.2193 16.2918 15.3207 16.2333L20.334 13.1867V18.3333Z" fill="black"/>
</svg>
