<svg width="16" height="16" viewBox="0 0 16 16" fill="none" xmlns="http://www.w3.org/2000/svg">
<path d="M12.6673 2.66669H3.33398C2.80355 2.66669 2.29484 2.8774 1.91977 3.25247C1.5447 3.62755 1.33398 4.13625 1.33398 4.66669V11.3334C1.33398 11.8638 1.5447 12.3725 1.91977 12.7476C2.29484 13.1226 2.80355 13.3334 3.33398 13.3334H12.6673C13.1978 13.3334 13.7065 13.1226 14.0815 12.7476C14.4566 12.3725 14.6673 11.8638 14.6673 11.3334V4.66669C14.6673 4.13625 14.4566 3.62755 14.0815 3.25247C13.7065 2.8774 13.1978 2.66669 12.6673 2.66669ZM3.33398 4.00002H12.6673C12.8441 4.00002 13.0137 4.07026 13.1387 4.19528C13.2637 4.32031 13.334 4.48988 13.334 4.66669L8.00065 7.92002L2.66732 4.66669C2.66732 4.48988 2.73756 4.32031 2.86258 4.19528C2.9876 4.07026 3.15717 4.00002 3.33398 4.00002ZM13.334 11.3334C13.334 11.5102 13.2637 11.6797 13.1387 11.8048C13.0137 11.9298 12.8441 12 12.6673 12H3.33398C3.15717 12 2.9876 11.9298 2.86258 11.8048C2.73756 11.6797 2.66732 11.5102 2.66732 11.3334V6.18669L7.65398 9.23335C7.75533 9.29187 7.87029 9.32267 7.98732 9.32267C8.10434 9.32267 8.21931 9.29187 8.32065 9.23335L13.334 6.18669V11.3334Z" fill="#0078FF"/>
</svg>
