<svg width="113" height="38" viewBox="0 0 113 38" fill="none" xmlns="http://www.w3.org/2000/svg">
<g filter="url(#filter0_d)">
<path d="M7 15C7 10.3222 7 7.98333 8.07293 6.27578C8.63242 5.38535 9.38535 4.63242 10.2758 4.07293C11.9833 3 14.3222 3 19 3H94C98.6778 3 101.017 3 102.724 4.07293C103.615 4.63242 104.368 5.38535 104.927 6.27578C106 7.98333 106 10.3222 106 15C106 19.6778 106 22.0167 104.927 23.7242C104.368 24.6147 103.615 25.3676 102.724 25.9271C101.017 27 98.6778 27 94 27H19C14.3222 27 11.9833 27 10.2758 25.9271C9.38535 25.3676 8.63242 24.6147 8.07293 23.7242C7 22.0167 7 19.6778 7 15Z" fill="url(#paint0_linear)"/>
<path d="M27.4602 11.3333H25.4802V10.6667C25.4802 10.1362 25.2716 9.62752 24.9003 9.25244C24.529 8.87737 24.0254 8.66666 23.5002 8.66666H22.1802C21.6551 8.66666 21.1515 8.87737 20.7802 9.25244C20.4088 9.62752 20.2002 10.1362 20.2002 10.6667V11.3333H18.2202C17.6951 11.3333 17.1915 11.544 16.8202 11.9191C16.4488 12.2942 16.2402 12.8029 16.2402 13.3333V19.3333C16.2402 19.8638 16.4488 20.3725 16.8202 20.7475C17.1915 21.1226 17.6951 21.3333 18.2202 21.3333H27.4602C27.9854 21.3333 28.489 21.1226 28.8603 20.7475C29.2316 20.3725 29.4402 19.8638 29.4402 19.3333V13.3333C29.4402 12.8029 29.2316 12.2942 28.8603 11.9191C28.489 11.544 27.9854 11.3333 27.4602 11.3333ZM21.5202 10.6667C21.5202 10.4898 21.5898 10.3203 21.7135 10.1953C21.8373 10.0702 22.0052 9.99999 22.1802 9.99999H23.5002C23.6753 9.99999 23.8432 10.0702 23.9669 10.1953C24.0907 10.3203 24.1602 10.4898 24.1602 10.6667V11.3333H21.5202V10.6667ZM28.1202 19.3333C28.1202 19.5101 28.0507 19.6797 27.9269 19.8047C27.8032 19.9298 27.6353 20 27.4602 20H18.2202C18.0452 20 17.8773 19.9298 17.7535 19.8047C17.6298 19.6797 17.5602 19.5101 17.5602 19.3333V15.6667C19.2408 16.3401 21.0323 16.6862 22.8402 16.6867C24.6481 16.6855 26.4395 16.3395 28.1202 15.6667V19.3333ZM28.1202 14.2067C26.456 14.9452 24.658 15.3265 22.8402 15.3265C21.0225 15.3265 19.2245 14.9452 17.5602 14.2067V13.3333C17.5602 13.1565 17.6298 12.9869 17.7535 12.8619C17.8773 12.7369 18.0452 12.6667 18.2202 12.6667H27.4602C27.6353 12.6667 27.8032 12.7369 27.9269 12.8619C28.0507 12.9869 28.1202 13.1565 28.1202 13.3333V14.2067Z" fill="white"/>
<path d="M39.924 10.456H45.636V11.68H41.436V14.044H45.384V15.268H41.436V17.776H45.636V19H39.924V10.456ZM50.4207 12.784C51.8687 12.784 52.5927 13.616 52.5927 15.28V19H51.0927V15.352C51.0927 14.872 51.0007 14.524 50.8167 14.308C50.6327 14.084 50.3487 13.972 49.9647 13.972C49.5087 13.972 49.1407 14.12 48.8607 14.416C48.5807 14.704 48.4407 15.088 48.4407 15.568V19H46.9527V14.656C46.9527 14.016 46.9207 13.444 46.8567 12.94H48.2607L48.3687 13.936C48.5767 13.568 48.8567 13.284 49.2087 13.084C49.5687 12.884 49.9727 12.784 50.4207 12.784ZM56.0912 14.068V16.78C56.0912 17.492 56.4232 17.848 57.0872 17.848C57.2712 17.848 57.4712 17.816 57.6872 17.752V18.94C57.4232 19.036 57.1032 19.084 56.7272 19.084C56.0392 19.084 55.5112 18.892 55.1432 18.508C54.7752 18.124 54.5912 17.572 54.5912 16.852V14.068H53.4272V12.94H54.5912V11.464L56.0912 10.96V12.94H57.6992V14.068H56.0912ZM64.0341 16.048H59.8581C59.8901 16.696 60.0501 17.176 60.3381 17.488C60.6341 17.792 61.0701 17.944 61.6461 17.944C62.3101 17.944 62.9261 17.728 63.4941 17.296L63.9261 18.328C63.6381 18.56 63.2821 18.748 62.8581 18.892C62.4421 19.028 62.0181 19.096 61.5861 19.096C60.5941 19.096 59.8141 18.816 59.2461 18.256C58.6781 17.696 58.3941 16.928 58.3941 15.952C58.3941 15.336 58.5181 14.788 58.7661 14.308C59.0141 13.828 59.3621 13.456 59.8101 13.192C60.2581 12.92 60.7661 12.784 61.3341 12.784C62.1661 12.784 62.8221 13.056 63.3021 13.6C63.7901 14.136 64.0341 14.876 64.0341 15.82V16.048ZM61.3701 13.864C60.9701 13.864 60.6421 13.984 60.3861 14.224C60.1381 14.456 59.9781 14.796 59.9061 15.244H62.7261C62.6781 14.788 62.5381 14.444 62.3061 14.212C62.0821 13.98 61.7701 13.864 61.3701 13.864ZM68.5683 12.796C68.8003 12.796 69.0003 12.828 69.1683 12.892L69.1563 14.26C68.9003 14.156 68.6363 14.104 68.3643 14.104C67.8523 14.104 67.4603 14.252 67.1883 14.548C66.9243 14.844 66.7923 15.236 66.7923 15.724V19H65.3043V14.656C65.3043 14.016 65.2723 13.444 65.2083 12.94H66.6123L66.7323 14.008C66.8843 13.616 67.1243 13.316 67.4523 13.108C67.7803 12.9 68.1523 12.796 68.5683 12.796ZM73.4595 12.784C73.9795 12.784 74.4395 12.92 74.8395 13.192C75.2475 13.456 75.5635 13.832 75.7875 14.32C76.0195 14.8 76.1355 15.352 76.1355 15.976C76.1355 16.6 76.0235 17.148 75.7995 17.62C75.5755 18.092 75.2595 18.456 74.8515 18.712C74.4515 18.968 73.9875 19.096 73.4595 19.096C73.0195 19.096 72.6275 19.004 72.2835 18.82C71.9395 18.628 71.6755 18.364 71.4915 18.028V21.592H70.0035V14.656C70.0035 14.016 69.9715 13.444 69.9075 12.94H71.3115L71.4315 13.984C71.5915 13.608 71.8515 13.316 72.2115 13.108C72.5715 12.892 72.9875 12.784 73.4595 12.784ZM73.0515 17.92C73.5555 17.92 73.9435 17.752 74.2155 17.416C74.4875 17.08 74.6235 16.6 74.6235 15.976C74.6235 15.344 74.4875 14.852 74.2155 14.5C73.9435 14.14 73.5595 13.96 73.0635 13.96C72.5515 13.96 72.1595 14.132 71.8875 14.476C71.6155 14.82 71.4795 15.312 71.4795 15.952C71.4795 16.584 71.6155 17.072 71.8875 17.416C72.1595 17.752 72.5475 17.92 73.0515 17.92ZM80.7089 12.796C80.9409 12.796 81.1409 12.828 81.3089 12.892L81.2969 14.26C81.0409 14.156 80.7769 14.104 80.5049 14.104C79.9929 14.104 79.6009 14.252 79.3289 14.548C79.0649 14.844 78.9329 15.236 78.9329 15.724V19H77.4449V14.656C77.4449 14.016 77.4129 13.444 77.3489 12.94H78.7529L78.8729 14.008C79.0249 13.616 79.2649 13.316 79.5929 13.108C79.9209 12.9 80.2929 12.796 80.7089 12.796ZM82.1441 12.94H83.6321V19H82.1441V12.94ZM83.7161 10.192V11.668H82.0481V10.192H83.7161ZM87.493 19.096C86.397 19.096 85.525 18.84 84.877 18.328L85.297 17.272C85.945 17.752 86.685 17.992 87.517 17.992C87.877 17.992 88.153 17.932 88.345 17.812C88.545 17.692 88.645 17.524 88.645 17.308C88.645 17.124 88.577 16.98 88.441 16.876C88.305 16.764 88.073 16.668 87.745 16.588L86.737 16.36C85.633 16.12 85.081 15.556 85.081 14.668C85.081 14.3 85.185 13.976 85.393 13.696C85.601 13.408 85.893 13.184 86.269 13.024C86.645 12.864 87.081 12.784 87.577 12.784C88.009 12.784 88.425 12.852 88.825 12.988C89.225 13.116 89.577 13.304 89.881 13.552L89.437 14.572C88.829 14.124 88.205 13.9 87.565 13.9C87.221 13.9 86.953 13.964 86.761 14.092C86.569 14.22 86.473 14.396 86.473 14.62C86.473 14.796 86.529 14.936 86.641 15.04C86.761 15.144 86.961 15.232 87.241 15.304L88.273 15.532C88.873 15.668 89.309 15.88 89.581 16.168C89.861 16.448 90.001 16.816 90.001 17.272C90.001 17.832 89.777 18.276 89.329 18.604C88.881 18.932 88.269 19.096 87.493 19.096ZM96.5888 16.048H92.4128C92.4448 16.696 92.6048 17.176 92.8928 17.488C93.1888 17.792 93.6248 17.944 94.2008 17.944C94.8648 17.944 95.4808 17.728 96.0488 17.296L96.4808 18.328C96.1928 18.56 95.8368 18.748 95.4128 18.892C94.9968 19.028 94.5728 19.096 94.1408 19.096C93.1488 19.096 92.3688 18.816 91.8008 18.256C91.2328 17.696 90.9488 16.928 90.9488 15.952C90.9488 15.336 91.0728 14.788 91.3208 14.308C91.5688 13.828 91.9168 13.456 92.3648 13.192C92.8128 12.92 93.3208 12.784 93.8888 12.784C94.7208 12.784 95.3768 13.056 95.8568 13.6C96.3448 14.136 96.5888 14.876 96.5888 15.82V16.048ZM93.9248 13.864C93.5248 13.864 93.1968 13.984 92.9408 14.224C92.6928 14.456 92.5328 14.796 92.4608 15.244H95.2808C95.2328 14.788 95.0928 14.444 94.8608 14.212C94.6368 13.98 94.3248 13.864 93.9248 13.864Z" fill="white"/>
<path d="M8.07293 23.7242L8.91965 23.1922L8.07293 23.7242ZM104.927 23.7242L105.774 24.2563L104.927 23.7242ZM102.724 25.9271L103.256 26.7738L102.724 25.9271ZM102.724 4.07293L102.192 4.91965L102.724 4.07293ZM104.927 6.27578L104.08 6.80781L104.927 6.27578ZM19 4H94V2H19V4ZM94 26H19V28H94V26ZM19 26C16.6413 26 14.944 25.9989 13.6206 25.8706C12.3126 25.7437 11.4756 25.5 10.8078 25.0803L9.74374 26.7738C10.7835 27.4271 11.9698 27.7198 13.4275 27.8612C14.8699 28.0011 16.6809 28 19 28V26ZM6 15C6 17.3191 5.9989 19.1301 6.13879 20.5725C6.28016 22.0302 6.57289 23.2165 7.22621 24.2563L8.91965 23.1922C8.50004 22.5244 8.2563 21.6874 8.12945 20.3794C8.0011 19.056 8 17.3587 8 15H6ZM10.8078 25.0803C10.0446 24.6008 9.39922 23.9554 8.91965 23.1922L7.22621 24.2563C7.86563 25.2739 8.72611 26.1344 9.74374 26.7738L10.8078 25.0803ZM105 15C105 17.3587 104.999 19.056 104.871 20.3794C104.744 21.6874 104.5 22.5244 104.08 23.1922L105.774 24.2563C106.427 23.2165 106.72 22.0302 106.861 20.5725C107.001 19.1301 107 17.3191 107 15H105ZM94 28C96.3191 28 98.1301 28.0011 99.5725 27.8612C101.03 27.7198 102.217 27.4271 103.256 26.7738L102.192 25.0803C101.524 25.5 100.687 25.7437 99.3794 25.8706C98.056 25.9989 96.3587 26 94 26V28ZM104.08 23.1922C103.601 23.9554 102.955 24.6008 102.192 25.0803L103.256 26.7738C104.274 26.1344 105.134 25.2739 105.774 24.2563L104.08 23.1922ZM94 4C96.3587 4 98.056 4.0011 99.3794 4.12945C100.687 4.2563 101.524 4.50004 102.192 4.91965L103.256 3.22621C102.217 2.57289 101.03 2.28016 99.5725 2.13879C98.1301 1.9989 96.3191 2 94 2V4ZM107 15C107 12.6809 107.001 10.8699 106.861 9.42753C106.72 7.96978 106.427 6.78348 105.774 5.74374L104.08 6.80781C104.5 7.47563 104.744 8.31256 104.871 9.62059C104.999 10.944 105 12.6413 105 15H107ZM102.192 4.91965C102.955 5.39922 103.601 6.04458 104.08 6.80781L105.774 5.74374C105.134 4.72611 104.274 3.86563 103.256 3.22621L102.192 4.91965ZM19 2C16.6809 2 14.8699 1.9989 13.4275 2.13879C11.9698 2.28016 10.7835 2.57289 9.74374 3.22621L10.8078 4.91965C11.4756 4.50004 12.3126 4.2563 13.6206 4.12945C14.944 4.0011 16.6413 4 19 4V2ZM8 15C8 12.6413 8.0011 10.944 8.12945 9.62059C8.2563 8.31256 8.50004 7.47563 8.91965 6.80781L7.22621 5.74374C6.57289 6.78348 6.28016 7.96978 6.13879 9.42753C5.9989 10.8699 6 12.6809 6 15H8ZM9.74374 3.22621C8.72611 3.86563 7.86563 4.72611 7.22621 5.74374L8.91965 6.80781C9.39922 6.04458 10.0446 5.39922 10.8078 4.91965L9.74374 3.22621Z" fill="#8AC1FF"/>
</g>
<defs>
<filter id="filter0_d" x="0" y="0" width="113" height="38" filterUnits="userSpaceOnUse" color-interpolation-filters="sRGB">
<feFlood flood-opacity="0" result="BackgroundImageFix"/>
<feColorMatrix in="SourceAlpha" type="matrix" values="0 0 0 0 0 0 0 0 0 0 0 0 0 0 0 0 0 0 127 0"/>
<feOffset dy="4"/>
<feGaussianBlur stdDeviation="3.5"/>
<feColorMatrix type="matrix" values="0 0 0 0 0.27451 0 0 0 0 0.615686 0 0 0 0 1 0 0 0 0.3 0"/>
<feBlend mode="normal" in2="BackgroundImageFix" result="effect1_dropShadow"/>
<feBlend mode="normal" in="SourceGraphic" in2="effect1_dropShadow" result="shape"/>
</filter>
<linearGradient id="paint0_linear" x1="57" y1="27" x2="77" y2="3" gradientUnits="userSpaceOnUse">
<stop stop-color="#469DFF"/>
<stop offset="1" stop-color="#69AFFF"/>
</linearGradient>
</defs>
</svg>
