<svg width="14" height="14" viewBox="0 0 14 14" fill="none" xmlns="http://www.w3.org/2000/svg">
<path d="M7.00027 9.33335C6.88489 9.33335 6.77211 9.36756 6.67618 9.43166C6.58025 9.49576 6.50549 9.58686 6.46134 9.69345C6.41718 9.80004 6.40563 9.91733 6.42814 10.0305C6.45065 10.1436 6.50621 10.2476 6.58779 10.3292C6.66937 10.4107 6.77331 10.4663 6.88646 10.4888C6.99962 10.5113 7.11691 10.4998 7.2235 10.4556C7.33009 10.4115 7.42119 10.3367 7.48529 10.2408C7.54939 10.1448 7.5836 10.0321 7.5836 9.91668C7.5836 9.76197 7.52214 9.6136 7.41274 9.5042C7.30335 9.39481 7.15498 9.33335 7.00027 9.33335ZM13.2244 10.1908L8.5286 2.02418C8.37682 1.75207 8.15514 1.52541 7.88646 1.36762C7.61778 1.20984 7.31185 1.12665 7.00027 1.12665C6.68868 1.12665 6.38275 1.20984 6.11407 1.36762C5.84539 1.52541 5.62371 1.75207 5.47193 2.02418L0.805266 10.1908C0.64823 10.4557 0.563849 10.7573 0.560642 11.0652C0.557435 11.373 0.635515 11.6763 0.786999 11.9444C0.938484 12.2124 1.15801 12.4358 1.42341 12.5919C1.68882 12.7479 1.99071 12.8312 2.2986 12.8334H11.7019C12.0123 12.8364 12.3179 12.7569 12.5874 12.6029C12.8569 12.4489 13.0806 12.226 13.2355 11.9571C13.3905 11.6881 13.4711 11.3828 13.4691 11.0725C13.4672 10.7621 13.3827 10.4578 13.2244 10.1908ZM12.2153 11.3575C12.1641 11.4485 12.0895 11.5241 11.9992 11.5764C11.909 11.6287 11.8063 11.6559 11.7019 11.655H2.2986C2.19425 11.6559 2.09157 11.6287 2.00128 11.5764C1.911 11.5241 1.8364 11.4485 1.78527 11.3575C1.73407 11.2688 1.70711 11.1682 1.70711 11.0658C1.70711 10.9635 1.73407 10.8629 1.78527 10.7742L6.45193 2.60752C6.50089 2.51196 6.57526 2.43178 6.66686 2.37578C6.75846 2.31979 6.86374 2.29016 6.9711 2.29016C7.07846 2.29016 7.18374 2.31979 7.27534 2.37578C7.36694 2.43178 7.44131 2.51196 7.49027 2.60752L12.1861 10.7742C12.244 10.8616 12.2772 10.963 12.2824 11.0677C12.2875 11.1724 12.2643 11.2765 12.2153 11.3692V11.3575ZM7.00027 4.66668C6.84556 4.66668 6.69718 4.72814 6.58779 4.83754C6.47839 4.94693 6.41693 5.09531 6.41693 5.25002V7.58335C6.41693 7.73806 6.47839 7.88643 6.58779 7.99583C6.69718 8.10523 6.84556 8.16668 7.00027 8.16668C7.15498 8.16668 7.30335 8.10523 7.41274 7.99583C7.52214 7.88643 7.5836 7.73806 7.5836 7.58335V5.25002C7.5836 5.09531 7.52214 4.94693 7.41274 4.83754C7.30335 4.72814 7.15498 4.66668 7.00027 4.66668Z" fill="#FF595E"/>
</svg>
