<svg width="166" height="166" viewBox="0 0 166 166" fill="none" xmlns="http://www.w3.org/2000/svg">
<g filter="url(#filter0_d)">
<path d="M83 111C56.5327 111 35 89.4673 35 63C35 36.5327 56.5327 15 83 15C109.467 15 131 36.5327 131 63C131 89.4673 109.467 111 83 111Z" fill="#FF6B6B"/>
<path d="M83.0051 21.7605C60.2655 21.7605 41.7656 40.2604 41.7656 63C41.7656 85.7396 60.2655 104.24 83.0051 104.24C105.745 104.24 124.245 85.7396 124.245 63C124.245 40.2604 105.745 21.7605 83.0051 21.7605Z" fill="#EE5253"/>
<path d="M38.8634 63C38.8634 37.1799 59.3568 16.0599 84.9318 15.0422C84.2906 15.0167 83.6473 15 83 15C56.5327 15 35 36.5327 35 63C35 89.4673 56.5327 111 83 111C83.6473 111 84.2906 110.983 84.9316 110.958C59.3568 109.94 38.8634 88.8201 38.8634 63Z" fill="#DA464D"/>
<path d="M45.6291 63C45.6291 40.908 63.0908 22.8197 84.9368 21.8072C84.2964 21.7776 83.6526 21.7605 83.0051 21.7605C60.2655 21.7605 41.7656 40.2604 41.7656 63C41.7656 85.7396 60.2655 104.24 83.0051 104.24C83.6528 104.24 84.2964 104.223 84.9368 104.193C63.0908 103.18 45.6291 85.092 45.6291 63Z" fill="#DA464D"/>
<path d="M93.2001 47.7759L83.3331 57.6429C83.1522 57.8239 82.8587 57.8239 82.6778 57.6429L72.7769 47.742C71.9335 46.8986 70.0382 46.9882 68.5607 48.4655C67.2287 49.7975 66.8764 51.7819 67.8066 52.712L77.5652 62.4707C77.8249 62.7304 77.8249 63.1511 77.5652 63.4108L67.8066 73.1694C66.8764 74.0996 67.2287 76.0841 68.5607 77.4159C70.038 78.8934 71.9335 78.9829 72.7769 78.1395L82.5805 68.3359C82.8152 68.1013 83.1957 68.1013 83.4302 68.3359L93.2001 78.1057C94.1926 79.0982 95.9644 78.7669 97.4131 77.3181C98.8673 75.8638 99.1786 74.1441 98.1702 73.1355L88.4149 63.3802C88.1721 63.1374 88.1721 62.7441 88.4149 62.5012L98.1702 52.7462C99.1786 51.7378 98.8673 50.0179 97.4131 48.5636C95.9644 47.1148 94.1926 46.7835 93.2001 47.7759Z" fill="#F3F7FF"/>
<path d="M71.6702 73.1692L81.4288 63.4106C81.6883 63.1511 81.6883 62.7302 81.4288 62.4705L71.6702 52.7119C70.6358 51.6774 71.1713 49.2996 73.0043 47.9692L72.7769 47.7418C71.9335 46.8984 70.0382 46.9881 68.5607 48.4654C67.2287 49.7974 66.8764 51.7817 67.8066 52.7119L77.5652 62.4705C77.8247 62.73 77.8247 63.1509 77.5652 63.4106L67.8066 73.1692C66.8764 74.0994 67.2287 76.0839 68.5607 77.4157C70.038 78.8932 71.9335 78.9827 72.7769 78.1393L73.0043 77.9119C71.1644 76.5765 70.6399 74.1996 71.6702 73.1692Z" fill="#D8DCE5"/>
</g>
<defs>
<filter id="filter0_d" x="0" y="0" width="166" height="166" filterUnits="userSpaceOnUse" color-interpolation-filters="sRGB">
<feFlood flood-opacity="0" result="BackgroundImageFix"/>
<feColorMatrix in="SourceAlpha" type="matrix" values="0 0 0 0 0 0 0 0 0 0 0 0 0 0 0 0 0 0 127 0"/>
<feOffset dy="20"/>
<feGaussianBlur stdDeviation="17.5"/>
<feColorMatrix type="matrix" values="0 0 0 0 1 0 0 0 0 0.419608 0 0 0 0 0.419608 0 0 0 0.3 0"/>
<feBlend mode="normal" in2="BackgroundImageFix" result="effect1_dropShadow"/>
<feBlend mode="normal" in="SourceGraphic" in2="effect1_dropShadow" result="shape"/>
</filter>
</defs>
</svg>
