<svg width="14" height="14" viewBox="0 0 14 14" fill="none" xmlns="http://www.w3.org/2000/svg">
<path d="M6.99968 0.333374C5.68114 0.333374 4.3922 0.724367 3.29588 1.45691C2.19955 2.18945 1.34506 3.23064 0.840481 4.44882C0.335896 5.66699 0.203874 7.00744 0.461109 8.30064C0.718344 9.59385 1.35328 10.7817 2.28563 11.7141C3.21798 12.6464 4.40587 13.2814 5.69908 13.5386C6.99228 13.7958 8.33273 13.6638 9.5509 13.1592C10.7691 12.6547 11.8103 11.8002 12.5428 10.7038C13.2753 9.60751 13.6663 8.31858 13.6663 7.00004C13.6644 5.23253 12.9614 3.53798 11.7116 2.28817C10.4617 1.03835 8.76718 0.33534 6.99968 0.333374ZM6.99968 12.3334C5.94484 12.3334 4.9137 12.0206 4.03664 11.4345C3.15957 10.8485 2.47599 10.0156 2.07232 9.04102C1.66865 8.06648 1.56303 6.99412 1.76882 5.95956C1.97461 4.92499 2.48256 3.97468 3.22844 3.2288C3.97432 2.48292 4.92463 1.97497 5.9592 1.76919C6.99376 1.5634 8.06612 1.66902 9.04066 2.07268C10.0152 2.47635 10.8481 3.15994 11.4342 4.037C12.0202 4.91406 12.333 5.94521 12.333 7.00004C12.3314 8.41403 11.769 9.76965 10.7691 10.7695C9.76928 11.7693 8.41367 12.3318 6.99968 12.3334ZM6.99968 6.66671C6.82287 6.66671 6.6533 6.73695 6.52827 6.86197C6.40325 6.98699 6.33301 7.15656 6.33301 7.33337V9.33337C6.33301 9.51019 6.40325 9.67976 6.52827 9.80478C6.6533 9.9298 6.82287 10 6.99968 10C7.17649 10 7.34606 9.9298 7.47108 9.80478C7.59611 9.67976 7.66634 9.51019 7.66634 9.33337V7.33337C7.66634 7.15656 7.59611 6.98699 7.47108 6.86197C7.34606 6.73695 7.17649 6.66671 6.99968 6.66671ZM6.99968 4.00004C6.83486 4.00004 6.67374 4.04891 6.5367 4.14048C6.39966 4.23205 6.29285 4.3622 6.22978 4.51447C6.16671 4.66674 6.1502 4.8343 6.18236 4.99595C6.21451 5.1576 6.29388 5.30609 6.41042 5.42263C6.52697 5.53917 6.67545 5.61854 6.8371 5.6507C6.99875 5.68285 7.16631 5.66635 7.31858 5.60327C7.47085 5.5402 7.601 5.43339 7.69257 5.29635C7.78414 5.15931 7.83301 4.99819 7.83301 4.83337C7.83301 4.61236 7.74521 4.4004 7.58893 4.24412C7.43265 4.08784 7.22069 4.00004 6.99968 4.00004Z" fill="#262433"/>
</svg>
