<svg width="24" height="24" viewBox="0 0 24 24" fill="none" xmlns="http://www.w3.org/2000/svg">
<circle cx="12" cy="12" r="8" fill="#0078FF"/>
<path d="M11.8333 13.4333C12.0367 13.4333 12.2317 13.3526 12.3754 13.2088C12.5192 13.065 12.6 12.87 12.6 12.6667V8.66667C12.6 8.46333 12.5192 8.26833 12.3754 8.12455C12.2317 7.98077 12.0367 7.9 11.8333 7.9C11.63 7.9 11.435 7.98077 11.2912 8.12455C11.1474 8.26833 11.0667 8.46333 11.0667 8.66667V12.6667C11.0667 12.87 11.1474 13.065 11.2912 13.2088C11.435 13.3526 11.63 13.4333 11.8333 13.4333ZM11.8333 16.1C12.0179 16.1 12.1984 16.0453 12.3519 15.9427C12.5054 15.8401 12.625 15.6944 12.6956 15.5238C12.7663 15.3533 12.7847 15.1656 12.7487 14.9846C12.7127 14.8035 12.6238 14.6372 12.4933 14.5067C12.3628 14.3762 12.1965 14.2873 12.0154 14.2513C11.8344 14.2153 11.6467 14.2337 11.4762 14.3044C11.3056 14.375 11.1599 14.4946 11.0573 14.6481C10.9547 14.8016 10.9 14.9821 10.9 15.1667C10.9 15.4142 10.9983 15.6516 11.1734 15.8266C11.3484 16.0017 11.5858 16.1 11.8333 16.1Z" fill="white" stroke="white" stroke-width="0.2"/>
</svg>
