<svg width="48" height="48" viewBox="0 0 48 48" fill="none" xmlns="http://www.w3.org/2000/svg">
<path d="M43.6875 11.25V43.7812C43.6875 46.1155 41.8032 48 39.4688 48H8.53125C6.19678 48 4.3125 46.1155 4.3125 43.7812V4.21875C4.3125 1.88428 6.19678 0 8.53125 0H32.4375L35.25 8.4375L43.6875 11.25Z" fill="#AFD3FB"/>
<path d="M43.6875 11.25V43.7812C43.6875 46.1155 41.8032 48 39.4688 48H24V0H32.4375L35.25 8.4375L43.6875 11.25Z" fill="#68AFFF"/>
<path d="M32.4375 9.84375C32.4375 10.6313 33.0562 11.25 33.8438 11.25H43.6875L32.4375 0V9.84375Z" fill="#0078FF"/>
<path d="M36.4688 20.686L35.5912 23.9281L24.0001 31.6511L23.9268 31.6875L13.323 24.9118L11.5312 20.686C11.7141 20.5039 11.8237 20.2853 12.0064 20.1395L22.976 12.854C23.2319 12.6355 23.6344 12.5625 23.9999 12.5625C24.3655 12.5625 24.7679 12.6355 25.0239 12.854L35.9935 20.1395C36.1765 20.2854 36.286 20.504 36.4688 20.686Z" fill="#F8FBFF"/>
<path d="M36.4688 20.6616L35.5912 23.894L24 31.5938V12.5625C24.3655 12.5625 24.768 12.6353 25.024 12.8532L35.9936 20.1168C36.1765 20.2622 36.286 20.4801 36.4688 20.6616Z" fill="#D4E8FF"/>
<path d="M36.75 21.6078V32.5263C36.75 33.1449 36.4585 33.6909 35.9487 34.0547L25.0201 41.3337H24.9107C24.9107 41.3701 24.8743 41.4066 24.8743 41.4066C24.5827 41.5521 24.2915 41.625 24 41.625C23.7085 41.625 23.4173 41.5521 23.1257 41.4066C23.1257 41.4066 23.0893 41.3702 23.0893 41.3337H22.9799L12.0513 34.0547C11.5415 33.6909 11.25 33.1449 11.25 32.5263V21.6078C11.25 21.2801 11.3594 20.8434 11.578 20.625L24 28.8868L36.422 20.625C36.6406 20.8434 36.75 21.2801 36.75 21.6078Z" fill="#DAECFF"/>
<path d="M24.8743 41.4066C24.5827 41.5521 24.2916 41.625 24 41.625V28.8868L36.422 20.625C36.6406 20.8434 36.75 21.2801 36.75 21.6078V32.5263C36.75 33.1449 36.4585 33.6909 35.9487 34.0547L25.0201 41.3337H24.9107C24.9107 41.3702 24.8743 41.4066 24.8743 41.4066Z" fill="#A0CDFF"/>
<path d="M12.5508 15.0433C16.1406 15.0433 19.0508 12.1332 19.0508 8.54333C19.0508 4.95348 16.1406 2.04333 12.5508 2.04333C8.96093 2.04333 6.05078 4.95348 6.05078 8.54333C6.05078 12.1332 8.96093 15.0433 12.5508 15.0433Z" fill="#FEB38A"/>
<path d="M15.9943 7.23212L12.13 11.0964C12.0185 11.2078 11.8674 11.2704 11.7097 11.2704C11.5521 11.2704 11.4009 11.2078 11.2894 11.0964L9.35728 9.16425C9.3005 9.10941 9.2552 9.0438 9.22405 8.97127C9.19289 8.89874 9.17649 8.82073 9.1758 8.74179C9.17512 8.66286 9.19016 8.58458 9.22005 8.51152C9.24995 8.43846 9.29409 8.37208 9.34991 8.31626C9.40573 8.26044 9.4721 8.21629 9.54516 8.1864C9.61822 8.15651 9.69651 8.14146 9.77545 8.14215C9.85439 8.14284 9.93239 8.15924 10.0049 8.1904C10.0775 8.22156 10.1431 8.26684 10.1979 8.32362L11.7097 9.83544L15.1537 6.39149C15.2085 6.33471 15.2741 6.28943 15.3466 6.25827C15.4192 6.22711 15.4972 6.21071 15.5761 6.21002C15.6551 6.20934 15.7333 6.22438 15.8064 6.25427C15.8795 6.28416 15.9458 6.32831 16.0017 6.38413C16.0575 6.43995 16.1016 6.50633 16.1315 6.57939C16.1614 6.65245 16.1764 6.73073 16.1758 6.80967C16.1751 6.8886 16.1587 6.96661 16.1275 7.03914C16.0964 7.11168 16.0511 7.17728 15.9943 7.23212Z" fill="white"/>
</svg>
