<svg width="100%" viewBox="0 0 16 16" fill="none" xmlns="http://www.w3.org/2000/svg">
<path d="M5.33398 1.33333H2.00065C1.82384 1.33333 1.65427 1.40357 1.52925 1.5286C1.40422 1.65362 1.33398 1.82319 1.33398 2V5.33333C1.33398 5.51015 1.40422 5.67971 1.52925 5.80474C1.65427 5.92976 1.82384 6 2.00065 6C2.17746 6 2.34703 5.92976 2.47206 5.80474C2.59708 5.67971 2.66732 5.51015 2.66732 5.33333V2.66667H5.33398C5.5108 2.66667 5.68036 2.59643 5.80539 2.47141C5.93041 2.34638 6.00065 2.17681 6.00065 2C6.00065 1.82319 5.93041 1.65362 5.80539 1.5286C5.68036 1.40357 5.5108 1.33333 5.33398 1.33333ZM5.33398 13.3333H2.66732V10.6667C2.66732 10.4899 2.59708 10.3203 2.47206 10.1953C2.34703 10.0702 2.17746 10 2.00065 10C1.82384 10 1.65427 10.0702 1.52925 10.1953C1.40422 10.3203 1.33398 10.4899 1.33398 10.6667V14C1.33398 14.1768 1.40422 14.3464 1.52925 14.4714C1.65427 14.5964 1.82384 14.6667 2.00065 14.6667H5.33398C5.5108 14.6667 5.68036 14.5964 5.80539 14.4714C5.93041 14.3464 6.00065 14.1768 6.00065 14C6.00065 13.8232 5.93041 13.6536 5.80539 13.5286C5.68036 13.4036 5.5108 13.3333 5.33398 13.3333ZM14.0007 1.33333H10.6673C10.4905 1.33333 10.3209 1.40357 10.1959 1.5286C10.0709 1.65362 10.0007 1.82319 10.0007 2C10.0007 2.17681 10.0709 2.34638 10.1959 2.47141C10.3209 2.59643 10.4905 2.66667 10.6673 2.66667H13.334V5.33333C13.334 5.51015 13.4042 5.67971 13.5292 5.80474C13.6543 5.92976 13.8238 6 14.0007 6C14.1775 6 14.347 5.92976 14.4721 5.80474C14.5971 5.67971 14.6673 5.51015 14.6673 5.33333V2C14.6673 1.82319 14.5971 1.65362 14.4721 1.5286C14.347 1.40357 14.1775 1.33333 14.0007 1.33333ZM14.0007 10C13.8238 10 13.6543 10.0702 13.5292 10.1953C13.4042 10.3203 13.334 10.4899 13.334 10.6667V13.3333H10.6673C10.4905 13.3333 10.3209 13.4036 10.1959 13.5286C10.0709 13.6536 10.0007 13.8232 10.0007 14C10.0007 14.1768 10.0709 14.3464 10.1959 14.4714C10.3209 14.5964 10.4905 14.6667 10.6673 14.6667H14.0007C14.1775 14.6667 14.347 14.5964 14.4721 14.4714C14.5971 14.3464 14.6673 14.1768 14.6673 14V10.6667C14.6673 10.4899 14.5971 10.3203 14.4721 10.1953C14.347 10.0702 14.1775 10 14.0007 10Z" fill="#262433"/>
</svg>
