<svg width="79" height="38" viewBox="0 0 79 38" fill="none" xmlns="http://www.w3.org/2000/svg">
<g filter="url(#filter0_d)">
<path d="M7 15C7 10.3222 7 7.98333 8.07293 6.27578C8.63242 5.38535 9.38535 4.63242 10.2758 4.07293C11.9833 3 14.3222 3 19 3H60C64.6778 3 67.0167 3 68.7242 4.07293C69.6147 4.63242 70.3676 5.38535 70.9271 6.27578C72 7.98333 72 10.3222 72 15C72 19.6778 72 22.0167 70.9271 23.7242C70.3676 24.6147 69.6147 25.3676 68.7242 25.9271C67.0167 27 64.6778 27 60 27H19C14.3222 27 11.9833 27 10.2758 25.9271C9.38535 25.3676 8.63242 24.6147 8.07293 23.7242C7 22.0167 7 19.6778 7 15Z" fill="url(#paint0_linear)"/>
<path d="M39.924 10.456H45.504V11.692H41.46V14.032H45.264V15.28H41.46V19H39.924V10.456ZM49.83 12.796C50.062 12.796 50.262 12.828 50.43 12.892L50.418 14.26C50.162 14.156 49.898 14.104 49.626 14.104C49.114 14.104 48.722 14.252 48.45 14.548C48.186 14.844 48.054 15.236 48.054 15.724V19H46.566V14.656C46.566 14.016 46.534 13.444 46.47 12.94H47.874L47.994 14.008C48.146 13.616 48.386 13.316 48.714 13.108C49.042 12.9 49.414 12.796 49.83 12.796ZM56.452 16.048H52.276C52.308 16.696 52.468 17.176 52.756 17.488C53.052 17.792 53.488 17.944 54.064 17.944C54.728 17.944 55.344 17.728 55.912 17.296L56.344 18.328C56.056 18.56 55.7 18.748 55.276 18.892C54.86 19.028 54.436 19.096 54.004 19.096C53.012 19.096 52.232 18.816 51.664 18.256C51.096 17.696 50.812 16.928 50.812 15.952C50.812 15.336 50.936 14.788 51.184 14.308C51.432 13.828 51.78 13.456 52.228 13.192C52.676 12.92 53.184 12.784 53.752 12.784C54.584 12.784 55.24 13.056 55.72 13.6C56.208 14.136 56.452 14.876 56.452 15.82V16.048ZM53.788 13.864C53.388 13.864 53.06 13.984 52.804 14.224C52.556 14.456 52.396 14.796 52.324 15.244H55.144C55.096 14.788 54.956 14.444 54.724 14.212C54.5 13.98 54.188 13.864 53.788 13.864ZM63.0263 16.048H58.8503C58.8823 16.696 59.0423 17.176 59.3303 17.488C59.6263 17.792 60.0623 17.944 60.6383 17.944C61.3023 17.944 61.9183 17.728 62.4863 17.296L62.9183 18.328C62.6303 18.56 62.2743 18.748 61.8503 18.892C61.4343 19.028 61.0103 19.096 60.5783 19.096C59.5863 19.096 58.8063 18.816 58.2383 18.256C57.6703 17.696 57.3863 16.928 57.3863 15.952C57.3863 15.336 57.5103 14.788 57.7583 14.308C58.0063 13.828 58.3543 13.456 58.8023 13.192C59.2503 12.92 59.7583 12.784 60.3263 12.784C61.1583 12.784 61.8143 13.056 62.2943 13.6C62.7823 14.136 63.0263 14.876 63.0263 15.82V16.048ZM60.3623 13.864C59.9623 13.864 59.6343 13.984 59.3783 14.224C59.1303 14.456 58.9703 14.796 58.8983 15.244H61.7183C61.6703 14.788 61.5303 14.444 61.2983 14.212C61.0743 13.98 60.7623 13.864 60.3623 13.864Z" fill="white"/>
<path d="M27 11.6667H26.7667C26.9188 11.3552 26.9986 11.0133 27 10.6667C27.002 10.2022 26.865 9.74778 26.6065 9.36188C26.3481 8.97597 25.9801 8.67625 25.5498 8.50128C25.1196 8.32632 24.6468 8.28412 24.1924 8.38013C23.738 8.47614 23.3227 8.70595 23 9.03999C22.6773 8.70595 22.262 8.47614 21.8076 8.38013C21.3532 8.28412 20.8804 8.32632 20.4502 8.50128C20.0199 8.67625 19.6519 8.97597 19.3935 9.36188C19.135 9.74778 18.998 10.2022 19 10.6667C19.0014 11.0133 19.0812 11.3552 19.2333 11.6667H19C18.4696 11.6667 17.9609 11.8774 17.5858 12.2524C17.2107 12.6275 17 13.1362 17 13.6667V15C17 15.1768 17.0702 15.3464 17.1953 15.4714C17.3203 15.5964 17.4899 15.6667 17.6667 15.6667H18.3333V19.6667C18.3333 20.1971 18.544 20.7058 18.9191 21.0809C19.2942 21.4559 19.8029 21.6667 20.3333 21.6667H25.6667C26.1971 21.6667 26.7058 21.4559 27.0809 21.0809C27.456 20.7058 27.6667 20.1971 27.6667 19.6667V15.6667H28.3333C28.5101 15.6667 28.6797 15.5964 28.8047 15.4714C28.9298 15.3464 29 15.1768 29 15V13.6667C29 13.1362 28.7893 12.6275 28.4142 12.2524C28.0391 11.8774 27.5304 11.6667 27 11.6667ZM22.3333 20.3333H20.3333C20.1565 20.3333 19.987 20.2631 19.8619 20.1381C19.7369 20.013 19.6667 19.8435 19.6667 19.6667V15.6667H22.3333V20.3333ZM22.3333 14.3333H18.3333V13.6667C18.3333 13.4898 18.4036 13.3203 18.5286 13.1953C18.6536 13.0702 18.8232 13 19 13H22.3333V14.3333ZM22.3333 11.6667H21.3333C21.1356 11.6667 20.9422 11.608 20.7778 11.4981C20.6133 11.3882 20.4851 11.2321 20.4095 11.0493C20.3338 10.8666 20.314 10.6655 20.3525 10.4716C20.3911 10.2776 20.4864 10.0994 20.6262 9.95955C20.7661 9.8197 20.9443 9.72446 21.1382 9.68587C21.3322 9.64729 21.5333 9.66709 21.716 9.74278C21.8987 9.81846 22.0549 9.94664 22.1648 10.1111C22.2747 10.2755 22.3333 10.4689 22.3333 10.6667V11.6667ZM23.6667 10.6667C23.6667 10.4689 23.7253 10.2755 23.8352 10.1111C23.9451 9.94664 24.1013 9.81846 24.284 9.74278C24.4667 9.66709 24.6678 9.64729 24.8618 9.68587C25.0557 9.72446 25.2339 9.8197 25.3738 9.95955C25.5136 10.0994 25.6089 10.2776 25.6475 10.4716C25.686 10.6655 25.6662 10.8666 25.5905 11.0493C25.5149 11.2321 25.3867 11.3882 25.2222 11.4981C25.0578 11.608 24.8644 11.6667 24.6667 11.6667H23.6667V10.6667ZM26.3333 19.6667C26.3333 19.8435 26.2631 20.013 26.1381 20.1381C26.013 20.2631 25.8435 20.3333 25.6667 20.3333H23.6667V15.6667H26.3333V19.6667ZM27.6667 14.3333H23.6667V13H27C27.1768 13 27.3464 13.0702 27.4714 13.1953C27.5964 13.3203 27.6667 13.4898 27.6667 13.6667V14.3333Z" fill="white"/>
<path d="M8.07293 23.7242L8.91965 23.1922L8.07293 23.7242ZM70.9271 23.7242L71.7738 24.2563L70.9271 23.7242ZM68.7242 25.9271L69.2563 26.7738L68.7242 25.9271ZM68.7242 4.07293L68.1922 4.91965L68.7242 4.07293ZM70.9271 6.27578L71.7738 5.74374L70.9271 6.27578ZM19 4H60V2H19V4ZM60 26H19V28H60V26ZM19 26C16.6413 26 14.944 25.9989 13.6206 25.8706C12.3126 25.7437 11.4756 25.5 10.8078 25.0803L9.74374 26.7738C10.7835 27.4271 11.9698 27.7198 13.4275 27.8612C14.8699 28.0011 16.6809 28 19 28V26ZM6 15C6 17.3191 5.9989 19.1301 6.13879 20.5725C6.28016 22.0302 6.57289 23.2165 7.22621 24.2563L8.91965 23.1922C8.50004 22.5244 8.2563 21.6874 8.12945 20.3794C8.0011 19.056 8 17.3587 8 15H6ZM10.8078 25.0803C10.0446 24.6008 9.39922 23.9554 8.91965 23.1922L7.22621 24.2563C7.86563 25.2739 8.72611 26.1344 9.74374 26.7738L10.8078 25.0803ZM71 15C71 17.3587 70.9989 19.056 70.8706 20.3794C70.7437 21.6874 70.5 22.5244 70.0803 23.1922L71.7738 24.2563C72.4271 23.2165 72.7198 22.0302 72.8612 20.5725C73.0011 19.1301 73 17.3191 73 15H71ZM60 28C62.3191 28 64.1301 28.0011 65.5725 27.8612C67.0302 27.7198 68.2165 27.4271 69.2563 26.7738L68.1922 25.0803C67.5244 25.5 66.6874 25.7437 65.3794 25.8706C64.056 25.9989 62.3587 26 60 26V28ZM70.0803 23.1922C69.6008 23.9554 68.9554 24.6008 68.1922 25.0803L69.2563 26.7738C70.2739 26.1344 71.1344 25.2739 71.7738 24.2563L70.0803 23.1922ZM60 4C62.3587 4 64.056 4.0011 65.3794 4.12945C66.6874 4.2563 67.5244 4.50004 68.1922 4.91965L69.2563 3.22621C68.2165 2.57289 67.0302 2.28016 65.5725 2.13879C64.1301 1.9989 62.3191 2 60 2V4ZM73 15C73 12.6809 73.0011 10.8699 72.8612 9.42753C72.7198 7.96978 72.4271 6.78348 71.7738 5.74374L70.0803 6.80781C70.5 7.47563 70.7437 8.31256 70.8706 9.62059C70.9989 10.944 71 12.6413 71 15H73ZM68.1922 4.91965C68.9554 5.39922 69.6008 6.04458 70.0803 6.80781L71.7738 5.74374C71.1344 4.72611 70.2739 3.86563 69.2563 3.22621L68.1922 4.91965ZM19 2C16.6809 2 14.8699 1.9989 13.4275 2.13879C11.9698 2.28016 10.7835 2.57289 9.74374 3.22621L10.8078 4.91965C11.4756 4.50004 12.3126 4.2563 13.6206 4.12945C14.944 4.0011 16.6413 4 19 4V2ZM8 15C8 12.6413 8.0011 10.944 8.12945 9.62059C8.2563 8.31256 8.50004 7.47563 8.91965 6.80781L7.22621 5.74374C6.57289 6.78348 6.28016 7.96978 6.13879 9.42753C5.9989 10.8699 6 12.6809 6 15H8ZM9.74374 3.22621C8.72611 3.86563 7.86563 4.72611 7.22621 5.74374L8.91965 6.80781C9.39922 6.04458 10.0446 5.39922 10.8078 4.91965L9.74374 3.22621Z" fill="#FFB3A9"/>
</g>
<defs>
<filter id="filter0_d" x="0" y="0" width="79" height="38" filterUnits="userSpaceOnUse" color-interpolation-filters="sRGB">
<feFlood flood-opacity="0" result="BackgroundImageFix"/>
<feColorMatrix in="SourceAlpha" type="matrix" values="0 0 0 0 0 0 0 0 0 0 0 0 0 0 0 0 0 0 127 0"/>
<feOffset dy="4"/>
<feGaussianBlur stdDeviation="3.5"/>
<feColorMatrix type="matrix" values="0 0 0 0 1 0 0 0 0 0.435294 0 0 0 0 0.282353 0 0 0 0.3 0"/>
<feBlend mode="normal" in2="BackgroundImageFix" result="effect1_dropShadow"/>
<feBlend mode="normal" in="SourceGraphic" in2="effect1_dropShadow" result="shape"/>
</filter>
<linearGradient id="paint0_linear" x1="44" y1="27" x2="59" y2="3" gradientUnits="userSpaceOnUse">
<stop stop-color="#FF6F48"/>
<stop offset="1" stop-color="#FF8B7B"/>
</linearGradient>
</defs>
</svg>
