<svg width="80" height="77" viewBox="0 0 80 77" fill="none" xmlns="http://www.w3.org/2000/svg">
<g filter="url(#filter0_d)">
<circle cx="40" cy="33" r="20" fill="#141323"/>
</g>
<path d="M35.0003 35.8301C35.1877 36.0163 35.4411 36.1209 35.7053 36.1209C35.9695 36.1209 36.2229 36.0163 36.4103 35.8301L40.0003 32.2901L43.5403 35.8301C43.7277 36.0163 43.9811 36.1208 44.2453 36.1208C44.5095 36.1208 44.7629 36.0163 44.9503 35.8301C45.044 35.7371 45.1184 35.6265 45.1692 35.5046C45.22 35.3828 45.2461 35.2521 45.2461 35.1201C45.2461 34.988 45.22 34.8573 45.1692 34.7355C45.1184 34.6136 45.044 34.503 44.9503 34.4101L40.7103 30.1701C40.6173 30.0763 40.5067 30.0019 40.3849 29.9512C40.263 29.9004 40.1323 29.8743 40.0003 29.8743C39.8683 29.8743 39.7376 29.9004 39.6157 29.9512C39.4939 30.0019 39.3833 30.0763 39.2903 30.1701L35.0003 34.4101C34.9066 34.503 34.8322 34.6136 34.7814 34.7355C34.7306 34.8573 34.7045 34.988 34.7045 35.1201C34.7045 35.2521 34.7306 35.3828 34.7814 35.5046C34.8322 35.6265 34.9066 35.7371 35.0003 35.8301Z" fill="white"/>
<defs>
<filter id="filter0_d" x="0" y="0" width="80" height="80" filterUnits="userSpaceOnUse" color-interpolation-filters="sRGB">
<feFlood flood-opacity="0" result="BackgroundImageFix"/>
<feColorMatrix in="SourceAlpha" type="matrix" values="0 0 0 0 0 0 0 0 0 0 0 0 0 0 0 0 0 0 127 0"/>
<feOffset dy="7"/>
<feGaussianBlur stdDeviation="10"/>
<feColorMatrix type="matrix" values="0 0 0 0 0.14902 0 0 0 0 0.141176 0 0 0 0 0.2 0 0 0 0.3 0"/>
<feBlend mode="normal" in2="BackgroundImageFix" result="effect1_dropShadow"/>
<feBlend mode="normal" in="SourceGraphic" in2="effect1_dropShadow" result="shape"/>
</filter>
</defs>
</svg>
