<svg width="100%" viewBox="0 0 40 40" fill="none" xmlns="http://www.w3.org/2000/svg">
<circle cx="20" cy="20" r="20" fill="#AFD3FB"/>
<path d="M15.0003 22.8301C15.1877 23.0163 15.4411 23.1209 15.7053 23.1209C15.9695 23.1209 16.2229 23.0163 16.4103 22.8301L20.0003 19.2901L23.5403 22.8301C23.7277 23.0163 23.9811 23.1208 24.2453 23.1208C24.5095 23.1208 24.7629 23.0163 24.9503 22.8301C25.044 22.7371 25.1184 22.6265 25.1692 22.5046C25.22 22.3828 25.2461 22.2521 25.2461 22.1201C25.2461 21.988 25.22 21.8573 25.1692 21.7355C25.1184 21.6136 25.044 21.503 24.9503 21.4101L20.7103 17.1701C20.6173 17.0763 20.5067 17.0019 20.3849 16.9512C20.263 16.9004 20.1323 16.8743 20.0003 16.8743C19.8683 16.8743 19.7376 16.9004 19.6157 16.9512C19.4939 17.0019 19.3833 17.0763 19.2903 17.1701L15.0003 21.4101C14.9066 21.503 14.8322 21.6136 14.7814 21.7355C14.7306 21.8573 14.7045 21.988 14.7045 22.1201C14.7045 22.2521 14.7306 22.3828 14.7814 22.5046C14.8322 22.6265 14.9066 22.7371 15.0003 22.8301Z" fill="white"/>
</svg>
