<svg xmlns="http://www.w3.org/2000/svg" xmlns:xlink="http://www.w3.org/1999/xlink" width="44" height="44" viewBox="0 0 44 44"><defs><radialGradient id="a" cx="0.622" cy="0.275" r="0.58" gradientTransform="matrix(0.542, -0.84, 0.84, 0.542, 0.054, 0.649)" gradientUnits="objectBoundingBox"><stop offset="0" stop-color="#fff"/><stop offset="1" stop-color="#e8e8e8"/></radialGradient></defs><circle cx="22" cy="22" r="22" fill="url(#a)"/><g transform="translate(7 7)"><rect width="30" height="30" fill="none"/><path d="M25.667,9.805h0l-8-6.836a4.078,4.078,0,0,0-5.333,0l-8,6.836A3.855,3.855,0,0,0,3,12.742V24.1A3.95,3.95,0,0,0,7,28H23a3.95,3.95,0,0,0,4-3.9V12.729a3.856,3.856,0,0,0-1.333-2.924Zm-8,15.6H12.333V18.9a1.317,1.317,0,0,1,1.333-1.3h2.667a1.317,1.317,0,0,1,1.333,1.3Zm6.667-1.3A1.317,1.317,0,0,1,23,25.4H20.333V18.9a3.95,3.95,0,0,0-4-3.9H13.667a3.95,3.95,0,0,0-4,3.9v6.5H7a1.317,1.317,0,0,1-1.333-1.3V12.729a1.286,1.286,0,0,1,.453-.975l8-6.823a1.359,1.359,0,0,1,1.76,0l8,6.823a1.286,1.286,0,0,1,.453.975Z" transform="translate(0 0.024)" fill="#141323"/><path d="M86.655,1266.856H81.7l-1.906-1.849v-13.534l11.243-8.755,10.9,8.755v13.534l-1.906,1.849H94.927v-8.877l-1.822-1.767H88.848l-1.822,1.767Z" transform="translate(-76 -1240)" fill="#141323" opacity="0"/></g></svg>