<svg xmlns="http://www.w3.org/2000/svg" fill="#fff" width="24" height="21.29" viewBox="0 0 24 21.29"><g transform="translate(-1.988 -3.121)" ><path d="M23.8,5.376a7.55,7.55,0,0,0-9.794-.768A7.526,7.526,0,0,0,4.211,15.987l7.454,7.466a3.337,3.337,0,0,0,4.681,0L23.8,15.987a7.526,7.526,0,0,0,0-10.611Z" fill="none" stroke="none"/><path d="M 9.517850875854492 6.620761871337891 C 8.341960906982422 6.620761871337891 7.228389739990234 7.130952835083008 6.462690353393555 8.02052116394043 C 5.796220779418945 8.794801712036133 5.451169967651367 9.783422470092773 5.491100311279297 10.80425262451172 C 5.531030654907227 11.82508182525635 5.952249526977539 12.78373241424561 6.677160263061523 13.5035924911499 L 6.682510375976563 13.50890254974365 L 6.687829971313477 13.51423168182373 L 14.00545024871826 20.84363174438477 L 21.31768035888672 13.51962947845459 C 22.87248229980469 11.95499229431152 22.87273597717285 9.409420013427734 21.31831550598145 7.84454345703125 C 20.55340003967285 7.07945442199707 19.53561401367188 6.658132553100586 18.4515495300293 6.658061981201172 C 17.58993911743164 6.658061981201172 16.76568031311035 6.927072525024414 16.06789016723633 7.436002731323242 L 13.98510074615479 8.95509147644043 L 11.9166202545166 7.416563034057617 C 11.21667098999023 6.895942687988281 10.3871898651123 6.620761871337891 9.517850875854492 6.620761871337891 M 9.517850875854492 3.120761871337891 C 11.08376312255859 3.120761871337891 12.66027736663818 3.607694625854492 14.00545024871826 4.608222961425781 C 15.33950233459473 3.635227203369141 16.89928245544434 3.157951354980469 18.45209121704102 3.158060073852539 C 20.40020370483398 3.158195495605469 22.3370361328125 3.909717559814453 23.79993057250977 5.376422882080078 C 26.71735000610352 8.311712265014648 26.71735000610352 13.0518217086792 23.79993057250977 15.98711204528809 L 16.34604072570801 23.4530029296875 C 15.69670581817627 24.0920524597168 14.85107803344727 24.41157722473145 14.00545024871826 24.41157722473145 C 13.15982246398926 24.41157722473145 12.31419563293457 24.0920524597168 11.66485977172852 23.4530029296875 L 4.210969924926758 15.98711204528809 C 1.409040451049805 13.20473194122314 1.234010696411133 8.729961395263672 3.810039520263672 5.737222671508789 C 5.292388916015625 4.015081405639648 7.39544677734375 3.120761871337891 9.517850875854492 3.120761871337891 Z" stroke="none" /></g></svg>