<svg xmlns="http://www.w3.org/2000/svg"  viewBox="0 0 26.187 27.667" fill="#141323">
  <path id="home-alt" d="M27.732,10.3h0L19,3.032a4.538,4.538,0,0,0-5.819,0L4.455,10.3A4.055,4.055,0,0,0,3,13.422V25.5a4.259,4.259,0,0,0,4.365,4.145H24.823A4.259,4.259,0,0,0,29.187,25.5V13.408A4.055,4.055,0,0,0,27.732,10.3ZM19,26.879H13.184V19.971a1.42,1.42,0,0,1,1.455-1.382h2.91A1.42,1.42,0,0,1,19,19.971ZM26.278,25.5a1.42,1.42,0,0,1-1.455,1.382h-2.91V19.971a4.259,4.259,0,0,0-4.365-4.145h-2.91a4.259,4.259,0,0,0-4.365,4.145v6.908H7.365A1.42,1.42,0,0,1,5.91,25.5V13.408A1.353,1.353,0,0,1,6.4,12.372l8.729-7.254a1.513,1.513,0,0,1,1.92,0l8.729,7.254a1.353,1.353,0,0,1,.495,1.036Z" transform="translate(-3 -1.976)" />
</svg>
