<svg width="48" height="48" viewBox="0 0 48 48" fill="none"
    xmlns="http://www.w3.org/2000/svg">
    <path d="M38.846 27.424C38.2399 27.4243 37.6587 27.6653 37.2302 28.094C36.8017 28.5226 36.561 29.1039 36.561 29.71V30.579L33.179 27.195C31.9852 26.0099 30.3712 25.3448 28.689 25.3448C27.0068 25.3448 25.3928 26.0099 24.199 27.195L22.599 28.795L16.932 23.125C15.7215 21.972 14.1138 21.3289 12.442 21.3289C10.7702 21.3289 9.16251 21.972 7.952 23.125L4.57 26.509V13.709C4.57 13.1029 4.81071 12.5216 5.2392 12.093C5.66769 11.6643 6.24889 11.4233 6.855 11.423H22.855C23.4614 11.423 24.043 11.1821 24.4718 10.7533C24.9006 10.3245 25.1415 9.74296 25.1415 9.13654C25.1415 8.53013 24.9006 7.94855 24.4718 7.51974C24.043 7.09094 23.4614 6.85004 22.855 6.85004H6.855C5.03693 6.85057 3.29349 7.5731 2.00802 8.85877C0.722539 10.1444 0.000265063 11.888 0 13.706V41.141C0.000795193 42.9588 0.723304 44.7018 2.00872 45.987C3.29414 47.2723 5.03728 47.9945 6.855 47.995H34.276C35.1765 47.9948 36.0681 47.8172 36.8999 47.4723C37.7317 47.1275 38.4875 46.6222 39.124 45.9853C39.7606 45.3483 40.2655 44.5923 40.6098 43.7603C40.9542 42.9282 41.1313 42.0365 41.131 41.136V29.71C41.131 29.1039 40.8903 28.5226 40.4618 28.094C40.0333 27.6653 39.4521 27.4243 38.846 27.424ZM6.855 43.424C6.24941 43.4238 5.66867 43.1832 5.24026 42.7552C4.81185 42.3272 4.5708 41.7466 4.57 41.141V32.979L11.197 26.349C11.5321 26.0279 11.9783 25.8486 12.4425 25.8486C12.9067 25.8486 13.3529 26.0279 13.688 26.349L20.931 33.595L30.757 43.426L6.855 43.424ZM36.561 41.138C36.5579 41.5757 36.4138 42.0008 36.15 42.35L25.844 31.995L27.444 30.395C27.6078 30.2277 27.8034 30.0948 28.0192 30.004C28.235 29.9133 28.4668 29.8665 28.701 29.8665C28.9352 29.8665 29.167 29.9133 29.3828 30.004C29.5986 30.0948 29.7942 30.2277 29.958 30.395L36.558 37.048L36.561 41.138ZM47.324 7.51004L40.469 0.652044C40.0305 0.23754 39.4499 0.0065918 38.8465 0.0065918C38.2431 0.0065918 37.6625 0.23754 37.224 0.652044L30.369 7.51004C29.9846 7.94912 29.7815 8.51787 29.8009 9.10109C29.8202 9.68431 30.0604 10.2384 30.473 10.6511C30.8856 11.0638 31.4396 11.3042 32.0228 11.3237C32.606 11.3432 33.1748 11.1403 33.614 10.756L36.561 7.78504V20.565C36.561 21.1711 36.8017 21.7523 37.2303 22.1808C37.6588 22.6093 38.24 22.85 38.846 22.85C39.452 22.85 40.0332 22.6093 40.4617 22.1808C40.8903 21.7523 41.131 21.1711 41.131 20.565V7.78504L44.079 10.757C44.2864 10.994 44.5403 11.1858 44.8249 11.3207C45.1095 11.4555 45.4187 11.5304 45.7335 11.5409C46.0482 11.5513 46.3618 11.4969 46.6547 11.3812C46.9475 11.2655 47.2136 11.0909 47.4362 10.8682C47.6588 10.6455 47.8334 10.3794 47.949 10.0865C48.0646 9.79358 48.1188 9.48003 48.1083 9.16529C48.0978 8.85055 48.0228 8.54132 47.8878 8.25677C47.7529 7.97221 47.561 7.7184 47.324 7.51104V7.51004Z" fill="#C4C4C4"/>
</svg>
