<svg xmlns="http://www.w3.org/2000/svg" xmlns:xlink="http://www.w3.org/1999/xlink" viewBox="0 0 213 213"><defs><radialGradient id="a" cx="0.609" cy="0.25" r="1.084" gradientTransform="matrix(-0.603, 0.798, -0.798, -0.603, 1.175, -0.086)" gradientUnits="objectBoundingBox"><stop offset="0" stop-color="#ffc1a1"/><stop offset="0.389" stop-color="#ff8d53"/><stop offset="1" stop-color="#ff1dac"/><stop offset="1"/></radialGradient><filter id="b" x="0" y="0" width="213" height="213" filterUnits="userSpaceOnUse"><feOffset dy="25" input="SourceAlpha"/><feGaussianBlur stdDeviation="17.5" result="c"/><feFlood flood-color="#ff3897" flood-opacity="0.302"/><feComposite operator="in" in2="c"/><feComposite in="SourceGraphic"/></filter></defs><g transform="translate(52.5 27.5)"><g transform="matrix(1, 0, 0, 1, -52.5, -27.5)" filter="url(#b)"><circle cx="54" cy="54" r="54" transform="translate(52.5 27.5)" fill="url(#a)"/></g><g transform="translate(30 30)" fill="#fff" stroke="#707070" stroke-width="1" opacity="0"><rect width="48" height="48" stroke="none"/><rect x="0.5" y="0.5" width="47" height="47" fill="none"/></g><path d="M32.166,25.561a13.225,13.225,0,1,0-16.368,0A22,22,0,0,0,2.077,43.551a2.219,2.219,0,0,0,4.412.484,17.653,17.653,0,0,1,35.074,0,2.2,2.2,0,0,0,2.206,1.957h.243a2.2,2.2,0,0,0,1.941-2.419A22,22,0,0,0,32.166,25.561ZM23.982,24a8.8,8.8,0,1,1,8.824-8.8A8.81,8.81,0,0,1,23.982,24Z" transform="translate(29.936 30.005)" fill="#fff"/></g></svg>