<svg width="166" height="166" viewBox="0 0 166 166" fill="none" xmlns="http://www.w3.org/2000/svg">
<g filter="url(#filter0_d)">
<path d="M83 111C56.5327 111 35 89.4673 35 63C35 36.5327 56.5327 15 83 15C109.467 15 131 36.5327 131 63C131 89.4673 109.467 111 83 111Z" fill="#8AC1FF"/>
<path d="M83.0051 21.7605C60.2655 21.7605 41.7656 40.2604 41.7656 63C41.7656 85.7396 60.2655 104.24 83.0051 104.24C105.745 104.24 124.245 85.7396 124.245 63C124.245 40.2604 105.745 21.7605 83.0051 21.7605Z" fill="#469DFF"/>
<path d="M38.8634 63C38.8634 37.1799 59.3568 16.0599 84.9318 15.0422C84.2906 15.0167 83.6473 15 83 15C56.5327 15 35 36.5327 35 63C35 89.4673 56.5327 111 83 111C83.6473 111 84.2906 110.983 84.9316 110.958C59.3568 109.94 38.8634 88.8201 38.8634 63Z" fill="#3E8EE8"/>
<path d="M45.6291 63C45.6291 40.908 63.0908 22.8197 84.9368 21.8072C84.2964 21.7776 83.6526 21.7605 83.0051 21.7605C60.2655 21.7605 41.7656 40.2604 41.7656 63C41.7656 85.7396 60.2655 104.24 83.0051 104.24C83.6528 104.24 84.2964 104.223 84.9368 104.193C63.0908 103.18 45.6291 85.092 45.6291 63Z" fill="#3E8EE8"/>
<path d="M83.0238 77.9678C84.8951 77.9678 86.4759 79.525 86.4759 81.3679C86.4759 83.1866 84.8951 84.7232 83.0238 84.7232C81.098 84.7232 79.5312 83.218 79.5312 81.3679C79.5312 79.5248 81.1306 77.9678 83.0238 77.9678Z" fill="#F3F7FF"/>
<path d="M83.0239 72.7183C81.087 72.7183 79.7344 71.4671 79.7344 69.6756V44.3788C79.7344 42.8807 81.0563 41.2766 83.0239 41.2766C84.7978 41.2766 86.3541 42.7264 86.3541 44.3788V69.6756C86.3541 71.4386 84.9536 72.7183 83.0239 72.7183Z" fill="#F3F7FF"/>
<path d="M83.3906 81.3679C83.3906 80.2185 84.0129 79.1807 84.9403 78.562C84.3871 78.1886 83.7241 77.9678 83.0199 77.9678C81.1267 77.9678 79.5273 79.525 79.5273 81.3679C79.5273 83.2181 81.0941 84.7234 83.0199 84.7234C83.7185 84.7234 84.3763 84.5089 84.9268 84.1459C84.0003 83.5418 83.3906 82.5221 83.3906 81.3679Z" fill="#D8DCE5"/>
<path d="M83.5939 69.6756V44.3788C83.5939 43.4545 84.0983 42.4911 84.9458 41.8878C84.3936 41.5082 83.725 41.2766 83.02 41.2766C81.0523 41.2766 79.7305 42.8807 79.7305 44.3788V69.6756C79.7305 71.4671 81.0831 72.7183 83.02 72.7183C83.7576 72.7183 84.4167 72.5302 84.951 72.2009C84.1069 71.6729 83.5939 70.777 83.5939 69.6756Z" fill="#D8DCE5"/>
</g>
<defs>
<filter id="filter0_d" x="0" y="0" width="166" height="166" filterUnits="userSpaceOnUse" color-interpolation-filters="sRGB">
<feFlood flood-opacity="0" result="BackgroundImageFix"/>
<feColorMatrix in="SourceAlpha" type="matrix" values="0 0 0 0 0 0 0 0 0 0 0 0 0 0 0 0 0 0 127 0"/>
<feOffset dy="20"/>
<feGaussianBlur stdDeviation="17.5"/>
<feColorMatrix type="matrix" values="0 0 0 0 0.541176 0 0 0 0 0.756863 0 0 0 0 1 0 0 0 0.4 0"/>
<feBlend mode="normal" in2="BackgroundImageFix" result="effect1_dropShadow"/>
<feBlend mode="normal" in="SourceGraphic" in2="effect1_dropShadow" result="shape"/>
</filter>
</defs>
</svg>
