<svg width="24" height="24" viewBox="0 0 24 24" fill="none" xmlns="http://www.w3.org/2000/svg">
<g clip-path="url(#clip0)">
<path d="M20.002 20.0039H19.002L19.002 13.0039C19.002 12.7387 18.8966 12.4843 18.7091 12.2968C18.5215 12.1093 18.2672 12.0039 18.002 12.0039L11.002 12.0039L11.002 11.0039C11.002 10.7387 10.8966 10.4843 10.7091 10.2968C10.5215 10.1093 10.2672 10.0039 10.002 10.0039C9.73674 10.0039 9.48238 10.1093 9.29485 10.2968C9.10731 10.4843 9.00195 10.7387 9.00195 11.0039L9.00195 12.0039L8.00195 12.0039C7.73674 12.0039 7.48238 12.1093 7.29485 12.2968C7.10731 12.4843 7.00195 12.7387 7.00195 13.0039C7.00195 13.2691 7.10731 13.5235 7.29485 13.711C7.48238 13.8985 7.73674 14.0039 8.00195 14.0039L9.00195 14.0039L9.00195 21.0039C9.00195 21.2691 9.10731 21.5235 9.29485 21.711C9.48238 21.8986 9.73674 22.0039 10.002 22.0039L17.002 22.0039V23.0039C17.002 23.2691 17.1073 23.5235 17.2948 23.711C17.4824 23.8986 17.7367 24.0039 18.002 24.0039C18.2672 24.0039 18.5215 23.8986 18.7091 23.711C18.8966 23.5235 19.002 23.2691 19.002 23.0039V22.0039H20.002C20.2672 22.0039 20.5215 21.8986 20.7091 21.711C20.8966 21.5235 21.002 21.2691 21.002 21.0039C21.002 20.7387 20.8966 20.4843 20.7091 20.2968C20.5215 20.1093 20.2672 20.0039 20.002 20.0039ZM17.002 20.0039L11.002 20.0039L11.002 14.0039L17.002 14.0039L17.002 20.0039Z" fill="#262433"/>
<path fill-rule="evenodd" clip-rule="evenodd" d="M6.00195 6L16.002 6C16.5542 6 17.002 6.44772 17.002 7L17.002 10L19.002 10L19.002 7C19.002 5.34315 17.6588 4 16.002 4L6.00195 4C4.3451 4 3.00195 5.34315 3.00195 7L3.00195 19C3.00195 20.6569 4.3451 22 6.00195 22L7.00195 22L7.00195 20H6.00195C5.44967 20 5.00195 19.5523 5.00195 19L5.00195 7C5.00195 6.44772 5.44967 6 6.00195 6Z" fill="#262433"/>
</g>
<defs>
<clipPath id="clip0">
<rect width="24" height="24" fill="white"/>
</clipPath>
</defs>
</svg>
