<svg xmlns="http://www.w3.org/2000/svg" xmlns:xlink="http://www.w3.org/1999/xlink" width="100%"  viewBox="0 0 213 213">
  <defs>
      <style type="text/css"><![CDATA[
        @keyframes myanim {
          0% { transform : rotate(0deg);transform-origin : 20% 25% }
          25% { transform : rotate(90deg);transform-origin : 20% 25% }
          50% { transform : rotate(180deg);transform-origin : 20% 25% }
          75% { transform : rotate(270deg); transform-origin : 20% 25%}
          100% { transform : rotate(360deg);transform-origin : 20% 25% }
        }
        .test {
          animation: myanim 10s linear infinite;
        }
      ]]></style>
    <radialGradient id="radial-gradient" cx="0.609" cy="0.25" r="1.084" gradientTransform="matrix(-0.603, 0.798, -0.798, -0.603, 1.175, -0.086)" gradientUnits="objectBoundingBox">
      <stop offset="0" stop-color="#ffc1a1"/>
      <stop offset="0.389" stop-color="#ff8d53"/>
      <stop offset="1" stop-color="#ff1dac"/>
      <stop offset="1"/>
    </radialGradient>
    <filter id="Ellipse_4098" x="0" y="0" width="213" height="213" filterUnits="userSpaceOnUse">
      <feOffset dy="25" input="SourceAlpha"/>
      <feGaussianBlur stdDeviation="17.5" result="blur"/>
      <feFlood flood-color="#ff3897" flood-opacity="0.302"/>
      <feComposite operator="in" in2="blur"/>
      <feComposite in="SourceGraphic"/>
    </filter>
  </defs>
  <g id="Component_25_1" data-name="Component 25 – 1" transform="translate(52.5 27.5)">
    <g transform="matrix(1, 0, 0, 1, -52.5, -27.5)" filter="url(#Ellipse_4098)">
      <circle id="Ellipse_4098-2" data-name="Ellipse 4098" cx="54" cy="54" r="54" transform="translate(52.5 27.5)" fill="url(#radial-gradient)"/>
    </g>
      <g>
        <path class='test' id="lock-alt" d="M25.333,31.333A2.667,2.667,0,0,0,22.667,34v8A2.667,2.667,0,1,0,28,42V34A2.667,2.667,0,0,0,25.333,31.333ZM38.667,20.667V15.333a13.333,13.333,0,1,0-26.667,0v5.333a8,8,0,0,0-8,8V47.333a8,8,0,0,0,8,8H38.667a8,8,0,0,0,8-8V28.667A8,8,0,0,0,38.667,20.667ZM17.333,15.333a8,8,0,1,1,16,0v5.333h-16Zm24,32A2.667,2.667,0,0,1,38.667,50H12a2.667,2.667,0,0,1-2.667-2.667V28.667A2.667,2.667,0,0,1,12,26H38.667a2.667,2.667,0,0,1,2.667,2.667Z" transform="translate(28.667 25.333)" fill="#fff"/>
      </g>
  </g>
</svg>
