<svg xmlns="http://www.w3.org/2000/svg" width="42.667" height="53.333" viewBox="0 0 42.667 53.333"><path d="M25.333,31.333A2.667,2.667,0,0,0,22.667,34v8A2.667,2.667,0,1,0,28,42V34A2.667,2.667,0,0,0,25.333,31.333ZM38.667,20.667V15.333A13.483,13.483,0,0,0,35.426,6.62,13.145,13.145,0,0,0,25.333,2,13.333,13.333,0,0,0,12,15.333v5.333a8,8,0,0,0-8,8V47.333a8,8,0,0,0,8,8H38.667a8,8,0,0,0,8-8V28.667A8,8,0,0,0,38.667,20.667ZM17.333,15.333a8,8,0,1,1,16,0v5.333h-16Zm24,32A2.667,2.667,0,0,1,38.667,50H12a2.667,2.667,0,0,1-2.667-2.667V28.667A2.667,2.667,0,0,1,12,26H38.667a2.667,2.667,0,0,1,2.667,2.667Z" transform="translate(-4 -2)" fill="#fff"/></svg>