<svg width="75" height="38" viewBox="0 0 75 38" fill="none" xmlns="http://www.w3.org/2000/svg">
<g opacity="0.5">
<path d="M35.331 32.9283H33.1L33.1584 31.7822C32.8828 32.2433 32.4885 32.6213 32.0169 32.8762C31.5212 33.127 30.9696 33.2458 30.415 33.2213C29.9179 33.2453 29.4224 33.1484 28.9707 32.9386C28.519 32.7289 28.1245 32.4126 27.8208 32.0167C27.1353 31.1124 26.7907 29.9936 26.848 28.8585C26.7899 27.7122 27.1419 26.5828 27.8402 25.6741C28.1771 25.2958 28.593 24.9969 29.0583 24.7988C29.5236 24.6007 30.0267 24.5082 30.5317 24.528C31.0741 24.5114 31.6099 24.6516 32.0753 24.9317C32.5506 25.2341 32.9413 25.6533 33.2103 26.1495V24.8471H35.3829V32.9281L35.331 32.9283ZM33.2103 28.93C33.2447 28.3124 33.0635 27.7021 32.6979 27.2043C32.5099 26.997 32.2804 26.8318 32.0245 26.7196C31.7686 26.6074 31.492 26.5507 31.2127 26.5531C30.9343 26.5561 30.6593 26.6153 30.4041 26.7272C30.1489 26.8391 29.9188 27.0014 29.7274 27.2044C29.5292 27.4419 29.3811 27.7173 29.2919 28.0139C29.2028 28.3105 29.1744 28.6222 29.2086 28.9301C29.1741 29.5476 29.3553 30.1579 29.721 30.6556C30.1202 31.0435 30.6539 31.2604 31.2094 31.2604C31.765 31.2604 32.2987 31.0435 32.6979 30.6556C33.0808 30.1667 33.264 29.5497 33.2103 28.93Z" fill="#141323"/>
<path d="M43.2897 26.9776C43.4605 26.2978 43.8178 25.6796 44.3208 25.1934C44.7673 24.8124 45.3371 24.6086 45.9228 24.6204C46.1498 24.6204 46.4352 24.679 46.6686 24.679H46.8308L46.4871 27.2056L45.9747 27.0363C45.7884 26.9885 45.5961 26.9688 45.404 26.9777C45.1248 26.9434 44.8416 26.9717 44.5746 27.0607C44.3077 27.1497 44.0638 27.297 43.8604 27.4921C43.5096 28.0366 43.3476 28.6821 43.3996 29.3285V32.8905H41.0586V24.8289H43.348L43.2897 26.9776Z" fill="#141323"/>
<path d="M51.2969 22.8226C51.2989 22.6643 51.3468 22.5101 51.4348 22.3788C51.5228 22.2475 51.647 22.1448 51.7923 22.0833C51.9375 22.0217 52.0974 22.0041 52.2525 22.0325C52.4076 22.0609 52.5511 22.134 52.6653 22.243C52.7474 22.3123 52.8111 22.4008 52.8507 22.5008C52.8903 22.6008 52.9046 22.7091 52.8923 22.816C52.8902 22.975 52.8418 23.1299 52.753 23.2616C52.6642 23.3932 52.5389 23.4959 52.3927 23.5568C52.2464 23.6178 52.0856 23.6344 51.93 23.6046C51.7745 23.5747 51.631 23.4998 51.5174 23.389C51.3972 23.2221 51.3213 23.0272 51.297 22.8227L51.2969 22.8226ZM51.5823 32.9355V25.6357H52.6135V32.929L51.5823 32.9355Z" fill="#141323"/>
<path d="M57.6465 32.9288L61.7064 26.5537H57.9319V25.6355H63.4251L59.417 32.0106H63.5354V32.9288H57.6465Z" fill="#141323"/>
<path d="M74.932 29.3136H69.1534C69.1561 30.1062 69.3956 30.8798 69.8409 31.5342C70.0622 31.7888 70.3353 31.9927 70.6419 32.132C70.9485 32.2713 71.2814 32.3428 71.6179 32.3417C72.1345 32.3578 72.6408 32.1943 73.0512 31.879C73.4994 31.5398 73.8543 31.0918 74.0825 30.5769L74.997 31.0915C74.722 31.7771 74.2415 32.3597 73.622 32.7588C73.0238 33.136 72.323 33.3159 71.6179 33.2733C71.1314 33.2982 70.6455 33.2128 70.1964 33.0233C69.7473 32.8338 69.3465 32.5452 69.0238 32.1789C68.6836 31.7984 68.4223 31.3536 68.2552 30.8706C68.0881 30.3876 68.0185 29.876 68.0506 29.3657C67.9948 28.3184 68.3432 27.2899 69.0234 26.4939C69.3419 26.1222 69.742 25.8299 70.1923 25.6401C70.6426 25.4503 71.1306 25.3681 71.6179 25.4C72.0707 25.3795 72.5223 25.462 72.939 25.6413C73.3556 25.8206 73.7265 26.092 74.024 26.4354C74.6608 27.1862 74.9879 28.1529 74.9385 29.1378L74.932 29.3136ZM73.7323 28.4541C73.7345 28.1615 73.6742 27.8718 73.5557 27.6044C73.4371 27.3371 73.2629 27.0984 73.0448 26.9042C72.5985 26.5233 72.0288 26.3195 71.4431 26.3312C70.8734 26.3102 70.3186 26.5162 69.8995 26.9042C69.4747 27.3149 69.2102 27.8647 69.1537 28.4541H73.7323Z" fill="#141323"/>
<path d="M19.2282 35.4773C19.2282 35.7198 19.1806 35.9599 19.0882 36.1839C18.9958 36.4078 18.8604 36.6114 18.6896 36.7828C18.5189 36.9542 18.3162 37.0902 18.0931 37.183C17.87 37.2758 17.6309 37.3235 17.3894 37.3235C17.148 37.3235 16.9089 37.2758 16.6858 37.183C16.4627 37.0902 16.26 36.9542 16.0893 36.7828C15.9185 36.6113 15.7831 36.4078 15.6907 36.1838C15.5983 35.9598 15.5508 35.7198 15.5508 35.4773V35.2619C16.6993 34.3571 17.6269 33.201 18.263 31.8817C18.8991 30.5624 19.2269 29.1147 19.2214 27.6489" fill="url(#paint0_linear)"/>
<g style="mix-blend-mode:multiply" opacity="0.7">
<path d="M19.2221 27.6741L15.5508 34.5802V35.5345C15.557 35.6878 15.5807 35.8399 15.6215 35.9878C18.4269 33.78 19.2221 30.6685 19.2221 27.6741Z" fill="black"/>
</g>
<path d="M15.5689 19.8706V20.086C13.7754 18.6634 11.5341 17.9321 9.25038 18.0244C6.90846 18.1882 4.69921 19.1764 3.01171 20.8151C1.3242 22.4537 0.266694 24.6377 0.02542 26.9824C-0.0684794 28.2761 0.0983638 29.5755 0.515977 30.803C0.93359 32.0305 1.5934 33.1608 2.45597 34.1264C3.31854 35.0921 4.36615 35.8732 5.5362 36.4231C6.70625 36.973 7.97471 37.2804 9.26577 37.3269C10.5568 37.3734 11.844 37.1581 13.0503 36.6938C14.2565 36.2295 15.3572 35.5258 16.2865 34.6247C17.2158 33.7236 17.9546 32.6437 18.4587 31.4494C18.9629 30.2551 19.2221 28.971 19.2208 27.6739V19.8706C19.2208 19.3853 19.0306 18.9195 18.6912 18.574C18.3518 18.2285 17.8906 18.0311 17.4074 18.0244C17.1659 18.0244 16.9268 18.0721 16.7037 18.1649C16.4806 18.2577 16.278 18.3937 16.1072 18.5651C15.9365 18.7366 15.801 18.9401 15.7087 19.1641C15.6163 19.3881 15.5687 19.6281 15.5687 19.8706H15.5689ZM12.4538 25.8217C12.4455 25.8816 12.4251 25.9391 12.3939 25.9908C12.3626 26.0426 12.3211 26.0873 12.272 26.1223C12.2229 26.1574 12.1672 26.182 12.1083 26.1947C12.0494 26.2073 11.9886 26.2078 11.9295 26.196C11.7691 26.1652 11.6062 26.1503 11.4429 26.1515C11.2005 26.1284 10.9561 26.159 10.7268 26.2413C10.4975 26.3235 10.289 26.4553 10.1161 26.6274C9.80357 27.0936 9.66074 27.6538 9.71168 28.2134V30.8589C9.71168 30.9734 9.66641 31.0831 9.58583 31.164C9.50525 31.2449 9.39596 31.2904 9.28201 31.2904H8.11304C7.99909 31.2904 7.8898 31.2449 7.80922 31.164C7.72864 31.0831 7.68337 30.9734 7.68337 30.8589V24.7244C7.68337 24.61 7.72864 24.5002 7.80922 24.4193C7.8898 24.3384 7.99909 24.293 8.11304 24.293H9.23775C9.29525 24.2929 9.35218 24.3045 9.40515 24.327C9.45812 24.3494 9.50606 24.3824 9.54613 24.4238C9.5862 24.4652 9.61758 24.5143 9.63841 24.5681C9.65925 24.6219 9.66911 24.6793 9.66742 24.7371L9.63564 26.0947C9.78175 25.5151 10.0859 24.9878 10.5139 24.5721C10.9052 24.2299 11.4107 24.0486 11.9294 24.0644L12.2579 24.0963C12.3145 24.1033 12.3692 24.1216 12.4187 24.1501C12.4683 24.1785 12.5116 24.2166 12.5463 24.2621C12.581 24.3076 12.6064 24.3595 12.6209 24.415C12.6353 24.4704 12.6387 24.5281 12.6307 24.5849L12.4538 25.8217Z" fill="url(#paint1_linear)"/>
<path d="M0.71 2.88H3.94C4.72667 2.88 5.33667 3.07 5.77 3.45C6.21 3.83 6.43 4.34667 6.43 5C6.43 5.64667 6.21 6.16333 5.77 6.55C5.33 6.93 4.72 7.12 3.94 7.12H2.27V10H0.71V2.88ZM3.74 5.93C4.55333 5.93 4.96 5.62333 4.96 5.01C4.96 4.39 4.55333 4.08 3.74 4.08H2.27V5.93H3.74ZM9.58273 10.08C9.04273 10.08 8.5694 9.97333 8.16273 9.76C7.76273 9.54667 7.45273 9.24 7.23273 8.84C7.0194 8.44 6.91273 7.97333 6.91273 7.44C6.91273 6.90667 7.0194 6.44 7.23273 6.04C7.45273 5.64 7.76273 5.33333 8.16273 5.12C8.5694 4.90667 9.04273 4.8 9.58273 4.8C10.1161 4.8 10.5827 4.90667 10.9827 5.12C11.3827 5.33333 11.6894 5.64 11.9027 6.04C12.1227 6.44 12.2327 6.90667 12.2327 7.44C12.2327 7.97333 12.1227 8.44 11.9027 8.84C11.6894 9.24 11.3827 9.54667 10.9827 9.76C10.5827 9.97333 10.1161 10.08 9.58273 10.08ZM9.58273 8.93C9.95607 8.93 10.2394 8.80667 10.4327 8.56C10.6327 8.31333 10.7327 7.94 10.7327 7.44C10.7327 6.94667 10.6327 6.57667 10.4327 6.33C10.2394 6.07667 9.95607 5.95 9.58273 5.95C9.20273 5.95 8.91273 6.07667 8.71273 6.33C8.51273 6.57667 8.41273 6.94667 8.41273 7.44C8.41273 8.43333 8.80273 8.93 9.58273 8.93ZM21.3902 4.93L19.3402 10H18.0702L16.9202 7.06L15.8202 10H14.5402L12.4902 4.93H14.0302L15.2502 8.2L16.4602 4.93H17.4902L18.7102 8.23L19.9302 4.93H21.3902ZM26.4588 7.59H23.1188C23.1455 8.06333 23.2688 8.41 23.4888 8.63C23.7088 8.84333 24.0355 8.95 24.4688 8.95C24.7288 8.95 24.9888 8.90667 25.2488 8.82C25.5088 8.73333 25.7488 8.60667 25.9688 8.44L26.3688 9.46C26.1288 9.65333 25.8288 9.80667 25.4688 9.92C25.1155 10.0267 24.7588 10.08 24.3988 10.08C23.5455 10.08 22.8755 9.84667 22.3888 9.38C21.9022 8.90667 21.6588 8.26333 21.6588 7.45C21.6588 6.93667 21.7622 6.48 21.9688 6.08C22.1822 5.67333 22.4788 5.36 22.8588 5.14C23.2388 4.91333 23.6688 4.8 24.1488 4.8C24.8622 4.8 25.4255 5.03333 25.8388 5.5C26.2522 5.96 26.4588 6.58333 26.4588 7.37V7.59ZM24.1888 5.86C23.9022 5.86 23.6688 5.94333 23.4888 6.11C23.3155 6.27667 23.2022 6.52 23.1488 6.84H25.1588C25.0788 6.18667 24.7555 5.86 24.1888 5.86ZM30.3569 4.81C30.5702 4.81 30.7502 4.84333 30.8969 4.91L30.8869 6.29C30.6402 6.17667 30.3935 6.12 30.1469 6.12C29.7469 6.12 29.4402 6.23 29.2269 6.45C29.0202 6.66333 28.9169 6.96333 28.9169 7.35V10H27.4069V6.38C27.4069 5.84 27.3802 5.35667 27.3269 4.93H28.7469L28.8469 5.8C28.9735 5.48 29.1702 5.23667 29.4369 5.07C29.7102 4.89667 30.0169 4.81 30.3569 4.81ZM35.9608 7.59H32.6208C32.6474 8.06333 32.7708 8.41 32.9908 8.63C33.2108 8.84333 33.5374 8.95 33.9708 8.95C34.2308 8.95 34.4908 8.90667 34.7508 8.82C35.0108 8.73333 35.2508 8.60667 35.4708 8.44L35.8708 9.46C35.6308 9.65333 35.3308 9.80667 34.9708 9.92C34.6174 10.0267 34.2608 10.08 33.9008 10.08C33.0474 10.08 32.3774 9.84667 31.8908 9.38C31.4041 8.90667 31.1608 8.26333 31.1608 7.45C31.1608 6.93667 31.2641 6.48 31.4708 6.08C31.6841 5.67333 31.9808 5.36 32.3608 5.14C32.7408 4.91333 33.1708 4.8 33.6508 4.8C34.3641 4.8 34.9274 5.03333 35.3408 5.5C35.7541 5.96 35.9608 6.58333 35.9608 7.37V7.59ZM33.6908 5.86C33.4041 5.86 33.1708 5.94333 32.9908 6.11C32.8174 6.27667 32.7041 6.52 32.6508 6.84H34.6608C34.5808 6.18667 34.2574 5.86 33.6908 5.86ZM41.9888 2.64V10H40.4988V9.25C40.3455 9.51 40.1288 9.71333 39.8488 9.86C39.5688 10.0067 39.2522 10.08 38.8988 10.08C38.4655 10.08 38.0788 9.97 37.7388 9.75C37.3988 9.52333 37.1322 9.21 36.9388 8.81C36.7522 8.40333 36.6588 7.94 36.6588 7.42C36.6588 6.9 36.7522 6.44333 36.9388 6.05C37.1322 5.65 37.3955 5.34333 37.7288 5.13C38.0688 4.91 38.4588 4.8 38.8988 4.8C39.2388 4.8 39.5488 4.87333 39.8288 5.02C40.1088 5.16 40.3255 5.35667 40.4788 5.61V2.64H41.9888ZM39.3388 8.93C39.7122 8.93 39.9988 8.80333 40.1988 8.55C40.3988 8.29 40.4988 7.92 40.4988 7.44C40.4988 6.96667 40.3955 6.60333 40.1888 6.35C39.9888 6.09 39.7055 5.96 39.3388 5.96C38.9655 5.96 38.6755 6.08667 38.4688 6.34C38.2622 6.59333 38.1588 6.95333 38.1588 7.42C38.1588 7.9 38.2622 8.27333 38.4688 8.54C38.6755 8.8 38.9655 8.93 39.3388 8.93ZM50.6902 6.32C51.1035 6.44 51.4235 6.65 51.6502 6.95C51.8768 7.25 51.9902 7.61667 51.9902 8.05C51.9902 8.65 51.7668 9.12667 51.3202 9.48C50.8735 9.82667 50.2668 10 49.5002 10H46.1202V2.88H49.4002C50.1402 2.88 50.7235 3.04667 51.1502 3.38C51.5835 3.70667 51.8002 4.15667 51.8002 4.73C51.8002 5.10333 51.7002 5.43 51.5002 5.71C51.3068 5.99 51.0368 6.19333 50.6902 6.32ZM47.6402 5.78H49.1402C49.5402 5.78 49.8368 5.71333 50.0302 5.58C50.2302 5.44 50.3302 5.22667 50.3302 4.94C50.3302 4.64667 50.2302 4.43 50.0302 4.29C49.8368 4.15 49.5402 4.08 49.1402 4.08H47.6402V5.78ZM49.3202 8.8C49.7402 8.8 50.0435 8.73 50.2302 8.59C50.4235 8.44333 50.5202 8.21333 50.5202 7.9C50.5202 7.58 50.4235 7.34667 50.2302 7.2C50.0435 7.05333 49.7402 6.98 49.3202 6.98H47.6402V8.8H49.3202ZM57.983 4.93L55.643 10.27C55.3564 10.9167 54.993 11.39 54.553 11.69C54.1197 11.9967 53.5864 12.1933 52.953 12.28L52.603 11.12C53.0697 11.02 53.4197 10.8933 53.653 10.74C53.893 10.5867 54.0797 10.3633 54.213 10.07L54.363 9.74L52.273 4.93H53.853L55.153 8.22L56.493 4.93H57.983Z" fill="black"/>
</g>
<defs>
<linearGradient id="paint0_linear" x1="17.3895" y1="27.6489" x2="17.3895" y2="37.3235" gradientUnits="userSpaceOnUse">
<stop stop-color="#141323"/>
<stop offset="1" stop-color="#2E2D43"/>
</linearGradient>
<linearGradient id="paint1_linear" x1="9.61038" y1="18.0166" x2="9.61038" y2="37.3331" gradientUnits="userSpaceOnUse">
<stop stop-color="#141323"/>
<stop offset="1" stop-color="#2E2D43"/>
</linearGradient>
</defs>
</svg>
