<svg width="124" height="180" viewBox="0 0 124 180" fill="none" xmlns="http://www.w3.org/2000/svg">
<g clip-path="url(#clip0)">
<g clip-path="url(#clip1)">
<path fill-rule="evenodd" clip-rule="evenodd" d="M0 144.081L62.2047 108.137L124.373 144.056L62.168 180L0 144.081Z" fill="#FFD4C9"/>
<path fill-rule="evenodd" clip-rule="evenodd" d="M0 35.9071L62.1925 0V108.149L0 144.056V35.9071Z" fill="#FFF0EC"/>
<path fill-rule="evenodd" clip-rule="evenodd" d="M124.373 144.056L62.1924 108.149V0L124.385 35.9071L124.373 144.056Z" fill="#FFE5DE"/>
<path d="M48.3773 115.851L82.3649 135.327L52.204 152.969L18.2163 133.493L48.3773 115.851Z" fill="#C0C0C0"/>
<path d="M24.4516 86.4606C24.4419 86.5255 24.4419 86.5914 24.4516 86.6562C24.4762 86.7213 24.5091 86.783 24.5494 86.8396C24.5955 86.9028 24.6488 86.9602 24.7084 87.0108L24.8428 87.1086L24.9651 87.1942L26.4566 88.0622V90.5807L24.9651 89.7127L24.8673 89.6393L24.7328 89.5415L24.6106 89.407L24.4516 89.2481V89.1748C24.4484 89.1382 24.4484 89.1013 24.4516 89.0647V86.5707V86.4606Z" fill="#D2E7FF"/>
<path d="M75.3719 96.2413C75.5276 96.1705 75.6617 96.0596 75.7605 95.92C75.8593 95.7804 75.9193 95.617 75.9343 95.4466V97.9651C75.9182 98.1368 75.8564 98.301 75.7553 98.4408C75.6543 98.5805 75.5177 98.6907 75.3597 98.7598L59.2461 108.076V105.557L75.3719 96.2413Z" fill="#D2E7FF"/>
<path d="M56.5196 105.557C56.6402 105.626 56.7671 105.684 56.8986 105.728H58.5246L58.7936 105.643L59.087 105.508V108.076L58.8058 108.21H56.9353C56.804 108.165 56.6771 108.108 56.5563 108.039L54.2456 106.694V104.212L56.5196 105.557Z" fill="#D2E7FF"/>
<path d="M25.0017 85.666C24.8362 85.7212 24.6924 85.8271 24.5904 85.9686C24.4885 86.1101 24.4336 86.2801 24.4336 86.4545C24.4336 86.6289 24.4885 86.799 24.5904 86.9405C24.6924 87.082 24.8362 87.1879 25.0017 87.2431L26.4932 88.1111L54.1968 104.212L56.5075 105.557C56.9295 105.773 57.3967 105.885 57.8706 105.885C58.3446 105.885 58.8118 105.773 59.2338 105.557L75.3718 96.2413C75.5373 96.186 75.6812 96.0801 75.7831 95.9386C75.8851 95.7971 75.9399 95.6271 75.9399 95.4527C75.9399 95.2783 75.8851 95.1083 75.7831 94.9668C75.6812 94.8252 75.5373 94.7194 75.3718 94.6641L43.8538 76.3255C43.4318 76.1098 42.9646 75.9973 42.4906 75.9973C42.0167 75.9973 41.5495 76.1098 41.1275 76.3255L25.0017 85.666Z" fill="#8AC1FF"/>
<path d="M26.4932 88.1111L54.209 104.212L73.0733 93.3193L45.3575 77.218L26.4932 88.1111Z" fill="#0078FF"/>
<path d="M31.2735 83.4164C31.0779 83.5387 31.0656 83.771 31.3591 83.9299C31.4566 83.9962 31.5689 84.0375 31.6861 84.0503C31.8034 84.0631 31.9219 84.0469 32.0315 84.0033L37.8998 80.6901C38.1077 80.5678 37.8998 80.2988 37.6431 80.1766C37.5311 80.1206 37.4076 80.0915 37.2824 80.0915C37.1572 80.0915 37.0338 80.1206 36.9218 80.1766L31.2735 83.4164Z" fill="#0078FF"/>
<path d="M31.4444 83.5632C31.3964 83.5747 31.3537 83.6021 31.3231 83.6409C31.2925 83.6797 31.2759 83.7277 31.2759 83.7771C31.2759 83.8265 31.2925 83.8745 31.3231 83.9133C31.3537 83.9521 31.3964 83.9795 31.4444 83.9911C31.5583 84.0481 31.6839 84.0778 31.8112 84.0778C31.9385 84.0778 32.0641 84.0481 32.178 83.9911L37.8141 80.6901C37.8621 80.6785 37.9048 80.6512 37.9354 80.6123C37.966 80.5735 37.9826 80.5256 37.9826 80.4762C37.9826 80.4267 37.966 80.3788 37.9354 80.34C37.9048 80.3012 37.8621 80.2738 37.8141 80.2622C37.7021 80.2063 37.5786 80.1771 37.4534 80.1771C37.3282 80.1771 37.2047 80.2063 37.0927 80.2622L31.4444 83.5632Z" fill="#68AFFF"/>
<path d="M26.4932 88.1111V90.6296L54.209 106.731V104.212L26.4932 88.1111Z" fill="#0052B4"/>
<path d="M61.6055 84.6024C60.8332 83.7124 59.9821 82.894 59.0625 82.1572C58.4879 81.9005 56.1039 80.7512 54.1722 81.7171C53.133 82.2306 54.3678 82.8174 56.0183 83.282C56.4391 83.3123 56.8449 83.4509 57.1962 83.6844C57.5475 83.9179 57.8325 84.2384 58.0233 84.6146C58.5897 85.505 59.31 86.2874 60.1506 86.9253C60.7252 87.3409 61.6055 84.6024 61.6055 84.6024Z" fill="#FFE3CE"/>
<path d="M60.0286 86.8763C59.3057 86.1677 58.4817 85.5703 57.5834 85.1036C56.4954 84.7491 56.7521 83.5509 56.0063 83.3431C54.7226 82.9885 53.6712 82.5117 53.769 82.1205C54.7226 82.4628 55.664 81.4359 57.7546 83.0497C58.8379 84.0339 59.7874 85.1561 60.5788 86.3873C60.3098 86.803 60.2487 87.0353 60.0286 86.8763Z" fill="#FFE3CE"/>
<path d="M60.6644 86.2528C60.6644 86.2528 57.5224 85.3603 56.6055 84.9569C55.6885 84.5534 55.2239 83.881 55.4562 83.7954C55.6885 83.7099 58.4515 84.7735 58.5493 83.7221C58.6105 83.1353 60.2487 86.0328 60.6644 86.2528Z" fill="#FFE3CE"/>
<path d="M83.7831 84.2844C83.7831 84.2844 85.7393 87.3409 81.338 89.0403C76.9367 90.7396 68.2931 92.9158 66.1414 91.7911C63.8178 90.2254 61.6336 88.4625 59.6128 86.5218C59.6128 86.5218 61.8379 85.7882 61.4344 83.8443L68.6965 87.5976C68.6965 87.5976 82.475 82.1205 83.7831 84.2844Z" fill="#E2613E"/>
<path d="M83.7834 84.2844C82.463 82.1205 68.6846 87.5976 68.6846 87.5976L61.4225 83.8443C61.5008 84.1431 61.5073 84.4561 61.4415 84.7579C61.3756 85.0596 61.2392 85.3415 61.0435 85.5804C62.7466 87.1993 64.5965 88.6564 66.5695 89.9327C68.7212 91.082 77.3282 88.8813 81.7417 87.1819C82.7168 86.8769 83.5719 86.274 84.1868 85.4581C84.1302 85.0443 83.9931 84.6456 83.7834 84.2844Z" fill="#FF6F48"/>
<g style="mix-blend-mode:multiply">
<path d="M83.7342 143.763C90.4095 145.267 91.5954 150.047 86.375 154.424C81.1546 158.801 71.5207 161.123 64.7965 159.62C58.0723 158.116 56.9353 153.348 62.1557 148.971C67.3761 144.594 77.0223 142.259 83.7342 143.763Z" fill="#E2E2E2"/>
</g>
<path d="M48.182 112.037L82.1696 131.513L51.9964 149.154L18.0088 129.679L48.182 112.037Z" fill="#0078FF"/>
<path d="M77.2179 144.264C77.2179 144.264 75.5063 144.521 75.922 145.487C76.3377 146.452 78.3672 147.932 78.575 148.604C78.7828 149.277 80.4455 151.465 81.0202 151.257C81.5948 151.049 82.8907 151.355 82.7318 148.812C82.5728 146.269 79.4675 144.154 77.2179 144.264Z" fill="#141323"/>
<path d="M73.9537 153.605C73.9537 153.605 74.7851 156.05 72.7311 156.624C70.6772 157.199 71.2763 155.903 66.7527 157.04C62.2292 158.177 61.7157 155.817 61.8624 155.328C62.0091 154.839 64.98 153.874 65.9703 153.617L68.8311 152.896H74.186L73.9537 153.605Z" fill="#141323"/>
<path d="M82.4872 110.729V127.148C82.4872 128.811 84.3455 141.904 83.233 147.614C83.233 147.614 80.0176 150.841 77.1201 147.614C77.1201 147.614 76.2154 131.231 75.384 127.527C74.5527 123.823 74.9195 112.477 74.9195 112.477L82.4872 110.729Z" fill="#141323"/>
<path d="M72.1318 130.755L49.3185 117.6C49.0094 117.425 48.6638 117.325 48.3093 117.308C47.9547 117.291 47.6012 117.358 47.2768 117.502L28.3024 128.578C27.7889 128.872 27.8745 129.41 28.4858 129.801L51.2624 142.919C51.5715 143.094 51.9171 143.194 52.2717 143.211C52.6262 143.227 52.9798 143.161 53.3041 143.017L72.2785 131.941C72.792 131.647 72.7186 131.109 72.1318 130.755ZM72.0707 131.794L53.0596 142.87C52.8075 142.984 52.5323 143.036 52.2562 143.023C51.9801 143.011 51.7108 142.933 51.4703 142.797L28.6814 129.593C28.2046 129.312 28.1435 128.909 28.5347 128.676L47.5091 117.6C47.7612 117.486 48.0364 117.434 48.3125 117.447C48.5887 117.459 48.8579 117.537 49.0985 117.673L71.8873 130.816C72.3641 131.146 72.4374 131.562 72.034 131.794H72.0707ZM68.8186 130.669L61.4832 126.414C61.1647 126.241 60.8067 126.152 60.444 126.158H49.7097C49.0618 126.158 48.6339 126.451 48.6828 126.83L49.5019 132.026C49.5071 132.107 49.4862 132.188 49.4422 132.256C49.3981 132.324 49.3334 132.376 49.2574 132.405C49.0397 132.505 48.7974 132.539 48.5605 132.503L44.8928 132.124C44.5806 132.083 44.2631 132.129 43.9759 132.258C43.8729 132.295 43.7843 132.363 43.7227 132.453C43.6611 132.543 43.6299 132.651 43.6335 132.76L44.0003 136.537C44.0269 136.66 44.0816 136.774 44.1601 136.872C44.2386 136.97 44.3388 137.048 44.4527 137.1L51.1157 140.951C51.3839 141.103 51.684 141.19 51.9919 141.205C52.2998 141.22 52.6069 141.162 52.8884 141.037L68.9653 131.647C69.3932 131.439 69.3199 130.975 68.7819 130.669H68.8186ZM44.0125 127.674C43.3671 127.308 42.6449 127.098 41.9039 127.062C41.1628 127.026 40.4237 127.164 39.7457 127.466C38.6821 128.089 38.8533 129.202 40.137 129.911C40.7824 130.277 41.5046 130.486 42.2456 130.522C42.9867 130.559 43.7258 130.42 44.4038 130.119C45.5285 129.532 45.3451 128.371 44.0125 127.674Z" fill="white"/>
<path d="M76.8511 112.819C76.8511 112.819 76.1175 122.343 75.3595 131.794C75.3595 131.794 74.8827 150.548 74.4426 153.238C74.4426 153.238 68.3908 154.742 67.7917 151.893C67.7917 151.893 67.9507 135.388 67.7917 131.94C67.6328 128.493 67.2783 118.871 68.6475 113.321C70.0168 107.77 76.8511 112.819 76.8511 112.819Z" fill="#141323"/>
<path d="M74.4428 153.238C74.883 150.536 75.3598 131.794 75.3598 131.794C75.8732 125.436 76.3623 119.042 76.5823 115.546L72.8535 116.463C71.0146 122.161 70.2397 128.15 70.5673 134.129C70.8851 142.332 71.0196 150.401 71.0563 153.69C72.1986 153.667 73.3346 153.516 74.4428 153.238Z" fill="#312F4B"/>
<path d="M83.2575 147.614C84.37 141.892 82.5117 128.811 82.5117 127.148V110.839L79.2719 113.284C79.2719 113.284 78.2449 123.835 79.2719 129.838C80.2132 135.303 79.602 145.939 80.0665 148.995C81.2577 148.917 82.3852 148.429 83.2575 147.614Z" fill="#312F4B"/>
<path d="M83.3922 83.9299C83.3922 83.9299 86.5097 85.4826 84.737 90.7886C82.9643 96.0945 81.7295 99.5178 81.8395 101.474C82.0545 104.82 82.4627 108.151 83.0621 111.45C83.0621 111.45 83.5756 115.815 73.6116 118.419C73.6116 118.419 65.3958 119.25 66.7529 113.846C67.9392 108.53 68.5135 103.095 68.4645 97.6472C68.2567 95.5688 67.0097 91.4121 72.2056 88.6124C77.4016 85.8127 80.0668 83.7221 83.3922 83.9299Z" fill="#FF6F48"/>
<path d="M68.4641 97.6473C68.5301 103.097 67.9722 108.536 66.8014 113.859C65.8722 117.6 69.5278 118.358 71.8506 118.456C72.5964 116.01 71.3372 111.744 73.0732 106.474C75.2127 99.9702 74.9071 95.6667 73.7701 92.2068C73.5879 91.5101 73.1978 90.8854 72.6518 90.4159C72.1058 89.9463 71.4298 89.6541 70.7136 89.5782C67.2415 92.3046 68.244 95.8012 68.4641 97.6473Z" fill="#CF5736"/>
<path d="M79.7 81.3136C79.5202 82.842 79.7349 84.3909 80.3235 85.8127C81.1916 87.3898 74.663 88.8203 74.5041 87.3654C74.8494 86.5016 74.9979 85.5716 74.9387 84.6432C74.8795 83.7148 74.614 82.8112 74.1617 81.9983C73.3548 80.519 79.7 81.3136 79.7 81.3136Z" fill="#FFE3CE"/>
<path d="M80.2866 85.9105C79.7384 84.6534 79.5155 83.2785 79.6386 81.9127L74.8706 84.2722C75.0418 84.2722 78.2571 85.128 78.954 87.4387C79.9321 87.0352 80.6045 86.4851 80.2866 85.9105Z" fill="#FFE3CE"/>
<path d="M72.829 73.9537C72.2475 75.4443 71.9731 77.0369 72.022 78.6361C72.2299 80.9713 71.8876 81.4358 72.022 82.475C72.019 83.0293 72.2044 83.5682 72.5478 84.0033C73.2691 84.7001 74.7484 84.9569 76.7656 84.2233C79.2108 83.3308 81.7538 79.9932 80.7146 76.9857C79.6754 73.9781 76.4845 71.5085 72.829 73.9537Z" fill="#FFE3CE"/>
<path d="M80.6167 80.2377C79.6603 78.1115 78.5318 76.0671 77.2424 74.1248C76.7306 73.6665 76.1589 73.2799 75.543 72.9756C74.566 73.0568 73.6287 73.3988 72.8289 73.9659C72.6279 74.4968 72.4605 75.0399 72.3276 75.5919C72.9022 76.2399 74.0882 76.9734 74.2593 77.5236C74.6021 78.887 74.5297 80.3217 74.0515 81.6437C73.6602 82.5117 75.274 83.7832 74.895 84.5412C74.8862 84.5732 74.8862 84.607 74.895 84.639C75.539 84.5893 76.1728 84.4493 76.7778 84.2233C77.6537 83.8526 78.4454 83.3084 79.1052 82.6234C79.7649 81.9384 80.2791 81.1268 80.6167 80.2377Z" fill="#FFE3CE"/>
<path d="M72.4866 73.1956C71.6919 73.648 71.7653 75.0784 73.8925 76.1176C75.1151 76.7411 75.1151 78.795 74.9929 79.1863C74.8021 79.9499 74.7077 80.7343 74.7117 81.5214C75.0051 81.9493 76.0076 80.6167 76.4844 80.7023C77.707 80.9346 77.2179 82.0593 76.1176 83.2452C75.0173 84.4311 78.0248 85.018 79.443 83.9788C80.201 83.4286 80.47 83.0985 81.4603 81.1302C82.9029 78.2571 82.9763 74.7972 79.5775 72.9634C76.1787 71.1295 74.4549 72.132 72.4866 73.1956Z" fill="#141323"/>
<path d="M79.4676 83.9788C80.2256 83.4286 80.4946 83.0985 81.4848 81.1302C82.9275 78.2571 83.4287 74.8095 80.03 72.9634C76.6312 71.1173 75.2375 71.5941 73.2691 72.7188C73.0857 72.8289 72.0465 73.2812 72.1566 73.7825C73.2324 73.9536 76.1789 74.5405 76.9369 75.7997C77.8782 77.3646 78.9052 76.8634 78.8318 78.7951C78.7585 80.7267 79.2353 83.1107 76.1055 84.1622C76.6264 84.4509 77.2182 84.5868 77.8129 84.5544C78.4076 84.522 78.9811 84.3225 79.4676 83.9788Z" fill="#312F4B"/>
<path d="M74.8705 86.5095L72.7432 88.2945C72.7432 88.2945 79.3573 90.1895 81.3012 86.9497C81.4291 86.4845 81.3736 85.988 81.1461 85.5626C80.9186 85.1372 80.5365 84.8153 80.0786 84.6635C80.0786 84.6635 79.8708 87.3042 74.8705 86.5095Z" fill="white"/>
<path d="M54.0625 102.33C54.0625 102.33 51.6173 102.134 51.165 101.633C50.7126 101.132 49.9424 101.547 50.4803 102.085C50.8746 102.445 51.3416 102.716 51.8496 102.88C51.8496 102.88 48.9154 103.039 48.6587 102.183C48.4019 101.327 48.353 104.469 49.6612 105.056C50.9694 105.643 52.302 106.535 55.2239 104.359C55.1905 103.957 55.0691 103.566 54.8685 103.216C54.6678 102.865 54.3927 102.562 54.0625 102.33Z" fill="#FFE3CE"/>
<path d="M71.7652 89.5415C71.7652 89.5415 75.005 90.8497 72.4865 94.6641C69.968 98.4786 65.4078 104.726 63.0727 105.044C60.7376 105.362 54.1968 105.435 54.1968 105.435C54.1968 105.435 55.2849 103.43 53.8789 102.134L62.1558 100.251C62.1558 100.251 69.5157 88.5757 71.7652 89.5415Z" fill="#E2613E"/>
<path d="M71.7652 89.5415C69.5157 88.5757 62.1558 100.251 62.1558 100.251L53.8789 102.11C54.157 102.361 54.3637 102.682 54.478 103.039C57.2532 102.696 62.3514 102.036 63.4639 101.474C64.7598 100.826 71.1784 92.1945 72.6821 90.1528C72.4161 89.8952 72.1054 89.688 71.7652 89.5415Z" fill="#FF6F48"/>
<g opacity="0.5">
<path d="M60.4195 90.4707L48.8295 83.7832C48.6669 83.7069 48.4895 83.6673 48.3099 83.6673C48.1303 83.6673 47.9529 83.7069 47.7903 83.7832L38.1319 89.4193C37.8752 89.566 37.9119 89.8472 38.2297 90.0183L49.8198 96.5836C49.9823 96.6599 50.1597 96.6995 50.3394 96.6995C50.519 96.6995 50.6964 96.6599 50.859 96.5836L60.5173 90.9475C60.7741 90.8986 60.7374 90.6296 60.4195 90.4707ZM60.4195 90.9964L50.7367 96.5836C50.6116 96.647 50.4734 96.68 50.3332 96.68C50.1931 96.68 50.0548 96.647 49.9298 96.5836L38.3398 89.8961C38.0952 89.7616 38.0586 89.5415 38.2664 89.4315L47.9248 83.7954C48.0498 83.7321 48.188 83.699 48.3282 83.699C48.4684 83.699 48.6066 83.7321 48.7317 83.7954L60.3217 90.4707C60.5662 90.6541 60.5907 90.8619 60.3951 90.9842L60.4195 90.9964ZM58.6834 90.4096L55.0157 88.2456C54.8548 88.1566 54.6739 88.1103 54.49 88.1111H49.0373C48.7072 88.1111 48.4872 88.2578 48.5116 88.4534L48.9028 91.1187C48.9058 91.16 48.8956 91.2013 48.8736 91.2364C48.8516 91.2716 48.8191 91.2988 48.7806 91.3143C48.6648 91.3479 48.5418 91.3479 48.426 91.3143L46.5677 91.1187C46.4102 91.0961 46.2495 91.1172 46.1031 91.1798C46.0506 91.1983 46.0055 91.2333 45.9747 91.2796C45.9438 91.3259 45.9288 91.381 45.932 91.4365L46.1154 93.356C46.1293 93.4178 46.1576 93.4755 46.1979 93.5243C46.2383 93.5732 46.2896 93.6118 46.3476 93.6372L49.7342 95.5933C49.8744 95.6642 50.0294 95.7012 50.1865 95.7012C50.3437 95.7012 50.4986 95.6642 50.6389 95.5933L58.8179 90.813C59.0502 90.8008 59.0135 90.5685 58.6834 90.4096ZM46.1643 88.8813C45.8378 88.6999 45.4742 88.5956 45.1012 88.5766C44.7282 88.5575 44.3558 88.6241 44.0125 88.7713C43.4624 89.0892 43.5602 89.6516 44.2081 89.9939C44.5377 90.1792 44.9057 90.2856 45.2833 90.3047C45.6609 90.3238 46.0378 90.2551 46.3843 90.1039C46.8978 89.8227 46.8122 89.2481 46.1643 88.8813Z" fill="white"/>
</g>
</g>
</g>
<defs>
<clipPath id="clip0">
<rect width="124" height="180" fill="white"/>
</clipPath>
<clipPath id="clip1">
<rect width="124.385" height="180" fill="white"/>
</clipPath>
</defs>
</svg>
