<svg width="124" height="180" viewBox="0 0 124 180" fill="none" xmlns="http://www.w3.org/2000/svg">
<g clip-path="url(#clip0)">
<g clip-path="url(#clip1)">
<path fill-rule="evenodd" clip-rule="evenodd" d="M0 144.081L62.2047 108.137L124.373 144.056L62.168 180L0 144.081Z" fill="#FFD4C9"/>
<path fill-rule="evenodd" clip-rule="evenodd" d="M0 35.9071L62.1925 0V108.149L0 144.056V35.9071Z" fill="#FFF0EC"/>
<path fill-rule="evenodd" clip-rule="evenodd" d="M124.373 144.056L62.1924 108.149V0L124.385 35.9071L124.373 144.056Z" fill="#FFE5DE"/>
<path d="M46.6659 31.8237L46.837 91.5466L11.5657 111.902L11.3945 52.1796L46.6659 31.8237Z" fill="#DDDDDD"/>
<path d="M50.6146 33.9632L50.7858 93.6983L15.5266 114.054L15.3555 54.3313L50.6146 33.9632Z" fill="#0078FF"/>
<path d="M45.9077 52.8275L21.6396 66.8382C21.287 67.0615 20.9924 67.3652 20.7799 67.7244C20.5674 68.0835 20.443 68.4879 20.417 68.9044V97.0237C20.417 97.7817 20.9549 98.0995 21.6396 97.7205L45.9077 83.6976C46.2603 83.4743 46.5549 83.1706 46.7674 82.8115C46.9799 82.4523 47.1043 82.0479 47.1303 81.6314V53.5122C47.0936 52.7542 46.5679 52.4485 45.9077 52.8275ZM46.8247 81.7904C46.8069 82.1117 46.7135 82.4242 46.5521 82.7025C46.3906 82.9809 46.1656 83.2171 45.8955 83.3919L21.6396 97.4027C21.5488 97.4746 21.4385 97.5176 21.323 97.526C21.2075 97.5345 21.0922 97.5079 20.9919 97.4499C20.8917 97.3919 20.8113 97.305 20.7611 97.2007C20.7108 97.0963 20.6932 96.9793 20.7104 96.8647V68.7455C20.7281 68.4242 20.8215 68.1116 20.983 67.8333C21.1445 67.555 21.3694 67.3187 21.6396 67.1439L45.9077 53.1332C45.9985 53.0612 46.1088 53.0182 46.2243 53.0098C46.3398 53.0014 46.4551 53.0279 46.5554 53.0859C46.6556 53.144 46.736 53.2308 46.7862 53.3352C46.8364 53.4395 46.8541 53.5566 46.8369 53.6711L46.8247 81.7904ZM44.7096 70.9094L37.8387 68.2198C37.423 68.0608 36.8362 68.4398 36.4572 69.0878L31.249 78.1349C31.1146 78.3792 30.9159 78.5822 30.6744 78.7217C30.5933 78.7769 30.4974 78.8064 30.3993 78.8064C30.3012 78.8064 30.2054 78.7769 30.1243 78.7217L28.2293 77.1446C28.1226 77.0731 27.997 77.0349 27.8686 77.0349C27.7402 77.0349 27.6146 77.0731 27.5079 77.1446C27.1859 77.321 26.9192 77.5834 26.7377 77.9026L22.801 84.4189C22.599 84.7381 22.4851 85.1051 22.4709 85.4825V93.7105C22.4709 94.3707 22.9355 94.6397 23.4979 94.3096L44.0127 82.4383C44.3159 82.251 44.5711 81.9953 44.7579 81.6917C44.9447 81.3882 45.058 81.0452 45.0886 80.69V71.5696C45.0979 71.4344 45.0668 71.2995 44.9993 71.182C44.9318 71.0645 44.831 70.9696 44.7096 70.9094ZM30.1732 73.6113C30.8886 73.1349 31.4824 72.4974 31.907 71.7501C32.3316 71.0028 32.5753 70.1663 32.6183 69.3079C32.6183 67.7185 31.5058 67.0705 30.1732 67.8652C29.4577 68.3417 28.8639 68.9791 28.4393 69.7264C28.0147 70.4738 27.7711 71.3102 27.728 72.1687C27.6913 73.758 28.8039 74.406 30.1732 73.6113Z" fill="white"/>
<path d="M57.9505 60.895C58.3055 60.6898 58.6302 60.6531 58.8791 60.7576C59.1789 60.8835 61.129 61.8637 61.129 62.3514V65.4078L44.0129 74.5771L42.1182 72.9373V71.7148C42.1452 71.2243 42.2878 70.7472 42.5342 70.3222C42.7807 69.8973 43.124 69.5366 43.5364 69.2696L57.9505 60.895Z" fill="#D2E7FF"/>
<g style="mix-blend-mode:multiply">
<path d="M80.1888 144.337C86.8641 145.841 88.05 150.621 82.8296 154.998C77.6092 159.375 67.9753 161.698 61.3 160.158C54.6247 158.617 53.4388 153.886 58.6592 149.509C63.8796 145.132 73.5135 142.834 80.1888 144.337Z" fill="#E2E2E2"/>
</g>
<path d="M44.0126 103.234L42.1787 102.171L59.4415 92.2068L61.2754 93.2704L44.0126 103.234Z" fill="#BFD4DB"/>
<path d="M48.4262 70.3715L46.5923 69.3079L48.4262 70.3715Z" fill="#8A999E"/>
<path d="M48.4261 70.3715L46.6045 69.3079L48.4261 70.3715Z" fill="#8E9DA3"/>
<path d="M48.4383 70.3715L46.6167 69.3079L48.4383 70.3715Z" fill="#93A2A8"/>
<path d="M48.4627 70.3837L46.6411 69.3201L48.4627 70.3837Z" fill="#97A7AD"/>
<path d="M48.475 70.3837L46.6533 69.3201L48.475 70.3837Z" fill="#9BACB3"/>
<path d="M48.4994 70.396L46.6777 69.3323L48.4994 70.396Z" fill="#A0B1B8"/>
<path d="M48.5238 70.396L46.7021 69.3323L48.5238 70.396Z" fill="#A4B6BD"/>
<path d="M48.5482 70.3837L46.7266 69.3201L48.5482 70.3837Z" fill="#A9BBC2"/>
<path d="M48.5726 70.3837L46.751 69.3201L48.5726 70.3837Z" fill="#ADC0C7"/>
<path d="M48.6219 70.3715L46.8003 69.3079L48.6219 70.3715Z" fill="#B2C5CC"/>
<path d="M44.0127 105.411V103.234L42.1911 102.171V104.347C42.1743 104.521 42.2039 104.696 42.277 104.855C42.35 105.014 42.4638 105.151 42.6068 105.252L44.4284 106.315C44.2854 106.215 44.1716 106.078 44.0986 105.919C44.0256 105.76 43.996 105.585 44.0127 105.411Z" fill="#D2E7FF"/>
<path d="M44.0127 105.411V103.234L61.2755 93.2704V95.4466C61.2508 95.9362 61.1105 96.413 60.8661 96.838C60.6218 97.263 60.2802 97.6241 59.8695 97.8917L45.4431 106.217C44.6607 106.67 44.0127 106.364 44.0127 105.411Z" fill="#8AC1FF"/>
<path d="M44.0127 103.234L42.1788 102.171L42.1055 72.939L43.9271 74.0026L44.0127 103.234Z" fill="#0052B4"/>
<path d="M61.19 64.0264L61.2756 93.2704L44.0128 103.234L43.9272 74.0026L61.19 64.0264Z" fill="#0078FF"/>
<path d="M56.1041 65.2489C56.137 65.2214 56.1776 65.2046 56.2204 65.2008C56.2631 65.197 56.306 65.2064 56.3433 65.2277C56.3805 65.249 56.4104 65.2812 56.4288 65.32C56.4473 65.3587 56.4534 65.4022 56.4464 65.4446C56.4408 65.5644 56.4069 65.6812 56.3474 65.7853C56.2879 65.8894 56.2045 65.978 56.1041 66.0436L48.6586 70.3349C48.6257 70.3624 48.5851 70.3792 48.5423 70.383C48.4996 70.3868 48.4567 70.3774 48.4194 70.3561C48.3822 70.3348 48.3523 70.3026 48.3339 70.2638C48.3154 70.2251 48.3093 70.1816 48.3163 70.1393C48.3219 70.0194 48.3558 69.9027 48.4153 69.7985C48.4748 69.6944 48.5582 69.6058 48.6586 69.5402L56.1041 65.2489Z" fill="#68AFFF"/>
<path d="M59.7596 61.9602C60.5421 61.5078 61.1778 61.8746 61.1778 62.7671V63.9896L43.9272 74.0025V72.78C43.9543 72.2895 44.0968 71.8123 44.3433 71.3874C44.5897 70.9625 44.9331 70.6018 45.3454 70.3348L59.7596 61.9602ZM56.0919 66.0558C56.1923 65.9901 56.2756 65.9016 56.3352 65.7975C56.3947 65.6933 56.4286 65.5765 56.4342 65.4567C56.4342 65.2367 56.2753 65.1511 56.0919 65.2611L48.6464 69.5524C48.546 69.618 48.4626 69.7065 48.4031 69.8107C48.3436 69.9148 48.3097 70.0316 48.3041 70.1514C48.3041 70.3715 48.463 70.4571 48.6464 70.347L56.1041 66.0191L56.0919 66.0558Z" fill="#8AC1FF"/>
<path d="M63.9286 73.3546C63.8228 72.1973 63.6142 71.0517 63.3051 69.9314C62.9994 69.3813 61.7524 67.0461 59.6373 66.6794C58.4881 66.4838 59.1361 67.6819 60.1997 69.0389C60.5196 69.3134 60.7631 69.6658 60.9067 70.0621C61.0502 70.4584 61.0888 70.8851 61.0188 71.3007C60.957 72.3365 61.077 73.375 61.3734 74.3694C61.5935 75.0907 63.9286 73.3546 63.9286 73.3546Z" fill="#FFE3CE"/>
<path d="M61.3122 74.296C61.1606 73.3044 60.864 72.3405 60.432 71.4351C59.7718 70.506 60.6887 69.6991 60.2119 69.0878C59.3928 68.0364 58.8304 67.0339 59.1483 66.7649C59.7107 67.6085 61.0799 67.3395 61.8013 69.8825C62.0896 71.3182 62.1882 72.7856 62.0947 74.2471C61.5567 74.4427 61.3978 74.5772 61.3122 74.296Z" fill="#FFE3CE"/>
<path d="M62.1923 74.1737C61.3153 73.0655 60.4991 71.9105 59.7472 70.7138C59.307 69.8336 59.2704 69.0267 59.5149 69.1C59.7594 69.1734 61.3487 71.6675 62.0456 70.8728C62.3513 70.4693 61.9845 73.7458 62.1923 74.1737Z" fill="#FFE3CE"/>
<path d="M81.9127 86.3261C81.9127 86.3261 81.6682 89.9939 77.0958 88.6857C72.5233 87.3776 64.3565 84.0766 63.3051 81.9126C62.3454 79.2624 61.6173 76.534 61.1289 73.7581C61.1289 73.7581 63.354 74.4916 64.1853 72.6822L67.8531 80.0176C67.8531 80.0176 82.1817 83.8076 81.9127 86.3261Z" fill="#E2613E"/>
<path d="M81.9126 86.3262C82.1449 83.8076 67.804 80.0176 67.804 80.0176L64.1363 72.6822C64.0175 72.9586 63.8366 73.2038 63.6076 73.3989C63.3786 73.594 63.1077 73.7336 62.8159 73.807C63.2626 76.1296 63.9256 78.4054 64.7965 80.6045C65.8479 82.8051 74.0759 86.155 78.6361 87.4142C79.5998 87.7449 80.6427 87.7663 81.6192 87.4754C81.7876 87.1139 81.8872 86.7242 81.9126 86.3262Z" fill="#FF6F48"/>
<path d="M74.5773 145.242C74.5773 145.242 72.8657 145.499 73.2814 146.465C73.6971 147.431 75.7265 148.91 75.9344 149.582C76.1422 150.255 77.8049 152.443 78.3795 152.235C78.9541 152.027 80.2501 152.333 80.0911 149.79C79.9322 147.247 76.8024 145.132 74.5773 145.242Z" fill="#141323"/>
<path d="M71.2394 154.595C71.2394 154.595 72.0707 157.04 70.0168 157.615C67.9629 158.189 68.5619 156.893 64.0384 158.03C59.5149 159.167 59.0014 156.808 59.1481 156.319C59.2948 155.83 62.2657 154.864 63.2559 154.607L66.1168 153.886H71.4717L71.2394 154.595Z" fill="#141323"/>
<path d="M79.7855 111.707V128.126C79.7855 129.789 81.6439 142.883 80.5313 148.592C80.5313 148.592 77.3159 151.82 74.4184 148.592C74.4184 148.592 73.5137 132.209 72.6824 128.505C71.851 124.801 72.1322 113.492 72.1322 113.492L79.7855 111.707Z" fill="#141323"/>
<path d="M74.1372 113.797C74.1372 113.797 73.4036 123.321 72.6456 132.772C72.6456 132.772 72.1688 151.526 71.7287 154.216C71.7287 154.216 65.6769 155.72 65.0779 152.871C65.0779 152.871 65.2368 136.366 65.0779 132.919C64.9189 129.471 64.5644 119.849 65.9337 114.299C67.303 108.748 74.1372 113.797 74.1372 113.797Z" fill="#141323"/>
<path d="M71.7285 154.228C72.1686 151.526 72.6454 132.784 72.6454 132.784C73.1589 126.427 73.6479 120.033 73.868 116.536L70.1391 117.453C68.3003 123.152 67.5253 129.14 67.8529 135.119C68.1708 143.323 68.3053 151.392 68.3419 154.68C69.4842 154.658 70.6203 154.506 71.7285 154.228Z" fill="#312F4B"/>
<path d="M80.5558 148.592C81.6683 142.87 79.81 129.789 79.81 128.126V111.817L76.5702 114.262C76.5702 114.262 75.5432 124.813 76.5702 130.816C77.5116 136.281 76.9003 146.917 77.3649 149.974C78.5561 149.895 79.6835 149.407 80.5558 148.592Z" fill="#312F4B"/>
<path d="M80.69 84.908C80.69 84.908 83.8076 86.4607 82.0349 91.7666C80.2621 97.0726 79.0273 100.496 79.1251 102.464C79.3402 105.81 79.7484 109.141 80.3477 112.44C80.3477 112.44 80.8612 116.805 70.8972 119.409C70.8972 119.409 62.6815 120.24 64.0386 114.837C65.2094 109.514 65.7672 104.075 65.7013 98.6253C65.4934 96.5469 64.2464 92.3902 69.4423 89.5905C74.6383 86.7908 77.3646 84.7001 80.69 84.908Z" fill="#FF6F48"/>
<path d="M65.7258 98.6253C65.7918 104.075 65.2339 109.514 64.0631 114.837C63.134 118.578 66.7895 119.336 69.1124 119.434C69.8581 116.988 68.5989 112.722 70.3349 107.452C72.4744 100.948 72.1688 96.6447 71.0318 93.1848C70.8496 92.4881 70.4595 91.8634 69.9135 91.3939C69.3675 90.9243 68.6915 90.6322 67.9754 90.5563C64.5399 93.2948 65.5424 96.7792 65.7258 98.6253Z" fill="#CF5736"/>
<path d="M77.0225 82.2916C76.8329 83.8219 77.0392 85.3752 77.6216 86.8029C78.4896 88.3801 71.9611 89.8105 71.8021 88.3556C72.1475 87.4918 72.296 86.5618 72.2367 85.6334C72.1775 84.705 71.9121 83.8014 71.4598 82.9885C70.6407 81.4969 77.0225 82.2916 77.0225 82.2916Z" fill="#FFE3CE"/>
<path d="M77.5845 86.8885C77.028 85.6251 76.8009 84.2413 76.9243 82.8663L72.1318 85.2381C72.303 85.2381 75.5184 86.0939 76.2152 88.4045C77.23 88.0255 77.9024 87.4632 77.5845 86.8885Z" fill="#FFE3CE"/>
<path d="M70.1268 74.9439C69.5454 76.4345 69.2709 78.0272 69.3199 79.6264C69.5277 81.9615 69.1854 82.4261 69.3199 83.4653C69.3169 84.0196 69.5022 84.5584 69.8456 84.9935C70.5669 85.6904 72.0462 85.9471 74.0635 85.2136C76.5087 84.3211 79.0516 80.9835 78.0124 77.9759C76.9732 74.9684 73.7823 72.4866 70.1268 74.9439Z" fill="#FFE3CE"/>
<path d="M77.915 81.2158C76.9587 79.0896 75.8301 77.0452 74.5407 75.1029C74.029 74.6446 73.4573 74.258 72.8414 73.9537C71.8643 74.0349 70.927 74.3769 70.1272 74.944C69.9262 75.4749 69.7588 76.018 69.626 76.57C70.2006 77.218 71.3865 77.9515 71.5576 78.5017C71.9005 79.8651 71.8281 81.2998 71.3498 82.6217C70.9586 83.4898 72.5724 84.7613 72.1934 85.5193C72.1684 85.5345 72.1475 85.5554 72.1323 85.5804C72.7762 85.5307 73.41 85.3908 74.015 85.1647C74.8987 84.805 75.7001 84.2695 76.3705 83.5907C77.0409 82.9118 77.5664 82.1039 77.915 81.2158Z" fill="#FFE3CE"/>
<path d="M69.7722 74.1737C68.9775 74.6261 69.0509 76.0565 71.1782 77.0957C72.4008 77.7192 72.4008 79.7731 72.2785 80.1643C72.0878 80.9279 71.9933 81.7124 71.9973 82.4995C72.2907 82.9274 73.2932 81.5947 73.77 81.6803C74.9926 81.9126 74.5036 83.0374 73.4033 84.2233C72.303 85.4092 75.3105 85.996 76.7287 84.9568C77.4867 84.4067 77.7557 84.0766 78.7459 82.1082C80.1886 79.2352 80.2619 75.7753 76.8632 73.9414C73.4644 72.1075 71.7528 73.0612 69.7722 74.1737Z" fill="#141323"/>
<path d="M76.741 84.9691C77.499 84.419 77.768 84.0889 78.7583 82.1205C80.2009 79.2353 80.6899 75.7998 77.3034 73.9537C73.9169 72.1076 72.5109 72.5844 70.5426 73.7092C70.3592 73.8192 69.32 74.2716 69.43 74.7728C70.5059 74.944 73.4523 75.5308 74.2103 76.7901C75.1517 78.355 76.1786 77.8537 76.1053 79.7854C76.0319 81.7171 76.5087 84.1011 73.3789 85.1525C73.8999 85.4412 74.4917 85.5772 75.0864 85.5448C75.6811 85.5123 76.2546 85.3128 76.741 84.9691Z" fill="#312F4B"/>
<path d="M72.1321 87.4876L70.0415 89.2481C70.0415 89.2481 76.6556 91.1431 78.5995 87.9033C78.7275 87.4381 78.6719 86.9416 78.4444 86.5162C78.217 86.0908 77.8349 85.769 77.377 85.6171C77.377 85.6171 77.1569 88.2823 72.1321 87.4876Z" fill="white"/>
<path d="M51.3481 103.308C51.3481 103.308 48.9029 103.112 48.4506 102.611C47.9982 102.11 47.228 102.525 47.766 103.063C48.1579 103.447 48.6296 103.739 49.1475 103.919C49.1475 103.919 46.2133 104.078 45.9565 103.222C45.6998 102.366 45.6509 105.508 46.959 106.095C48.2672 106.682 49.612 107.587 52.5707 105.362C52.5337 104.95 52.4046 104.551 52.193 104.196C51.9814 103.84 51.6927 103.537 51.3481 103.308Z" fill="#FFE3CE"/>
<path d="M69.0635 90.4707C69.0635 90.4707 72.3034 91.7789 69.7849 95.5933C67.2664 99.4078 62.7061 105.655 60.371 105.973C58.0359 106.291 51.4951 106.364 51.4951 106.364C51.4951 106.364 52.5832 104.359 51.1772 103.063L59.4541 101.205C59.4541 101.205 66.814 89.5538 69.0635 90.4707Z" fill="#E2613E"/>
<path d="M69.0635 90.4707C66.814 89.5171 59.4541 101.205 59.4541 101.205L51.1772 103.063C51.4553 103.315 51.662 103.635 51.7763 103.992C54.5516 103.65 59.6986 102.978 60.7622 102.44C62.0582 101.792 68.4767 93.1603 69.9805 91.1186C69.7175 90.8479 69.4066 90.6282 69.0635 90.4707Z" fill="#FF6F48"/>
<g opacity="0.5">
<path d="M57.461 74.5772L47.6804 80.2011C47.5414 80.2927 47.4259 80.4156 47.3431 80.56C47.2603 80.7044 47.2125 80.8662 47.2036 81.0324V92.3168C47.2036 92.6224 47.4237 92.7447 47.6804 92.598L57.461 86.9741C57.6 86.8825 57.7156 86.7596 57.7984 86.6152C57.8812 86.4708 57.929 86.309 57.9378 86.1428V74.9073C57.9012 74.5772 57.6933 74.4672 57.461 74.5772ZM57.8278 86.2039C57.8222 86.3332 57.7861 86.4594 57.7223 86.572C57.6585 86.6846 57.569 86.7805 57.461 86.8519L47.6804 92.4757C47.4726 92.598 47.3136 92.4757 47.3136 92.2557V81.0202C47.3192 80.8909 47.3554 80.7648 47.4192 80.6521C47.4829 80.5395 47.5724 80.4436 47.6804 80.3722L57.461 74.7484C57.6689 74.6261 57.8278 74.7484 57.8278 74.9684V86.2039ZM56.9476 81.9127L54.1845 80.849C54.0134 80.7879 53.7811 80.9346 53.6344 81.2036L51.5438 84.8713C51.489 84.9685 51.4086 85.0488 51.3115 85.1036C51.279 85.1257 51.2407 85.1375 51.2014 85.1375C51.1622 85.1375 51.1239 85.1257 51.0914 85.1036L50.3212 84.3578C50.2781 84.3278 50.2269 84.3118 50.1745 84.3118C50.122 84.3118 50.0708 84.3278 50.0278 84.3578C49.8996 84.4295 49.7938 84.5353 49.7221 84.6635L48.145 87.2798C48.0629 87.4079 48.0165 87.5556 48.0105 87.7077V91.0086C48.0105 91.2776 48.1939 91.3754 48.4262 91.2532L56.6786 86.4851C56.7999 86.4062 56.9008 86.2997 56.973 86.1743C57.0453 86.049 57.0868 85.9083 57.0943 85.7638V82.0961C57.0845 82.0567 57.0663 82.02 57.041 81.9883C57.0156 81.9567 56.9838 81.9309 56.9476 81.9127ZM51.1159 83.013C51.4039 82.8228 51.6435 82.5679 51.8155 82.2685C51.9874 81.9692 52.087 81.6338 52.1061 81.2892C52.1061 80.6534 51.6538 80.3967 51.1159 80.7145C50.8341 80.8998 50.5984 81.147 50.4267 81.4373C50.2551 81.7276 50.1521 82.0533 50.1256 82.3895C50.1256 83.0252 50.5657 83.282 51.1159 82.9641V83.013Z" fill="white"/>
</g>
</g>
</g>
<defs>
<clipPath id="clip0">
<rect width="124" height="180" fill="white"/>
</clipPath>
<clipPath id="clip1">
<rect width="124.385" height="180" fill="white"/>
</clipPath>
</defs>
</svg>
