<svg id="Component_25_1" data-name="Component 25 – 1" xmlns="http://www.w3.org/2000/svg" viewBox="0 0 26.504 26.504">
  <path id="Union_1" data-name="Union 1" d="M16.2,26.5a1.472,1.472,0,0,1-1.472-1.472V16.2A1.473,1.473,0,0,1,16.2,14.725h8.835A1.472,1.472,0,0,1,26.5,16.2v8.835A1.472,1.472,0,0,1,25.032,26.5Zm1.472-2.945H23.56V17.669H17.669ZM1.472,26.5A1.472,1.472,0,0,1,0,25.032V16.2a1.472,1.472,0,0,1,1.472-1.472h8.835A1.473,1.473,0,0,1,11.78,16.2v8.835A1.472,1.472,0,0,1,10.308,26.5ZM2.945,23.56H8.835V17.669H2.945ZM16.2,11.78a1.473,1.473,0,0,1-1.472-1.472V1.472A1.472,1.472,0,0,1,16.2,0h8.835A1.472,1.472,0,0,1,26.5,1.472v8.835a1.472,1.472,0,0,1-1.472,1.472Zm1.472-2.945H23.56V2.945H17.669ZM1.472,11.78A1.472,1.472,0,0,1,0,10.308V1.472A1.472,1.472,0,0,1,1.472,0h8.835A1.472,1.472,0,0,1,11.78,1.472v8.835a1.473,1.473,0,0,1-1.472,1.472ZM2.945,8.835H8.835V2.945H2.945Z" fill="#141323"/>
  <path id="Union_3" data-name="Union 3" d="M14.724,20.987V14.725h6.417v6.262ZM0,20.987V14.725H6.416v6.262ZM14.724,6.262V0h6.417V6.262ZM0,6.262V0H6.417V6.262Z" transform="translate(2.674 2.818)" fill="#141323"/>
</svg>
