<svg width="16" height="16" viewBox="0 0 16 16" fill="none" xmlns="http://www.w3.org/2000/svg">
<path d="M14.6668 4.82667C14.6673 4.73893 14.6505 4.65196 14.6174 4.57073C14.5842 4.48951 14.5353 4.41563 14.4735 4.35334L11.6468 1.52667C11.5845 1.46489 11.5107 1.416 11.4294 1.38283C11.3482 1.34965 11.2612 1.33283 11.1735 1.33334C11.0858 1.33283 10.9988 1.34965 10.9176 1.38283C10.8363 1.416 10.7625 1.46489 10.7002 1.52667L8.81351 3.41334L1.52684 10.7C1.46505 10.7623 1.41617 10.8362 1.38299 10.9174C1.34982 10.9986 1.333 11.0856 1.33351 11.1733V14C1.33351 14.1768 1.40375 14.3464 1.52877 14.4714C1.65379 14.5964 1.82336 14.6667 2.00017 14.6667H4.82684C4.92013 14.6717 5.01344 14.6572 5.10072 14.6239C5.188 14.5905 5.26731 14.5393 5.33351 14.4733L12.5802 7.18667L14.4735 5.33334C14.5344 5.26873 14.5839 5.19436 14.6202 5.11334C14.6266 5.0602 14.6266 5.00648 14.6202 4.95334C14.6233 4.92231 14.6233 4.89104 14.6202 4.86001L14.6668 4.82667ZM4.55351 13.3333H2.66684V11.4467L9.28684 4.82667L11.1735 6.71334L4.55351 13.3333ZM12.1135 5.77334L10.2268 3.88667L11.1735 2.94667L13.0535 4.82667L12.1135 5.77334Z" fill="#262433"/>
</svg>
