<svg width="16" height="16" viewBox="0 0 16 16" fill="none" xmlns="http://www.w3.org/2000/svg">
<path d="M14.6673 4.82666C14.6678 4.73892 14.651 4.65194 14.6178 4.57072C14.5847 4.48949 14.5358 4.41562 14.474 4.35332L11.6473 1.52666C11.585 1.46487 11.5112 1.41599 11.4299 1.38281C11.3487 1.34963 11.2617 1.33282 11.174 1.33332C11.0863 1.33282 10.9993 1.34963 10.9181 1.38281C10.8368 1.41599 10.763 1.46487 10.7007 1.52666L8.814 3.41332L1.52733 10.7C1.46554 10.7623 1.41666 10.8362 1.38348 10.9174C1.3503 10.9986 1.33349 11.0856 1.334 11.1733V14C1.334 14.1768 1.40423 14.3464 1.52926 14.4714C1.65428 14.5964 1.82385 14.6667 2.00066 14.6667H4.82733C4.92061 14.6717 5.01392 14.6571 5.10121 14.6238C5.18849 14.5905 5.2678 14.5393 5.334 14.4733L12.5807 7.18666L14.474 5.33332C14.5348 5.26871 14.5844 5.19435 14.6207 5.11332C14.6271 5.06018 14.6271 5.00646 14.6207 4.95332C14.6238 4.92229 14.6238 4.89102 14.6207 4.85999L14.6673 4.82666ZM4.554 13.3333H2.66733V11.4467L9.28733 4.82666L11.174 6.71332L4.554 13.3333ZM12.114 5.77332L10.2273 3.88666L11.174 2.94666L13.054 4.82666L12.114 5.77332Z" fill="#BEBDC2"/>
</svg>
