<svg xmlns="http://www.w3.org/2000/svg" width="40" height="40" viewBox="0 0 40 40"><path d="M37.024,24.1a6.3,6.3,0,0,1-1.345-.242,18.906,18.906,0,0,1-2.629-.785,4.01,4.01,0,0,0-4.978,2.013L27.63,26a24.454,24.454,0,0,1-5.339-4.026,24.513,24.513,0,0,1-4.014-5.355l.843-.564a4.031,4.031,0,0,0,2.007-4.992,20.841,20.841,0,0,1-.783-2.637c-.1-.443-.181-.906-.241-1.369A6.026,6.026,0,0,0,14.082,2.04H8.06A6.033,6.033,0,0,0,2.038,8.9,38.192,38.192,0,0,0,35.2,42.04h.763a6.016,6.016,0,0,0,6.022-6.059V29.941A6.034,6.034,0,0,0,37.024,24.1Zm1,12.078a2.016,2.016,0,0,1-.682,1.51,2.1,2.1,0,0,1-1.646.5A34.173,34.173,0,0,1,6.173,8.442a2.2,2.2,0,0,1,.5-1.651A2,2,0,0,1,8.18,6.107H14.2A2.008,2.008,0,0,1,16.209,7.7q.12.825.3,1.631a22.435,22.435,0,0,0,.923,3.12l-2.81,1.308a2.016,2.016,0,0,0-.984,2.677A29.127,29.127,0,0,0,27.69,30.525a2.124,2.124,0,0,0,2.67-1.047L31.6,26.66a27.418,27.418,0,0,0,3.171.926q.8.181,1.626.3A2.012,2.012,0,0,1,37.987,29.9Z" transform="translate(-1.982 -2.04)" fill="#fff"/></svg>