<svg width="24" height="24" viewBox="0 0 24 24" fill="none" xmlns="http://www.w3.org/2000/svg">
<g clip-path="url(#clip0)">
<path d="M21 20.0042H20V13.0041C20 12.7389 19.8946 12.4846 19.7071 12.297C19.5196 12.1095 19.2652 12.0041 19 12.0041H12V11.0042C12 10.7389 11.8946 10.4846 11.7071 10.297C11.5196 10.1095 11.2652 10.0042 11 10.0042C10.7348 10.0042 10.4804 10.1095 10.2929 10.297C10.1054 10.4846 10 10.7389 10 11.0042V12.0041H9C8.73478 12.0041 8.48043 12.1095 8.29289 12.297C8.10536 12.4846 8 12.7389 8 13.0041C8 13.2694 8.10536 13.5237 8.29289 13.7113C8.48043 13.8988 8.73478 14.0041 9 14.0041H10V21.0042C10 21.2694 10.1054 21.5237 10.2929 21.7113C10.4804 21.8988 10.7348 22.0042 11 22.0042H18V23.0042C18 23.2694 18.1054 23.5237 18.2929 23.7113C18.4804 23.8988 18.7348 24.0042 19 24.0042C19.2652 24.0042 19.5196 23.8988 19.7071 23.7113C19.8946 23.5237 20 23.2694 20 23.0042V22.0042H21C21.2652 22.0042 21.5196 21.8988 21.7071 21.7113C21.8946 21.5237 22 21.2694 22 21.0042C22 20.7389 21.8946 20.4846 21.7071 20.297C21.5196 20.1095 21.2652 20.0042 21 20.0042ZM18 20.0042H12V14.0041H18V20.0042Z" fill="#262433"/>
<path fill-rule="evenodd" clip-rule="evenodd" d="M7 2H17C17.5523 2 18 2.44772 18 3V10H20V3C20 1.34315 18.6569 0 17 0H7C5.34315 0 4 1.34315 4 3V19C4 20.6569 5.34315 22 7 22H8V20H7C6.44772 20 6 19.5523 6 19V3C6 2.44772 6.44771 2 7 2Z" fill="#262433"/>
</g>
<defs>
<clipPath id="clip0">
<rect width="24" height="24" fill="white"/>
</clipPath>
</defs>
</svg>
