<svg xmlns="http://www.w3.org/2000/svg" width="26" height="26" viewBox="0 0 26 26"><path d="M24.1,2H5.9A3.9,3.9,0,0,0,2,5.9V24.1A3.9,3.9,0,0,0,5.9,28H24.1a3.653,3.653,0,0,0,.637-.065l.39-.091h.156l.481-.182.169-.091c.13-.078.273-.143.4-.234a4.927,4.927,0,0,0,.494-.416l.091-.117a3.5,3.5,0,0,0,.351-.416l.117-.169a3,3,0,0,0,.234-.455,1.3,1.3,0,0,0,.091-.195c.065-.156.1-.325.156-.494V24.88A3.38,3.38,0,0,0,28,24.1V5.9A3.9,3.9,0,0,0,24.1,2ZM5.9,25.4a1.3,1.3,0,0,1-1.3-1.3V18.5l4.277-4.29h0a1.3,1.3,0,0,1,1.846,0L21.9,25.4Zm19.5-1.3a1.056,1.056,0,0,1-.195.65,1.223,1.223,0,0,1-.117.156l-6.955-6.955,1.144-1.144a1.3,1.3,0,0,1,1.846,0h0L25.4,21.1Zm0-6.682L22.956,15a4,4,0,0,0-5.512,0L16.3,16.144,12.556,12.4a4,4,0,0,0-5.512,0L4.6,14.818V5.9A1.3,1.3,0,0,1,5.9,4.6H24.1a1.3,1.3,0,0,1,1.3,1.3ZM16.95,7.2A1.95,1.95,0,1,0,18.9,9.15,1.95,1.95,0,0,0,16.95,7.2Z" transform="translate(-2 -2)" fill="#fff"/></svg>