<svg width="74" height="38" viewBox="0 0 74 38" fill="none" xmlns="http://www.w3.org/2000/svg">
<g filter="url(#filter0_d)">
<path d="M7 15C7 10.3222 7 7.98333 8.07293 6.27578C8.63242 5.38535 9.38535 4.63242 10.2758 4.07293C11.9833 3 14.3222 3 19 3H55C59.6778 3 62.0167 3 63.7242 4.07293C64.6147 4.63242 65.3676 5.38535 65.9271 6.27578C67 7.98333 67 10.3222 67 15C67 19.6778 67 22.0167 65.9271 23.7242C65.3676 24.6147 64.6147 25.3676 63.7242 25.9271C62.0167 27 59.6778 27 55 27H19C14.3222 27 11.9833 27 10.2758 25.9271C9.38535 25.3676 8.63242 24.6147 8.07293 23.7242C7 22.0167 7 19.6778 7 15Z" fill="url(#paint0_linear)"/>
<path d="M39.924 10.456H43.632C44.552 10.456 45.268 10.68 45.78 11.128C46.292 11.568 46.548 12.172 46.548 12.94C46.548 13.708 46.288 14.316 45.768 14.764C45.256 15.212 44.544 15.436 43.632 15.436H41.472V19H39.924V10.456ZM43.452 14.236C43.988 14.236 44.392 14.128 44.664 13.912C44.944 13.688 45.084 13.368 45.084 12.952C45.084 12.528 44.948 12.208 44.676 11.992C44.404 11.768 43.996 11.656 43.452 11.656H41.472V14.236H43.452ZM50.955 12.796C51.187 12.796 51.387 12.828 51.555 12.892L51.543 14.26C51.287 14.156 51.023 14.104 50.751 14.104C50.239 14.104 49.847 14.252 49.575 14.548C49.311 14.844 49.179 15.236 49.179 15.724V19H47.691V14.656C47.691 14.016 47.659 13.444 47.595 12.94H48.999L49.119 14.008C49.271 13.616 49.511 13.316 49.839 13.108C50.167 12.9 50.539 12.796 50.955 12.796ZM55.021 19.096C54.405 19.096 53.861 18.968 53.389 18.712C52.925 18.456 52.565 18.092 52.309 17.62C52.061 17.14 51.937 16.58 51.937 15.94C51.937 15.3 52.061 14.744 52.309 14.272C52.565 13.792 52.925 13.424 53.389 13.168C53.861 12.912 54.405 12.784 55.021 12.784C55.629 12.784 56.165 12.912 56.629 13.168C57.093 13.424 57.449 13.792 57.697 14.272C57.953 14.744 58.081 15.3 58.081 15.94C58.081 16.58 57.953 17.14 57.697 17.62C57.449 18.092 57.093 18.456 56.629 18.712C56.165 18.968 55.629 19.096 55.021 19.096ZM55.009 17.92C55.521 17.92 55.909 17.756 56.173 17.428C56.445 17.092 56.581 16.596 56.581 15.94C56.581 15.292 56.445 14.8 56.173 14.464C55.901 14.12 55.517 13.948 55.021 13.948C54.517 13.948 54.129 14.12 53.857 14.464C53.585 14.8 53.449 15.292 53.449 15.94C53.449 16.596 53.581 17.092 53.845 17.428C54.117 17.756 54.505 17.92 55.009 17.92Z" fill="white"/>
<path d="M30.0678 8.37466C30.0378 8.26048 29.9779 8.15632 29.8944 8.07282C29.8109 7.98933 29.7068 7.92948 29.5926 7.8994C28.225 7.54419 26.7849 7.58245 25.4381 8.00977C24.0913 8.43709 22.8926 9.23609 21.9799 10.3148L21.2367 11.1973L19.5001 10.7783C19.078 10.6312 18.6168 10.6417 18.2018 10.808C17.7868 10.9744 17.446 11.2852 17.2423 11.6833L15.7755 14.2832C15.7241 14.3743 15.6949 14.4761 15.6901 14.5806C15.6854 14.6851 15.7053 14.7892 15.7482 14.8845C15.7912 14.9799 15.8559 15.0638 15.9373 15.1295C16.0187 15.1952 16.1143 15.2408 16.2166 15.2627L18.2651 15.7018C18.0916 16.23 17.9677 16.7733 17.895 17.3245C17.8818 17.4258 17.8921 17.5287 17.925 17.6254C17.9579 17.7221 18.0125 17.8099 18.0848 17.8821L20.1515 19.9489C20.2134 20.0108 20.2868 20.0599 20.3677 20.0934C20.4486 20.1269 20.5353 20.1442 20.6228 20.1442C20.642 20.1442 20.6612 20.1432 20.6808 20.1416C21.2443 20.0909 21.801 19.9814 22.3418 19.8149L22.7709 21.817C22.7929 21.9193 22.8385 22.0149 22.9042 22.0962C22.9699 22.1776 23.0538 22.2423 23.1492 22.2852C23.2445 22.3282 23.3486 22.3481 23.453 22.3434C23.5575 22.3387 23.6594 22.3095 23.7504 22.2581L26.3539 20.7897C26.7204 20.567 27.0066 20.2338 27.1714 19.8379C27.3361 19.4421 27.3709 19.0041 27.2706 18.5872L26.8248 16.7479L27.6495 15.9895C28.7322 15.0795 29.5343 13.8807 29.9624 12.5326C30.3905 11.1846 30.4271 9.74268 30.0678 8.37466ZM17.382 14.1488L18.4194 12.3089C18.4838 12.184 18.5936 12.0885 18.7262 12.0419C18.8589 11.9954 19.0042 12.0014 19.1326 12.0586L20.2776 12.3361L19.8442 12.8506C19.4334 13.343 19.0781 13.8791 18.7847 14.4493L17.382 14.1488ZM25.6954 19.6302L23.8849 20.6513L23.5986 19.3149C24.179 19.0254 24.7197 18.6625 25.2075 18.235L25.7032 17.7792L25.9721 18.889C26.007 19.026 25.9992 19.1704 25.9498 19.3029C25.9003 19.4353 25.8116 19.5495 25.6954 19.6302ZM26.7716 14.9867L24.3152 17.2441C23.3429 18.085 22.1436 18.6195 20.8683 18.7803L19.2654 17.1774C19.4807 15.8987 20.0332 14.7007 20.866 13.7067L21.9849 12.3783C22.0036 12.3588 22.0209 12.3381 22.037 12.3164L22.9936 11.1807C23.7009 10.3453 24.6173 9.71253 25.6491 9.34709C26.6809 8.98165 27.7912 8.89658 28.8667 9.10058C29.0756 10.1794 28.9914 11.2945 28.623 12.3297C28.2545 13.365 27.6152 14.2825 26.7716 14.9867ZM26.1563 10.8775C25.9585 10.8775 25.7652 10.9361 25.6007 11.046C25.4363 11.1559 25.3081 11.3121 25.2324 11.4948C25.1567 11.6775 25.1369 11.8786 25.1755 12.0726C25.2141 12.2666 25.3093 12.4447 25.4492 12.5846C25.589 12.7244 25.7672 12.8197 25.9612 12.8583C26.1552 12.8969 26.3562 12.8771 26.539 12.8014C26.7217 12.7257 26.8779 12.5975 26.9878 12.4331C27.0976 12.2686 27.1563 12.0753 27.1563 11.8775C27.1563 11.7462 27.1304 11.6161 27.0802 11.4948C27.0299 11.3735 26.9563 11.2632 26.8634 11.1703C26.7705 11.0775 26.6603 11.0038 26.539 10.9536C26.4176 10.9033 26.2876 10.8775 26.1563 10.8775L26.1563 10.8775Z" fill="white"/>
<path d="M8.07293 23.7242L8.91965 23.1922L8.07293 23.7242ZM65.9271 23.7242L65.0803 23.1922L65.9271 23.7242ZM63.7242 25.9271L63.1922 25.0803L63.7242 25.9271ZM63.7242 4.07293L63.1922 4.91965L63.7242 4.07293ZM65.9271 6.27578L65.0803 6.80781L65.9271 6.27578ZM19 4H55V2H19V4ZM55 26H19V28H55V26ZM19 26C16.6413 26 14.944 25.9989 13.6206 25.8706C12.3126 25.7437 11.4756 25.5 10.8078 25.0803L9.74374 26.7738C10.7835 27.4271 11.9698 27.7198 13.4275 27.8612C14.8699 28.0011 16.6809 28 19 28V26ZM6 15C6 17.3191 5.9989 19.1301 6.13879 20.5725C6.28016 22.0302 6.57289 23.2165 7.22621 24.2563L8.91965 23.1922C8.50004 22.5244 8.2563 21.6874 8.12945 20.3794C8.0011 19.056 8 17.3587 8 15H6ZM10.8078 25.0803C10.0446 24.6008 9.39922 23.9554 8.91965 23.1922L7.22621 24.2563C7.86563 25.2739 8.72611 26.1344 9.74374 26.7738L10.8078 25.0803ZM66 15C66 17.3587 65.9989 19.056 65.8706 20.3794C65.7437 21.6874 65.5 22.5244 65.0803 23.1922L66.7738 24.2563C67.4271 23.2165 67.7198 22.0302 67.8612 20.5725C68.0011 19.1301 68 17.3191 68 15H66ZM55 28C57.3191 28 59.1301 28.0011 60.5725 27.8612C62.0302 27.7198 63.2165 27.4271 64.2563 26.7738L63.1922 25.0803C62.5244 25.5 61.6874 25.7437 60.3794 25.8706C59.056 25.9989 57.3587 26 55 26V28ZM65.0803 23.1922C64.6008 23.9554 63.9554 24.6008 63.1922 25.0803L64.2563 26.7738C65.2739 26.1344 66.1344 25.2739 66.7738 24.2563L65.0803 23.1922ZM55 4C57.3587 4 59.056 4.0011 60.3794 4.12945C61.6874 4.2563 62.5244 4.50004 63.1922 4.91965L64.2563 3.22621C63.2165 2.57289 62.0302 2.28016 60.5725 2.13879C59.1301 1.9989 57.3191 2 55 2V4ZM68 15C68 12.6809 68.0011 10.8699 67.8612 9.42753C67.7198 7.96978 67.4271 6.78348 66.7738 5.74374L65.0803 6.80781C65.5 7.47563 65.7437 8.31256 65.8706 9.62059C65.9989 10.944 66 12.6413 66 15H68ZM63.1922 4.91965C63.9554 5.39922 64.6008 6.04458 65.0803 6.80781L66.7738 5.74374C66.1344 4.72611 65.2739 3.86563 64.2563 3.22621L63.1922 4.91965ZM19 2C16.6809 2 14.8699 1.9989 13.4275 2.13879C11.9698 2.28016 10.7835 2.57289 9.74374 3.22621L10.8078 4.91965C11.4756 4.50004 12.3126 4.2563 13.6206 4.12945C14.944 4.0011 16.6413 4 19 4V2ZM8 15C8 12.6413 8.0011 10.944 8.12945 9.62059C8.2563 8.31256 8.50004 7.47563 8.91965 6.80781L7.22621 5.74374C6.57289 6.78348 6.28016 7.96978 6.13879 9.42753C5.9989 10.8699 6 12.6809 6 15H8ZM9.74374 3.22621C8.72611 3.86563 7.86563 4.72611 7.22621 5.74374L8.91965 6.80781C9.39922 6.04458 10.0446 5.39922 10.8078 4.91965L9.74374 3.22621Z" fill="#757388"/>
</g>
<defs>
<filter id="filter0_d" x="0" y="0" width="74" height="38" filterUnits="userSpaceOnUse" color-interpolation-filters="sRGB">
<feFlood flood-opacity="0" result="BackgroundImageFix"/>
<feColorMatrix in="SourceAlpha" type="matrix" values="0 0 0 0 0 0 0 0 0 0 0 0 0 0 0 0 0 0 127 0"/>
<feOffset dy="4"/>
<feGaussianBlur stdDeviation="3.5"/>
<feColorMatrix type="matrix" values="0 0 0 0 0.0784314 0 0 0 0 0.0745098 0 0 0 0 0.137255 0 0 0 0.2 0"/>
<feBlend mode="normal" in2="BackgroundImageFix" result="effect1_dropShadow"/>
<feBlend mode="normal" in="SourceGraphic" in2="effect1_dropShadow" result="shape"/>
</filter>
<linearGradient id="paint0_linear" x1="37" y1="27" x2="53" y2="3" gradientUnits="userSpaceOnUse">
<stop stop-color="#141323"/>
<stop offset="1" stop-color="#3F3E56"/>
</linearGradient>
</defs>
</svg>
