<svg xmlns="http://www.w3.org/2000/svg" viewBox="0 0 25.202 25.202">
  <path id="qrcode-scan" d="M9.11,24H4.528a1.146,1.146,0,0,1-1.146-1.146V18.274a1.146,1.146,0,1,0-2.291,0v4.582a3.437,3.437,0,0,0,3.437,3.437H9.11A1.146,1.146,0,0,0,9.11,24Zm16.038-6.873A1.146,1.146,0,0,0,24,18.274v4.582A1.146,1.146,0,0,1,22.856,24H18.274a1.146,1.146,0,1,0,0,2.291h4.582a3.437,3.437,0,0,0,3.437-3.437V18.274A1.146,1.146,0,0,0,25.147,17.128ZM22.856,1.091H18.274a1.146,1.146,0,1,0,0,2.291h4.582A1.146,1.146,0,0,1,24,4.528V9.11a1.146,1.146,0,1,0,2.291,0V4.528A3.437,3.437,0,0,0,22.856,1.091ZM2.236,10.255A1.146,1.146,0,0,0,3.382,9.11V4.528A1.146,1.146,0,0,1,4.528,3.382H9.11a1.146,1.146,0,0,0,0-2.291H4.528A3.437,3.437,0,0,0,1.091,4.528V9.11A1.146,1.146,0,0,0,2.236,10.255Z" transform="translate(-1.091 -1.091)" fill="#141323"/>
</svg>
