<svg xmlns="http://www.w3.org/2000/svg" width="40" height="40" viewBox="0 0 40 40"><path d="M20.58,28.58a3.161,3.161,0,0,0-.24.3,1.52,1.52,0,0,0-.18.36,1.28,1.28,0,0,0-.12.36,2.72,2.72,0,0,0,0,.4,1.68,1.68,0,0,0,.16.76,1.8,1.8,0,0,0,1.08,1.08,1.88,1.88,0,0,0,1.52,0,1.8,1.8,0,0,0,1.08-1.08,2.018,2.018,0,0,0-3.3-2.18ZM22,2A20,20,0,1,0,42,22,20,20,0,0,0,22,2Zm0,36A16,16,0,1,1,38,22,16,16,0,0,1,22,38Zm0-26a6,6,0,0,0-5.2,3,2,2,0,1,0,3.46,2A2,2,0,1,1,22,20a2,2,0,0,0-2,2v2a2,2,0,0,0,4,0v-.36A6,6,0,0,0,22,12Z" transform="translate(-2 -2)" fill="#fff"/></svg>