<svg width="24" height="24" viewBox="0 0 24 24" fill="none" xmlns="http://www.w3.org/2000/svg">
<path fill-rule="evenodd" clip-rule="evenodd" d="M16.4899 5.37877C15.0781 4.42138 13.3949 3.93902 11.6859 4.00617C9.89037 4.07672 8.17084 4.74973 6.80443 5.91676C5.43801 7.08378 4.5043 8.67686 4.15373 10.4393C3.80316 12.2017 4.05616 14.0308 4.87196 15.6319C5.68776 17.233 7.01885 18.5128 8.65073 19.2652C10.2826 20.0175 12.1203 20.1985 13.8676 19.779C15.6149 19.3595 17.1701 18.3639 18.2825 16.9528C19.395 15.5416 20 13.797 20 12C20 11.4477 20.4477 11 21 11C21.5523 11 22 11.4477 22 12C22 14.2462 21.2438 16.427 19.8532 18.1909C18.4626 19.9549 16.5186 21.1993 14.3345 21.7237C12.1503 22.2481 9.85328 22.0218 7.81342 21.0814C5.77355 20.141 4.1097 18.5413 3.08995 16.5399C2.0702 14.5385 1.75395 12.2521 2.19216 10.0491C2.63037 7.84607 3.79752 5.85473 5.50553 4.39595C7.21355 2.93716 9.36296 2.0959 11.6074 2.00771C13.8239 1.92063 16.0057 2.573 17.8098 3.86084L17.7799 3.30626C17.7502 2.75478 18.1731 2.2836 18.7246 2.25386C19.2761 2.22411 19.7473 2.64707 19.777 3.19855L19.9372 6.16909C19.9379 6.17743 19.9384 6.1858 19.9389 6.1942C19.9686 6.74568 19.5457 7.21686 18.9942 7.2466L15.9986 7.40817C15.4471 7.43792 14.9759 7.01497 14.9462 6.46348C14.9164 5.912 15.3394 5.44082 15.8908 5.41108L16.4899 5.37877Z" fill="#262433"/>
</svg>
