<svg width="24" height="24" viewBox="0 0 24 24" fill="none" xmlns="http://www.w3.org/2000/svg">
<path fill-rule="evenodd" clip-rule="evenodd" d="M12.3404 6.24247C12.1001 6.47134 11.7105 6.4713 11.4703 6.24247L10.1988 5.03153C9.95849 4.80271 9.95849 4.43173 10.1988 4.2029C10.439 3.97407 10.8286 3.97407 11.0688 4.2029L11.9053 4.9995L13.9312 3.07009C14.1715 2.84126 14.5611 2.84126 14.8013 3.07009C15.0416 3.29892 15.0416 3.66989 14.8013 3.89872L12.3404 6.24247ZM15.5762 9.96875C15.5762 8.35332 14.1962 7.03906 12.5 7.03906C10.8038 7.03906 9.42383 8.35332 9.42383 9.96875C9.42383 11.5842 10.8038 12.8984 12.5 12.8984C14.1962 12.8984 15.5762 11.5842 15.5762 9.96875ZM12.5 11.7266C11.4823 11.7266 10.6543 10.938 10.6543 9.96875C10.6543 8.99949 11.4823 8.21094 12.5 8.21094C13.5177 8.21094 14.3457 8.99949 14.3457 9.96875C14.3457 10.938 13.5177 11.7266 12.5 11.7266ZM18.9455 14.0775C20.1788 13.9569 21.144 12.9618 21.144 11.7559C21.144 10.4689 20.0447 9.42188 18.6934 9.42188C17.3421 9.42188 16.2427 10.4689 16.2427 11.7559C16.2427 12.9626 17.2093 13.9584 18.4438 14.0778C17.7816 14.1137 17.145 14.2924 16.5719 14.6024C14.3733 12.3292 10.6244 12.3317 8.42813 14.6023C7.85498 14.2925 7.21768 14.1138 6.5563 14.0778C7.79079 13.9583 8.75737 12.9626 8.75737 11.7559C8.75737 10.4689 7.65798 9.42188 6.30668 9.42188C4.95538 9.42188 3.856 10.4689 3.856 11.7559C3.856 12.9618 4.82122 13.9569 6.05452 14.0775C3.79673 14.2023 2 15.9909 2 18.1719V19.9297C2 20.2533 2.27546 20.5156 2.61523 20.5156H6.96289C6.96289 20.8392 7.23835 21.1016 7.57812 21.1016H17.4219C17.7616 21.1016 18.0371 20.8392 18.0371 20.5156H22.3848C22.7245 20.5156 23 20.2533 23 19.9297V18.1719C23 15.9909 21.2033 14.2023 18.9455 14.0775ZM17.4731 11.7559C17.4731 11.1151 18.0205 10.5938 18.6934 10.5938C19.3662 10.5938 19.9136 11.1151 19.9136 11.7559C19.9136 12.3966 19.3662 12.918 18.6934 12.918C18.0205 12.918 17.4731 12.3966 17.4731 11.7559ZM5.08643 11.7559C5.08643 11.1151 5.63382 10.5938 6.30664 10.5938C6.97946 10.5938 7.52686 11.1151 7.52686 11.7559C7.52686 12.3966 6.97946 12.918 6.30664 12.918C5.63382 12.918 5.08643 12.3966 5.08643 11.7559ZM3.23047 19.3438V18.1719C3.23047 15.9866 5.66192 14.577 7.69326 15.5564C6.9169 16.8455 6.94621 17.9872 6.96632 18.771C6.97199 18.9919 6.97693 19.1844 6.96289 19.3438H3.23047ZM8.19336 19.9297V18.1719C8.19336 15.9103 10.1253 14.0703 12.5 14.0703C14.8747 14.0703 16.8066 15.9103 16.8066 18.1719V19.9297H8.19336ZM21.7695 19.3438H18.0371C18.0231 19.1853 18.0281 18.9935 18.0338 18.7731C18.0541 17.99 18.0836 16.8462 17.3066 15.5561C19.3361 14.5769 21.7695 15.9858 21.7695 18.1719V19.3438Z" fill="white"/>
<path d="M11.4703 6.24247L11.6427 6.06145L11.6427 6.06143L11.4703 6.24247ZM12.3404 6.24247L12.1679 6.06144L12.1679 6.06145L12.3404 6.24247ZM10.1988 5.03153L10.0263 5.21257L10.0263 5.21257L10.1988 5.03153ZM10.1988 4.2029L10.3712 4.38394V4.38394L10.1988 4.2029ZM11.0688 4.2029L10.8964 4.38392L10.8964 4.38394L11.0688 4.2029ZM11.9053 4.9995L11.7329 5.18054L11.9053 5.34474L12.0777 5.18054L11.9053 4.9995ZM13.9312 3.07009L14.1036 3.25113L14.1036 3.25112L13.9312 3.07009ZM14.8013 3.07009L14.6289 3.25111L14.6289 3.25112L14.8013 3.07009ZM14.8013 3.89872L14.9737 4.07976V4.07976L14.8013 3.89872ZM18.9455 14.0775L18.9212 13.8287L18.9317 14.3272L18.9455 14.0775ZM18.4438 14.0778L18.4574 14.3274L18.4679 13.829L18.4438 14.0778ZM16.5719 14.6024L16.3923 14.7762L16.5241 14.9125L16.6909 14.8223L16.5719 14.6024ZM8.42813 14.6023L8.30924 14.8223L8.47602 14.9124L8.60783 14.7762L8.42813 14.6023ZM6.5563 14.0778L6.53222 13.829L6.54271 14.3274L6.5563 14.0778ZM6.05452 14.0775L6.06832 14.3272L6.07885 13.8287L6.05452 14.0775ZM6.96289 20.5156H7.21289V20.2656H6.96289V20.5156ZM18.0371 20.5156V20.2656H17.7871V20.5156H18.0371ZM3.23047 19.3438H2.98047V19.5938H3.23047V19.3438ZM7.69326 15.5564L7.90742 15.6853L8.04895 15.4503L7.80183 15.3312L7.69326 15.5564ZM6.96632 18.771L6.71641 18.7774L6.96632 18.771ZM6.96289 19.3438V19.5938H7.19182L7.21193 19.3657L6.96289 19.3438ZM8.19336 19.9297H7.94336V20.1797H8.19336V19.9297ZM16.8066 19.9297V20.1797H17.0566V19.9297H16.8066ZM18.0371 19.3438L17.7881 19.3657L17.8082 19.5938H18.0371V19.3438ZM21.7695 19.3438V19.5938H22.0195V19.3438H21.7695ZM18.0338 18.7731L17.7839 18.7666L18.0338 18.7731ZM17.3066 15.5561L17.1979 15.3309L16.9509 15.4501L17.0924 15.6851L17.3066 15.5561ZM11.2979 6.42349C11.6346 6.74428 12.1759 6.74434 12.5128 6.42349L12.1679 6.06145C12.0242 6.19834 11.7864 6.19832 11.6427 6.06145L11.2979 6.42349ZM10.0263 5.21257L11.2979 6.42351L11.6427 6.06143L10.3712 4.8505L10.0263 5.21257ZM10.0263 4.02187C9.68262 4.34922 9.68262 4.88522 10.0263 5.21257L10.3712 4.8505C10.2343 4.72019 10.2343 4.51424 10.3712 4.38394L10.0263 4.02187ZM11.2413 4.02188C10.9045 3.70107 10.3632 3.70109 10.0263 4.02187L10.3712 4.38394C10.5149 4.24705 10.7527 4.24707 10.8964 4.38392L11.2413 4.02188ZM12.0777 4.81846L11.2412 4.02186L10.8964 4.38394L11.7329 5.18054L12.0777 4.81846ZM13.7588 2.88905L11.7329 4.81847L12.0777 5.18054L14.1036 3.25113L13.7588 2.88905ZM14.9737 2.88907C14.6369 2.56826 14.0956 2.56828 13.7588 2.88905L14.1036 3.25112C14.2474 3.11424 14.4852 3.11426 14.6289 3.25111L14.9737 2.88907ZM14.9737 4.07976C15.3174 3.75241 15.3174 3.2164 14.9737 2.88905L14.6289 3.25112C14.7657 3.38143 14.7657 3.58738 14.6289 3.71769L14.9737 4.07976ZM12.5128 6.42351L14.9737 4.07976L14.6289 3.71769L12.1679 6.06144L12.5128 6.42351ZM12.5 7.28906C14.0698 7.28906 15.3262 8.50275 15.3262 9.96875H15.8262C15.8262 8.2039 14.3226 6.78906 12.5 6.78906V7.28906ZM9.67383 9.96875C9.67383 8.50275 10.9302 7.28906 12.5 7.28906V6.78906C10.6774 6.78906 9.17383 8.2039 9.17383 9.96875H9.67383ZM12.5 12.6484C10.9302 12.6484 9.67383 11.4348 9.67383 9.96875H9.17383C9.17383 11.7336 10.6774 13.1484 12.5 13.1484V12.6484ZM15.3262 9.96875C15.3262 11.4348 14.0698 12.6484 12.5 12.6484V13.1484C14.3226 13.1484 15.8262 11.7336 15.8262 9.96875H15.3262ZM10.4043 9.96875C10.4043 11.0874 11.3558 11.9766 12.5 11.9766V11.4766C11.6087 11.4766 10.9043 10.7886 10.9043 9.96875H10.4043ZM12.5 7.96094C11.3558 7.96094 10.4043 8.85007 10.4043 9.96875H10.9043C10.9043 9.14892 11.6087 8.46094 12.5 8.46094V7.96094ZM14.5957 9.96875C14.5957 8.85007 13.6442 7.96094 12.5 7.96094V8.46094C13.3913 8.46094 14.0957 9.14892 14.0957 9.96875H14.5957ZM12.5 11.9766C13.6442 11.9766 14.5957 11.0874 14.5957 9.96875H14.0957C14.0957 10.7886 13.3913 11.4766 12.5 11.4766V11.9766ZM20.894 11.7559C20.894 12.822 20.0379 13.7195 18.9212 13.8287L18.9699 14.3264C20.3198 14.1943 21.394 13.1016 21.394 11.7559H20.894ZM18.6934 9.67188C19.9182 9.67188 20.894 10.6183 20.894 11.7559H21.394C21.394 10.3195 20.1711 9.17188 18.6934 9.17188V9.67188ZM16.4927 11.7559C16.4927 10.6183 17.4685 9.67188 18.6934 9.67188V9.17188C17.2156 9.17188 15.9927 10.3195 15.9927 11.7559H16.4927ZM18.4679 13.829C17.3501 13.7208 16.4927 12.8227 16.4927 11.7559H15.9927C15.9927 13.1025 17.0685 14.1959 18.4197 14.3266L18.4679 13.829ZM16.6909 14.8223C17.2309 14.5302 17.8315 14.3614 18.4574 14.3274L18.4303 13.8282C17.7318 13.8661 17.059 14.0547 16.453 14.3825L16.6909 14.8223ZM8.60783 14.7762C10.7059 12.607 14.2919 12.6047 16.3923 14.7762L16.7516 14.4286C14.4547 12.0537 10.5428 12.0564 8.24844 14.4285L8.60783 14.7762ZM6.54271 14.3274C7.16782 14.3615 7.76909 14.5303 8.30924 14.8223L8.54702 14.3824C7.94087 14.0547 7.26754 13.8662 6.5699 13.8282L6.54271 14.3274ZM8.50737 11.7559C8.50737 12.8227 7.64997 13.7208 6.53222 13.829L6.58039 14.3266C7.93161 14.1959 9.00737 13.1025 9.00737 11.7559H8.50737ZM6.30668 9.67188C7.53155 9.67188 8.50737 10.6183 8.50737 11.7559H9.00737C9.00737 10.3195 7.78442 9.17188 6.30668 9.17188V9.67188ZM4.106 11.7559C4.106 10.6183 5.08182 9.67188 6.30668 9.67188V9.17188C4.82894 9.17188 3.606 10.3195 3.606 11.7559H4.106ZM6.07885 13.8287C4.96218 13.7195 4.106 12.822 4.106 11.7559H3.606C3.606 13.1016 4.68026 14.1943 6.03018 14.3264L6.07885 13.8287ZM2.25 18.1719C2.25 16.1349 3.93147 14.4453 6.06832 14.3272L6.04072 13.8279C3.66199 13.9594 1.75 15.8469 1.75 18.1719H2.25ZM2.25 19.9297V18.1719H1.75V19.9297H2.25ZM2.61523 20.2656C2.4019 20.2656 2.25 20.1039 2.25 19.9297H1.75C1.75 20.4027 2.14902 20.7656 2.61523 20.7656V20.2656ZM6.96289 20.2656H2.61523V20.7656H6.96289V20.2656ZM7.57812 20.8516C7.36479 20.8516 7.21289 20.6898 7.21289 20.5156H6.71289C6.71289 20.9886 7.11191 21.3516 7.57812 21.3516V20.8516ZM17.4219 20.8516H7.57812V21.3516H17.4219V20.8516ZM17.7871 20.5156C17.7871 20.6898 17.6352 20.8516 17.4219 20.8516V21.3516C17.8881 21.3516 18.2871 20.9886 18.2871 20.5156H17.7871ZM22.3848 20.2656H18.0371V20.7656H22.3848V20.2656ZM22.75 19.9297C22.75 20.1039 22.5981 20.2656 22.3848 20.2656V20.7656C22.851 20.7656 23.25 20.4027 23.25 19.9297H22.75ZM22.75 18.1719V19.9297H23.25V18.1719H22.75ZM18.9317 14.3272C21.0685 14.4453 22.75 16.1349 22.75 18.1719H23.25C23.25 15.8469 21.338 13.9594 18.9593 13.8279L18.9317 14.3272ZM18.6934 10.3438C17.8941 10.3438 17.2231 10.9657 17.2231 11.7559H17.7231C17.7231 11.2645 18.147 10.8438 18.6934 10.8438V10.3438ZM20.1636 11.7559C20.1636 10.9657 19.4926 10.3438 18.6934 10.3438V10.8438C19.2397 10.8438 19.6636 11.2645 19.6636 11.7559H20.1636ZM18.6934 13.168C19.4926 13.168 20.1636 12.5461 20.1636 11.7559H19.6636C19.6636 12.2472 19.2397 12.668 18.6934 12.668V13.168ZM17.2231 11.7559C17.2231 12.5461 17.8941 13.168 18.6934 13.168V12.668C18.147 12.668 17.7231 12.2472 17.7231 11.7559H17.2231ZM6.30664 10.3438C5.50738 10.3438 4.83643 10.9657 4.83643 11.7559H5.33643C5.33643 11.2645 5.76026 10.8438 6.30664 10.8438V10.3438ZM7.77686 11.7559C7.77686 10.9657 7.1059 10.3438 6.30664 10.3438V10.8438C6.85302 10.8438 7.27686 11.2645 7.27686 11.7559H7.77686ZM6.30664 13.168C7.1059 13.168 7.77686 12.5461 7.77686 11.7559H7.27686C7.27686 12.2472 6.85302 12.668 6.30664 12.668V13.168ZM4.83643 11.7559C4.83643 12.5461 5.50738 13.168 6.30664 13.168V12.668C5.76026 12.668 5.33643 12.2472 5.33643 11.7559H4.83643ZM2.98047 18.1719V19.3438H3.48047V18.1719H2.98047ZM7.80183 15.3312C5.62292 14.2806 2.98047 15.7823 2.98047 18.1719H3.48047C3.48047 16.1909 5.70091 14.8733 7.58468 15.7816L7.80183 15.3312ZM7.21624 18.7646C7.19631 17.9881 7.17039 16.9092 7.90742 15.6853L7.47909 15.4274C6.66342 16.7818 6.6961 17.9864 6.71641 18.7774L7.21624 18.7646ZM7.21193 19.3657C7.22749 19.1891 7.22179 18.9807 7.21624 18.7646L6.71641 18.7774C6.7222 19.0032 6.72638 19.1797 6.71386 19.3218L7.21193 19.3657ZM3.23047 19.5938H6.96289V19.0938H3.23047V19.5938ZM7.94336 18.1719V19.9297H8.44336V18.1719H7.94336ZM12.5 13.8203C9.99888 13.8203 7.94336 15.7608 7.94336 18.1719H8.44336C8.44336 16.0597 10.2518 14.3203 12.5 14.3203V13.8203ZM17.0566 18.1719C17.0566 15.7608 15.0011 13.8203 12.5 13.8203V14.3203C14.7482 14.3203 16.5566 16.0597 16.5566 18.1719H17.0566ZM17.0566 19.9297V18.1719H16.5566V19.9297H17.0566ZM8.19336 20.1797H16.8066V19.6797H8.19336V20.1797ZM18.0371 19.5938H21.7695V19.0938H18.0371V19.5938ZM17.7839 18.7666C17.7783 18.9822 17.7726 19.19 17.7881 19.3657L18.2861 19.3218C18.2737 19.1806 18.2779 19.0048 18.2837 18.7795L17.7839 18.7666ZM17.0924 15.6851C17.8301 16.9098 17.8039 17.9908 17.7839 18.7666L18.2837 18.7795C18.3042 17.9892 18.3371 16.7825 17.5207 15.4271L17.0924 15.6851ZM22.0195 18.1719C22.0195 15.7814 19.375 14.2806 17.1979 15.3309L17.4152 15.7813C19.2972 14.8733 21.5195 16.1902 21.5195 18.1719H22.0195ZM22.0195 19.3438V18.1719H21.5195V19.3438H22.0195Z" fill="white"/>
</svg>
