<svg xmlns="http://www.w3.org/2000/svg" width="25" height="25" viewBox="0 0 25 25" fill="#fff"><path d="M26.15,11.438l-2.362-.788L24.9,8.425A1.25,1.25,0,0,0,24.662,7L22,4.338A1.25,1.25,0,0,0,20.563,4.1L18.338,5.213,17.55,2.85A1.25,1.25,0,0,0,16.375,2h-3.75a1.25,1.25,0,0,0-1.187.85L10.65,5.213,8.425,4.1A1.25,1.25,0,0,0,7,4.338L4.338,7A1.25,1.25,0,0,0,4.1,8.438l1.112,2.225L2.85,11.45A1.25,1.25,0,0,0,2,12.625v3.75a1.25,1.25,0,0,0,.85,1.188l2.363.788L4.1,20.575A1.25,1.25,0,0,0,4.338,22L7,24.662a1.25,1.25,0,0,0,1.438.238l2.225-1.112.788,2.362a1.25,1.25,0,0,0,1.188.85h3.75a1.25,1.25,0,0,0,1.188-.85l.787-2.362L20.588,24.9A1.25,1.25,0,0,0,22,24.662L24.662,22a1.25,1.25,0,0,0,.238-1.437l-1.112-2.225,2.362-.788A1.25,1.25,0,0,0,27,16.375v-3.75a1.25,1.25,0,0,0-.85-1.188ZM24.5,15.475l-1.5.5A2.5,2.5,0,0,0,21.55,19.5l.712,1.425L20.887,22.3,19.5,21.55A2.5,2.5,0,0,0,16.012,23l-.5,1.5H13.525l-.5-1.5A2.5,2.5,0,0,0,9.5,21.55l-1.425.712L6.7,20.887,7.45,19.5A2.5,2.5,0,0,0,6,15.975l-1.5-.5v-1.95l1.5-.5A2.5,2.5,0,0,0,7.45,9.5L6.738,8.113,8.113,6.738,9.5,7.45A2.5,2.5,0,0,0,13.025,6l.5-1.5h1.95l.5,1.5A2.5,2.5,0,0,0,19.5,7.45l1.425-.712L22.3,8.113,21.55,9.5A2.5,2.5,0,0,0,23,12.988l1.5.5ZM14.5,9.5a5,5,0,1,0,5,5A5,5,0,0,0,14.5,9.5Zm0,7.5A2.5,2.5,0,1,1,17,14.5,2.5,2.5,0,0,1,14.5,17Z" transform="translate(-2 -2)" /></svg>