<svg xmlns="http://www.w3.org/2000/svg" fill="#fff" width="16" height="16" viewBox="0 0 24 24"><path d="M21.195,16.383A4.8,4.8,0,0,0,17.5,18.156l-6.118-2.815a4.356,4.356,0,0,0,0-2.708L17.5,9.818A4.79,4.79,0,1,0,16.4,6.8a4.989,4.989,0,0,0,.084.851L10.146,10.56a4.8,4.8,0,1,0,0,6.853l6.334,2.911a4.989,4.989,0,0,0-.084.851,4.8,4.8,0,1,0,4.8-4.792Zm0-11.98a2.4,2.4,0,1,1-2.4,2.4A2.4,2.4,0,0,1,21.195,4.4ZM6.8,16.383a2.4,2.4,0,1,1,2.4-2.4A2.4,2.4,0,0,1,6.8,16.383Zm14.4,7.188a2.4,2.4,0,1,1,2.4-2.4A2.4,2.4,0,0,1,21.195,23.571Z" transform="translate(-1.994 -1.967)" /></svg>