<svg width="30" height="30" viewBox="0 0 30 30" fill="none" xmlns="http://www.w3.org/2000/svg">
<circle cx="15" cy="15" r="15" fill="#0078FF"/>
<path d="M18.9991 16.3333C18.6052 16.3359 18.2168 16.4257 17.8618 16.5963C17.5068 16.7669 17.1939 17.0141 16.9458 17.32L13.5458 15.7533C13.7056 15.2638 13.7056 14.7361 13.5458 14.2466L16.9458 12.68C17.3469 13.1639 17.906 13.4907 18.5246 13.6025C19.1431 13.7144 19.7813 13.6041 20.3264 13.2912C20.8716 12.9784 21.2887 12.4829 21.5042 11.8925C21.7196 11.302 21.7196 10.6544 21.504 10.0639C21.2884 9.47345 20.8712 8.97813 20.326 8.66534C19.7808 8.35256 19.1426 8.24243 18.5241 8.35438C17.9056 8.46633 17.3465 8.79318 16.9455 9.27723C16.5445 9.76128 16.3274 10.3714 16.3325 11C16.3345 11.1588 16.3501 11.3171 16.3791 11.4733L12.8591 13.0933C12.4838 12.7264 12.0086 12.4783 11.493 12.3802C10.9774 12.2822 10.4443 12.3385 9.96049 12.5421C9.47671 12.7456 9.06377 13.0874 8.77339 13.5247C8.48302 13.9619 8.32812 14.4751 8.32812 15C8.32812 15.5248 8.48302 16.038 8.77339 16.4753C9.06377 16.9125 9.47671 17.2543 9.96049 17.4579C10.4443 17.6615 10.9774 17.7177 11.493 17.6197C12.0086 17.5216 12.4838 17.2736 12.8591 16.9066L16.3791 18.5266C16.3501 18.6828 16.3345 18.8411 16.3325 19C16.3325 19.5274 16.4889 20.043 16.7819 20.4815C17.0749 20.92 17.4914 21.2618 17.9786 21.4636C18.4659 21.6655 19.0021 21.7183 19.5194 21.6154C20.0366 21.5125 20.5118 21.2585 20.8847 20.8856C21.2577 20.5126 21.5117 20.0375 21.6146 19.5202C21.7174 19.0029 21.6646 18.4667 21.4628 17.9795C21.261 17.4922 20.9192 17.0757 20.4806 16.7827C20.0421 16.4897 19.5265 16.3333 18.9991 16.3333ZM18.9991 9.66663C19.2628 9.66663 19.5206 9.74483 19.7399 9.89134C19.9591 10.0378 20.13 10.2461 20.231 10.4897C20.3319 10.7334 20.3583 11.0014 20.3068 11.2601C20.2554 11.5187 20.1284 11.7563 19.9419 11.9428C19.7555 12.1292 19.5179 12.2562 19.2592 12.3077C19.0006 12.3591 18.7325 12.3327 18.4889 12.2318C18.2452 12.1309 18.037 11.96 17.8905 11.7407C17.744 11.5215 17.6658 11.2637 17.6658 11C17.6658 10.6463 17.8063 10.3072 18.0563 10.0572C18.3064 9.80711 18.6455 9.66663 18.9991 9.66663ZM10.9991 16.3333C10.7354 16.3333 10.4776 16.2551 10.2584 16.1086C10.0391 15.9621 9.8682 15.7538 9.76728 15.5102C9.66637 15.2666 9.63996 14.9985 9.69141 14.7398C9.74286 14.4812 9.86984 14.2436 10.0563 14.0572C10.2428 13.8707 10.4804 13.7437 10.739 13.6923C10.9976 13.6408 11.2657 13.6672 11.5094 13.7681C11.753 13.869 11.9612 14.0399 12.1077 14.2592C12.2543 14.4785 12.3325 14.7363 12.3325 15C12.3325 15.3536 12.192 15.6927 11.9419 15.9428C11.6919 16.1928 11.3527 16.3333 10.9991 16.3333ZM18.9991 20.3333C18.7354 20.3333 18.4776 20.2551 18.2584 20.1086C18.0391 19.9621 17.8682 19.7538 17.7673 19.5102C17.6664 19.2666 17.64 18.9985 17.6914 18.7398C17.7429 18.4812 17.8698 18.2436 18.0563 18.0572C18.2428 17.8707 18.4804 17.7437 18.739 17.6923C18.9976 17.6408 19.2657 17.6672 19.5094 17.7681C19.753 17.869 19.9612 18.0399 20.1077 18.2592C20.2543 18.4785 20.3325 18.7363 20.3325 19C20.3325 19.3536 20.192 19.6927 19.9419 19.9428C19.6919 20.1928 19.3527 20.3333 18.9991 20.3333Z" fill="white"/>
</svg>
