<svg width="674" height="611" viewBox="0 0 674 611" fill="none" xmlns="http://www.w3.org/2000/svg">
<g style="mix-blend-mode:overlay">
    <g style="mix-blend-mode:multiply" filter="url(#filter0_f)">
        <ellipse cx="236.732" cy="523.806" rx="156.851" ry="12.0654" fill="#9C9C9C"/>
    </g>
    <g style="mix-blend-mode:multiply" filter="url(#filter1_f)">
        <ellipse cx="250.046" cy="515.901" rx="59.4951" ry="7.48889" fill="#9C9C9C"/>
    </g>
    <g style="mix-blend-mode:multiply" opacity="0.5" filter="url(#filter2_f)">
        <path d="M431.479 437.112C431.635 435.455 424.902 433.468 416.441 432.675C407.98 431.881 400.995 432.581 400.84 434.237C400.684 435.894 407.417 437.881 415.878 438.675C424.339 439.469 431.324 438.769 431.479 437.112Z" fill="#4B5663"/>
    </g>
    <g style="mix-blend-mode:multiply" opacity="0.75" filter="url(#filter3_f)">
        <path d="M502.61 488.328C502.909 484.646 488.66 480.483 470.782 479.029C452.905 477.575 438.169 479.38 437.87 483.062C437.57 486.743 451.82 490.907 469.698 492.361C487.575 493.815 502.31 492.009 502.61 488.328Z" fill="#4B5663"/>
    </g>
    <g style="mix-blend-mode:multiply" opacity="0.75" filter="url(#filter4_f)">
        <path d="M396.323 519.257C396.194 515.565 381.558 513.079 363.633 513.704C345.707 514.328 331.28 517.827 331.408 521.518C331.537 525.21 346.173 527.696 364.098 527.071C382.024 526.447 396.451 522.948 396.323 519.257Z" fill="#4B5663"/>
    </g>
    <g style="mix-blend-mode:multiply" opacity="0.4" filter="url(#filter5_f)">
        <path d="M376.153 521.737C376.214 513.997 301.397 507.133 209.045 506.404C116.693 505.675 41.7766 511.358 41.7156 519.098C41.6545 526.837 116.471 533.702 208.824 534.431C301.176 535.159 376.092 529.476 376.153 521.737Z" fill="#4B5663"/>
    </g>
    <g style="mix-blend-mode:multiply" opacity="0.75" filter="url(#filter6_f)">
        <path d="M435.432 517.593C435.303 513.901 420.667 511.415 402.742 512.039C384.816 512.664 370.389 516.162 370.517 519.854C370.646 523.545 385.282 526.032 403.207 525.407C421.133 524.783 435.56 521.284 435.432 517.593Z" fill="#4B5663"/>
    </g>    
    <g style="mix-blend-mode:multiply" opacity="0.75" filter="url(#filter7_f)">
        <path d="M561.305 483.004C560.784 480.493 546.124 481.412 528.562 485.057C511 488.702 497.186 493.693 497.707 496.204C498.228 498.716 512.888 497.796 530.45 494.151C548.012 490.506 561.826 485.515 561.305 483.004Z" fill="#4B5663"/>
    </g>
    <g style="mix-blend-mode:multiply" opacity="0.75" filter="url(#filter8_f)">
        <path d="M625.27 488.852C625.48 486.272 614.477 483.272 600.695 482.151C586.913 481.03 575.57 482.213 575.36 484.793C575.15 487.373 586.153 490.373 599.935 491.494C613.717 492.615 625.06 491.433 625.27 488.852Z" fill="#4B5663"/>
    </g>
    <g style="mix-blend-mode:multiply" opacity="0.75" filter="url(#filter9_f)">
        <path d="M457.307 435.597C457.497 437.038 450.101 439.206 440.754 440.437C431.407 441.669 423.723 441.492 423.513 440.044C423.304 438.597 430.719 436.429 440.066 435.204C449.414 433.979 457.117 434.142 457.307 435.597Z" fill="#4B5663"/>
    </g>
    <g style="mix-blend-mode:multiply" filter="url(#filter10_f)">
        <path d="M466.489 433.071C466.679 434.512 459.284 436.681 449.936 437.912C440.589 439.144 432.905 438.967 432.696 437.519C432.486 436.071 439.901 433.903 449.249 432.678C458.596 431.453 466.299 431.617 466.489 433.071Z" fill="#4B5663"/>
    </g>    
    <path d="M400.561 269.655L389.772 240.172L361.01 236.576L371.798 267.5L400.561 269.655Z" fill="white"/>
    <path d="M352.383 286.909L342.315 256.712L361.009 236.576L371.798 267.5L352.383 286.909Z" fill="url(#paint0_linear)"/>
    <path d="M352.383 286.909L380.425 289.071L400.561 269.655L371.798 267.5L352.383 286.909Z" fill="url(#paint1_linear)"/>
    <path d="M377.032 278.184C376.927 278.424 376.769 278.639 376.571 278.811C376.373 278.983 376.138 279.109 375.885 279.179C375.401 279.291 375.132 279.035 375.276 278.61C375.381 278.369 375.539 278.155 375.737 277.982C375.935 277.81 376.169 277.684 376.422 277.614C376.888 277.503 377.182 277.732 377.032 278.184Z" fill="url(#paint2_linear)"/>
    <path d="M488.991 369.712C488.987 369.826 489.024 369.938 489.097 370.026C489.169 370.114 489.271 370.172 489.384 370.19C489.437 370.197 489.491 370.194 489.542 370.179C489.594 370.164 489.641 370.138 489.682 370.104C489.723 370.069 489.756 370.026 489.779 369.978C489.802 369.93 489.814 369.877 489.816 369.824C489.821 369.711 489.784 369.6 489.713 369.512C489.642 369.424 489.541 369.365 489.43 369.346C489.376 369.339 489.322 369.342 489.27 369.357C489.219 369.372 489.171 369.398 489.129 369.432C489.088 369.467 489.055 369.509 489.031 369.558C489.007 369.606 488.994 369.659 488.991 369.712Z" fill="url(#paint3_linear)"/>
    <path d="M211.627 220.245L218.99 246.735L240.325 234.224L232.969 208.474L211.627 220.245Z" fill="url(#paint4_linear)"/>
    <path d="M232.969 208.474L249.155 212.889L255.777 238.639L240.325 234.224L232.969 208.474Z" fill="white"/>
    <path d="M218.99 246.735L234.443 249.676L255.777 238.639L240.325 234.224L218.99 246.735Z" fill="url(#paint5_linear)"/>
    <path d="M238.202 242.766C238.088 242.919 237.94 243.043 237.77 243.128C237.599 243.214 237.411 243.258 237.22 243.257C236.879 243.224 236.768 242.962 236.971 242.661C237.085 242.507 237.235 242.383 237.407 242.299C237.579 242.215 237.768 242.173 237.96 242.176C238.301 242.203 238.412 242.465 238.202 242.766Z" fill="url(#paint6_linear)"/>
    <path d="M98.4886 124.289L112.703 85.4381L150.61 80.6956L136.396 121.446L98.4886 124.289Z" fill="url(#paint7_linear)"/>
    <path d="M161.982 147.032L175.253 107.231L150.61 80.6956L136.396 121.446L161.982 147.032Z" fill="white"/>
    <path d="M161.982 147.032L125.024 149.874L98.4886 124.289L136.396 121.446L161.982 147.032Z" fill="url(#paint8_linear)"/>
    <path d="M131.247 135.509C131.752 136.001 131.621 136.472 130.953 136.564C130.567 136.588 130.18 136.535 129.815 136.41C129.45 136.284 129.113 136.087 128.824 135.83C128.313 135.346 128.444 134.874 129.118 134.782C129.896 134.736 130.661 134.997 131.247 135.509Z" fill="url(#paint9_linear)"/>
    <path d="M238.268 411.098C236.742 411.126 235.241 410.7 233.958 409.873C222.377 402.301 228.062 360.693 233.617 320.46C238.248 286.732 242.604 254.884 237.364 242.936C237.328 242.857 237.326 242.767 237.356 242.686C237.387 242.605 237.449 242.539 237.528 242.504C237.567 242.485 237.609 242.475 237.652 242.473C237.695 242.471 237.738 242.478 237.779 242.494C237.819 242.509 237.856 242.532 237.887 242.562C237.918 242.592 237.943 242.628 237.96 242.668C243.325 254.786 238.936 286.732 234.292 320.545C228.796 360.581 223.104 401.98 234.344 409.323C237.416 411.334 241.779 410.633 247.301 407.253C247.376 407.209 247.465 407.196 247.549 407.217C247.634 407.238 247.707 407.291 247.753 407.364C247.775 407.401 247.79 407.442 247.797 407.485C247.804 407.528 247.802 407.572 247.791 407.614C247.781 407.656 247.763 407.695 247.737 407.73C247.711 407.765 247.679 407.794 247.641 407.816C244.045 410.004 240.914 411.098 238.268 411.098Z" fill="white"/>
<path d="M332.79 416.987C332.697 416.988 332.605 416.962 332.526 416.912C332.447 416.862 332.384 416.79 332.345 416.705C332.317 416.647 332.301 416.584 332.298 416.519C332.295 416.454 332.305 416.39 332.327 416.329C332.349 416.268 332.382 416.212 332.426 416.164C332.469 416.116 332.522 416.078 332.581 416.05C351.944 407.135 366.25 394.368 375.119 378.104C382.213 365.095 385.862 349.819 385.966 332.709C386.143 303.534 375.807 278.832 375.702 278.59C375.676 278.53 375.662 278.465 375.661 278.4C375.66 278.334 375.673 278.269 375.697 278.208C375.721 278.147 375.757 278.092 375.803 278.045C375.849 277.998 375.904 277.961 375.964 277.935C376.024 277.908 376.089 277.894 376.155 277.892C376.22 277.891 376.286 277.903 376.347 277.927C376.408 277.952 376.464 277.988 376.51 278.035C376.557 278.081 376.594 278.136 376.619 278.197C376.724 278.446 387.139 303.331 386.962 332.709C386.857 349.983 383.169 365.416 375.997 378.562C367.023 395.01 352.559 407.921 333.006 416.935C332.939 416.966 332.865 416.984 332.79 416.987Z" fill="white"/>
<path d="M132.04 302.964L154.809 407.338L53.2844 528.789L41.8998 524.04L34.3079 424.415L132.04 302.964Z" fill="url(#paint10_linear)"/>
<path d="M132.04 302.964L154.809 407.338L301.879 472.803L274.361 374.128L132.04 302.964Z" fill="url(#paint11_linear)"/>
<path d="M154.809 407.338L53.2842 528.789L301.879 509.806V472.803L154.809 407.338Z" fill="url(#paint12_linear)"/>
<path d="M314.213 374.128L279.11 432.007L274.361 374.128H314.213Z" fill="url(#paint13_linear)"/>
<path d="M314.213 374.128L420.481 462.368L403.404 494.629L297.909 458.575L292.06 437.594L279.11 432.007L314.213 374.128Z" fill="url(#paint14_linear)"/>
<g style="mix-blend-mode:multiply" opacity="0.5" filter="url(#filter11_f)">
<path d="M326.325 514.772C350.618 509.895 365.582 482.385 359.749 453.324C353.916 424.264 329.494 404.66 305.201 409.536C280.908 414.412 265.943 441.923 271.776 470.983C277.61 500.043 302.032 519.648 326.325 514.772Z" fill="#57667A"/>
</g>
<g style="mix-blend-mode:multiply" opacity="0.5" filter="url(#filter12_f)">
<path d="M415.732 491.438C423.745 479.215 412.777 457.856 391.233 443.731C369.689 429.606 345.727 428.064 337.714 440.287C329.7 452.51 340.669 473.869 362.213 487.994C383.757 502.119 407.718 503.661 415.732 491.438Z" fill="#57667A"/>
</g>
<g filter="url(#filter13_f)">
<path d="M479.998 366.385L484.301 354.634L495.764 353.199L491.467 365.527L479.998 366.385Z" fill="url(#paint15_linear)"/>
<path d="M499.203 373.27L503.219 361.23L495.764 353.199L491.467 365.527L499.203 373.27Z" fill="url(#paint16_linear)"/>
<path d="M499.203 373.27L488.028 374.128L479.998 366.385L491.467 365.527L499.203 373.27Z" fill="url(#paint17_linear)"/>
<path d="M435.664 416.725C435.604 416.725 435.545 416.701 435.502 416.658C435.459 416.615 435.435 416.556 435.435 416.496C435.435 395.351 449.191 392.574 462.449 389.894C474.24 387.517 486.417 385.054 489.116 369.726C489.121 369.696 489.132 369.668 489.149 369.642C489.165 369.617 489.187 369.595 489.212 369.578C489.237 369.561 489.265 369.549 489.294 369.543C489.324 369.537 489.355 369.537 489.384 369.542C489.414 369.547 489.442 369.558 489.467 369.573C489.492 369.589 489.514 369.61 489.531 369.634C489.548 369.659 489.561 369.687 489.567 369.716C489.573 369.745 489.573 369.775 489.568 369.804C486.816 385.44 474.502 387.936 462.541 390.346C448.837 393.111 435.894 395.724 435.894 416.496C435.894 416.556 435.869 416.615 435.826 416.658C435.783 416.701 435.725 416.725 435.664 416.725Z" fill="white"/>
<path d="M400.561 435.8L409.096 405.439L447.049 400.696L435.664 439.599L400.561 435.8Z" fill="url(#paint18_linear)"/>
<path d="M466.975 432.957L468.875 425.365L447.049 400.696L435.664 439.599L466.975 432.957Z" fill="url(#paint19_linear)"/>
</g>
<path d="M440.407 484.194L468.875 432.957L509.678 478.495L499.236 494.629L440.407 484.194Z" fill="url(#paint20_linear)"/>
<path d="M559.965 480.395L519.162 436.75L468.875 432.957L509.677 478.495L559.965 480.395Z" fill="url(#paint21_linear)"/>
<path d="M559.965 480.395L556.166 486.087L499.236 494.629L509.677 478.495L559.965 480.395Z" fill="url(#paint22_linear)"/>
<path d="M577.992 483.244L589.376 489.887L599.811 456.676L583.684 465.218L577.992 483.244Z" fill="url(#paint23_linear)"/>
<path d="M632.072 471.86L627.329 487.037L589.376 489.887L599.811 456.676L632.072 471.86Z" fill="url(#paint24_linear)"/>
<g style="mix-blend-mode:multiply" opacity="0.5" filter="url(#filter14_f)">
<path d="M273.417 523.732C298.969 523.732 319.683 510.183 319.683 493.47C319.683 476.756 298.969 463.207 273.417 463.207C247.866 463.207 227.152 476.756 227.152 493.47C227.152 510.183 247.866 523.732 273.417 523.732Z" fill="#2A313B"/>
</g>
<path d="M253.491 490.836L276.26 483.244L304.728 525.94L260.133 512.656L253.491 490.836Z" fill="url(#paint25_linear)"/>
<path d="M276.26 483.244L349.324 426.315L380.634 471.86L352.166 520.248L304.728 525.94L276.26 483.244Z" fill="url(#paint26_linear)"/>
<path d="M349.323 426.315L318.956 437.699L296.901 454.96L297.909 458.576L289.544 467.111L253.491 490.836L276.26 483.244L349.323 426.315Z" fill="url(#paint27_linear)"/>
<path d="M336.039 490.836L372.093 498.422L380.634 525.94L352.166 520.248L336.039 490.836Z" fill="url(#paint28_linear)"/>
<path d="M372.093 498.422L408.146 471.86L420.481 517.398L380.634 525.94L372.093 498.422Z" fill="url(#paint29_linear)"/>
<path d="M408.146 471.86L376.953 466.501L336.039 490.836L372.093 498.422L408.146 471.86Z" fill="url(#paint30_linear)"/>
<g style="mix-blend-mode:multiply" opacity="0.2" filter="url(#filter15_f)">
<path d="M232.928 418.203C238.717 412.59 226.254 390.347 205.091 368.524C183.928 346.701 162.079 333.561 156.29 339.174C150.501 344.788 162.964 367.03 184.127 388.853C205.29 410.677 227.139 423.817 232.928 418.203Z" fill="#4B5663"/>
</g>
<g style="mix-blend-mode:multiply" opacity="0.3" filter="url(#filter16_f)">
<path d="M225.337 409.513C222.383 412.375 208.621 402.963 194.603 388.552C180.585 374.141 171.611 360.044 174.565 357.182C177.519 354.319 191.282 363.732 205.3 378.143C219.318 392.554 228.292 406.644 225.337 409.513Z" fill="#2A313B"/>
</g>
<g style="mix-blend-mode:multiply" opacity="0.75" filter="url(#filter17_f)">
<path d="M199.372 384.084C196.751 386.344 185.164 377.233 173.458 363.732C161.753 350.232 154.37 337.465 156.971 335.205C159.571 332.945 171.205 342.057 182.91 355.557C194.616 369.058 201.992 381.831 199.372 384.084Z" fill="#2A313B"/>
</g>
<g style="mix-blend-mode:multiply" opacity="0.75" filter="url(#filter18_f)">
<path d="M277.503 422.723C280.696 415.603 264.383 401.356 241.068 390.902C217.752 380.448 196.263 377.746 193.071 384.866C189.878 391.987 206.191 406.233 229.507 416.687C252.822 427.141 274.311 429.844 277.503 422.723Z" fill="#4B5663"/>
</g>
<g style="mix-blend-mode:multiply" opacity="0.4" filter="url(#filter19_f)">
<path d="M288.855 425.055C292.047 417.934 275.735 403.687 252.419 393.233C229.104 382.78 207.615 380.077 204.422 387.198C201.23 394.318 217.543 408.565 240.858 419.019C264.173 429.473 285.662 432.175 288.855 425.055Z" fill="#57667A"/>
</g>
<path d="M158.602 342.817L214.588 406.388L195.612 346.609L158.602 342.817Z" fill="url(#paint31_linear)"/>
<path d="M259.183 313.399L195.612 346.609L158.602 342.817L160.501 335.225L209.846 311.506L259.183 313.399Z" fill="white"/>
<g style="mix-blend-mode:multiply" opacity="0.1" filter="url(#filter20_f)">
<path d="M262.735 415.543C266.009 408.277 259.21 398.128 247.549 392.875C235.888 387.621 223.782 389.252 220.508 396.518C217.235 403.783 224.034 413.932 235.694 419.186C247.355 424.44 259.462 422.809 262.735 415.543Z" fill="#57667A"/>
</g>
<g filter="url(#filter21_f)">
<g style="mix-blend-mode:multiply" opacity="0.5">
<path d="M254.533 417.052C253.602 419.758 243.063 418.566 230.997 414.393C218.931 410.22 209.911 404.652 210.841 401.947C211.771 399.242 222.318 400.441 234.377 404.613C246.436 408.786 255.469 414.354 254.533 417.052Z" fill="#2A313B"/>
</g>
</g>
<g style="mix-blend-mode:multiply" opacity="0.1" filter="url(#filter22_f)">
<path d="M259.448 419.619C261.626 415.244 254.128 407.084 242.699 401.393C231.271 395.703 220.24 394.636 218.062 399.012C215.883 403.387 223.382 411.547 234.81 417.237C246.239 422.928 257.269 423.994 259.448 419.619Z" fill="#57667A"/>
</g>
<path d="M259.183 313.399L281.953 387.412L235.458 413.98L214.588 406.388L195.612 346.609L259.183 313.399Z" fill="url(#paint32_linear)"/>
<path d="M95.6066 414.02C95.0301 414.969 94.1917 415.651 93.7463 415.539C93.3008 415.428 93.3991 414.583 93.9755 413.633C94.552 412.683 95.3904 412.009 95.8424 412.114C96.2944 412.218 96.1896 413.07 95.6066 414.02Z" fill="url(#paint33_linear)"/>
<g style="mix-blend-mode:multiply" opacity="0.51">
<path d="M35.6833 442.442C44.1989 438.348 82.748 419.686 94.4798 413.253L95.1348 414.399C83.1476 420.95 43.2556 440.254 35.8144 443.876L35.6833 442.442Z" fill="#57667A"/>
</g>
<path d="M94.7944 414.485C94.7062 414.484 94.6189 414.466 94.5379 414.431C94.4568 414.396 94.3837 414.346 94.3228 414.282C53.3041 371.77 36.8233 331.091 43.9436 289.902C50.1403 254.052 73.3746 222.708 93.8708 195.026C109.251 174.255 123.787 154.637 129.177 135.948C129.201 135.865 129.241 135.787 129.294 135.72C129.348 135.652 129.414 135.595 129.49 135.553C129.565 135.511 129.648 135.485 129.734 135.475C129.82 135.465 129.907 135.472 129.99 135.496C130.157 135.545 130.297 135.658 130.381 135.81C130.464 135.962 130.484 136.142 130.435 136.309C124.979 155.226 110.378 174.956 94.9189 195.806C74.5144 223.357 51.3783 254.583 45.234 290.132C38.1923 330.875 54.5553 371.193 95.266 413.378C95.3566 413.47 95.4177 413.587 95.4418 413.714C95.4659 413.841 95.4519 413.973 95.4014 414.092C95.351 414.211 95.2664 414.312 95.1584 414.383C95.0504 414.454 94.9237 414.492 94.7944 414.491V414.485Z" fill="white"/>
<path d="M515.501 456.676C515.782 457.331 515.501 457.816 514.924 457.816C514.582 457.781 514.256 457.658 513.976 457.458C513.697 457.258 513.475 456.989 513.333 456.676C513.057 456.021 513.333 455.53 513.909 455.53C514.251 455.565 514.579 455.689 514.858 455.89C515.137 456.091 515.359 456.362 515.501 456.676Z" fill="url(#paint34_linear)"/>
<g style="mix-blend-mode:multiply" opacity="0.68">
<path d="M546.347 465.827L514.328 456.99L514.505 456.362L545.488 464.91L546.347 465.827Z" fill="#57667A"/>
</g>
<path d="M514.446 457.003C514.386 457.003 514.326 456.987 514.274 456.956C514.222 456.925 514.18 456.88 514.151 456.827C514.113 456.749 514.106 456.66 514.133 456.577C514.16 456.495 514.218 456.427 514.296 456.388C537.53 444.322 545.973 426.911 551.495 404.554C552.53 400.355 553.46 396.144 554.41 391.689C557.908 375.615 561.517 358.99 571.048 342.561C571.092 342.487 571.163 342.433 571.247 342.411C571.33 342.389 571.419 342.4 571.494 342.443C571.568 342.488 571.623 342.56 571.646 342.644C571.669 342.729 571.659 342.818 571.618 342.895C562.133 359.199 558.517 375.772 555.052 391.801C554.083 396.261 553.166 400.473 552.131 404.685C546.543 427.271 538.028 444.767 514.571 456.964C514.532 456.985 514.49 456.998 514.446 457.003Z" fill="white"/>
<path d="M567.681 347.415L580.199 323.12L601.547 327.535L589.769 351.83L567.681 347.415Z" fill="url(#paint35_linear)"/>
<path d="M566.208 309.128L580.199 323.12L601.547 327.535L587.562 314.283L566.208 309.128Z" fill="url(#paint36_linear)"/>
<path d="M567.681 347.415L580.199 323.12L566.208 309.128L554.43 332.69L567.681 347.415Z" fill="url(#paint37_linear)"/>
<g style="mix-blend-mode:screen" opacity="0.3">
<path d="M532.283 277.634C532.23 277.249 532.064 276.888 531.806 276.597C531.548 276.306 531.209 276.098 530.833 276C530.457 275.902 530.06 275.917 529.693 276.044C529.326 276.172 529.004 276.405 528.77 276.715C528.535 277.025 528.397 277.397 528.374 277.785C528.351 278.173 528.444 278.56 528.641 278.895C528.837 279.23 529.129 279.5 529.479 279.67C529.829 279.839 530.221 279.901 530.606 279.848C531.122 279.776 531.588 279.503 531.903 279.088C532.217 278.673 532.354 278.15 532.283 277.634Z" fill="white"/>
</g>
<g style="mix-blend-mode:screen" opacity="0.3">
<path d="M492.354 89.068C492.301 88.6829 492.135 88.3221 491.877 88.0313C491.619 87.7405 491.281 87.5328 490.904 87.4344C490.528 87.336 490.131 87.3514 489.764 87.4786C489.397 87.6058 489.075 87.8392 488.841 88.1491C488.606 88.459 488.468 88.8315 488.445 89.2196C488.423 89.6077 488.515 89.9939 488.712 90.3293C488.908 90.6647 489.2 90.9342 489.55 91.1038C489.9 91.2734 490.292 91.3354 490.677 91.282C491.193 91.2105 491.659 90.9371 491.974 90.522C492.288 90.1069 492.425 89.5839 492.354 89.068Z" fill="white"/>
</g>
<g style="mix-blend-mode:screen" opacity="0.3">
<path d="M641.3 59.1125C641.247 58.7273 641.081 58.3666 640.823 58.0758C640.565 57.785 640.226 57.5772 639.85 57.4789C639.474 57.3805 639.077 57.3959 638.71 57.5231C638.342 57.6503 638.021 57.8837 637.786 58.1936C637.552 58.5035 637.414 58.876 637.391 59.2641C637.368 59.6522 637.461 60.0384 637.657 60.3738C637.854 60.7092 638.146 60.9787 638.496 61.1483C638.845 61.3179 639.238 61.3799 639.623 61.3265C640.139 61.255 640.605 60.9816 640.919 60.5665C641.234 60.1514 641.371 59.6284 641.3 59.1125Z" fill="white"/>
</g>
<g style="mix-blend-mode:screen">
<path d="M3.91195 102.382C3.85902 101.996 3.69304 101.636 3.43501 101.345C3.17698 101.054 2.8385 100.846 2.46239 100.748C2.08627 100.65 1.68943 100.665 1.32207 100.792C0.954703 100.919 0.633329 101.153 0.398604 101.463C0.16388 101.773 0.0263524 102.145 0.00342204 102.533C-0.0195084 102.921 0.0731895 103.307 0.269786 103.643C0.466383 103.978 0.758044 104.248 1.10787 104.417C1.45769 104.587 1.84996 104.649 2.23504 104.596C2.75088 104.524 3.21722 104.251 3.53164 103.836C3.84606 103.42 3.98285 102.897 3.91195 102.382Z" fill="white"/>
</g>
<g style="mix-blend-mode:screen" opacity="0.5">
<path d="M226.082 88.2358C226.029 87.8507 225.863 87.4899 225.605 87.1991C225.347 86.9083 225.009 86.7006 224.633 86.6022C224.257 86.5038 223.86 86.5192 223.492 86.6465C223.125 86.7737 222.804 87.007 222.569 87.3169C222.334 87.6268 222.197 87.9994 222.174 88.3875C222.151 88.7756 222.244 89.1617 222.44 89.4971C222.637 89.8325 222.928 90.1021 223.278 90.2717C223.628 90.4413 224.02 90.5033 224.405 90.4499C224.921 90.3784 225.388 90.105 225.702 89.6899C226.016 89.2747 226.153 88.7518 226.082 88.2358Z" fill="white"/>
</g>
<g style="mix-blend-mode:screen" opacity="0.5">
<path d="M388.342 32.4853C388.289 32.1002 388.123 31.7394 387.865 31.4486C387.607 31.1578 387.268 30.95 386.892 30.8517C386.516 30.7533 386.119 30.7687 385.752 30.8959C385.384 31.0231 385.063 31.2565 384.828 31.5664C384.594 31.8763 384.456 32.2488 384.433 32.6369C384.41 33.025 384.503 33.4112 384.699 33.7466C384.896 34.082 385.188 34.3515 385.538 34.5211C385.887 34.6907 386.28 34.7527 386.665 34.6993C387.181 34.6278 387.647 34.3544 387.961 33.9393C388.276 33.5242 388.413 33.0012 388.342 32.4853Z" fill="white"/>
</g>
<g style="mix-blend-mode:screen" opacity="0.5">
<path d="M180.788 249.408C180.735 249.023 180.569 248.662 180.311 248.371C180.053 248.08 179.715 247.873 179.338 247.774C178.962 247.676 178.566 247.691 178.198 247.819C177.831 247.946 177.509 248.179 177.275 248.489C177.04 248.799 176.902 249.171 176.88 249.56C176.857 249.948 176.949 250.334 177.146 250.669C177.342 251.005 177.634 251.274 177.984 251.444C178.334 251.613 178.726 251.675 179.111 251.622C179.627 251.55 180.093 251.277 180.408 250.862C180.722 250.447 180.859 249.924 180.788 249.408Z" fill="white"/>
</g>
<g style="mix-blend-mode:screen" opacity="0.5">
<path d="M86.2896 177.271C86.2367 176.885 86.0707 176.525 85.8127 176.234C85.5547 175.943 85.2162 175.735 84.8401 175.637C84.464 175.539 84.0671 175.554 83.6997 175.681C83.3324 175.808 83.011 176.042 82.7763 176.352C82.5416 176.661 82.404 177.034 82.3811 177.422C82.3582 177.81 82.4509 178.196 82.6475 178.532C82.8441 178.867 83.1357 179.137 83.4855 179.306C83.8354 179.476 84.2276 179.538 84.6127 179.485C85.1286 179.413 85.5949 179.14 85.9093 178.725C86.2238 178.309 86.3605 177.786 86.2896 177.271Z" fill="white"/>
</g>
<g style="mix-blend-mode:screen">
<path d="M577.589 172.547C577.554 172.29 577.443 172.049 577.272 171.855C577.1 171.661 576.875 171.522 576.624 171.456C576.373 171.39 576.109 171.399 575.864 171.484C575.619 171.568 575.404 171.723 575.247 171.93C575.09 172.136 574.998 172.384 574.983 172.643C574.967 172.902 575.028 173.159 575.159 173.383C575.29 173.607 575.484 173.787 575.717 173.9C575.95 174.014 576.212 174.056 576.468 174.02C576.812 173.973 577.123 173.791 577.333 173.515C577.543 173.239 577.635 172.89 577.589 172.547Z" fill="white"/>
</g>
<g style="mix-blend-mode:screen">
<path d="M354.498 323.84C354.464 323.583 354.353 323.342 354.182 323.148C354.01 322.954 353.784 322.815 353.534 322.749C353.283 322.683 353.019 322.693 352.773 322.777C352.528 322.862 352.314 323.017 352.157 323.223C352 323.43 351.908 323.678 351.892 323.937C351.877 324.195 351.938 324.453 352.069 324.677C352.2 324.901 352.394 325.081 352.627 325.194C352.86 325.307 353.121 325.349 353.378 325.314C353.722 325.267 354.033 325.085 354.243 324.809C354.453 324.532 354.545 324.184 354.498 323.84Z" fill="white"/>
</g>
<g style="mix-blend-mode:screen">
<path d="M385.374 132.606C385.339 132.349 385.229 132.108 385.057 131.914C384.885 131.72 384.66 131.581 384.409 131.515C384.159 131.449 383.894 131.459 383.649 131.543C383.404 131.627 383.189 131.783 383.033 131.989C382.876 132.195 382.784 132.444 382.768 132.702C382.752 132.961 382.814 133.219 382.944 133.442C383.075 133.666 383.269 133.846 383.502 133.96C383.735 134.073 383.997 134.115 384.254 134.08C384.598 134.032 384.909 133.851 385.119 133.574C385.329 133.298 385.42 132.95 385.374 132.606Z" fill="white"/>
</g>
<g style="mix-blend-mode:screen" opacity="0.5">
<path d="M620.025 233.282C619.988 233.026 619.877 232.786 619.704 232.592C619.531 232.399 619.305 232.262 619.054 232.197C618.803 232.132 618.539 232.143 618.294 232.229C618.05 232.315 617.836 232.471 617.68 232.678C617.525 232.885 617.434 233.134 617.419 233.392C617.405 233.651 617.467 233.908 617.599 234.132C617.731 234.355 617.926 234.534 618.159 234.646C618.393 234.758 618.654 234.799 618.911 234.763C619.255 234.714 619.565 234.531 619.774 234.253C619.983 233.976 620.073 233.626 620.025 233.282Z" fill="white"/>
</g>
<g style="mix-blend-mode:screen">
<path d="M627.966 338.186C628.581 337.802 628.769 336.993 628.385 336.378C628.002 335.763 627.193 335.575 626.578 335.959C625.963 336.342 625.775 337.152 626.158 337.767C626.542 338.382 627.351 338.569 627.966 338.186Z" fill="white"/>
</g>
<g style="mix-blend-mode:screen">
<path d="M453.567 328.091C453.53 327.835 453.419 327.595 453.247 327.402C453.075 327.209 452.849 327.071 452.598 327.006C452.348 326.941 452.084 326.951 451.839 327.036C451.595 327.121 451.381 327.277 451.224 327.483C451.068 327.69 450.977 327.938 450.961 328.196C450.946 328.455 451.008 328.712 451.138 328.935C451.269 329.159 451.463 329.338 451.696 329.452C451.929 329.565 452.19 329.607 452.446 329.572C452.617 329.548 452.782 329.492 452.931 329.404C453.08 329.317 453.21 329.202 453.314 329.064C453.418 328.927 453.494 328.77 453.537 328.603C453.581 328.436 453.591 328.262 453.567 328.091Z" fill="white"/>
</g>
<g style="mix-blend-mode:screen">
<path d="M250.511 189.02C250.476 188.763 250.365 188.522 250.193 188.327C250.021 188.133 249.795 187.995 249.544 187.929C249.293 187.863 249.028 187.874 248.783 187.959C248.538 188.044 248.324 188.2 248.167 188.407C248.011 188.614 247.919 188.862 247.905 189.121C247.89 189.38 247.952 189.638 248.084 189.862C248.216 190.085 248.411 190.264 248.645 190.377C248.878 190.489 249.14 190.53 249.397 190.493C249.74 190.445 250.049 190.262 250.258 189.986C250.466 189.71 250.557 189.363 250.511 189.02Z" fill="white"/>
</g>
<g style="mix-blend-mode:screen">
<path d="M113.3 26.0973C113.916 25.7175 114.107 24.9103 113.727 24.2945C113.347 23.6787 112.54 23.4875 111.924 23.8673C111.309 24.2472 111.117 25.0544 111.497 25.6702C111.877 26.286 112.684 26.4772 113.3 26.0973Z" fill="white"/>
</g>
<g style="mix-blend-mode:screen">
<path d="M493.075 194.449C493.063 194.363 493.035 194.28 492.992 194.206C492.949 194.131 492.891 194.065 492.822 194.013C492.753 193.961 492.675 193.922 492.591 193.9C492.507 193.879 492.42 193.873 492.335 193.885C492.206 193.903 492.087 193.959 491.99 194.045C491.893 194.131 491.824 194.243 491.792 194.368C491.759 194.494 491.764 194.626 491.806 194.748C491.848 194.87 491.926 194.977 492.029 195.055C492.132 195.134 492.255 195.18 492.384 195.188C492.513 195.196 492.642 195.166 492.754 195.101C492.866 195.036 492.956 194.939 493.013 194.823C493.07 194.707 493.092 194.577 493.075 194.449Z" fill="white"/>
</g>
<g style="mix-blend-mode:screen">
<path d="M452.918 286.247C452.9 286.119 452.844 285.999 452.758 285.903C452.672 285.806 452.559 285.737 452.433 285.705C452.308 285.672 452.175 285.678 452.053 285.721C451.931 285.764 451.824 285.842 451.746 285.945C451.668 286.049 451.623 286.173 451.616 286.303C451.608 286.432 451.64 286.56 451.705 286.672C451.771 286.784 451.869 286.873 451.986 286.929C452.102 286.986 452.233 287.006 452.361 286.988C452.533 286.963 452.689 286.872 452.793 286.733C452.897 286.594 452.942 286.419 452.918 286.247Z" fill="white"/>
</g>
<g style="mix-blend-mode:screen">
<path d="M543.51 242.36C543.499 242.274 543.47 242.191 543.427 242.116C543.383 242.041 543.325 241.975 543.256 241.922C543.187 241.87 543.108 241.831 543.024 241.809C542.94 241.787 542.853 241.781 542.767 241.793C542.681 241.805 542.598 241.833 542.523 241.877C542.448 241.92 542.382 241.978 542.33 242.047C542.277 242.116 542.238 242.195 542.216 242.279C542.194 242.363 542.189 242.45 542.2 242.536C542.224 242.71 542.315 242.867 542.455 242.974C542.594 243.08 542.77 243.127 542.944 243.103C543.117 243.08 543.275 242.988 543.381 242.849C543.487 242.709 543.534 242.533 543.51 242.36Z" fill="white"/>
</g>
<g style="mix-blend-mode:screen">
<path d="M673.994 279.782C673.978 279.653 673.923 279.532 673.837 279.435C673.751 279.337 673.639 279.268 673.513 279.234C673.387 279.201 673.255 279.206 673.132 279.248C673.009 279.29 672.902 279.368 672.823 279.471C672.745 279.575 672.699 279.699 672.691 279.829C672.683 279.959 672.715 280.088 672.78 280.199C672.846 280.311 672.944 280.401 673.061 280.458C673.178 280.514 673.309 280.534 673.438 280.516C673.608 280.491 673.763 280.401 673.867 280.263C673.971 280.126 674.017 279.953 673.994 279.782Z" fill="white"/>
</g>
<g style="mix-blend-mode:screen">
<path d="M409.45 302.872C409.425 302.702 409.334 302.547 409.197 302.443C409.06 302.339 408.887 302.293 408.716 302.316C408.587 302.332 408.466 302.387 408.369 302.473C408.271 302.559 408.201 302.671 408.168 302.797C408.135 302.923 408.139 303.055 408.182 303.178C408.224 303.301 408.302 303.408 408.405 303.487C408.509 303.565 408.633 303.611 408.763 303.619C408.892 303.627 409.021 303.595 409.133 303.53C409.245 303.464 409.335 303.366 409.391 303.249C409.448 303.132 409.468 303.001 409.45 302.872Z" fill="white"/>
</g>
<g style="mix-blend-mode:screen">
<path d="M513.031 370.82C513.014 370.691 512.96 370.57 512.874 370.473C512.788 370.375 512.675 370.305 512.55 370.272C512.424 370.238 512.292 370.243 512.169 370.285C512.046 370.328 511.939 370.405 511.86 370.509C511.782 370.612 511.736 370.737 511.728 370.866C511.72 370.996 511.751 371.125 511.817 371.237C511.883 371.349 511.981 371.439 512.098 371.495C512.215 371.552 512.346 371.572 512.475 371.553C512.645 371.529 512.799 371.438 512.904 371.301C513.008 371.164 513.054 370.991 513.031 370.82Z" fill="white"/>
</g>
<g style="mix-blend-mode:screen">
<path d="M348.295 156.998C348.271 156.826 348.179 156.671 348.04 156.566C347.902 156.462 347.727 156.417 347.555 156.441C347.469 156.453 347.386 156.482 347.311 156.526C347.236 156.57 347.171 156.628 347.119 156.698C347.066 156.767 347.028 156.846 347.006 156.93C346.985 157.014 346.98 157.102 346.992 157.188C347.004 157.274 347.033 157.357 347.077 157.432C347.121 157.506 347.179 157.572 347.248 157.624C347.318 157.677 347.397 157.715 347.481 157.736C347.565 157.758 347.652 157.763 347.738 157.751C347.825 157.739 347.908 157.71 347.983 157.666C348.058 157.621 348.123 157.562 348.175 157.492C348.227 157.422 348.264 157.342 348.285 157.257C348.306 157.172 348.309 157.084 348.295 156.998Z" fill="white"/>
</g>
<g style="mix-blend-mode:screen">
<path d="M598.645 419.221C598.621 419.049 598.529 418.893 598.39 418.789C598.252 418.685 598.077 418.64 597.905 418.664C597.777 418.682 597.657 418.738 597.56 418.824C597.463 418.91 597.395 419.024 597.362 419.149C597.33 419.274 597.336 419.407 597.378 419.529C597.421 419.651 597.499 419.758 597.603 419.836C597.706 419.914 597.831 419.959 597.96 419.967C598.089 419.974 598.218 419.942 598.33 419.877C598.441 419.811 598.531 419.713 598.587 419.597C598.643 419.48 598.663 419.349 598.645 419.221Z" fill="white"/>
</g>
<g style="mix-blend-mode:screen" opacity="0.3">
<path d="M301.558 183.019C301.54 182.891 301.485 182.771 301.399 182.675C301.313 182.578 301.2 182.509 301.075 182.476C300.95 182.444 300.818 182.449 300.696 182.491C300.573 182.533 300.466 182.611 300.388 182.713C300.31 182.816 300.264 182.94 300.255 183.069C300.247 183.198 300.278 183.327 300.343 183.439C300.407 183.551 300.504 183.641 300.62 183.698C300.736 183.755 300.866 183.776 300.995 183.76C301.08 183.748 301.163 183.72 301.238 183.677C301.313 183.633 301.378 183.576 301.43 183.507C301.483 183.438 301.521 183.36 301.543 183.276C301.565 183.192 301.57 183.105 301.558 183.019Z" fill="white"/>
</g>
<g style="mix-blend-mode:screen">
<path d="M77.39 279.782C77.3784 279.696 77.3499 279.613 77.3063 279.538C77.2626 279.463 77.2046 279.398 77.1356 279.345C77.0666 279.292 76.9878 279.254 76.9039 279.232C76.82 279.209 76.7325 279.204 76.6465 279.216C76.5605 279.227 76.4776 279.256 76.4026 279.299C76.3276 279.343 76.2619 279.401 76.2092 279.47C76.1566 279.539 76.1181 279.618 76.0959 279.702C76.0737 279.786 76.0683 279.873 76.0799 279.959C76.1034 280.133 76.1949 280.29 76.3343 280.396C76.4737 280.503 76.6497 280.549 76.8234 280.526C76.9971 280.502 77.1544 280.411 77.2607 280.271C77.3669 280.132 77.4135 279.956 77.39 279.782Z" fill="white"/>
</g>
<g style="mix-blend-mode:screen">
<path d="M36.3322 228.44C36.3077 228.272 36.2189 228.12 36.0845 228.016C35.95 227.912 35.7805 227.864 35.6116 227.883C35.5256 227.895 35.4427 227.923 35.3677 227.967C35.2926 228.011 35.2269 228.069 35.1743 228.138C35.1217 228.207 35.0832 228.285 35.061 228.369C35.0388 228.453 35.0334 228.541 35.045 228.627C35.0566 228.713 35.0851 228.796 35.1287 228.871C35.1724 228.946 35.2304 229.011 35.2994 229.064C35.4388 229.17 35.6147 229.217 35.7885 229.193C35.8737 229.18 35.9555 229.15 36.029 229.104C36.1026 229.059 36.1664 229 36.217 228.93C36.2675 228.86 36.3037 228.78 36.3234 228.696C36.3432 228.612 36.3462 228.525 36.3322 228.44Z" fill="white"/>
</g>
<g style="mix-blend-mode:screen">
<path d="M155.484 48.3564C155.46 48.1826 155.369 48.0253 155.229 47.9191C155.09 47.8128 154.914 47.7663 154.74 47.7898C154.567 47.8132 154.409 47.9047 154.303 48.0441C154.197 48.1836 154.15 48.3595 154.174 48.5332C154.185 48.619 154.213 48.7016 154.257 48.7764C154.3 48.8512 154.358 48.9167 154.427 48.9691C154.495 49.0215 154.574 49.0597 154.658 49.0816C154.741 49.1035 154.828 49.1085 154.914 49.0966C155 49.0861 155.084 49.0585 155.159 49.0155C155.235 48.9725 155.301 48.9148 155.354 48.8459C155.407 48.777 155.446 48.6982 155.468 48.6142C155.49 48.5301 155.496 48.4425 155.484 48.3564Z" fill="white"/>
</g>
<g style="mix-blend-mode:screen">
<path d="M275.064 12.2126C275.04 12.0407 274.948 11.8854 274.809 11.781C274.67 11.6766 274.496 11.6316 274.324 11.6559C274.196 11.674 274.076 11.7297 273.979 11.8161C273.882 11.9024 273.814 12.0155 273.781 12.1409C273.749 12.2664 273.754 12.3986 273.797 12.5209C273.84 12.6432 273.918 12.75 274.022 12.8279C274.125 12.9058 274.25 12.9512 274.379 12.9585C274.508 12.9657 274.637 12.9344 274.749 12.8686C274.86 12.8027 274.95 12.7052 275.006 12.5885C275.062 12.4717 275.082 12.3409 275.064 12.2126Z" fill="white"/>
</g>
<g style="mix-blend-mode:screen" opacity="0.3">
<path d="M175.901 0.557929C175.882 0.430348 175.826 0.311259 175.739 0.215599C175.653 0.11994 175.54 0.05197 175.415 0.020215C175.29 -0.0115399 175.158 -0.0056657 175.037 0.0371008C174.915 0.0798673 174.808 0.157622 174.731 0.260611C174.653 0.3636 174.607 0.487238 174.6 0.616017C174.592 0.744795 174.623 0.872979 174.687 0.98449C174.752 1.096 174.849 1.18587 174.964 1.24283C175.08 1.2998 175.21 1.32131 175.338 1.30467C175.425 1.29344 175.508 1.2651 175.583 1.2213C175.658 1.1775 175.724 1.11913 175.777 1.04959C175.829 0.980058 175.867 0.90076 175.889 0.816338C175.91 0.731916 175.914 0.644066 175.901 0.557929Z" fill="white"/>
</g>
<g style="mix-blend-mode:screen" opacity="0.5">
<path d="M259.832 108.299C259.814 108.171 259.759 108.051 259.673 107.954C259.587 107.858 259.474 107.789 259.349 107.756C259.224 107.723 259.092 107.728 258.969 107.77C258.847 107.813 258.74 107.89 258.662 107.993C258.584 108.096 258.537 108.22 258.529 108.349C258.521 108.478 258.552 108.606 258.616 108.718C258.681 108.83 258.778 108.92 258.894 108.977C259.01 109.035 259.14 109.056 259.269 109.039C259.354 109.028 259.437 109 259.512 108.956C259.587 108.913 259.652 108.855 259.704 108.786C259.757 108.718 259.795 108.639 259.817 108.555C259.839 108.472 259.844 108.385 259.832 108.299Z" fill="white"/>
</g>
<g style="mix-blend-mode:screen" opacity="0.5">
<path d="M27.0959 33.9389C27.067 33.7692 26.9724 33.6177 26.8327 33.5172C26.693 33.4167 26.5193 33.3752 26.3492 33.4018C26.2208 33.4218 26.1013 33.4796 26.0058 33.5677C25.9103 33.6559 25.8432 33.7705 25.8131 33.8968C25.7829 34.0232 25.791 34.1558 25.8363 34.2775C25.8817 34.3993 25.9622 34.5049 26.0677 34.5807C26.1732 34.6566 26.2989 34.6994 26.4288 34.7037C26.5586 34.7079 26.6868 34.6734 26.7971 34.6046C26.9073 34.5358 26.9946 34.4358 27.0478 34.3172C27.101 34.1987 27.1178 34.067 27.0959 33.9389Z" fill="white"/>
</g>
<g style="mix-blend-mode:screen">
<path d="M200.596 183.675C200.572 183.504 200.481 183.35 200.344 183.246C200.207 183.141 200.034 183.095 199.863 183.118C199.734 183.135 199.613 183.19 199.516 183.275C199.418 183.361 199.348 183.474 199.315 183.599C199.282 183.725 199.286 183.857 199.329 183.98C199.371 184.103 199.449 184.211 199.552 184.289C199.655 184.368 199.78 184.414 199.91 184.421C200.039 184.429 200.168 184.398 200.28 184.332C200.392 184.266 200.482 184.168 200.538 184.051C200.595 183.934 200.615 183.803 200.596 183.675Z" fill="white"/>
</g>
<g style="mix-blend-mode:screen">
<path d="M294.123 259.561C294.106 259.432 294.051 259.311 293.966 259.214C293.88 259.116 293.767 259.046 293.642 259.013C293.516 258.98 293.384 258.985 293.261 259.027C293.138 259.069 293.03 259.147 292.952 259.25C292.873 259.354 292.827 259.478 292.82 259.608C292.812 259.737 292.843 259.866 292.909 259.978C292.975 260.09 293.073 260.18 293.19 260.237C293.307 260.293 293.438 260.313 293.566 260.295C293.737 260.27 293.891 260.18 293.995 260.042C294.1 259.905 294.146 259.732 294.123 259.561Z" fill="white"/>
</g>
<g style="mix-blend-mode:screen">
<path d="M452.301 114.561C452.283 114.433 452.227 114.313 452.141 114.216C452.055 114.12 451.942 114.051 451.816 114.018C451.691 113.986 451.558 113.992 451.436 114.034C451.314 114.077 451.207 114.155 451.129 114.259C451.051 114.362 451.006 114.487 450.999 114.616C450.991 114.745 451.023 114.874 451.088 114.986C451.154 115.097 451.252 115.187 451.369 115.243C451.485 115.299 451.616 115.319 451.744 115.301C451.916 115.277 452.072 115.185 452.176 115.046C452.28 114.908 452.326 114.733 452.301 114.561Z" fill="white"/>
</g>
<g style="mix-blend-mode:screen">
<path d="M547.993 65.4672C547.975 65.3389 547.919 65.2189 547.832 65.1223C547.746 65.0257 547.633 64.9569 547.508 64.9245C547.382 64.8922 547.25 64.8978 547.128 64.9406C547.005 64.9834 546.898 65.0615 546.821 65.1651C546.743 65.2686 546.697 65.3929 546.69 65.5223C546.683 65.6517 546.714 65.7803 546.78 65.8918C546.846 66.0034 546.943 66.0929 547.06 66.1491C547.177 66.2053 547.308 66.2256 547.436 66.2074C547.608 66.1831 547.763 66.0914 547.867 65.9526C547.972 65.8138 548.017 65.6392 547.993 65.4672Z" fill="white"/>
</g>
<g style="mix-blend-mode:screen">
<path d="M660.023 393.019C660.006 392.89 659.951 392.769 659.865 392.672C659.779 392.574 659.667 392.504 659.541 392.471C659.416 392.438 659.283 392.443 659.16 392.485C659.037 392.527 658.93 392.605 658.851 392.708C658.773 392.812 658.727 392.936 658.719 393.066C658.712 393.195 658.743 393.324 658.808 393.436C658.874 393.548 658.972 393.638 659.089 393.694C659.206 393.751 659.337 393.771 659.466 393.753C659.636 393.728 659.791 393.638 659.895 393.5C659.999 393.363 660.045 393.19 660.023 393.019Z" fill="white"/>
</g>
<g style="mix-blend-mode:screen">
<path d="M130.677 208.383C130.66 208.255 130.604 208.135 130.518 208.038C130.432 207.941 130.32 207.872 130.194 207.84C130.069 207.807 129.937 207.812 129.815 207.854C129.693 207.896 129.586 207.974 129.507 208.077C129.429 208.18 129.383 208.303 129.375 208.432C129.367 208.561 129.397 208.69 129.462 208.802C129.527 208.914 129.623 209.004 129.739 209.061C129.856 209.118 129.986 209.14 130.114 209.123C130.2 209.112 130.282 209.083 130.357 209.04C130.432 208.997 130.498 208.939 130.55 208.87C130.602 208.801 130.641 208.723 130.662 208.639C130.684 208.555 130.689 208.468 130.677 208.383Z" fill="white"/>
</g>
<g style="mix-blend-mode:screen">
<path d="M520.394 331.078C520.376 330.95 520.32 330.83 520.234 330.733C520.147 330.637 520.034 330.568 519.909 330.536C519.783 330.503 519.651 330.509 519.529 330.552C519.407 330.595 519.3 330.673 519.222 330.776C519.144 330.88 519.099 331.004 519.091 331.134C519.084 331.263 519.115 331.391 519.181 331.503C519.247 331.615 519.345 331.704 519.461 331.76C519.578 331.816 519.709 331.837 519.837 331.819C520.009 331.794 520.164 331.703 520.269 331.564C520.373 331.425 520.418 331.25 520.394 331.078Z" fill="white"/>
</g>
<g style="mix-blend-mode:screen">
<path d="M408.795 222.558C408.778 222.429 408.723 222.308 408.637 222.211C408.552 222.113 408.439 222.043 408.313 222.01C408.188 221.977 408.055 221.981 407.932 222.024C407.809 222.066 407.702 222.144 407.623 222.247C407.545 222.351 407.499 222.475 407.491 222.605C407.484 222.734 407.515 222.863 407.581 222.975C407.647 223.087 407.744 223.177 407.861 223.233C407.978 223.29 408.109 223.31 408.238 223.292C408.409 223.267 408.563 223.176 408.667 223.039C408.771 222.902 408.817 222.729 408.795 222.558Z" fill="white"/>
</g>
<g style="mix-blend-mode:screen">
<path d="M314.174 205.266C314.162 205.18 314.134 205.098 314.091 205.023C314.047 204.948 313.99 204.882 313.921 204.83C313.852 204.778 313.774 204.739 313.69 204.718C313.606 204.696 313.519 204.691 313.433 204.703C313.305 204.721 313.185 204.776 313.089 204.862C312.992 204.948 312.923 205.06 312.89 205.186C312.858 205.311 312.863 205.443 312.905 205.565C312.947 205.687 313.025 205.794 313.127 205.873C313.23 205.951 313.354 205.997 313.483 206.005C313.612 206.013 313.741 205.983 313.853 205.918C313.965 205.853 314.055 205.757 314.112 205.641C314.169 205.525 314.19 205.394 314.174 205.266Z" fill="white"/>
</g>
<g style="mix-blend-mode:screen">
<path d="M78.0449 63.7498C78.0267 63.6215 77.971 63.5014 77.8846 63.4048C77.7983 63.3082 77.6852 63.2394 77.5598 63.2071C77.4343 63.1747 77.3021 63.1803 77.1798 63.2231C77.0575 63.266 76.9507 63.3441 76.8728 63.4476C76.7949 63.5512 76.7495 63.6755 76.7422 63.8048C76.735 63.9342 76.7663 64.0628 76.8322 64.1744C76.898 64.2859 76.9955 64.3755 77.1122 64.4317C77.229 64.4878 77.3598 64.5081 77.4881 64.49C77.66 64.4656 77.8153 64.374 77.9197 64.2351C78.0241 64.0963 78.0691 63.9217 78.0449 63.7498Z" fill="white"/>
</g>
<g style="mix-blend-mode:screen" opacity="0.5">
<path d="M433.529 190.205C433.518 190.12 433.49 190.037 433.446 189.962C433.403 189.887 433.345 189.822 433.276 189.769C433.207 189.717 433.129 189.679 433.045 189.657C432.962 189.635 432.874 189.63 432.789 189.642C432.661 189.66 432.541 189.715 432.444 189.801C432.348 189.887 432.279 190 432.246 190.125C432.213 190.25 432.218 190.382 432.26 190.504C432.302 190.627 432.38 190.734 432.483 190.812C432.586 190.89 432.71 190.936 432.839 190.944C432.968 190.953 433.096 190.922 433.208 190.857C433.32 190.793 433.41 190.696 433.467 190.58C433.524 190.464 433.546 190.334 433.529 190.205Z" fill="white"/>
</g>
<g style="mix-blend-mode:multiply" opacity="0.4" filter="url(#filter23_f)">
<path d="M290.146 497.657C288.414 487.972 240.829 488.38 183.862 498.569C126.895 508.757 82.1177 524.867 83.8498 534.552C85.5818 544.237 133.167 543.828 190.134 533.64C247.101 523.452 291.878 507.341 290.146 497.657Z" fill="#4B5663"/>
</g>
<g style="mix-blend-mode:multiply" opacity="0.5" filter="url(#filter24_f)">
<path d="M362.253 539.056C371.052 531.781 371.256 517.502 362.708 507.163C354.16 496.824 340.097 494.34 331.298 501.615C322.499 508.889 322.295 523.168 330.843 533.508C339.391 543.847 353.454 546.331 362.253 539.056Z" fill="#4B5663"/>
</g>
</g>
<defs>
<filter id="filter0_f" x="35.8816" y="467.741" width="401.701" height="112.131" filterUnits="userSpaceOnUse" color-interpolation-filters="sRGB">
<feFlood flood-opacity="0" result="BackgroundImageFix"/>
<feBlend mode="normal" in="SourceGraphic" in2="BackgroundImageFix" result="shape"/>
<feGaussianBlur stdDeviation="22" result="effect1_foregroundBlur"/>
</filter>
<filter id="filter1_f" x="157.551" y="475.412" width="184.99" height="80.9778" filterUnits="userSpaceOnUse" color-interpolation-filters="sRGB">
<feFlood flood-opacity="0" result="BackgroundImageFix"/>
<feBlend mode="normal" in="SourceGraphic" in2="BackgroundImageFix" result="shape"/>
<feGaussianBlur stdDeviation="16.5" result="effect1_foregroundBlur"/>
</filter>
<filter id="filter2_f" x="390.837" y="422.347" width="50.6445" height="26.6547" filterUnits="userSpaceOnUse" color-interpolation-filters="sRGB">
<feFlood flood-opacity="0" result="BackgroundImageFix"/>
<feBlend mode="normal" in="SourceGraphic" in2="BackgroundImageFix" result="shape"/>
<feGaussianBlur stdDeviation="5" result="effect1_foregroundBlur"/>
</filter>
<filter id="filter3_f" x="421.865" y="462.526" width="96.7493" height="46.338" filterUnits="userSpaceOnUse" color-interpolation-filters="sRGB">
<feFlood flood-opacity="0" result="BackgroundImageFix"/>
<feBlend mode="normal" in="SourceGraphic" in2="BackgroundImageFix" result="shape"/>
<feGaussianBlur stdDeviation="8" result="effect1_foregroundBlur"/>
</filter>
<filter id="filter4_f" x="315.408" y="497.608" width="96.9162" height="45.5599" filterUnits="userSpaceOnUse" color-interpolation-filters="sRGB">
<feFlood flood-opacity="0" result="BackgroundImageFix"/>
<feBlend mode="normal" in="SourceGraphic" in2="BackgroundImageFix" result="shape"/>
<feGaussianBlur stdDeviation="8" result="effect1_foregroundBlur"/>
</filter>
<filter id="filter5_f" x="13.7156" y="478.341" width="390.438" height="84.1528" filterUnits="userSpaceOnUse" color-interpolation-filters="sRGB">
<feFlood flood-opacity="0" result="BackgroundImageFix"/>
<feBlend mode="normal" in="SourceGraphic" in2="BackgroundImageFix" result="shape"/>
<feGaussianBlur stdDeviation="14" result="effect1_foregroundBlur"/>
</filter>
<filter id="filter6_f" x="354.516" y="495.943" width="96.9162" height="45.5599" filterUnits="userSpaceOnUse" color-interpolation-filters="sRGB">
<feFlood flood-opacity="0" result="BackgroundImageFix"/>
<feBlend mode="normal" in="SourceGraphic" in2="BackgroundImageFix" result="shape"/>
<feGaussianBlur stdDeviation="8" result="effect1_foregroundBlur"/>
</filter>
<filter id="filter7_f" x="490.693" y="474.588" width="77.6269" height="30.0312" filterUnits="userSpaceOnUse" color-interpolation-filters="sRGB">
<feFlood flood-opacity="0" result="BackgroundImageFix"/>
<feBlend mode="normal" in="SourceGraphic" in2="BackgroundImageFix" result="shape"/>
<feGaussianBlur stdDeviation="3.5" result="effect1_foregroundBlur"/>
</filter>
<filter id="filter8_f" x="570.357" y="476.728" width="59.9153" height="20.19" filterUnits="userSpaceOnUse" color-interpolation-filters="sRGB">
<feFlood flood-opacity="0" result="BackgroundImageFix"/>
<feBlend mode="normal" in="SourceGraphic" in2="BackgroundImageFix" result="shape"/>
<feGaussianBlur stdDeviation="2.5" result="effect1_foregroundBlur"/>
</filter>
<filter id="filter9_f" x="413.509" y="424.385" width="53.8015" height="26.8723" filterUnits="userSpaceOnUse" color-interpolation-filters="sRGB">
<feFlood flood-opacity="0" result="BackgroundImageFix"/>
<feBlend mode="normal" in="SourceGraphic" in2="BackgroundImageFix" result="shape"/>
<feGaussianBlur stdDeviation="5" result="effect1_foregroundBlur"/>
</filter>
<filter id="filter10_f" x="426.691" y="425.859" width="45.8015" height="18.8723" filterUnits="userSpaceOnUse" color-interpolation-filters="sRGB">
<feFlood flood-opacity="0" result="BackgroundImageFix"/>
<feBlend mode="normal" in="SourceGraphic" in2="BackgroundImageFix" result="shape"/>
<feGaussianBlur stdDeviation="3" result="effect1_foregroundBlur"/>
</filter>
<filter id="filter11_f" x="226.516" y="364.792" width="178.494" height="194.724" filterUnits="userSpaceOnUse" color-interpolation-filters="sRGB">
<feFlood flood-opacity="0" result="BackgroundImageFix"/>
<feBlend mode="normal" in="SourceGraphic" in2="BackgroundImageFix" result="shape"/>
<feGaussianBlur stdDeviation="22" result="effect1_foregroundBlur"/>
</filter>
<filter id="filter12_f" x="279.204" y="374.156" width="195.038" height="183.413" filterUnits="userSpaceOnUse" color-interpolation-filters="sRGB">
<feFlood flood-opacity="0" result="BackgroundImageFix"/>
<feBlend mode="normal" in="SourceGraphic" in2="BackgroundImageFix" result="shape"/>
<feGaussianBlur stdDeviation="22" result="effect1_foregroundBlur"/>
</filter>
<filter id="filter13_f" x="398.561" y="351.199" width="106.658" height="90.3998" filterUnits="userSpaceOnUse" color-interpolation-filters="sRGB">
<feFlood flood-opacity="0" result="BackgroundImageFix"/>
<feBlend mode="normal" in="SourceGraphic" in2="BackgroundImageFix" result="shape"/>
<feGaussianBlur stdDeviation="1" result="effect1_foregroundBlur"/>
</filter>
<filter id="filter14_f" x="173.152" y="409.207" width="200.531" height="168.526" filterUnits="userSpaceOnUse" color-interpolation-filters="sRGB">
<feFlood flood-opacity="0" result="BackgroundImageFix"/>
<feBlend mode="normal" in="SourceGraphic" in2="BackgroundImageFix" result="shape"/>
<feGaussianBlur stdDeviation="27" result="effect1_foregroundBlur"/>
</filter>
<filter id="filter15_f" x="111.808" y="295.01" width="165.601" height="167.358" filterUnits="userSpaceOnUse" color-interpolation-filters="sRGB">
<feFlood flood-opacity="0" result="BackgroundImageFix"/>
<feBlend mode="normal" in="SourceGraphic" in2="BackgroundImageFix" result="shape"/>
<feGaussianBlur stdDeviation="17" result="effect1_foregroundBlur"/>
</filter>
<filter id="filter16_f" x="156.003" y="338.669" width="87.8974" height="89.3568" filterUnits="userSpaceOnUse" color-interpolation-filters="sRGB">
<feFlood flood-opacity="0" result="BackgroundImageFix"/>
<feBlend mode="normal" in="SourceGraphic" in2="BackgroundImageFix" result="shape"/>
<feGaussianBlur stdDeviation="9" result="effect1_foregroundBlur"/>
</filter>
<filter id="filter17_f" x="142.449" y="320.861" width="71.4507" height="77.5672" filterUnits="userSpaceOnUse" color-interpolation-filters="sRGB">
<feFlood flood-opacity="0" result="BackgroundImageFix"/>
<feBlend mode="normal" in="SourceGraphic" in2="BackgroundImageFix" result="shape"/>
<feGaussianBlur stdDeviation="7" result="effect1_foregroundBlur"/>
</filter>
<filter id="filter18_f" x="168.672" y="356.89" width="133.231" height="93.8087" filterUnits="userSpaceOnUse" color-interpolation-filters="sRGB">
<feFlood flood-opacity="0" result="BackgroundImageFix"/>
<feBlend mode="normal" in="SourceGraphic" in2="BackgroundImageFix" result="shape"/>
<feGaussianBlur stdDeviation="12" result="effect1_foregroundBlur"/>
</filter>
<filter id="filter19_f" x="180.023" y="359.222" width="133.231" height="93.8087" filterUnits="userSpaceOnUse" color-interpolation-filters="sRGB">
<feFlood flood-opacity="0" result="BackgroundImageFix"/>
<feBlend mode="normal" in="SourceGraphic" in2="BackgroundImageFix" result="shape"/>
<feGaussianBlur stdDeviation="12" result="effect1_foregroundBlur"/>
</filter>
<filter id="filter20_f" x="208.687" y="378.795" width="65.8704" height="54.4715" filterUnits="userSpaceOnUse" color-interpolation-filters="sRGB">
<feFlood flood-opacity="0" result="BackgroundImageFix"/>
<feBlend mode="normal" in="SourceGraphic" in2="BackgroundImageFix" result="shape"/>
<feGaussianBlur stdDeviation="5.5" result="effect1_foregroundBlur"/>
</filter>
<filter id="filter21_f" x="183.775" y="373.5" width="97.8239" height="72.0018" filterUnits="userSpaceOnUse" color-interpolation-filters="sRGB">
<feFlood flood-opacity="0" result="BackgroundImageFix"/>
<feBlend mode="normal" in="SourceGraphic" in2="BackgroundImageFix" result="shape"/>
<feGaussianBlur stdDeviation="13.5" result="effect1_foregroundBlur"/>
</filter>
<filter id="filter22_f" x="209.685" y="388.318" width="58.139" height="41.9953" filterUnits="userSpaceOnUse" color-interpolation-filters="sRGB">
<feFlood flood-opacity="0" result="BackgroundImageFix"/>
<feBlend mode="normal" in="SourceGraphic" in2="BackgroundImageFix" result="shape"/>
<feGaussianBlur stdDeviation="4" result="effect1_foregroundBlur"/>
</filter>
<filter id="filter23_f" x="22.7136" y="422.121" width="328.569" height="187.967" filterUnits="userSpaceOnUse" color-interpolation-filters="sRGB">
<feFlood flood-opacity="0" result="BackgroundImageFix"/>
<feBlend mode="normal" in="SourceGraphic" in2="BackgroundImageFix" result="shape"/>
<feGaussianBlur stdDeviation="29" result="effect1_foregroundBlur"/>
</filter>
<filter id="filter24_f" x="277.365" y="450.442" width="138.82" height="139.786" filterUnits="userSpaceOnUse" color-interpolation-filters="sRGB">
<feFlood flood-opacity="0" result="BackgroundImageFix"/>
<feBlend mode="normal" in="SourceGraphic" in2="BackgroundImageFix" result="shape"/>
<feGaussianBlur stdDeviation="19" result="effect1_foregroundBlur"/>
</filter>
<linearGradient id="paint0_linear" x1="357.053" y1="236.576" x2="357.053" y2="286.916" gradientUnits="userSpaceOnUse">
<stop stop-color="white"/>
<stop offset="1" stop-color="#B4C3D4"/>
</linearGradient>
<linearGradient id="paint1_linear" x1="352.383" y1="278.282" x2="400.561" y2="278.282" gradientUnits="userSpaceOnUse">
<stop stop-color="#64758C"/>
<stop offset="1" stop-color="#B1BAC9"/>
</linearGradient>
<linearGradient id="paint2_linear" x1="376.738" y1="275.864" x2="378.177" y2="276.355" gradientUnits="userSpaceOnUse">
<stop stop-color="#818EA1"/>
<stop offset="1" stop-color="#4A5B71"/>
</linearGradient>
<linearGradient id="paint3_linear" x1="413.432" y1="864.108" x2="412.375" y2="864.052" gradientUnits="userSpaceOnUse">
<stop stop-color="#818EA1"/>
<stop offset="1" stop-color="#4A5B71"/>
</linearGradient>
<linearGradient id="paint4_linear" x1="225.979" y1="208.474" x2="225.979" y2="246.735" gradientUnits="userSpaceOnUse">
<stop stop-color="white"/>
<stop offset="1" stop-color="#CBD6E2"/>
</linearGradient>
<linearGradient id="paint5_linear" x1="11069.3" y1="5942.04" x2="13135.3" y2="5942.04" gradientUnits="userSpaceOnUse">
<stop stop-color="#64758C"/>
<stop offset="1" stop-color="#B1BAC9"/>
</linearGradient>
<linearGradient id="paint6_linear" x1="530.156" y1="594.44" x2="532.114" y2="595.774" gradientUnits="userSpaceOnUse">
<stop stop-color="#818EA1"/>
<stop offset="1" stop-color="#4A5B71"/>
</linearGradient>
<linearGradient id="paint7_linear" x1="101.096" y1="126.896" x2="148.953" y2="79.0383" gradientUnits="userSpaceOnUse">
<stop stop-color="#CBD6E2"/>
<stop offset="1" stop-color="white"/>
</linearGradient>
<linearGradient id="paint8_linear" x1="7145.59" y1="6009.33" x2="13300" y2="6009.33" gradientUnits="userSpaceOnUse">
<stop stop-color="#64758C"/>
<stop offset="1" stop-color="#B1BAC9"/>
</linearGradient>
<linearGradient id="paint9_linear" x1="129.411" y1="136.896" x2="130.746" y2="135.52" gradientUnits="userSpaceOnUse">
<stop stop-color="#8F9BAE"/>
<stop offset="1" stop-color="#4A5B71"/>
</linearGradient>
<linearGradient id="paint10_linear" x1="94.5585" y1="528.789" x2="94.5585" y2="302.964" gradientUnits="userSpaceOnUse">
<stop stop-color="#CBD6E2"/>
<stop offset="1" stop-color="#EDF3F5"/>
</linearGradient>
<linearGradient id="paint11_linear" x1="27681.6" y1="100875" x2="71717.5" y2="100875" gradientUnits="userSpaceOnUse">
<stop stop-color="white"/>
<stop offset="1" stop-color="#CBD6E2"/>
</linearGradient>
<linearGradient id="paint12_linear" x1="57662.6" y1="98451.2" x2="57662.6" y2="75932.9" gradientUnits="userSpaceOnUse">
<stop stop-color="#64758C"/>
<stop offset="1" stop-color="#B1BAC9"/>
</linearGradient>
<linearGradient id="paint13_linear" x1="294.287" y1="432.007" x2="294.287" y2="374.128" gradientUnits="userSpaceOnUse">
<stop stop-color="#8D9FB3"/>
<stop offset="0.17" stop-color="#91A3B6"/>
<stop offset="0.37" stop-color="#9FAEBF"/>
<stop offset="0.57" stop-color="#B5C0CD"/>
<stop offset="0.77" stop-color="#D3DAE2"/>
<stop offset="0.98" stop-color="#FAFBFC"/>
<stop offset="1" stop-color="white"/>
</linearGradient>
<linearGradient id="paint14_linear" x1="279.11" y1="434.378" x2="420.481" y2="434.378" gradientUnits="userSpaceOnUse">
<stop stop-color="#B6C5D6"/>
<stop offset="1" stop-color="#A7B5C8"/>
</linearGradient>
<linearGradient id="paint15_linear" x1="480.79" y1="367.178" x2="495.267" y2="352.701" gradientUnits="userSpaceOnUse">
<stop stop-color="#DFE6ED"/>
<stop offset="1" stop-color="white"/>
</linearGradient>
<linearGradient id="paint16_linear" x1="493.328" y1="367.387" x2="501.64" y2="359.075" gradientUnits="userSpaceOnUse">
<stop stop-color="#97A8BD"/>
<stop offset="1" stop-color="#BAC4D4"/>
</linearGradient>
<linearGradient id="paint17_linear" x1="479.998" y1="369.824" x2="499.203" y2="369.824" gradientUnits="userSpaceOnUse">
<stop stop-color="#B1BAC9"/>
<stop offset="1" stop-color="#64758C"/>
</linearGradient>
<linearGradient id="paint18_linear" x1="28647.7" y1="24198.4" x2="28647.7" y2="26508.8" gradientUnits="userSpaceOnUse">
<stop stop-color="white"/>
<stop offset="1" stop-color="#CBD6E2"/>
</linearGradient>
<linearGradient id="paint19_linear" x1="21216.5" y1="25353.4" x2="22900.3" y2="25353.4" gradientUnits="userSpaceOnUse">
<stop stop-color="#97A8BD"/>
<stop offset="1" stop-color="#BAC4D4"/>
</linearGradient>
<linearGradient id="paint20_linear" x1="44286.6" y1="44099.3" x2="51611.3" y2="44099.3" gradientUnits="userSpaceOnUse">
<stop stop-color="#97A8BD"/>
<stop offset="1" stop-color="#BAC4D4"/>
</linearGradient>
<linearGradient id="paint21_linear" x1="68418.3" y1="35223.6" x2="68418.3" y2="31788.1" gradientUnits="userSpaceOnUse">
<stop stop-color="#CBD6E2"/>
<stop offset="1" stop-color="white"/>
</linearGradient>
<linearGradient id="paint22_linear" x1="44392.8" y1="12462.7" x2="50023" y2="12462.7" gradientUnits="userSpaceOnUse">
<stop stop-color="#64758C"/>
<stop offset="1" stop-color="#B1BAC9"/>
</linearGradient>
<linearGradient id="paint23_linear" x1="19335.5" y1="25294.2" x2="19335.5" y2="23610.4" gradientUnits="userSpaceOnUse">
<stop stop-color="#97A8BD"/>
<stop offset="1" stop-color="#BAC4D4"/>
</linearGradient>
<linearGradient id="paint24_linear" x1="38715.7" y1="25294.2" x2="38715.7" y2="23610.4" gradientUnits="userSpaceOnUse">
<stop stop-color="#CBD6E2"/>
<stop offset="1" stop-color="white"/>
</linearGradient>
<linearGradient id="paint25_linear" x1="279.11" y1="525.94" x2="279.11" y2="483.244" gradientUnits="userSpaceOnUse">
<stop stop-color="#64758C"/>
<stop offset="1" stop-color="#78879C"/>
</linearGradient>
<linearGradient id="paint26_linear" x1="328.447" y1="525.94" x2="328.447" y2="426.315" gradientUnits="userSpaceOnUse">
<stop stop-color="#96A2B5"/>
<stop offset="0.17" stop-color="#9CA7B9"/>
<stop offset="0.38" stop-color="#ABB5C4"/>
<stop offset="0.62" stop-color="#C5CCD6"/>
<stop offset="0.87" stop-color="#E9ECF0"/>
<stop offset="1" stop-color="white"/>
</linearGradient>
<linearGradient id="paint27_linear" x1="253.491" y1="458.576" x2="349.323" y2="458.576" gradientUnits="userSpaceOnUse">
<stop stop-color="#CBD6E2"/>
<stop offset="0.45" stop-color="#EFF2F6"/>
<stop offset="1" stop-color="#CBD6E2"/>
</linearGradient>
<linearGradient id="paint28_linear" x1="21458.1" y1="27735.5" x2="24494.1" y2="27735.5" gradientUnits="userSpaceOnUse">
<stop stop-color="#64758C"/>
<stop offset="1" stop-color="#78879C"/>
</linearGradient>
<linearGradient id="paint29_linear" x1="396.29" y1="525.94" x2="396.29" y2="471.853" gradientUnits="userSpaceOnUse">
<stop stop-color="#8390A3"/>
<stop offset="1" stop-color="#CFD9E4"/>
</linearGradient>
<linearGradient id="paint30_linear" x1="34488.7" y1="23977.3" x2="42426.3" y2="23977.3" gradientUnits="userSpaceOnUse">
<stop stop-color="#CBD6E2"/>
<stop offset="1" stop-color="white"/>
</linearGradient>
<linearGradient id="paint31_linear" x1="13903.2" y1="39783.3" x2="13903.2" y2="33613.7" gradientUnits="userSpaceOnUse">
<stop stop-color="#64758C"/>
<stop offset="1" stop-color="#B1BAC9"/>
</linearGradient>
<linearGradient id="paint32_linear" x1="238.779" y1="413.98" x2="238.779" y2="313.399" gradientUnits="userSpaceOnUse">
<stop stop-color="#8D9FB3"/>
<stop offset="1" stop-color="white"/>
</linearGradient>
<linearGradient id="paint33_linear" x1="351.896" y1="2317" x2="346.575" y2="2311.92" gradientUnits="userSpaceOnUse">
<stop stop-color="#B1BAC9"/>
<stop offset="1" stop-color="#64758C"/>
</linearGradient>
<linearGradient id="paint34_linear" x1="2827.77" y1="2093.28" x2="2827.77" y2="2085.3" gradientUnits="userSpaceOnUse">
<stop stop-color="#B1BAC9"/>
<stop offset="1" stop-color="#64758C"/>
</linearGradient>
<linearGradient id="paint35_linear" x1="571.363" y1="351.096" x2="598.239" y2="324.22" gradientUnits="userSpaceOnUse">
<stop stop-color="#97A8BD"/>
<stop offset="1" stop-color="#DCE5F2"/>
</linearGradient>
<linearGradient id="paint36_linear" x1="29721.9" y1="9254.39" x2="31628.5" y2="9254.39" gradientUnits="userSpaceOnUse">
<stop stop-color="#CBD6E2"/>
<stop offset="1" stop-color="white"/>
</linearGradient>
<linearGradient id="paint37_linear" x1="21351.3" y1="19496.7" x2="22365.1" y2="19496.7" gradientUnits="userSpaceOnUse">
<stop stop-color="#DFE6ED"/>
<stop offset="1" stop-color="white"/>
</linearGradient>
</defs>
</svg>
