<svg width="16" height="16" viewBox="0 0 16 16" fill="none" xmlns="http://www.w3.org/2000/svg">
<path d="M7.9987 14.6667C11.6806 14.6667 14.6654 11.6819 14.6654 8.00001C14.6654 4.31811 11.6806 1.33334 7.9987 1.33334C4.3168 1.33334 1.33203 4.31811 1.33203 8.00001C1.33203 11.6819 4.3168 14.6667 7.9987 14.6667Z" fill="#FF6F48"/>
<path d="M7.61958 5.17082C7.73932 4.8023 8.26068 4.8023 8.38042 5.17082L8.80825 6.48754C8.8618 6.65235 9.01538 6.76393 9.18867 6.76393H10.5732C10.9606 6.76393 11.1218 7.25978 10.8083 7.48754L9.6882 8.30132C9.548 8.40317 9.48934 8.58372 9.54289 8.74853L9.97072 10.0652C10.0905 10.4338 9.66867 10.7402 9.35518 10.5125L8.23511 9.69868C8.09492 9.59683 7.90508 9.59683 7.76489 9.69868L6.64482 10.5125C6.33133 10.7402 5.90954 10.4338 6.02928 10.0652L6.45711 8.74853C6.51066 8.58372 6.452 8.40317 6.3118 8.30132L5.19173 7.48754C4.87825 7.25978 5.03936 6.76393 5.42685 6.76393H6.81133C6.98462 6.76393 7.1382 6.65235 7.19175 6.48754L7.61958 5.17082Z" fill="white"/>
</svg>
