<svg width="166" height="166" viewBox="0 0 166 166" fill="none" xmlns="http://www.w3.org/2000/svg">
<g filter="url(#filter0_d)">
<path d="M83 111C56.5327 111 35 89.4673 35 63C35 36.5327 56.5327 15 83 15C109.467 15 131 36.5327 131 63C131 89.4673 109.467 111 83 111Z" fill="#A88AFF"/>
<path d="M83.0051 21.7605C60.2655 21.7605 41.7656 40.2604 41.7656 63C41.7656 85.7396 60.2655 104.24 83.0051 104.24C105.745 104.24 124.245 85.7396 124.245 63C124.245 40.2604 105.745 21.7605 83.0051 21.7605Z" fill="#7646FF"/>
<path d="M38.8634 63C38.8634 37.1799 59.3568 16.0599 84.9318 15.0422C84.2906 15.0167 83.6473 15 83 15C56.5327 15 35 36.5327 35 63C35 89.4673 56.5327 111 83 111C83.6473 111 84.2906 110.983 84.9316 110.958C59.3568 109.94 38.8634 88.8201 38.8634 63Z" fill="#6235E2"/>
<path d="M45.6291 63C45.6291 40.908 63.0908 22.8197 84.9368 21.8072C84.2964 21.7776 83.6526 21.7605 83.0051 21.7605C60.2655 21.7605 41.7656 40.2604 41.7656 63C41.7656 85.7396 60.2655 104.24 83.0051 104.24C83.6528 104.24 84.2964 104.223 84.9368 104.193C63.0908 103.18 45.6291 85.092 45.6291 63Z" fill="#6235E2"/>
<g clip-path="url(#clip0)">
<path d="M86.2898 53.677C81.4409 52.6605 77.651 48.8705 76.6347 44.0216C76.5098 43.4264 75.9848 43 75.3765 43C74.7681 43 74.2431 43.4264 74.1184 44.0217C73.102 48.8705 69.312 52.6604 64.4632 53.6767C63.8679 53.8015 63.4414 54.3266 63.4414 54.9348C63.4414 55.5431 63.8678 56.0682 64.4632 56.193C69.312 57.2095 73.1017 60.9993 74.1181 65.8481C74.2429 66.4434 74.7679 66.8699 75.3763 66.8699C75.9845 66.8699 76.5096 66.4435 76.6344 65.8481C77.6509 60.9993 81.4409 57.2095 86.2897 56.1932C86.885 56.0684 87.3115 55.5434 87.3115 54.9351C87.3114 54.3268 86.885 53.8017 86.2898 53.677Z" fill="#F3F7FF"/>
<path d="M75.3765 43C75.9848 43 76.5098 43.4264 76.6347 44.0216C75.9009 43.8504 75.6401 43.9445 75.3765 44.5793C74.0393 47.8817 71.44 51.69 70.0312 53.6386C69.4783 54.4034 69.5001 55.4523 70.072 56.2029C71.6219 58.2369 74.5085 62.355 75.3763 65.8481C75.5079 66.3652 75.9679 66.3186 76.6344 65.8481C76.5096 66.4435 75.9845 66.8699 75.3763 66.8699C74.7679 66.8699 74.2429 66.4434 74.1181 65.8481C73.1017 60.9993 69.312 57.2095 64.4632 56.193C63.8678 56.0682 63.4414 55.5431 63.4414 54.9348C63.4414 54.3266 63.8679 53.8015 64.4632 53.6767C69.312 52.6604 73.102 48.8705 74.1184 44.0217C74.2431 43.4264 74.7681 43 75.3765 43Z" fill="#D8DCE5"/>
<path d="M84.1676 74.9128C81.8831 74.434 80.0975 72.6484 79.6185 70.3637C79.4937 69.7684 78.9687 69.3419 78.3604 69.3419C77.7521 69.3419 77.227 69.7682 77.1023 70.3636C76.6233 72.6482 74.8376 74.4338 72.553 74.9127C71.9577 75.0375 71.5312 75.5626 71.5312 76.1709C71.5312 76.7792 71.9577 77.3042 72.553 77.429C74.8375 77.9079 76.6232 79.6936 77.1021 81.9782C77.2269 82.5735 77.7519 83 78.3602 83C78.9685 83 79.4936 82.5737 79.6184 81.9782C80.0973 79.6936 81.883 77.908 84.1676 77.4291C84.763 77.3043 85.1894 76.7792 85.1894 76.171C85.1894 75.5627 84.763 75.0377 84.1676 74.9128Z" fill="#F3F7FF"/>
<path d="M78.3604 69.3419C78.9687 69.3419 79.4937 69.7684 79.6185 70.3637C78.8897 70.173 78.5779 70.2306 78.3604 71.0327C77.9303 72.8424 77.4895 73.9083 76.845 75.1467C76.513 75.7844 76.534 76.545 76.8861 77.1718C77.6091 78.4591 78.0174 79.5264 78.3604 81.3256C78.4962 81.9809 78.6098 82.1107 79.6184 81.9782C79.4936 82.5737 78.9685 83 78.3602 83C77.7519 83 77.2269 82.5735 77.1021 81.9782C76.6232 79.6936 74.8375 77.9079 72.553 77.429C71.9577 77.3042 71.5312 76.7792 71.5312 76.1709C71.5312 75.5626 71.9577 75.0375 72.553 74.9127C74.8376 74.4338 76.6233 72.6482 77.1023 70.3636C77.227 69.7682 77.7521 69.3419 78.3604 69.3419Z" fill="#D8DCE5"/>
<path d="M101.535 63.0106C98.4469 62.3632 96.0334 59.9496 95.3861 56.8617C95.2613 56.2664 94.7363 55.8399 94.128 55.8399C93.5197 55.8399 92.9946 56.2663 92.8698 56.8617C92.2225 59.9496 89.809 62.3631 86.721 63.0104C86.1257 63.1352 85.6992 63.6602 85.6992 64.2685C85.6992 64.8768 86.1256 65.4018 86.721 65.5267C89.8089 66.174 92.2224 68.5875 92.8697 71.6755C92.9945 72.2708 93.5195 72.6973 94.1278 72.6973C94.7361 72.6973 95.2612 72.271 95.3859 71.6755C96.0334 68.5875 98.4469 66.174 101.535 65.5268C102.13 65.402 102.557 64.877 102.557 64.2687C102.557 63.6604 102.13 63.1353 101.535 63.0106Z" fill="#F3F7FF"/>
<path d="M94.128 55.8399C94.7363 55.8399 95.2613 56.2664 95.3861 56.8617C94.6841 56.7405 94.3219 56.7636 94.128 57.3444C93.3847 59.8517 92.7577 61.2926 91.6527 63.1088C91.2231 63.8151 91.245 64.7065 91.6997 65.3969C92.9198 67.2495 93.4992 68.661 94.128 70.9525C94.3261 71.5575 94.6853 71.6885 95.3859 71.6755C95.2612 72.271 94.7361 72.6973 94.1278 72.6973C93.5195 72.6973 92.9945 72.2708 92.8697 71.6755C92.2224 68.5875 89.8089 66.174 86.721 65.5267C86.1256 65.4018 85.6992 64.8768 85.6992 64.2685C85.6992 63.6603 86.1257 63.1352 86.721 63.0104C89.809 62.3631 92.2225 59.9496 92.8698 56.8617C92.9946 56.2663 93.5197 55.8399 94.128 55.8399Z" fill="#D8DCE5"/>
</g>
</g>
<defs>
<filter id="filter0_d" x="0" y="0" width="166" height="166" filterUnits="userSpaceOnUse" color-interpolation-filters="sRGB">
<feFlood flood-opacity="0" result="BackgroundImageFix"/>
<feColorMatrix in="SourceAlpha" type="matrix" values="0 0 0 0 0 0 0 0 0 0 0 0 0 0 0 0 0 0 127 0"/>
<feOffset dy="20"/>
<feGaussianBlur stdDeviation="17.5"/>
<feColorMatrix type="matrix" values="0 0 0 0 0.658824 0 0 0 0 0.541176 0 0 0 0 1 0 0 0 0.3 0"/>
<feBlend mode="normal" in2="BackgroundImageFix" result="effect1_dropShadow"/>
<feBlend mode="normal" in="SourceGraphic" in2="effect1_dropShadow" result="shape"/>
</filter>
<clipPath id="clip0">
<rect width="40" height="40" fill="white" transform="translate(63 43)"/>
</clipPath>
</defs>
</svg>
