<svg width="95" height="38" viewBox="0 0 95 38" fill="none" xmlns="http://www.w3.org/2000/svg">
<g filter="url(#filter0_d)">
<path d="M7 15C7 10.3222 7 7.98333 8.07293 6.27578C8.63242 5.38535 9.38535 4.63242 10.2758 4.07293C11.9833 3 14.3222 3 19 3H76C80.6778 3 83.0167 3 84.7242 4.07293C85.6147 4.63242 86.3676 5.38535 86.9271 6.27578C88 7.98333 88 10.3222 88 15C88 19.6778 88 22.0167 86.9271 23.7242C86.3676 24.6147 85.6147 25.3676 84.7242 25.9271C83.0167 27 80.6778 27 76 27H19C14.3222 27 11.9833 27 10.2758 25.9271C9.38535 25.3676 8.63242 24.6147 8.07293 23.7242C7 22.0167 7 19.6778 7 15Z" fill="url(#paint0_linear)"/>
<path d="M42.816 19.108C42.16 19.108 41.544 19.02 40.968 18.844C40.4 18.668 39.916 18.416 39.516 18.088L40.044 16.96C40.46 17.272 40.892 17.504 41.34 17.656C41.796 17.8 42.292 17.872 42.828 17.872C43.42 17.872 43.876 17.768 44.196 17.56C44.524 17.352 44.688 17.06 44.688 16.684C44.688 16.364 44.536 16.12 44.232 15.952C43.936 15.776 43.444 15.612 42.756 15.46C41.684 15.228 40.904 14.928 40.416 14.56C39.928 14.192 39.684 13.656 39.684 12.952C39.684 12.448 39.82 12 40.092 11.608C40.364 11.216 40.748 10.908 41.244 10.684C41.748 10.46 42.328 10.348 42.984 10.348C43.584 10.348 44.152 10.44 44.688 10.624C45.232 10.8 45.676 11.048 46.02 11.368L45.504 12.496C44.744 11.888 43.904 11.584 42.984 11.584C42.432 11.584 41.996 11.7 41.676 11.932C41.356 12.156 41.196 12.464 41.196 12.856C41.196 13.192 41.336 13.448 41.616 13.624C41.904 13.8 42.392 13.964 43.08 14.116C43.792 14.284 44.372 14.468 44.82 14.668C45.268 14.86 45.612 15.112 45.852 15.424C46.092 15.728 46.212 16.112 46.212 16.576C46.212 17.088 46.076 17.536 45.804 17.92C45.532 18.296 45.14 18.588 44.628 18.796C44.116 19.004 43.512 19.108 42.816 19.108ZM49.3646 14.068V16.78C49.3646 17.492 49.6966 17.848 50.3606 17.848C50.5446 17.848 50.7446 17.816 50.9606 17.752V18.94C50.6966 19.036 50.3766 19.084 50.0006 19.084C49.3126 19.084 48.7846 18.892 48.4166 18.508C48.0486 18.124 47.8646 17.572 47.8646 16.852V14.068H46.7006V12.94H47.8646V11.464L49.3646 10.96V12.94H50.9726V14.068H49.3646ZM57.7995 12.94V19H56.3235V18.028C56.1395 18.364 55.8755 18.628 55.5315 18.82C55.1875 19.004 54.7955 19.096 54.3555 19.096C53.8275 19.096 53.3595 18.968 52.9515 18.712C52.5435 18.456 52.2275 18.092 52.0035 17.62C51.7795 17.148 51.6675 16.6 51.6675 15.976C51.6675 15.352 51.7795 14.8 52.0035 14.32C52.2355 13.832 52.5555 13.456 52.9635 13.192C53.3715 12.92 53.8355 12.784 54.3555 12.784C54.7955 12.784 55.1875 12.88 55.5315 13.072C55.8755 13.256 56.1395 13.516 56.3235 13.852V12.94H57.7995ZM54.7635 17.92C55.2595 17.92 55.6435 17.748 55.9155 17.404C56.1875 17.06 56.3235 16.576 56.3235 15.952C56.3235 15.312 56.1875 14.82 55.9155 14.476C55.6435 14.132 55.2555 13.96 54.7515 13.96C54.2555 13.96 53.8675 14.14 53.5875 14.5C53.3155 14.852 53.1795 15.344 53.1795 15.976C53.1795 16.6 53.3155 17.08 53.5875 17.416C53.8675 17.752 54.2595 17.92 54.7635 17.92ZM62.6972 12.796C62.9292 12.796 63.1292 12.828 63.2972 12.892L63.2852 14.26C63.0292 14.156 62.7652 14.104 62.4932 14.104C61.9812 14.104 61.5892 14.252 61.3172 14.548C61.0532 14.844 60.9212 15.236 60.9212 15.724V19H59.4332V14.656C59.4332 14.016 59.4012 13.444 59.3372 12.94H60.7412L60.8612 14.008C61.0132 13.616 61.2532 13.316 61.5812 13.108C61.9092 12.9 62.2812 12.796 62.6972 12.796ZM66.5912 14.068V16.78C66.5912 17.492 66.9232 17.848 67.5872 17.848C67.7712 17.848 67.9712 17.816 68.1872 17.752V18.94C67.9232 19.036 67.6032 19.084 67.2272 19.084C66.5392 19.084 66.0112 18.892 65.6432 18.508C65.2752 18.124 65.0912 17.572 65.0912 16.852V14.068H63.9272V12.94H65.0912V11.464L66.5912 10.96V12.94H68.1992V14.068H66.5912ZM74.5341 16.048H70.3581C70.3901 16.696 70.5501 17.176 70.8381 17.488C71.1341 17.792 71.5701 17.944 72.1461 17.944C72.8101 17.944 73.4261 17.728 73.9941 17.296L74.4261 18.328C74.1381 18.56 73.7821 18.748 73.3581 18.892C72.9421 19.028 72.5181 19.096 72.0861 19.096C71.0941 19.096 70.3141 18.816 69.7461 18.256C69.1781 17.696 68.8941 16.928 68.8941 15.952C68.8941 15.336 69.0181 14.788 69.2661 14.308C69.5141 13.828 69.8621 13.456 70.3101 13.192C70.7581 12.92 71.2661 12.784 71.8341 12.784C72.6661 12.784 73.3221 13.056 73.8021 13.6C74.2901 14.136 74.5341 14.876 74.5341 15.82V16.048ZM71.8701 13.864C71.4701 13.864 71.1421 13.984 70.8861 14.224C70.6381 14.456 70.4781 14.796 70.4061 15.244H73.2261C73.1781 14.788 73.0381 14.444 72.8061 14.212C72.5821 13.98 72.2701 13.864 71.8701 13.864ZM79.0683 12.796C79.3003 12.796 79.5003 12.828 79.6683 12.892L79.6563 14.26C79.4003 14.156 79.1363 14.104 78.8643 14.104C78.3523 14.104 77.9603 14.252 77.6883 14.548C77.4243 14.844 77.2923 15.236 77.2923 15.724V19H75.8043V14.656C75.8043 14.016 75.7723 13.444 75.7083 12.94H77.1123L77.2323 14.008C77.3843 13.616 77.6243 13.316 77.9523 13.108C78.2803 12.9 78.6523 12.796 79.0683 12.796Z" fill="white"/>
<path d="M28.914 18.5L27.1074 15.38C27.4771 14.701 27.6697 13.9398 27.6674 13.1667C27.6674 11.929 27.1757 10.742 26.3005 9.86683C25.4254 8.99167 24.2384 8.5 23.0007 8.5C21.763 8.5 20.576 8.99167 19.7009 9.86683C18.8257 10.742 18.334 11.929 18.334 13.1667C18.3317 13.9398 18.5243 14.701 18.894 15.38L17.0874 18.5C17.0287 18.6015 16.9979 18.7167 16.998 18.834C16.9982 18.9512 17.0292 19.0664 17.088 19.1678C17.1469 19.2692 17.2314 19.3534 17.3331 19.4117C17.4348 19.47 17.5501 19.5005 17.6674 19.5H19.5807L20.554 21.14C20.5868 21.1944 20.6273 21.2437 20.674 21.2867C20.7976 21.4058 20.9624 21.4726 21.134 21.4733H21.2274C21.328 21.4596 21.4242 21.423 21.5085 21.3664C21.5929 21.3097 21.6632 21.2346 21.714 21.1467L23.0007 18.9333L24.2874 21.1667C24.339 21.2534 24.4096 21.3272 24.4939 21.3826C24.5782 21.4381 24.674 21.4736 24.774 21.4867H24.8674C25.0413 21.4877 25.2088 21.4207 25.334 21.3C25.3789 21.2595 25.4171 21.2123 25.4474 21.16L26.4207 19.52H28.334C28.4515 19.5205 28.567 19.4899 28.6689 19.4313C28.7707 19.3728 28.8553 19.2884 28.914 19.1867C28.9763 19.083 29.0092 18.9643 29.0092 18.8433C29.0092 18.7224 28.9763 18.6037 28.914 18.5ZM21.1274 19.52L20.534 18.5267C20.4756 18.4281 20.3928 18.3463 20.2935 18.2891C20.1943 18.2318 20.0819 18.2012 19.9674 18.2H18.814L19.7674 16.5467C20.4239 17.1793 21.2512 17.6057 22.1474 17.7733L21.1274 19.52ZM23.0007 16.5C22.3414 16.5 21.697 16.3045 21.1488 15.9382C20.6006 15.572 20.1734 15.0514 19.9211 14.4423C19.6688 13.8332 19.6028 13.163 19.7314 12.5164C19.86 11.8698 20.1775 11.2758 20.6437 10.8096C21.1099 10.3435 21.7038 10.026 22.3504 9.89738C22.997 9.76876 23.6672 9.83478 24.2763 10.0871C24.8854 10.3394 25.406 10.7666 25.7723 11.3148C26.1385 11.8629 26.334 12.5074 26.334 13.1667C26.334 14.0507 25.9828 14.8986 25.3577 15.5237C24.7326 16.1488 23.8848 16.5 23.0007 16.5ZM26.034 18.2C25.9195 18.2012 25.8071 18.2318 25.7079 18.2891C25.6086 18.3463 25.5258 18.4281 25.4674 18.5267L24.874 19.52L23.8607 17.7533C24.7537 17.5823 25.578 17.1562 26.234 16.5267L27.1874 18.18L26.034 18.2Z" fill="white"/>
<path d="M8.07293 23.7242L8.91965 23.1922L8.07293 23.7242ZM86.9271 23.7242L87.7738 24.2563L86.9271 23.7242ZM84.7242 25.9271L85.2563 26.7738L84.7242 25.9271ZM84.7242 4.07293L84.1922 4.91965L84.7242 4.07293ZM86.9271 6.27578L87.7738 5.74374L86.9271 6.27578ZM19 4H76V2H19V4ZM76 26H19V28H76V26ZM19 26C16.6413 26 14.944 25.9989 13.6206 25.8706C12.3126 25.7437 11.4756 25.5 10.8078 25.0803L9.74374 26.7738C10.7835 27.4271 11.9698 27.7198 13.4275 27.8612C14.8699 28.0011 16.6809 28 19 28V26ZM6 15C6 17.3191 5.9989 19.1301 6.13879 20.5725C6.28016 22.0302 6.57289 23.2165 7.22621 24.2563L8.91965 23.1922C8.50004 22.5244 8.2563 21.6874 8.12945 20.3794C8.0011 19.056 8 17.3587 8 15H6ZM10.8078 25.0803C10.0446 24.6008 9.39922 23.9554 8.91965 23.1922L7.22621 24.2563C7.86563 25.2739 8.72611 26.1344 9.74374 26.7738L10.8078 25.0803ZM87 15C87 17.3587 86.9989 19.056 86.8706 20.3794C86.7437 21.6874 86.5 22.5244 86.0803 23.1922L87.7738 24.2563C88.4271 23.2165 88.7198 22.0302 88.8612 20.5725C89.0011 19.1301 89 17.3191 89 15H87ZM76 28C78.3191 28 80.1301 28.0011 81.5725 27.8612C83.0302 27.7198 84.2165 27.4271 85.2563 26.7738L84.1922 25.0803C83.5244 25.5 82.6874 25.7437 81.3794 25.8706C80.056 25.9989 78.3587 26 76 26V28ZM86.0803 23.1922C85.6008 23.9554 84.9554 24.6008 84.1922 25.0803L85.2563 26.7738C86.2739 26.1344 87.1344 25.2739 87.7738 24.2563L86.0803 23.1922ZM76 4C78.3587 4 80.056 4.0011 81.3794 4.12945C82.6874 4.2563 83.5244 4.50004 84.1922 4.91965L85.2563 3.22621C84.2165 2.57289 83.0302 2.28016 81.5725 2.13879C80.1301 1.9989 78.3191 2 76 2V4ZM89 15C89 12.6809 89.0011 10.8699 88.8612 9.42753C88.7198 7.96978 88.4271 6.78348 87.7738 5.74374L86.0803 6.80781C86.5 7.47563 86.7437 8.31256 86.8706 9.62059C86.9989 10.944 87 12.6413 87 15H89ZM84.1922 4.91965C84.9554 5.39922 85.6008 6.04458 86.0803 6.80781L87.7738 5.74374C87.1344 4.72611 86.2739 3.86563 85.2563 3.22621L84.1922 4.91965ZM19 2C16.6809 2 14.8699 1.9989 13.4275 2.13879C11.9698 2.28016 10.7835 2.57289 9.74374 3.22621L10.8078 4.91965C11.4756 4.50004 12.3126 4.2563 13.6206 4.12945C14.944 4.0011 16.6413 4 19 4V2ZM8 15C8 12.6413 8.0011 10.944 8.12945 9.62059C8.2563 8.31256 8.50004 7.47563 8.91965 6.80781L7.22621 5.74374C6.57289 6.78348 6.28016 7.96978 6.13879 9.42753C5.9989 10.8699 6 12.6809 6 15H8ZM9.74374 3.22621C8.72611 3.86563 7.86563 4.72611 7.22621 5.74374L8.91965 6.80781C9.39922 6.04458 10.0446 5.39922 10.8078 4.91965L9.74374 3.22621Z" fill="#FFC79B"/>
</g>
<defs>
<filter id="filter0_d" x="0" y="0" width="95" height="38" filterUnits="userSpaceOnUse" color-interpolation-filters="sRGB">
<feFlood flood-opacity="0" result="BackgroundImageFix"/>
<feColorMatrix in="SourceAlpha" type="matrix" values="0 0 0 0 0 0 0 0 0 0 0 0 0 0 0 0 0 0 127 0"/>
<feOffset dy="4"/>
<feGaussianBlur stdDeviation="3.5"/>
<feColorMatrix type="matrix" values="0 0 0 0 1 0 0 0 0 0.552941 0 0 0 0 0.32549 0 0 0 0.3 0"/>
<feBlend mode="normal" in2="BackgroundImageFix" result="effect1_dropShadow"/>
<feBlend mode="normal" in="SourceGraphic" in2="effect1_dropShadow" result="shape"/>
</filter>
<linearGradient id="paint0_linear" x1="53" y1="27" x2="71.5" y2="3" gradientUnits="userSpaceOnUse">
<stop stop-color="#FF8D53"/>
<stop offset="1" stop-color="#F9B16E"/>
</linearGradient>
</defs>
</svg>
