<svg width="166" height="166" viewBox="0 0 166 166" fill="none" xmlns="http://www.w3.org/2000/svg">
<g filter="url(#filter0_d)">
<path d="M83 111C56.5327 111 35 89.4673 35 63C35 36.5327 56.5327 15 83 15C109.467 15 131 36.5327 131 63C131 89.4673 109.467 111 83 111Z" fill="#51E68C"/>
<path d="M83.0051 21.7605C60.2655 21.7605 41.7656 40.2604 41.7656 63C41.7656 85.7396 60.2655 104.24 83.0051 104.24C105.745 104.24 124.245 85.7396 124.245 63C124.245 40.2604 105.745 21.7605 83.0051 21.7605Z" fill="#47D27E"/>
<path d="M38.8634 63C38.8634 37.1799 59.3568 16.0599 84.9318 15.0422C84.2906 15.0167 83.6473 15 83 15C56.5327 15 35 36.5327 35 63C35 89.4673 56.5327 111 83 111C83.6473 111 84.2906 110.983 84.9316 110.958C59.3568 109.94 38.8634 88.8201 38.8634 63Z" fill="#3EBE71"/>
<path d="M45.6291 63C45.6291 40.908 63.0908 22.8197 84.9368 21.8072C84.2964 21.7776 83.6526 21.7605 83.0051 21.7605C60.2655 21.7605 41.7656 40.2604 41.7656 63C41.7656 85.7396 60.2655 104.24 83.0051 104.24C83.6528 104.24 84.2964 104.223 84.9368 104.193C63.0908 103.18 45.6291 85.092 45.6291 63Z" fill="#3EBE71"/>
<path d="M79.1534 69.6353L100.995 47.7934C101.988 46.8009 103.76 47.1322 105.208 48.5811C106.662 50.0353 106.974 51.7553 105.965 52.7636L96.2101 62.5187L90.3756 68.3533L80.572 78.1569C79.7286 79.0003 77.8332 78.9109 76.3559 77.4334L73.3855 74.4631L63.6269 64.7044C62.6967 63.7743 63.049 61.7899 64.381 60.4579C65.8585 58.9806 67.7538 58.891 68.5972 59.7344L78.4981 69.6353C78.679 69.8163 78.9725 69.8163 79.1534 69.6353Z" fill="#F3F7FF"/>
<path d="M63.6308 64.7044C62.7006 63.7742 63.053 61.7899 64.385 60.4579C65.3521 59.596 65.9397 59.2994 67.0621 59.1985C67.0621 59.1985 66.1726 59.9077 65.9153 60.7915C65.658 61.6753 66.2329 62.3059 66.2329 62.3059L78.3901 74.4631C78.3901 74.4631 79.6324 75.7092 81.292 75.6127C82.9517 75.5163 84.1255 74.6074 84.1255 74.6074L80.5759 78.1569C79.7326 79.0003 77.8371 78.9109 76.3598 77.4334L73.3895 74.4631L63.6308 64.7044Z" fill="#D8DCE5"/>
</g>
<defs>
<filter id="filter0_d" x="0" y="0" width="166" height="166" filterUnits="userSpaceOnUse" color-interpolation-filters="sRGB">
<feFlood flood-opacity="0" result="BackgroundImageFix"/>
<feColorMatrix in="SourceAlpha" type="matrix" values="0 0 0 0 0 0 0 0 0 0 0 0 0 0 0 0 0 0 127 0"/>
<feOffset dy="20"/>
<feGaussianBlur stdDeviation="17.5"/>
<feColorMatrix type="matrix" values="0 0 0 0 0.317647 0 0 0 0 0.901961 0 0 0 0 0.54902 0 0 0 0.3 0"/>
<feBlend mode="normal" in2="BackgroundImageFix" result="effect1_dropShadow"/>
<feBlend mode="normal" in="SourceGraphic" in2="effect1_dropShadow" result="shape"/>
</filter>
</defs>
</svg>
