<svg width="15" height="15" viewBox="0 0 15 15" fill="none" xmlns="http://www.w3.org/2000/svg">
<path d="M7.04102 14.0417C10.907 14.0417 14.041 10.9077 14.041 7.04167C14.041 3.17568 10.907 0.0416718 7.04102 0.0416718C3.17502 0.0416718 0.0410156 3.17568 0.0410156 7.04167C0.0410156 10.9077 3.17502 14.0417 7.04102 14.0417Z" fill="#57DF8E"/>
<path d="M10.2256 5.70412L6.43391 9.49579C6.32452 9.60515 6.17617 9.66658 6.02149 9.66658C5.86681 9.66658 5.71847 9.60515 5.60908 9.49579L3.71324 7.59996C3.65753 7.54615 3.61309 7.48177 3.58251 7.41061C3.55194 7.33944 3.53585 7.26289 3.53518 7.18544C3.53451 7.10798 3.54927 7.03118 3.5786 6.95949C3.60793 6.8878 3.65124 6.82266 3.70601 6.76789C3.76079 6.71312 3.82591 6.66981 3.8976 6.64048C3.96929 6.61115 4.0461 6.59638 4.12356 6.59706C4.20101 6.59773 4.27756 6.61383 4.34873 6.6444C4.41989 6.67497 4.48427 6.71941 4.53808 6.77512L6.02149 8.25854L9.40074 4.87929C9.45455 4.82357 9.51892 4.77914 9.59009 4.74857C9.66126 4.718 9.7378 4.7019 9.81526 4.70122C9.89271 4.70055 9.96952 4.71531 10.0412 4.74464C10.1129 4.77397 10.178 4.81729 10.2328 4.87206C10.2876 4.92683 10.3309 4.99196 10.3602 5.06365C10.3896 5.13534 10.4043 5.21215 10.4036 5.2896C10.403 5.36706 10.3869 5.4436 10.3563 5.51477C10.3257 5.58594 10.2813 5.65031 10.2256 5.70412Z" fill="white"/>
</svg>
