<svg xmlns="http://www.w3.org/2000/svg" width="23.679" height="25" viewBox="0 0 23.679 25" fill="#fff"><path d="M18.8,6.776a1.316,1.316,0,0,0,1.789-.487,1.318,1.318,0,1,1,1.145,1.974,1.316,1.316,0,1,0,0,2.632,3.947,3.947,0,1,0-3.421-5.921,1.316,1.316,0,0,0,.487,1.8Zm5.658,9.381a1.316,1.316,0,0,0-1.474,1.132,9.21,9.21,0,0,1-9.145,8.079H6.486l.855-.855a1.316,1.316,0,0,0,0-1.855,9.21,9.21,0,0,1,6.5-15.71,1.316,1.316,0,1,0,0-2.632,11.842,11.842,0,0,0-9.21,19.223l-2.25,2.21A1.324,1.324,0,0,0,3.315,28H13.841a11.842,11.842,0,0,0,11.75-10.357,1.316,1.316,0,0,0-1.132-1.485ZM22.236,12.3a1.316,1.316,0,0,0-.763-.092l-.237.079L21,12.408l-.2.171a1.316,1.316,0,0,0-.276.421,1.105,1.105,0,0,0-.105.526,1.316,1.316,0,1,0,2.632,0,1.105,1.105,0,0,0-.105-.5,1.408,1.408,0,0,0-.711-.711Z" transform="translate(-2.002 -3)" /></svg>