<svg width="24" height="24" viewBox="0 0 16 16" fill="none"
    xmlns="http://www.w3.org/2000/svg">
    <path d="M9.84611 3.91333C9.99919 4.00025 10.1804 4.02309 10.3503 3.97688C10.5201 3.93067 10.6648 3.81915 10.7528 3.66667C10.8256 3.53824 10.9389 3.43759 11.075 3.38052C11.2112 3.32344 11.3624 3.31317 11.505 3.3513C11.6476 3.38943 11.7735 3.47381 11.863 3.59121C11.9525 3.70861 12.0005 3.85239 11.9994 4C11.9994 4.17681 11.9292 4.34638 11.8042 4.4714C11.6792 4.59643 11.5096 4.66667 11.3328 4.66667C11.156 4.66667 10.9864 4.7369 10.8614 4.86193C10.7363 4.98695 10.6661 5.15652 10.6661 5.33333C10.6661 5.51014 10.7363 5.67971 10.8614 5.80474C10.9864 5.92976 11.156 6 11.3328 6C11.6838 5.99977 12.0286 5.90717 12.3325 5.73149C12.6364 5.55581 12.8887 5.30324 13.064 4.99917C13.2394 4.69509 13.3316 4.35022 13.3315 3.9992C13.3314 3.64818 13.2388 3.30338 13.0632 2.99944C12.8876 2.69551 12.6351 2.44315 12.3311 2.26771C12.027 2.09227 11.6822 1.99994 11.3312 2C10.9802 2.00006 10.6353 2.0925 10.3314 2.26803C10.0274 2.44356 9.77495 2.69601 9.59944 3C9.55536 3.07609 9.52677 3.16015 9.51532 3.24733C9.50386 3.33452 9.50977 3.42311 9.53269 3.508C9.55562 3.5929 9.59512 3.67241 9.64891 3.74198C9.7027 3.81154 9.76972 3.86978 9.84611 3.91333ZM12.7128 8.66667C12.5378 8.64395 12.3609 8.69155 12.221 8.79902C12.081 8.90649 11.9893 9.06507 11.9661 9.24C11.8262 10.3701 11.2779 11.4101 10.4245 12.164C9.57113 12.9179 8.47151 13.3338 7.33278 13.3333H3.60611L4.03944 12.9C4.16361 12.7751 4.2333 12.6061 4.2333 12.43C4.2333 12.2539 4.16361 12.0849 4.03944 11.96C3.38941 11.3074 2.94703 10.477 2.76804 9.57351C2.58904 8.66998 2.68143 7.73368 3.03357 6.88255C3.38572 6.03143 3.98185 5.30355 4.7469 4.79059C5.51195 4.27764 6.41168 4.00256 7.33278 4C7.50959 4 7.67916 3.92976 7.80418 3.80474C7.9292 3.67971 7.99944 3.51014 7.99944 3.33333C7.99944 3.15652 7.9292 2.98695 7.80418 2.86193C7.67916 2.7369 7.50959 2.66667 7.33278 2.66667C6.2056 2.67137 5.10254 2.99349 4.14997 3.59613C3.19741 4.19877 2.43386 5.05755 1.94682 6.07408C1.45977 7.09061 1.26892 8.22379 1.39614 9.34377C1.52335 10.4638 1.96348 11.5253 2.66611 12.4067L1.52611 13.5267C1.4336 13.6204 1.37094 13.7395 1.34602 13.8688C1.32111 13.9981 1.33506 14.1319 1.38611 14.2533C1.43612 14.3751 1.52105 14.4793 1.6302 14.5529C1.73935 14.6264 1.86783 14.666 1.99944 14.6667H7.33278C8.79374 14.6669 10.2046 14.134 11.3007 13.168C12.3967 12.2021 13.1027 10.8694 13.2861 9.42C13.2983 9.33284 13.2931 9.24412 13.2708 9.15898C13.2486 9.07383 13.2097 8.99393 13.1564 8.9239C13.1031 8.85386 13.0364 8.79508 12.9603 8.75093C12.8842 8.70678 12.8 8.67814 12.7128 8.66667ZM11.5861 6.71333C11.4647 6.65964 11.3301 6.64339 11.1994 6.66667L11.0794 6.70667L10.9594 6.76667L10.8594 6.85333C10.7995 6.91477 10.7519 6.9872 10.7194 7.06667C10.68 7.14982 10.6617 7.24141 10.6661 7.33333C10.6642 7.42225 10.68 7.51065 10.7128 7.59333C10.7473 7.67334 10.7971 7.74582 10.8594 7.80667C10.9217 7.86845 10.9956 7.91734 11.0768 7.95051C11.1581 7.98369 11.245 8.00051 11.3328 8C11.5096 8 11.6792 7.92976 11.8042 7.80474C11.9292 7.67971 11.9994 7.51014 11.9994 7.33333C12.0017 7.24588 11.9834 7.15912 11.9461 7.08C11.8745 6.9198 11.7463 6.79163 11.5861 6.72V6.71333Z" fill="#262433"/>
</svg>
