<svg xmlns="http://www.w3.org/2000/svg" width="40" height="36.535" viewBox="0 0 40 36.535"><path d="M39.664,2.815a3.724,3.724,0,0,0-3.779-.589L3.3,15.381a3.715,3.715,0,0,0,.19,6.943l6.591,2.292,3.674,12.149a1.815,1.815,0,0,0,.215.459c.014.022.034.038.049.059a1.8,1.8,0,0,0,.384.392c.042.032.082.062.127.09a1.793,1.793,0,0,0,.565.247l.022,0,.012.005a1.858,1.858,0,0,0,.368.037c.012,0,.022-.006.034-.006a1.8,1.8,0,0,0,.547-.1c.041-.014.076-.037.116-.054a1.806,1.806,0,0,0,.371-.208l.277-.233,4.913-5.424,7.328,5.677a3.679,3.679,0,0,0,2.257.776,3.735,3.735,0,0,0,3.651-2.969L40.925,6.4a3.69,3.69,0,0,0-1.261-3.583ZM16.219,25.2a1.807,1.807,0,0,0-.5.92l-.563,2.735-1.426-4.715,7.392-3.849Zm15.094,9.643-8.66-6.708a1.821,1.821,0,0,0-2.461.217l-1.574,1.737.556-2.7L32.054,14.5a1.818,1.818,0,0,0-2.125-2.9L11.445,21.228,4.674,18.75,37.363,5.672Z" transform="translate(-1 -1.954)" fill="#fff"/></svg>