<svg xmlns="http://www.w3.org/2000/svg" width="25" height="25" viewBox="0 0 25 25"><path d="M699.6,408.6h-8.374a2.7,2.7,0,0,1-2.851,0H680a2.7,2.7,0,0,0-2.7,2.7v12.6a2.7,2.7,0,0,0,2.7,2.7h2.186a7.641,7.641,0,0,0,15.226,0H699.6a2.706,2.706,0,0,0,2.7-2.7v-12.6A2.706,2.706,0,0,0,699.6,408.6Zm.151,3.2v11.6a.535.535,0,0,1-.535.535H697.18a7.616,7.616,0,0,0-6.1-5.546v-6.593a.538.538,0,0,1,.537-.536h7.6A.536.536,0,0,1,699.751,411.808Zm-4.96,14.137a4.989,4.989,0,1,1-4.989-4.995A5,5,0,0,1,694.791,425.944Zm-6.263-14.137V418.4a7.618,7.618,0,0,0-6.1,5.546h-2.036a.536.536,0,0,1-.536-.535v-11.6a.537.537,0,0,1,.536-.536h7.6A.538.538,0,0,1,688.528,411.808Z" transform="translate(-677.302 -408.605)" fill="#fff"/></svg>