<svg xmlns="http://www.w3.org/2000/svg" width="30" height="24.422" viewBox="0 0 30 24.422"><path d="M32,6.775a12.735,12.735,0,0,1-3.54.96A6.2,6.2,0,0,0,31.175,4.33a12.315,12.315,0,0,1-3.915,1.5,6.15,6.15,0,0,0-10.5,5.61A17.46,17.46,0,0,1,4.085,5.005a6.24,6.24,0,0,0-.825,3.1,6.135,6.135,0,0,0,2.73,5.115A6.075,6.075,0,0,1,3.2,12.46v.075a6.15,6.15,0,0,0,4.95,6,5.9,5.9,0,0,1-1.65.255,7.35,7.35,0,0,1-1.155-.105,6.165,6.165,0,0,0,5.745,4.26,12.33,12.33,0,0,1-7.59,2.64A11.9,11.9,0,0,1,2,25.5a17.355,17.355,0,0,0,9.435,2.775A17.385,17.385,0,0,0,29,10.75V9.955a12.645,12.645,0,0,0,3-3.18Z" transform="translate(-2 -3.849)" fill="#0078ff"/></svg>