<svg width="24" height="24" viewBox="0 0 24 24" fill="none" xmlns="http://www.w3.org/2000/svg">
<path fill-rule="evenodd" clip-rule="evenodd" d="M13.5549 10.545C13.2616 11.1869 12.8336 11.7581 12.3 12.22C13.0659 12.5668 13.7684 13.0304 14.384 13.5905C13.7405 13.9072 13.1935 14.3371 12.7864 14.8456C11.7214 13.9791 10.3854 13.5 9 13.5C7.4087 13.5 5.88258 14.1321 4.75736 15.2574C3.63214 16.3826 3 17.9087 3 19.5C3 19.7652 2.89464 20.0196 2.70711 20.2071C2.51957 20.3946 2.26522 20.5 2 20.5C1.73478 20.5 1.48043 20.3946 1.29289 20.2071C1.10536 20.0196 1 19.7652 1 19.5C1.00147 17.9633 1.4455 16.4596 2.27898 15.1685C3.11247 13.8775 4.30014 12.8539 5.7 12.22C5.16642 11.7581 4.73845 11.1869 4.44513 10.545C4.1518 9.90316 3.99999 9.20571 4 8.5C4 7.17392 4.52678 5.90215 5.46447 4.96447C6.40215 4.02678 7.67392 3.5 9 3.5C10.3261 3.5 11.5979 4.02678 12.5355 4.96447C13.4732 5.90215 14 7.17392 14 8.5C14 9.20571 13.8482 9.90316 13.5549 10.545ZM7.33329 10.9944C7.82664 11.3241 8.40666 11.5 9 11.5C9.79565 11.5 10.5587 11.1839 11.1213 10.6213C11.6839 10.0587 12 9.29565 12 8.5C12 7.90666 11.8241 7.32664 11.4944 6.83329C11.1648 6.33994 10.6962 5.95542 10.1481 5.72836C9.59987 5.5013 8.99667 5.44189 8.41473 5.55764C7.83279 5.6734 7.29824 5.95912 6.87868 6.37868C6.45912 6.79824 6.1734 7.33279 6.05764 7.91473C5.94189 8.49667 6.0013 9.09987 6.22836 9.64805C6.45542 10.1962 6.83994 10.6648 7.33329 10.9944Z" fill="white"/>
<path fill-rule="evenodd" clip-rule="evenodd" d="M17 14C18.6394 14 20.1589 15.0913 20.9666 16.85C20.9886 16.8973 21 16.9484 21 17C21 17.0516 20.9886 17.1027 20.9666 17.15C20.1589 18.9088 18.6394 20 17 20C15.3606 20 13.8411 18.9088 13.0334 17.15C13.0114 17.1027 13 17.0516 13 17C13 16.9484 13.0114 16.8973 13.0334 16.85C13.8411 15.0913 15.3606 14 17 14ZM17 19C18.1046 19 19 18.1046 19 17C19 15.8954 18.1046 15 17 15C15.8954 15 15 15.8954 15 17C15 18.1046 15.8954 19 17 19Z" fill="white"/>
<circle cx="17" cy="17" r="1" fill="white"/>
</svg>
