<svg width="48" height="48" viewBox="0 0 48 48" fill="none" xmlns="http://www.w3.org/2000/svg">
<g clip-path="url(#clip0)">
<path d="M47.3376 7.52005L40.4837 0.66291C40.2667 0.460006 40.01 0.304346 39.7298 0.205767C39.457 0.0820217 39.161 0.0180054 38.8616 0.0180054C38.5621 0.0180054 38.2661 0.0820217 37.9934 0.205767C37.7132 0.304346 37.4565 0.460006 37.2395 0.66291L30.3856 7.52005C30.168 7.73292 29.9951 7.98715 29.8771 8.26779C29.759 8.54844 29.6982 8.84985 29.6982 9.15434C29.6982 9.45882 29.759 9.76023 29.8771 10.0409C29.9951 10.3215 30.168 10.5758 30.3856 10.7886C30.598 11.0029 30.8507 11.1729 31.1291 11.2889C31.4075 11.405 31.7061 11.4647 32.0077 11.4647C32.3093 11.4647 32.6079 11.405 32.8863 11.2889C33.1647 11.1729 33.4174 11.0029 33.6298 10.7886L36.5541 7.77148V20.5715C36.5541 21.1777 36.7948 21.7591 37.2233 22.1877C37.6517 22.6164 38.2328 22.8572 38.8387 22.8572C39.4447 22.8572 40.0258 22.6164 40.4542 22.1877C40.8827 21.7591 41.1234 21.1777 41.1234 20.5715V7.77148L44.0705 10.7658C44.4986 11.1915 45.0776 11.4304 45.6812 11.4304C46.2848 11.4304 46.8638 11.1915 47.2919 10.7658C47.509 10.5563 47.6826 10.3059 47.8025 10.029C47.9224 9.7521 47.9864 9.45418 47.9906 9.15243C47.9948 8.85068 47.9393 8.55108 47.8272 8.27091C47.7152 7.99073 47.5487 7.73554 47.3376 7.52005Z" fill="#C4C4C4"/>
<path d="M38.8386 27.4286C38.2327 27.4286 37.6516 27.6694 37.2232 28.0981C36.7947 28.5267 36.554 29.1081 36.554 29.7143V41.1429C36.554 41.7491 36.3133 42.3305 35.8849 42.7591C35.4564 43.1878 34.8753 43.4286 34.2694 43.4286H6.85388C6.41324 43.4194 5.98468 43.2828 5.61985 43.0355C5.25502 42.7881 4.9695 42.4404 4.79772 42.0343C4.65213 41.7594 4.57383 41.4539 4.56925 41.1429V13.7143C4.56401 13.3975 4.63451 13.0841 4.77487 12.8C4.95166 12.3947 5.24218 12.0494 5.61119 11.806C5.98021 11.5626 6.41188 11.4315 6.85388 11.4286H22.8463C23.4522 11.4286 24.0333 11.1878 24.4617 10.7591C24.8902 10.3305 25.1309 9.7491 25.1309 9.14289C25.1309 8.53668 24.8902 7.9553 24.4617 7.52665C24.0333 7.09799 23.4522 6.85718 22.8463 6.85718H6.85388C5.03612 6.85718 3.29281 7.57962 2.00745 8.86559C0.722103 10.1516 0 11.8957 0 13.7143L0 41.1429C0 42.9615 0.722103 44.7057 2.00745 45.9916C3.29281 47.2776 5.03612 48 6.85388 48H34.2694C36.0872 48 37.8305 47.2776 39.1158 45.9916C40.4012 44.7057 41.1233 42.9615 41.1233 41.1429V29.7143C41.1233 29.1081 40.8826 28.5267 40.4541 28.0981C40.0257 27.6694 39.4446 27.4286 38.8386 27.4286Z" fill="#C4C4C4"/>
<path d="M27.2331 25.6915L18.2774 20.5715C17.9049 20.3537 17.4815 20.2383 17.05 20.2372C16.6186 20.2361 16.1945 20.3492 15.8209 20.5651C15.4473 20.781 15.1375 21.092 14.9229 21.4665C14.7083 21.841 14.5966 22.2656 14.5992 22.6972V33.1429C14.6162 33.5648 14.7422 33.9751 14.9647 34.3339C15.1873 34.6927 15.4989 34.9877 15.8693 35.1902C16.2396 35.3927 16.6561 35.4958 17.0781 35.4896C17.5001 35.4833 17.9133 35.3678 18.2774 35.1544L27.4159 29.9201C27.7771 29.6894 28.0713 29.3677 28.269 28.9874C28.4667 28.6071 28.5611 28.1814 28.5426 27.7531C28.5241 27.3248 28.3933 26.9089 28.1635 26.547C27.9337 26.1852 27.6129 25.8902 27.2331 25.6915Z" fill="#C4C4C4"/>
</g>
<defs>
<clipPath id="clip0">
<rect width="48" height="48" fill="#C4C4C4"/>
</clipPath>
</defs>
</svg>
