<svg width="30" height="30" viewBox="0 0 30 30" fill="none" xmlns="http://www.w3.org/2000/svg">
<circle cx="15" cy="15" r="14.5" fill="white" stroke="#141323"/>
<path d="M21.2728 12.7598C21.2728 12.7598 21.2728 12.7598 21.2728 12.7264C20.8031 11.4439 19.9508 10.3366 18.8311 9.55433C17.7115 8.77205 16.3786 8.35254 15.0128 8.35254C13.647 8.35254 12.3141 8.77205 11.1945 9.55433C10.0749 10.3366 9.22255 11.4439 8.75281 12.7264C8.75281 12.7264 8.75281 12.7264 8.75281 12.7598C8.22823 14.207 8.22823 15.7925 8.75281 17.2398C8.75281 17.2398 8.75281 17.2398 8.75281 17.2731C9.22255 18.5556 10.0749 19.6629 11.1945 20.4452C12.3141 21.2275 13.647 21.647 15.0128 21.647C16.3786 21.647 17.7115 21.2275 18.8311 20.4452C19.9508 19.6629 20.8031 18.5556 21.2728 17.2731C21.2728 17.2731 21.2728 17.2731 21.2728 17.2398C21.7974 15.7925 21.7974 14.207 21.2728 12.7598ZM9.83948 16.3331C9.6083 15.4592 9.6083 14.5403 9.83948 13.6664H11.0795C10.9728 14.5521 10.9728 15.4474 11.0795 16.3331H9.83948ZM10.3861 17.6664H11.3195C11.476 18.261 11.6996 18.8358 11.9861 19.3798C11.3323 18.9344 10.7858 18.3491 10.3861 17.6664ZM11.3195 12.3331H10.3861C10.7801 11.6525 11.3196 11.0674 11.9661 10.6198C11.6865 11.1646 11.4696 11.7394 11.3195 12.3331ZM14.3328 20.1331C13.514 19.5322 12.9389 18.6566 12.7128 17.6664H14.3328V20.1331ZM14.3328 16.3331H12.4261C12.3017 15.4486 12.3017 14.551 12.4261 13.6664H14.3328V16.3331ZM14.3328 12.3331H12.7128C12.9389 11.3429 13.514 10.4673 14.3328 9.86642V12.3331ZM19.6128 12.3331H18.6795C18.523 11.7385 18.2993 11.1637 18.0128 10.6198C18.6666 11.0651 19.2131 11.6504 19.6128 12.3331ZM15.6661 9.86642C16.485 10.4673 17.06 11.3429 17.2861 12.3331H15.6661V9.86642ZM15.6661 20.1331V17.6664H17.2861C17.06 18.6566 16.485 19.5322 15.6661 20.1331ZM17.5728 16.3331H15.6661V13.6664H17.5728C17.6972 14.551 17.6972 15.4486 17.5728 16.3331ZM18.0328 19.3798C18.3193 18.8358 18.543 18.261 18.6995 17.6664H19.6328C19.2331 18.3491 18.6866 18.9344 18.0328 19.3798ZM20.1595 16.3331H18.9195C18.9737 15.8907 19.0004 15.4454 18.9995 14.9998C19.0002 14.5541 18.9735 14.1088 18.9195 13.6664H20.1595C20.3907 14.5403 20.3907 15.4592 20.1595 16.3331Z" fill="#262433"/>
</svg>
