<svg width="16" height="16" viewBox="0 0 16 16" fill="none" xmlns="http://www.w3.org/2000/svg">
<path d="M14.2728 5.75976C14.2728 5.75976 14.2728 5.75976 14.2728 5.72643C13.8031 4.44391 12.9508 3.33661 11.8311 2.55433C10.7115 1.77205 9.37865 1.35254 8.01281 1.35254C6.64698 1.35254 5.3141 1.77205 4.19449 2.55433C3.07487 3.33661 2.22255 4.44391 1.75281 5.72643C1.75281 5.72643 1.75281 5.72643 1.75281 5.75976C1.22823 7.20702 1.22823 8.79249 1.75281 10.2398C1.75281 10.2398 1.75281 10.2398 1.75281 10.2731C2.22255 11.5556 3.07487 12.6629 4.19449 13.4452C5.3141 14.2275 6.64698 14.647 8.01281 14.647C9.37865 14.647 10.7115 14.2275 11.8311 13.4452C12.9508 12.6629 13.8031 11.5556 14.2728 10.2731C14.2728 10.2731 14.2728 10.2731 14.2728 10.2398C14.7974 8.79249 14.7974 7.20702 14.2728 5.75976ZM2.83948 9.33309C2.6083 8.45923 2.6083 7.54028 2.83948 6.66642H4.07948C3.97283 7.55211 3.97283 8.4474 4.07948 9.33309H2.83948ZM3.38615 10.6664H4.31948C4.47596 11.261 4.69962 11.8358 4.98615 12.3798C4.33234 11.9344 3.78581 11.3491 3.38615 10.6664ZM4.31948 5.33309H3.38615C3.78006 4.65248 4.31961 4.0674 4.96615 3.61976C4.68652 4.16459 4.46957 4.73937 4.31948 5.33309ZM7.33281 13.1331C6.51399 12.5322 5.93891 11.6566 5.71281 10.6664H7.33281V13.1331ZM7.33281 9.33309H5.42615C5.30174 8.44856 5.30174 7.55096 5.42615 6.66642H7.33281V9.33309ZM7.33281 5.33309H5.71281C5.93891 4.34294 6.51399 3.4673 7.33281 2.86642V5.33309ZM12.6128 5.33309H11.6795C11.523 4.73853 11.2993 4.16372 11.0128 3.61976C11.6666 4.06514 12.2131 4.65039 12.6128 5.33309ZM8.66615 2.86642C9.48497 3.4673 10.06 4.34294 10.2861 5.33309H8.66615V2.86642ZM8.66615 13.1331V10.6664H10.2861C10.06 11.6566 9.48497 12.5322 8.66615 13.1331ZM10.5728 9.33309H8.66615V6.66642H10.5728C10.6972 7.55096 10.6972 8.44856 10.5728 9.33309ZM11.0328 12.3798C11.3193 11.8358 11.543 11.261 11.6995 10.6664H12.6328C12.2331 11.3491 11.6866 11.9344 11.0328 12.3798ZM13.1595 9.33309H11.9195C11.9737 8.89073 12.0004 8.44543 11.9995 7.99976C12.0002 7.55409 11.9735 7.10881 11.9195 6.66642H13.1595C13.3907 7.54028 13.3907 8.45923 13.1595 9.33309Z" fill="#262433"/>
</svg>
