<svg xmlns="http://www.w3.org/2000/svg" width="30" height="21.081" viewBox="0 0 30 21.081"><path d="M30.984,11.688a11.584,11.584,0,0,0-1.24-5.628A3.979,3.979,0,0,0,27.4,4.7a106.79,106.79,0,0,0-11.406-.422,106.9,106.9,0,0,0-11.366.409,3.911,3.911,0,0,0-1.99,1.008c-1.226,1.131-1.363,3.066-1.5,4.7a65.806,65.806,0,0,0,0,8.831,13.014,13.014,0,0,0,.409,2.726A4.279,4.279,0,0,0,2.516,23.8a3.9,3.9,0,0,0,2.031,1.063,61.57,61.57,0,0,0,8.858.45c4.77.068,8.953,0,13.9-.382a3.925,3.925,0,0,0,2.085-1.063,3.393,3.393,0,0,0,.831-1.363,14.418,14.418,0,0,0,.709-4.633C30.984,17.112,30.984,12.505,30.984,11.688Zm-18.07,7V10.257L20.981,14.5C18.719,15.749,15.735,17.166,12.914,18.692Z" transform="translate(-0.991 -4.258)" fill="#0078ff"/></svg>