<svg width="440" height="382" viewBox="0 0 440 382" fill="none" xmlns="http://www.w3.org/2000/svg">
<path d="M19.4868 103.132C22.8516 103.863 26.3425 103.78 29.6685 102.888C33.0439 102.004 36.3095 100.744 39.404 99.132C42.5923 97.5094 45.7807 95.7408 48.9691 93.9478L58.6802 88.4716C61.9741 86.6787 65.3328 84.9263 68.8376 83.3362C72.4008 81.7041 76.0774 80.3321 79.8387 79.231C83.7215 78.0734 87.7218 77.355 91.7647 77.0892L93.298 76.9837C93.8708 76.9476 94.4452 76.9476 95.018 76.9837C96.2759 77.0742 97.514 77.3475 98.6931 77.795C100.068 78.3049 101.32 79.0982 102.368 80.1234C103.562 81.2611 104.298 82.7964 104.437 84.4395L104.575 84.9101C104.751 85.4765 104.739 86.0847 104.54 86.6434C104.341 87.2022 103.966 87.6814 103.472 88.0092C100.454 89.9467 97.2492 91.5774 93.9065 92.8769C90.6613 94.1993 87.3513 95.3108 84.1304 96.3493C77.6969 98.4748 71.4256 100.617 66.209 104.186L65.7547 99.3186C67.9894 99.4655 70.2329 99.2351 72.3911 98.6371C74.6383 98.0692 76.9911 97.2985 79.5142 96.4142C84.4631 94.7916 89.3795 93.023 94.3689 91.2543C99.3584 89.4857 104.413 87.7333 109.508 85.8836C114.603 84.0339 119.787 82.1922 125.076 80.5129C130.366 78.8335 135.761 77.2677 141.302 76.067C146.795 74.8684 152.358 74.0176 157.958 73.5195C163.525 73.0171 169.118 72.8789 174.703 73.1058C177.494 73.2356 180.204 73.3897 183.1 73.8035C184.571 74.0015 186.015 74.3718 187.4 74.9068C188.825 75.4511 190.125 76.2791 191.221 77.3407C191.398 77.4741 191.516 77.6726 191.547 77.8924C191.578 78.1123 191.521 78.3355 191.387 78.513C191.254 78.6905 191.055 78.8078 190.836 78.839C190.616 78.8702 190.392 78.8127 190.215 78.6793C188.008 77.4705 185.485 77.3651 182.913 77.5192C181.631 77.6003 180.333 77.7707 178.987 77.9573L174.987 78.5252C169.665 79.3257 164.416 80.3371 159.24 81.5594C154.064 82.7818 148.969 84.2232 143.955 85.8836C138.958 87.5549 134.017 89.4533 129.052 91.4572L114.051 97.6554C108.98 99.708 103.845 101.825 98.4903 103.497C93.0899 105.245 87.5383 106.486 81.9075 107.204C78.9282 107.627 75.9137 107.747 72.9103 107.561C69.5625 107.403 66.3219 106.331 63.5399 104.462L62.9639 104.048C62.609 103.79 62.3223 103.45 62.1285 103.056C61.9348 102.663 61.8398 102.228 61.8518 101.789C61.8637 101.351 61.9823 100.922 62.1973 100.539C62.4123 100.157 62.7171 99.8326 63.0855 99.5944C66.0764 97.5949 69.2688 95.9144 72.6101 94.5806C75.8553 93.242 79.1653 92.1468 82.3943 91.0678C88.8359 88.9341 95.1397 86.8409 100.413 83.3443L99.4476 86.9221C98.894 86.8963 98.3411 86.9875 97.8251 87.1898C97.3568 87.3262 96.8755 87.4132 96.3891 87.4494C95.8536 87.4981 95.237 87.5224 94.5799 87.5305H93.5171H92.2839C88.9393 87.622 85.6136 88.0652 82.3618 88.8529C78.9824 89.6643 75.6554 90.6803 72.3992 91.8953C69.0891 93.1528 65.7628 94.532 62.4203 96.0004C55.7109 99.0184 48.9691 102.199 41.7567 104.697C38.0767 106.029 34.2448 106.896 30.3499 107.277C28.3565 107.435 26.3519 107.378 24.3707 107.107C22.4027 106.824 20.4884 106.247 18.6917 105.395C18.4203 105.264 18.2069 105.037 18.0921 104.758C17.9774 104.48 17.9696 104.168 18.07 103.884C18.1704 103.6 18.3721 103.363 18.6365 103.218C18.9009 103.073 19.2094 103.031 19.503 103.099L19.4868 103.132Z" fill="#F5F5F5"/>
<path d="M427.842 86.2779C421.86 89.6544 415.495 92.2993 408.882 94.1556C405.555 95.0642 402.197 95.7781 398.846 96.4272C395.495 97.0762 392.137 97.8145 388.762 98.358C381.995 99.4857 375.4 100.354 368.82 101.603C365.502 102.187 362.2 102.771 358.93 103.274C357.308 103.526 355.685 103.777 354.103 104.086C353.292 104.232 352.554 104.37 351.856 104.54C351.515 104.621 351.183 104.719 350.923 104.8C350.663 104.881 350.542 104.986 350.55 104.719L349.503 102.731C350.765 102.968 352.054 103.031 353.333 102.918C354.728 102.844 356.148 102.698 357.568 102.528C360.415 102.187 363.247 101.717 366.159 101.303C369.072 100.889 371.919 100.419 374.848 100.078C376.316 99.9076 377.793 99.7616 379.31 99.6967C380.942 99.5617 382.585 99.6877 384.178 100.07C384.55 100.173 384.866 100.417 385.059 100.751C385.252 101.085 385.305 101.482 385.208 101.855C385.176 101.961 385.135 102.064 385.087 102.163L384.835 102.634C384.099 103.956 383.099 105.112 381.898 106.033C380.711 106.926 379.41 107.654 378.028 108.199C375.503 109.196 372.87 109.893 370.183 110.276C367.561 110.623 364.918 110.781 362.273 110.746C359.709 110.746 357.227 110.746 354.801 110.746C352.375 110.746 349.974 110.941 347.556 111.193C345.139 111.444 342.688 111.85 340.255 112.247C335.316 113.078 330.427 114.183 325.611 115.557C325.489 115.59 325.36 115.575 325.249 115.515C325.139 115.454 325.056 115.353 325.019 115.233C324.991 115.138 324.994 115.036 325.028 114.943C325.061 114.85 325.123 114.77 325.205 114.714C327.339 113.243 329.591 111.951 331.939 110.852C334.278 109.744 336.672 108.756 339.111 107.891C341.545 106.99 344.043 106.268 346.591 105.627C349.162 105.005 351.772 104.555 354.403 104.28C357.016 103.988 359.596 103.875 362.086 103.721C364.577 103.567 366.954 103.372 369.307 103.137C371.66 102.901 374.004 102.577 376.341 102.26C378.51 102.038 380.621 101.425 382.572 100.451L383.229 103.007C381.981 102.749 380.702 102.672 379.432 102.78C378.045 102.836 376.625 102.974 375.205 103.145C372.357 103.469 369.526 103.956 366.622 104.353C363.717 104.751 360.861 105.238 357.933 105.595C356.464 105.765 354.988 105.919 353.479 106C351.85 106.141 350.209 106.037 348.611 105.692C348.226 105.596 347.896 105.352 347.69 105.013C347.485 104.674 347.422 104.268 347.516 103.883V103.745C347.635 103.3 347.848 102.885 348.14 102.528C348.345 102.269 348.573 102.03 348.822 101.814C349.232 101.464 349.668 101.147 350.128 100.865C350.939 100.383 351.782 99.9571 352.651 99.5912C354.289 98.9147 355.969 98.3456 357.681 97.8875C361.009 97.0181 364.384 96.3436 367.79 95.8674C371.165 95.3482 374.605 94.9669 378.012 94.6748C381.419 94.3827 384.819 94.1961 388.186 94.0176L393.208 93.6931C394.879 93.6039 396.558 93.3199 398.229 93.109C401.564 92.6547 404.874 92.1517 408.135 91.4864C414.717 90.0337 421.123 87.8739 427.241 85.0448C427.4 84.9843 427.575 84.9851 427.733 85.0471C427.891 85.1091 428.02 85.2278 428.095 85.38C428.17 85.5322 428.186 85.7069 428.139 85.8699C428.092 86.033 427.986 86.1727 427.842 86.2617V86.2779Z" fill="#F5F5F5"/>
<path d="M259.497 12.9383C245.861 14.9371 233.217 21.229 223.399 30.9009C212.878 41.2849 206.384 55.103 195.845 65.5143C185.403 75.8511 172.35 83.1583 158.08 86.6559C146.339 89.5069 135.217 87.2935 123.612 90.773C105.055 96.2841 88.4849 107.039 75.8951 121.744C63.3052 136.449 55.2317 154.478 52.6455 173.663C50.4685 189.64 52.3085 206.455 59.9325 220.692C65.98 231.894 75.2912 240.993 86.6304 246.78C105.413 256.271 127.429 255.661 148.324 258.138C167.878 260.446 186.988 265.608 205.045 273.459C227.617 283.297 248.539 297.333 272.377 303.518C300.906 310.915 332.987 305.75 356.26 287.66C379.533 269.57 392.586 238.299 386.674 209.424C383.031 191.708 373.011 176.022 366.972 158.998C361.759 144.356 359.487 128.83 360.286 113.308C361.042 98.6795 364.504 83.7319 360.678 69.586C357.809 58.9196 350.977 49.7014 343.125 41.9316C322.494 21.4733 289.147 8.27461 259.497 12.9383Z" fill="#263238"/>
<path d="M192.274 120.978H187.619L186.462 117.325L185.333 120.978H180.551L184.322 124.239L182.518 130.078L186.462 126.079L190.507 130.078L188.63 124.175L192.274 120.978Z" fill="white"/>
<path d="M276.922 269.98H272.258L271.101 266.327L269.972 269.98H265.189L268.961 273.241L267.157 279.079L271.101 275.081L275.145 279.079L273.278 273.177L276.922 269.98Z" fill="white"/>
<path d="M192.638 184.493H190.643L190.151 182.927L189.669 184.493H187.619L189.231 185.887L188.466 188.383L190.151 186.68L191.882 188.383L191.08 185.86L192.638 184.493Z" fill="white"/>
<path d="M317.722 170.566H315.727L315.235 169L314.753 170.566H312.703L314.315 171.96L313.55 174.456L315.235 172.743L316.966 174.456L316.164 171.933L317.722 170.566Z" fill="white"/>
<path d="M193.738 162.614H191.753L191.252 161.047L190.769 162.614H188.729L190.341 164.008L189.567 166.504L191.252 164.8L192.982 166.504L192.181 163.981L193.738 162.614Z" fill="white"/>
<path d="M123.902 169.364H121.907L121.415 167.806L120.932 169.364H118.883L120.495 170.758L119.73 173.262L121.415 171.55L123.146 173.262L122.344 170.739L123.902 169.364Z" fill="white"/>
<path d="M132.092 207.357H130.106L129.605 205.79L129.122 207.357H127.082L128.694 208.75L127.92 211.246L129.605 209.534L131.336 211.246L130.534 208.723L132.092 207.357Z" fill="white"/>
<path d="M308.765 131.344H306.77L306.278 129.777L305.796 131.344H303.746L305.358 132.737L304.593 135.233L306.278 133.53L308.009 135.233L307.207 132.71L308.765 131.344Z" fill="white"/>
<path d="M293.963 78.1391H292.524L292.169 77.0005L291.814 78.1391H290.338L291.504 79.1411L290.948 80.9446L292.169 79.7149L293.417 80.9446L292.834 79.1228L293.963 78.1391Z" fill="white"/>
<path d="M210.254 131.672H208.815L208.46 130.533L208.105 131.672H206.629L207.795 132.674L207.239 134.477L208.46 133.247L209.708 134.477L209.134 132.655L210.254 131.672Z" fill="white"/>
<path d="M156.239 143.313H154.799L154.435 142.183L154.089 143.313H152.613L153.779 144.315L153.224 146.127L154.435 144.889L155.683 146.127L155.109 144.306L156.239 143.313Z" fill="white"/>
<path d="M233.901 78.0025H232.462L232.106 76.873L231.751 78.0025H230.275L231.441 79.0045L230.886 80.808L232.106 79.5784L233.354 80.808L232.771 78.9863L233.901 78.0025Z" fill="white"/>
<path d="M341.94 148.395H340.501L340.145 147.266L339.79 148.395H338.314L339.48 149.406L338.925 151.21L340.145 149.971L341.393 151.21L340.81 149.388L341.94 148.395Z" fill="white"/>
<path d="M304.448 103.762H303.018L302.653 102.633L302.307 103.762H300.822L301.997 104.773L301.433 106.577L302.653 105.338L303.901 106.577L303.327 104.755L304.448 103.762Z" fill="white"/>
<path d="M348.953 176.569H347.514L347.15 175.439L346.804 176.569H345.328L346.494 177.58L345.938 179.384L347.15 178.145L348.407 179.384L347.824 177.553L348.953 176.569Z" fill="white"/>
<path d="M315.772 233.125H314.333L313.968 231.996L313.622 233.125H312.146L313.312 234.127L312.757 235.931L313.968 234.701L315.216 235.931L314.642 234.109L315.772 233.125Z" fill="white"/>
<path d="M291.305 172.852H289.866L289.511 171.723L289.155 172.852H287.68L288.846 173.864L288.29 175.667L289.511 174.437L290.758 175.667L290.176 173.845L291.305 172.852Z" fill="white"/>
<path d="M209.453 181.652H208.014L207.65 180.522L207.304 181.652H205.828L206.994 182.663L206.438 184.466L207.65 183.237L208.907 184.466L208.324 182.645L209.453 181.652Z" fill="white"/>
<path d="M144.49 250.687H142.495L142.003 249.12L141.511 250.687H139.471L141.083 252.081L140.318 254.577L142.003 252.864L143.734 254.577L142.932 252.054L144.49 250.687Z" fill="white"/>
<path d="M311.271 295.639H309.285L308.784 294.082L308.301 295.639H306.252L307.873 297.033L307.099 299.529L308.784 297.825L310.515 299.529L309.713 297.006L311.271 295.639Z" fill="white"/>
<path d="M190.816 210.617H188.821L188.329 209.051L187.846 210.617H185.797L187.418 212.011L186.644 214.507L188.329 212.804L190.06 214.507L189.258 211.984L190.816 210.617Z" fill="white"/>
<path d="M338.905 256.775C343.134 255.023 345.142 250.174 343.391 245.945C341.639 241.716 336.79 239.707 332.56 241.459C328.331 243.211 326.323 248.06 328.074 252.289C329.826 256.519 334.675 258.527 338.905 256.775Z" fill="white"/>
<path d="M259.469 53.4087C259.469 54.3347 259.195 55.2399 258.68 56.0098C258.166 56.7798 257.435 57.3798 256.579 57.7342C255.724 58.0886 254.782 58.1813 253.874 58.0006C252.966 57.82 252.132 57.3741 251.477 56.7193C250.822 56.0645 250.376 55.2303 250.195 54.3221C250.015 53.4139 250.108 52.4725 250.462 51.617C250.816 50.7615 251.416 50.0303 252.186 49.5158C252.956 49.0013 253.861 48.7267 254.787 48.7267C256.029 48.7267 257.22 49.22 258.098 50.098C258.976 50.9761 259.469 52.1669 259.469 53.4087Z" fill="white"/>
<path d="M89.9911 154.471L86.1381 155.691C85.0324 155.502 83.8955 155.711 82.9297 156.282C81.9639 156.852 81.2319 157.747 80.8641 158.807L77.8855 161.585C77.8214 161.644 77.7793 161.723 77.7661 161.809C77.753 161.895 77.7695 161.983 77.813 162.058C77.8565 162.133 77.9244 162.192 78.0055 162.223C78.0865 162.255 78.1759 162.258 78.2589 162.232L82.1211 161.066C83.2503 161.299 84.4258 161.109 85.4247 160.533C86.4236 159.958 87.1765 159.035 87.5408 157.941L90.4192 155.154C90.4898 155.089 90.5355 155.002 90.5484 154.907C90.5612 154.812 90.5404 154.715 90.4895 154.634C90.4386 154.553 90.3609 154.492 90.2699 154.462C90.1788 154.433 90.0802 154.436 89.9911 154.471Z" fill="white"/>
<path d="M440 330.394H8V330.61H440V330.394Z" fill="#EBEBEB"/>
<path d="M90.08 338.005H54.4746V338.221H90.08V338.005Z" fill="#EBEBEB"/>
<path d="M162.656 336.277H126.947V336.493H162.656V336.277Z" fill="#EBEBEB"/>
<path d="M209.122 336.277H200.482V336.493H209.122V336.277Z" fill="#EBEBEB"/>
<path d="M122.765 343.656H82.8047V343.872H122.765V343.656Z" fill="#EBEBEB"/>
<path d="M260.979 337.893H242.316V338.109H260.979V337.893Z" fill="#EBEBEB"/>
<path d="M292.799 337.893H268.668V338.109H292.799V337.893Z" fill="#EBEBEB"/>
<path d="M409.181 341.548H355.232V341.764H409.181V341.548Z" fill="#EBEBEB"/>
<path d="M131.839 68.2871C142.284 65.8219 148.752 55.3565 146.287 44.9118C143.822 34.4671 133.356 27.9984 122.912 30.4636C112.467 32.9288 105.998 43.3943 108.464 53.8389C110.929 64.2836 121.394 70.7523 131.839 68.2871Z" fill="#F0F0F0"/>
<path d="M309.716 231.326C311.201 231.689 312.751 231.689 314.235 231.326C315.749 230.985 317.218 230.472 318.615 229.797C321.501 228.449 324.344 226.85 327.255 225.338C330.275 223.727 333.462 222.452 336.759 221.537C338.499 221.078 340.284 220.812 342.082 220.742C343.119 220.63 344.168 220.77 345.14 221.148C345.746 221.392 346.293 221.76 346.747 222.228C347.258 222.752 347.564 223.442 347.611 224.172C347.769 224.381 347.838 224.644 347.804 224.904C347.771 225.165 347.636 225.401 347.43 225.563L347.343 225.615L347.136 225.744C344.404 227.276 341.482 228.438 338.444 229.2C335.623 229.9 332.913 230.987 330.392 232.432L330.254 230.263C332.215 230.496 334.124 229.848 336.397 229.166C338.669 228.483 340.829 227.792 343.058 227.075C347.534 225.675 352.104 224.111 356.83 222.755C361.607 221.304 366.536 220.414 371.518 220.103C373.993 219.953 376.475 219.967 378.949 220.146C380.193 220.218 381.434 220.356 382.664 220.56C383.995 220.733 385.239 221.316 386.223 222.228C386.28 222.295 386.312 222.379 386.314 222.466C386.316 222.554 386.288 222.639 386.234 222.709C386.18 222.778 386.104 222.826 386.019 222.846C385.934 222.865 385.844 222.854 385.766 222.815C383.813 221.727 381.394 222.358 379.018 222.539C376.642 222.72 374.3 223.187 371.993 223.671C367.383 224.632 362.858 225.964 358.463 227.654C353.996 229.278 349.521 231.196 344.734 232.587C342.314 233.284 339.836 233.758 337.33 234.004C336 234.139 334.659 234.139 333.329 234.004C331.846 233.882 330.422 233.363 329.208 232.501L328.672 232.086C328.465 231.927 328.329 231.693 328.294 231.434C328.258 231.175 328.326 230.913 328.482 230.704C328.633 230.515 328.843 230.384 329.078 230.332C331.795 228.761 334.717 227.577 337.762 226.816C340.587 226.112 343.308 225.043 345.857 223.636L345.382 225.209C345.138 225.192 344.894 225.228 344.665 225.312C344.455 225.365 344.241 225.397 344.026 225.407C343.525 225.407 342.989 225.407 342.203 225.407C340.719 225.392 339.239 225.54 337.788 225.848C336.277 226.171 334.786 226.577 333.321 227.066C331.826 227.567 330.34 228.155 328.837 228.794C325.821 229.987 322.789 231.326 319.557 232.345C317.906 232.884 316.193 233.215 314.46 233.33C312.674 233.458 310.887 233.115 309.276 232.337C309.161 232.272 309.074 232.168 309.031 232.044C308.987 231.92 308.99 231.785 309.038 231.663C309.087 231.541 309.178 231.44 309.294 231.38C309.411 231.32 309.545 231.303 309.673 231.335L309.716 231.326Z" fill="#F5F5F5"/>
<path d="M223.999 369.412C316.519 369.412 391.52 365.033 391.52 359.631C391.52 354.23 316.519 349.851 223.999 349.851C131.48 349.851 56.4785 354.23 56.4785 359.631C56.4785 365.033 131.48 369.412 223.999 369.412Z" fill="#F5F5F5"/>
<path opacity="0.3" d="M328.277 355.968H119.725C114.509 355.968 109.356 354.828 104.626 352.629C99.8964 350.429 95.7045 347.223 92.3435 343.234C88.9826 339.245 86.5338 334.57 85.1684 329.536C83.803 324.502 83.554 319.23 84.4389 314.09L138.465 0H309.537L363.563 314.073C364.45 319.214 364.204 324.488 362.839 329.524C361.475 334.56 359.027 339.238 355.666 343.229C352.305 347.22 348.112 350.428 343.381 352.628C338.65 354.829 333.495 355.969 328.277 355.968Z" fill="#407BFF"/>
<path d="M269.532 303.342L263.631 307.048L253.471 294.365L259.372 290.658L269.532 303.342Z" fill="#FF8B7B"/>
<path d="M307.229 279.789L301.474 283.729L287.875 273.473L293.621 269.533L307.229 279.789Z" fill="#FF8B7B"/>
<path d="M300.108 284.567L303.867 276.947C303.928 276.822 304.03 276.722 304.156 276.664C304.281 276.606 304.423 276.593 304.558 276.627L310.727 278.13C310.877 278.167 311.017 278.237 311.136 278.335C311.255 278.434 311.351 278.558 311.415 278.698C311.479 278.839 311.51 278.992 311.506 279.147C311.502 279.302 311.463 279.453 311.392 279.59C310.139 282.027 309.111 283.746 307.59 286.831C306.649 288.732 304.921 292.749 303.625 295.376C302.329 298.002 299.564 297.06 299.858 295.877C301.18 290.537 300.627 288.006 299.996 285.777C299.886 285.373 299.926 284.943 300.108 284.567Z" fill="#263238"/>
<path d="M262.162 303.264L267.13 301.329C267.207 301.229 267.316 301.158 267.438 301.128C267.561 301.098 267.69 301.111 267.804 301.164L270.474 302.409C270.906 302.608 271.287 302.903 271.588 303.272C271.889 303.641 272.101 304.074 272.209 304.537C272.316 305.001 272.316 305.483 272.209 305.947C272.101 306.411 271.889 306.843 271.588 307.213C270.31 308.794 269.178 309.537 267.908 311.187C265.679 314.09 264.624 316.164 262.007 319.576C260.425 321.633 257.903 320.613 258.369 319.576C260.529 314.98 263.251 310.072 262.084 304.845C261.955 304.322 261.982 303.772 262.162 303.264Z" fill="#FF8B7B"/>
<path d="M198.493 136.037C196.022 140.884 193.473 145.74 190.899 150.552L183.123 165.188C182.102 166.955 180.711 168.479 179.044 169.655C177.54 170.698 175.885 171.505 174.137 172.048C171.075 172.943 167.89 173.343 164.702 173.232C161.765 173.15 158.839 172.818 155.958 172.238C154.541 171.962 153.142 171.616 151.759 171.253C150.377 170.891 149.029 170.484 147.604 169.975L148.917 164.903C151.448 165.205 154.153 165.465 156.753 165.525C159.312 165.631 161.876 165.561 164.426 165.318C166.733 165.128 169.001 164.601 171.156 163.754C172.006 163.403 172.796 162.922 173.498 162.328C174.043 161.849 174.482 161.26 174.785 160.6L176.349 157.032C176.902 155.753 177.489 154.5 178.077 153.248C179.235 150.733 180.41 148.236 181.628 145.765C184.038 140.797 186.544 135.907 189.196 131.077L198.493 136.037Z" fill="#FF8B7B"/>
<path d="M198.848 138.24C198.278 139.527 197.612 140.832 196.921 142.128C194.883 145.802 192.627 149.351 190.165 152.755L180.471 146.137C180.471 146.137 181.119 135.346 186.355 128.321C191.59 121.297 199.721 123.362 200.706 130.611C200.973 132.589 200.144 135.354 198.848 138.24Z" fill="#407BFF"/>
<path opacity="0.4" d="M198.848 138.24C198.278 139.527 197.612 140.832 196.921 142.128C194.883 145.802 192.627 149.351 190.165 152.755L180.471 146.137C180.471 146.137 181.119 135.346 186.355 128.321C191.59 121.297 199.721 123.362 200.706 130.611C200.973 132.589 200.144 135.354 198.848 138.24Z" fill="black"/>
<path d="M152.599 165.525L145.264 163.434L145.851 172.325C147.212 172.768 148.678 172.764 150.036 172.315C151.395 171.866 152.574 170.994 153.403 169.828L152.599 165.525Z" fill="#FF8B7B"/>
<path d="M138.602 165.447L142.567 171.288L145.859 172.325L145.263 163.434L138.602 165.447Z" fill="#FF8B7B"/>
<path opacity="0.2" d="M253.471 294.365L258.707 300.905L264.616 297.199L259.38 290.658L253.471 294.365Z" fill="black"/>
<path opacity="0.2" d="M293.629 269.542L287.875 273.482L295.254 279.037L299.617 274.052L293.629 269.542Z" fill="black"/>
<path d="M188.032 141.437C193.13 147.969 201.7 160.946 212.492 184.784L245.22 166.899C238.714 147.139 229.616 131.553 216.129 111.672C215.615 110.917 214.956 110.272 214.191 109.774C213.425 109.275 212.569 108.933 211.671 108.768C210.772 108.602 209.85 108.617 208.958 108.809C208.065 109.002 207.219 109.37 206.47 109.892C204.153 111.486 201.948 113.235 199.869 115.128C195.992 118.724 192.328 122.544 188.896 126.567C188.55 126.999 188.205 127.431 187.876 127.881C186.413 129.845 185.635 132.236 185.663 134.685C185.691 137.134 186.523 139.507 188.032 141.437Z" fill="#407BFF"/>
<path opacity="0.4" d="M188.032 141.437C193.13 147.969 201.7 160.946 212.492 184.784L245.22 166.899C238.714 147.139 229.616 131.553 216.129 111.672C215.615 110.917 214.956 110.272 214.191 109.774C213.425 109.275 212.569 108.933 211.671 108.768C210.772 108.602 209.85 108.617 208.958 108.809C208.065 109.002 207.219 109.37 206.47 109.892C204.153 111.486 201.948 113.235 199.869 115.128C195.992 118.724 192.328 122.544 188.896 126.567C188.55 126.999 188.205 127.431 187.876 127.881C186.413 129.845 185.635 132.236 185.663 134.685C185.691 137.134 186.523 139.507 188.032 141.437Z" fill="black"/>
<path opacity="0.2" d="M214.08 118.662C214.08 118.662 219.515 124.511 225.926 126.68C224.422 124.266 222.853 121.81 221.217 119.31L214.08 118.662Z" fill="black"/>
<path d="M189.534 107.387C191.711 110.843 196.29 116.64 200.688 115.906C200.688 115.906 204.853 120.701 197.491 126.68C190.579 132.261 189.715 127.345 189.715 127.345C192.886 122.507 190.407 120.329 187.486 118.904L189.534 107.387Z" fill="#FF8B7B"/>
<path d="M214.055 139.156C216.647 143.476 217.614 150.656 214.616 152.444C211.618 154.233 205.786 149.973 203.194 145.619C200.602 141.264 201.769 137.687 204.767 135.907C207.765 134.127 211.454 134.784 214.055 139.156Z" fill="#407BFF"/>
<path opacity="0.3" d="M206.598 143.873C207.92 144.4 209.415 145.904 209.285 146.984C209.156 148.064 207.462 148.306 206.14 147.779C205.593 147.594 205.129 147.223 204.829 146.73C204.528 146.237 204.412 145.654 204.499 145.083C204.628 144.003 205.276 143.346 206.598 143.873Z" fill="white"/>
<path opacity="0.3" d="M210.927 141.299C210.754 142.707 211.376 144.755 212.387 145.143C213.398 145.532 214.409 144.167 214.582 142.75C214.678 142.181 214.571 141.596 214.278 141.098C213.986 140.6 213.527 140.222 212.983 140.028C211.981 139.622 211.091 139.89 210.927 141.299Z" fill="white"/>
<path d="M211.437 132.14C210.065 131.55 208.572 131.293 207.082 131.391C205.592 131.488 204.146 131.937 202.862 132.701C201.579 133.464 200.494 134.521 199.698 135.784C198.901 137.047 198.414 138.481 198.278 139.968C197.9 143.357 198.64 146.776 200.386 149.705C202.131 152.635 204.786 154.913 207.946 156.194C209.318 156.788 210.812 157.048 212.305 156.952C213.797 156.856 215.245 156.406 216.53 155.641C217.815 154.876 218.899 153.817 219.695 152.551C220.49 151.284 220.973 149.847 221.105 148.357C221.483 144.969 220.742 141.549 218.997 138.62C217.252 135.691 214.597 133.412 211.437 132.132V132.14ZM201.673 148.945C200.131 146.44 199.491 143.483 199.859 140.564C200.001 139.289 200.428 138.063 201.111 136.977C201.793 135.891 202.712 134.973 203.799 134.292C204.789 133.725 205.885 133.367 207.019 133.241C208.153 133.114 209.301 133.222 210.391 133.557L207.402 154.207C205.003 153.074 203.005 151.239 201.673 148.945ZM219.515 147.787C219.377 149.062 218.95 150.288 218.267 151.373C217.585 152.459 216.664 153.374 215.575 154.051C214.586 154.622 213.491 154.982 212.356 155.11C211.222 155.238 210.074 155.13 208.983 154.794L211.981 134.136C214.374 135.275 216.367 137.108 217.701 139.398C219.247 141.905 219.887 144.866 219.515 147.787Z" fill="white"/>
<path opacity="0.2" d="M188.697 112.078L187.479 118.895C188.174 119.224 188.831 119.626 189.44 120.096C192.991 118.938 193.129 114.912 192.032 113.53C191.41 112.795 189.12 112.234 188.697 112.078Z" fill="black"/>
<path d="M176.09 117.253C172.548 119.906 164.262 117.504 163.657 110.013C163.277 105.391 165.601 103.887 165.739 97.9172C165.878 91.9469 163.51 90.072 165.817 88.8452C165.817 88.8452 164.867 89.6055 165.912 91.2212C166.958 92.8368 168.763 94.1069 168.729 95.9559C168.694 97.8048 169.144 99.7229 172.582 100.12C176.021 100.518 179.071 110.998 176.09 117.253Z" fill="#263238"/>
<path d="M169.093 105.183C168.03 100.198 167.684 95.3683 171.434 92.6986C175.184 90.0288 171.434 85.968 171.434 85.968C171.434 85.968 176.54 87.6269 175.357 91.9123C174.173 96.1978 177.499 98.6083 177.085 101.157C176.67 103.706 169.844 108.717 169.093 105.183Z" fill="#263238"/>
<path d="M164.384 105.702L164.15 104.838C166.57 104.155 168.393 100.647 168.384 96.6816C168.384 91.3334 169.792 90.2448 169.948 90.1411L170.423 90.8669C170.423 90.8669 169.239 91.8432 169.248 96.6729C169.248 100.492 167.58 104.795 164.384 105.702Z" fill="#263238"/>
<path d="M175.944 110.272C173.801 107.724 174.838 103.222 176.964 100.103C179.685 96.1028 179.253 94.6253 179.253 94.6167L180.057 94.297C180.126 94.4784 180.687 96.1632 177.681 100.587C175.443 103.861 174.985 107.784 176.601 109.719L175.944 110.272Z" fill="#263238"/>
<path d="M177.221 104.95C179.286 101.347 180.746 97.7616 178.5 95.2647C176.254 92.7677 180.176 90.2103 180.176 90.2103C180.176 90.2103 175.796 90.7719 175.649 94.1501C175.502 97.5283 172.322 98.8935 172.02 100.863C171.718 102.833 175.753 107.499 177.221 104.95Z" fill="#263238"/>
<path d="M170.681 108.933C169.593 104.933 168.089 101.365 164.737 101.157C161.385 100.95 162.335 96.4052 162.335 96.4052C162.335 96.4052 160.201 99.4896 161.929 102.384C164.59 106.851 162.033 111.301 165.549 114.903C166.975 116.355 171.45 111.776 170.681 108.933Z" fill="#263238"/>
<path d="M172.201 115.379C178.336 118.567 181.766 120.753 186.604 119.586C193.879 117.858 195.555 108.899 190.501 103.931C185.939 99.4637 176.677 94.9882 170.828 99.3687C169.535 100.329 168.51 101.604 167.849 103.072C167.187 104.54 166.913 106.152 167.05 107.757C167.188 109.361 167.733 110.903 168.635 112.237C169.537 113.571 170.764 114.653 172.201 115.379Z" fill="#FF8B7B"/>
<path d="M176.626 116.51C176.902 113.616 172.09 108.734 166.318 108.181C165.238 112.251 167.502 114.445 169.489 115.888C171.476 117.331 176.626 116.51 176.626 116.51Z" fill="#263238"/>
<path d="M167.218 109.624C170.087 109.149 172.765 106.669 173.378 102.816C173.786 100.801 173.649 98.7128 172.981 96.768C172.981 96.768 163.442 101.701 167.218 109.624Z" fill="#263238"/>
<path d="M167.243 110.048L167.191 109.184C169.706 109.02 172.22 105.97 173.041 102.082C174.147 96.8976 175.754 96.0855 175.935 96.0336L176.246 96.8458C176.246 96.8458 174.881 97.5456 173.887 102.28C173.101 105.97 170.57 109.832 167.243 110.048Z" fill="#263238"/>
<path d="M175.373 119.076C176.188 119.36 177.051 119.48 177.913 119.43C178.774 119.379 179.617 119.16 180.393 118.783C182.458 117.763 181.957 115.543 180.1 114.394C178.423 113.357 175.339 112.666 173.879 114.394C172.419 116.122 173.369 118.368 175.373 119.076Z" fill="#FF8B7B"/>
<path d="M212.492 184.784C212.492 184.784 206.694 230.895 217.563 249.195C228.856 268.203 255.64 300.931 255.64 300.931L265.636 294.624C265.636 294.624 244.9 260.928 234.982 241.574C224.13 220.51 242.758 189.035 234.005 173.007L212.492 184.784Z" fill="#407BFF"/>
<path opacity="0.2" d="M231.559 191.938C226.608 196.379 227.291 212.147 231.654 220.156C232.319 211.308 234.488 202.133 235.663 193.787C234.306 191.704 232.889 190.745 231.559 191.938Z" fill="black"/>
<path d="M224.104 178.442C224.104 178.442 233.824 224.882 247.207 240.322C261.895 257.221 291.098 279.945 291.098 279.945L298.433 270.622C298.433 270.622 279.296 249.696 266.517 232.027C252.693 212.829 253.6 182.235 245.22 166.899L224.104 178.442Z" fill="#407BFF"/>
<path d="M291.375 280.938L300.559 269.922L297.094 267.054L287.219 278.485L291.375 280.938Z" fill="#263238"/>
<path d="M254.913 301.812L266.378 294.512L263.967 290.632L250.705 298.806L254.913 301.812Z" fill="#263238"/>
<path d="M179.253 107.387C179.737 107.68 180.281 107.654 180.463 107.343C180.644 107.032 180.419 106.54 179.935 106.246C179.452 105.952 178.907 105.978 178.717 106.246C178.527 106.514 178.769 107.136 179.253 107.387Z" fill="#263238"/>
<path d="M187.192 109.935C187.393 109.972 187.601 109.929 187.771 109.816C187.942 109.704 188.062 109.53 188.108 109.331C188.108 108.959 187.762 108.639 187.244 108.605C187.144 108.57 187.037 108.558 186.931 108.571C186.826 108.584 186.725 108.621 186.636 108.68C186.547 108.738 186.473 108.816 186.419 108.908C186.365 108.999 186.334 109.102 186.326 109.208C186.318 109.314 186.335 109.42 186.376 109.519C186.416 109.617 186.478 109.705 186.558 109.775C186.637 109.845 186.732 109.896 186.834 109.924C186.937 109.952 187.045 109.956 187.149 109.935H187.192Z" fill="#263238"/>
<path d="M182.528 101.952C183.012 102.246 183.556 102.229 183.738 101.952C183.919 101.676 183.695 101.149 183.211 100.855C182.727 100.561 182.183 100.587 181.993 100.907C181.803 101.226 182.044 101.65 182.528 101.952Z" fill="#263238"/>
<path d="M181.725 103.818C183.543 104.126 185.394 104.184 187.228 103.991C187.272 104.467 187.209 104.946 187.045 105.394C186.88 105.842 186.618 106.248 186.278 106.583L181.725 103.818Z" fill="#FF5652"/>
<path d="M177.429 108.458C177.476 108.413 177.508 108.355 177.52 108.292C177.533 108.228 177.525 108.163 177.498 108.104C177.335 107.722 177.263 107.308 177.288 106.894C177.314 106.48 177.436 106.077 177.645 105.719C177.67 105.684 177.688 105.644 177.698 105.602C177.707 105.56 177.708 105.517 177.701 105.474C177.694 105.431 177.678 105.391 177.655 105.354C177.633 105.318 177.603 105.286 177.567 105.261C177.495 105.21 177.406 105.19 177.318 105.204C177.231 105.219 177.153 105.267 177.101 105.339C176.83 105.789 176.669 106.297 176.632 106.821C176.594 107.345 176.681 107.87 176.885 108.354C176.919 108.435 176.984 108.499 177.064 108.532C177.145 108.566 177.235 108.567 177.317 108.536C177.361 108.52 177.399 108.493 177.429 108.458Z" fill="#263238"/>
<path d="M182.035 98.496C182.08 98.4522 182.111 98.3966 182.125 98.3356C182.139 98.2746 182.136 98.2108 182.115 98.1518C182.094 98.0927 182.057 98.0409 182.007 98.0024C181.958 97.9639 181.899 97.9403 181.836 97.9344C181.315 97.8755 180.786 97.9428 180.296 98.1308C179.806 98.3187 179.368 98.6218 179.02 99.0144C178.992 99.0483 178.971 99.0873 178.959 99.1292C178.946 99.1712 178.942 99.2151 178.947 99.2586C178.952 99.3021 178.966 99.3441 178.987 99.3823C179.008 99.4205 179.037 99.454 179.071 99.481C179.142 99.5337 179.23 99.5569 179.317 99.5456C179.404 99.5343 179.483 99.4894 179.538 99.4205C179.814 99.1068 180.161 98.8645 180.551 98.7141C180.94 98.5636 181.361 98.5096 181.776 98.5565C181.821 98.5662 181.867 98.5658 181.912 98.5554C181.957 98.5449 181.999 98.5246 182.035 98.496Z" fill="#263238"/>
<path d="M210.928 110.938C212.353 110.825 213.615 110.756 214.937 110.73C216.259 110.704 217.529 110.678 218.877 110.678C221.469 110.678 224.121 110.799 226.756 111.007C229.391 111.214 232.035 111.542 234.679 111.983L236.675 112.337L238.671 112.787C239.336 112.916 240.01 113.124 240.675 113.296L241.677 113.564H241.807L242.066 113.651L242.585 113.823C242.904 113.962 243.241 114.1 243.518 114.247C245.27 115.236 246.753 116.639 247.838 118.333C248.674 119.59 249.405 120.914 250.024 122.291C251.121 124.784 252.028 127.358 252.737 129.989C254.114 135.029 255.065 140.177 255.579 145.377L250.447 146.413C248.875 141.748 247.155 137.022 245.263 132.589C244.362 130.433 243.332 128.332 242.179 126.3C241.67 125.412 241.092 124.565 240.451 123.768C239.898 123.085 239.232 122.619 239.258 122.731C239.278 122.734 239.299 122.734 239.319 122.731H239.388H239.293L238.429 122.576C237.859 122.481 237.314 122.351 236.701 122.282L234.973 122.04L233.245 121.841C230.895 121.599 228.501 121.435 226.091 121.349C223.68 121.262 221.253 121.219 218.825 121.236C217.606 121.236 216.388 121.236 215.179 121.236L211.61 121.34L210.928 110.938Z" fill="#FF8B7B"/>
<path d="M205.544 110.653C209.864 105.546 229.667 110.48 229.667 110.48L230.073 123.846C224.327 124.774 218.481 124.914 212.698 124.261C203.703 123.025 200.671 116.441 205.544 110.653Z" fill="#407BFF"/>
<path opacity="0.4" d="M205.544 110.653C209.864 105.546 229.667 110.48 229.667 110.48L230.073 123.846C224.327 124.774 218.481 124.914 212.698 124.261C203.703 123.025 200.671 116.441 205.544 110.653Z" fill="black"/>
<path d="M300.188 287.176C300.01 287.619 299.687 287.988 299.272 288.222C299.123 288.29 298.958 288.318 298.795 288.305C298.632 288.291 298.475 288.236 298.339 288.144C298.254 288.1 298.182 288.035 298.13 287.954C298.079 287.874 298.049 287.781 298.045 287.686C298.045 286.822 300.265 285.414 300.525 285.258C300.551 285.239 300.583 285.229 300.615 285.229C300.648 285.229 300.68 285.239 300.706 285.258C300.732 285.278 300.752 285.305 300.763 285.335C300.773 285.366 300.775 285.4 300.767 285.431C300.642 286.033 300.448 286.619 300.188 287.176ZM298.46 287.47C298.426 287.535 298.405 287.605 298.399 287.677C298.402 287.717 298.416 287.754 298.439 287.786C298.462 287.818 298.493 287.843 298.529 287.859C298.622 287.922 298.729 287.961 298.841 287.971C298.952 287.982 299.065 287.964 299.168 287.919C299.626 287.721 300.032 286.926 300.378 285.759C299.621 286.193 298.96 286.775 298.434 287.47H298.46Z" fill="#407BFF"/>
<path d="M300.756 285.466C300.743 285.489 300.726 285.51 300.704 285.526C300.03 286.001 298.043 286.58 297.413 286.105C297.315 286.029 297.246 285.921 297.217 285.8C297.189 285.679 297.203 285.552 297.257 285.44C297.296 285.319 297.361 285.209 297.448 285.116C297.535 285.023 297.64 284.951 297.758 284.904C298.709 284.472 300.592 285.206 300.67 285.241C300.697 285.254 300.72 285.274 300.738 285.298C300.756 285.322 300.768 285.35 300.773 285.379C300.772 285.409 300.766 285.438 300.756 285.466ZM297.594 285.466V285.535C297.525 285.733 297.594 285.794 297.637 285.82C298.009 286.105 299.443 285.82 300.229 285.414C299.495 285.107 298.685 285.029 297.905 285.189C297.769 285.245 297.658 285.35 297.594 285.483V285.466Z" fill="#407BFF"/>
<path d="M250.489 144.668L248.424 151.442L257.254 150.25C257.254 150.25 257.729 144.098 254.498 143.476L250.489 144.668Z" fill="#FF8B7B"/>
<path d="M250.662 158.665L257.841 157.291L257.254 150.25L248.424 151.442L250.662 158.665Z" fill="#FF8B7B"/>
<path d="M236.528 352.037L244.14 351.907C244.278 351.905 244.414 351.95 244.523 352.035C244.633 352.12 244.711 352.239 244.744 352.374L246.23 358.543C246.265 358.692 246.266 358.848 246.233 358.997C246.2 359.147 246.134 359.288 246.04 359.409C245.945 359.53 245.825 359.628 245.687 359.697C245.55 359.765 245.399 359.802 245.245 359.804C242.498 359.804 238.524 359.709 235.076 359.804C231.041 359.873 229.642 359.942 224.907 360.029C222.047 360.029 221.2 357.195 222.393 356.91C227.827 355.622 230.169 355.631 234.86 352.642C235.349 352.288 235.926 352.078 236.528 352.037Z" fill="#263238"/>
<path d="M233.65 353.307C233.046 353.374 232.437 353.234 231.922 352.909C231.807 352.812 231.716 352.688 231.659 352.548C231.602 352.408 231.58 352.256 231.594 352.106C231.598 352.016 231.625 351.928 231.672 351.851C231.718 351.774 231.784 351.71 231.862 351.665C232.726 351.181 235.525 352.529 235.845 352.711C235.877 352.724 235.903 352.747 235.92 352.777C235.938 352.806 235.945 352.841 235.94 352.875C235.936 352.91 235.921 352.942 235.898 352.968C235.875 352.995 235.844 353.013 235.81 353.022C235.1 353.178 234.377 353.273 233.65 353.307ZM232.363 351.881C232.256 351.882 232.15 351.905 232.052 351.95C232.021 351.968 231.995 351.995 231.978 352.027C231.961 352.059 231.954 352.096 231.957 352.132C231.944 352.23 231.956 352.33 231.992 352.422C232.028 352.515 232.088 352.596 232.164 352.659C232.596 353.03 233.745 353.074 235.283 352.797C234.369 352.329 233.381 352.02 232.363 351.881Z" fill="#407BFF"/>
<path d="M235.801 353.022H235.732C234.868 352.659 233.192 351.173 233.304 350.387C233.304 350.196 233.46 349.963 233.918 349.911C234.081 349.891 234.246 349.904 234.403 349.95C234.561 349.996 234.707 350.074 234.833 350.179C235.697 350.896 235.957 352.771 235.965 352.849C235.97 352.877 235.965 352.907 235.953 352.933C235.941 352.959 235.921 352.981 235.896 352.996C235.869 353.017 235.835 353.026 235.801 353.022ZM234.073 350.222H233.969C233.676 350.222 233.658 350.378 233.65 350.412C233.581 350.888 234.738 352.054 235.602 352.555C235.514 351.761 235.178 351.015 234.643 350.421C234.479 350.284 234.27 350.214 234.056 350.222H234.073Z" fill="#407BFF"/>
<path d="M365.147 312.055L362.936 303.363C362.936 303.363 379.697 316.21 386.696 335.676C393.694 355.142 382.445 360.43 374.505 360.43H365.908C378.755 360.43 380.933 351.272 379.507 342.105C378.082 332.937 365.147 312.055 365.147 312.055Z" fill="#263238"/>
<path d="M366.668 360.43C334.346 360.43 312.833 360.43 314.034 344.558C315.235 328.687 326.907 302.145 336.351 300.244C345.794 298.343 363.869 297.937 367.412 307C371.204 316.66 382.566 360.43 366.668 360.43Z" fill="#407BFF"/>
<path d="M357.2 360.43C324.877 360.43 312.833 360.43 314 344.558C315.166 328.687 326.908 302.145 336.351 300.244C345.795 298.343 366.099 297.358 367.412 307C368.725 316.642 373.123 360.43 357.2 360.43Z" fill="#407BFF"/>
<path opacity="0.3" d="M357.2 360.43C324.877 360.43 312.833 360.43 314 344.558C315.166 328.687 326.908 302.145 336.351 300.244C345.795 298.343 366.099 297.358 367.412 307C368.725 316.642 373.123 360.43 357.2 360.43Z" fill="white"/>
<path d="M357.147 358.728C335.547 358.728 322.5 358.728 317.895 353.751C316.098 351.816 315.407 348.939 315.727 344.688C316.902 329.222 328.341 303.587 336.687 301.911C340.849 301.119 345.074 300.714 349.31 300.702C353.976 300.702 364.923 301.341 365.726 307.225C367.558 320.651 369.122 348.213 361.925 356.473C361.358 357.182 360.639 357.754 359.821 358.148C359.003 358.541 358.107 358.745 357.199 358.745L357.147 358.728Z" fill="#263238"/>
<path d="M311.872 321.671C312.209 320.522 312.572 319.381 312.961 318.275L312.097 317.99C311.708 319.113 311.337 320.271 311 321.446L311.872 321.671Z" fill="#407BFF"/>
<path d="M314.077 315.295C315.585 311.336 317.647 307.613 320.203 304.235L319.555 303.7C316.948 307.144 314.841 310.94 313.3 314.975L314.077 315.295Z" fill="#407BFF"/>
<path d="M357.933 360.43C325.611 360.43 313.567 360.43 311.476 344.809C309.385 329.188 318.828 302.948 327.892 301.082C336.955 299.216 353.76 298.334 357.078 307.83C360.395 317.325 373.831 360.43 357.933 360.43Z" fill="#407BFF"/>
<path opacity="0.2" d="M357.06 307.821C356.961 307.525 356.843 307.237 356.706 306.957C350.476 315.986 345.75 333.274 347.288 344.809C348.463 353.561 352.757 357.415 361.976 359.099C371.126 351.79 360.032 316.331 357.06 307.821Z" fill="black"/>
<path d="M368.802 354.814C368.727 354.864 368.642 354.9 368.553 354.917C368.464 354.935 368.372 354.935 368.283 354.918C368.194 354.9 368.11 354.865 368.034 354.815C367.959 354.764 367.894 354.699 367.843 354.624L365.502 351.081C365.452 351.006 365.417 350.92 365.4 350.831C365.383 350.742 365.384 350.65 365.402 350.561C365.421 350.472 365.456 350.387 365.508 350.312C365.559 350.237 365.624 350.172 365.701 350.122C365.776 350.071 365.86 350.035 365.95 350.016C366.039 349.998 366.131 349.998 366.22 350.015C366.31 350.033 366.394 350.068 366.47 350.119C366.545 350.17 366.61 350.236 366.66 350.313L369.001 353.855C369.051 353.931 369.086 354.016 369.103 354.105C369.12 354.195 369.119 354.287 369.101 354.376C369.082 354.465 369.047 354.549 368.995 354.625C368.944 354.7 368.878 354.764 368.802 354.814Z" fill="white"/>
<path d="M313.852 341.215C313.694 341.123 313.58 340.972 313.533 340.795C313.486 340.619 313.51 340.431 313.601 340.273L315.736 336.601C315.829 336.443 315.982 336.328 316.159 336.281C316.337 336.234 316.526 336.259 316.686 336.35C316.844 336.444 316.959 336.596 317.006 336.774C317.053 336.952 317.028 337.141 316.937 337.301L314.802 340.964C314.757 341.043 314.696 341.113 314.623 341.168C314.551 341.224 314.468 341.264 314.38 341.288C314.291 341.311 314.199 341.317 314.108 341.304C314.018 341.291 313.931 341.261 313.852 341.215Z" fill="white"/>
<path opacity="0.2" d="M345.871 335.581C345.871 335.581 320.452 339.271 312.702 335.581H345.871Z" fill="black"/>
<path d="M94.448 343.48H85.616V355H67.952V343.48H40.592V330.232L71.216 286.648H85.616V329.752H94.448V343.48ZM67.952 329.752V313.624L56.72 329.752H67.952ZM124.363 355.864C115.915 355.864 109.419 352.856 104.875 346.84C100.395 340.824 98.1545 332.12 98.1545 320.728C98.1545 309.528 100.395 300.952 104.875 295C109.419 288.984 115.915 285.976 124.363 285.976C132.811 285.976 139.275 288.984 143.755 295C148.299 300.952 150.571 309.528 150.571 320.728C150.571 332.12 148.299 340.824 143.755 346.84C139.275 352.856 132.811 355.864 124.363 355.864ZM124.363 342.328C127.435 342.328 129.643 340.664 130.987 337.336C132.331 333.944 133.003 328.408 133.003 320.728C133.003 313.24 132.331 307.832 130.987 304.504C129.643 301.176 127.435 299.512 124.363 299.512C121.291 299.512 119.083 301.176 117.739 304.504C116.395 307.832 115.723 313.24 115.723 320.728C115.723 328.408 116.395 333.944 117.739 337.336C119.083 340.664 121.291 342.328 124.363 342.328ZM209.573 343.48H200.741V355H183.077V343.48H155.717V330.232L186.341 286.648H200.741V329.752H209.573V343.48ZM183.077 329.752V313.624L171.845 329.752H183.077Z" fill="#263238"/>
</svg>
