<svg width="100%" viewBox="0 0 432 432" fill="none" xmlns="http://www.w3.org/2000/svg">
<g clip-path="url(#clip0)">
<path d="M414.979 363.806H382.012V364.055H414.979V363.806Z" fill="#EBEBEB"/>
<path d="M296.845 366.513H288.195V366.762H296.845V366.513Z" fill="#EBEBEB"/>
<path d="M381.016 354.568H361.914V354.817H381.016V354.568Z" fill="#EBEBEB"/>
<path d="M62.3621 356.241H19.3711V356.49H62.3621V356.241Z" fill="#EBEBEB"/>
<path d="M77.5313 356.241H71.2305V356.49H77.5313V356.241Z" fill="#EBEBEB"/>
<path d="M191.264 360.441H98.0156V360.69H191.264V360.441Z" fill="#EBEBEB"/>
<path d="M145.468 208.724L376.09 208.724V55.3637L145.468 55.3637L145.468 208.724Z" fill="#E6E6E6"/>
<path d="M141.893 208.724L372.516 208.724V55.3637L141.893 55.3637L141.893 208.724Z" fill="#F5F5F5"/>
<path d="M366.105 201.517V62.5504L148.294 62.5504V201.517H366.105Z" fill="white"/>
<path d="M151.002 201.527V62.5604H148.304V201.527H151.002Z" fill="#E6E6E6"/>
<path d="M144.54 167.982L369.867 167.982V158.317L144.54 158.317V167.982Z" fill="#F5F5F5"/>
<g opacity="0.4">
<path opacity="0.4" d="M156.506 47.7888H134.736V177.528H156.506V47.7888Z" fill="#E6E6E6"/>
<path opacity="0.4" d="M156.515 167.106H167.305L167.305 47.7888H156.515V167.106Z" fill="#F5F5F5"/>
<path opacity="0.4" d="M189.074 47.7888H167.305V177.528H189.074V47.7888Z" fill="#E6E6E6"/>
<path opacity="0.4" d="M189.085 167.106H199.875L199.875 47.7888H189.085V167.106Z" fill="#F5F5F5"/>
<path opacity="0.4" d="M221.644 47.7888H199.875V177.528H221.644V47.7888Z" fill="#E6E6E6"/>
<path opacity="0.4" d="M221.653 167.106H232.443L232.443 47.7888H221.653V167.106Z" fill="#F5F5F5"/>
<path opacity="0.4" d="M254.213 47.7888H232.443V177.528H254.213V47.7888Z" fill="#E6E6E6"/>
<path opacity="0.4" d="M254.224 167.106H265.014V47.7888H254.224V167.106Z" fill="#F5F5F5"/>
<path opacity="0.4" d="M286.783 47.7888H265.014V177.528H286.783V47.7888Z" fill="#E6E6E6"/>
<path opacity="0.4" d="M286.782 167.106H297.572V47.7888H286.782V167.106Z" fill="#F5F5F5"/>
<path opacity="0.4" d="M319.341 47.7888H297.572V177.528H319.341V47.7888Z" fill="#E6E6E6"/>
<path opacity="0.4" d="M319.353 167.106H330.143V47.7888H319.353V167.106Z" fill="#F5F5F5"/>
<path opacity="0.4" d="M351.912 47.7888H330.143V177.528H351.912V47.7888Z" fill="#E6E6E6"/>
<path opacity="0.4" d="M351.921 167.106H362.711V47.7888H351.921V167.106Z" fill="#F5F5F5"/>
<path opacity="0.4" d="M384.48 47.7888H362.711V177.528H384.48V47.7888Z" fill="#E6E6E6"/>
</g>
<path d="M49.5616 347.79H100.615L100.615 242.876H49.5616L49.5616 347.79Z" fill="#EBEBEB"/>
<path d="M59.2557 347.79H49.5605V326.419H69.4286L59.2557 347.79Z" fill="#F5F5F5"/>
<path d="M340.853 347.79H391.906V242.876H340.853V347.79Z" fill="#EBEBEB"/>
<path d="M49.5602 334.681L349.312 334.681V242.876L49.5602 242.876V334.681Z" fill="#F5F5F5"/>
<path d="M339.349 308.78H250.49C250.274 308.78 250.066 308.694 249.913 308.541C249.76 308.388 249.674 308.181 249.674 307.964V249.843C249.674 249.627 249.76 249.419 249.913 249.266C250.066 249.113 250.274 249.027 250.49 249.027H266.894C267.07 249.023 267.242 249.08 267.382 249.186C269.82 250.969 272.524 252.356 275.395 253.297C278.856 254.443 282.479 255.021 286.125 255.009H303.704C310.428 255.128 317.015 253.098 322.507 249.216C322.643 249.111 322.812 249.055 322.984 249.057H339.398C339.615 249.057 339.823 249.143 339.976 249.296C340.129 249.449 340.215 249.657 340.215 249.873V307.964C340.215 308.076 340.192 308.186 340.148 308.289C340.104 308.391 340.039 308.483 339.958 308.56C339.877 308.636 339.781 308.695 339.676 308.733C339.571 308.771 339.46 308.787 339.349 308.78ZM251.306 307.148H338.532V250.689H323.203C317.489 254.672 310.668 256.761 303.704 256.662H286.125C282.303 256.674 278.504 256.066 274.877 254.86C271.933 253.894 269.154 252.484 266.635 250.679H251.306V307.148Z" fill="#E6E6E6"/>
<path d="M243.87 308.78H155.002C154.785 308.78 154.578 308.694 154.425 308.541C154.272 308.388 154.186 308.181 154.186 307.964V249.843C154.186 249.627 154.272 249.419 154.425 249.266C154.578 249.113 154.785 249.027 155.002 249.027H170.52C170.696 249.023 170.868 249.08 171.008 249.186C173.429 250.968 176.116 252.355 178.971 253.297C182.432 254.443 186.055 255.021 189.701 255.009H207.28C213.981 255.108 220.54 253.068 226.003 249.186C226.144 249.082 226.315 249.026 226.491 249.027H243.87C243.978 249.026 244.085 249.046 244.184 249.087C244.284 249.127 244.374 249.187 244.451 249.263C244.527 249.339 244.587 249.43 244.627 249.529C244.668 249.629 244.688 249.736 244.687 249.843V307.934C244.691 308.044 244.672 308.153 244.633 308.256C244.594 308.358 244.535 308.452 244.458 308.531C244.382 308.61 244.291 308.673 244.19 308.716C244.089 308.758 243.98 308.781 243.87 308.78ZM155.828 307.148H243.054V250.689H226.809C221.101 254.67 214.288 256.759 207.33 256.662H189.751C185.929 256.674 182.13 256.066 178.503 254.86C175.553 253.9 172.77 252.49 170.251 250.679H155.818L155.828 307.148Z" fill="#E6E6E6"/>
<path d="M148.384 308.78H59.5253C59.3088 308.78 59.1012 308.694 58.9481 308.541C58.795 308.388 58.709 308.181 58.709 307.964V249.843C58.7077 249.736 58.7279 249.629 58.7684 249.529C58.809 249.43 58.8691 249.339 58.9451 249.263C59.0212 249.187 59.1117 249.127 59.2113 249.087C59.311 249.046 59.4177 249.026 59.5253 249.027H75.0434C75.2161 249.025 75.3844 249.081 75.5212 249.186C77.9444 250.964 80.6314 252.352 83.4843 253.297C86.9487 254.443 90.5756 255.021 94.2246 255.009H111.803C118.511 255.107 125.075 253.067 130.546 249.186C130.686 249.08 130.858 249.023 131.034 249.027H148.334C148.551 249.027 148.758 249.113 148.911 249.266C149.064 249.419 149.15 249.627 149.15 249.843V307.934C149.159 308.148 149.083 308.356 148.94 308.514C148.796 308.672 148.597 308.768 148.384 308.78ZM60.3415 307.148H147.568V250.689H131.393C125.681 254.671 118.864 256.76 111.903 256.662H94.2744C90.4522 256.676 86.6532 256.067 83.0265 254.86C80.0768 253.9 77.2933 252.49 74.7747 250.679H60.3415V307.148Z" fill="#E6E6E6"/>
<path d="M339.618 347.79H349.313V326.419H329.455L339.618 347.79Z" fill="#F5F5F5"/>
<path d="M110.43 225.297H102.377C102.437 219.723 102.377 205.568 101.81 173.148C100.815 114.42 98.9531 110.797 98.9531 110.797L108.499 139.803C110.766 146.624 112.085 153.725 112.421 160.905C113.476 183.52 109.494 201.577 110.43 225.297Z" fill="#E6E6E6"/>
<path d="M116.551 131.053C127.291 114.799 148.732 106.318 170.65 98.3347C179.251 95.1993 155.102 134.089 137.544 151.728C123.907 165.424 110.668 165.116 106.756 178.603C106 162.936 107.294 145.058 116.551 131.053Z" fill="#E6E6E6"/>
<path d="M104.247 120.622C95.8264 101.61 74.5549 76.9537 50.6456 59.5841C41.259 52.7657 64.4218 111.345 80.7562 135.294C93.4773 153.967 105.342 165.335 107.194 178.653C115.217 161.99 112.658 139.624 104.247 120.622Z" fill="#E6E6E6"/>
<path d="M105.044 242.876C109.597 242.875 113.976 241.134 117.285 238.008C120.595 234.882 122.583 230.608 122.842 226.063L124.425 209.948H85.6641L87.2368 226.063C87.4985 230.609 89.4886 234.883 92.7995 238.008C96.1103 241.134 100.491 242.875 105.044 242.876Z" fill="#F0F0F0"/>
<path d="M83.1546 210.038H126.932L128.186 204.314H81.9004L83.1546 210.038Z" fill="#F0F0F0"/>
<path d="M85.3144 219.852H124.772L125.907 214.129H84.1797L85.3144 219.852Z" fill="#F0F0F0"/>
<path d="M215.998 392.742C322.587 392.742 408.995 387.697 408.995 381.474C408.995 375.251 322.587 370.206 215.998 370.206C109.409 370.206 23.002 375.251 23.002 381.474C23.002 387.697 109.409 392.742 215.998 392.742Z" fill="#F5F5F5"/>
<path d="M370.565 284.015H61.4258V319.013H370.565V284.015Z" fill="#0078FF"/>
<path opacity="0.3" d="M370.575 284.015H304.262V319.013H370.575V284.015Z" fill="black"/>
<path d="M95.5578 319.013H61.4258V381.474H95.5578V319.013Z" fill="#0078FF"/>
<path opacity="0.3" d="M61.4355 319.013V322.507L85.6037 329.803V381.474H95.5576V319.013H61.4355Z" fill="black"/>
<path d="M370.575 319.013H336.443V381.474H370.575V319.013Z" fill="#0078FF"/>
<path opacity="0.2" d="M370.575 319.013H336.443V381.474H370.575V319.013Z" fill="black"/>
<path opacity="0.3" d="M336.443 319.013V322.507L360.621 329.803V381.474H370.575V319.013H336.443Z" fill="black"/>
<path d="M304.261 319.013H270.129V381.474H304.261V319.013Z" fill="#0078FF"/>
<path opacity="0.3" d="M270.129 319.013V322.507L294.307 329.803V381.474H304.261V319.013H270.129Z" fill="black"/>
<path d="M161.87 319.013H127.738V381.474H161.87V319.013Z" fill="#0078FF"/>
<path opacity="0.2" d="M161.87 319.013H127.738V381.474H161.87V319.013Z" fill="black"/>
<path opacity="0.3" d="M127.738 319.013V322.507L151.916 329.803V381.474H161.87V319.013H127.738Z" fill="black"/>
<path d="M327.963 277.137H138.958C138.369 277.141 137.786 277.024 137.244 276.791C136.703 276.559 136.216 276.216 135.814 275.786C135.412 275.356 135.103 274.847 134.908 274.291C134.712 273.736 134.634 273.146 134.678 272.558L142.462 149.04C142.56 147.809 143.113 146.658 144.013 145.812C144.912 144.966 146.095 144.484 147.329 144.461H336.324C336.913 144.457 337.497 144.575 338.038 144.807C338.579 145.04 339.066 145.382 339.468 145.812C339.871 146.242 340.179 146.751 340.375 147.307C340.57 147.863 340.649 148.453 340.605 149.04L332.821 272.558C332.722 273.788 332.171 274.937 331.273 275.783C330.376 276.629 329.196 277.111 327.963 277.137Z" fill="#263238"/>
<path opacity="0.6" d="M327.963 277.137H138.958C138.369 277.141 137.786 277.024 137.244 276.791C136.703 276.559 136.216 276.216 135.814 275.786C135.412 275.356 135.103 274.847 134.908 274.291C134.712 273.736 134.634 273.146 134.678 272.558L142.462 149.04C142.56 147.809 143.113 146.658 144.013 145.812C144.912 144.966 146.095 144.484 147.329 144.461H336.324C336.913 144.457 337.497 144.575 338.038 144.807C338.579 145.04 339.066 145.382 339.468 145.812C339.871 146.242 340.179 146.751 340.375 147.307C340.57 147.863 340.649 148.453 340.605 149.04L332.821 272.558C332.722 273.788 332.171 274.937 331.273 275.783C330.376 276.629 329.196 277.111 327.963 277.137Z" fill="black"/>
<path d="M326.549 277.137H137.554C136.964 277.143 136.38 277.026 135.837 276.794C135.295 276.562 134.807 276.22 134.403 275.79C134 275.359 133.691 274.85 133.494 274.294C133.298 273.737 133.22 273.146 133.264 272.558L141.048 149.04C141.146 147.809 141.699 146.658 142.599 145.812C143.498 144.966 144.68 144.484 145.915 144.461H334.91C335.5 144.455 336.084 144.572 336.626 144.804C337.168 145.036 337.655 145.378 338.058 145.809C338.46 146.239 338.769 146.749 338.964 147.305C339.159 147.862 339.236 148.452 339.191 149.04L331.407 272.558C331.308 273.788 330.757 274.937 329.859 275.783C328.962 276.629 327.782 277.111 326.549 277.137Z" fill="#263238"/>
<path d="M326.31 278.71H101.421C100.386 278.7 99.3691 278.984 98.4883 279.529C97.6076 280.073 96.8989 280.855 96.4442 281.785C96.329 282.027 96.2773 282.294 96.2941 282.561C96.3109 282.828 96.3955 283.087 96.54 283.312C96.6846 283.537 96.8842 283.722 97.1199 283.848C97.3557 283.975 97.6199 284.039 97.8875 284.035H329.794C330.062 284.039 330.326 283.975 330.561 283.848C330.797 283.722 330.997 283.537 331.141 283.312C331.286 283.087 331.371 282.828 331.387 282.561C331.404 282.294 331.352 282.027 331.237 281.785C330.788 280.861 330.088 280.083 329.216 279.539C328.345 278.995 327.337 278.707 326.31 278.71Z" fill="#263238"/>
<path opacity="0.6" d="M326.31 278.71H294.328C293.301 278.706 292.293 278.993 291.421 279.537C290.55 280.081 289.849 280.861 289.401 281.785C289.286 282.026 289.235 282.292 289.251 282.559C289.267 282.825 289.351 283.083 289.494 283.307C289.638 283.532 289.836 283.717 290.07 283.845C290.305 283.972 290.568 284.037 290.835 284.035H329.794C330.062 284.039 330.326 283.975 330.562 283.848C330.798 283.722 330.997 283.537 331.142 283.312C331.286 283.087 331.371 282.828 331.388 282.561C331.404 282.294 331.353 282.027 331.238 281.785C330.788 280.861 330.088 280.083 329.216 279.539C328.345 278.995 327.338 278.707 326.31 278.71Z" fill="black"/>
<path d="M306.482 282.592H298.221C298.03 282.589 297.847 282.511 297.713 282.375C297.579 282.239 297.504 282.056 297.504 281.865C297.504 281.674 297.579 281.491 297.713 281.355C297.847 281.219 298.03 281.141 298.221 281.138H306.482C306.578 281.138 306.672 281.157 306.76 281.194C306.849 281.23 306.929 281.284 306.996 281.351C307.064 281.419 307.117 281.499 307.154 281.587C307.19 281.675 307.209 281.77 307.209 281.865C307.209 281.961 307.19 282.055 307.154 282.143C307.117 282.231 307.064 282.311 306.996 282.379C306.929 282.446 306.849 282.5 306.76 282.536C306.672 282.573 306.578 282.592 306.482 282.592Z" fill="#0078FF"/>
<path opacity="0.7" d="M200.244 282.592H191.992C191.8 282.592 191.615 282.515 191.478 282.379C191.342 282.243 191.266 282.058 191.266 281.865C191.266 281.77 191.284 281.675 191.321 281.587C191.357 281.499 191.411 281.419 191.478 281.351C191.546 281.284 191.626 281.23 191.714 281.194C191.802 281.157 191.897 281.138 191.992 281.138H200.244C200.339 281.138 200.434 281.157 200.522 281.194C200.61 281.23 200.69 281.284 200.758 281.351C200.825 281.419 200.879 281.499 200.915 281.587C200.952 281.675 200.971 281.77 200.971 281.865C200.971 282.058 200.894 282.243 200.758 282.379C200.622 282.515 200.437 282.592 200.244 282.592Z" fill="white"/>
<path d="M315.031 281.138H309.627C309.297 281.138 309.029 281.406 309.029 281.736V281.994C309.029 282.324 309.297 282.592 309.627 282.592H315.031C315.361 282.592 315.629 282.324 315.629 281.994V281.736C315.629 281.406 315.361 281.138 315.031 281.138Z" fill="#0078FF"/>
<path d="M137.523 268.099L144.75 153.499C144.787 153.021 145.002 152.574 145.352 152.247C145.702 151.919 146.161 151.734 146.641 151.728H333.267C333.496 151.724 333.722 151.768 333.933 151.858C334.144 151.947 334.333 152.079 334.49 152.246C334.646 152.413 334.766 152.61 334.842 152.826C334.917 153.042 334.947 153.271 334.929 153.499L327.713 268.099C327.673 268.578 327.456 269.025 327.105 269.352C326.753 269.68 326.292 269.865 325.811 269.871H139.195C138.967 269.872 138.74 269.827 138.53 269.737C138.319 269.648 138.13 269.516 137.973 269.349C137.816 269.183 137.695 268.986 137.618 268.771C137.54 268.556 137.508 268.327 137.523 268.099Z" fill="white"/>
<path opacity="0.1" d="M243.693 148.194L181.531 266.347H135.673C135.443 266.35 135.215 266.306 135.004 266.216C134.792 266.126 134.601 265.993 134.444 265.826C134.286 265.658 134.166 265.459 134.089 265.242C134.013 265.025 133.983 264.794 134.001 264.565L141.228 149.976C141.265 149.497 141.479 149.049 141.829 148.719C142.179 148.39 142.639 148.202 143.119 148.194H243.693Z" fill="#0078FF"/>
<path opacity="0.1" d="M298.13 148.194L235.968 266.347H221.475L283.637 148.194H298.13Z" fill="#0078FF"/>
<path opacity="0.1" d="M331.406 149.976L324.179 264.565C324.144 265.045 323.931 265.494 323.581 265.824C323.23 266.154 322.769 266.341 322.288 266.347H251.615L313.777 148.194H329.704C329.936 148.188 330.167 148.23 330.381 148.319C330.596 148.407 330.789 148.54 330.95 148.707C331.11 148.875 331.234 149.075 331.312 149.293C331.391 149.512 331.423 149.744 331.406 149.976Z" fill="#0078FF"/>
<path opacity="0.4" d="M241.512 148.313C241.484 148.674 241.323 149.012 241.06 149.261C240.797 149.509 240.45 149.651 240.088 149.657C239.915 149.659 239.744 149.625 239.585 149.557C239.426 149.489 239.283 149.388 239.165 149.262C239.047 149.135 238.956 148.986 238.899 148.823C238.842 148.659 238.82 148.486 238.834 148.313C238.859 147.951 239.019 147.612 239.283 147.363C239.547 147.114 239.895 146.974 240.257 146.97C240.43 146.968 240.602 147.002 240.761 147.07C240.92 147.138 241.063 147.238 241.181 147.365C241.299 147.491 241.389 147.641 241.446 147.804C241.503 147.968 241.526 148.141 241.512 148.313Z" fill="white"/>
<path d="M210.676 120.831C205.231 127.062 202.086 146.163 206.117 155.56C210.148 164.956 163.375 174.363 201.966 189.632C240.557 204.901 271.425 187.193 260.256 171.377C249.088 155.56 261.461 129.222 248.531 122.602C236.845 116.57 221.585 108.338 210.676 120.831Z" fill="#263238"/>
<path d="M199.139 197.745C197.098 204.712 194.928 211.68 192.679 218.648C190.429 225.615 188.09 232.504 185.612 239.422L184.666 242.029L184.188 243.333L184.039 243.722L183.8 244.309C183.651 244.687 183.422 245.095 183.223 245.484C182.25 247.261 180.798 248.73 179.032 249.724C177.429 250.594 175.64 251.066 173.816 251.098C171.258 251.11 168.724 250.612 166.361 249.634C164.426 248.849 162.553 247.921 160.757 246.857C154.23 242.844 148.248 238.006 142.959 232.464L147.249 227.407C148.692 228.333 150.235 229.318 151.728 230.244C153.221 231.17 154.784 232.066 156.297 232.952C159.262 234.687 162.323 236.252 165.465 237.64C166.897 238.271 168.374 238.794 169.884 239.203C170.929 239.549 172.033 239.678 173.129 239.581C173.408 239.581 173.358 239.422 173.129 239.511C172.9 239.601 172.652 239.86 172.642 239.83C172.632 239.8 172.642 239.83 172.642 239.77C172.646 239.75 172.646 239.73 172.642 239.71L172.721 239.461L173.099 238.177L173.866 235.589L179.948 214.686C182.018 207.718 184.148 200.751 186.338 193.783L199.139 197.745Z" fill="#B65B52"/>
<path d="M146.939 227.248L135.373 222.968L139.962 235.191C139.962 235.191 148.124 236.366 151.289 232.076L148.711 228.622C148.264 228.003 147.649 227.527 146.939 227.248Z" fill="#B55B52"/>
<path d="M125.172 226.521L129.572 236.545L140.013 235.171L135.414 222.948L125.172 226.521Z" fill="#B55B52"/>
<path d="M190.699 179.718C185.403 181.062 181.74 202.831 181.74 202.831L196.323 212.785C196.323 212.785 210.258 190.827 206.227 185.013C201.947 178.912 198.413 177.757 190.699 179.718Z" fill="#0078FF"/>
<path opacity="0.5" d="M190.699 179.718C185.403 181.062 181.74 202.831 181.74 202.831L196.323 212.785C196.323 212.785 210.258 190.827 206.227 185.013C201.947 178.912 198.413 177.757 190.699 179.718Z" fill="white"/>
<path opacity="0.2" d="M190.221 187.631L201.538 190.249L202.623 201.328C200.706 205.239 198.589 209.05 196.283 212.745L187.434 206.773C187.822 201.646 188.777 191.115 190.221 187.631Z" fill="black"/>
<path d="M190.697 179.718C190.697 179.718 184.575 181.868 196.829 257.179H248.947C248.072 235.968 248.052 222.878 258.185 179.35C250.89 177.841 243.494 176.866 236.057 176.433C227.288 176.005 220.131 175.726 212.387 176.433C202.224 177.359 190.697 179.718 190.697 179.718Z" fill="#0078FF"/>
<path opacity="0.5" d="M190.697 179.718C190.697 179.718 184.575 181.868 196.829 257.179H248.947C248.072 235.968 248.052 222.878 258.185 179.35C250.89 177.841 243.494 176.866 236.057 176.433C227.288 176.005 220.131 175.726 212.387 176.433C202.224 177.359 190.697 179.718 190.697 179.718Z" fill="white"/>
<path opacity="0.2" d="M245.922 199.556L252.651 205.29C251.217 212.904 250.252 219.225 249.665 224.889C248.381 219.235 245.175 203.886 245.922 199.556Z" fill="black"/>
<path d="M233.709 149.777C232.216 157.391 230.723 171.347 236.058 176.433C236.058 176.433 231.081 187.84 217.892 187.84C204.703 187.84 212.388 176.433 212.388 176.433C220.878 174.442 220.659 168.102 219.186 162.189L233.709 149.777Z" fill="#B55B52"/>
<path d="M234.366 173.586C233.111 176.125 229.07 181.928 217.782 183.998C217.469 184.056 217.145 183.992 216.877 183.819C214.766 182.346 213.452 179.23 214.378 175.617C214.439 175.395 214.437 175.16 214.372 174.939C214.307 174.718 214.182 174.52 214.01 174.367C213.838 174.213 213.627 174.111 213.4 174.072C213.173 174.033 212.939 174.057 212.726 174.144C211.859 174.507 211.026 174.946 210.237 175.458C210.064 175.573 209.923 175.73 209.829 175.916C209.003 177.468 205.658 185.073 215.752 189.761C215.913 189.83 216.084 189.871 216.259 189.881C222.232 190 232.673 188.826 239.273 176.941C239.391 176.726 239.443 176.482 239.424 176.238C239.404 175.994 239.314 175.76 239.163 175.567C238.276 174.596 237.246 173.767 236.107 173.109C235.964 173.017 235.803 172.956 235.635 172.93C235.466 172.904 235.294 172.914 235.13 172.959C234.966 173.004 234.813 173.083 234.681 173.191C234.549 173.3 234.442 173.434 234.366 173.586Z" fill="#FAFAFA"/>
<path d="M237.133 204.921L223.695 204.533C223.554 204.534 223.415 204.505 223.287 204.448C223.158 204.392 223.043 204.308 222.949 204.204C222.855 204.1 222.784 203.977 222.741 203.843C222.698 203.709 222.684 203.568 222.699 203.428L222.829 201.766C222.868 201.486 223.008 201.231 223.222 201.047C223.437 200.864 223.711 200.765 223.993 200.77L237.431 201.159C237.573 201.158 237.713 201.187 237.842 201.244C237.971 201.301 238.087 201.386 238.181 201.491C238.275 201.597 238.346 201.721 238.388 201.856C238.43 201.991 238.444 202.133 238.427 202.274L238.297 203.926C238.258 204.205 238.118 204.461 237.904 204.645C237.689 204.828 237.415 204.926 237.133 204.921Z" fill="#FAFAFA"/>
<path opacity="0.2" d="M227.786 154.843L219.186 162.179C219.554 163.555 219.801 164.961 219.922 166.38C223.157 165.912 227.617 162.348 227.965 158.954C228.155 157.584 228.095 156.191 227.786 154.843Z" fill="black"/>
<path d="M243.743 135.373C241.344 147.885 240.597 153.231 233.391 158.874C222.551 167.375 207.709 161.681 206.336 148.712C205.092 137.036 209.222 118.541 222.262 115.117C225.12 114.358 228.123 114.34 230.99 115.067C233.856 115.793 236.489 117.239 238.64 119.267C240.791 121.295 242.388 123.839 243.281 126.658C244.174 129.476 244.333 132.476 243.743 135.373Z" fill="#B55B52"/>
<path d="M236.624 126.116C235.071 133.95 234.703 144.332 241.88 144.332C249.057 144.332 254.681 132.118 248.489 122.553C242.298 112.987 237.53 121.498 236.624 126.116Z" fill="#263238"/>
<path d="M249.028 127.082C249.028 135.602 238.297 131.392 233.549 127.719C228.801 124.046 228.572 124.444 219.773 124.434C210.974 124.424 209.212 123.817 206.614 119.616C204.016 115.416 204.255 112.648 210.108 113.534C215.961 114.42 211.043 108.448 215.403 105.133C219.763 101.819 224.929 102.655 230.891 110.22C236.854 117.785 249.028 112.32 249.028 127.082Z" fill="#263238"/>
<path d="M245.877 146.506C247.006 142.655 245.899 138.94 243.404 138.209C240.908 137.477 237.97 140.006 236.841 143.857C235.712 147.708 236.82 151.423 239.315 152.154C241.81 152.886 244.748 150.357 245.877 146.506Z" fill="white"/>
<path d="M225.954 156.137C223.644 156.137 221.358 155.666 219.235 154.754C219.19 154.735 219.149 154.708 219.114 154.673C219.079 154.638 219.052 154.597 219.033 154.552C219.015 154.506 219.005 154.457 219.006 154.408C219.006 154.359 219.017 154.311 219.036 154.266C219.078 154.175 219.153 154.104 219.245 154.067C219.338 154.029 219.441 154.03 219.534 154.067C221.534 154.925 223.686 155.373 225.863 155.385C228.039 155.397 230.196 154.973 232.205 154.136C234.16 153.337 235.934 152.154 237.425 150.658C238.916 149.163 240.092 147.384 240.885 145.427C243.871 136.876 246.917 126.206 243.394 119.547C242.685 118.25 241.704 117.123 240.518 116.242C239.333 115.36 237.971 114.746 236.525 114.44C236.429 114.414 236.347 114.352 236.297 114.266C236.247 114.181 236.232 114.079 236.257 113.982C236.282 113.886 236.345 113.804 236.43 113.754C236.516 113.704 236.618 113.689 236.714 113.714C238.259 114.046 239.713 114.707 240.979 115.651C242.245 116.596 243.292 117.802 244.05 119.188C247.714 126.066 244.658 136.946 241.582 145.656C240.748 147.711 239.51 149.578 237.942 151.148C236.375 152.717 234.509 153.957 232.454 154.793C230.395 155.659 228.188 156.115 225.954 156.137Z" fill="white"/>
<path opacity="0.6" d="M245.513 146.542C244.627 149.528 242.597 151.628 240.974 151.16C239.352 150.692 238.755 147.846 239.64 144.82C240.526 141.794 242.557 139.723 244.179 140.201C245.802 140.679 246.399 143.516 245.513 146.542Z" fill="#0078FF"/>
<path d="M220.27 153.107L216.37 152.354C215.685 152.222 215.022 152.67 214.889 153.356L214.846 153.581C214.714 154.266 215.162 154.929 215.848 155.061L219.748 155.814C220.433 155.946 221.096 155.498 221.228 154.812L221.272 154.587C221.404 153.902 220.955 153.239 220.27 153.107Z" fill="white"/>
<path d="M215.175 136.418C215.175 136.418 212.866 140.609 210.676 142.49C211.86 143.934 214.249 143.655 214.249 143.655L215.175 136.418Z" fill="#A02724"/>
<path d="M217.375 149.01H217.464C219.721 149.188 221.961 148.505 223.735 147.099C223.772 147.062 223.792 147.012 223.792 146.96C223.792 146.908 223.772 146.857 223.735 146.82C223.718 146.803 223.697 146.788 223.674 146.779C223.651 146.769 223.626 146.764 223.601 146.764C223.576 146.764 223.551 146.769 223.528 146.779C223.505 146.788 223.484 146.803 223.466 146.82C221.773 148.152 219.642 148.801 217.494 148.642C217.468 148.638 217.442 148.639 217.417 148.645C217.392 148.651 217.368 148.663 217.348 148.679C217.327 148.695 217.31 148.715 217.298 148.737C217.285 148.76 217.277 148.785 217.275 148.811C217.27 148.85 217.277 148.89 217.294 148.926C217.312 148.961 217.34 148.991 217.375 149.01Z" fill="#263238"/>
<path d="M228.762 131.491C228.818 131.523 228.881 131.539 228.946 131.539C229.01 131.539 229.074 131.523 229.13 131.491C229.215 131.434 229.275 131.347 229.298 131.246C229.32 131.146 229.303 131.041 229.249 130.954C228.773 130.157 228.114 129.484 227.327 128.993C226.539 128.501 225.646 128.204 224.72 128.127C224.617 128.127 224.517 128.167 224.442 128.24C224.368 128.312 224.325 128.411 224.322 128.515C224.322 128.616 224.362 128.714 224.432 128.786C224.503 128.859 224.599 128.901 224.701 128.903C225.498 128.979 226.266 129.242 226.942 129.671C227.618 130.1 228.184 130.683 228.592 131.372C228.637 131.426 228.696 131.467 228.762 131.491Z" fill="#263238"/>
<path d="M223.058 136.588C222.889 137.583 222.202 138.35 221.525 138.24C220.848 138.131 220.46 137.245 220.629 136.17C220.799 135.095 221.495 134.408 222.162 134.517C222.829 134.627 223.237 135.562 223.058 136.588Z" fill="#263238"/>
<path d="M211.453 134.617C211.283 135.612 210.597 136.379 209.92 136.269C209.243 136.16 208.855 135.224 209.024 134.199C209.193 133.173 209.89 132.427 210.557 132.546C211.224 132.666 211.632 133.582 211.453 134.617Z" fill="#263238"/>
<path d="M210.845 132.656L208.496 131.521C208.496 131.521 209.432 133.661 210.845 132.656Z" fill="#263238"/>
<path d="M222.451 134.627L220.102 133.502C220.102 133.502 221.037 135.642 222.451 134.627Z" fill="#263238"/>
<path d="M207.511 127.679C207.571 127.715 207.64 127.734 207.71 127.734C207.78 127.734 207.849 127.715 207.909 127.679C208.523 127.163 209.253 126.802 210.036 126.629C210.82 126.456 211.633 126.474 212.408 126.683C212.506 126.718 212.613 126.712 212.706 126.667C212.8 126.622 212.871 126.542 212.906 126.445C212.94 126.347 212.934 126.24 212.889 126.146C212.844 126.053 212.764 125.981 212.667 125.947C211.773 125.693 210.832 125.657 209.922 125.845C209.012 126.032 208.161 126.436 207.441 127.022C207.399 127.051 207.364 127.089 207.338 127.133C207.312 127.176 207.295 127.225 207.288 127.275C207.282 127.326 207.286 127.377 207.3 127.426C207.314 127.475 207.339 127.52 207.371 127.559C207.405 127.612 207.453 127.654 207.511 127.679Z" fill="#263238"/>
<path d="M194.85 269.871C194.85 269.871 194.71 262.744 196.84 257.179H248.949C248.949 257.179 253.637 264.744 254.852 269.871H194.85Z" fill="#0078FF"/>
<path d="M249.735 254.123L250.143 258.782C250.332 259.15 249.904 259.519 249.297 259.519H196.541C196.074 259.519 195.685 259.29 195.656 258.991L195.178 254.323C195.178 254.004 195.556 253.725 196.074 253.725H248.829C249.002 253.707 249.176 253.734 249.335 253.804C249.494 253.874 249.632 253.984 249.735 254.123Z" fill="#0078FF"/>
<path opacity="0.3" d="M249.735 254.123L250.143 258.782C250.332 259.15 249.904 259.519 249.297 259.519H196.541C196.074 259.519 195.685 259.29 195.656 258.991L195.178 254.323C195.178 254.004 195.556 253.725 196.074 253.725H248.829C249.002 253.707 249.176 253.734 249.335 253.804C249.494 253.874 249.632 253.984 249.735 254.123Z" fill="#FAFAFA"/>
<path d="M242.638 260.016H244.051C244.34 260.016 244.549 259.877 244.529 259.698L243.872 253.636C243.872 253.457 243.603 253.317 243.325 253.317H241.881C241.593 253.317 241.384 253.457 241.404 253.636L242.061 259.698C242.11 259.877 242.359 260.016 242.638 260.016Z" fill="#0078FF"/>
<path d="M200.542 260.016H201.955C202.234 260.016 202.453 259.877 202.433 259.698L201.766 253.636C201.766 253.457 201.507 253.317 201.219 253.317H199.805C199.527 253.317 199.308 253.457 199.327 253.636L199.994 259.698C200.014 259.877 200.263 260.016 200.542 260.016Z" fill="#0078FF"/>
<path d="M221.595 260.016H222.969C223.248 260.016 223.467 259.877 223.447 259.698L222.78 253.636C222.78 253.457 222.511 253.317 222.232 253.317H220.819C220.54 253.317 220.321 253.457 220.341 253.636L221.008 259.698C221.068 259.877 221.307 260.016 221.595 260.016Z" fill="#0078FF"/>
<path d="M262.645 194.101C264.935 201.534 267.135 209.006 269.245 216.518L272.42 227.726L274.003 233.3L274.401 234.674L274.6 235.36L274.65 235.52L274.491 235.271C274.239 234.91 273.93 234.594 273.575 234.335C272.796 233.768 271.869 233.44 270.907 233.389C270.18 233.355 269.456 233.498 268.797 233.808C268.08 234.196 268.15 234.285 268.21 234.216C268.378 234.069 268.532 233.906 268.668 233.728C269.137 233.142 269.569 232.527 269.962 231.886C270.837 230.453 271.703 228.841 272.52 227.188C274.212 223.883 275.735 220.38 277.278 216.856C278.821 213.332 280.264 209.769 281.757 206.175C283.25 202.582 284.673 198.969 286.147 195.405L292.507 197.297C290.855 205.061 288.924 212.685 286.535 220.28C285.36 224.093 284.056 227.865 282.553 231.687C281.777 233.599 280.951 235.51 279.925 237.49C279.379 238.562 278.767 239.599 278.094 240.596C277.675 241.222 277.21 241.814 276.7 242.368C275.893 243.284 274.912 244.032 273.814 244.568C272.718 245.101 271.507 245.354 270.29 245.304C268.847 245.224 267.46 244.715 266.308 243.841C265.574 243.288 264.938 242.615 264.427 241.85C264.104 241.36 263.821 240.844 263.581 240.307C263.491 240.088 263.392 239.86 263.322 239.66L263.133 239.173L262.874 238.466L262.357 237.062C261.68 235.201 260.993 233.34 260.366 231.478C259.092 227.756 257.818 224.043 256.623 220.31C254.181 212.851 251.905 205.356 249.795 197.824L262.645 194.101Z" fill="#B65B52"/>
<path d="M258.186 179.35C263.412 180.932 271.405 201.427 271.405 201.427L251.149 215.91C251.149 215.91 242.041 198.392 244.231 191.643C246.52 184.615 252.233 177.538 258.186 179.35Z" fill="#0078FF"/>
<path opacity="0.5" d="M258.186 179.35C263.412 180.932 271.405 201.427 271.405 201.427L251.149 215.91C251.149 215.91 242.041 198.392 244.231 191.643C246.52 184.615 252.233 177.538 258.186 179.35Z" fill="white"/>
<path d="M286.375 198.133L283.598 185.889L295.144 191.981C295.144 191.981 295.284 200.223 290.625 202.821L286.375 198.133Z" fill="#B55B52"/>
<path d="M288.435 176.174L295.801 181.4L295.144 191.981L283.598 185.889L288.435 176.174Z" fill="#B55B52"/>
<path d="M81.6224 114.56H162.249C163.789 114.544 165.314 114.849 166.73 115.454C168.146 116.058 169.421 116.95 170.474 118.073C171.527 119.195 172.336 120.524 172.85 121.976C173.363 123.427 173.57 124.969 173.457 126.504L171.208 162.995C170.96 166.208 169.523 169.212 167.178 171.421C164.833 173.63 161.748 174.885 158.526 174.94H149.19L153.002 187.472L134.766 174.94H77.9295C76.3901 174.955 74.8644 174.651 73.4486 174.046C72.0329 173.441 70.758 172.55 69.7046 171.427C68.6512 170.304 67.8422 168.975 67.3287 167.524C66.8152 166.073 66.6084 164.531 66.7214 162.995L68.9511 126.504C69.1983 123.294 70.6337 120.29 72.9769 118.082C75.3202 115.873 78.4028 114.617 81.6224 114.56Z" fill="#0078FF"/>
<path d="M154.863 133.671H86.6786C86.3891 133.67 86.1031 133.608 85.8387 133.49C85.5743 133.372 85.3373 133.201 85.1426 132.986C84.948 132.772 84.8 132.52 84.708 132.245C84.616 131.971 84.582 131.68 84.6082 131.392C84.6528 130.788 84.9215 130.222 85.3616 129.806C85.8018 129.39 86.3815 129.153 86.9872 129.142H155.181C155.469 129.143 155.754 129.203 156.018 129.318C156.282 129.433 156.519 129.602 156.715 129.813C156.911 130.024 157.062 130.273 157.158 130.544C157.253 130.816 157.292 131.104 157.272 131.392C157.236 132.007 156.967 132.586 156.52 133.009C156.072 133.433 155.479 133.67 154.863 133.671Z" fill="white"/>
<path d="M114.471 146.999H85.8636C85.5739 147.002 85.2869 146.944 85.0207 146.83C84.7545 146.715 84.5147 146.547 84.3165 146.336C84.1183 146.125 83.966 145.875 83.8691 145.602C83.7722 145.329 83.7328 145.039 83.7534 144.75C83.7981 144.144 84.0683 143.577 84.5105 143.161C84.9527 142.744 85.5349 142.509 86.1423 142.5H114.78C115.07 142.497 115.358 142.554 115.626 142.667C115.893 142.781 116.134 142.948 116.333 143.16C116.533 143.371 116.686 143.622 116.783 143.895C116.881 144.169 116.921 144.46 116.9 144.75C116.852 145.362 116.576 145.933 116.126 146.35C115.676 146.767 115.085 146.999 114.471 146.999Z" fill="white"/>
<path d="M138.987 160.328H85.0472C84.7575 160.33 84.4705 160.272 84.2043 160.158C83.938 160.044 83.6983 159.876 83.5001 159.664C83.3019 159.453 83.1496 159.203 83.0527 158.93C82.9557 158.657 82.9164 158.367 82.937 158.078C82.9795 157.472 83.2489 156.903 83.6916 156.486C84.1343 156.069 84.7178 155.835 85.3259 155.829H139.266C139.556 155.825 139.844 155.882 140.111 155.995C140.378 156.109 140.618 156.277 140.817 156.489C141.015 156.7 141.167 156.951 141.264 157.224C141.36 157.498 141.399 157.789 141.376 158.078C141.332 158.684 141.062 159.251 140.619 159.667C140.177 160.084 139.595 160.319 138.987 160.328Z" fill="white"/>
<path d="M135.483 146.999H124.205C123.916 147.002 123.629 146.944 123.362 146.83C123.096 146.715 122.856 146.547 122.658 146.336C122.46 146.125 122.308 145.875 122.211 145.602C122.114 145.329 122.075 145.039 122.095 144.75C122.142 144.145 122.413 143.579 122.855 143.163C123.296 142.747 123.877 142.511 124.484 142.5H135.752C136.042 142.497 136.33 142.553 136.597 142.667C136.864 142.781 137.104 142.949 137.302 143.16C137.501 143.372 137.653 143.623 137.75 143.896C137.846 144.17 137.884 144.461 137.862 144.75C137.818 145.354 137.549 145.92 137.109 146.336C136.669 146.752 136.089 146.989 135.483 146.999Z" fill="white"/>
<path d="M193.893 48.9633H149.936C147.43 49.0009 145.028 49.9746 143.202 51.6931C141.377 53.4115 140.261 55.7505 140.072 58.2503L138.36 86.6588C138.275 87.8532 138.438 89.0523 138.839 90.1806C139.24 91.3089 139.87 92.3418 140.691 93.2143C141.511 94.0868 142.503 94.78 143.604 95.2501C144.705 95.7202 145.892 95.9571 147.09 95.9458H154.286L150.125 105.701L165.514 95.9458H191.016C193.523 95.9082 195.925 94.9345 197.75 93.216C199.575 91.4976 200.692 89.1586 200.88 86.6588L202.622 58.2503C202.708 57.0559 202.545 55.8568 202.144 54.7285C201.742 53.6002 201.112 52.5673 200.292 51.6948C199.472 50.8223 198.48 50.1291 197.378 49.659C196.277 49.1889 195.09 48.952 193.893 48.9633Z" fill="#0078FF"/>
<g opacity="0.5">
<path opacity="0.5" d="M193.893 48.9633H149.936C147.43 49.0009 145.028 49.9746 143.202 51.6931C141.377 53.4115 140.261 55.7505 140.072 58.2503L138.36 86.6588C138.275 87.8532 138.438 89.0523 138.839 90.1806C139.24 91.3089 139.87 92.3418 140.691 93.2143C141.511 94.0868 142.503 94.78 143.604 95.2501C144.705 95.7202 145.892 95.9571 147.09 95.9458H154.286L150.125 105.701L165.514 95.9458H191.016C193.523 95.9082 195.925 94.9345 197.75 93.216C199.575 91.4976 200.692 89.1586 200.88 86.6588L202.622 58.2503C202.708 57.0559 202.545 55.8568 202.144 54.7285C201.742 53.6002 201.112 52.5673 200.292 51.6948C199.472 50.8223 198.48 50.1291 197.378 49.659C196.277 49.1889 195.09 48.952 193.893 48.9633Z" fill="#FAFAFA"/>
</g>
<path d="M172.7 77.103C172.549 77.7287 172.192 78.2854 171.687 78.6842C171.181 79.0831 170.557 79.3009 169.913 79.3028H167.315C167.315 78.5663 167.375 78.1183 167.385 77.9591C167.423 76.5243 167.79 75.1176 168.46 73.8481C169.401 72.433 170.595 71.2045 171.984 70.2249C173.091 69.4225 174.136 68.5374 175.109 67.5771C175.626 66.966 175.933 66.2055 175.985 65.4072C176.024 64.8782 175.941 64.3474 175.743 63.8555C175.544 63.3637 175.236 62.924 174.84 62.5703C173.875 61.7431 172.626 61.3221 171.357 61.3958C170.022 61.3593 168.717 61.7966 167.674 62.63C167.054 63.1416 166.545 63.7752 166.181 64.4914C165.912 65.0146 165.494 65.4468 164.981 65.7337C164.467 66.0206 163.88 66.1494 163.294 66.104C162.872 66.0517 162.47 65.8939 162.125 65.6451C161.78 65.3962 161.504 65.0645 161.321 64.6804C161.139 64.2964 161.056 63.8725 161.08 63.448C161.105 63.0235 161.237 62.6121 161.462 62.2518C162.063 61.2438 162.834 60.3478 163.742 59.604C165.899 57.87 168.611 56.9754 171.376 57.0857C174.631 57.0857 177.16 57.9318 178.981 59.6339C179.834 60.3671 180.505 61.2879 180.942 62.3242C181.379 63.3604 181.57 64.4839 181.5 65.6063C181.408 66.882 180.967 68.108 180.226 69.1499C178.827 70.8715 177.211 72.404 175.418 73.7087C174.489 74.3575 173.686 75.1704 173.049 76.1076C172.887 76.4216 172.77 76.7566 172.7 77.103ZM167.017 84.2499V83.9314C167.069 83.2121 167.39 82.5387 167.915 82.0446C168.441 81.5505 169.132 81.2718 169.854 81.2638H170.212C170.557 81.2587 170.899 81.3255 171.217 81.4597C171.535 81.594 171.821 81.7929 172.058 82.0437C172.295 82.2946 172.477 82.5919 172.592 82.9169C172.708 83.2419 172.755 83.5873 172.73 83.9314V84.2499C172.678 84.9702 172.358 85.6448 171.833 86.1404C171.307 86.6361 170.615 86.917 169.893 86.9275H169.575C169.226 86.9384 168.878 86.8755 168.555 86.7432C168.232 86.6108 167.94 86.4119 167.699 86.1593C167.457 85.9067 167.272 85.6062 167.154 85.2772C167.037 84.9482 166.99 84.5982 167.017 84.2499Z" fill="white"/>
</g>
<defs>
<clipPath id="clip0">
<rect width="432" height="432" fill="white"/>
</clipPath>
</defs>
</svg>
