<svg width="100%" viewBox="0 0 432 432" fill="none" xmlns="http://www.w3.org/2000/svg">
<path d="M416 348H16V349H416V348Z" fill="#EBEBEB"/>
<path d="M415.901 364.49H382.781V364.74H415.901V364.49Z" fill="#EBEBEB"/>
<path d="M297.221 367.21H288.531V367.46H297.221V367.21Z" fill="#EBEBEB"/>
<path d="M381.78 355.21H362.59V355.46H381.78V355.21Z" fill="#EBEBEB"/>
<path d="M61.6509 356.89H18.4609V357.14H61.6509V356.89Z" fill="#EBEBEB"/>
<path d="M76.8886 356.89H70.5586V357.14H76.8886V356.89Z" fill="#EBEBEB"/>
<path d="M191.149 361.11H97.4688V361.36H191.149V361.11Z" fill="#EBEBEB"/>
<path d="M386.519 48.42H160.289V178.2H386.519V48.42Z" fill="#E6E6E6"/>
<path d="M392.571 48.42H163.121V178.2H392.571V48.42Z" fill="#F0F0F0"/>
<path d="M386.519 178.2H160.289V189.44H386.519V178.2Z" fill="#E6E6E6"/>
<path d="M402.641 178.2H173.191V189.44H402.641V178.2Z" fill="#F0F0F0"/>
<path d="M384.102 169.73V56.88L171.582 56.88V169.73H384.102Z" fill="#FAFAFA"/>
<path d="M187.199 169.73L236.879 56.88H260.339L210.649 169.73H187.199Z" fill="white"/>
<path d="M175.498 161.31C175.338 161.307 175.186 161.242 175.074 161.128C174.961 161.014 174.898 160.86 174.898 160.7V62.39C174.917 62.2429 174.989 62.1078 175.101 62.0099C175.212 61.912 175.355 61.8579 175.503 61.8579C175.652 61.8579 175.795 61.912 175.906 62.0099C176.018 62.1078 176.089 62.2429 176.108 62.39V160.7C176.108 160.78 176.093 160.859 176.062 160.933C176.031 161.007 175.986 161.075 175.93 161.131C175.873 161.188 175.806 161.233 175.732 161.264C175.658 161.294 175.579 161.31 175.498 161.31Z" fill="#F0F0F0"/>
<path d="M215.691 169.73L265.381 56.88H274.521L224.831 169.73H215.691Z" fill="white"/>
<path d="M384.102 169.73V56.88H383.032V169.73H384.102Z" fill="#E6E6E6"/>
<path opacity="0.6" d="M394.569 69.65H168.339L167.559 60.17H393.789L394.569 69.65Z" fill="#EBEBEB"/>
<path opacity="0.6" d="M394.569 85.18H168.339L167.559 75.71H393.789L394.569 85.18Z" fill="#EBEBEB"/>
<path opacity="0.6" d="M394.569 100.72H168.339L167.559 91.25H393.789L394.569 100.72Z" fill="#EBEBEB"/>
<path opacity="0.6" d="M394.569 116.26H168.339L167.559 106.78H393.789L394.569 116.26Z" fill="#EBEBEB"/>
<path opacity="0.6" d="M394.569 131.8H168.339L167.559 122.32H393.789L394.569 131.8Z" fill="#EBEBEB"/>
<path opacity="0.6" d="M394.569 147.33H168.339L167.559 137.86H393.789L394.569 147.33Z" fill="#EBEBEB"/>
<path d="M108.131 85.31H30.5508V189.43H108.131V85.31Z" fill="#E6E6E6"/>
<path d="M113.539 85.31H31.7188V189.43H113.539V85.31Z" fill="#F0F0F0"/>
<path d="M106.68 182.57V92.16H38.5697V182.57H106.68Z" fill="white"/>
<path d="M72.1608 161.28L59.6608 148.78C56.6411 145.752 54.9453 141.651 54.9453 137.375C54.9453 133.099 56.6411 128.998 59.6608 125.97L72.1608 113.46C72.2857 113.34 72.4523 113.272 72.6258 113.272C72.7992 113.272 72.9659 113.34 73.0908 113.46L85.6008 126C88.6205 129.028 90.3163 133.129 90.3163 137.405C90.3163 141.681 88.6205 145.782 85.6008 148.81L73.0908 161.31C73.0283 161.37 72.9544 161.417 72.8734 161.448C72.7925 161.479 72.7061 161.494 72.6195 161.491C72.5328 161.488 72.4476 161.468 72.3688 161.432C72.29 161.396 72.2193 161.344 72.1608 161.28ZM72.6308 114.86L60.6308 126.86C57.859 129.642 56.3027 133.408 56.3027 137.335C56.3027 141.262 57.859 145.028 60.6308 147.81L72.6308 159.81L84.6308 147.81C87.4074 145.031 88.9671 141.263 88.9671 137.335C88.9671 133.407 87.4074 129.639 84.6308 126.86L72.6308 114.86Z" fill="#F0F0F0"/>
<path d="M189.339 241.27C188.829 241.27 188.339 241.27 187.789 241.32C176.789 242.2 167.969 252.64 167.269 265.5C167.112 268.354 167.357 271.215 167.999 274C170.418 285.091 171.582 296.419 171.469 307.77V340.94C171.469 343.34 173.129 345.29 175.179 345.29H248.379V241.29L189.339 241.27Z" fill="#F0F0F0"/>
<path d="M270.48 267.2C270.48 252.28 259.73 240.3 246.81 241.33C235.81 242.21 226.98 252.65 226.29 265.51C226.123 268.359 226.362 271.218 227 274C229.42 285.091 230.584 296.419 230.47 307.77V340.94C230.47 343.34 232.13 345.29 234.18 345.29H262.54C264.54 345.29 266.25 343.34 266.25 340.94V305.78C266.168 295.133 267.319 284.512 269.68 274.13C270.213 271.859 270.482 269.533 270.48 267.2Z" fill="#FAFAFA"/>
<path d="M217.879 286.45H140.629V345.24H217.879V286.45Z" fill="#F5F5F5"/>
<path d="M92.13 216H177C181.808 216 186.42 217.91 189.82 221.31C193.22 224.71 195.13 229.322 195.13 234.13V296.39H74V234.13C74 229.322 75.9101 224.71 79.3102 221.31C82.7102 217.91 87.3216 216 92.13 216Z" fill="#E6E6E6"/>
<path d="M105.321 216H181.751C184.098 216 186.422 216.462 188.59 217.36C190.758 218.258 192.728 219.575 194.387 221.234C196.047 222.893 197.363 224.863 198.261 227.031C199.159 229.2 199.621 231.523 199.621 233.87V296.39H87.4414V233.87C87.4414 231.522 87.904 229.198 88.8026 227.029C89.7013 224.86 91.0185 222.89 92.6789 221.23C94.3394 219.571 96.3105 218.255 98.4798 217.357C100.649 216.46 102.974 215.999 105.321 216Z" fill="#F5F5F5"/>
<path d="M145.609 284.33H217.809C218.841 284.33 219.83 284.74 220.56 285.469C221.289 286.199 221.699 287.188 221.699 288.22V294.48C221.699 295.512 221.289 296.501 220.56 297.231C219.83 297.96 218.841 298.37 217.809 298.37H145.609C145.302 298.37 145.007 298.248 144.789 298.03C144.571 297.813 144.449 297.518 144.449 297.21V285.49C144.449 285.182 144.571 284.887 144.789 284.67C145.007 284.452 145.302 284.33 145.609 284.33Z" fill="#EBEBEB"/>
<path d="M64.9397 345.24H249.47V345.48C249.47 346.254 249.162 346.997 248.614 347.545C248.067 348.092 247.324 348.4 246.55 348.4H67.8497C67.0753 348.4 66.3325 348.092 65.7849 347.545C65.2373 346.997 64.9297 346.254 64.9297 345.48V345.24H64.9397Z" fill="#E6E6E6"/>
<path d="M66.0507 241.27C65.5407 241.27 65.0507 241.27 64.5007 241.32C53.5007 242.2 44.6707 252.64 43.9807 265.5C43.8229 268.333 44.0619 271.174 44.6907 273.94C47.1104 285.031 48.2744 296.359 48.1607 307.71V340.88C48.1607 343.28 49.8207 345.23 51.8707 345.23H141.681V241.23L66.0507 241.27Z" fill="#F0F0F0"/>
<path d="M163.8 267.2C163.8 252.28 153.05 240.3 140.13 241.33C129.13 242.21 120.31 252.65 119.61 265.51C119.452 268.343 119.691 271.184 120.32 273.95C122.739 285.041 123.903 296.369 123.79 307.72V340.89C123.79 343.29 125.45 345.24 127.5 345.24H155.86C157.86 345.24 159.58 343.29 159.58 340.89V305.78C159.494 295.133 160.642 284.513 163 274.13C163.533 271.859 163.801 269.533 163.8 267.2Z" fill="#FAFAFA"/>
<path d="M367.421 250.08C368.289 250.083 369.138 249.83 369.862 249.352C370.587 248.874 371.154 248.194 371.494 247.395C371.833 246.597 371.93 245.716 371.771 244.863C371.612 244.01 371.205 243.223 370.601 242.6C368.601 240.54 365.321 238.86 360.101 238.86C354.881 238.86 351.641 240.54 349.611 242.6C349.008 243.222 348.601 244.009 348.442 244.861C348.283 245.713 348.379 246.593 348.717 247.391C349.055 248.189 349.621 248.87 350.344 249.348C351.067 249.826 351.914 250.081 352.781 250.08H367.421Z" fill="#F5F5F5"/>
<path d="M382.11 248.44C382.664 248.434 383.203 248.266 383.662 247.956C384.12 247.647 384.478 247.209 384.691 246.699C384.904 246.188 384.962 245.626 384.859 245.082C384.756 244.539 384.496 244.037 384.11 243.64C382.81 242.31 380.72 241.24 377.37 241.24C374.02 241.24 371.93 242.31 370.63 243.64C370.245 244.037 369.985 244.539 369.882 245.082C369.778 245.626 369.837 246.188 370.05 246.699C370.263 247.209 370.62 247.647 371.079 247.956C371.538 248.266 372.077 248.434 372.63 248.44H382.11Z" fill="#F5F5F5"/>
<path d="M345 247.17C345 247.17 345.57 253 367.48 253C389.39 253 389.97 247.17 389.97 247.17H345Z" fill="#F0F0F0"/>
<path d="M321.761 237.36C321.573 237.365 321.386 237.385 321.201 237.42V235.42C321.202 235.212 321.162 235.005 321.083 234.812C321.005 234.619 320.888 234.444 320.742 234.296C320.595 234.149 320.42 234.031 320.228 233.951C320.035 233.871 319.829 233.83 319.621 233.83H311.131C310.711 233.833 310.309 234.001 310.013 234.299C309.717 234.597 309.551 235 309.551 235.42V253H321.201V250.16C321.386 250.19 321.573 250.21 321.761 250.22C322.999 250.217 324.185 249.724 325.06 248.849C325.935 247.974 326.428 246.788 326.431 245.55V242C326.42 240.767 325.924 239.589 325.05 238.72C324.175 237.851 322.993 237.363 321.761 237.36ZM324.431 245.55C324.428 246.257 324.146 246.935 323.646 247.435C323.146 247.935 322.468 248.217 321.761 248.22C321.573 248.22 321.385 248.2 321.201 248.16V239.42C321.385 239.38 321.573 239.36 321.761 239.36C322.468 239.363 323.146 239.645 323.646 240.145C324.146 240.645 324.428 241.323 324.431 242.03V245.55Z" fill="#E6E6E6"/>
<path d="M331.342 253H287.922V348.4H331.342V253Z" fill="#E6E6E6"/>
<path d="M331.331 348.4H407.711V253H331.331V348.4Z" fill="#F5F5F5"/>
<path d="M403.711 348.4V257H335.331V348.4H403.711Z" fill="#E6E6E6"/>
<path d="M352.602 348.4V257H335.342V348.4H352.602Z" fill="#E0E0E0"/>
<path d="M405.879 304.7V300.7H335.339V304.7H405.879Z" fill="#F5F5F5"/>
<path d="M358.328 300.7H343.328L347.778 267.84H358.328V300.7Z" fill="#E6E6E6"/>
<path d="M380.329 300.7H351.919L346.629 262.24H375.039L380.329 300.7Z" fill="#F0F0F0"/>
<path d="M384.13 300.7H354.56L349.27 262.24H378.84L384.13 300.7Z" fill="#F5F5F5"/>
<path d="M357.169 297.67L352.719 265.27H376.219L380.679 297.67H357.169Z" fill="white"/>
<path d="M363.002 287.24L361.522 276.51C361.466 276.085 361.502 275.652 361.627 275.242C361.753 274.832 361.965 274.453 362.25 274.132C362.534 273.81 362.884 273.554 363.276 273.379C363.668 273.205 364.093 273.116 364.522 273.12H367.402C368.13 273.113 368.835 273.371 369.387 273.845C369.939 274.32 370.3 274.979 370.402 275.7L371.872 286.42C371.929 286.846 371.894 287.28 371.769 287.691C371.644 288.103 371.432 288.483 371.148 288.805C370.863 289.127 370.513 289.385 370.12 289.56C369.727 289.735 369.302 289.824 368.872 289.82H366.002C365.274 289.827 364.568 289.569 364.016 289.095C363.464 288.62 363.103 287.961 363.002 287.24Z" fill="#F5F5F5"/>
<path d="M215.999 393.56C323.082 393.56 409.889 388.492 409.889 382.24C409.889 375.988 323.082 370.92 215.999 370.92C108.917 370.92 22.1094 375.988 22.1094 382.24C22.1094 388.492 108.917 393.56 215.999 393.56Z" fill="#F5F5F5"/>
<path d="M129.311 166.607C133.464 141.023 116.091 116.917 90.507 112.764C64.9231 108.611 40.8168 125.984 36.6639 151.568C32.5111 177.152 49.8844 201.259 75.4682 205.411C101.052 209.564 125.158 192.191 129.311 166.607Z" fill="#0078FF"/>
<path opacity="0.7" d="M129.311 166.607C133.464 141.023 116.091 116.917 90.507 112.764C64.9231 108.611 40.8168 125.984 36.6639 151.568C32.5111 177.152 49.8844 201.259 75.4682 205.411C101.052 209.564 125.158 192.191 129.311 166.607Z" fill="#FAFAFA"/>
<path d="M222.501 169.851C228.455 144.625 212.832 119.349 187.607 113.395C162.381 107.442 137.105 123.065 131.151 148.29C125.198 173.516 140.821 198.792 166.046 204.746C191.272 210.699 216.548 195.076 222.501 169.851Z" fill="#0078FF"/>
<path opacity="0.7" d="M222.501 169.851C228.455 144.625 212.832 119.349 187.607 113.395C162.381 107.442 137.105 123.065 131.151 148.29C125.198 173.516 140.821 198.792 166.046 204.746C191.272 210.699 216.548 195.076 222.501 169.851Z" fill="#FAFAFA"/>
<path d="M269.798 178.656C295.684 177.354 315.613 155.313 314.31 129.427C313.008 103.541 290.968 83.6125 265.082 84.9147C239.196 86.217 219.267 108.257 220.569 134.143C221.871 160.029 243.912 179.958 269.798 178.656Z" fill="#0078FF"/>
<path opacity="0.7" d="M269.798 178.656C295.684 177.354 315.613 155.313 314.31 129.427C313.008 103.541 290.968 83.6125 265.082 84.9147C239.196 86.217 219.267 108.257 220.569 134.143C221.871 160.029 243.912 179.958 269.798 178.656Z" fill="#FAFAFA"/>
<path d="M410.212 169.86C416.166 144.635 400.543 119.359 375.318 113.405C350.092 107.451 324.816 123.074 318.862 148.3C312.909 173.525 328.531 198.801 353.757 204.755C378.983 210.709 404.259 195.086 410.212 169.86Z" fill="#0078FF"/>
<path opacity="0.7" d="M410.212 169.86C416.166 144.635 400.543 119.359 375.318 113.405C350.092 107.451 324.816 123.074 318.862 148.3C312.909 173.525 328.531 198.801 353.757 204.755C378.983 210.709 404.259 195.086 410.212 169.86Z" fill="#FAFAFA"/>
<path d="M86.8824 175.427C84.4368 176.184 81.9225 176.61 79.3393 176.706C76.7562 176.802 74.5455 176.531 72.707 175.894L73.5256 168.958C75.4274 169.475 77.3499 169.735 79.2933 169.736C81.2577 169.698 83.1417 169.4 84.9454 168.842C86.7796 168.274 88.1102 167.595 88.9371 166.803C89.7546 165.981 90.0214 165.111 89.7377 164.194C89.4823 163.368 88.831 162.833 87.7836 162.587C86.7269 162.311 84.8953 162.292 82.2888 162.529C79.0121 162.873 76.3806 162.866 74.3944 162.509C72.3987 162.122 70.8601 161.426 69.7787 160.42C68.7278 159.406 67.9328 158.027 67.3937 156.284C66.7789 154.297 66.7912 152.334 67.4305 150.394C68.0603 148.424 69.2622 146.679 71.0361 145.159C72.8006 143.608 74.9973 142.426 77.6264 141.613C79.9803 140.884 82.3618 140.516 84.771 140.507C87.2012 140.459 89.2085 140.776 90.793 141.458L90.0202 148.38C88.2713 147.815 86.5216 147.519 84.7712 147.491C83.0113 147.433 81.3365 147.65 79.7468 148.141C78.1878 148.624 77.029 149.317 76.2704 150.222C75.5025 151.096 75.2745 152.037 75.5866 153.046C75.7569 153.596 76.0669 154.003 76.5167 154.266C76.9664 154.529 77.7066 154.702 78.7372 154.785C79.7584 154.837 81.2475 154.778 83.2047 154.608C86.3687 154.333 88.9332 154.394 90.8983 154.791C92.8845 155.147 94.4184 155.829 95.4998 156.834C96.5718 157.809 97.3679 159.137 97.8881 160.818C98.8717 163.997 98.4092 166.887 96.5005 169.487C94.5823 172.057 91.3763 174.037 86.8824 175.427Z" fill="#ECF5FF"/>
<path d="M177.021 179.76C173.59 179.13 170.728 177.889 168.433 176.036C166.143 174.151 164.546 171.776 163.641 168.909C162.767 166.048 162.651 162.871 163.293 159.377C163.935 155.884 165.185 152.974 167.044 150.647C168.903 148.321 171.218 146.696 173.99 145.774C176.8 144.826 179.92 144.667 183.351 145.297C186.781 145.927 189.625 147.181 191.883 149.06C194.178 150.913 195.765 153.254 196.645 156.084C197.524 158.913 197.643 162.075 197.001 165.568C196.36 169.062 195.122 171.99 193.289 174.354C191.456 176.718 189.135 178.374 186.325 179.322C183.553 180.244 180.452 180.391 177.021 179.76ZM178.261 173.009C180.779 173.472 182.911 172.936 184.656 171.402C186.434 169.874 187.637 167.395 188.267 163.964C188.892 160.565 188.642 157.851 187.518 155.823C186.431 153.769 184.629 152.51 182.111 152.048C179.593 151.586 177.464 152.106 175.724 153.608C173.984 155.11 172.799 157.577 172.169 161.007C171.533 164.47 171.758 167.228 172.845 169.282C173.938 171.304 175.743 172.547 178.261 173.009Z" fill="#ECF5FF"/>
<path d="M276.531 146.154C273.375 147.642 270.325 148.301 267.381 148.133C264.422 147.935 261.74 146.935 259.334 145.133C256.957 143.317 255.011 140.803 253.496 137.59C251.982 134.377 251.302 131.284 251.457 128.31C251.612 125.336 252.547 122.666 254.262 120.301C255.993 117.894 258.436 115.946 261.591 114.459C264.746 112.972 267.788 112.334 270.718 112.545C273.663 112.713 276.317 113.691 278.68 115.478C281.044 117.265 282.983 119.765 284.497 122.978C286.012 126.191 286.713 129.292 286.6 132.281C286.488 135.27 285.567 137.968 283.836 140.376C282.121 142.741 279.686 144.667 276.531 146.154ZM273.604 139.946C275.92 138.854 277.34 137.176 277.865 134.913C278.419 132.635 277.952 129.919 276.465 126.764C274.991 123.638 273.207 121.578 271.111 120.584C269.031 119.549 266.833 119.576 264.517 120.668C262.202 121.759 260.775 123.423 260.236 125.657C259.698 127.892 260.172 130.587 261.659 133.742C263.16 136.926 264.95 139.036 267.031 140.072C269.097 141.079 271.288 141.037 273.604 139.946Z" fill="#ECF5FF"/>
<path d="M386.516 147.292L374.775 179.388L368.509 177.096L360.61 153.558L353.948 171.77L346.06 168.884L357.801 136.788L363.977 139.047L371.908 162.495L378.537 144.373L386.516 147.292Z" fill="#ECF5FF"/>
<path d="M364.551 210.35C363.225 210.35 361.953 209.823 361.015 208.886C360.078 207.948 359.551 206.676 359.551 205.35C359.551 204.024 360.078 202.752 361.015 201.814C361.953 200.877 363.225 200.35 364.551 200.35C372.844 200.352 380.952 197.895 387.849 193.288C394.745 188.682 400.121 182.134 403.296 174.473C406.471 166.811 407.303 158.38 405.686 150.246C404.07 142.112 400.077 134.64 394.213 128.775C388.35 122.91 380.878 118.915 372.745 117.296C364.611 115.678 356.179 116.507 348.517 119.681C340.855 122.854 334.306 128.228 329.698 135.124C325.09 142.019 322.631 150.127 322.631 158.42C322.631 172.193 317.16 185.401 307.421 195.14C297.682 204.879 284.474 210.35 270.701 210.35C256.928 210.35 243.72 204.879 233.981 195.14C224.242 185.401 218.771 172.193 218.771 158.42C218.771 147.299 214.353 136.634 206.49 128.771C198.626 120.908 187.961 116.49 176.841 116.49C165.72 116.49 155.055 120.908 147.192 128.771C139.328 136.634 134.911 147.299 134.911 158.42C134.911 168.692 131.865 178.733 126.158 187.273C120.451 195.813 112.339 202.469 102.849 206.399C93.3588 210.329 82.9164 211.356 72.8424 209.351C62.7684 207.345 53.5154 202.398 46.2537 195.133C38.9919 187.868 34.0477 178.614 32.0462 168.539C30.0447 158.464 31.076 148.022 35.0095 138.533C38.943 129.045 45.6021 120.936 54.1446 115.232C62.6871 109.528 72.7292 106.486 83.0008 106.49C84.3269 106.49 85.5987 107.017 86.5363 107.954C87.474 108.892 88.0008 110.164 88.0008 111.49C88.0008 112.816 87.474 114.088 86.5363 115.026C85.5987 115.963 84.3269 116.49 83.0008 116.49C74.7078 116.49 66.6011 118.949 59.7057 123.556C52.8104 128.164 47.4361 134.712 44.2625 142.374C41.089 150.036 40.2586 158.467 41.8765 166.6C43.4944 174.734 47.4878 182.205 53.3518 188.069C59.2158 193.933 66.687 197.926 74.8207 199.544C82.9543 201.162 91.385 200.332 99.0467 197.158C106.708 193.985 113.257 188.61 117.864 181.715C122.472 174.82 124.931 166.713 124.931 158.42C124.931 144.647 130.402 131.439 140.141 121.7C149.88 111.961 163.088 106.49 176.861 106.49C190.633 106.49 203.842 111.961 213.581 121.7C223.32 131.439 228.791 144.647 228.791 158.42C228.791 163.926 229.875 169.379 231.983 174.466C234.09 179.553 237.178 184.175 241.072 188.069C244.965 191.963 249.588 195.051 254.675 197.158C259.762 199.265 265.214 200.35 270.721 200.35C276.227 200.35 281.68 199.265 286.767 197.158C291.854 195.051 296.476 191.963 300.37 188.069C304.263 184.175 307.352 179.553 309.459 174.466C311.566 169.379 312.651 163.926 312.651 158.42C312.651 148.149 315.697 138.108 321.403 129.568C327.11 121.028 335.221 114.372 344.71 110.442C354.2 106.512 364.642 105.484 374.716 107.489C384.789 109.493 394.042 114.44 401.304 121.703C408.567 128.967 413.512 138.221 415.514 148.295C417.517 158.369 416.487 168.811 412.555 178.3C408.623 187.788 401.965 195.898 393.424 201.603C384.883 207.308 374.842 210.352 364.571 210.35H364.551Z" fill="#0078FF"/>
<path d="M313.77 193.27L313 192.64C315.278 189.824 317.271 186.789 318.95 183.58L319.84 184.05C318.122 187.314 316.089 190.402 313.77 193.27Z" fill="#0078FF"/>
<path d="M291.171 209.93L290.801 209C297.09 206.494 302.856 202.834 307.801 198.21L308.481 198.94C303.445 203.649 297.575 207.376 291.171 209.93Z" fill="#0078FF"/>
<path d="M156.18 374.74H163.52L164.25 357.72H156.91L156.18 374.74Z" fill="#FFC3BD"/>
<path opacity="0.2" d="M164.247 357.73L163.877 366.5H156.527L156.897 357.73H164.247Z" fill="black"/>
<path d="M102.328 368.97L109.508 370.52L116.718 354.68L109.538 353.12L102.328 368.97Z" fill="#FFC3BD"/>
<path opacity="0.2" d="M109.526 353.13L116.716 354.68L112.996 362.85L105.816 361.3L109.526 353.13Z" fill="black"/>
<path d="M140.467 135.25C137.947 139.68 135.407 144.25 132.977 148.8C130.547 153.35 128.167 157.93 126.147 162.49C125.617 163.64 125.147 164.77 124.707 165.9C124.707 166.01 124.707 165.9 124.707 165.9C124.707 165.9 124.707 165.97 124.707 166.05C124.671 166.339 124.671 166.631 124.707 166.92C124.89 167.867 125.189 168.787 125.597 169.66C126.062 170.711 126.582 171.736 127.157 172.73C129.758 177.041 132.648 181.17 135.807 185.09L132.027 189.09C127.55 185.792 123.517 181.93 120.027 177.6C117.999 175.152 116.43 172.357 115.397 169.35C115.09 168.376 114.902 167.369 114.837 166.35C114.783 165.745 114.783 165.135 114.837 164.53C114.871 164.194 114.925 163.86 114.997 163.53C114.997 163.37 115.077 163.2 115.117 163.03L115.247 162.6C115.687 161.26 116.117 159.9 116.607 158.6C118.526 153.506 120.715 148.519 123.167 143.66C125.587 138.84 128.117 134.18 130.937 129.52L140.467 135.25Z" fill="#FFC3BD"/>
<path d="M134.388 183.81L139.548 185.51L135.208 192.81C135.208 192.81 131.428 191.1 130.668 187.62L134.388 183.81Z" fill="#FFC3BD"/>
<path d="M146.577 188.33L141.557 193.95L135.207 192.81L139.547 185.51L146.577 188.33Z" fill="#FFC3BD"/>
<path d="M165.127 95.36C165.247 95.94 165.647 96.36 166.027 96.27C166.407 96.18 166.617 95.66 166.497 95.08C166.377 94.5 165.977 94.08 165.597 94.17C165.217 94.26 164.997 94.78 165.127 95.36Z" fill="#263238"/>
<path d="M165.598 96.36C166.65 97.9929 167.922 99.4734 169.378 100.76C169.039 101.124 168.624 101.41 168.163 101.597C167.701 101.783 167.205 101.866 166.708 101.84L165.598 96.36Z" fill="#ED847E"/>
<path d="M162.348 92.57C162.258 92.5668 162.173 92.5313 162.108 92.47C162.044 92.4046 162.008 92.3166 162.008 92.225C162.008 92.1334 162.044 92.0454 162.108 91.98C162.478 91.5607 162.944 91.2371 163.467 91.0369C163.989 90.8366 164.552 90.7657 165.108 90.83C165.199 90.8447 165.281 90.8951 165.335 90.9701C165.39 91.0451 165.412 91.1385 165.398 91.23C165.381 91.3202 165.33 91.4005 165.255 91.4544C165.181 91.5084 165.089 91.5318 164.998 91.52C164.562 91.4783 164.123 91.5409 163.716 91.7026C163.309 91.8643 162.946 92.1205 162.658 92.45C162.621 92.4956 162.574 92.5308 162.519 92.5519C162.465 92.573 162.406 92.5792 162.348 92.57Z" fill="#263238"/>
<path d="M148.59 103.52C149.59 108.9 150.69 118.75 146.93 122.33C146.93 122.33 148.4 127.78 158.39 127.78C169.39 127.78 163.64 122.33 163.64 122.33C157.64 120.9 157.8 116.46 158.84 112.28L148.59 103.52Z" fill="#FFC3BD"/>
<path d="M145.429 123.54C144.629 122.54 143.759 121.29 145.559 120.91C147.559 120.5 158.429 120.07 162.179 120.85C165.929 121.63 164.859 123.76 164.859 123.76L145.429 123.54Z" fill="white"/>
<path d="M112.309 371.52C112.605 371.625 112.92 371.67 113.234 371.653C113.548 371.636 113.856 371.557 114.139 371.42C114.248 371.32 114.324 371.188 114.354 371.042C114.385 370.897 114.369 370.746 114.309 370.61C114.277 370.497 114.219 370.392 114.142 370.304C114.064 370.216 113.967 370.146 113.859 370.1C112.859 369.62 110.589 370.55 110.489 370.59C110.458 370.604 110.431 370.627 110.412 370.655C110.393 370.683 110.381 370.716 110.379 370.75C110.38 370.783 110.39 370.815 110.408 370.843C110.425 370.871 110.45 370.894 110.479 370.91C111.066 371.177 111.679 371.382 112.309 371.52ZM113.499 370.34L113.709 370.41C113.772 370.437 113.828 370.479 113.873 370.531C113.918 370.582 113.951 370.644 113.969 370.71C114.069 371.02 113.969 371.12 113.909 371.15C113.519 371.49 112.049 371.15 111.019 370.76C111.805 370.441 112.652 370.298 113.499 370.34Z" fill="#0078FF"/>
<path d="M110.52 370.92H110.6C111.44 370.68 113.21 369.41 113.23 368.58C113.233 368.45 113.191 368.323 113.11 368.221C113.03 368.119 112.917 368.048 112.79 368.02C112.665 367.975 112.531 367.957 112.399 367.967C112.266 367.978 112.137 368.016 112.02 368.08C111.02 368.58 110.42 370.61 110.39 370.7C110.375 370.726 110.367 370.755 110.367 370.785C110.367 370.815 110.375 370.844 110.39 370.87C110.426 370.902 110.472 370.919 110.52 370.92ZM112.6 368.32H112.67C112.89 368.39 112.89 368.5 112.89 368.54C112.89 369.03 111.7 370.02 110.89 370.43C111.121 369.622 111.587 368.901 112.23 368.36C112.346 368.31 112.475 368.296 112.6 368.32Z" fill="#0078FF"/>
<path d="M166.47 375.11C167.42 375.11 168.33 374.98 168.63 374.56C168.708 374.449 168.75 374.316 168.75 374.18C168.75 374.044 168.708 373.911 168.63 373.8C168.569 373.698 168.487 373.609 168.391 373.538C168.295 373.468 168.186 373.417 168.07 373.39C166.85 373.06 164.28 374.52 164.18 374.59C164.146 374.605 164.119 374.631 164.103 374.664C164.086 374.697 164.082 374.734 164.09 374.77C164.097 374.804 164.114 374.836 164.139 374.861C164.164 374.886 164.195 374.903 164.23 374.91C164.969 375.04 165.719 375.107 166.47 375.11ZM167.64 373.69C167.749 373.674 167.86 373.674 167.97 373.69C168.04 373.703 168.108 373.731 168.166 373.772C168.225 373.814 168.274 373.867 168.31 373.93C168.44 374.15 168.39 374.26 168.31 374.32C167.97 374.79 166.11 374.8 164.74 374.61C165.637 374.118 166.622 373.805 167.64 373.69Z" fill="#0078FF"/>
<path d="M164.248 374.91H164.318C165.208 374.51 166.968 372.91 166.828 372.09C166.828 371.89 166.658 371.65 166.188 371.6C166.01 371.58 165.829 371.596 165.658 371.648C165.486 371.699 165.326 371.785 165.188 371.9C164.258 372.67 164.058 374.65 164.048 374.73C164.044 374.761 164.049 374.791 164.061 374.82C164.073 374.848 164.093 374.872 164.118 374.89C164.158 374.912 164.204 374.919 164.248 374.91ZM166.048 371.91H166.148C166.458 371.91 166.478 372.06 166.488 372.1C166.568 372.6 165.378 373.85 164.488 374.39C164.584 373.553 164.933 372.764 165.488 372.13C165.65 372.008 165.846 371.938 166.048 371.93V371.91Z" fill="#0078FF"/>
<path d="M110.198 369.8L102.128 368.06C101.987 368.027 101.838 368.045 101.708 368.111C101.578 368.177 101.476 368.286 101.418 368.42L98.6183 374.49C98.5501 374.637 98.5164 374.799 98.5198 374.961C98.5231 375.124 98.5634 375.283 98.6376 375.428C98.7118 375.572 98.818 375.698 98.9481 375.796C99.0782 375.893 99.2287 375.959 99.3883 375.99C102.218 376.56 103.618 376.69 107.168 377.46C109.348 377.93 114.278 379.13 117.288 379.78C120.298 380.43 121.338 377.54 120.168 377C114.898 374.59 112.698 372.47 111.268 370.5C111.009 370.144 110.628 369.895 110.198 369.8Z" fill="#263238"/>
<path d="M163.468 373.89H155.468C155.322 373.891 155.181 373.94 155.067 374.031C154.952 374.122 154.872 374.248 154.838 374.39L153.388 380.92C153.354 381.078 153.355 381.241 153.392 381.398C153.43 381.555 153.502 381.701 153.604 381.826C153.706 381.951 153.835 382.052 153.981 382.12C154.127 382.188 154.287 382.222 154.448 382.22C157.338 382.22 161.528 382.01 165.158 382.01C169.418 382.01 173.088 382.24 178.078 382.24C181.078 382.24 181.928 379.19 180.668 378.91C174.918 377.66 170.228 377.52 165.258 374.46C164.727 374.106 164.107 373.909 163.468 373.89Z" fill="#263238"/>
<path d="M166.109 124.14C171.809 123.55 177.709 122.8 183.419 121.9C189.035 121.105 194.579 119.868 199.999 118.2C200.629 117.99 201.229 117.76 201.829 117.52C202.325 117.321 202.806 117.087 203.269 116.82C204.369 116.2 205.579 115.45 206.759 114.66C209.139 113.07 211.559 111.39 213.949 109.66L228.459 99.23L232.139 103.34C228.059 107.85 223.809 112.13 219.339 116.26C217.099 118.32 214.819 120.36 212.339 122.32C211.109 123.32 209.879 124.32 208.429 125.23C207.634 125.773 206.802 126.261 205.939 126.69C205.159 127.06 204.379 127.41 203.609 127.69C200.628 128.896 197.567 129.899 194.449 130.69C191.449 131.51 188.379 132.16 185.349 132.74C179.282 133.903 173.157 134.737 166.999 135.24L166.109 124.14Z" fill="#FFC3BD"/>
<path d="M133.778 124C126.888 125.58 115.328 159.77 115.328 159.77L126.578 163.51C126.578 163.51 138.058 146.51 141.958 138.3C145.998 129.7 140.818 122.38 133.778 124Z" fill="#263238"/>
<path d="M128.54 161.82C128.54 161.82 117.54 159.72 115.01 158.16C114.13 159.43 113.01 164.06 113.79 165.42C114.57 166.78 124.79 168.76 126.16 167.95C127.53 167.14 128.54 161.82 128.54 161.82Z" fill="#263238"/>
<path opacity="0.2" d="M128.54 161.82C128.54 161.82 117.54 159.72 115.01 158.16C114.13 159.43 113.01 164.06 113.79 165.42C114.57 166.78 124.79 168.76 126.16 167.95C127.53 167.14 128.54 161.82 128.54 161.82Z" fill="#FAFAFA"/>
<path d="M174.937 124.37C174.937 124.37 182.747 133.2 175.367 187.87H136.077C135.807 181.87 139.597 152.41 133.777 123.99C138.12 123.154 142.513 122.599 146.927 122.33C152.493 122.01 158.072 122.01 163.637 122.33C167.451 122.716 171.229 123.398 174.937 124.37Z" fill="#263238"/>
<path d="M161 136.06C168.05 143.33 203.39 128.83 203.39 128.83L197.72 117.92C197.72 117.92 175.62 122.51 166.54 122.33C155.34 122.1 155.67 130.53 161 136.06Z" fill="#263238"/>
<path d="M196 117.71C196 117.71 201.63 127.42 202.08 130.33C203.63 130.17 207.83 127.96 208.38 126.5C208.93 125.04 203.71 116.02 202.19 115.5C200.67 114.98 196 117.71 196 117.71Z" fill="#263238"/>
<path opacity="0.2" d="M196 117.71C196 117.71 201.63 127.42 202.08 130.33C203.63 130.17 207.83 127.96 208.38 126.5C208.93 125.04 203.71 116.02 202.19 115.5C200.67 114.98 196 117.71 196 117.71Z" fill="#FAFAFA"/>
<path d="M228.227 99.33L233.227 93.44L238.607 99.44C238.607 99.44 235.287 105.01 230.017 104.13L228.227 99.33Z" fill="#FFC3BD"/>
<path d="M240.26 90.66L245.11 93.44L238.66 99.41L233.27 93.44L240.26 90.66Z" fill="#FFC3BD"/>
<path d="M145.509 98.06C147.399 105.11 148.149 109.32 152.509 112.25C159.049 116.66 167.189 111.6 167.439 104.14C167.669 97.42 164.549 87.03 156.989 85.61C155.323 85.2833 153.6 85.3889 151.986 85.9169C150.372 86.4449 148.92 87.3776 147.769 88.6261C146.618 89.8745 145.806 91.3971 145.41 93.0486C145.015 94.7001 145.049 96.4254 145.509 98.06Z" fill="#FFC3BD"/>
<path d="M160.938 71.28C165.938 81.8 139.988 75.97 139.808 85.52C139.808 85.92 139.808 86.28 139.808 86.63C139.068 85.94 137.578 85.18 135.008 86.22C136.515 86.7891 137.88 87.6798 139.008 88.83C138.008 89.68 136.488 90.13 137.138 94.2C137.448 96.2 139.438 99.2 142.028 101.86C143.158 103.67 146.828 107.78 146.758 108.77C147.319 108.772 147.874 108.656 148.388 108.43C148.55 108.805 148.622 109.212 148.598 109.62C149.958 109.88 151.028 109.69 151.148 108.75C152.258 108.85 153.058 108.55 153.098 107.66C154.158 107.81 154.888 107.47 154.838 106.33C157.358 104.95 158.218 102.04 158.678 98.79C159.212 94.6776 161.271 90.9158 164.448 88.25C169.538 84.18 171.538 77.76 160.938 71.28Z" fill="#263238"/>
<path d="M155.628 97.69C156.116 99.442 157.171 100.983 158.628 102.07C160.548 103.49 161.968 102.07 161.838 99.93C161.718 97.93 160.568 94.93 158.458 94.32C156.348 93.71 155.078 95.57 155.628 97.69Z" fill="#FFC3BD"/>
<path d="M161.427 187.87C161.427 187.87 153.087 244 148.517 265C143.517 288 116.697 361.88 116.697 361.88L103.547 359.03C103.547 359.03 123.617 289.9 126.477 267.09C129.577 242.34 136.077 187.83 136.077 187.83L161.427 187.87Z" fill="#0078FF"/>
<path opacity="0.5" d="M161.427 187.87C161.427 187.87 153.087 244 148.517 265C143.517 288 116.697 361.88 116.697 361.88L103.547 359.03C103.547 359.03 123.617 289.9 126.477 267.09C129.577 242.34 136.077 187.83 136.077 187.83L161.427 187.87Z" fill="black"/>
<path opacity="0.3" d="M156.159 207.87C146.519 209.76 147.539 245.71 148.699 264.2C151.479 251.13 155.549 225.98 158.329 208.13C157.656 207.799 156.89 207.707 156.159 207.87Z" fill="black"/>
<path d="M175.367 187.87C175.367 187.87 176.367 242.8 175.577 265.2C174.747 288.5 166.577 364.8 166.577 364.8H154.167C154.167 364.8 153.707 289.86 153.167 266.98C152.557 241.98 149.547 187.87 149.547 187.87H175.367Z" fill="#0078FF"/>
<path opacity="0.5" d="M175.367 187.87C175.367 187.87 176.367 242.8 175.577 265.2C174.747 288.5 166.577 364.8 166.577 364.8H154.167C154.167 364.8 153.707 289.86 153.167 266.98C152.557 241.98 149.547 187.87 149.547 187.87H175.367Z" fill="black"/>
<path opacity="0.2" d="M163.998 355.86C163.982 355.859 163.965 355.854 163.951 355.846C163.936 355.839 163.923 355.828 163.912 355.814C163.902 355.801 163.895 355.786 163.89 355.77C163.886 355.753 163.886 355.737 163.888 355.72C166.078 334.62 171.248 283.54 171.888 265.19C172.558 246.45 171.958 204.51 171.748 192.1C171.748 192.066 171.762 192.032 171.787 192.008C171.811 191.984 171.844 191.97 171.878 191.97C171.91 191.97 171.941 191.983 171.963 192.005C171.986 192.028 171.998 192.058 171.998 192.09C172.208 204.5 172.808 246.45 172.138 265.2C171.488 283.56 166.318 334.64 164.138 355.75C164.137 355.767 164.133 355.783 164.125 355.798C164.117 355.813 164.106 355.826 164.093 355.836C164.08 355.846 164.064 355.854 164.048 355.858C164.032 355.862 164.015 355.863 163.998 355.86Z" fill="#FAFAFA"/>
<path d="M119.849 357.53C119.909 357.53 117.399 362.28 117.399 362.28L102.609 359.08L103.849 354.63L119.849 357.53Z" fill="#263238"/>
<path d="M168.998 359.84C169.058 359.84 168.298 365.01 168.298 365.01H153.168L152.758 360.4L168.998 359.84Z" fill="#263238"/>
</svg>
