<svg width="432" height="432" viewBox="0 0 432 432" fill="none" xmlns="http://www.w3.org/2000/svg">
<path d="M410 348H22V349H410V348Z" fill="#EBEBEB"/>
<path d="M401.671 364.49H382.781V364.74H401.671V364.49Z" fill="#EBEBEB"/>
<path d="M288.521 362.75H259.051V363H288.521V362.75Z" fill="#EBEBEB"/>
<path d="M381.782 355.21H334.672V355.46H381.782V355.21Z" fill="#EBEBEB"/>
<path d="M29.4309 356.89H18.4609V357.14H29.4309V356.89Z" fill="#EBEBEB"/>
<path d="M76.8901 356.89H38.3301V357.14H76.8901V356.89Z" fill="#EBEBEB"/>
<path d="M191.15 361.11H137V361.36H191.15V361.11Z" fill="#EBEBEB"/>
<path d="M401.671 364.49H382.781V364.74H401.671V364.49Z" fill="#EBEBEB"/>
<path d="M288.521 362.75H259.051V363H288.521V362.75Z" fill="#EBEBEB"/>
<path d="M381.782 355.21H334.672V355.46H381.782V355.21Z" fill="#EBEBEB"/>
<path d="M29.4309 356.89H18.4609V357.14H29.4309V356.89Z" fill="#EBEBEB"/>
<path d="M76.8901 356.89H38.3301V357.14H76.8901V356.89Z" fill="#EBEBEB"/>
<path d="M191.15 361.11H137V361.36H191.15V361.11Z" fill="#EBEBEB"/>
<path d="M347.861 132.99H370.891V128.21H347.861V132.99Z" fill="#E6E6E6"/>
<path d="M98.1511 132.99L347.871 132.99V128.21L98.1511 128.21V132.99Z" fill="#F0F0F0"/>
<path d="M239.792 48.71H300.832L291.212 128.22H230.172L239.792 48.71Z" fill="#F5F5F5"/>
<path d="M250.901 59.13H287.201L280.111 117.79H243.801L250.901 59.13Z" fill="#FAFAFA"/>
<path d="M151.311 52.34H225.361L216.181 128.22H142.141L151.311 52.34Z" fill="#F5F5F5"/>
<path d="M161.911 62.28H212.351L205.581 118.27H155.141L161.911 62.28Z" fill="#FAFAFA"/>
<path d="M279.631 75.93H330.651L324.331 128.22H273.301L279.631 75.93Z" fill="#F0F0F0"/>
<path d="M286.932 82.78H321.692L317.022 121.36H282.262L286.932 82.78Z" fill="#FAFAFA"/>
<path d="M401.35 196.72H369.81C364.255 196.801 358.883 198.725 354.54 202.189C350.196 205.653 347.125 210.462 345.81 215.86L337.48 250.66L320.36 250.6H320.3C316.343 250.6 312.51 251.98 309.462 254.503C306.413 257.026 304.34 260.533 303.6 264.42L301.32 276.33C299.596 276.592 297.989 277.361 296.702 278.537C295.415 279.714 294.506 281.246 294.09 282.94H306.18L292 348.4H295.62L309.84 282.94H319.78L305.51 348.4H309.13L323.35 282.94H363L377.22 348.4H380.84L366.62 282.94H376.56L390.78 348.4H394.4L380.18 282.94H378.69C384.246 282.873 389.622 280.958 393.969 277.495C398.315 274.033 401.383 269.221 402.69 263.82L414.69 213.82C415.229 211.79 415.29 209.662 414.87 207.604C414.449 205.546 413.558 203.613 412.266 201.957C410.974 200.301 409.316 198.966 407.423 198.058C405.529 197.149 403.45 196.691 401.35 196.72ZM334.35 263.58C333.483 267.151 331.454 270.333 328.581 272.625C325.708 274.917 322.155 276.188 318.48 276.24H305.84L307.96 265.24C308.512 262.373 310.045 259.788 312.294 257.927C314.544 256.066 317.37 255.045 320.29 255.04L336.35 255.09L334.35 263.58Z" fill="#E6E6E6"/>
<path d="M159.781 340.28H194.211L194.211 188.11H159.781L159.781 340.28Z" fill="#F0F0F0"/>
<path d="M36.0513 348.4H187.611V340.28H36.0513V348.4Z" fill="#F0F0F0"/>
<path d="M159.792 188.11H29.4316V340.28H159.792V188.11Z" fill="#F5F5F5"/>
<path d="M146.261 203.88H42.9707V269.97H146.261V203.88Z" fill="#F0F0F0"/>
<path d="M146.261 282.5H42.9707V324.51H146.261V282.5Z" fill="#F0F0F0"/>
<path d="M67.8 206.5H121.42C122.845 206.5 124 205.345 124 203.92V203.32C124 201.895 122.845 200.74 121.42 200.74H67.8C66.3751 200.74 65.22 201.895 65.22 203.32V203.92C65.22 205.345 66.3751 206.5 67.8 206.5Z" fill="#F5F5F5"/>
<path d="M67.8 285.39H121.42C122.845 285.39 124 284.235 124 282.81V282.21C124 280.785 122.845 279.63 121.42 279.63H67.8C66.3751 279.63 65.22 280.785 65.22 282.21V282.81C65.22 284.235 66.3751 285.39 67.8 285.39Z" fill="#F5F5F5"/>
<path d="M295.261 196.72H263.721C258.166 196.801 252.795 198.725 248.451 202.189C244.107 205.653 241.036 210.462 239.721 215.86L231.391 250.66L214.271 250.6C210.312 250.598 206.477 251.977 203.427 254.5C200.376 257.023 198.302 260.531 197.561 264.42L195.281 276.33C193.558 276.594 191.951 277.362 190.664 278.539C189.377 279.715 188.468 281.247 188.051 282.94H200.151L185.871 348.4H189.481L203.701 282.94H213.701L199.431 348.4H203.001L217.221 282.94H256.881L271.101 348.4H274.711L260.491 282.94H270.491L284.701 348.4H288.311L274.091 282.94H272.601C278.158 282.873 283.533 280.958 287.88 277.495C292.226 274.033 295.295 269.221 296.601 263.82L308.601 213.82C309.138 211.79 309.198 209.663 308.776 207.606C308.355 205.549 307.464 203.617 306.172 201.961C304.881 200.306 303.224 198.971 301.331 198.062C299.438 197.153 297.361 196.693 295.261 196.72ZM228.261 263.58C227.391 267.151 225.359 270.332 222.485 272.624C219.61 274.915 216.057 276.187 212.381 276.24H199.761L201.881 265.24C202.432 262.372 203.963 259.786 206.213 257.924C208.463 256.063 211.291 255.043 214.211 255.04L230.281 255.09L228.261 263.58Z" fill="#E6E6E6"/>
<path d="M215.999 393.56C323.082 393.56 409.889 388.492 409.889 382.24C409.889 375.988 323.082 370.92 215.999 370.92C108.917 370.92 22.1094 375.988 22.1094 382.24C22.1094 388.492 108.917 393.56 215.999 393.56Z" fill="#F5F5F5"/>
<path d="M116.93 74C117.62 61.91 143.18 63.11 148.2 74.39C153.22 85.67 149.1 96.04 163.03 102.85C187.66 114.85 190.34 130.79 181.03 146.48C171.72 162.17 135.36 173.16 115.58 147.48C96.0697 122.13 125.73 116.48 110.38 104.55C96.9997 94.09 98.1397 75.46 116.93 74Z" fill="#263238"/>
<path d="M105.999 132.21C105.669 132.61 105.489 132.81 105.259 133.07C105.029 133.33 104.809 133.55 104.589 133.79C104.139 134.24 103.689 134.69 103.239 135.1C102.329 135.95 101.399 136.73 100.459 137.49C98.5695 138.97 96.5889 140.329 94.5288 141.56C92.4996 142.775 90.4066 143.88 88.2588 144.87C87.1788 145.35 86.1088 145.87 85.0188 146.27L83.3788 146.9L82.5588 147.21C82.0805 147.391 81.5891 147.534 81.0888 147.64C79.8494 147.911 78.5593 147.834 77.3611 147.417C76.1628 147.001 75.103 146.261 74.2988 145.28C73.2574 143.992 72.5069 142.495 72.0988 140.89C71.4642 138.46 71.1284 135.961 71.0988 133.45C71.0335 128.823 71.4254 124.2 72.2688 119.65L76.7488 120.02C76.8941 124.323 77.2613 128.615 77.8488 132.88C78.1078 134.81 78.5704 136.707 79.2288 138.54C79.4009 139.099 79.7024 139.609 80.1088 140.03C80.1788 140.03 80.1088 139.94 79.8488 139.81C79.6752 139.745 79.4935 139.705 79.3088 139.69C79.3088 139.69 79.3088 139.69 79.4288 139.62L80.1388 139.27L81.5688 138.59L84.3688 137.15C86.1988 136.15 88.0088 135.1 89.7288 133.95C91.4488 132.8 93.1288 131.62 94.7288 130.34C95.5188 129.71 96.2888 129.06 97.0088 128.34C97.3788 128.01 97.7188 127.67 98.0588 127.34L98.5488 126.86L98.9088 126.47L105.999 132.21Z" fill="#FFC3BD"/>
<path d="M106.199 118.21C102.529 117.31 93.1992 129.39 93.1992 129.39L98.8692 140.18C98.8692 140.18 114.539 131.33 113.949 126.46C113.329 121.38 111.549 119.52 106.199 118.21Z" fill="#0078FF"/>
<path opacity="0.2" d="M106.199 118.21C102.529 117.31 93.1992 129.39 93.1992 129.39L98.8692 140.18C98.8692 140.18 114.539 131.33 113.949 126.46C113.329 121.38 111.549 119.52 106.199 118.21Z" fill="black"/>
<path opacity="0.2" d="M103.77 122.39L104.67 136.52C101.55 138.65 98.8597 140.18 98.8597 140.18L97.6797 137.92L103.77 122.39Z" fill="black"/>
<path d="M76.0793 123L80.2093 113.8L71.4293 115.89C71.4293 115.89 69.9093 121.39 72.5893 123.89L76.0793 123Z" fill="#FFC3BD"/>
<path d="M79.6997 107.22L72.1597 107.85L71.4297 115.9L80.2097 113.81L79.6997 107.22Z" fill="#FFC3BD"/>
<path d="M114.33 368.58L105.48 368.93L103.91 348.37L112.76 348.03L114.33 368.58Z" fill="#FFC3BD"/>
<path d="M193.139 292.99L187.369 299.73L169.889 288.55L175.659 281.8L193.139 292.99Z" fill="#FFC3BD"/>
<path d="M185.43 299.35L190.72 290.89C190.808 290.742 190.947 290.632 191.111 290.58C191.276 290.528 191.453 290.539 191.61 290.61L198.9 293.83C199.074 293.918 199.229 294.041 199.354 294.191C199.479 294.341 199.572 294.515 199.628 294.702C199.683 294.89 199.699 295.086 199.676 295.28C199.652 295.474 199.589 295.661 199.49 295.83C197.59 298.75 196.49 300.06 194.21 303.78C192.78 306.07 190.46 310.78 188.48 313.91C186.5 317.04 183.28 315.28 183.82 313.79C186.24 307.1 185.54 303.89 185.11 300.86C185.04 300.335 185.153 299.802 185.43 299.35Z" fill="#263238"/>
<path d="M105.189 368.41L114.789 365.72C114.954 365.669 115.132 365.68 115.289 365.752C115.446 365.824 115.57 365.952 115.639 366.11L118.859 373.4C118.932 373.59 118.963 373.793 118.951 373.996C118.938 374.198 118.883 374.396 118.789 374.576C118.694 374.756 118.562 374.913 118.402 375.038C118.242 375.163 118.057 375.252 117.859 375.3C114.499 376.18 112.859 376.44 108.609 377.62C106.009 378.35 98.4191 381.77 94.6991 382.07C90.9791 382.37 90.4991 378.7 92.0191 378.25C96.9135 376.804 101.119 373.636 103.859 369.33C104.178 368.874 104.65 368.547 105.189 368.41Z" fill="#263238"/>
<g opacity="0.2">
<path opacity="0.2" d="M103.91 348.38L104.72 358.98L113.57 358.63L112.76 348.03L103.91 348.38Z" fill="black"/>
<path opacity="0.2" d="M175.661 281.8L169.891 288.55L178.911 294.31L184.681 287.56L175.661 281.8Z" fill="black"/>
</g>
<path d="M101.569 121.9C100.709 126.9 99.8885 139.6 103.569 169.12L139.569 171.34C139.849 157.54 140.569 146.42 148.039 119.75C148.225 119.092 148.262 118.401 148.146 117.727C148.031 117.053 147.765 116.413 147.37 115.855C146.975 115.297 146.46 114.834 145.863 114.501C145.265 114.168 144.601 113.973 143.919 113.93C141.179 113.77 137.729 113.66 134.209 113.81C128.664 113.931 123.134 114.432 117.659 115.31C112.989 116.15 107.879 117.45 104.909 118.24C104.059 118.464 103.292 118.929 102.699 119.578C102.107 120.227 101.714 121.033 101.569 121.9Z" fill="#0078FF"/>
<path opacity="0.2" d="M101.569 121.9C100.709 126.9 99.8885 139.6 103.569 169.12L139.569 171.34C139.849 157.54 140.569 146.42 148.039 119.75C148.225 119.092 148.262 118.401 148.146 117.727C148.031 117.053 147.765 116.413 147.37 115.855C146.975 115.297 146.46 114.834 145.863 114.501C145.265 114.168 144.601 113.973 143.919 113.93C141.179 113.77 137.729 113.66 134.209 113.81C128.664 113.931 123.134 114.432 117.659 115.31C112.989 116.15 107.879 117.45 104.909 118.24C104.059 118.464 103.292 118.929 102.699 119.578C102.107 120.227 101.714 121.033 101.569 121.9Z" fill="black"/>
<path d="M103.568 169.12C103.568 169.12 92.3684 236.94 91.2784 263.99C90.1484 292.13 102.808 356.13 102.808 356.13H114.808C114.808 356.13 110.428 295.03 113.198 267.5C116.198 237.5 129.928 170.74 129.928 170.74L103.568 169.12Z" fill="#263238"/>
<path d="M115.849 356.56H101.769L100.729 352.07L116.499 351.52L115.849 356.56Z" fill="#0078FF"/>
<path opacity="0.2" d="M118.048 187.06C108.108 204.29 113.168 237.16 115.548 249.42C118.268 231.42 122.338 209.42 125.458 193.27C124.678 184 122.628 179.11 118.048 187.06Z" fill="black"/>
<path d="M113.08 169.7C113.08 169.7 118.08 250.94 124.28 262.18C134.15 280 176 294.61 176 294.61L183.86 285.41C183.86 285.41 157.68 263.64 143.86 251.27C140.57 228.8 152.2 193.34 139.63 171.34L113.08 169.7Z" fill="#263238"/>
<path d="M140.229 169.26L140.949 172.54C141.059 172.8 140.749 173.03 140.329 173.01L103.329 170.72C102.999 170.72 102.739 170.52 102.739 170.32L102.609 167.08C102.609 166.85 102.889 166.68 103.249 166.7L139.659 169C139.768 168.994 139.877 169.014 139.977 169.059C140.076 169.105 140.163 169.174 140.229 169.26Z" fill="#0078FF"/>
<path d="M135.08 173L136.08 173.06C136.27 173.06 136.43 172.98 136.42 172.86L136.22 168.65C136.22 168.52 136.05 168.41 135.86 168.4L134.86 168.34C134.67 168.34 134.51 168.42 134.52 168.54L134.72 172.76C134.72 172.91 134.89 173 135.08 173Z" fill="#263238"/>
<path d="M106 171.24L107 171.3C107.2 171.3 107.35 171.22 107.35 171.1L107.15 166.88C107.15 166.76 106.98 166.65 106.78 166.64L105.78 166.58C105.58 166.58 105.43 166.66 105.44 166.78L105.63 170.99C105.66 171.12 105.82 171.23 106 171.24Z" fill="#263238"/>
<path d="M120.549 172.14L121.549 172.2C121.739 172.2 121.899 172.12 121.889 171.99L121.689 167.78C121.689 167.66 121.519 167.55 121.329 167.53L120.329 167.47C120.139 167.47 119.979 167.55 119.989 167.68L120.189 171.89C120.189 172 120.359 172.12 120.549 172.14Z" fill="#263238"/>
<path d="M184.81 284.37L175.05 295.79L170.43 293.94L181.3 279.99L184.81 284.37Z" fill="#0078FF"/>
<path d="M147.999 122.57C149.749 126.97 151.269 131.34 152.659 135.82C154.049 140.3 155.319 144.82 156.339 149.44C156.469 150.02 156.589 150.61 156.709 151.19L156.879 152.06L156.969 152.5L157.039 152.92C157.074 153.102 157.097 153.285 157.109 153.47C157.186 154.454 157.01 155.442 156.599 156.34C156.146 157.29 155.436 158.094 154.549 158.66C153.951 159.034 153.296 159.308 152.609 159.47C152.122 159.584 151.627 159.657 151.129 159.69C149.667 159.76 148.202 159.645 146.769 159.35C145.535 159.111 144.313 158.811 143.109 158.45C138.541 157.043 134.112 155.219 129.879 153L131.479 148.8C135.869 149.8 140.359 150.87 144.639 151.54C145.709 151.71 146.759 151.83 147.759 151.9C148.598 151.99 149.444 151.973 150.279 151.85C150.529 151.85 150.659 151.64 150.139 151.91C149.734 152.162 149.41 152.527 149.209 152.96C149.034 153.329 148.945 153.732 148.949 154.14C148.949 154.22 148.949 154.22 148.949 154.26C148.949 154.3 148.949 154.37 148.949 154.26L148.839 153.86L148.619 153.05C148.469 152.52 148.339 151.98 148.169 151.45C146.939 147.16 145.539 142.87 144.079 138.58C142.619 134.29 141.079 130.01 139.519 125.81L147.999 122.57Z" fill="#FFC3BD"/>
<path d="M146.769 114.35C150.299 115.67 153.869 128.35 153.869 128.35L139.259 137.48C139.259 137.48 134.619 125.24 136.419 120.68C138.299 115.92 142.729 112.84 146.769 114.35Z" fill="#0078FF"/>
<path opacity="0.2" d="M146.769 114.35C150.299 115.67 153.869 128.35 153.869 128.35L139.259 137.48C139.259 137.48 134.619 125.24 136.419 120.68C138.299 115.92 142.729 112.84 146.769 114.35Z" fill="black"/>
<path d="M183.999 303.9H183.899C183.701 303.948 183.493 303.945 183.296 303.893C183.099 303.84 182.918 303.74 182.769 303.6C182.665 303.525 182.583 303.423 182.534 303.305C182.484 303.186 182.469 303.057 182.489 302.93C182.639 301.81 185.539 300.44 185.869 300.29C185.903 300.266 185.943 300.254 185.984 300.254C186.025 300.254 186.065 300.266 186.099 300.29C186.13 300.316 186.153 300.351 186.164 300.391C186.174 300.43 186.173 300.472 186.159 300.51C185.739 301.67 184.999 303.51 183.999 303.9ZM185.589 300.9C184.439 301.47 182.979 302.4 182.899 302.99C182.894 303.047 182.904 303.103 182.928 303.155C182.953 303.206 182.991 303.249 183.039 303.28C183.134 303.375 183.252 303.444 183.382 303.481C183.511 303.518 183.648 303.521 183.779 303.49C184.319 303.37 184.999 302.41 185.539 300.94L185.589 300.9Z" fill="#0078FF"/>
<path d="M185.71 300.84C184.71 301.23 182.6 301.45 181.93 300.84C181.81 300.724 181.733 300.571 181.711 300.406C181.69 300.241 181.724 300.073 181.81 299.93C181.875 299.783 181.973 299.653 182.096 299.549C182.219 299.445 182.364 299.37 182.52 299.33C183.76 298.96 185.93 300.33 186.02 300.33C186.052 300.35 186.078 300.378 186.096 300.411C186.113 300.445 186.122 300.482 186.12 300.52C186.119 300.557 186.108 300.593 186.089 300.625C186.069 300.656 186.042 300.682 186.01 300.7L185.71 300.84ZM182.58 299.73C182.494 299.761 182.415 299.809 182.349 299.871C182.282 299.933 182.228 300.007 182.19 300.09C182.08 300.34 182.19 300.45 182.19 300.52C182.64 300.94 184.4 300.85 185.42 300.52C184.67 300.11 183.35 299.52 182.61 299.73H182.58Z" fill="#0078FF"/>
<path d="M102.4 370.8C101.688 371.07 100.904 371.088 100.18 370.85C100.009 370.767 99.8603 370.643 99.7471 370.49C99.6339 370.337 99.5595 370.158 99.5302 369.97C99.5082 369.855 99.515 369.737 99.5499 369.625C99.5848 369.513 99.6467 369.412 99.7302 369.33C100.61 368.47 104.51 369.25 104.95 369.33C104.992 369.337 105.03 369.357 105.059 369.388C105.088 369.418 105.106 369.458 105.11 369.5C105.119 369.544 105.113 369.589 105.093 369.629C105.073 369.669 105.04 369.701 105 369.72C104.169 370.159 103.298 370.521 102.4 370.8ZM100.4 369.46C100.266 369.487 100.142 369.549 100.04 369.64C100.006 369.671 99.9809 369.71 99.9685 369.755C99.9561 369.799 99.9567 369.846 99.9702 369.89C99.9871 370.014 100.033 370.132 100.104 370.234C100.176 370.337 100.27 370.421 100.38 370.48C101.03 370.8 102.46 370.48 104.27 369.64C102.993 369.358 101.678 369.297 100.38 369.46H100.4Z" fill="#0078FF"/>
<path d="M104.999 369.75H104.919C103.769 369.57 101.229 368.3 101.119 367.28C101.119 367.04 101.179 366.71 101.719 366.5C101.911 366.416 102.119 366.372 102.329 366.372C102.539 366.372 102.747 366.416 102.939 366.5C104.269 367.1 105.109 369.34 105.139 369.44C105.159 369.47 105.169 369.504 105.169 369.54C105.169 369.576 105.159 369.61 105.139 369.64C105.127 369.668 105.107 369.693 105.083 369.712C105.058 369.732 105.03 369.745 104.999 369.75ZM101.999 366.86H101.879C101.519 367 101.529 367.16 101.539 367.21C101.609 367.81 103.379 368.88 104.599 369.21C104.244 368.263 103.605 367.449 102.769 366.88C102.523 366.78 102.25 366.773 101.999 366.86Z" fill="#0078FF"/>
<path d="M134.209 113.45C128.662 113.57 123.129 114.071 117.649 114.95C115.649 115.31 113.579 115.75 111.649 116.2C110.159 117.79 107.569 125.83 110.479 131.27C112.399 128.05 115.629 125.27 117.779 124.95C120.139 125.59 122.469 129.16 123.039 132.31C126.899 131.61 135.249 122.58 140.039 115.31L141.259 113.43C138.999 113.36 136.639 113.35 134.209 113.45Z" fill="#0078FF"/>
<path d="M133.7 95.63C132.33 100.96 130.7 110.63 134.2 113.81C134.2 113.81 130.9 119.18 122.52 120.15C113.3 121.23 117.65 115.31 117.65 115.31C123.65 113.38 123.79 109.06 123.01 105.08L133.7 95.63Z" fill="#FFC3BD"/>
<path d="M117.65 115.31C117.65 115.31 113.96 119.2 117.47 126.31C124.89 122.86 132 118.77 134.2 113.83L117.65 115.31Z" fill="#FFC3BD"/>
<path opacity="0.2" d="M129.34 99.48L123.01 105.08C123.208 106.014 123.319 106.965 123.34 107.92C125.63 107.39 129.41 105.11 129.8 102.76C129.868 101.647 129.712 100.531 129.34 99.48Z" fill="black"/>
<path d="M140.719 89.19C137.579 97.42 136.419 100.97 130.839 103.95C122.429 108.44 113.009 102.78 113.629 93.78C114.189 85.67 119.229 73.57 128.489 72.78C130.534 72.5936 132.593 72.9351 134.468 73.772C136.343 74.6088 137.973 75.9129 139.2 77.5596C140.427 79.2062 141.211 81.1402 141.477 83.1766C141.743 85.2129 141.482 87.2835 140.719 89.19Z" fill="#FFC3BD"/>
<path d="M121.999 72.76C125.759 71.89 126.999 76.18 120.419 77.69C113.839 79.2 118.939 73.48 121.999 72.76Z" fill="#263238"/>
<path d="M125.929 70.49C120.559 72.49 122.929 78.66 129.019 80.42C135.109 82.18 133.079 92.51 138.539 94.78C143.999 97.05 146.889 79.68 142.179 74.78C137.469 69.88 129.539 69.13 125.929 70.49Z" fill="#263238"/>
<path d="M120.909 86.79C119.814 88.1585 118.535 89.3698 117.109 90.39C117.38 90.7467 117.725 91.0405 118.121 91.2511C118.516 91.4617 118.952 91.5842 119.399 91.61L120.909 86.79Z" fill="#ED847E"/>
<path d="M122.289 95.45C121.951 95.3939 121.616 95.3137 121.289 95.21C121.236 95.1938 121.192 95.1575 121.166 95.1088C121.14 95.0601 121.134 95.0031 121.149 94.95C121.169 94.8978 121.208 94.8548 121.258 94.829C121.307 94.8032 121.365 94.7965 121.419 94.81C122.262 95.0947 123.16 95.177 124.041 95.0502C124.922 94.9234 125.761 94.591 126.489 94.08C126.509 94.0601 126.532 94.0442 126.558 94.0334C126.584 94.0226 126.611 94.017 126.639 94.017C126.667 94.017 126.695 94.0226 126.721 94.0334C126.746 94.0442 126.77 94.0601 126.789 94.08C126.827 94.1207 126.848 94.1743 126.848 94.23C126.848 94.2857 126.827 94.3393 126.789 94.38C126.15 94.8533 125.422 95.1922 124.649 95.3761C123.875 95.56 123.073 95.5851 122.289 95.45Z" fill="#263238"/>
<path d="M140.92 96.69C139.868 98.0314 138.33 98.9044 136.64 99.12C134.4 99.38 133.64 97.29 134.54 95.36C135.37 93.62 137.54 91.36 139.64 92.02C140.097 92.1667 140.512 92.4254 140.844 92.7726C141.177 93.1198 141.418 93.5445 141.545 94.0082C141.672 94.472 141.681 94.9601 141.572 95.4284C141.463 95.8967 141.239 96.3303 140.92 96.69Z" fill="#FFC3BD"/>
<path d="M131.359 87C131.275 86.9758 131.2 86.9265 131.144 86.8585C131.089 86.7906 131.056 86.7074 131.049 86.62C130.929 84.67 128.799 83.34 128.779 83.33C128.726 83.3045 128.679 83.268 128.641 83.2231C128.602 83.1781 128.574 83.1257 128.558 83.0691C128.541 83.0126 128.537 82.9532 128.545 82.8948C128.553 82.8365 128.573 82.7804 128.604 82.7304C128.635 82.6803 128.676 82.6373 128.725 82.6042C128.774 82.5711 128.829 82.5486 128.887 82.5382C128.945 82.5278 129.004 82.5297 129.062 82.5438C129.119 82.5579 129.172 82.5839 129.219 82.62C129.329 82.68 131.739 84.19 131.879 86.56C131.884 86.6155 131.878 86.6715 131.862 86.7246C131.845 86.7777 131.817 86.8268 131.781 86.8689C131.744 86.911 131.699 86.9453 131.649 86.9695C131.599 86.9938 131.544 87.0076 131.489 87.01L131.359 87Z" fill="#263238"/>
<path d="M126.76 88C126.53 88.62 126.01 89 125.6 88.86C125.19 88.72 125.04 88.08 125.27 87.45C125.5 86.82 126.02 86.45 126.43 86.59C126.84 86.73 127 87.36 126.76 88Z" fill="#263238"/>
<path d="M118.999 85.26C118.769 85.88 118.249 86.26 117.839 86.12C117.429 85.98 117.279 85.34 117.519 84.71C117.759 84.08 118.269 83.71 118.679 83.85C119.089 83.99 119.239 84.63 118.999 85.26Z" fill="#263238"/>
<path d="M118.85 84L117.51 83C117.51 83 117.85 84.42 118.85 84Z" fill="#263238"/>
<path d="M126.6 86.68L125.26 85.68C125.26 85.68 125.6 87.15 126.6 86.68Z" fill="#263238"/>
<path d="M117.23 80C117.156 80.0004 117.084 79.9811 117.021 79.9442C116.958 79.9072 116.905 79.854 116.87 79.79C116.816 79.6931 116.802 79.5788 116.832 79.472C116.862 79.3653 116.933 79.2747 117.03 79.22C117.6 78.8723 118.246 78.6671 118.913 78.6218C119.579 78.5766 120.247 78.6926 120.86 78.96C120.959 79.0104 121.034 79.0983 121.069 79.2042C121.104 79.3102 121.095 79.4256 121.045 79.525C120.994 79.6245 120.906 79.6998 120.8 79.7345C120.694 79.7692 120.579 79.7604 120.48 79.71C119.996 79.5101 119.472 79.4276 118.951 79.4693C118.429 79.5111 117.925 79.6758 117.48 79.95C117.406 79.9985 117.316 80.0164 117.23 80Z" fill="#263238"/>
<path d="M132.65 149.22L126.6 141.77L124.91 150.64C124.91 150.64 129.3 154.27 132.71 152.88L132.65 149.22Z" fill="#FFC3BD"/>
<path d="M121.229 140.54L118.309 147.6L124.909 150.64L126.599 141.77L121.229 140.54Z" fill="#FFC3BD"/>
<path d="M375.946 205.352L375 205.443L376.23 218.244L377.176 218.153L375.946 205.352Z" fill="#0078FF"/>
<path d="M377.623 222.608L376.678 222.699L377.174 227.865L378.12 227.774L377.623 222.608Z" fill="#0078FF"/>
<path d="M149.353 333.482L382.777 311.047L369.422 172.087L135.997 194.522L149.353 333.482Z" fill="#0078FF"/>
<path opacity="0.1" d="M149.353 333.482L382.777 311.047L369.422 172.087L135.997 194.522L149.353 333.482Z" fill="black"/>
<path opacity="0.1" d="M260 259.1L136 194.52L369.42 172.08L260 259.1Z" fill="#263238"/>
<path d="M231.75 118.38L136 194.52L369.42 172.08L260.92 115.58C256.308 113.177 251.097 112.162 245.92 112.659C240.743 113.156 235.821 115.143 231.75 118.38Z" fill="#0078FF"/>
<path opacity="0.2" d="M360.748 172.92L257.658 119.23C254.18 117.416 250.25 116.65 246.346 117.025C242.441 117.399 238.728 118.898 235.658 121.34L144.658 193.68L360.748 172.92Z" fill="#263238"/>
<path d="M317.64 171.21L349.23 179.65L349.99 187.53L260 259.1L158.02 205.99L156.5 190.23L317.64 171.21Z" fill="white"/>
<path d="M317.639 171.21L323.609 187.75L349.229 179.65" fill="#E0E0E0"/>
<path d="M317.639 171.21L320.709 184.85L349.229 179.65" fill="#F0F0F0"/>
<path d="M278.649 244.24L382.779 311.05L149.359 333.48L238.849 248.06C244.096 243.055 250.871 239.958 258.089 239.265C265.306 238.572 272.547 240.324 278.649 244.24Z" fill="#0078FF"/>
<g clip-path="url(#clip0)">
<path d="M253.844 232.435C265.498 231.049 273.821 220.477 272.435 208.823C271.049 197.17 260.478 188.846 248.824 190.232C237.17 191.618 228.846 202.19 230.233 213.844C231.619 225.497 242.19 233.821 253.844 232.435Z" fill="#0078FF"/>
<path d="M260.455 206.16L250.385 218.949C250.095 219.318 249.669 219.556 249.203 219.612C248.737 219.667 248.268 219.535 247.899 219.245L241.504 214.21C241.317 214.067 241.16 213.889 241.042 213.686C240.924 213.482 240.848 213.257 240.819 213.024C240.789 212.791 240.806 212.554 240.868 212.327C240.931 212.101 241.038 211.889 241.184 211.704C241.329 211.519 241.51 211.365 241.716 211.251C241.921 211.137 242.148 211.065 242.381 211.039C242.615 211.013 242.851 211.035 243.077 211.101C243.302 211.168 243.512 211.279 243.695 211.427L248.698 215.367L257.673 203.969C257.815 203.782 257.994 203.625 258.197 203.507C258.401 203.389 258.626 203.313 258.859 203.283C259.092 203.254 259.329 203.271 259.556 203.333C259.782 203.396 259.994 203.503 260.179 203.649C260.364 203.794 260.517 203.975 260.632 204.181C260.746 204.386 260.818 204.612 260.844 204.846C260.869 205.08 260.848 205.316 260.782 205.542C260.715 205.767 260.604 205.977 260.455 206.16Z" fill="#FAFAFA"/>
</g>
<defs>
<clipPath id="clip0">
<rect width="51" height="51" fill="white" transform="translate(223 189.024) rotate(-6.78349)"/>
</clipPath>
</defs>
</svg>
