<svg width="100%" viewBox="0 0 432 432" fill="none" xmlns="http://www.w3.org/2000/svg">
<path d="M410 348H22V349H410V348Z" fill="#EBEBEB"/>
<path d="M401.671 364.49H382.781V364.74H401.671V364.49Z" fill="#EBEBEB"/>
<path d="M288.521 362.75H259.051V363H288.521V362.75Z" fill="#EBEBEB"/>
<path d="M381.782 355.21H334.672V355.46H381.782V355.21Z" fill="#EBEBEB"/>
<path d="M29.4309 356.89H18.4609V357.14H29.4309V356.89Z" fill="#EBEBEB"/>
<path d="M76.8901 356.89H38.3301V357.14H76.8901V356.89Z" fill="#EBEBEB"/>
<path d="M191.15 361.11H137V361.36H191.15V361.11Z" fill="#EBEBEB"/>
<path d="M401.671 364.49H382.781V364.74H401.671V364.49Z" fill="#EBEBEB"/>
<path d="M288.521 362.75H259.051V363H288.521V362.75Z" fill="#EBEBEB"/>
<path d="M381.782 355.21H334.672V355.46H381.782V355.21Z" fill="#EBEBEB"/>
<path d="M29.4309 356.89H18.4609V357.14H29.4309V356.89Z" fill="#EBEBEB"/>
<path d="M76.8901 356.89H38.3301V357.14H76.8901V356.89Z" fill="#EBEBEB"/>
<path d="M191.15 361.11H137V361.36H191.15V361.11Z" fill="#EBEBEB"/>
<path d="M347.861 132.99H370.891V128.21H347.861V132.99Z" fill="#E6E6E6"/>
<path d="M98.1511 132.99L347.871 132.99V128.21L98.1511 128.21V132.99Z" fill="#F0F0F0"/>
<path d="M239.792 48.71H300.832L291.212 128.22H230.172L239.792 48.71Z" fill="#F5F5F5"/>
<path d="M250.901 59.13H287.201L280.111 117.79H243.801L250.901 59.13Z" fill="#FAFAFA"/>
<path d="M151.311 52.34H225.361L216.181 128.22H142.141L151.311 52.34Z" fill="#F5F5F5"/>
<path d="M161.911 62.28H212.351L205.581 118.27H155.141L161.911 62.28Z" fill="#FAFAFA"/>
<path d="M279.631 75.93H330.651L324.331 128.22H273.301L279.631 75.93Z" fill="#F0F0F0"/>
<path d="M286.932 82.78H321.692L317.022 121.36H282.262L286.932 82.78Z" fill="#FAFAFA"/>
<path d="M401.35 196.72H369.81C364.255 196.801 358.883 198.725 354.54 202.189C350.196 205.653 347.125 210.462 345.81 215.86L337.48 250.66L320.36 250.6H320.3C316.343 250.6 312.51 251.98 309.462 254.503C306.413 257.026 304.34 260.533 303.6 264.42L301.32 276.33C299.596 276.592 297.989 277.361 296.702 278.537C295.415 279.714 294.506 281.246 294.09 282.94H306.18L292 348.4H295.62L309.84 282.94H319.78L305.51 348.4H309.13L323.35 282.94H363L377.22 348.4H380.84L366.62 282.94H376.56L390.78 348.4H394.4L380.18 282.94H378.69C384.246 282.873 389.622 280.958 393.969 277.495C398.315 274.033 401.383 269.221 402.69 263.82L414.69 213.82C415.229 211.79 415.29 209.662 414.87 207.604C414.449 205.546 413.558 203.613 412.266 201.957C410.974 200.301 409.316 198.966 407.423 198.058C405.529 197.149 403.45 196.691 401.35 196.72ZM334.35 263.58C333.483 267.151 331.454 270.333 328.581 272.625C325.708 274.917 322.155 276.188 318.48 276.24H305.84L307.96 265.24C308.512 262.373 310.045 259.788 312.294 257.927C314.544 256.066 317.37 255.045 320.29 255.04L336.35 255.09L334.35 263.58Z" fill="#E6E6E6"/>
<path d="M159.781 340.28H194.211L194.211 188.11H159.781L159.781 340.28Z" fill="#F0F0F0"/>
<path d="M36.0513 348.4H187.611V340.28H36.0513V348.4Z" fill="#F0F0F0"/>
<path d="M159.792 188.11H29.4316V340.28H159.792V188.11Z" fill="#F5F5F5"/>
<path d="M146.261 203.88H42.9707V269.97H146.261V203.88Z" fill="#F0F0F0"/>
<path d="M146.261 282.5H42.9707V324.51H146.261V282.5Z" fill="#F0F0F0"/>
<path d="M67.8 206.5H121.42C122.845 206.5 124 205.345 124 203.92V203.32C124 201.895 122.845 200.74 121.42 200.74H67.8C66.3751 200.74 65.22 201.895 65.22 203.32V203.92C65.22 205.345 66.3751 206.5 67.8 206.5Z" fill="#F5F5F5"/>
<path d="M67.8 285.39H121.42C122.845 285.39 124 284.235 124 282.81V282.21C124 280.785 122.845 279.63 121.42 279.63H67.8C66.3751 279.63 65.22 280.785 65.22 282.21V282.81C65.22 284.235 66.3751 285.39 67.8 285.39Z" fill="#F5F5F5"/>
<path d="M295.261 196.72H263.721C258.166 196.801 252.795 198.725 248.451 202.189C244.107 205.653 241.036 210.462 239.721 215.86L231.391 250.66L214.271 250.6C210.312 250.598 206.477 251.977 203.427 254.5C200.376 257.023 198.302 260.531 197.561 264.42L195.281 276.33C193.558 276.594 191.951 277.362 190.664 278.539C189.377 279.715 188.468 281.247 188.051 282.94H200.151L185.871 348.4H189.481L203.701 282.94H213.701L199.431 348.4H203.001L217.221 282.94H256.881L271.101 348.4H274.711L260.491 282.94H270.491L284.701 348.4H288.311L274.091 282.94H272.601C278.158 282.873 283.533 280.958 287.88 277.495C292.226 274.033 295.295 269.221 296.601 263.82L308.601 213.82C309.138 211.79 309.198 209.663 308.776 207.606C308.355 205.549 307.464 203.617 306.172 201.961C304.881 200.306 303.224 198.971 301.331 198.062C299.438 197.153 297.361 196.693 295.261 196.72ZM228.261 263.58C227.391 267.151 225.359 270.332 222.485 272.624C219.61 274.915 216.057 276.187 212.381 276.24H199.761L201.881 265.24C202.432 262.372 203.963 259.786 206.213 257.924C208.463 256.063 211.291 255.043 214.211 255.04L230.281 255.09L228.261 263.58Z" fill="#E6E6E6"/>
<path d="M215.999 393.56C323.082 393.56 409.889 388.492 409.889 382.24C409.889 375.988 323.082 370.92 215.999 370.92C108.917 370.92 22.1094 375.988 22.1094 382.24C22.1094 388.492 108.917 393.56 215.999 393.56Z" fill="#F5F5F5"/>
<path d="M318.93 74C319.62 61.91 345.18 63.11 350.2 74.39C355.22 85.67 351.1 96.04 365.03 102.85C389.66 114.85 392.34 130.79 383.03 146.48C373.72 162.17 337.36 173.16 317.58 147.48C298.07 122.13 327.73 116.48 312.38 104.55C299 94.09 300.14 75.46 318.93 74Z" fill="#263238"/>
<path d="M307.999 132.21C307.669 132.61 307.489 132.81 307.259 133.07C307.029 133.33 306.809 133.55 306.589 133.79C306.139 134.24 305.689 134.69 305.239 135.1C304.329 135.95 303.399 136.73 302.459 137.49C300.57 138.97 298.589 140.329 296.529 141.56C294.5 142.775 292.407 143.88 290.259 144.87C289.179 145.35 288.109 145.87 287.019 146.27L285.379 146.9L284.559 147.21C284.081 147.391 283.589 147.534 283.089 147.64C281.849 147.911 280.559 147.834 279.361 147.417C278.163 147.001 277.103 146.261 276.299 145.28C275.257 143.992 274.507 142.495 274.099 140.89C273.464 138.46 273.128 135.961 273.099 133.45C273.033 128.823 273.425 124.2 274.269 119.65L278.749 120.02C278.894 124.323 279.261 128.615 279.849 132.88C280.108 134.81 280.57 136.707 281.229 138.54C281.401 139.099 281.702 139.609 282.109 140.03C282.179 140.03 282.109 139.94 281.849 139.81C281.675 139.745 281.493 139.705 281.309 139.69C281.309 139.69 281.309 139.69 281.429 139.62L282.139 139.27L283.569 138.59L286.369 137.15C288.199 136.15 290.009 135.1 291.729 133.95C293.449 132.8 295.129 131.62 296.729 130.34C297.519 129.71 298.289 129.06 299.009 128.34C299.379 128.01 299.719 127.67 300.059 127.34L300.549 126.86L300.909 126.47L307.999 132.21Z" fill="#FFC3BD"/>
<path d="M308.199 118.21C304.529 117.31 295.199 129.39 295.199 129.39L300.869 140.18C300.869 140.18 316.539 131.33 315.949 126.46C315.329 121.38 313.549 119.52 308.199 118.21Z" fill="#0078FF"/>
<path opacity="0.2" d="M308.199 118.21C304.529 117.31 295.199 129.39 295.199 129.39L300.869 140.18C300.869 140.18 316.539 131.33 315.949 126.46C315.329 121.38 313.549 119.52 308.199 118.21Z" fill="black"/>
<path opacity="0.2" d="M305.77 122.39L306.67 136.52C303.55 138.65 300.86 140.18 300.86 140.18L299.68 137.92L305.77 122.39Z" fill="black"/>
<path d="M278.079 123L282.209 113.8L273.429 115.89C273.429 115.89 271.909 121.39 274.589 123.89L278.079 123Z" fill="#FFC3BD"/>
<path d="M281.7 107.22L274.16 107.85L273.43 115.9L282.21 113.81L281.7 107.22Z" fill="#FFC3BD"/>
<path d="M316.33 368.58L307.48 368.93L305.91 348.37L314.76 348.03L316.33 368.58Z" fill="#FFC3BD"/>
<path d="M395.139 292.99L389.369 299.73L371.889 288.55L377.659 281.8L395.139 292.99Z" fill="#FFC3BD"/>
<path d="M387.43 299.35L392.72 290.89C392.808 290.742 392.947 290.632 393.111 290.58C393.276 290.528 393.453 290.539 393.61 290.61L400.9 293.83C401.074 293.918 401.229 294.041 401.354 294.191C401.479 294.341 401.572 294.515 401.628 294.702C401.683 294.89 401.699 295.086 401.676 295.28C401.652 295.474 401.589 295.661 401.49 295.83C399.59 298.75 398.49 300.06 396.21 303.78C394.78 306.07 392.46 310.78 390.48 313.91C388.5 317.04 385.28 315.28 385.82 313.79C388.24 307.1 387.54 303.89 387.11 300.86C387.04 300.335 387.153 299.802 387.43 299.35Z" fill="#263238"/>
<path d="M307.189 368.41L316.789 365.72C316.954 365.669 317.132 365.68 317.289 365.752C317.446 365.824 317.57 365.952 317.639 366.11L320.859 373.4C320.932 373.59 320.963 373.793 320.951 373.996C320.938 374.198 320.883 374.396 320.789 374.576C320.694 374.756 320.562 374.913 320.402 375.038C320.242 375.163 320.057 375.252 319.859 375.3C316.499 376.18 314.859 376.44 310.609 377.62C308.009 378.35 300.419 381.77 296.699 382.07C292.979 382.37 292.499 378.7 294.019 378.25C298.913 376.804 303.119 373.636 305.859 369.33C306.178 368.874 306.65 368.547 307.189 368.41Z" fill="#263238"/>
<g opacity="0.2">
<path opacity="0.2" d="M305.91 348.38L306.72 358.98L315.57 358.63L314.76 348.03L305.91 348.38Z" fill="black"/>
<path opacity="0.2" d="M377.661 281.8L371.891 288.55L380.911 294.31L386.681 287.56L377.661 281.8Z" fill="black"/>
</g>
<path d="M303.569 121.9C302.709 126.9 301.889 139.6 305.569 169.12L341.569 171.34C341.849 157.54 342.569 146.42 350.039 119.75C350.225 119.092 350.262 118.401 350.146 117.727C350.031 117.053 349.765 116.413 349.37 115.855C348.975 115.297 348.46 114.834 347.863 114.501C347.265 114.168 346.601 113.973 345.919 113.93C343.179 113.77 339.729 113.66 336.209 113.81C330.664 113.931 325.134 114.432 319.659 115.31C314.989 116.15 309.879 117.45 306.909 118.24C306.059 118.464 305.292 118.929 304.699 119.578C304.107 120.227 303.714 121.033 303.569 121.9Z" fill="#0078FF"/>
<path opacity="0.2" d="M303.569 121.9C302.709 126.9 301.889 139.6 305.569 169.12L341.569 171.34C341.849 157.54 342.569 146.42 350.039 119.75C350.225 119.092 350.262 118.401 350.146 117.727C350.031 117.053 349.765 116.413 349.37 115.855C348.975 115.297 348.46 114.834 347.863 114.501C347.265 114.168 346.601 113.973 345.919 113.93C343.179 113.77 339.729 113.66 336.209 113.81C330.664 113.931 325.134 114.432 319.659 115.31C314.989 116.15 309.879 117.45 306.909 118.24C306.059 118.464 305.292 118.929 304.699 119.578C304.107 120.227 303.714 121.033 303.569 121.9Z" fill="black"/>
<path d="M305.568 169.12C305.568 169.12 294.368 236.94 293.278 263.99C292.148 292.13 304.808 356.13 304.808 356.13H316.808C316.808 356.13 312.428 295.03 315.198 267.5C318.198 237.5 331.928 170.74 331.928 170.74L305.568 169.12Z" fill="#263238"/>
<path d="M317.849 356.56H303.769L302.729 352.07L318.499 351.52L317.849 356.56Z" fill="#0078FF"/>
<path opacity="0.2" d="M320.048 187.06C310.108 204.29 315.168 237.16 317.548 249.42C320.268 231.42 324.338 209.42 327.458 193.27C326.678 184 324.628 179.11 320.048 187.06Z" fill="black"/>
<path d="M315.08 169.7C315.08 169.7 320.08 250.94 326.28 262.18C336.15 280 378 294.61 378 294.61L385.86 285.41C385.86 285.41 359.68 263.64 345.86 251.27C342.57 228.8 354.2 193.34 341.63 171.34L315.08 169.7Z" fill="#263238"/>
<path d="M342.229 169.26L342.949 172.54C343.059 172.8 342.749 173.03 342.329 173.01L305.329 170.72C304.999 170.72 304.739 170.52 304.739 170.32L304.609 167.08C304.609 166.85 304.889 166.68 305.249 166.7L341.659 169C341.768 168.994 341.877 169.014 341.977 169.059C342.076 169.105 342.163 169.174 342.229 169.26Z" fill="#0078FF"/>
<path d="M337.08 173L338.08 173.06C338.27 173.06 338.43 172.98 338.42 172.86L338.22 168.65C338.22 168.52 338.05 168.41 337.86 168.4L336.86 168.34C336.67 168.34 336.51 168.42 336.52 168.54L336.72 172.76C336.72 172.91 336.89 173 337.08 173Z" fill="#263238"/>
<path d="M308 171.24L309 171.3C309.2 171.3 309.35 171.22 309.35 171.1L309.15 166.88C309.15 166.76 308.98 166.65 308.78 166.64L307.78 166.58C307.58 166.58 307.43 166.66 307.44 166.78L307.63 170.99C307.66 171.12 307.82 171.23 308 171.24Z" fill="#263238"/>
<path d="M322.549 172.14L323.549 172.2C323.739 172.2 323.899 172.12 323.889 171.99L323.689 167.78C323.689 167.66 323.519 167.55 323.329 167.53L322.329 167.47C322.139 167.47 321.979 167.55 321.989 167.68L322.189 171.89C322.189 172 322.359 172.12 322.549 172.14Z" fill="#263238"/>
<path d="M386.81 284.37L377.05 295.79L372.43 293.94L383.3 279.99L386.81 284.37Z" fill="#0078FF"/>
<path d="M349.999 122.57C351.749 126.97 353.269 131.34 354.659 135.82C356.049 140.3 357.319 144.82 358.339 149.44C358.469 150.02 358.589 150.61 358.709 151.19L358.879 152.06L358.969 152.5L359.039 152.92C359.074 153.102 359.097 153.285 359.109 153.47C359.186 154.454 359.01 155.442 358.599 156.34C358.146 157.29 357.436 158.094 356.549 158.66C355.951 159.034 355.296 159.308 354.609 159.47C354.122 159.584 353.627 159.657 353.129 159.69C351.667 159.76 350.202 159.645 348.769 159.35C347.535 159.111 346.313 158.811 345.109 158.45C340.541 157.043 336.112 155.219 331.879 153L333.479 148.8C337.869 149.8 342.359 150.87 346.639 151.54C347.709 151.71 348.759 151.83 349.759 151.9C350.598 151.99 351.444 151.973 352.279 151.85C352.529 151.85 352.659 151.64 352.139 151.91C351.734 152.162 351.41 152.527 351.209 152.96C351.034 153.329 350.945 153.732 350.949 154.14C350.949 154.22 350.949 154.22 350.949 154.26C350.949 154.3 350.949 154.37 350.949 154.26L350.839 153.86L350.619 153.05C350.469 152.52 350.339 151.98 350.169 151.45C348.939 147.16 347.539 142.87 346.079 138.58C344.619 134.29 343.079 130.01 341.519 125.81L349.999 122.57Z" fill="#FFC3BD"/>
<path d="M348.769 114.35C352.299 115.67 355.869 128.35 355.869 128.35L341.259 137.48C341.259 137.48 336.619 125.24 338.419 120.68C340.299 115.92 344.729 112.84 348.769 114.35Z" fill="#0078FF"/>
<path opacity="0.2" d="M348.769 114.35C352.299 115.67 355.869 128.35 355.869 128.35L341.259 137.48C341.259 137.48 336.619 125.24 338.419 120.68C340.299 115.92 344.729 112.84 348.769 114.35Z" fill="black"/>
<path d="M385.999 303.9H385.899C385.701 303.948 385.493 303.945 385.296 303.893C385.099 303.84 384.918 303.74 384.769 303.6C384.665 303.525 384.583 303.423 384.534 303.305C384.484 303.186 384.469 303.057 384.489 302.93C384.639 301.81 387.539 300.44 387.869 300.29C387.903 300.266 387.943 300.254 387.984 300.254C388.025 300.254 388.065 300.266 388.099 300.29C388.13 300.316 388.153 300.351 388.164 300.391C388.174 300.43 388.173 300.472 388.159 300.51C387.739 301.67 386.999 303.51 385.999 303.9ZM387.589 300.9C386.439 301.47 384.979 302.4 384.899 302.99C384.894 303.047 384.904 303.103 384.928 303.155C384.953 303.206 384.991 303.249 385.039 303.28C385.134 303.375 385.252 303.444 385.382 303.481C385.511 303.518 385.648 303.521 385.779 303.49C386.319 303.37 386.999 302.41 387.539 300.94L387.589 300.9Z" fill="#0078FF"/>
<path d="M387.71 300.84C386.71 301.23 384.6 301.45 383.93 300.84C383.81 300.724 383.733 300.571 383.711 300.406C383.69 300.241 383.724 300.073 383.81 299.93C383.875 299.783 383.973 299.653 384.096 299.549C384.219 299.445 384.364 299.37 384.52 299.33C385.76 298.96 387.93 300.33 388.02 300.33C388.052 300.35 388.078 300.378 388.096 300.411C388.113 300.445 388.122 300.482 388.12 300.52C388.119 300.557 388.108 300.593 388.089 300.625C388.069 300.656 388.042 300.682 388.01 300.7L387.71 300.84ZM384.58 299.73C384.494 299.761 384.415 299.809 384.349 299.871C384.282 299.933 384.228 300.007 384.19 300.09C384.08 300.34 384.19 300.45 384.19 300.52C384.64 300.94 386.4 300.85 387.42 300.52C386.67 300.11 385.35 299.52 384.61 299.73H384.58Z" fill="#0078FF"/>
<path d="M304.4 370.8C303.688 371.07 302.904 371.088 302.18 370.85C302.009 370.767 301.86 370.643 301.747 370.49C301.634 370.337 301.559 370.158 301.53 369.97C301.508 369.855 301.515 369.737 301.55 369.625C301.585 369.513 301.647 369.412 301.73 369.33C302.61 368.47 306.51 369.25 306.95 369.33C306.992 369.337 307.03 369.357 307.059 369.388C307.088 369.418 307.106 369.458 307.11 369.5C307.119 369.544 307.113 369.589 307.093 369.629C307.073 369.669 307.04 369.701 307 369.72C306.169 370.159 305.298 370.521 304.4 370.8ZM302.4 369.46C302.266 369.487 302.142 369.549 302.04 369.64C302.006 369.671 301.981 369.71 301.968 369.755C301.956 369.799 301.957 369.846 301.97 369.89C301.987 370.014 302.033 370.132 302.104 370.234C302.176 370.337 302.27 370.421 302.38 370.48C303.03 370.8 304.46 370.48 306.27 369.64C304.993 369.358 303.678 369.297 302.38 369.46H302.4Z" fill="#0078FF"/>
<path d="M306.999 369.75H306.919C305.769 369.57 303.229 368.3 303.119 367.28C303.119 367.04 303.179 366.71 303.719 366.5C303.911 366.416 304.119 366.372 304.329 366.372C304.539 366.372 304.747 366.416 304.939 366.5C306.269 367.1 307.109 369.34 307.139 369.44C307.159 369.47 307.169 369.504 307.169 369.54C307.169 369.576 307.159 369.61 307.139 369.64C307.127 369.668 307.107 369.693 307.083 369.712C307.058 369.732 307.03 369.745 306.999 369.75ZM303.999 366.86H303.879C303.519 367 303.529 367.16 303.539 367.21C303.609 367.81 305.379 368.88 306.599 369.21C306.244 368.263 305.605 367.449 304.769 366.88C304.523 366.78 304.25 366.773 303.999 366.86Z" fill="#0078FF"/>
<path d="M336.209 113.45C330.662 113.57 325.129 114.071 319.649 114.95C317.649 115.31 315.579 115.75 313.649 116.2C312.159 117.79 309.569 125.83 312.479 131.27C314.399 128.05 317.629 125.27 319.779 124.95C322.139 125.59 324.469 129.16 325.039 132.31C328.899 131.61 337.249 122.58 342.039 115.31L343.259 113.43C340.999 113.36 338.639 113.35 336.209 113.45Z" fill="#0078FF"/>
<path d="M335.7 95.63C334.33 100.96 332.7 110.63 336.2 113.81C336.2 113.81 332.9 119.18 324.52 120.15C315.3 121.23 319.65 115.31 319.65 115.31C325.65 113.38 325.79 109.06 325.01 105.08L335.7 95.63Z" fill="#FFC3BD"/>
<path d="M319.65 115.31C319.65 115.31 315.96 119.2 319.47 126.31C326.89 122.86 334 118.77 336.2 113.83L319.65 115.31Z" fill="#FFC3BD"/>
<path opacity="0.2" d="M331.34 99.48L325.01 105.08C325.208 106.014 325.319 106.965 325.34 107.92C327.63 107.39 331.41 105.11 331.8 102.76C331.868 101.647 331.712 100.531 331.34 99.48Z" fill="black"/>
<path d="M342.719 89.19C339.579 97.42 338.419 100.97 332.839 103.95C324.429 108.44 315.009 102.78 315.629 93.78C316.189 85.67 321.229 73.57 330.489 72.78C332.534 72.5936 334.593 72.9351 336.468 73.772C338.343 74.6088 339.973 75.9129 341.2 77.5596C342.427 79.2062 343.211 81.1402 343.477 83.1766C343.743 85.2129 343.482 87.2835 342.719 89.19Z" fill="#FFC3BD"/>
<path d="M323.999 72.76C327.759 71.89 328.999 76.18 322.419 77.69C315.839 79.2 320.939 73.48 323.999 72.76Z" fill="#263238"/>
<path d="M327.929 70.49C322.559 72.49 324.929 78.66 331.019 80.42C337.109 82.18 335.079 92.51 340.539 94.78C345.999 97.05 348.889 79.68 344.179 74.78C339.469 69.88 331.539 69.13 327.929 70.49Z" fill="#263238"/>
<path d="M322.909 86.79C321.814 88.1585 320.535 89.3698 319.109 90.39C319.38 90.7467 319.725 91.0405 320.121 91.2511C320.516 91.4617 320.952 91.5842 321.399 91.61L322.909 86.79Z" fill="#ED847E"/>
<path d="M324.289 95.45C323.951 95.3939 323.616 95.3137 323.289 95.21C323.236 95.1938 323.192 95.1575 323.166 95.1088C323.14 95.0601 323.134 95.0031 323.149 94.95C323.169 94.8978 323.208 94.8548 323.258 94.829C323.307 94.8032 323.365 94.7965 323.419 94.81C324.262 95.0947 325.16 95.177 326.041 95.0502C326.922 94.9234 327.761 94.591 328.489 94.08C328.509 94.0601 328.532 94.0442 328.558 94.0334C328.584 94.0226 328.611 94.017 328.639 94.017C328.667 94.017 328.695 94.0226 328.721 94.0334C328.746 94.0442 328.77 94.0601 328.789 94.08C328.827 94.1207 328.848 94.1743 328.848 94.23C328.848 94.2857 328.827 94.3393 328.789 94.38C328.15 94.8533 327.422 95.1922 326.649 95.3761C325.875 95.56 325.073 95.5851 324.289 95.45Z" fill="#263238"/>
<path d="M342.92 96.69C341.868 98.0314 340.33 98.9044 338.64 99.12C336.4 99.38 335.64 97.29 336.54 95.36C337.37 93.62 339.54 91.36 341.64 92.02C342.097 92.1667 342.512 92.4254 342.844 92.7726C343.177 93.1198 343.418 93.5445 343.545 94.0082C343.672 94.472 343.681 94.9601 343.572 95.4284C343.463 95.8967 343.239 96.3303 342.92 96.69Z" fill="#FFC3BD"/>
<path d="M333.359 87C333.275 86.9758 333.2 86.9265 333.144 86.8585C333.089 86.7906 333.056 86.7074 333.049 86.62C332.929 84.67 330.799 83.34 330.779 83.33C330.726 83.3045 330.679 83.268 330.641 83.2231C330.602 83.1781 330.574 83.1257 330.558 83.0691C330.541 83.0126 330.537 82.9532 330.545 82.8948C330.553 82.8365 330.573 82.7804 330.604 82.7304C330.635 82.6803 330.676 82.6373 330.725 82.6042C330.774 82.5711 330.829 82.5486 330.887 82.5382C330.945 82.5278 331.004 82.5297 331.062 82.5438C331.119 82.5579 331.172 82.5839 331.219 82.62C331.329 82.68 333.739 84.19 333.879 86.56C333.884 86.6155 333.878 86.6715 333.862 86.7246C333.845 86.7777 333.817 86.8268 333.781 86.8689C333.744 86.911 333.699 86.9453 333.649 86.9695C333.599 86.9938 333.544 87.0076 333.489 87.01L333.359 87Z" fill="#263238"/>
<path d="M328.76 88C328.53 88.62 328.01 89 327.6 88.86C327.19 88.72 327.04 88.08 327.27 87.45C327.5 86.82 328.02 86.45 328.43 86.59C328.84 86.73 329 87.36 328.76 88Z" fill="#263238"/>
<path d="M320.999 85.26C320.769 85.88 320.249 86.26 319.839 86.12C319.429 85.98 319.279 85.34 319.519 84.71C319.759 84.08 320.269 83.71 320.679 83.85C321.089 83.99 321.239 84.63 320.999 85.26Z" fill="#263238"/>
<path d="M320.85 84L319.51 83C319.51 83 319.85 84.42 320.85 84Z" fill="#263238"/>
<path d="M328.6 86.68L327.26 85.68C327.26 85.68 327.6 87.15 328.6 86.68Z" fill="#263238"/>
<path d="M319.23 80C319.156 80.0004 319.084 79.9811 319.021 79.9442C318.958 79.9072 318.905 79.854 318.87 79.79C318.816 79.6931 318.802 79.5788 318.832 79.472C318.862 79.3653 318.933 79.2747 319.03 79.22C319.6 78.8723 320.246 78.6671 320.913 78.6218C321.579 78.5766 322.247 78.6926 322.86 78.96C322.959 79.0104 323.034 79.0983 323.069 79.2042C323.104 79.3102 323.095 79.4256 323.045 79.525C322.994 79.6245 322.906 79.6998 322.8 79.7345C322.694 79.7692 322.579 79.7604 322.48 79.71C321.996 79.5101 321.472 79.4276 320.951 79.4693C320.429 79.5111 319.925 79.6758 319.48 79.95C319.406 79.9985 319.316 80.0164 319.23 80Z" fill="#263238"/>
<path d="M334.65 149.22L328.6 141.77L326.91 150.64C326.91 150.64 331.3 154.27 334.71 152.88L334.65 149.22Z" fill="#FFC3BD"/>
<path d="M323.229 140.54L320.309 147.6L326.909 150.64L328.599 141.77L323.229 140.54Z" fill="#FFC3BD"/>
<path d="M71.8336 205.352L72.7793 205.443L71.549 218.244L70.6033 218.153L71.8336 205.352Z" fill="#0078FF"/>
<path d="M70.1559 222.608L71.1016 222.699L70.605 227.865L69.6594 227.774L70.1559 222.608Z" fill="#0078FF"/>
<path d="M298.426 333.482L65.002 311.047L78.3578 172.087L311.782 194.522L298.426 333.482Z" fill="#0078FF"/>
<path opacity="0.1" d="M298.426 333.482L65.002 311.047L78.3578 172.087L311.782 194.522L298.426 333.482Z" fill="black"/>
<path opacity="0.1" d="M187.779 259.1L311.779 194.52L78.3593 172.08L187.779 259.1Z" fill="#263238"/>
<path d="M216.029 118.38L311.779 194.52L78.3593 172.08L186.859 115.58C191.472 113.177 196.682 112.162 201.859 112.659C207.036 113.156 211.958 115.143 216.029 118.38Z" fill="#0078FF"/>
<path opacity="0.2" d="M87.0311 172.92L190.121 119.23C193.599 117.416 197.529 116.65 201.434 117.025C205.339 117.399 209.051 118.898 212.121 121.34L303.121 193.68L87.0311 172.92Z" fill="#263238"/>
<path d="M130.139 171.21L98.5493 179.65L97.7893 187.53L187.779 259.1L289.759 205.99L291.279 190.23L130.139 171.21Z" fill="white"/>
<path d="M130.141 171.21L124.171 187.75L98.5506 179.65" fill="#E0E0E0"/>
<path d="M130.141 171.21L127.071 184.85L98.5506 179.65" fill="#F0F0F0"/>
<path d="M169.13 244.24L64.9999 311.05L298.42 333.48L208.93 248.06C203.684 243.055 196.908 239.958 189.691 239.265C182.473 238.572 175.232 240.324 169.13 244.24Z" fill="#0078FF"/>
</svg>
