<svg width="280" height="280" viewBox="0 0 280 280" fill="none" xmlns="http://www.w3.org/2000/svg">
<g clip-path="url(#clip0)">
<path d="M-10 219.44H290V219.59H-10V219.44Z" fill="#EBEBEB"/>
<path d="M20.0597 229.094H39.9316V229.244H20.0597V229.094Z" fill="#EBEBEB"/>
<path d="M91.2684 230.726H96.4824V230.876H91.2684V230.726Z" fill="#EBEBEB"/>
<path d="M40.5329 223.526H52.0469V223.676H40.5329V223.526Z" fill="#EBEBEB"/>
<path d="M232.609 224.534H258.523V224.684H232.609V224.534Z" fill="#EBEBEB"/>
<path d="M223.466 224.534H227.264V224.684H223.466V224.534Z" fill="#EBEBEB"/>
<path d="M154.911 227.066H211.119V227.216H154.911V227.066Z" fill="#EBEBEB"/>
<path d="M147.8 192.68H263.654C264.562 192.678 265.432 192.317 266.073 191.674C266.714 191.032 267.074 190.162 267.074 189.254V26.396C267.066 25.4936 266.703 24.6308 266.062 23.9949C265.422 23.3591 264.557 23.0015 263.654 23H147.8C146.892 23 146.02 23.361 145.378 24.0035C144.735 24.646 144.374 25.5174 144.374 26.426V189.254C144.374 190.163 144.735 191.034 145.378 191.677C146.02 192.319 146.892 192.68 147.8 192.68ZM263.654 23.12C264.522 23.1216 265.354 23.4674 265.967 24.0816C266.58 24.6958 266.924 25.5282 266.924 26.396V189.254C266.924 190.122 266.58 190.954 265.967 191.568C265.354 192.183 264.522 192.528 263.654 192.53H147.8C146.932 192.528 146.1 192.183 145.486 191.569C144.871 190.955 144.526 190.122 144.524 189.254V26.396C144.526 25.5276 144.871 24.6953 145.486 24.0813C146.1 23.4672 146.932 23.1216 147.8 23.12H263.654Z" fill="#EBEBEB"/>
<path d="M18.0148 192.68H133.875C134.783 192.678 135.653 192.317 136.296 191.675C136.938 191.033 137.299 190.162 137.301 189.254V26.396C137.291 25.4931 136.926 24.6302 136.285 23.9946C135.644 23.3589 134.778 23.0015 133.875 23H18.0148C17.1134 23.0031 16.2496 23.3613 15.6105 23.997C14.9715 24.6327 14.6087 25.4947 14.6008 26.396V189.254C14.6008 190.161 14.9601 191.03 15.6 191.672C16.2399 192.314 17.1082 192.677 18.0148 192.68ZM133.875 23.12C134.743 23.1216 135.575 23.4672 136.19 24.0813C136.804 24.6953 137.149 25.5276 137.151 26.396V189.254C137.149 190.122 136.804 190.955 136.19 191.569C135.575 192.183 134.743 192.528 133.875 192.53H18.0148C17.1464 192.528 16.3141 192.183 15.7001 191.569C15.086 190.955 14.7404 190.122 14.7388 189.254V26.396C14.7404 25.5276 15.086 24.6953 15.7001 24.0813C16.3141 23.4672 17.1464 23.1216 18.0148 23.12H133.875Z" fill="#EBEBEB"/>
<path d="M236.923 219.44H219.271V155.558H236.923V219.44Z" fill="#E6E6E6"/>
<path d="M233.864 219.44H236.918V210.74H230.654L233.864 219.44Z" fill="#F0F0F0"/>
<path d="M120.529 219.44H102.877L102.877 155.558H120.529V219.44Z" fill="#E6E6E6"/>
<path d="M236.923 214.1L117.865 214.1L117.865 155.558H236.923V214.1Z" fill="#F0F0F0"/>
<path d="M234.554 174.212H120.236V158.156H234.554V174.212Z" fill="#E6E6E6"/>
<path d="M200.93 163.142H153.848C151.465 163.142 149.107 162.656 146.918 161.714C144.729 160.772 142.755 159.394 141.116 157.664H213.668C212.028 159.394 210.053 160.773 207.863 161.714C205.673 162.656 203.314 163.142 200.93 163.142Z" fill="#F0F0F0"/>
<path d="M120.921 219.44H117.861V210.74H124.125L120.921 219.44Z" fill="#F0F0F0"/>
<path d="M234.554 192.854H120.236V176.798H234.554V192.854Z" fill="#E6E6E6"/>
<path d="M200.93 181.79H153.848C151.465 181.79 149.107 181.304 146.918 180.362C144.729 179.42 142.755 178.042 141.116 176.312H213.668C212.028 178.042 210.053 179.421 207.863 180.362C205.673 181.304 203.314 181.79 200.93 181.79Z" fill="#F0F0F0"/>
<path d="M234.554 211.508H120.236V195.452H234.554V211.508Z" fill="#E6E6E6"/>
<path d="M200.93 200.438H153.848C151.466 200.438 149.108 199.952 146.919 199.012C144.73 198.071 142.756 196.694 141.116 194.966H213.668C212.027 196.695 210.051 198.071 207.862 199.012C205.672 199.952 203.313 200.438 200.93 200.438Z" fill="#F0F0F0"/>
<path d="M239.522 136.826H169.898V50.5999L239.522 50.5999V136.826Z" fill="#E6E6E6"/>
<path d="M247.442 136.826H171.92V50.5999L247.442 50.5999V136.826Z" fill="#F0F0F0"/>
<path d="M178.25 130.502V56.9299L241.118 56.9299V130.502H178.25Z" fill="white"/>
<path d="M122.539 134.672H28.1953L28.1953 49.6459L122.539 49.6459L122.539 134.672Z" fill="#EBEBEB"/>
<path d="M125.023 134.672H29.3594L29.3594 49.6459L125.023 49.6459L125.023 134.672Z" fill="#F5F5F5"/>
<path d="M115.249 139.28H28.1953V134.672H115.249V139.28Z" fill="#EBEBEB"/>
<path d="M128.66 139.28H46.6641V134.672H128.66V139.28Z" fill="#F0F0F0"/>
<path d="M32.8281 131.204L32.8281 53.1201L121.55 53.1201V131.204H32.8281Z" fill="#FAFAFA"/>
<path d="M46.6631 131.204L76.2971 53.1201H90.2891L60.6551 131.204H46.6631Z" fill="white"/>
<path d="M34.4969 125.744C34.4141 125.744 34.3348 125.711 34.2763 125.653C34.2178 125.594 34.1849 125.515 34.1849 125.432V55.4419C34.1716 55.3955 34.1693 55.3466 34.1782 55.2991C34.187 55.2516 34.2067 55.2069 34.2358 55.1683C34.2649 55.1297 34.3025 55.0985 34.3457 55.0769C34.389 55.0554 34.4366 55.0442 34.4849 55.0442C34.5332 55.0442 34.5808 55.0554 34.624 55.0769C34.6673 55.0985 34.7049 55.1297 34.734 55.1683C34.763 55.2069 34.7828 55.2516 34.7916 55.2991C34.8004 55.3466 34.7981 55.3955 34.7849 55.4419V125.432C34.7866 125.511 34.7575 125.588 34.7038 125.646C34.6501 125.704 34.5759 125.739 34.4969 125.744Z" fill="#F0F0F0"/>
<path d="M63.662 131.204L93.296 53.1201H98.75L69.116 131.204H63.662Z" fill="white"/>
<path d="M76.5915 131.204L106.226 53.1201H111.686L82.0455 131.204H76.5915Z" fill="white"/>
<path d="M121.105 131.204V53.1201H121.543V131.204H121.105Z" fill="#EBEBEB"/>
<g opacity="0.7">
<path opacity="0.7" d="M125.84 56.27H31.4958L31.1778 54.47H125.522L125.84 56.27Z" fill="#EBEBEB"/>
<path opacity="0.7" d="M125.84 58.2021H31.4958L31.1778 56.4021H125.522L125.84 58.2021Z" fill="#EBEBEB"/>
<path opacity="0.7" d="M125.84 60.134H31.4958L31.1778 58.334H125.522L125.84 60.134Z" fill="#EBEBEB"/>
<path opacity="0.7" d="M125.84 62.066H31.4958L31.1778 60.272H125.522L125.84 62.066Z" fill="#EBEBEB"/>
<path opacity="0.7" d="M125.84 64.0041H31.4958L31.1778 62.2041H125.522L125.84 64.0041Z" fill="#EBEBEB"/>
<path opacity="0.7" d="M125.84 65.936H31.4958L31.1778 64.136H125.522L125.84 65.936Z" fill="#EBEBEB"/>
<path opacity="0.7" d="M125.84 67.8679H31.4958L31.1778 66.0679H125.522L125.84 67.8679Z" fill="#EBEBEB"/>
<path opacity="0.7" d="M125.84 69.8H31.4958L31.1778 68H125.522L125.84 69.8Z" fill="#EBEBEB"/>
<path opacity="0.7" d="M125.84 71.7319H31.4958L31.1778 69.9319H125.522L125.84 71.7319Z" fill="#EBEBEB"/>
<path opacity="0.7" d="M125.84 73.6639H31.4958L31.1778 71.8699H125.522L125.84 73.6639Z" fill="#EBEBEB"/>
<path opacity="0.7" d="M125.84 75.602H31.4958L31.1778 73.802H125.522L125.84 75.602Z" fill="#EBEBEB"/>
<path opacity="0.7" d="M125.84 77.5339H31.4958L31.1778 75.7339H125.522L125.84 77.5339Z" fill="#EBEBEB"/>
<path opacity="0.7" d="M125.84 79.466H31.4958L31.1778 77.666H125.522L125.84 79.466Z" fill="#EBEBEB"/>
<path opacity="0.7" d="M125.84 81.3979H31.4958L31.1778 79.5979H125.522L125.84 81.3979Z" fill="#EBEBEB"/>
<path opacity="0.7" d="M125.84 83.3299H31.4958L31.1778 81.5359H125.522L125.84 83.3299Z" fill="#EBEBEB"/>
<path opacity="0.7" d="M125.84 85.268H31.4958L31.1778 83.468H125.522L125.84 85.268Z" fill="#EBEBEB"/>
<path opacity="0.7" d="M125.84 87.1999H31.4958L31.1778 85.3999H125.522L125.84 87.1999Z" fill="#EBEBEB"/>
<path opacity="0.7" d="M125.84 89.132H31.4958L31.1778 87.332H125.522L125.84 89.132Z" fill="#EBEBEB"/>
<path opacity="0.7" d="M125.84 91.0639H31.4958L31.1778 89.2639H125.522L125.84 91.0639Z" fill="#EBEBEB"/>
<path opacity="0.7" d="M125.84 92.996H31.4958L31.1778 91.196H125.522L125.84 92.996Z" fill="#EBEBEB"/>
<path opacity="0.7" d="M125.84 94.9279H31.4958L31.1778 93.1279H125.522L125.84 94.9279Z" fill="#EBEBEB"/>
<path opacity="0.7" d="M125.84 96.8659H31.4958L31.1778 95.0659H125.522L125.84 96.8659Z" fill="#EBEBEB"/>
<path opacity="0.7" d="M125.84 98.798H31.4958L31.1778 96.998H125.522L125.84 98.798Z" fill="#EBEBEB"/>
<path opacity="0.7" d="M125.84 100.73H31.4958L31.1778 98.9299H125.522L125.84 100.73Z" fill="#EBEBEB"/>
</g>
<path d="M142.574 146.198C142.574 151.37 149.366 155.558 157.742 155.558C166.118 155.558 172.91 151.358 172.91 146.198H142.574Z" fill="#EBEBEB"/>
<path d="M182.437 146.198C182.437 151.37 189.229 155.558 197.605 155.558C205.981 155.558 212.779 151.358 212.779 146.198H182.437Z" fill="#EBEBEB"/>
<path d="M67.6452 215.936H56.7852L56.7852 160.622H67.6452V215.936Z" fill="#F0F0F0"/>
<path d="M112.429 219.44H58.8613V215.936H112.429V219.44Z" fill="#F0F0F0"/>
<path d="M67.6395 160.622H114.518V215.936H67.6395V160.622Z" fill="#F5F5F5"/>
<path d="M71.9179 167.432H110.252V185.57H71.9179V167.432Z" fill="#F0F0F0"/>
<path d="M71.9179 190.982H110.252V209.12H71.9179V190.982Z" fill="#F0F0F0"/>
<path d="M95.4508 177.74H86.7148C86.1647 177.74 85.7188 177.294 85.7188 176.744V176.246C85.7188 175.696 86.1647 175.25 86.7148 175.25H95.4508C96.0008 175.25 96.4468 175.696 96.4468 176.246V176.744C96.4468 177.294 96.0008 177.74 95.4508 177.74Z" fill="#F5F5F5"/>
<path d="M95.4508 201.296H86.7148C86.1647 201.296 85.7188 200.85 85.7188 200.3V199.802C85.7188 199.252 86.1647 198.806 86.7148 198.806H95.4508C96.0008 198.806 96.4468 199.252 96.4468 199.802V200.3C96.4468 200.85 96.0008 201.296 95.4508 201.296Z" fill="#F5F5F5"/>
<path d="M140 246.536C75.7505 246.536 23.666 243.495 23.666 239.744C23.666 235.993 75.7505 232.952 140 232.952C204.249 232.952 256.334 235.993 256.334 239.744C256.334 243.495 204.249 246.536 140 246.536Z" fill="#F5F5F5"/>
<path d="M236.859 96.1519H237.459V107.672H236.859V96.1519Z" fill="#0078FF"/>
<path d="M236.859 112.022H237.459V117.314H236.859V112.022Z" fill="#0078FF"/>
<path d="M73.2263 67.5859H229.22C232.726 67.5859 235.568 70.428 235.568 73.9339V171.698C235.568 175.204 232.726 178.046 229.22 178.046H73.2263C69.7204 178.046 66.8784 175.204 66.8784 171.698V73.9339C66.8784 70.428 69.7204 67.5859 73.2263 67.5859Z" fill="#0078FF"/>
<path d="M233.457 73.928V171.698C233.457 174.034 231.563 175.928 229.227 175.928H73.227C70.8909 175.928 68.997 174.034 68.997 171.698V73.928C68.997 71.5918 70.8909 69.698 73.227 69.698L229.227 69.698C231.563 69.698 233.457 71.5918 233.457 73.928Z" fill="white"/>
<path opacity="0.6" d="M170.266 158.852V175.934H132.202V158.852C132.202 157.261 132.834 155.735 133.959 154.609C135.084 153.484 136.61 152.852 138.202 152.852H164.284C165.872 152.857 167.393 153.491 168.515 154.616C169.636 155.74 170.266 157.264 170.266 158.852Z" fill="#0078FF"/>
<path opacity="0.6" d="M122.133 158.852V175.934H84.0508V158.852C84.0508 157.261 84.6829 155.735 85.8081 154.609C86.9334 153.484 88.4595 152.852 90.0508 152.852H116.151C117.739 152.857 119.26 153.491 120.382 154.616C121.503 155.74 122.133 157.264 122.133 158.852Z" fill="#0078FF"/>
<path opacity="0.6" d="M218.402 158.852V175.934H180.314V158.852C180.314 157.261 180.946 155.735 182.072 154.609C183.197 153.484 184.723 152.852 186.314 152.852H212.414C214.004 152.855 215.527 153.489 216.649 154.614C217.772 155.739 218.402 157.263 218.402 158.852Z" fill="#0078FF"/>
<path d="M96.6262 80.402H85.5802C85.1745 80.402 84.7853 80.2409 84.4984 79.9539C84.2114 79.667 84.0502 79.2778 84.0502 78.872C84.0502 78.6711 84.0898 78.4722 84.1667 78.2865C84.2436 78.1009 84.3563 77.9322 84.4984 77.7902C84.6405 77.6481 84.8091 77.5354 84.9947 77.4585C85.1804 77.3816 85.3793 77.342 85.5802 77.342H96.6262C97.0315 77.3436 97.4198 77.5053 97.7064 77.7919C97.993 78.0785 98.1547 78.4667 98.1562 78.872C98.1547 79.2773 97.993 79.6656 97.7064 79.9522C97.4198 80.2388 97.0315 80.4005 96.6262 80.402Z" fill="#0078FF"/>
<path d="M134.234 81.284C132.902 81.284 131.822 80.2041 131.822 78.872C131.822 77.5398 132.902 76.46 134.234 76.46C135.567 76.46 136.646 77.5398 136.646 78.872C136.646 80.2041 135.567 81.284 134.234 81.284Z" fill="#0078FF"/>
<path d="M139.323 78.8719C139.323 79.3466 139.464 79.8106 139.728 80.2053C139.991 80.6 140.366 80.9076 140.805 81.0892C141.243 81.2709 141.726 81.3184 142.191 81.2258C142.657 81.1332 143.084 80.9046 143.42 80.569C143.756 80.2333 143.984 79.8057 144.077 79.3401C144.17 78.8746 144.122 78.392 143.94 77.9535C143.759 77.5149 143.451 77.1401 143.056 76.8764C142.662 76.6127 142.198 76.4719 141.723 76.4719C141.087 76.4719 140.476 76.7248 140.026 77.1749C139.576 77.625 139.323 78.2354 139.323 78.8719Z" fill="#0078FF"/>
<path d="M214.424 76.406H217.442C217.973 76.406 218.402 76.8358 218.402 77.366V80.384C218.402 80.9142 217.973 81.344 217.442 81.344H214.424C213.894 81.344 213.464 80.9142 213.464 80.384V77.366C213.464 76.8358 213.894 76.406 214.424 76.406Z" fill="#0078FF"/>
<path opacity="0.2" d="M198.537 79.6339H204.297C204.499 79.6339 204.693 79.5536 204.835 79.4107C204.978 79.2678 205.059 79.074 205.059 78.8719C205.059 78.6698 204.978 78.4759 204.835 78.333C204.693 78.1901 204.499 78.1099 204.297 78.1099H198.537C198.335 78.1099 198.141 78.1901 197.998 78.333C197.855 78.4759 197.775 78.6698 197.775 78.8719C197.775 79.074 197.855 79.2678 197.998 79.4107C198.141 79.5536 198.335 79.6339 198.537 79.6339Z" fill="#263238"/>
<path opacity="0.2" d="M187.292 79.6339H193.052C193.255 79.6339 193.448 79.5536 193.591 79.4107C193.734 79.2678 193.814 79.074 193.814 78.8719C193.814 78.6698 193.734 78.4759 193.591 78.333C193.448 78.1901 193.255 78.1099 193.052 78.1099H187.292C187.09 78.1099 186.895 78.1899 186.752 78.3327C186.608 78.4754 186.526 78.6692 186.524 78.8719C186.526 79.0745 186.608 79.2683 186.752 79.411C186.895 79.5538 187.09 79.6339 187.292 79.6339Z" fill="#263238"/>
<path opacity="0.2" d="M176.042 79.6339H181.802C182.005 79.6339 182.199 79.5538 182.343 79.411C182.487 79.2683 182.569 79.0745 182.57 78.8719C182.569 78.6692 182.487 78.4754 182.343 78.3327C182.199 78.1899 182.005 78.1099 181.802 78.1099H176.042C175.84 78.1099 175.646 78.1901 175.503 78.333C175.361 78.4759 175.28 78.6698 175.28 78.8719C175.28 79.074 175.361 79.2678 175.503 79.4107C175.646 79.5536 175.84 79.6339 176.042 79.6339Z" fill="#263238"/>
<path opacity="0.2" d="M164.8 79.6339H170.56C170.763 79.6339 170.957 79.5538 171.101 79.411C171.245 79.2683 171.327 79.0745 171.328 78.8719C171.327 78.6692 171.245 78.4754 171.101 78.3327C170.957 78.1899 170.763 78.1099 170.56 78.1099H164.8C164.598 78.1099 164.404 78.1901 164.261 78.333C164.118 78.4759 164.038 78.6698 164.038 78.8719C164.038 79.074 164.118 79.2678 164.261 79.4107C164.404 79.5536 164.598 79.6339 164.8 79.6339Z" fill="#263238"/>
<path opacity="0.4" d="M44.162 91.2329L165.818 94.8826C169.324 94.9877 172.081 97.9151 171.976 101.421L170.912 136.857C170.807 140.363 167.88 143.12 164.374 143.015L42.7181 139.365C39.2122 139.26 36.4553 136.332 36.5605 132.826L37.6236 97.3904C37.7288 93.8845 40.6561 91.1277 44.162 91.2329Z" fill="#0078FF"/>
<path opacity="0.4" d="M118.635 119.894L156.549 121.19C157.037 121.205 157.523 121.124 157.979 120.952C158.436 120.779 158.854 120.518 159.209 120.184C159.565 119.849 159.851 119.448 160.051 119.003C160.252 118.558 160.362 118.078 160.377 117.59C160.392 117.102 160.311 116.616 160.138 116.16C159.966 115.704 159.705 115.286 159.37 114.93C159.036 114.575 158.635 114.288 158.19 114.088C157.745 113.888 157.265 113.777 156.777 113.762L118.863 112.466C118.375 112.451 117.889 112.532 117.433 112.705C116.976 112.877 116.559 113.138 116.203 113.473C115.848 113.807 115.561 114.208 115.361 114.653C115.161 115.098 115.05 115.578 115.035 116.066C115.018 116.554 115.098 117.041 115.27 117.498C115.443 117.955 115.703 118.374 116.038 118.73C116.373 119.086 116.775 119.372 117.22 119.571C117.666 119.771 118.147 119.881 118.635 119.894Z" fill="#0078FF"/>
<path opacity="0.4" d="M131.108 131.6L156.164 132.452C157.144 132.483 158.097 132.125 158.814 131.456C159.531 130.787 159.955 129.862 159.992 128.882C160.008 128.394 159.926 127.908 159.754 127.452C159.581 126.995 159.32 126.578 158.986 126.222C158.651 125.867 158.25 125.58 157.805 125.38C157.36 125.18 156.88 125.069 156.392 125.054L131.342 124.196C130.855 124.181 130.369 124.262 129.912 124.435C129.456 124.607 129.038 124.868 128.682 125.203C128.327 125.537 128.041 125.938 127.84 126.383C127.64 126.828 127.529 127.308 127.514 127.796C127.49 128.776 127.854 129.726 128.528 130.439C129.201 131.151 130.128 131.569 131.108 131.6Z" fill="#0078FF"/>
<path d="M39.9199 117.536L38.8339 120.902L34.8499 117.254C35.6762 116.703 36.5337 116.2 37.4179 115.748C37.7379 115.578 38.1121 115.542 38.4585 115.648C38.8049 115.754 39.0953 115.993 39.2659 116.312L39.9199 117.536Z" fill="#7F3E3B"/>
<path d="M34.88 123.674L33.164 119.666L34.85 117.254L38.834 120.902L34.88 123.674Z" fill="#7F3E3B"/>
<path d="M77.9672 92.8041C80.0132 95.5581 82.1312 98.1441 84.3932 100.694C86.6631 103.28 89.0875 105.727 91.6532 108.02L91.7972 108.146L92.0852 108.38C92.2768 108.53 92.4772 108.668 92.6852 108.794C93.1088 109.024 93.5606 109.197 94.0292 109.31C94.7966 109.49 95.5922 109.515 96.3692 109.382C97.4891 109.181 98.5691 108.8 99.5672 108.254C101.185 107.357 102.702 106.289 104.091 105.068C106.701 102.795 109.082 100.274 111.201 97.5381L108.801 95.2641C106.305 97.2981 103.689 99.3261 101.073 101.048C99.8472 101.881 98.5454 102.596 97.1852 103.184C96.7013 103.402 96.1839 103.536 95.6552 103.58C95.5052 103.58 95.4332 103.55 95.5232 103.55C95.5882 103.555 95.6516 103.573 95.7092 103.604C95.7477 103.619 95.784 103.639 95.8172 103.664L95.8652 103.694L95.7872 103.61C94.6892 102.494 93.6272 101.294 92.5592 100.094C91.4912 98.8941 90.4592 97.6341 89.4212 96.3861C87.3572 93.8781 85.2872 91.2981 83.3012 88.7781L77.9672 92.8041Z" fill="#7F3E3B"/>
<path d="M111.074 90.032L115.748 90.986L113.45 95.078L109.292 91.856L111.074 90.032Z" fill="#7F3E3B"/>
<path d="M108.705 96.1162L109.305 91.8562L113.463 95.0782C113.463 95.0782 112.821 98.7862 109.863 98.7862L108.705 96.1162Z" fill="#7F3E3B"/>
<path d="M108.392 95.2642C108.511 95.2657 108.624 95.3136 108.708 95.3977C108.792 95.4817 108.84 95.5953 108.842 95.7142C108.845 95.7481 108.845 95.7822 108.842 95.8162C108.903 95.7848 108.971 95.7684 109.04 95.7682C109.159 95.7682 109.274 95.8156 109.358 95.9C109.442 95.9843 109.49 96.0988 109.49 96.2182C109.486 96.2613 109.476 96.3037 109.46 96.3442H109.49C109.609 96.3457 109.722 96.3936 109.806 96.4777C109.89 96.5617 109.938 96.6753 109.94 96.7942C109.937 96.8902 109.904 96.9829 109.844 97.0582C109.963 97.0582 110.078 97.1056 110.162 97.19C110.246 97.2744 110.294 97.3888 110.294 97.5082C110.29 97.6059 110.257 97.7002 110.198 97.7782C110.299 97.7975 110.389 97.8512 110.455 97.9299C110.521 98.0086 110.557 98.1077 110.558 98.2102C110.556 98.2794 110.538 98.3473 110.506 98.4086C110.474 98.47 110.428 98.5232 110.372 98.5642C110.459 98.5942 110.535 98.6508 110.589 98.7261C110.643 98.8014 110.672 98.8916 110.672 98.9842C110.672 99.1035 110.624 99.218 110.54 99.3024C110.456 99.3868 110.341 99.4342 110.222 99.4342C110.103 99.4342 109.988 99.3868 109.904 99.3024C109.819 99.218 109.772 99.1035 109.772 98.9842C109.771 98.9151 109.787 98.8468 109.819 98.7853C109.85 98.7237 109.896 98.6705 109.952 98.6302C109.866 98.5984 109.792 98.5412 109.739 98.4661C109.687 98.3911 109.658 98.3018 109.658 98.2102C109.661 98.1124 109.695 98.0181 109.754 97.9402C109.653 97.9208 109.562 97.8672 109.497 97.7884C109.431 97.7097 109.395 97.6106 109.394 97.5082C109.397 97.4122 109.431 97.3199 109.49 97.2442C109.431 97.245 109.372 97.2339 109.317 97.2116C109.262 97.1892 109.212 97.1561 109.17 97.1142C109.128 97.0722 109.095 97.0223 109.072 96.9673C109.05 96.9124 109.039 96.8535 109.04 96.7942C109.034 96.7524 109.034 96.71 109.04 96.6682C108.921 96.6682 108.806 96.6208 108.722 96.5364C108.637 96.452 108.59 96.3375 108.59 96.2182C108.587 96.1842 108.587 96.1501 108.59 96.1162C108.53 96.1468 108.465 96.1632 108.398 96.1642C108.279 96.1642 108.164 96.1168 108.08 96.0324C107.995 95.948 107.948 95.8335 107.948 95.7142C107.948 95.5948 107.995 95.4804 108.08 95.396C108.164 95.3116 108.279 95.2642 108.398 95.2642H108.392Z" fill="#263238"/>
<path d="M53.5405 88.238C52.1425 90.71 50.7985 93.206 49.4845 95.726C48.1705 98.246 46.8865 100.772 45.6325 103.322L45.1645 104.276L44.7685 105.056L44.3065 105.866L43.7845 106.7C43.0585 107.81 42.2845 108.95 41.4805 110.078L36.5905 116.93L38.9905 119.21C41.2432 117.387 43.3869 115.434 45.4105 113.36C46.4245 112.316 47.4265 111.242 48.4105 110.072L49.1245 109.178L49.8085 108.2C50.0305 107.852 50.2885 107.456 50.4805 107.138L51.0265 106.226C52.4905 103.826 53.9125 101.348 55.3165 98.888C56.7205 96.428 58.0825 93.944 59.3965 91.436L53.5405 88.238Z" fill="#7F3E3B"/>
<path d="M76.2395 71.192C76.1615 71.54 76.2875 71.864 76.5095 71.924C76.7315 71.984 76.9776 71.744 77.0556 71.396C77.1336 71.048 77.0016 70.718 76.7796 70.664C76.5575 70.61 76.3115 70.844 76.2395 71.192Z" fill="#263238"/>
<path d="M76.2575 71.8582C76.4414 73.0286 76.7825 74.1689 77.2715 75.2482C76.9957 75.3591 76.6988 75.4075 76.402 75.3899C76.1053 75.3722 75.8162 75.289 75.5555 75.1462L76.2575 71.8582Z" fill="#630F0F"/>
<path d="M77.1572 69.0742C77.1907 69.0742 77.2237 69.0667 77.2538 69.0521C77.284 69.0376 77.3104 69.0164 77.3312 68.9902C77.3472 68.9674 77.3584 68.9417 77.3643 68.9145C77.3702 68.8874 77.3707 68.8593 77.3657 68.8319C77.3607 68.8046 77.3503 68.7785 77.3351 68.7552C77.3199 68.7319 77.3002 68.7119 77.2772 68.6962C76.9972 68.5215 76.679 68.4172 76.3499 68.3921C76.0208 68.3671 75.6905 68.422 75.3872 68.5522C75.3363 68.5747 75.2961 68.6159 75.2749 68.6673C75.2536 68.7188 75.253 68.7764 75.2732 68.8282C75.2837 68.8539 75.2993 68.8773 75.3189 68.897C75.3385 68.9166 75.3618 68.9322 75.3874 68.9428C75.4131 68.9534 75.4406 68.9588 75.4684 68.9587C75.4962 68.9586 75.5236 68.953 75.5492 68.9422C75.7869 68.8384 76.046 68.7929 76.3049 68.8096C76.5637 68.8263 76.8148 68.9047 77.0372 69.0382C77.0728 69.0618 77.1146 69.0743 77.1572 69.0742Z" fill="#263238"/>
<path d="M64.2694 72.2961C63.8794 76.3521 64.4554 80.2761 63.5434 83.7981C63.5434 83.7981 64.5514 87.0681 70.5454 87.0681C77.1454 87.0681 73.5454 83.7981 73.5454 83.7981C69.9454 82.9401 69.9034 80.2761 70.4314 77.7681L64.2694 72.2961Z" fill="#7F3E3B"/>
<path d="M62.7268 84.9202C62.2108 83.8882 61.6468 82.7002 62.7268 82.3282C63.8908 81.9202 70.3528 81.5062 72.6148 82.2742C73.2175 82.4354 73.7337 82.825 74.054 83.3604C74.3744 83.8958 74.4736 84.5349 74.3308 85.1422L62.7268 84.9202Z" fill="#263238"/>
<path d="M49.8801 232.442C49.4646 232.345 49.0619 232.2 48.6801 232.01C48.6597 232.001 48.6425 231.985 48.6307 231.966C48.619 231.947 48.6132 231.925 48.6141 231.902C48.6179 231.88 48.6269 231.859 48.6405 231.842C48.6541 231.824 48.6718 231.81 48.6921 231.8C48.8841 231.734 50.6061 231.122 51.0921 231.5C51.1426 231.543 51.1809 231.598 51.2031 231.66C51.2252 231.722 51.2304 231.789 51.2181 231.854C51.207 231.967 51.1683 232.075 51.1055 232.169C51.0428 232.263 50.9578 232.341 50.8581 232.394C50.5483 232.526 50.2014 232.544 49.8801 232.442ZM49.0401 231.926C49.8021 232.256 50.4261 232.358 50.7261 232.196C50.794 232.159 50.8516 232.106 50.8936 232.041C50.9355 231.976 50.9604 231.901 50.9661 231.824C50.9661 231.734 50.9661 231.698 50.9241 231.68C50.6841 231.482 49.7301 231.698 49.0401 231.926Z" fill="#0078FF"/>
<path d="M48.7045 232.022L48.6505 231.992C48.6355 231.978 48.6249 231.959 48.6196 231.939C48.6143 231.919 48.6146 231.898 48.6205 231.878C48.6205 231.818 49.0405 230.486 49.6825 230.156C49.7584 230.113 49.8428 230.087 49.9298 230.079C50.0169 230.072 50.1045 230.084 50.1865 230.114C50.2701 230.132 50.345 230.178 50.3985 230.245C50.4521 230.312 50.481 230.395 50.4805 230.48C50.4805 231.026 49.2805 231.86 48.7645 232.016L48.7045 232.022ZM50.0665 230.312C49.9698 230.292 49.8692 230.31 49.7845 230.36C49.3658 230.715 49.0628 231.188 48.9145 231.716C49.4785 231.452 50.2465 230.798 50.2525 230.474C50.2525 230.444 50.2525 230.378 50.1145 230.33L50.0665 230.312Z" fill="#0078FF"/>
<path d="M80.7991 235.586C80.3738 235.577 79.951 235.519 79.5392 235.412C79.5177 235.407 79.4981 235.396 79.4831 235.38C79.4681 235.364 79.4583 235.344 79.4551 235.322C79.4505 235.3 79.4526 235.278 79.4612 235.258C79.4698 235.237 79.4844 235.22 79.5032 235.208C79.6772 235.094 81.2312 234.14 81.7652 234.416C81.8251 234.446 81.8754 234.493 81.9104 234.55C81.9453 234.607 81.9636 234.673 81.9632 234.74C81.9747 234.852 81.9588 234.965 81.917 235.07C81.8752 235.174 81.8087 235.267 81.7232 235.34C81.4526 235.526 81.1263 235.613 80.7991 235.586ZM79.8691 235.25C80.6852 235.418 81.3152 235.388 81.5792 235.166C81.6373 235.115 81.682 235.051 81.7092 234.979C81.7364 234.906 81.7453 234.829 81.7352 234.752C81.7352 234.662 81.6932 234.632 81.6632 234.62C81.3872 234.476 80.4992 234.89 79.8691 235.25Z" fill="#0078FF"/>
<path d="M79.5628 235.4C79.5432 235.405 79.5225 235.405 79.5028 235.4C79.4855 235.388 79.4715 235.372 79.462 235.353C79.4526 235.334 79.4481 235.313 79.4488 235.292C79.4488 235.232 79.5688 233.846 80.1328 233.39C80.199 233.333 80.2764 233.29 80.36 233.264C80.4437 233.238 80.5319 233.23 80.6188 233.24C80.7041 233.241 80.7865 233.272 80.852 233.326C80.9176 233.381 80.9623 233.456 80.9788 233.54C81.0808 234.08 80.1148 235.13 79.6168 235.4C79.5993 235.406 79.5803 235.406 79.5628 235.4ZM80.5348 233.444C80.4395 233.446 80.348 233.483 80.2768 233.546C79.9383 233.981 79.7395 234.508 79.7068 235.058C80.1988 234.68 80.8168 233.858 80.7568 233.564C80.7568 233.534 80.7568 233.468 80.5888 233.45H80.5348V233.444Z" fill="#0078FF"/>
<path d="M74.3781 235.244H78.7881L78.8301 225.038H74.4261L74.3781 235.244Z" fill="#7F3E3B"/>
<path d="M43.5749 230.936L47.8889 231.854L51.7949 222.248L47.4809 221.33L43.5749 230.936Z" fill="#7F3E3B"/>
<path d="M48.2778 231.416L43.4358 230.384C43.3517 230.367 43.2643 230.379 43.1879 230.419C43.1116 230.458 43.0509 230.522 43.0158 230.6L41.4978 234.284C41.4628 234.376 41.4481 234.475 41.4549 234.573C41.4617 234.671 41.4898 234.766 41.5371 234.852C41.5845 234.939 41.6501 235.014 41.7293 235.072C41.8085 235.13 41.8995 235.171 41.9958 235.19C43.6938 235.52 44.5278 235.598 46.6578 236.054C47.9718 236.33 50.6478 237.044 52.4538 237.428C54.2598 237.812 54.8118 236.06 54.1038 235.736C50.9058 234.296 49.8318 233.024 48.9318 231.83C48.7713 231.617 48.5389 231.47 48.2778 231.416Z" fill="#263238"/>
<path d="M78.7413 234.734H73.9413C73.8544 234.731 73.7694 234.76 73.7021 234.815C73.6348 234.871 73.5898 234.948 73.5753 235.034L72.8553 238.952C72.8386 239.049 72.8433 239.148 72.8691 239.242C72.895 239.336 72.9414 239.424 73.005 239.499C73.0686 239.573 73.1479 239.633 73.2371 239.673C73.3264 239.713 73.4234 239.733 73.5213 239.732C75.2553 239.732 77.7573 239.606 79.9413 239.606C82.4973 239.606 84.7053 239.744 87.6993 239.744C89.4993 239.744 89.9373 237.914 89.1753 237.746C85.6953 236.996 82.8753 236.912 79.8273 235.076C79.5032 234.865 79.1277 234.747 78.7413 234.734Z" fill="#263238"/>
<path d="M55.1372 84.8C51.0392 85.748 46.7372 97.01 46.7372 97.01L55.2512 102.698C57.2059 99.7342 58.9194 96.6182 60.3752 93.38C62.6012 88.22 59.3192 83.828 55.1372 84.8Z" fill="#0078FF"/>
<path opacity="0.2" d="M58.3704 92L54.8484 102.446L55.2504 102.716C55.2504 102.716 56.8584 100.316 58.5684 97.118L58.3704 92Z" fill="black"/>
<path d="M82.6353 104.486C82.5993 109.406 82.3053 115.526 81.5733 123.122H57.9933C57.6873 119.522 59.2833 101.846 55.1373 84.7941C57.7308 84.2914 60.3544 83.9587 62.9913 83.7981C66.3285 83.606 69.6741 83.606 73.0113 83.7981C75.3128 84.0219 77.5936 84.4231 79.8333 84.9981C79.8333 84.9981 81.8553 87.1821 82.4613 97.4241C82.5813 99.4701 82.6473 101.798 82.6353 104.486Z" fill="#0078FF"/>
<path opacity="0.2" d="M82.6353 104.486C81.2073 101.882 78.6153 96.656 78.9813 93.686L82.4613 97.454C82.5813 99.47 82.6473 101.798 82.6353 104.486Z" fill="black"/>
<path d="M75.2 89.0001C74.828 93.2001 84.35 103.304 84.35 103.304L92 97.0941C89.9988 93.7227 87.6018 90.6026 84.86 87.8001C80.396 83.4801 75.632 84.3021 75.2 89.0001Z" fill="#0078FF"/>
<g opacity="0.2">
<path opacity="0.2" d="M78.8301 225.038L78.8121 230.3H74.4021L74.4201 225.038H78.8301Z" fill="black"/>
<path opacity="0.2" d="M47.4809 221.336L51.7949 222.254L49.7789 227.204L45.4649 226.286L47.4809 221.336Z" fill="black"/>
</g>
<path d="M64.892 67.5502C64.25 71.8882 63.656 74.3902 65.324 77.1202C65.8542 78.014 66.6189 78.7457 67.5353 79.2359C68.4517 79.7261 69.4848 79.9562 70.5226 79.9012C71.5604 79.8462 72.5633 79.5082 73.4227 78.9238C74.2821 78.3395 74.9652 77.5311 75.398 76.5862C77.12 72.9862 77.888 66.4822 74.102 63.7342C73.3011 63.1168 72.3515 62.7216 71.349 62.5886C70.3465 62.4555 69.3267 62.5892 68.3924 62.9763C67.4582 63.3634 66.6426 63.9901 66.028 64.7932C65.4134 65.5963 65.0215 66.5473 64.892 67.5502Z" fill="#7F3E3B"/>
<path d="M72.8007 71.2101C74.9787 71.5761 76.2027 69.0741 74.5287 66.9321C77.7027 67.0761 79.0527 65.4501 77.6367 62.5461C76.4367 60.0441 72.6027 61.2681 72.6027 61.2681C72.6027 61.2681 69.4107 56.9781 65.6367 59.3661C61.5867 61.9281 63.7347 64.2981 63.7347 64.2981C63.7347 64.2981 57.9207 65.1021 59.4207 69.2781C59.6486 69.9173 60.0499 70.4803 60.5798 70.9042C61.1097 71.3281 61.7471 71.5961 62.4207 71.6781C62.4207 71.6781 60.9327 76.1541 65.3427 77.0781C69.7527 78.0021 74.2047 74.3181 72.8007 71.2101Z" fill="#263238"/>
<path d="M71.4622 70.0941C71.3836 71.1952 71.659 72.2925 72.2482 73.2261C73.0342 74.4261 74.1142 73.9761 74.4622 72.7221C74.7802 71.5941 74.7562 69.5961 73.6942 68.8041C72.6322 68.0121 71.6002 68.7741 71.4622 70.0941Z" fill="#7F3E3B"/>
<path d="M73.209 123.122C73.209 123.122 69.507 156.8 67.245 169.4C64.773 183.2 51.963 226.598 51.963 226.598L44.067 224.918C44.067 224.918 52.881 184.34 54.069 170.654C55.359 155.804 57.993 123.098 57.993 123.098L73.209 123.122Z" fill="#263238"/>
<path d="M53.7259 223.958C53.7619 223.958 52.3819 226.844 52.3819 226.844L43.5018 224.954L44.1378 222.26L53.7259 223.958Z" fill="#0078FF"/>
<path opacity="0.2" d="M70.5084 135.122C64.7664 136.256 66.2124 157.826 67.3344 168.92C68.7024 161.078 70.5624 145.988 71.8164 135.278C71.4104 135.08 70.9495 135.025 70.5084 135.122Z" fill="black"/>
<path d="M81.5659 123.122C81.5659 123.122 83.4499 156.08 83.4859 169.52C83.5279 183.5 80.4139 229.28 80.4139 229.28H72.9439C72.9439 229.28 70.9339 184.316 70.0759 170.588C69.1339 155.588 66.0679 123.122 66.0679 123.122H81.5659Z" fill="#263238"/>
<path d="M82.635 120.002C82.6564 121.067 82.4751 122.125 82.101 123.122C82.2759 124.022 82.3663 124.936 82.371 125.852C79.971 126.698 57.303 127.748 57.351 125.852C57.399 123.956 57.351 123.122 57.351 123.122C57.351 123.122 56.751 120.452 57.351 120.002C57.951 119.552 82.467 118.4 82.635 120.002Z" fill="#0078FF"/>
<path opacity="0.3" d="M82.635 120.002C82.6564 121.067 82.4751 122.125 82.101 123.122C82.2759 124.022 82.3663 124.936 82.371 125.852C79.971 126.698 57.303 127.748 57.351 125.852C57.399 123.956 57.351 123.122 57.351 123.122C57.351 123.122 56.751 120.452 57.351 120.002C57.951 119.552 82.467 118.4 82.635 120.002Z" fill="black"/>
<path d="M81.7336 226.304C81.7696 226.304 81.4336 229.406 81.4336 229.406H72.3496L71.9956 226.64L81.7336 226.304Z" fill="#0078FF"/>
</g>
<defs>
<clipPath id="clip0">
<rect width="280" height="280" fill="white" transform="matrix(-1 0 0 1 280 0)"/>
</clipPath>
</defs>
</svg>
