<svg width="337" height="312" viewBox="0 0 337 312" fill="none" xmlns="http://www.w3.org/2000/svg">
<path d="M323.92 282.792H297.424V282.992H323.92V282.792Z" fill="#EBEBEB"/>
<path d="M287.351 282.792H230.703V282.992H287.351V282.792Z" fill="#EBEBEB"/>
<path d="M199.463 275.368H184.111V275.568H199.463V275.368Z" fill="#EBEBEB"/>
<path d="M33.4007 276.712H5.96875V276.912H33.4007V276.712Z" fill="#EBEBEB"/>
<path d="M90.3995 276.712H40.5195V276.912H90.3995V276.712Z" fill="#EBEBEB"/>
<path d="M144.112 280.088H114.664V280.288H144.112V280.088Z" fill="#EBEBEB"/>
<path d="M24.6724 118.576L133.232 118.576V24.5199L24.6724 24.5199L24.6724 118.576Z" fill="#E6E6E6"/>
<path d="M22.2486 118.576L130.809 118.576V24.5199L22.2486 24.5199L22.2486 118.576Z" fill="#F5F5F5"/>
<path d="M126.48 115.216V27.8801L26.5845 27.8801V115.216H126.48Z" fill="#FAFAFA"/>
<path d="M86.4167 115.216L104.521 27.8801H66.6487L48.5527 115.216H86.4167Z" fill="white"/>
<path d="M28.4082 115.224L28.4082 27.8879H26.5842L26.5842 115.224H28.4082Z" fill="#E6E6E6"/>
<path d="M24.0396 99.5601L129.016 99.5601V95.0481L24.0396 95.0481V99.5601Z" fill="#F5F5F5"/>
<path d="M128.191 265.16H145.527V189.984H128.191V265.16Z" fill="#F0F0F0"/>
<path d="M14.985 269.92H142.209V265.16H14.985V269.92Z" fill="#F0F0F0"/>
<path d="M128.192 189.976H11.6484V265.152H128.192V189.976Z" fill="#F5F5F5"/>
<path d="M121.385 199.232H18.4648V223.888H121.385V199.232Z" fill="#F0F0F0"/>
<path d="M121.385 231.248H18.4648V255.904H121.385V231.248Z" fill="#F0F0F0"/>
<path d="M42.1841 213.248H97.6641C98.1111 213.246 98.5393 213.067 98.8554 212.751C99.1715 212.435 99.35 212.007 99.3521 211.56C99.35 211.112 99.1717 210.683 98.8559 210.366C98.54 210.049 98.1119 209.868 97.6641 209.864H42.1841C41.7363 209.868 41.3082 210.049 40.9923 210.366C40.6764 210.683 40.4982 211.112 40.4961 211.56C40.4982 212.007 40.6767 212.435 40.9928 212.751C41.3089 213.067 41.7371 213.246 42.1841 213.248Z" fill="#F5F5F5"/>
<path d="M42.1841 245.264H97.6641C98.1111 245.262 98.5393 245.083 98.8554 244.767C99.1715 244.451 99.35 244.023 99.3521 243.576C99.3521 243.128 99.1745 242.698 98.8582 242.38C98.5418 242.062 98.1125 241.882 97.6641 241.88H42.1841C41.7357 241.882 41.3063 242.062 40.99 242.38C40.6737 242.698 40.4961 243.128 40.4961 243.576C40.4982 244.023 40.6767 244.451 40.9928 244.767C41.3089 245.083 41.7371 245.262 42.1841 245.264Z" fill="#F5F5F5"/>
<path d="M317.423 260.944C327.295 258.224 330.671 240.312 305.727 233C311.231 251.016 300.215 265.664 317.423 260.944Z" fill="#EBEBEB"/>
<path d="M319.608 268.72C327.392 260.312 320.032 241.288 292 249.064C307.856 262.936 306.048 283.384 319.608 268.72Z" fill="#E0E0E0"/>
<path d="M311.928 270.88C305.416 264.432 314.744 241.992 336.248 252.392C324.064 264.064 323.328 282.12 311.928 270.88Z" fill="#F3F3F3"/>
<path d="M305.432 283.44H324.384L325.816 270.616H304.008L305.432 283.44Z" fill="#E6E6E6"/>
<path d="M164.001 306.048C249.667 306.048 319.113 301.993 319.113 296.992C319.113 291.991 249.667 287.936 164.001 287.936C78.3347 287.936 8.88867 291.991 8.88867 296.992C8.88867 301.993 78.3347 306.048 164.001 306.048Z" fill="#F5F5F5"/>
<path d="M192.997 90.9042C192.853 93.3042 192.573 95.5042 192.261 97.7842C191.949 100.064 191.525 102.296 191.045 104.536C190.109 109.07 188.757 113.507 187.005 117.792L186.277 119.392L186.101 119.792L186.037 120L185.909 120.256C185.664 120.758 185.355 121.226 184.989 121.648C184.553 122.139 184.032 122.548 183.453 122.856C182.884 123.155 182.266 123.35 181.629 123.432C180.65 123.537 179.661 123.433 178.725 123.128C177.399 122.676 176.148 122.029 175.013 121.208C174.02 120.508 173.071 119.746 172.173 118.928C168.806 115.806 165.776 112.339 163.133 108.584L165.781 106.336C167.381 107.816 168.981 109.312 170.581 110.728C172.172 112.144 173.832 113.479 175.557 114.728C176.369 115.309 177.213 115.843 178.085 116.328C178.788 116.755 179.547 117.081 180.341 117.296C180.613 117.352 180.805 117.296 180.717 117.296C180.528 117.317 180.351 117.399 180.213 117.528C180.165 117.528 180.165 117.528 180.213 117.528L180.469 116.864L181.029 115.408C182.417 111.4 183.5 107.292 184.269 103.12C184.693 101.024 184.989 98.8882 185.309 96.7682C185.629 94.6482 185.853 92.4642 186.037 90.4402L192.997 90.9042Z" fill="#FFC3BD"/>
<path d="M188.148 82.0963C185.164 82.8563 183.076 95.1283 183.076 95.1283L191.292 100.728C191.292 100.728 199.172 88.3523 196.892 85.0723C194.492 81.6403 192.5 80.9923 188.148 82.0963Z" fill="#0078FF"/>
<path d="M188.148 82.0963C185.164 82.8563 183.076 95.1283 183.076 95.1283L191.292 100.728C191.292 100.728 199.172 88.3523 196.892 85.0723C194.492 81.6403 192.5 80.9923 188.148 82.0963Z" fill="#0078FF"/>
<path opacity="0.4" d="M188.148 82.0963C185.164 82.8563 183.076 95.1283 183.076 95.1283L191.292 100.728C191.292 100.728 199.172 88.3523 196.892 85.0723C194.492 81.6403 192.5 80.9923 188.148 82.0963Z" fill="#0078FF"/>
<path opacity="0.3" d="M188.413 84.8403L186.125 97.2003L190.741 100.336L188.413 84.8403Z" fill="black"/>
<path d="M165.916 105.832L162.036 99.6562L159.82 106.672C159.82 106.672 163.02 110.032 165.924 109.232L165.916 105.832Z" fill="#FFC3BD"/>
<path d="M156.276 97.6162L154.74 103.584L159.788 106.672L162.004 99.6562L156.276 97.6162Z" fill="#FFC3BD"/>
<path d="M204.277 288.6H197.045L196.557 271.848H203.797L204.277 288.6Z" fill="#FFC3BD"/>
<path d="M268.108 255L262.596 259.688L249.98 248.424L255.492 243.744L268.108 255Z" fill="#FFC3BD"/>
<path d="M261.084 259.128L266.436 253C266.527 252.895 266.654 252.826 266.792 252.807C266.931 252.788 267.071 252.819 267.188 252.896L272.636 256.424C272.77 256.517 272.883 256.638 272.968 256.778C273.052 256.919 273.106 257.075 273.126 257.237C273.145 257.4 273.13 257.565 273.082 257.721C273.033 257.877 272.952 258.021 272.844 258.144C270.94 260.248 269.916 261.168 267.564 263.856C266.124 265.512 264.18 268.088 262.18 270.368C260.18 272.648 257.812 270.808 258.444 269.672C261.252 264.6 260.58 262.824 260.628 260.328C260.635 259.887 260.797 259.463 261.084 259.128Z" fill="#263238"/>
<path d="M196.797 287.768H204.925C205.064 287.767 205.2 287.816 205.306 287.908C205.412 287.999 205.481 288.126 205.501 288.264L206.429 294.664C206.455 294.833 206.443 295.006 206.394 295.17C206.346 295.334 206.262 295.486 206.148 295.613C206.034 295.741 205.893 295.842 205.735 295.909C205.578 295.976 205.408 296.007 205.237 296C202.405 295.952 201.037 295.784 197.461 295.784C195.261 295.784 190.717 296.016 187.677 296.016C184.637 296.016 184.477 293.008 185.749 292.744C191.413 291.52 193.645 289.84 195.557 288.232C195.9 287.933 196.341 287.768 196.797 287.768Z" fill="#263238"/>
<path opacity="0.2" d="M196.564 271.856L196.812 280.488H204.044L203.796 271.856H196.564Z" fill="black"/>
<path opacity="0.2" d="M255.5 243.744L249.98 248.424L256.492 254.232L262.004 249.544L255.5 243.744Z" fill="black"/>
<path d="M188.148 82.0963C188.148 82.0963 184.7 83.3123 191.604 125.76H220.98C220.492 113.8 220.476 106.424 226.188 81.8883C222.076 81.0404 217.908 80.4896 213.716 80.2403C209.274 79.9238 204.814 79.9238 200.372 80.2403C194.644 80.8003 188.148 82.0963 188.148 82.0963Z" fill="#0078FF"/>
<path opacity="0.4" d="M188.148 82.0963C188.148 82.0963 184.7 83.3123 191.604 125.76H220.98C220.492 113.8 220.476 106.424 226.188 81.8883C222.076 81.0404 217.908 80.4896 213.716 80.2403C209.274 79.9238 204.814 79.9238 200.372 80.2403C194.644 80.8003 188.148 82.0963 188.148 82.0963Z" fill="#0078FF"/>
<path d="M213.716 80.2403C209.274 79.9238 204.814 79.9238 200.372 80.2403C199.652 80.3043 198.916 80.3843 198.188 80.4723C197.887 80.927 197.694 81.4448 197.625 81.9857C197.555 82.5267 197.611 83.0764 197.788 83.5923C198.724 85.9203 202.1 86.1923 204.564 86.1923C213.66 86.1923 215.196 80.8803 215.26 80.6563L215.348 80.3363C214.836 80.3043 214.26 80.2643 213.716 80.2403Z" fill="white"/>
<path d="M212.437 65.2241C211.589 69.5121 210.757 77.3761 213.757 80.2401C213.757 80.2401 212.581 84.6001 204.605 84.6001C195.805 84.6001 200.413 80.2481 200.413 80.2481C205.213 79.1041 205.077 75.5521 204.245 72.2481L212.437 65.2241Z" fill="#FFC3BD"/>
<path opacity="0.2" d="M209.053 68.0723L204.205 72.2083C204.414 72.9945 204.553 73.7976 204.621 74.6083C206.445 74.3443 208.957 72.3363 209.157 70.4243C209.269 69.6406 209.234 68.8429 209.053 68.0723Z" fill="black"/>
<path d="M207.403 41.8802C206.659 39.3602 206.035 35.3922 210.515 33.6002C208.763 31.4562 208.339 27.4242 210.515 25.0322C212.691 22.6402 215.955 23.5202 215.955 23.5202C215.955 23.5202 216.915 17.6722 224.027 18.7202C231.139 19.7682 227.971 24.4482 227.971 24.4482C227.971 24.4482 237.675 22.5282 238.323 31.6482C238.971 40.7682 233.403 39.6482 233.403 39.6482C233.403 39.6482 237.731 43.2802 235.331 47.2722C232.931 51.2642 227.387 49.8882 227.387 49.8882C227.387 49.8882 224.779 56.9442 218.635 52.9282C212.491 48.9122 207.403 41.8802 207.403 41.8802Z" fill="#263238"/>
<path d="M192.996 47.2002C190.596 50.3042 191.652 53.8162 193.796 55.2002C198.956 58.4962 206.42 44.6722 204.476 43.0162C202.532 41.3602 195.396 44.0882 192.996 47.2002Z" fill="#263238"/>
<path d="M214.668 39.8082C211.276 38.4402 207.836 39.8722 206.764 41.9362C204.148 46.9682 216.028 56.0322 219.468 49.7442C221.508 46.0082 218.164 41.2162 214.668 39.8082Z" fill="#0078FF"/>
<path d="M213.235 55.2002C213.483 62.4002 213.739 65.4082 210.483 69.4162C205.595 75.4402 196.723 74.1762 194.339 67.2162C192.195 60.9522 192.155 50.2722 198.867 46.7682C200.343 45.9877 201.993 45.5974 203.662 45.6342C205.331 45.6711 206.962 46.1339 208.402 46.9787C209.842 47.8235 211.041 49.0223 211.887 50.4613C212.733 51.9002 213.197 53.5315 213.235 55.2002Z" fill="#FFC3BD"/>
<path d="M212.155 58.9681C208.955 57.7761 208.155 54.0401 208.667 52.5681C207.067 52.5041 203.571 51.9281 202.267 49.9441C199.771 51.5441 194.499 53.1441 193.931 50.4801C193.363 47.8161 201.315 40.9681 207.331 40.4401C214.483 39.8161 221.539 46.8401 219.723 53.5681C217.907 60.2961 212.155 58.9681 212.155 58.9681Z" fill="#263238"/>
<path d="M191.637 125.76C191.637 125.76 185.933 181.48 186.405 203.544C186.901 226.488 195.309 278.816 195.309 278.816H205.085C205.085 278.816 203.541 227.824 204.405 205.296C205.349 180.728 213.149 125.76 213.149 125.76H191.637Z" fill="#263238"/>
<path d="M205.9 279.168H194.428L193.58 275.512L206.436 275.064L205.9 279.168Z" fill="#0078FF"/>
<path opacity="0.2" d="M204.277 139.624C197.077 154.136 202.829 180.616 205.381 190.472C206.685 175.672 208.893 157.584 210.613 144.304C209.525 136.8 207.637 132.928 204.277 139.624Z" fill="black"/>
<path d="M199.363 125.76C199.363 125.76 206.019 183.688 211.043 202.288C217.011 224.368 254.075 254.088 254.075 254.088L261.595 247.688C261.595 247.688 234.731 215.4 230.163 203.768C220.427 178.968 228.763 141.944 220.979 125.744L199.363 125.76Z" fill="#263238"/>
<path d="M262.797 247.36L253.468 255.28L249.98 253.192L260.532 243.376L262.797 247.36Z" fill="#0078FF"/>
<path d="M202.589 58.2082C202.645 58.7922 202.381 59.2882 202.005 59.3282C201.629 59.3682 201.269 58.9202 201.205 58.3442C201.141 57.7682 201.413 57.2562 201.797 57.2242C202.181 57.1922 202.533 57.6002 202.589 58.2082Z" fill="#263238"/>
<path d="M196.028 58.8402C196.084 59.4162 195.82 59.9202 195.436 59.9602C195.052 60.0002 194.708 59.5522 194.636 58.9682C194.564 58.3842 194.844 57.8882 195.22 57.8562C195.596 57.8242 195.972 58.2562 196.028 58.8402Z" fill="#263238"/>
<path d="M195.405 57.8721L193.973 57.6001C193.973 57.6001 194.837 58.6241 195.405 57.8721Z" fill="#263238"/>
<path d="M197.853 59.6721C197.463 61.0456 196.887 62.3592 196.141 63.5761C196.458 63.7587 196.811 63.8704 197.176 63.9035C197.54 63.9366 197.908 63.8905 198.253 63.7681L197.853 59.6721Z" fill="#ED847E"/>
<path d="M199.369 65.665C199.066 65.8707 198.782 66.1025 198.519 66.3577C198.501 66.3748 198.487 66.3953 198.477 66.418C198.467 66.4406 198.462 66.465 198.462 66.4898C198.461 66.5145 198.466 66.5391 198.475 66.5621C198.484 66.585 198.498 66.606 198.515 66.6237C198.55 66.6605 198.598 66.6821 198.649 66.684C198.7 66.686 198.75 66.668 198.788 66.634C199.357 66.059 200.054 65.6257 200.821 65.369C201.589 65.1122 202.406 65.0392 203.206 65.1557C203.231 65.1633 203.257 65.1654 203.282 65.1621C203.308 65.1587 203.332 65.1498 203.354 65.1361C203.376 65.1224 203.394 65.1041 203.409 65.0826C203.423 65.061 203.432 65.0367 203.435 65.0112C203.445 64.9618 203.436 64.9104 203.409 64.8678C203.382 64.8252 203.34 64.7945 203.291 64.7822C201.919 64.5555 200.512 64.8722 199.369 65.665Z" fill="#263238"/>
<path d="M214.916 60.1683C214.741 61.545 214.028 62.7963 212.932 63.6483C211.468 64.7683 210.06 63.6483 209.892 61.8963C209.748 60.2963 210.324 57.8963 212.068 57.4323C212.449 57.3548 212.843 57.3708 213.216 57.479C213.589 57.5871 213.93 57.7842 214.21 58.0533C214.49 58.3224 214.701 58.6554 214.824 59.0238C214.947 59.3922 214.978 59.7849 214.916 60.1683Z" fill="#FFC3BD"/>
<path d="M203.291 54.0961C203.247 54.1074 203.201 54.1096 203.155 54.1028C203.11 54.0959 203.066 54.08 203.027 54.0561C202.665 53.8246 202.252 53.6822 201.824 53.6405C201.396 53.5988 200.964 53.659 200.563 53.8161C200.48 53.8531 200.386 53.8571 200.3 53.8274C200.214 53.7977 200.142 53.7365 200.099 53.6561C200.061 53.5743 200.056 53.4806 200.086 53.3953C200.116 53.3099 200.178 53.2398 200.259 53.2001C200.763 52.992 201.31 52.9081 201.853 52.9555C202.396 53.0028 202.919 53.18 203.379 53.4721C203.417 53.4951 203.45 53.5253 203.477 53.5611C203.503 53.597 203.522 53.6376 203.532 53.6808C203.542 53.7239 203.544 53.7687 203.537 53.8125C203.53 53.8563 203.515 53.8983 203.491 53.9361C203.447 54.0127 203.376 54.0698 203.291 54.0961Z" fill="#263238"/>
<path d="M192.811 56.0881C192.729 56.1195 192.638 56.1195 192.555 56.0881C192.478 56.0428 192.42 55.9694 192.395 55.8832C192.37 55.7969 192.378 55.7042 192.419 55.6241C192.663 55.1372 193.021 54.7164 193.463 54.3975C193.904 54.0785 194.416 53.8709 194.955 53.7921C195 53.7877 195.045 53.7924 195.088 53.8058C195.131 53.8192 195.171 53.8411 195.205 53.8702C195.24 53.8993 195.268 53.935 195.288 53.9752C195.308 54.0154 195.32 54.0592 195.323 54.1041C195.33 54.1941 195.301 54.2832 195.243 54.352C195.184 54.4208 195.101 54.464 195.011 54.4721C194.587 54.5435 194.185 54.714 193.839 54.9698C193.493 55.2256 193.212 55.5594 193.019 55.9441C192.997 55.9813 192.966 56.0133 192.931 56.0381C192.895 56.063 192.854 56.08 192.811 56.0881Z" fill="#263238"/>
<path d="M229.188 89.6882C230.819 93.6787 232.226 97.7571 233.404 101.904C234.652 106.088 235.54 110.37 236.06 114.704C236.196 115.808 236.236 116.968 236.284 118.112V118.76C236.284 118.992 236.244 119.232 236.212 119.44C236.145 119.84 236.054 120.235 235.94 120.624C235.731 121.29 235.464 121.935 235.14 122.552C234.031 124.603 232.671 126.509 231.092 128.224C228.172 131.432 224.958 134.36 221.492 136.968L219.18 134.4C221.844 131.288 224.532 128.096 226.812 124.8C227.913 123.304 228.852 121.695 229.612 120C229.742 119.672 229.849 119.335 229.932 118.992C229.953 118.876 229.967 118.758 229.972 118.64C229.976 118.606 229.976 118.571 229.972 118.536V118.424C229.868 117.48 229.796 116.536 229.62 115.568C228.931 111.616 227.972 107.716 226.748 103.896C225.524 100.024 224.156 96.0962 222.748 92.3522L229.188 89.6882Z" fill="#FFC3BD"/>
<path d="M226.189 81.8882C229.133 82.7842 232.669 92.9202 232.669 92.9202L221.237 101.08C221.237 101.08 217.069 92.6242 218.309 88.8162C219.637 84.8562 222.837 80.8642 226.189 81.8882Z" fill="#0078FF"/>
<path opacity="0.4" d="M226.189 81.8882C229.133 82.7842 232.669 92.9202 232.669 92.9202L221.237 101.08C221.237 101.08 217.069 92.6242 218.309 88.8162C219.637 84.8562 222.837 80.8642 226.189 81.8882Z" fill="#0078FF"/>
<path d="M259.109 262.616C258.961 262.612 258.816 262.575 258.684 262.507C258.552 262.439 258.438 262.342 258.349 262.224C258.276 262.149 258.225 262.057 258.199 261.956C258.174 261.854 258.176 261.748 258.205 261.648C258.477 260.768 260.989 260.048 261.277 259.968C261.308 259.957 261.342 259.956 261.374 259.966C261.406 259.977 261.434 259.997 261.453 260.024C261.471 260.052 261.48 260.083 261.48 260.116C261.48 260.149 261.471 260.181 261.453 260.208C261.005 261.064 260.117 262.504 259.205 262.608L259.109 262.616ZM260.965 260.416C259.973 260.736 258.677 261.288 258.565 261.752C258.553 261.796 258.553 261.843 258.566 261.886C258.579 261.93 258.603 261.969 258.637 262C258.701 262.092 258.787 262.165 258.889 262.213C258.99 262.261 259.101 262.281 259.213 262.272C259.677 262.216 260.325 261.528 260.965 260.416Z" fill="#0078FF"/>
<path d="M260.173 260.448C259.424 260.524 258.675 260.313 258.076 259.856C257.993 259.75 257.947 259.619 257.947 259.484C257.947 259.349 257.993 259.218 258.076 259.112C258.148 259.001 258.243 258.908 258.355 258.838C258.467 258.769 258.593 258.726 258.724 258.712C259.764 258.584 261.341 259.944 261.405 260C261.428 260.019 261.446 260.044 261.455 260.072C261.465 260.1 261.467 260.131 261.461 260.16C261.457 260.191 261.445 260.221 261.425 260.245C261.405 260.269 261.378 260.287 261.349 260.296C260.966 260.405 260.57 260.456 260.173 260.448ZM258.9 259.048H258.789C258.707 259.057 258.628 259.084 258.557 259.127C258.487 259.17 258.426 259.228 258.38 259.296C258.26 259.48 258.3 259.576 258.38 259.64C258.692 260.048 260.116 260.2 260.981 260.04C260.389 259.528 259.67 259.185 258.9 259.048Z" fill="#0078FF"/>
<path d="M194.076 289.032C193.457 289.088 192.839 288.93 192.324 288.584C192.213 288.484 192.128 288.359 192.074 288.221C192.02 288.082 191.998 287.933 192.012 287.784C192.018 287.689 192.049 287.598 192.1 287.518C192.152 287.438 192.224 287.373 192.308 287.328C193.196 286.84 196.076 288.312 196.404 288.488C196.434 288.505 196.459 288.531 196.474 288.563C196.49 288.594 196.496 288.629 196.492 288.664C196.487 288.699 196.471 288.732 196.447 288.758C196.423 288.784 196.391 288.802 196.356 288.808C195.604 288.952 194.841 289.027 194.076 289.032ZM192.788 287.536C192.677 287.529 192.567 287.551 192.468 287.6C192.433 287.617 192.405 287.643 192.385 287.676C192.365 287.708 192.355 287.746 192.356 287.784C192.342 287.884 192.354 287.986 192.389 288.081C192.423 288.176 192.481 288.26 192.556 288.328C192.996 288.728 194.156 288.792 195.756 288.528C194.83 288.031 193.826 287.695 192.788 287.536Z" fill="#0078FF"/>
<path d="M196.323 288.8H196.251C195.387 288.408 193.683 286.848 193.851 286.032C193.851 285.84 194.019 285.592 194.491 285.544C194.662 285.526 194.834 285.543 194.998 285.594C195.162 285.645 195.313 285.729 195.443 285.84C196.347 286.6 196.515 288.544 196.523 288.632C196.526 288.662 196.52 288.691 196.508 288.718C196.495 288.744 196.476 288.767 196.451 288.784C196.433 288.796 196.411 288.804 196.389 288.806C196.367 288.809 196.345 288.807 196.323 288.8ZM194.595 285.864H194.499C194.179 285.864 194.163 286.024 194.155 286.064C194.075 286.552 195.235 287.784 196.115 288.312C196.044 287.49 195.72 286.711 195.187 286.08C195.025 285.931 194.815 285.846 194.595 285.84V285.864Z" fill="#0078FF"/>
<path d="M221.419 124L222.171 126.632C222.275 126.832 222.035 127.04 221.691 127.04H191.459C191.195 127.04 190.971 126.912 190.955 126.744L190.691 124.12C190.691 123.936 190.899 123.784 191.195 123.784H220.947C221.038 123.776 221.129 123.792 221.212 123.83C221.294 123.868 221.366 123.927 221.419 124Z" fill="#0078FF"/>
<path opacity="0.3" d="M221.419 124L222.171 126.632C222.275 126.832 222.035 127.04 221.691 127.04H191.459C191.195 127.04 190.971 126.912 190.955 126.744L190.691 124.12C190.691 123.936 190.899 123.784 191.195 123.784H220.947C221.038 123.776 221.129 123.792 221.212 123.83C221.294 123.868 221.366 123.927 221.419 124Z" fill="white"/>
<path d="M217.428 127.36H218.227C218.379 127.36 218.5 127.28 218.492 127.176L218.116 123.76C218.116 123.664 217.972 123.576 217.812 123.576H217.012C216.852 123.576 216.732 123.664 216.748 123.76L217.116 127.176C217.132 127.28 217.236 127.36 217.428 127.36Z" fill="#263238"/>
<path d="M193.7 127.36H194.5C194.66 127.36 194.78 127.28 194.772 127.176L194.396 123.76C194.396 123.664 194.244 123.576 194.092 123.576H193.292C193.132 123.576 193.012 123.664 193.02 123.76L193.396 127.176C193.404 127.28 193.54 127.36 193.7 127.36Z" fill="#263238"/>
<path d="M205.564 127.36H206.364C206.524 127.36 206.644 127.28 206.636 127.176L206.26 123.76C206.26 123.664 206.116 123.576 205.956 123.576H205.156C204.996 123.576 204.876 123.664 204.892 123.76L205.236 127.2C205.236 127.28 205.404 127.36 205.564 127.36Z" fill="#263238"/>
<path d="M219.949 133.6L212.221 134.776L217.749 139.624C217.749 139.624 222.117 138.024 222.549 135.064L219.949 133.6Z" fill="#FFC3BD"/>
<path d="M208.045 139.216L212.901 143.024L218.829 139.152L212.221 134.792L208.045 139.216Z" fill="#FFC3BD"/>
<path d="M309.027 176.089L275.567 159.437L296.943 116.486L321.79 128.85L326.33 141.323L309.027 176.089Z" fill="#EBEBEB"/>
<path d="M321.789 128.85L326.329 141.323L317.712 137.036L321.789 128.85Z" fill="#DBDBDB"/>
<path d="M296.735 151.59L297.149 150.581C297.943 148.454 299.725 146.591 302.719 145.297C305.404 144.159 307.06 143.194 307.912 141.505C308.873 139.601 308.32 137.731 305.989 136.508C304.647 135.823 303.13 135.563 301.637 135.762L301.929 132.962C303.622 132.691 306.037 133.163 308.011 134.169C312.301 136.338 312.903 139.966 311.476 142.802C310.196 145.339 307.857 146.45 304.992 147.673C302.37 148.783 300.947 150.123 300.097 152.08L299.645 153.07L296.735 151.59ZM293.277 156.396C293.974 155.016 295.396 154.516 296.7 155.177C298.005 155.837 298.414 157.257 297.716 158.64C297.055 159.944 295.691 160.516 294.311 159.82C292.994 159.155 292.608 157.695 293.266 156.389L293.277 156.396Z" fill="#DBDBDB"/>
<path d="M210.272 147.64C210.978 145.713 212.251 144.045 213.923 142.856C215.595 141.666 217.588 141.011 219.64 140.976H283.68C284.787 140.935 285.889 141.137 286.909 141.568C287.929 141.999 288.842 142.648 289.584 143.471C290.325 144.293 290.877 145.268 291.201 146.327C291.524 147.386 291.612 148.504 291.456 149.6L274.912 288.408C274.561 290.771 273.381 292.932 271.583 294.505C269.784 296.077 267.485 296.959 265.096 296.992H61.8962C60.7934 297.034 59.6947 296.834 58.6776 296.405C57.6605 295.977 56.7496 295.331 56.0091 294.513C55.2685 293.694 54.7164 292.724 54.3914 291.669C54.0665 290.614 53.9766 289.501 54.1282 288.408L68.0002 171.784C68.3513 169.421 69.5316 167.26 71.33 165.687C73.1283 164.115 75.4275 163.233 77.8162 163.2H188.392C193.184 163.118 197.838 161.588 201.744 158.811C205.649 156.034 208.622 152.139 210.272 147.64Z" fill="#0078FF"/>
<path d="M164.112 156.656C164.123 155.728 164.322 154.811 164.695 153.961C165.069 153.112 165.609 152.345 166.285 151.709C166.96 151.072 167.757 150.578 168.627 150.255C169.498 149.933 170.424 149.789 171.352 149.832H235.391C237.871 149.927 240.249 150.843 242.151 152.436C244.054 154.028 245.374 156.208 245.903 158.632L271.207 288.232C272.151 293.088 268.983 297.032 264.127 297.032H60.9275C56.0635 297.032 51.3275 293.088 50.4075 288.232L29.5355 181.392C28.5915 176.536 31.7595 172.592 36.6155 172.592H147.2C156.8 172.592 163.784 165.984 164.112 156.656Z" fill="#0078FF"/>
<path opacity="0.2" d="M164.112 156.656C164.123 155.728 164.322 154.811 164.695 153.961C165.069 153.112 165.609 152.345 166.285 151.709C166.96 151.072 167.757 150.578 168.627 150.255C169.498 149.933 170.424 149.789 171.352 149.832H235.391C237.871 149.927 240.249 150.843 242.151 152.436C244.054 154.028 245.374 156.208 245.903 158.632L271.207 288.232C272.151 293.088 268.983 297.032 264.127 297.032H60.9275C56.0635 297.032 51.3275 293.088 50.4075 288.232L29.5355 181.392C28.5915 176.536 31.7595 172.592 36.6155 172.592H147.2C156.8 172.592 163.784 165.984 164.112 156.656Z" fill="black"/>
<path d="M168.506 133.399L117.52 150.084L96.1025 84.6364L133.963 72.244L151.17 80.4221L168.506 133.399Z" fill="#EBEBEB"/>
<path d="M133.963 72.2439L151.171 80.4219L138.041 84.7197L133.963 72.2439Z" fill="#DBDBDB"/>
<path d="M131.257 120.735L130.663 119.286C129.332 116.312 129.278 112.612 131.035 108.272C132.633 104.404 133.354 101.75 132.524 99.1635C131.588 96.2496 129.139 94.8936 125.522 95.992C123.462 96.6438 121.648 97.9069 120.323 99.6137L117.8 96.4566C119.257 94.4742 122.203 92.524 125.234 91.5631C131.805 89.4594 136.075 92.5617 137.475 96.899C138.721 100.783 137.449 104.276 135.753 108.412C134.189 112.188 134.085 114.992 135.188 117.848L135.723 119.317L131.257 120.735ZM132.563 129.132C131.885 127.019 132.835 125.075 134.835 124.437C136.834 123.798 138.683 124.837 139.362 126.954C140 128.954 139.183 130.913 137.07 131.59C135.053 132.238 133.188 131.135 132.545 129.137L132.563 129.132Z" fill="#DBDBDB"/>
<g style="mix-blend-mode:multiply">
<path d="M118.578 242.502C121.924 242.502 124.637 239.79 124.637 236.444C124.637 233.098 121.924 230.385 118.578 230.385C115.232 230.385 112.52 233.098 112.52 236.444C112.52 239.79 115.232 242.502 118.578 242.502Z" fill="#636363"/>
</g>
<g style="mix-blend-mode:multiply">
<path d="M166.475 242.502C169.821 242.502 172.533 239.79 172.533 236.444C172.533 233.098 169.821 230.385 166.475 230.385C163.129 230.385 160.416 233.098 160.416 236.444C160.416 239.79 163.129 242.502 166.475 242.502Z" fill="#636363"/>
</g>
<g style="mix-blend-mode:multiply">
<path d="M151.231 243.472L150.896 242.837C150.868 242.779 147.736 236.993 141.439 236.993C135.709 236.993 134.277 242.441 134.239 242.674L134.067 243.367L132.678 243.033L132.845 242.335C132.845 242.269 134.554 235.561 141.439 235.561C148.6 235.561 152.023 241.901 152.166 242.173L152.501 242.803L151.231 243.472Z" fill="#636363"/>
</g>
<path d="M254.23 62.4471C254.001 64.6401 253.168 66.7263 251.822 68.473C250.477 70.2197 248.673 71.5581 246.611 72.339C244.549 73.1199 242.31 73.3125 240.145 72.8953C237.981 72.478 235.974 71.4674 234.35 69.9762L228.396 70.8499L231.376 65.7032C230.694 64.0286 230.404 62.2207 230.526 60.4169C230.648 58.6131 231.179 56.8608 232.08 55.2932C232.98 53.7255 234.226 52.3838 235.723 51.3698C237.22 50.3558 238.928 49.6962 240.718 49.4412C242.508 49.1862 244.332 49.3425 246.053 49.8981C247.773 50.4538 249.344 51.3942 250.647 52.6479C251.949 53.9017 252.949 55.4358 253.57 57.1338C254.191 58.8317 254.417 60.6489 254.23 62.4471Z" fill="white"/>
<path d="M254.229 62.4471C254.005 64.6389 253.179 66.7259 251.842 68.477C251.189 69.3627 250.401 70.1408 249.508 70.783C248.633 71.4494 247.669 71.9879 246.643 72.3824C245.616 72.7867 244.538 73.0439 243.439 73.1463C242.89 73.1956 242.338 73.2068 241.788 73.1797C241.235 73.1655 240.684 73.1081 240.14 73.0079C237.946 72.6042 235.908 71.5974 234.254 70.1003L234.392 70.1433L228.448 71.0552L228.014 71.122L228.233 70.7401L231.193 65.5838V65.7891C230.495 64.0835 230.198 62.2402 230.325 60.4016C230.453 58.5629 231.001 56.7782 231.929 55.1854C232.855 53.5975 234.128 52.2396 235.653 51.2132C237.175 50.2003 238.907 49.5453 240.719 49.2973C242.53 49.0492 244.374 49.2146 246.113 49.7809C247.833 50.3661 249.401 51.3285 250.701 52.5977C251.999 53.8637 252.991 55.4086 253.602 57.1152C254.213 58.8218 254.428 60.6452 254.229 62.4471ZM254.229 62.4471C254.422 60.6541 254.201 58.8407 253.581 57.147C252.962 55.4533 251.962 53.9246 250.658 52.6788C249.354 51.4331 247.781 50.5036 246.061 49.9622C244.341 49.4209 242.52 49.282 240.737 49.5565C238.973 49.8176 237.292 50.4808 235.824 51.4948C234.37 52.5168 233.154 53.8429 232.263 55.3811C231.385 56.9228 230.868 58.6432 230.749 60.4132C230.633 62.1953 230.92 63.9807 231.59 65.6363L231.633 65.7414L231.575 65.8416L228.577 70.9788L228.367 70.6637L234.325 69.8282H234.406L234.464 69.8807C236.056 71.3631 238.03 72.3732 240.164 72.7978C240.696 72.9061 241.236 72.9716 241.778 72.9935C242.32 73.0317 242.864 73.0317 243.406 72.9935C244.493 72.906 245.563 72.6698 246.586 72.2917C247.611 71.9185 248.576 71.3973 249.45 70.7448C250.34 70.1078 251.129 69.34 251.79 68.4675C253.144 66.7248 253.988 64.6409 254.229 62.4471Z" fill="#263238"/>
<path d="M236.578 66.7582C236.569 66.6001 236.592 66.4419 236.647 66.2932C236.701 66.1446 236.786 66.0088 236.895 65.8941C237.004 65.7795 237.136 65.6886 237.282 65.627C237.428 65.5654 237.585 65.5344 237.743 65.536C238.067 65.536 238.378 65.6647 238.607 65.8939C238.836 66.1232 238.965 66.434 238.965 66.7582C238.965 67.0823 238.836 67.3932 238.607 67.6224C238.378 67.8516 238.067 67.9804 237.743 67.9804C237.585 67.982 237.428 67.951 237.282 67.8894C237.136 67.8278 237.004 67.7368 236.895 67.6222C236.786 67.5076 236.701 67.3718 236.647 67.2231C236.592 67.0745 236.569 66.9162 236.578 66.7582ZM237.056 63.9366L236.779 54.4644H238.688L238.411 63.9366H237.056Z" fill="#0078FF"/>
<path d="M241.119 66.7582C241.11 66.6005 241.133 66.4427 241.188 66.2944C241.242 66.1461 241.326 66.0104 241.435 65.8959C241.543 65.7814 241.674 65.6903 241.82 65.6284C241.965 65.5665 242.121 65.5351 242.279 65.536C242.603 65.536 242.914 65.6647 243.143 65.894C243.373 66.1232 243.501 66.434 243.501 66.7582C243.501 67.0823 243.373 67.3932 243.143 67.6224C242.914 67.8516 242.603 67.9804 242.279 67.9804C242.121 67.9813 241.965 67.9499 241.82 67.888C241.674 67.8261 241.543 67.735 241.435 67.6205C241.326 67.5059 241.242 67.3703 241.188 67.222C241.133 67.0737 241.11 66.9159 241.119 66.7582ZM241.597 63.9366L241.334 54.4644H243.244L242.967 63.9366H241.597Z" fill="#0078FF"/>
<path d="M245.654 66.7582C245.645 66.6001 245.669 66.4419 245.723 66.2932C245.778 66.1446 245.862 66.0088 245.971 65.8941C246.081 65.7795 246.212 65.6886 246.358 65.627C246.504 65.5654 246.661 65.5344 246.819 65.536C247.143 65.536 247.454 65.6647 247.683 65.8939C247.913 66.1232 248.041 66.434 248.041 66.7582C248.041 67.0823 247.913 67.3932 247.683 67.6224C247.454 67.8516 247.143 67.9804 246.819 67.9804C246.661 67.982 246.504 67.951 246.358 67.8894C246.212 67.8278 246.081 67.7368 245.971 67.6222C245.862 67.5076 245.778 67.3718 245.723 67.2231C245.669 67.0745 245.645 66.9162 245.654 66.7582ZM246.132 63.9366L245.855 54.4644H247.765L247.492 63.9366H246.132Z" fill="#0078FF"/>
</svg>
