<svg width="312" height="312" viewBox="0 0 312 312" fill="none" xmlns="http://www.w3.org/2000/svg">
<path d="M300.444 251.333H11.5547V252.056H300.444V251.333Z" fill="#EBEBEB"/>
<path d="M300.371 263.243H276.451V263.423H300.371V263.243Z" fill="#EBEBEB"/>
<path d="M267.359 263.243H216.219V263.423H267.359V263.243Z" fill="#EBEBEB"/>
<path d="M188.016 256.541H174.156V256.721H188.016V256.541Z" fill="#EBEBEB"/>
<path d="M38.097 257.754H13.332V257.934H38.097V257.754Z" fill="#EBEBEB"/>
<path d="M89.5559 257.754H44.5254V257.934H89.5559V257.754Z" fill="#EBEBEB"/>
<path d="M138.046 260.802H111.461V260.982H138.046V260.802Z" fill="#EBEBEB"/>
<path d="M30.2171 114.992L128.223 114.992V30.0805L30.2171 30.0805L30.2171 114.992Z" fill="#E6E6E6"/>
<path d="M28.0296 114.992L126.035 114.992L126.035 30.0805L28.0296 30.0805L28.0296 114.992Z" fill="#F5F5F5"/>
<path d="M122.127 111.959V33.114L31.9431 33.114V111.959H122.127Z" fill="#FAFAFA"/>
<path d="M85.9582 111.959L102.302 33.114H68.1121L51.7754 111.959H85.9582Z" fill="white"/>
<path d="M33.5898 111.966L33.5898 33.1211H31.9432L31.9432 111.966H33.5898Z" fill="#E6E6E6"/>
<path d="M29.646 97.825L124.416 97.825V93.7516L29.646 93.7516V97.825Z" fill="#F5F5F5"/>
<path d="M123.674 247.325H139.324V179.458H123.674L123.674 247.325Z" fill="#F0F0F0"/>
<path d="M21.4712 251.622H136.326V247.325H21.4712V251.622Z" fill="#F0F0F0"/>
<path d="M123.672 179.45H18.459V247.318H123.672V179.45Z" fill="#F5F5F5"/>
<path d="M117.527 187.807H24.6133V210.066H117.527V187.807Z" fill="#F0F0F0"/>
<path d="M117.527 216.71H24.6133V238.969H117.527V216.71Z" fill="#F0F0F0"/>
<path d="M46.0278 200.46H96.1139C96.5175 200.458 96.904 200.297 97.1894 200.012C97.4747 199.726 97.6359 199.34 97.6378 198.936C97.6359 198.532 97.475 198.145 97.1898 197.858C96.9046 197.572 96.5181 197.409 96.1139 197.405H46.0278C45.6236 197.409 45.2371 197.572 44.9519 197.858C44.6667 198.145 44.5058 198.532 44.5039 198.936C44.5058 199.34 44.667 199.726 44.9523 200.012C45.2377 200.297 45.6242 200.458 46.0278 200.46Z" fill="#F5F5F5"/>
<path d="M46.0278 229.363H96.1139C96.5175 229.361 96.904 229.2 97.1894 228.915C97.4747 228.63 97.6359 228.243 97.6378 227.839C97.6378 227.435 97.4775 227.046 97.1919 226.759C96.9063 226.472 96.5187 226.31 96.1139 226.308H46.0278C45.623 226.31 45.2354 226.472 44.9498 226.759C44.6642 227.046 44.5039 227.435 44.5039 227.839C44.5058 228.243 44.667 228.63 44.9523 228.915C45.2377 229.2 45.6242 229.361 46.0278 229.363Z" fill="#F5F5F5"/>
<path d="M245.744 74.4611C254.657 72.0056 257.704 55.835 235.186 49.2339C240.154 65.4983 230.209 78.7222 245.744 74.4611Z" fill="#EBEBEB"/>
<path d="M247.715 81.4811C254.742 73.8905 248.098 56.7161 222.791 63.7361C237.105 76.2594 235.473 94.7194 247.715 81.4811Z" fill="#E0E0E0"/>
<path d="M240.782 83.4311C234.903 77.61 243.324 57.3517 262.737 66.7405C251.738 77.2778 251.074 93.5783 240.782 83.4311Z" fill="#FAFAFA"/>
<path d="M234.918 94.7701H252.028L253.321 83.1929H233.633L234.918 94.7701Z" fill="#E6E6E6"/>
<path d="M233.438 85.2656H253.516C253.855 85.2656 254.18 85.131 254.42 84.8912C254.66 84.6515 254.795 84.3263 254.795 83.9873C254.795 83.6483 254.66 83.3231 254.42 83.0834C254.18 82.8437 253.855 82.709 253.516 82.709H233.438C233.099 82.709 232.774 82.8437 232.535 83.0834C232.295 83.3231 232.16 83.6483 232.16 83.9873C232.16 84.3263 232.295 84.6515 232.535 84.8912C232.774 85.131 233.099 85.2656 233.438 85.2656Z" fill="#E6E6E6"/>
<path d="M90.9636 232.014V212.406H107.293V192.804H123.63V173.196H139.959V153.588H156.296V133.987H172.625V114.378H188.962V94.77H205.299H295.129V251.622H90.9636H74.627V232.014H90.9636Z" fill="#FAFAFA"/>
<path d="M180.794 232.014V212.406H197.131V192.804H213.46V173.196H229.797V153.588H246.127V133.987H262.463V114.378H278.793V94.77H295.129V114.378V251.622H180.794H164.465V232.014H180.794Z" fill="#E0E0E0"/>
<path d="M164.464 232.014H73.666V237.893H164.464V232.014Z" fill="#EBEBEB"/>
<path d="M180.802 212.406H90.0039V218.285H180.802V212.406Z" fill="#EBEBEB"/>
<path d="M197.132 192.804H106.334V198.683H197.132V192.804Z" fill="#EBEBEB"/>
<path d="M213.468 173.196H122.67V179.075H213.468V173.196Z" fill="#EBEBEB"/>
<path d="M229.798 153.588H139V159.467H229.798V153.588Z" fill="#EBEBEB"/>
<path d="M246.134 133.987H155.336V139.866H246.134V133.987Z" fill="#EBEBEB"/>
<path d="M262.464 114.378H171.666V120.257H262.464V114.378Z" fill="#EBEBEB"/>
<path d="M278.8 94.77H188.002V100.649H278.8V94.77Z" fill="#EBEBEB"/>
<path d="M156 284.238C233.338 284.238 296.032 280.577 296.032 276.062C296.032 271.547 233.338 267.887 156 267.887C78.6631 267.887 15.9688 271.547 15.9688 276.062C15.9688 280.577 78.6631 284.238 156 284.238Z" fill="#F5F5F5"/>
<path d="M166.777 90.0104C166.647 92.1771 166.394 94.1632 166.113 96.2215C165.831 98.2799 165.448 100.295 165.015 102.317C164.17 106.41 162.949 110.416 161.368 114.284L160.71 115.729L160.551 116.09L160.494 116.278L160.378 116.509C160.157 116.962 159.878 117.385 159.548 117.765C159.154 118.208 158.684 118.578 158.161 118.856C157.647 119.126 157.09 119.302 156.514 119.376C155.631 119.47 154.737 119.377 153.893 119.102C152.696 118.693 151.566 118.109 150.541 117.368C149.645 116.736 148.789 116.049 147.978 115.31C144.938 112.491 142.202 109.361 139.816 105.972L142.207 103.942C143.651 105.278 145.096 106.629 146.54 107.907C147.976 109.185 149.476 110.39 151.033 111.518C151.765 112.042 152.527 112.525 153.315 112.963C153.949 113.348 154.635 113.642 155.351 113.837C155.597 113.887 155.77 113.837 155.691 113.837C155.521 113.855 155.361 113.929 155.236 114.046C155.193 114.046 155.193 114.046 155.236 114.046L155.467 113.447L155.973 112.132C157.225 108.513 158.203 104.805 158.898 101.039C159.28 99.1465 159.548 97.2182 159.836 95.3043C160.125 93.3904 160.328 91.4188 160.494 89.5916L166.777 90.0104Z" fill="#FFC3BD"/>
<path d="M162.401 82.0588C159.707 82.745 157.822 93.8239 157.822 93.8239L165.24 98.8794C165.24 98.8794 172.353 87.7066 170.295 84.7455C168.128 81.6472 166.33 81.0622 162.401 82.0588Z" fill="#0078FF"/>
<path d="M162.401 82.0588C159.707 82.745 157.822 93.8239 157.822 93.8239L165.24 98.8794C165.24 98.8794 172.353 87.7066 170.295 84.7455C168.128 81.6472 166.33 81.0622 162.401 82.0588Z" fill="#0078FF"/>
<path opacity="0.4" d="M162.401 82.0588C159.707 82.745 157.822 93.8239 157.822 93.8239L165.24 98.8794C165.24 98.8794 172.353 87.7066 170.295 84.7455C168.128 81.6472 166.33 81.0622 162.401 82.0588Z" fill="black"/>
<path opacity="0.3" d="M162.64 84.5361L160.574 95.6945L164.741 98.5256L162.64 84.5361Z" fill="black"/>
<path d="M142.33 103.487L138.827 97.9116L136.826 104.246C136.826 104.246 139.715 107.279 142.337 106.557L142.33 103.487Z" fill="#FFC3BD"/>
<path d="M133.629 96.0698L132.242 101.458L136.799 104.245L138.8 97.9115L133.629 96.0698Z" fill="#FFC3BD"/>
<path d="M176.962 268.486H170.433L169.992 253.363H176.528L176.962 268.486Z" fill="#FFC3BD"/>
<path d="M234.586 238.153L229.61 242.385L218.221 232.216L223.197 227.991L234.586 238.153Z" fill="#FFC3BD"/>
<path d="M228.247 241.879L233.079 236.347C233.161 236.252 233.275 236.19 233.4 236.173C233.525 236.155 233.652 236.184 233.757 236.253L238.676 239.438C238.797 239.523 238.899 239.632 238.975 239.758C239.052 239.885 239.1 240.026 239.118 240.173C239.136 240.319 239.122 240.468 239.078 240.609C239.034 240.75 238.961 240.88 238.864 240.991C237.145 242.891 236.22 243.721 234.097 246.148C232.797 247.643 231.042 249.968 229.236 252.027C227.431 254.085 225.293 252.424 225.864 251.398C228.399 246.819 227.792 245.216 227.835 242.963C227.842 242.565 227.987 242.181 228.247 241.879Z" fill="#263238"/>
<path d="M170.208 267.735H177.546C177.672 267.734 177.795 267.778 177.89 267.861C177.986 267.943 178.048 268.058 178.066 268.183L178.904 273.96C178.927 274.113 178.917 274.269 178.873 274.417C178.829 274.565 178.753 274.702 178.65 274.817C178.547 274.933 178.42 275.024 178.278 275.084C178.136 275.144 177.982 275.173 177.828 275.167C175.271 275.123 174.036 274.972 170.808 274.972C168.821 274.972 164.719 275.181 161.975 275.181C159.23 275.181 159.086 272.465 160.234 272.227C165.348 271.122 167.363 269.605 169.089 268.154C169.399 267.884 169.797 267.735 170.208 267.735Z" fill="#263238"/>
<path opacity="0.2" d="M169.998 253.37L170.222 261.163H176.751L176.527 253.37H169.998Z" fill="black"/>
<path opacity="0.2" d="M223.204 227.991L218.221 232.216L224.1 237.459L229.076 233.227L223.204 227.991Z" fill="black"/>
<path d="M162.402 82.0588C162.402 82.0588 159.29 83.1566 165.522 121.478H192.042C191.602 110.68 191.587 104.022 196.744 81.871C193.031 81.1055 189.269 80.6083 185.485 80.3833C181.474 80.0975 177.448 80.0975 173.438 80.3833C168.267 80.8888 162.402 82.0588 162.402 82.0588Z" fill="#0078FF"/>
<path opacity="0.4" d="M162.402 82.0588C162.402 82.0588 159.29 83.1566 165.522 121.478H192.042C191.602 110.68 191.587 104.022 196.744 81.871C193.031 81.1055 189.269 80.6083 185.485 80.3833C181.474 80.0975 177.448 80.0975 173.438 80.3833C168.267 80.8888 162.402 82.0588 162.402 82.0588Z" fill="black"/>
<path d="M185.483 80.3833C181.472 80.0975 177.446 80.0975 173.436 80.3833C172.786 80.441 172.122 80.5132 171.464 80.5927C171.192 81.0032 171.018 81.4706 170.956 81.959C170.893 82.4474 170.944 82.9436 171.103 83.4094C171.948 85.511 174.996 85.7566 177.22 85.7566C185.432 85.7566 186.819 80.961 186.877 80.7588L186.956 80.4699C186.494 80.441 185.974 80.4049 185.483 80.3833Z" fill="white"/>
<path d="M184.328 66.8271C183.563 70.6983 182.812 77.7977 185.52 80.3833C185.52 80.3833 184.458 84.3194 177.258 84.3194C169.313 84.3194 173.473 80.3905 173.473 80.3905C177.807 79.3577 177.684 76.151 176.933 73.1683L184.328 66.8271Z" fill="#FFC3BD"/>
<path opacity="0.2" d="M181.273 69.3982L176.896 73.1321C177.085 73.8419 177.211 74.5669 177.272 75.2987C178.919 75.0604 181.186 73.2476 181.367 71.5215C181.468 70.8141 181.436 70.0939 181.273 69.3982Z" fill="black"/>
<path d="M179.784 45.7528C179.112 43.4778 178.549 39.8956 182.593 38.2778C181.012 36.3422 180.629 32.7022 182.593 30.5428C184.558 28.3834 187.504 29.1778 187.504 29.1778C187.504 29.1778 188.371 23.8984 194.792 24.8445C201.212 25.7906 198.352 30.0156 198.352 30.0156C198.352 30.0156 207.113 28.2822 207.698 36.5156C208.283 44.7489 203.256 43.7378 203.256 43.7378C203.256 43.7378 207.163 47.0167 204.997 50.6206C202.83 54.2245 197.825 52.9822 197.825 52.9822C197.825 52.9822 195.471 59.3522 189.924 55.7267C184.377 52.1011 179.784 45.7528 179.784 45.7528Z" fill="#263238"/>
<path d="M166.778 50.5556C164.612 53.3578 165.565 56.5284 167.501 57.7778C172.159 60.7534 178.897 48.2734 177.142 46.7784C175.387 45.2834 168.945 47.7461 166.778 50.5556Z" fill="#263238"/>
<path d="M186.343 43.8821C183.281 42.6471 180.176 43.9399 179.208 45.8032C176.846 50.346 187.571 58.5288 190.677 52.8521C192.518 49.4793 189.5 45.1532 186.343 43.8821Z" fill="#0078FF"/>
<path d="M185.049 57.7777C185.273 64.2777 185.504 66.9933 182.565 70.6116C178.152 76.05 170.142 74.9089 167.99 68.6255C166.055 62.9705 166.019 53.3289 172.078 50.1655C173.41 49.4609 174.9 49.1085 176.407 49.1418C177.913 49.1751 179.386 49.5929 180.686 50.3556C181.985 51.1183 183.068 52.2005 183.832 53.4995C184.596 54.7986 185.015 56.2713 185.049 57.7777Z" fill="#FFC3BD"/>
<path d="M184.074 61.1794C181.185 60.1032 180.463 56.7305 180.925 55.4016C179.481 55.3438 176.324 54.8238 175.147 53.0327C172.894 54.4771 168.134 55.9216 167.622 53.5166C167.109 51.1116 174.288 44.9294 179.719 44.4527C186.176 43.8894 192.546 50.2305 190.906 56.3044C189.267 62.3783 184.074 61.1794 184.074 61.1794Z" fill="#263238"/>
<path d="M165.551 121.478C165.551 121.478 160.402 171.781 160.828 191.699C161.276 212.413 168.866 259.653 168.866 259.653H177.692C177.692 259.653 176.298 213.619 177.078 193.281C177.93 171.102 184.972 121.478 184.972 121.478H165.551Z" fill="#263238"/>
<path d="M178.427 259.971H168.07L167.305 256.671L178.911 256.266L178.427 259.971Z" fill="#0078FF"/>
<path opacity="0.2" d="M176.961 133.994C170.461 147.095 175.654 171.001 177.958 179.898C179.135 166.537 181.128 150.208 182.681 138.219C181.699 131.445 179.994 127.949 176.961 133.994Z" fill="black"/>
<path d="M172.527 121.478C172.527 121.478 178.536 173.774 183.072 190.566C188.46 210.499 221.92 237.329 221.92 237.329L228.709 231.552C228.709 231.552 204.457 202.403 200.333 191.902C191.543 169.513 199.069 136.088 192.042 121.463L172.527 121.478Z" fill="#263238"/>
<path d="M229.791 231.256L221.37 238.406L218.221 236.521L227.747 227.659L229.791 231.256Z" fill="#0078FF"/>
<path d="M175.438 60.4932C175.488 61.0204 175.25 61.4682 174.91 61.5043C174.571 61.5404 174.246 61.136 174.188 60.616C174.13 60.096 174.376 59.6337 174.723 59.6049C175.069 59.576 175.387 59.9443 175.438 60.4932Z" fill="#263238"/>
<path d="M169.515 61.0639C169.565 61.5839 169.327 62.0389 168.981 62.075C168.634 62.1111 168.323 61.7067 168.258 61.1795C168.193 60.6522 168.446 60.2045 168.786 60.1756C169.125 60.1467 169.464 60.5367 169.515 61.0639Z" fill="#263238"/>
<path d="M168.951 60.1899L167.658 59.9443C167.658 59.9443 168.438 60.8688 168.951 60.1899Z" fill="#263238"/>
<path d="M171.163 61.8149C170.811 63.0549 170.291 64.2408 169.617 65.3394C169.904 65.5042 170.222 65.605 170.552 65.6349C170.881 65.6648 171.212 65.6232 171.524 65.5127L171.163 61.8149Z" fill="#ED847E"/>
<path d="M176.704 66.2942C177.165 66.2917 177.625 66.3295 178.079 66.4071C178.11 66.4122 178.139 66.4232 178.166 66.4397C178.192 66.4561 178.215 66.4777 178.233 66.503C178.251 66.5284 178.264 66.557 178.271 66.5874C178.278 66.6177 178.279 66.6491 178.273 66.6798C178.263 66.7431 178.228 66.7998 178.177 66.838C178.126 66.8763 178.061 66.893 177.998 66.8847C176.998 66.6941 175.967 66.7408 174.988 67.0211C174.009 67.3015 173.11 67.8076 172.362 68.4988C172.342 68.5242 172.317 68.5449 172.288 68.5596C172.259 68.5742 172.227 68.5825 172.195 68.5838C172.163 68.585 172.13 68.5793 172.1 68.5669C172.071 68.5545 172.044 68.5359 172.022 68.5121C171.976 68.468 171.949 68.408 171.947 68.3446C171.944 68.2812 171.966 68.2194 172.008 68.1718C173.27 66.9593 174.954 66.2859 176.704 66.2942Z" fill="#263238"/>
<path d="M186.566 62.2626C186.408 63.5055 185.764 64.6351 184.775 65.4043C183.454 66.4154 182.182 65.4043 182.031 63.8226C181.901 62.3782 182.421 60.2115 183.995 59.7926C184.339 59.7226 184.694 59.7371 185.031 59.8347C185.368 59.9324 185.676 60.1103 185.929 60.3532C186.182 60.5961 186.372 60.8968 186.483 61.2294C186.594 61.5619 186.623 61.9165 186.566 62.2626Z" fill="#FFC3BD"/>
<path d="M176.072 56.7811C176.031 56.7912 175.99 56.7933 175.949 56.7871C175.908 56.7809 175.869 56.7666 175.833 56.745C175.506 56.536 175.134 56.4074 174.747 56.3698C174.36 56.3321 173.97 56.3864 173.609 56.5283C173.534 56.5617 173.449 56.5653 173.371 56.5385C173.293 56.5117 173.229 56.4565 173.19 56.3839C173.155 56.31 173.151 56.2254 173.178 56.1484C173.205 56.0713 173.261 56.008 173.334 55.9722C173.789 55.7844 174.282 55.7086 174.773 55.7513C175.263 55.7941 175.736 55.954 176.151 56.2177C176.185 56.2385 176.215 56.2658 176.239 56.2981C176.262 56.3305 176.279 56.3672 176.289 56.4061C176.298 56.4451 176.3 56.4855 176.294 56.5251C176.287 56.5646 176.273 56.6025 176.252 56.6366C176.212 56.7057 176.148 56.7573 176.072 56.7811Z" fill="#263238"/>
<path d="M166.611 58.5794C166.537 58.6077 166.455 58.6077 166.38 58.5794C166.31 58.5384 166.258 58.4722 166.235 58.3943C166.213 58.3164 166.221 58.2328 166.257 58.1605C166.478 57.7209 166.801 57.341 167.2 57.0531C167.598 56.7651 168.06 56.5777 168.547 56.5066C168.587 56.5026 168.628 56.5068 168.667 56.5189C168.706 56.531 168.742 56.5508 168.773 56.5771C168.804 56.6034 168.829 56.6356 168.847 56.6719C168.866 56.7081 168.876 56.7477 168.879 56.7882C168.885 56.8695 168.859 56.9499 168.806 57.012C168.754 57.0742 168.679 57.1131 168.597 57.1205C168.214 57.1849 167.852 57.3389 167.539 57.5698C167.227 57.8007 166.973 58.102 166.799 58.4494C166.779 58.4829 166.751 58.5118 166.719 58.5342C166.687 58.5566 166.65 58.572 166.611 58.5794Z" fill="#263238"/>
<path d="M199.451 88.9126C200.924 92.5151 202.194 96.197 203.257 99.9409C204.384 103.718 205.186 107.583 205.655 111.496C205.778 112.493 205.814 113.54 205.857 114.573V115.158C205.857 115.368 205.821 115.584 205.792 115.772C205.732 116.133 205.65 116.49 205.547 116.841C205.358 117.442 205.117 118.024 204.824 118.581C203.823 120.433 202.595 122.153 201.17 123.702C198.534 126.598 195.632 129.241 192.503 131.596L190.416 129.278C192.821 126.468 195.248 123.586 197.306 120.611C198.3 119.261 199.148 117.808 199.834 116.278C199.951 115.981 200.048 115.677 200.123 115.368C200.142 115.263 200.154 115.156 200.159 115.05C200.163 115.019 200.163 114.987 200.159 114.956V114.855C200.065 114.003 200 113.15 199.841 112.276C199.22 108.709 198.353 105.188 197.248 101.739C196.143 98.2437 194.908 94.6976 193.637 91.3176L199.451 88.9126Z" fill="#FFC3BD"/>
<path d="M196.744 81.8712C199.402 82.6801 202.594 91.8306 202.594 91.8306L192.273 99.1973C192.273 99.1973 188.51 91.5634 189.63 88.1256C190.829 84.5506 193.718 80.9467 196.744 81.8712Z" fill="#0078FF"/>
<path opacity="0.4" d="M196.744 81.8712C199.402 82.6801 202.594 91.8306 202.594 91.8306L192.273 99.1973C192.273 99.1973 188.51 91.5634 189.63 88.1256C190.829 84.5506 193.718 80.9467 196.744 81.8712Z" fill="black"/>
<path d="M226.462 245.028C226.328 245.025 226.197 244.991 226.078 244.93C225.96 244.869 225.856 244.781 225.776 244.674C225.71 244.607 225.664 244.523 225.641 244.432C225.618 244.341 225.62 244.245 225.646 244.154C225.891 243.36 228.159 242.71 228.419 242.638C228.448 242.628 228.478 242.627 228.507 242.636C228.536 242.645 228.561 242.664 228.578 242.688C228.594 242.713 228.603 242.742 228.603 242.771C228.603 242.801 228.594 242.83 228.578 242.854C228.174 243.627 227.372 244.927 226.549 245.021L226.462 245.028ZM228.138 243.042C227.242 243.331 226.072 243.829 225.971 244.248C225.96 244.288 225.96 244.33 225.972 244.369C225.983 244.409 226.006 244.444 226.036 244.472C226.094 244.555 226.172 244.621 226.263 244.664C226.354 244.707 226.455 244.726 226.556 244.718C226.975 244.667 227.56 244.046 228.138 243.042Z" fill="#0078FF"/>
<path d="M227.423 243.071C226.747 243.14 226.071 242.949 225.531 242.537C225.455 242.441 225.414 242.323 225.414 242.201C225.414 242.079 225.455 241.961 225.531 241.865C225.595 241.765 225.681 241.68 225.782 241.618C225.883 241.555 225.997 241.516 226.116 241.504C227.055 241.388 228.477 242.616 228.535 242.667C228.556 242.683 228.572 242.706 228.581 242.732C228.59 242.757 228.592 242.785 228.586 242.811C228.583 242.839 228.572 242.866 228.554 242.888C228.536 242.909 228.512 242.925 228.485 242.934C228.14 243.032 227.782 243.078 227.423 243.071ZM226.275 241.807H226.174C226.1 241.815 226.028 241.84 225.965 241.878C225.901 241.917 225.847 241.969 225.805 242.031C225.697 242.197 225.733 242.284 225.805 242.342C226.087 242.71 227.372 242.847 228.152 242.703C227.618 242.241 226.97 241.931 226.275 241.807Z" fill="#0078FF"/>
<path d="M167.753 268.876C167.195 268.927 166.637 268.784 166.172 268.471C166.072 268.381 165.995 268.269 165.946 268.143C165.898 268.018 165.878 267.883 165.89 267.749C165.896 267.664 165.924 267.581 165.97 267.509C166.017 267.437 166.081 267.378 166.157 267.338C166.959 266.897 169.559 268.226 169.855 268.385C169.883 268.4 169.905 268.424 169.919 268.452C169.933 268.48 169.939 268.512 169.935 268.544C169.93 268.576 169.916 268.605 169.894 268.629C169.872 268.652 169.843 268.668 169.812 268.674C169.133 268.804 168.444 268.871 167.753 268.876ZM166.591 267.525C166.491 267.519 166.391 267.539 166.302 267.583C166.271 267.598 166.245 267.622 166.227 267.651C166.209 267.681 166.2 267.715 166.201 267.749C166.189 267.84 166.199 267.932 166.23 268.017C166.262 268.103 166.314 268.179 166.381 268.24C166.778 268.601 167.826 268.659 169.27 268.421C168.435 267.972 167.528 267.669 166.591 267.525Z" fill="#0078FF"/>
<path d="M169.781 268.667H169.716C168.936 268.313 167.398 266.904 167.55 266.168C167.55 265.994 167.701 265.77 168.127 265.727C168.281 265.711 168.437 265.726 168.584 265.772C168.732 265.818 168.869 265.894 168.987 265.994C169.803 266.68 169.955 268.435 169.962 268.515C169.964 268.541 169.959 268.568 169.948 268.592C169.936 268.616 169.919 268.637 169.897 268.652C169.88 268.663 169.861 268.67 169.841 268.672C169.821 268.675 169.8 268.673 169.781 268.667ZM168.221 266.016H168.135C167.846 266.016 167.831 266.16 167.824 266.197C167.752 266.637 168.799 267.749 169.593 268.226C169.529 267.484 169.236 266.78 168.756 266.211C168.609 266.077 168.42 266 168.221 265.994V266.016Z" fill="#0078FF"/>
<path d="M192.438 119.889L193.117 122.265C193.211 122.446 192.994 122.633 192.683 122.633H165.391C165.152 122.633 164.95 122.518 164.936 122.366L164.697 119.997C164.697 119.831 164.885 119.694 165.152 119.694H192.012C192.094 119.687 192.176 119.701 192.25 119.735C192.325 119.77 192.39 119.822 192.438 119.889Z" fill="#0078FF"/>
<path opacity="0.3" d="M192.438 119.889L193.117 122.265C193.211 122.446 192.994 122.633 192.683 122.633H165.391C165.152 122.633 164.95 122.518 164.936 122.366L164.697 119.997C164.697 119.831 164.885 119.694 165.152 119.694H192.012C192.094 119.687 192.176 119.701 192.25 119.735C192.325 119.77 192.39 119.822 192.438 119.889Z" fill="white"/>
<path d="M188.834 122.922H189.556C189.693 122.922 189.802 122.85 189.794 122.756L189.455 119.672C189.455 119.586 189.325 119.506 189.181 119.506H188.458C188.314 119.506 188.206 119.586 188.22 119.672L188.552 122.756C188.567 122.85 188.661 122.922 188.834 122.922Z" fill="#263238"/>
<path d="M167.413 122.922H168.135C168.28 122.922 168.388 122.85 168.381 122.756L168.041 119.672C168.041 119.586 167.904 119.506 167.767 119.506H167.045C166.9 119.506 166.792 119.586 166.799 119.672L167.139 122.756C167.146 122.85 167.269 122.922 167.413 122.922Z" fill="#263238"/>
<path d="M178.124 122.922H178.846C178.99 122.922 179.099 122.85 179.091 122.756L178.752 119.672C178.752 119.586 178.622 119.506 178.477 119.506H177.755C177.611 119.506 177.502 119.586 177.517 119.672L177.827 122.778C177.827 122.85 177.979 122.922 178.124 122.922Z" fill="#263238"/>
<path d="M174.881 59.6193L173.588 59.3738C173.588 59.3738 174.325 60.2982 174.881 59.6193Z" fill="#263238"/>
<path opacity="0.2" d="M150.976 151.587C138.74 156.341 125.369 157.359 112.554 154.514C99.7394 151.669 88.056 145.087 78.9815 135.602C69.907 126.117 63.8489 114.154 61.5733 101.226C59.2977 88.2974 60.9068 74.9847 66.197 62.971C71.4873 50.9573 80.2212 40.7821 91.2943 33.7321C102.367 26.682 115.282 23.0738 128.406 23.3636C141.53 23.6534 154.273 27.8283 165.024 35.3603C175.775 42.8923 184.051 53.4432 188.806 65.6787C191.964 73.8034 193.491 82.4706 193.299 91.1854C193.107 99.9002 191.2 108.492 187.687 116.469C184.174 124.447 179.124 131.655 172.825 137.68C166.526 143.706 159.101 148.431 150.976 151.587Z" fill="#0078FF"/>
<path opacity="0.1" d="M138.965 24.4473L86.9074 142.675C86.1057 142.068 85.3112 141.44 84.5312 140.804C79.4998 136.642 75.1181 131.752 71.5312 126.295L116.497 24.1728C123.946 22.973 131.547 23.0658 138.965 24.4473Z" fill="white"/>
<path opacity="0.1" d="M175.972 44.9582L127.027 156.115C116.861 156.126 106.828 153.799 97.7051 149.312L151.15 27.9282C160.618 31.6311 169.11 37.4573 175.972 44.9582Z" fill="white"/>
<path d="M72.2967 45.0088C81.1407 34.2023 92.9906 26.261 106.348 22.1891C119.705 18.1173 133.97 18.0978 147.339 22.1331C160.707 26.1684 172.579 34.0773 181.452 44.8596C190.326 55.6419 195.803 68.8134 197.191 82.7085C198.578 96.6036 195.815 110.598 189.249 122.922C182.683 135.247 172.61 145.347 160.304 151.947C147.998 158.547 134.011 161.349 120.112 159.999C106.213 158.65 93.0266 153.209 82.22 144.365C67.7302 132.504 58.5447 115.374 56.6838 96.7418C54.8228 78.1095 60.4389 59.5009 72.2967 45.0088ZM177.106 130.78C185.224 120.856 190.217 108.749 191.454 95.9874C192.691 83.2261 190.116 70.3846 184.055 59.0866C177.994 47.7886 168.719 38.5416 157.403 32.5147C146.087 26.4878 133.238 23.9518 120.48 25.2274C107.723 26.5029 95.6302 31.5327 85.7312 39.6808C75.8323 47.8288 68.5717 58.7292 64.8676 71.0035C61.1635 83.2778 61.1822 96.3749 64.9214 108.639C68.6605 120.902 75.9522 131.782 85.8744 139.902C92.4634 145.294 100.05 149.335 108.201 151.795C116.352 154.254 124.908 155.085 133.379 154.237C141.851 153.39 150.073 150.883 157.576 146.858C165.078 142.833 171.715 137.37 177.106 130.78Z" fill="#0078FF"/>
<path d="M183.338 130.534C190.293 134.687 196.909 139.252 203.409 143.96C209.909 148.669 216.243 153.573 222.475 158.607C228.708 163.641 234.825 168.819 240.726 174.258C243.682 176.973 246.571 179.761 249.392 182.621C252.224 185.51 255.004 188.399 257.626 191.533C258.232 192.259 258.565 193.173 258.57 194.118C258.575 195.064 258.25 195.981 257.652 196.713C257.053 197.444 256.219 197.945 255.291 198.128C254.364 198.311 253.402 198.165 252.57 197.715C248.959 195.765 245.579 193.613 242.206 191.41C238.834 189.208 235.54 186.911 232.29 184.549C225.79 179.84 219.5 174.879 213.339 169.758C207.179 164.638 201.112 159.402 195.211 153.956C189.311 148.51 183.526 142.935 178.08 136.94C177.4 136.199 177.01 135.237 176.982 134.232C176.954 133.226 177.289 132.244 177.926 131.465C178.563 130.687 179.46 130.164 180.451 129.993C181.443 129.822 182.462 130.014 183.324 130.534H183.338Z" fill="#0078FF"/>
<path d="M191.109 128.555L184.133 129.617L189.123 133.994C189.123 133.994 193.067 132.549 193.457 129.877L191.109 128.555Z" fill="#FFC3BD"/>
<path d="M180.363 133.625L184.747 137.063L190.099 133.568L184.133 129.632L180.363 133.625Z" fill="#FFC3BD"/>
</svg>
