<svg width="100%" viewBox="0 0 432 432" fill="none" xmlns="http://www.w3.org/2000/svg">
<path d="M415 348H17V349H415V348Z" fill="#EBEBEB"/>
<path d="M281.671 355.21H256.211V355.46H281.671V355.21Z" fill="#EBEBEB"/>
<path d="M421.439 360.62H361.109V360.87H421.439V360.62Z" fill="#EBEBEB"/>
<path d="M250.791 355.33H188.461V355.58H250.791V355.33Z" fill="#EBEBEB"/>
<path d="M148.04 362.81H135V363.06H148.04V362.81Z" fill="#EBEBEB"/>
<path d="M220.091 362.81H160.711V363.06H220.091V362.81Z" fill="#EBEBEB"/>
<path d="M56.9109 358.59H18.4609V358.84H56.9109V358.59Z" fill="#EBEBEB"/>
<path d="M161.959 261.67H95.5593L91.5293 215.17H157.929L161.959 261.67Z" fill="#E6E6E6"/>
<path d="M165.401 261.67H99.0007L94.9707 215.17H161.371L165.401 261.67Z" fill="#F0F0F0"/>
<path d="M108.079 251.68L105.859 225.15H152.289L154.509 251.68H108.079Z" fill="white"/>
<path d="M176.89 261.67H169.1V348.4H176.89V261.67Z" fill="#E6E6E6"/>
<path d="M179.349 261.67H173.939V348.4H179.349V261.67Z" fill="#F0F0F0"/>
<path d="M103.94 271.24H179.35V261.67H103.94V271.24Z" fill="#F0F0F0"/>
<path d="M106.601 271.24H98.8105V348.4H106.601V271.24Z" fill="#E6E6E6"/>
<path d="M109.06 271.24H103.65V348.4H109.06V271.24Z" fill="#F0F0F0"/>
<path d="M51.1494 271.24H43.3594V348.4H51.1494V271.24Z" fill="#E6E6E6"/>
<path d="M53.6092 271.24H48.1992V348.4H53.6092V271.24Z" fill="#F0F0F0"/>
<path d="M127.591 271.24H119.801V348.4H127.591V271.24Z" fill="#E6E6E6"/>
<path d="M130.041 271.24H124.631V348.4H130.041V271.24Z" fill="#F0F0F0"/>
<path d="M103.939 261.67H43.3594V271.24H103.939V261.67Z" fill="#E6E6E6"/>
<path d="M329.84 45.41H95.5098V175.87H329.84V45.41Z" fill="#E0E0E0"/>
<path d="M342.709 45.41H96.6895V175.87H342.709V45.41Z" fill="#F5F5F5"/>
<path d="M338.689 171.85V49.43L100.709 49.43V171.85H338.689Z" fill="white"/>
<path d="M197.07 171.85L242 49.43H167.85L122.92 171.85H197.07Z" fill="#F5F5F5"/>
<path d="M268.44 171.85L313.37 49.43H257.43L212.5 171.85H268.44Z" fill="#F5F5F5"/>
<path d="M404.109 223.8H384.189V348.4H404.109V223.8Z" fill="#E6E6E6"/>
<path d="M398.871 348.4H404.111V338.81H393.381L398.871 348.4Z" fill="#FAFAFA"/>
<path d="M220.449 223.8H200.529V348.4H220.449V223.8Z" fill="#E6E6E6"/>
<path d="M404.111 223.8H215.881V345.81H404.111V223.8Z" fill="#FAFAFA"/>
<path d="M400.549 263.17H219.449V228.71H400.549V263.17ZM220.449 262.17H399.549V229.71H220.449V262.17Z" fill="#E6E6E6"/>
<path d="M368.67 245.44H254.84C249.56 245.44 244.47 241.18 240.84 233.74L240.5 233.03H383L382.66 233.74C379 241.18 374 245.44 368.67 245.44ZM242.14 234C245.52 240.63 250.14 244.41 254.84 244.41H368.67C373.39 244.41 377.99 240.63 381.37 234H242.14Z" fill="#E6E6E6"/>
<path d="M221.121 348.4H215.881V338.81H226.611L221.121 348.4Z" fill="#FAFAFA"/>
<path d="M400.549 302H219.449V267.58H400.549V302ZM220.449 301H399.549V268.58H220.449V301Z" fill="#E6E6E6"/>
<path d="M368.67 284.31H254.84C249.56 284.31 244.47 280.04 240.84 272.61L240.5 271.89H383L382.66 272.61C379 280 374 284.31 368.67 284.31ZM242.14 272.89C245.52 279.52 250.14 283.31 254.84 283.31H368.67C373.39 283.31 377.99 279.52 381.37 272.89H242.14Z" fill="#E6E6E6"/>
<path d="M400.549 340.9H219.449V306.44H400.549V340.9ZM220.449 339.9H399.549V307.44H220.449V339.9Z" fill="#E6E6E6"/>
<path d="M368.67 323.17H254.84C249.56 323.17 244.47 318.91 240.84 311.48L240.5 310.76H383L382.66 311.48C379 318.91 374 323.17 368.67 323.17ZM242.14 311.76C245.52 318.39 250.14 322.17 254.84 322.17H368.67C373.39 322.17 377.99 318.39 381.37 311.76H242.14Z" fill="#E6E6E6"/>
<path d="M86.98 240.28V242.7H85.44L84.16 261.67H65.32L64.05 242.7H62.5V240.28H86.98Z" fill="#E6E6E6"/>
<path d="M80.7801 193.21C79.2401 181.91 63.9901 178.69 44.6401 178.27C26.2301 177.88 20.3301 171.37 20.3301 171.37C20.3301 171.37 20.3901 197.74 46.9201 207.3C72.1101 216.36 82.3301 204.53 80.7801 193.21Z" fill="#E6E6E6"/>
<path d="M71.3799 218.82C71.6999 214.18 79.1199 205.64 96.9699 209.52C109.87 212.33 114.67 205.64 114.67 205.64C114.67 205.64 113.47 224.52 94.0699 230.19C75.6399 235.58 70.8099 227 71.3799 218.82Z" fill="#E6E6E6"/>
<path d="M75.45 247.4C75.5505 247.401 75.65 247.38 75.7416 247.339C75.8331 247.297 75.9145 247.236 75.98 247.16C77.27 245.63 76.21 241.97 74.75 236.9C72.87 230.4 70.53 222.3 72.51 216.43C73.6075 213.329 74.8898 210.297 76.35 207.35C79.15 201.43 81.57 196.35 79.55 190.97C79.5185 190.884 79.4703 190.806 79.4083 190.739C79.3463 190.672 79.2716 190.618 79.1886 190.58C79.1056 190.543 79.0159 190.522 78.9248 190.519C78.8336 190.516 78.7428 190.531 78.6575 190.563C78.5722 190.596 78.4943 190.645 78.428 190.707C78.3618 190.77 78.3087 190.845 78.2717 190.929C78.2348 191.012 78.2147 191.102 78.2127 191.193C78.2107 191.284 78.2268 191.375 78.26 191.46C80.07 196.25 77.88 200.89 75.1 206.77C73.6213 209.765 72.319 212.843 71.2 215.99C69.09 222.27 71.49 230.6 73.42 237.28C74.56 241.28 75.74 245.28 74.93 246.28C74.8657 246.349 74.8165 246.431 74.7855 246.52C74.7545 246.609 74.7423 246.704 74.7499 246.798C74.7574 246.892 74.7844 246.983 74.8292 247.066C74.874 247.149 74.9356 247.222 75.01 247.28C75.1378 247.371 75.2938 247.414 75.45 247.4Z" fill="#E6E6E6"/>
<path d="M215.999 393.56C323.082 393.56 409.889 388.492 409.889 382.24C409.889 375.988 323.082 370.92 215.999 370.92C108.917 370.92 22.1094 375.988 22.1094 382.24C22.1094 388.492 108.917 393.56 215.999 393.56Z" fill="#F5F5F5"/>
<path d="M215.959 327.05H73.9594L66.1895 98.68H208.189L215.959 327.05Z" fill="#0078FF"/>
<path d="M223.05 319.96H81.0495L73.2695 91.59H215.27L223.05 319.96Z" fill="#0078FF"/>
<path opacity="0.3" d="M223.05 319.96H81.0495L73.2695 91.59H215.27L223.05 319.96Z" fill="white"/>
<path d="M175.473 185.564C190.677 170.097 190.03 144.807 174.028 129.076C158.026 113.346 132.728 113.131 117.524 128.598C102.32 144.064 102.966 169.355 118.969 185.085C134.971 200.816 160.268 201.03 175.473 185.564Z" fill="#0078FF"/>
<path d="M179.469 157.09C179.674 162.532 178.486 167.935 176.019 172.79C173.356 178.022 169.289 182.408 164.272 185.456C159.256 188.505 153.489 190.096 147.619 190.05C141.611 190.018 135.717 188.406 130.529 185.376C125.341 182.347 121.04 178.006 118.059 172.79C115.279 168.01 113.727 162.616 113.539 157.09C113.355 152.805 114.043 148.527 115.563 144.517C117.083 140.506 119.402 136.847 122.38 133.76C125.358 130.674 128.933 128.225 132.886 126.562C136.84 124.9 141.09 124.059 145.379 124.09C154.214 124.153 162.686 127.616 169.034 133.761C175.383 139.907 179.12 148.261 179.469 157.09Z" fill="white"/>
<path opacity="0.6" d="M175.999 172.79C173.336 178.022 169.269 182.408 164.252 185.456C159.236 188.505 153.469 190.096 147.599 190.05C141.591 190.018 135.697 188.406 130.509 185.376C125.321 182.347 121.02 178.006 118.039 172.79C126.496 167.024 136.503 163.959 146.739 164C157.14 164.022 167.308 167.077 175.999 172.79Z" fill="#0078FF"/>
<path opacity="0.6" d="M156.771 156.268C162.362 150.58 162.124 141.281 156.24 135.497C150.356 129.712 141.054 129.634 135.463 135.321C129.872 141.008 130.11 150.307 135.994 156.092C141.878 161.876 151.18 161.955 156.771 156.268Z" fill="#0078FF"/>
<path d="M194.52 237.26H103.94L103.33 219.26H193.91L194.52 237.26Z" fill="white"/>
<path d="M195.62 269.43H105.03L104.42 251.43H195.01L195.62 269.43Z" fill="white"/>
<path d="M160.66 253.91L138.83 256.91C138.622 256.934 138.421 257 138.24 257.106C138.058 257.211 137.901 257.352 137.777 257.521C137.653 257.69 137.565 257.883 137.519 258.088C137.473 258.292 137.47 258.504 137.51 258.71L140.38 273.34C140.474 273.769 140.725 274.148 141.084 274.402C141.443 274.655 141.884 274.765 142.32 274.71L164.15 271.71C164.358 271.684 164.558 271.615 164.739 271.508C164.919 271.401 165.075 271.259 165.198 271.089C165.321 270.919 165.407 270.726 165.452 270.522C165.498 270.317 165.5 270.106 165.46 269.9L162.6 255.27C162.506 254.841 162.255 254.464 161.895 254.212C161.536 253.96 161.095 253.852 160.66 253.91ZM154.39 268.73L150.39 269.26L150 264.54C149.588 264.362 149.225 264.087 148.941 263.739C148.658 263.391 148.462 262.98 148.37 262.54C148.297 262.199 148.296 261.847 148.367 261.506C148.438 261.165 148.58 260.843 148.784 260.56C148.987 260.277 149.248 260.04 149.549 259.865C149.85 259.689 150.184 259.578 150.53 259.54C151.241 259.449 151.959 259.627 152.544 260.04C153.13 260.453 153.538 261.07 153.69 261.77C153.777 262.193 153.75 262.631 153.614 263.04C153.477 263.449 153.234 263.815 152.91 264.1L154.39 268.73Z" fill="#0078FF"/>
<path d="M158.5 253.12C158.114 253.169 157.724 253.072 157.406 252.848C157.087 252.625 156.864 252.29 156.78 251.91L156.5 250.48C156.1 248.529 155.007 246.788 153.422 245.582C151.836 244.376 149.868 243.785 147.88 243.92C146.877 243.977 145.898 244.249 145.01 244.719C144.122 245.188 143.345 245.842 142.732 246.638C142.119 247.434 141.685 248.353 141.458 249.331C141.232 250.31 141.219 251.326 141.42 252.31L141.74 253.96C141.777 254.143 141.776 254.331 141.736 254.514C141.696 254.696 141.619 254.868 141.509 255.019C141.399 255.169 141.258 255.295 141.097 255.388C140.935 255.482 140.756 255.54 140.57 255.56C140.183 255.614 139.791 255.519 139.471 255.294C139.152 255.07 138.93 254.732 138.85 254.35L138.58 252.96C138.306 251.661 138.296 250.32 138.553 249.017C138.81 247.714 139.328 246.477 140.075 245.38C140.822 244.282 141.784 243.347 142.902 242.63C144.02 241.914 145.271 241.431 146.58 241.21C149.419 240.733 152.333 241.368 154.716 242.982C157.099 244.597 158.77 247.067 159.38 249.88L159.7 251.52C159.737 251.705 159.735 251.896 159.694 252.08C159.652 252.264 159.572 252.438 159.459 252.589C159.345 252.74 159.201 252.865 159.036 252.957C158.871 253.048 158.688 253.104 158.5 253.12Z" fill="#0078FF"/>
<path d="M180.669 294.64H121.699L121.309 282.92H180.269L180.669 294.64Z" fill="#0078FF"/>
<path d="M152.22 228.26C152.237 228.687 152.168 229.114 152.016 229.514C151.864 229.914 151.632 230.279 151.334 230.586C151.037 230.894 150.68 231.138 150.286 231.304C149.891 231.469 149.467 231.553 149.04 231.55C148.158 231.543 147.312 231.198 146.678 230.586C146.043 229.973 145.668 229.141 145.63 228.26C145.612 227.833 145.681 227.406 145.834 227.006C145.986 226.606 146.217 226.241 146.515 225.934C146.812 225.626 147.169 225.382 147.563 225.216C147.958 225.051 148.382 224.967 148.81 224.97C149.692 224.974 150.539 225.319 151.174 225.932C151.809 226.544 152.184 227.378 152.22 228.26Z" fill="#263238"/>
<path d="M137.999 228.26C138.018 228.688 137.949 229.115 137.798 229.516C137.646 229.916 137.414 230.281 137.117 230.589C136.819 230.897 136.462 231.141 136.067 231.306C135.672 231.472 135.247 231.554 134.819 231.55C133.938 231.543 133.094 231.197 132.461 230.585C131.828 229.973 131.455 229.14 131.419 228.26C131.401 227.833 131.47 227.406 131.623 227.006C131.775 226.606 132.007 226.241 132.304 225.934C132.601 225.626 132.958 225.382 133.352 225.216C133.747 225.051 134.171 224.967 134.599 224.97C135.48 224.975 136.326 225.319 136.959 225.932C137.593 226.545 137.965 227.379 137.999 228.26Z" fill="#263238"/>
<path d="M123.87 228.26C123.887 228.687 123.818 229.114 123.666 229.514C123.514 229.914 123.282 230.279 122.985 230.586C122.687 230.894 122.331 231.138 121.936 231.304C121.542 231.469 121.118 231.553 120.69 231.55C119.808 231.545 118.963 231.201 118.329 230.588C117.696 229.975 117.323 229.141 117.29 228.26C117.272 227.833 117.342 227.406 117.494 227.006C117.646 226.606 117.878 226.241 118.175 225.934C118.472 225.626 118.829 225.382 119.224 225.216C119.618 225.051 120.042 224.967 120.47 224.97C121.351 224.975 122.197 225.319 122.83 225.932C123.464 226.545 123.836 227.379 123.87 228.26Z" fill="#263238"/>
<path d="M166.389 228.26C166.406 228.687 166.337 229.114 166.185 229.514C166.032 229.914 165.801 230.279 165.503 230.586C165.206 230.894 164.849 231.138 164.455 231.304C164.06 231.469 163.636 231.553 163.209 231.55C162.327 231.545 161.481 231.201 160.848 230.588C160.214 229.975 159.842 229.141 159.809 228.26C159.794 227.834 159.865 227.409 160.02 227.011C160.174 226.614 160.407 226.251 160.705 225.947C161.003 225.642 161.361 225.401 161.755 225.238C162.149 225.075 162.572 224.994 162.999 225C163.873 225.007 164.712 225.348 165.343 225.955C165.973 226.561 166.348 227.386 166.389 228.26Z" fill="#263238"/>
<path d="M180.559 228.26C180.578 228.688 180.51 229.115 180.358 229.516C180.207 229.916 179.975 230.281 179.677 230.589C179.38 230.897 179.022 231.141 178.627 231.306C178.232 231.472 177.807 231.554 177.379 231.55C176.498 231.543 175.654 231.197 175.021 230.585C174.388 229.973 174.015 229.14 173.979 228.26C173.962 227.833 174.031 227.406 174.183 227.006C174.335 226.606 174.567 226.241 174.864 225.934C175.162 225.626 175.518 225.382 175.913 225.216C176.307 225.051 176.731 224.967 177.159 224.97C178.041 224.975 178.886 225.319 179.52 225.932C180.153 226.545 180.526 227.379 180.559 228.26Z" fill="#263238"/>
<path d="M299.909 140.28C301.239 142.42 302.349 144.46 303.489 146.59C304.629 148.72 305.659 150.86 306.669 153.05C308.73 157.484 310.435 162.076 311.769 166.78C311.949 167.37 312.079 168 312.229 168.61L312.449 169.54L312.559 170L312.689 170.76C312.915 172.484 312.81 174.235 312.379 175.92C311.689 178.536 310.639 181.043 309.259 183.37C306.791 187.599 303.809 191.505 300.379 195L296.169 191.82C298.283 187.935 300.162 183.928 301.799 179.82C302.528 178.01 303.042 176.12 303.329 174.19C303.421 173.601 303.394 172.999 303.249 172.42L302.849 171.2C302.689 170.7 302.539 170.2 302.349 169.69C300.828 165.565 299.069 161.531 297.079 157.61C295.079 153.61 292.929 149.61 290.779 145.79L299.909 140.28Z" fill="#FF8B7B"/>
<path d="M297.239 190.43L292.639 192.86L297.919 199.04C297.919 199.04 301.219 196.81 301.369 193.41L297.239 190.43Z" fill="#FF8B7B"/>
<path d="M286.469 196.67L292.119 201.16L297.919 199.04L292.639 192.86L286.469 196.67Z" fill="#FF8B7B"/>
<path d="M267.15 107.56C267.04 108.12 266.65 108.51 266.29 108.44C265.93 108.37 265.72 107.85 265.83 107.3C265.94 106.75 266.33 106.3 266.7 106.42C267.07 106.54 267.26 107 267.15 107.56Z" fill="#263238"/>
<path d="M266.7 108.52C265.693 110.086 264.475 111.506 263.08 112.74C263.409 113.081 263.809 113.348 264.251 113.52C264.693 113.693 265.167 113.768 265.64 113.74L266.7 108.52Z" fill="#FF5652"/>
<path d="M264.9 128.14V121.58L273.58 122.58C273.58 122.58 273.44 128.22 268.58 129.88L264.9 128.14Z" fill="#FF8B7B"/>
<path d="M267.399 116.86L273.509 118.62L273.619 122.63L264.939 121.58L267.399 116.86Z" fill="#FF8B7B"/>
<path opacity="0.2" d="M273.509 118.62L267.399 116.86L266.209 119.14C266.274 120.937 266.835 122.68 267.831 124.177C268.826 125.674 270.217 126.866 271.849 127.62C272.899 126.154 273.512 124.42 273.619 122.62L273.509 118.62Z" fill="black"/>
<path d="M269.81 104.89C269.874 104.888 269.936 104.868 269.99 104.833C270.043 104.797 270.085 104.747 270.111 104.689C270.137 104.63 270.146 104.565 270.137 104.502C270.128 104.438 270.101 104.379 270.06 104.33C269.709 103.933 269.267 103.626 268.773 103.435C268.279 103.244 267.747 103.173 267.22 103.23C267.134 103.245 267.057 103.293 267.006 103.364C266.956 103.435 266.935 103.524 266.95 103.61C266.965 103.697 267.012 103.774 267.083 103.827C267.154 103.879 267.243 103.902 267.33 103.89C267.747 103.849 268.168 103.908 268.558 104.063C268.947 104.218 269.294 104.464 269.57 104.78C269.601 104.813 269.638 104.84 269.679 104.859C269.72 104.878 269.765 104.889 269.81 104.89Z" fill="#263238"/>
<path d="M282.589 117.68C281.589 122.83 280.969 129.96 284.589 133.39C284.589 133.39 283.189 138.61 273.589 138.61C263.079 138.61 268.539 134.03 268.539 134.03C272.909 132.67 272.869 127.7 271.869 123.7L282.589 117.68Z" fill="#FF8B7B"/>
<path d="M286.54 136.83C287.48 135.51 287.44 131.32 286.44 130.58C284.83 129.39 277.92 129.11 268.63 131.25C269.63 135.31 267.48 137.43 267.48 137.43L286.54 136.83Z" fill="#0078FF"/>
<path d="M317.799 374.24C317.514 374.34 317.211 374.383 316.909 374.366C316.607 374.349 316.311 374.272 316.039 374.14C315.936 374.044 315.865 373.918 315.836 373.781C315.808 373.643 315.823 373.499 315.879 373.37C315.911 373.262 315.965 373.162 316.04 373.077C316.114 372.993 316.206 372.925 316.309 372.88C317.259 372.42 319.439 373.31 319.539 373.35C319.569 373.362 319.594 373.383 319.612 373.41C319.63 373.436 319.639 373.468 319.639 373.5C319.639 373.532 319.63 373.564 319.615 373.592C319.599 373.62 319.576 373.643 319.549 373.66C318.985 373.908 318.399 374.102 317.799 374.24ZM316.649 373.11C316.583 373.126 316.519 373.149 316.459 373.18C316.397 373.203 316.341 373.24 316.295 373.289C316.25 373.337 316.217 373.396 316.199 373.46C316.109 373.76 316.199 373.86 316.259 373.89C316.639 374.21 318.039 373.89 319.029 373.52C318.276 373.208 317.463 373.068 316.649 373.11Z" fill="#0078FF"/>
<path d="M319.51 373.67H319.43C318.63 373.44 316.93 372.23 316.91 371.44C316.909 371.314 316.952 371.192 317.03 371.094C317.108 370.996 317.218 370.927 317.34 370.9C317.459 370.856 317.586 370.838 317.712 370.848C317.838 370.859 317.96 370.897 318.07 370.96C319.01 371.44 319.61 373.38 319.63 373.47C319.644 373.494 319.652 373.522 319.652 373.55C319.652 373.578 319.644 373.606 319.63 373.63C319.615 373.646 319.596 373.657 319.575 373.664C319.554 373.671 319.532 373.673 319.51 373.67ZM317.51 371.18H317.43C317.23 371.25 317.23 371.35 317.23 371.4C317.23 371.87 318.37 372.82 319.23 373.2C319.02 372.64 318.56 371.53 317.95 371.2C317.815 371.138 317.661 371.131 317.52 371.18H317.51Z" fill="#0078FF"/>
<path d="M265.86 375.42C264.96 375.42 264.09 375.29 263.8 374.89C263.724 374.783 263.684 374.656 263.684 374.525C263.684 374.394 263.724 374.267 263.8 374.16C263.857 374.062 263.934 373.977 264.025 373.91C264.116 373.843 264.22 373.795 264.33 373.77C265.5 373.45 267.96 374.85 268.06 374.91C268.091 374.925 268.115 374.95 268.13 374.981C268.145 375.012 268.148 375.047 268.14 375.08C268.136 375.114 268.122 375.146 268.098 375.172C268.075 375.197 268.044 375.214 268.01 375.22C267.301 375.35 266.581 375.417 265.86 375.42ZM264.75 374.05C264.644 374.033 264.536 374.033 264.43 374.05C264.362 374.064 264.298 374.092 264.241 374.131C264.185 374.171 264.137 374.221 264.1 374.28C263.98 374.49 264.03 374.59 264.1 374.65C264.43 375.11 266.2 375.12 267.51 374.93C266.655 374.463 265.718 374.164 264.75 374.05Z" fill="#0078FF"/>
<path d="M268.001 375.22H267.931C267.081 374.84 265.401 373.32 265.531 372.52C265.531 372.33 265.691 372.1 266.151 372.06C266.315 372.041 266.482 372.056 266.64 372.104C266.798 372.152 266.945 372.232 267.071 372.34C267.711 373.106 268.096 374.054 268.171 375.05C268.17 375.079 268.164 375.107 268.152 375.133C268.14 375.158 268.122 375.181 268.101 375.2C268.07 375.216 268.035 375.223 268.001 375.22ZM266.281 372.37H266.181C265.881 372.37 265.861 372.51 265.861 372.55C265.781 373.03 266.921 374.23 267.791 374.75C267.714 373.947 267.389 373.189 266.861 372.58C266.696 372.44 266.486 372.365 266.271 372.37H266.281Z" fill="#0078FF"/>
<path d="M275.72 375.06H268.69L267.99 358.77H275.02L275.72 375.06Z" fill="#FF8B7B"/>
<path d="M327.35 371.8L320.48 373.29L313.57 358.12L320.45 356.63L327.35 371.8Z" fill="#FF8B7B"/>
<path d="M319.81 372.6L327.54 370.93C327.676 370.901 327.816 370.919 327.94 370.981C328.063 371.043 328.162 371.145 328.22 371.27L330.9 377.09C330.972 377.231 331.009 377.387 331.008 377.545C331.008 377.703 330.97 377.858 330.898 377.999C330.826 378.139 330.721 378.261 330.593 378.353C330.465 378.445 330.317 378.506 330.16 378.53C327.46 379.06 326.11 379.19 322.72 379.92C320.63 380.38 315.91 381.53 313.02 382.15C310.13 382.77 309.14 380 310.27 379.49C315.32 377.18 317.42 375.15 318.79 373.26C319.038 372.923 319.401 372.688 319.81 372.6Z" fill="#263238"/>
<path d="M268.74 374.24H276.42C276.559 374.241 276.694 374.289 276.803 374.376C276.912 374.463 276.988 374.584 277.02 374.72L278.41 380.97C278.451 381.121 278.455 381.28 278.424 381.433C278.392 381.586 278.325 381.73 278.228 381.852C278.13 381.975 278.006 382.073 277.864 382.138C277.722 382.204 277.566 382.235 277.41 382.23C274.64 382.18 270.64 382.02 267.16 382.02C263.08 382.02 259.57 382.24 254.79 382.24C251.9 382.24 251.1 379.32 252.31 379.05C257.81 377.85 262.31 377.72 267.06 374.79C267.559 374.456 268.14 374.266 268.74 374.24Z" fill="#263238"/>
<path d="M297.169 135C303.759 136.51 309.169 153.34 309.169 153.34L295.999 163.41C292.58 159.755 290.168 155.276 288.999 150.41C286.669 141.59 290.429 133.44 297.169 135Z" fill="#0078FF"/>
<path opacity="0.4" d="M297.169 135C303.759 136.51 309.169 153.34 309.169 153.34L295.999 163.41C292.58 159.755 290.168 155.276 288.999 150.41C286.669 141.59 290.429 133.44 297.169 135Z" fill="black"/>
<path d="M262.5 155.07C260.86 156.84 259.22 158.42 257.5 160.07C256.65 160.87 255.79 161.67 254.91 162.44L253.58 163.61L253.25 163.9L252.68 164.36C252.093 164.829 251.443 165.212 250.75 165.5C249.978 165.828 249.148 165.998 248.31 166C247.593 166.003 246.882 165.878 246.21 165.63C245.464 165.346 244.784 164.914 244.21 164.36C243.477 163.644 242.94 162.752 242.65 161.77C242.498 161.286 242.4 160.786 242.36 160.28C242.307 159.688 242.307 159.092 242.36 158.5C242.41 158.02 242.47 157.6 242.55 157.21C242.823 155.846 243.211 154.508 243.71 153.21C244.159 151.976 244.677 150.767 245.26 149.59C245.9 148.32 246.51 147.39 247.12 146.33C249.597 142.271 252.425 138.437 255.57 134.87C258.683 131.324 262.114 128.071 265.82 125.15L269.5 128.94C266.92 132.4 264.38 136.11 262.03 139.76C259.691 143.389 257.554 147.145 255.63 151.01C255.2 151.95 254.63 153.01 254.36 153.77C254.002 154.653 253.691 155.554 253.43 156.47C253.178 157.295 252.987 158.137 252.86 158.99C252.853 159.123 252.853 159.257 252.86 159.39C252.86 159.47 252.86 159.51 252.86 159.3C252.843 159.076 252.8 158.854 252.73 158.64C252.513 157.931 252.117 157.29 251.58 156.78C251.101 156.341 250.54 156.001 249.93 155.78C249.393 155.577 248.824 155.472 248.25 155.47C247.698 155.463 247.15 155.569 246.64 155.78C246.467 155.851 246.3 155.934 246.14 156.03L246.52 155.68L247.73 154.58L250.12 152.34C251.7 150.85 253.29 149.26 254.79 147.78L262.5 155.07Z" fill="#FF8B7B"/>
<path opacity="0.2" d="M291.52 147.36C295.1 150.9 296.27 157.36 296.52 162.96L295.94 163.41C292.521 159.755 290.109 155.276 288.94 150.41C288.81 149.89 288.69 149.41 288.6 148.84L291.52 147.36Z" fill="black"/>
<path d="M255.51 142C254.07 149.6 253.17 165.21 257.34 196.11H295C295.26 190.34 291.63 162.16 297.2 134.95C293.039 134.151 288.83 133.62 284.6 133.36C279.271 133.054 273.929 133.054 268.6 133.36C266.84 133.52 265.1 133.78 263.6 134.05C261.605 134.4 259.764 135.347 258.319 136.767C256.874 138.187 255.895 140.011 255.51 142Z" fill="#0078FF"/>
<path opacity="0.4" d="M255.51 142C254.07 149.6 253.17 165.21 257.34 196.11H295C295.26 190.34 291.63 162.16 297.2 134.95C293.039 134.151 288.83 133.62 284.6 133.36C279.271 133.054 273.929 133.054 268.6 133.36C266.84 133.52 265.1 133.78 263.6 134.05C261.605 134.4 259.764 135.347 258.319 136.767C256.874 138.187 255.895 140.011 255.51 142Z" fill="black"/>
<path opacity="0.2" d="M261.269 153.27L254.469 151.64C254.259 155.76 254.239 160.86 254.539 167.17C257.669 163.61 261.669 158.05 261.269 153.27Z" fill="black"/>
<path opacity="0.2" d="M267.99 358.77L268.35 367.17H275.39L275.03 358.77H267.99Z" fill="black"/>
<path opacity="0.2" d="M320.45 356.63L313.57 358.12L317.13 365.94L324.01 364.45L320.45 356.63Z" fill="black"/>
<path d="M285.93 110.16C284.13 116.9 283.41 120.94 279.25 123.74C273 128 265.2 123.12 265 116C264.78 109.57 267.77 99.62 275 98.26C276.588 97.9618 278.227 98.0731 279.761 98.5834C281.295 99.0937 282.673 99.9862 283.767 101.177C284.86 102.367 285.633 103.817 286.011 105.388C286.39 106.96 286.361 108.602 285.93 110.16Z" fill="#FF8B7B"/>
<path d="M270.149 110.41C269.809 109.51 268.259 102.54 269.719 100.73C271.179 98.92 287.829 100.23 290.289 102.65C294.379 106.65 291.539 110.25 287.069 114.88C283.709 118.36 283.579 122.28 281.879 122.88C278.879 123.88 274.299 122.94 273.379 119.77C272.459 116.6 270.149 110.41 270.149 110.41Z" fill="#263238"/>
<path d="M288.27 94.72C282.39 92.22 271.36 94.99 265.4 93.55C265.324 95.7662 266.053 97.9349 267.452 99.6555C268.851 101.376 270.825 102.532 273.01 102.91C277.954 103.852 282.977 104.318 288.01 104.3C294.55 104 293.27 96.85 288.27 94.72Z" fill="#263238"/>
<path d="M289.189 102.86C291.337 103.071 293.501 102.658 295.419 101.67C296.519 104.33 290.469 105.06 289.189 102.86Z" fill="#263238"/>
<path d="M273.349 110.69C273.214 112.424 272.511 114.066 271.349 115.36C269.809 117.05 268.209 115.99 267.939 113.94C267.699 112.08 268.199 108.94 270.079 108.04C271.959 107.14 273.479 108.6 273.349 110.69Z" fill="#FF8B7B"/>
<path d="M270.689 196.14C270.689 196.14 278.689 249.89 283.059 270.03C287.849 292.08 313.589 365.03 313.589 365.03L326.179 362.3C326.179 362.3 308.179 302.84 304.179 272.01C301.079 248.33 294.989 196.12 294.989 196.12L270.689 196.14Z" fill="#0078FF"/>
<path d="M310.569 360.84C310.519 360.84 312.919 365.4 312.919 365.4L327.079 362.33L325.889 358.07L310.569 360.84Z" fill="#263238"/>
<path opacity="0.3" d="M275.74 215.29C284.97 217.1 283.99 251.52 282.88 269.23C280.22 256.71 276.32 232.63 273.66 215.54C274.305 215.222 275.039 215.134 275.74 215.29Z" fill="black"/>
<path d="M257.34 196.14C257.34 196.14 256.34 248.73 257.14 270.14C257.94 292.45 265.73 365.5 265.73 365.5H277.65C277.65 365.5 278.08 293.75 278.65 271.84C279.23 247.96 282.11 196.1 282.11 196.1L257.34 196.14Z" fill="#0078FF"/>
<path d="M263.439 360.8C263.379 360.8 264.109 365.74 264.109 365.74H278.599L278.999 361.33L263.439 360.8Z" fill="#263238"/>
<path d="M270.25 144.34C273.62 153.43 253.81 164.14 253.81 164.14L245.23 153.14C245.23 153.14 251 141.72 258 136.58C266.65 130.24 267.68 137.42 270.25 144.34Z" fill="#0078FF"/>
<path opacity="0.4" d="M270.25 144.34C273.62 153.43 253.81 164.14 253.81 164.14L245.23 153.14C245.23 153.14 251 141.72 258 136.58C266.65 130.24 267.68 137.42 270.25 144.34Z" fill="black"/>
<path d="M347.869 75.33C367.801 75.33 383.959 65.0326 383.959 52.33C383.959 39.6275 367.801 29.33 347.869 29.33C327.937 29.33 311.779 39.6275 311.779 52.33C311.779 65.0326 327.937 75.33 347.869 75.33Z" fill="#0078FF"/>
<path d="M334.85 63.91C332.473 63.9023 330.174 63.057 328.358 61.5226C326.542 59.9882 325.325 57.8628 324.92 55.52C324.522 52.9823 325.095 50.3878 326.524 48.2531C327.952 46.1183 330.132 44.5999 332.63 44C334.68 43.5277 336.826 43.7097 338.767 44.5205C340.708 45.3313 342.346 46.73 343.45 48.52L366.62 43.74C367.511 43.545 368.442 43.6931 369.228 44.1547C370.014 44.6162 370.597 45.3574 370.86 46.23C370.981 46.6888 371.008 47.1675 370.938 47.6368C370.868 48.1062 370.703 48.5563 370.453 48.9597C370.203 49.3631 369.873 49.7113 369.484 49.983C369.095 50.2547 368.655 50.4443 368.19 50.54L367.59 50.66C367.501 50.676 367.417 50.7123 367.344 50.766C367.271 50.8198 367.212 50.8896 367.17 50.97C367.133 51.0517 367.114 51.1403 367.114 51.23C367.114 51.3197 367.133 51.4083 367.17 51.49L367.58 52.55C367.718 52.8936 367.731 53.2743 367.618 53.6266C367.504 53.9789 367.272 54.2807 366.96 54.48C366.714 54.6319 366.506 54.8378 366.352 55.0822C366.198 55.3265 366.102 55.6028 366.07 55.89C366.041 56.2197 365.908 56.5316 365.691 56.7812C365.473 57.0308 365.183 57.2054 364.86 57.28L364.39 57.38C364.064 57.4402 363.728 57.3951 363.429 57.2513C363.131 57.1075 362.886 56.8723 362.73 56.58C362.523 56.2312 362.211 55.9559 361.84 55.7924C361.468 55.6289 361.055 55.5854 360.658 55.668C360.26 55.7505 359.899 55.955 359.623 56.253C359.347 56.5509 359.172 56.9274 359.12 57.33C359.092 57.6576 358.961 57.9678 358.745 58.2158C358.53 58.4639 358.241 58.637 357.92 58.71L357.45 58.81C357.124 58.8686 356.789 58.8228 356.49 58.6792C356.192 58.5355 355.947 58.3013 355.79 58.01C355.64 57.762 355.439 57.5495 355.199 57.3872C354.959 57.2249 354.686 57.1167 354.4 57.07C354.016 57.0237 353.661 56.8387 353.403 56.5496C353.146 56.2605 353.002 55.8873 353 55.5V54.36C352.996 54.2708 352.973 54.1836 352.932 54.1042C352.891 54.0248 352.834 53.9552 352.763 53.9002C352.693 53.8451 352.612 53.8059 352.525 53.7851C352.438 53.7644 352.348 53.7626 352.26 53.78L344.87 55.3C344.569 57.3474 343.644 59.2521 342.221 60.7551C340.799 62.2581 338.948 63.2864 336.92 63.7C336.239 63.8393 335.545 63.9096 334.85 63.91ZM332.85 44.91C330.582 45.4398 328.599 46.8093 327.3 48.7427C326.001 50.6762 325.483 53.0299 325.85 55.33C326.243 57.4699 327.39 59.3983 329.081 60.7665C330.773 62.1347 332.898 62.8523 335.073 62.7895C337.248 62.7267 339.328 61.8876 340.938 60.424C342.548 58.9604 343.581 56.969 343.85 54.81V54.45L352 52.8C352.234 52.7434 352.477 52.7397 352.713 52.7889C352.948 52.8382 353.17 52.9392 353.361 53.0848C353.553 53.2303 353.71 53.4167 353.82 53.6304C353.931 53.844 353.992 54.0796 354 54.32V55.46C354.002 55.5957 354.051 55.7265 354.139 55.8304C354.226 55.9342 354.347 56.0047 354.48 56.03C354.917 56.0926 355.334 56.2539 355.7 56.5017C356.066 56.7494 356.37 57.0772 356.59 57.46C356.643 57.5679 356.728 57.6567 356.834 57.714C356.94 57.7713 357.061 57.7944 357.18 57.78L357.64 57.68C357.757 57.65 357.861 57.5832 357.936 57.4895C358.012 57.3959 358.055 57.2803 358.06 57.16C358.123 56.5375 358.383 55.9511 358.801 55.4857C359.219 55.0202 359.774 54.6998 360.386 54.5706C360.999 54.4415 361.636 54.5104 362.207 54.7673C362.777 55.0243 363.251 55.456 363.56 56C363.611 56.1071 363.695 56.1955 363.799 56.2529C363.903 56.3103 364.022 56.3337 364.14 56.32L364.62 56.22C364.735 56.1882 364.837 56.1206 364.91 56.0271C364.984 55.9336 365.026 55.819 365.03 55.7C365.08 55.2609 365.229 54.839 365.466 54.4664C365.704 54.0938 366.023 53.7803 366.4 53.55C366.51 53.4705 366.591 53.3565 366.629 53.2261C366.667 53.0957 366.66 52.9563 366.61 52.83L366.2 51.77C366.115 51.5515 366.079 51.3171 366.095 51.0832C366.11 50.8493 366.176 50.6215 366.288 50.4158C366.401 50.2101 366.557 50.0314 366.745 49.8922C366.934 49.7531 367.15 49.6567 367.38 49.61L367.99 49.48C368.32 49.4096 368.633 49.2734 368.909 49.0794C369.185 48.8854 369.42 48.6377 369.598 48.3511C369.776 48.0645 369.895 47.7449 369.947 47.4114C369.999 47.0778 369.983 46.7373 369.9 46.41C369.705 45.7807 369.279 45.2485 368.708 44.9202C368.136 44.5919 367.462 44.4918 366.82 44.64L343 49.59L342.82 49.28C341.863 47.5763 340.377 46.2303 338.588 45.4456C336.798 44.6608 334.802 44.4798 332.9 44.93L332.85 44.91ZM334.85 60.19C333.608 60.2038 332.389 59.8564 331.34 59.19C330.1 58.3759 329.181 57.1569 328.739 55.7408C328.297 54.3248 328.36 52.7993 328.917 51.4245C329.474 50.0496 330.491 48.9106 331.794 48.2014C333.097 47.4923 334.605 47.257 336.062 47.5357C337.519 47.8144 338.834 48.5898 339.784 49.7297C340.733 50.8696 341.258 52.3034 341.268 53.7868C341.278 55.2701 340.774 56.7112 339.841 57.8642C338.907 59.0173 337.603 59.811 336.15 60.11C335.725 60.187 335.292 60.2205 334.86 60.21L334.85 60.19ZM334.85 48.38C334.478 48.3821 334.106 48.4189 333.74 48.49C333.044 48.6384 332.383 48.9226 331.796 49.3262C331.209 49.7299 330.708 50.2453 330.32 50.8428C329.932 51.4404 329.666 52.1084 329.537 52.8088C329.407 53.5093 329.417 54.2283 329.565 54.925C329.714 55.6217 329.998 56.2823 330.401 56.8691C330.805 57.456 331.32 57.9575 331.918 58.3452C332.516 58.7329 333.184 58.9991 333.884 59.1286C334.584 59.2581 335.304 59.2484 336 59.1C337.046 58.8823 338.004 58.3598 338.753 57.5985C339.503 56.8371 340.01 55.871 340.211 54.8218C340.412 53.7726 340.298 52.6874 339.883 51.703C339.468 50.7186 338.771 49.8789 337.88 49.29C336.995 48.7012 335.953 48.3912 334.89 48.4L334.85 48.38Z" fill="white"/>
<path opacity="0.6" d="M318.501 88.82C325.051 88.82 330.361 85.4353 330.361 81.26C330.361 77.0847 325.051 73.7 318.501 73.7C311.951 73.7 306.641 77.0847 306.641 81.26C306.641 85.4353 311.951 88.82 318.501 88.82Z" fill="#0078FF"/>
<path opacity="0.3" d="M299.63 91.92C302.319 91.92 304.5 90.5321 304.5 88.82C304.5 87.1079 302.319 85.72 299.63 85.72C296.94 85.72 294.76 87.1079 294.76 88.82C294.76 90.5321 296.94 91.92 299.63 91.92Z" fill="#0078FF"/>
</svg>
