<svg width="100%" height="100%" viewBox="0 0 254 548" fill="none" xmlns="http://www.w3.org/2000/svg">
<rect width="254" height="548" fill="white"/>
<mask id="mask0" mask-type="alpha" maskUnits="userSpaceOnUse" x="0" y="0" width="254" height="548">
<path d="M55.6574 0H27.3227C12.2328 0 0 12.0883 0 27V521C0 535.912 12.2328 548 27.3227 548H226.677C241.767 548 254 535.912 254 521V27C254 12.0883 241.767 0 226.677 0H196.5V3C196.5 12.9411 190.187 21 180.127 21H73.8725C63.8126 21 55.6574 12.9411 55.6574 3V0Z" fill="white"/>
</mask>
<g mask="url(#mask0)">
<path d="M126.999 285.272V-125L431.055 50.1361V460.408L126.999 285.272Z" fill="url(#paint0_linear)"/>
<path d="M127.001 285.272V-125L-177.055 50.1361V460.408L127.001 285.272Z" fill="url(#paint1_linear)"/>
<path d="M224.368 342H222.816L220.272 338.832L217.76 342H216.176L219.52 337.856L216.368 333.952H217.936L220.272 336.912L222.608 333.952H224.192L221.056 337.856L224.368 342Z" fill="#0078FF"/>
<path d="M36.6 340.976V342H29.8V341.104L34.872 334.976H29.976V333.952H36.424V334.896L31.4 340.976H36.6Z" fill="black"/>
<path d="M130.32 171.952L126.56 180.736C126.165 181.653 125.669 182.325 125.072 182.752C124.475 183.179 123.739 183.472 122.864 183.632L122.592 182.624C123.349 182.453 123.92 182.224 124.304 181.936C124.699 181.659 125.024 181.227 125.28 180.64L125.6 179.92L122.192 171.952H123.552L126.272 178.592L129.024 171.952H130.32Z" fill="#FF6F48"/>
<path d="M126.5 287L189 251L126 215.5L64 251L126.5 287Z" fill="#F4F5FA"/>
<g style="mix-blend-mode:multiply">
<path d="M126.5 381.5L189 345.5L126 310L64 345.5L126.5 381.5Z" fill="#E1E4F0"/>
</g>
<path d="M189 323V251L126.5 287V359L189 323Z" fill="#DADBDF"/>
<path d="M64 323V251L126.5 287V359L64 323Z" fill="#E8E9EE"/>
<line x1="126.5" y1="287" x2="126.5" y2="196" stroke="#FF6F48" stroke-dasharray="3 3"/>
<path opacity="0.8" d="M126.5 287L189 251L126 215.5L64 251L126.5 287Z" fill="#FF6F48"/>
<path d="M126.5 287L47.5 332.5" stroke="#141323" stroke-dasharray="3 3"/>
<path d="M126.5 287L206.5 333" stroke="#0078FF" stroke-dasharray="3 3"/>
<path opacity="0.8" d="M189 323V251L126.5 287V359L189 323Z" fill="#005ABF"/>
<path d="M126.5 191L129.531 196.25H123.469L126.5 191Z" fill="#FF6F48"/>
<path opacity="0.8" d="M64 323V251L126.5 287V359L64 323Z" fill="#0078FF"/>
<path d="M42.75 335.531L45.7811 330.281L48.8122 335.531L42.75 335.531Z" fill="black"/>
<path d="M210.813 335.531L207.781 330.281L204.75 335.531L210.813 335.531Z" fill="#0078FF"/>
</g>
<defs>
<linearGradient id="paint0_linear" x1="244.999" y1="-117" x2="224.999" y2="369" gradientUnits="userSpaceOnUse">
<stop offset="0.243146" stop-color="#FBFBFB" stop-opacity="0"/>
<stop offset="1" stop-color="#ECECEC"/>
</linearGradient>
<linearGradient id="paint1_linear" x1="-11.999" y1="-88.5" x2="74.501" y2="346.5" gradientUnits="userSpaceOnUse">
<stop offset="0.333433" stop-color="white"/>
<stop offset="1" stop-color="#E6E6E6"/>
</linearGradient>
</defs>
</svg>
