<svg width="100%" viewBox="0 0 432 432" fill="none" xmlns="http://www.w3.org/2000/svg">
<path d="M416 348H16V349H416V348Z" fill="#EBEBEB"/>
<path d="M103.661 355.21H70.541V355.46H103.661V355.21Z" fill="#EBEBEB"/>
<path d="M177.891 364.37H137.141V364.62H177.891V364.37Z" fill="#EBEBEB"/>
<path d="M69.5409 361.24H18.4609V361.49H69.5409V361.24Z" fill="#EBEBEB"/>
<path d="M415.902 356.89H322.762V357.14H415.902V356.89Z" fill="#EBEBEB"/>
<path d="M313.861 356.89H307.531V357.14H313.861V356.89Z" fill="#EBEBEB"/>
<path d="M285.441 361.11H243.211V361.36H285.441V361.11Z" fill="#EBEBEB"/>
<path d="M196.391 348.4V147.22H115.641L115.641 348.4H196.391Z" fill="#F0F0F0"/>
<path d="M191.951 211.49V152.27H120.071V211.49H191.951Z" fill="#E6E6E6"/>
<path d="M191.961 276.03V216.81H120.081V276.03H191.961Z" fill="#E6E6E6"/>
<path d="M191.961 340.56V281.34H120.081V340.56H191.961Z" fill="#E6E6E6"/>
<path d="M191.961 211.49V152.27H163.691V211.49H191.961Z" fill="#E0E0E0"/>
<path d="M191.951 276.02V216.8H163.681V276.02H191.951Z" fill="#E0E0E0"/>
<path d="M151.031 252.37H131.441V276.03H151.031V252.37Z" fill="#FAFAFA"/>
<path d="M123.171 276.02H131.441V252.36H123.171V276.02Z" fill="#F0F0F0"/>
<path d="M182.67 252.37H163.08V276.03H182.67V252.37Z" fill="#FAFAFA"/>
<path d="M154.822 276.02H163.092V252.36H154.822V276.02Z" fill="#F0F0F0"/>
<path d="M167.201 228.71H147.611V252.37H167.201V228.71Z" fill="#FAFAFA"/>
<path d="M139.341 252.37H147.611V228.71H139.341V252.37Z" fill="#F0F0F0"/>
<path d="M191.961 340.56V281.34H163.691V340.56H191.961Z" fill="#E0E0E0"/>
<path d="M115.641 348.4L115.641 147.22H93.7106L93.7106 348.4H115.641Z" fill="#F5F5F5"/>
<path d="M187.081 289.88H128.711V340.56H187.081V289.88Z" fill="#F0F0F0"/>
<path d="M120.081 340.55H128.721V289.87H120.081V340.55Z" fill="#E0E0E0"/>
<path d="M187.081 160.81H128.711V211.49H187.081V160.81Z" fill="#F0F0F0"/>
<path d="M120.081 211.48H128.721V160.8H120.081V211.48Z" fill="#E0E0E0"/>
<path d="M392 348.4V53.67L252.88 53.67L252.88 348.4H392Z" fill="#FAFAFA"/>
<path d="M252.881 348.4L252.881 53.67H252.361L252.361 348.4H252.881Z" fill="#F0F0F0"/>
<path d="M376.501 63.34H262.941V348.4H376.501V63.34Z" fill="#E6E6E6"/>
<path d="M382.581 63.34H265.781V348.4H382.581V63.34Z" fill="#F0F0F0"/>
<path d="M374.07 208.24V211.83L377.66 208.24H374.07Z" fill="#E0E0E0"/>
<path d="M374.07 339.89V71.86H274.29V339.89H374.07Z" fill="#FAFAFA"/>
<path d="M355.522 206.78C354.79 206.78 354.088 207.071 353.57 207.588C353.052 208.106 352.762 208.808 352.762 209.54C352.762 210.272 353.052 210.974 353.57 211.492C354.088 212.009 354.79 212.3 355.522 212.3H373.002V206.78H355.522Z" fill="#F5F5F5"/>
<path d="M296.182 339.89L326.632 71.86H347.142L316.692 339.89H296.182Z" fill="white"/>
<path d="M321.102 339.89L351.552 71.86H359.552L329.102 339.89H321.102Z" fill="white"/>
<path d="M374.07 339.88V71.85H372.99V339.88H374.07Z" fill="#E6E6E6"/>
<path d="M376.71 208.63H359.24C358.509 208.627 357.809 208.336 357.292 207.819C356.775 207.302 356.483 206.601 356.48 205.87C356.483 205.139 356.775 204.438 357.292 203.921C357.809 203.404 358.509 203.113 359.24 203.11H376.71C377.442 203.11 378.144 203.401 378.662 203.918C379.18 204.436 379.47 205.138 379.47 205.87C379.47 206.602 379.18 207.304 378.662 207.822C378.144 208.339 377.442 208.63 376.71 208.63Z" fill="#EBEBEB"/>
<path d="M79.0607 87.85H29.9707V165.94H79.0607V87.85Z" fill="#E0E0E0"/>
<path d="M82.0117 87.85H31.2617V165.94H82.0117V87.85Z" fill="#F5F5F5"/>
<path d="M35.5215 93.54L35.5215 160.24H77.7715V93.54H35.5215Z" fill="white"/>
<path d="M148.371 50.17H99.2812V128.26H148.371V50.17Z" fill="#E0E0E0"/>
<path d="M151.33 50.17H100.58V128.26H151.33V50.17Z" fill="#F5F5F5"/>
<path d="M104.83 55.87V122.57H147.08V55.87H104.83Z" fill="white"/>
<path d="M215.999 393.56C323.082 393.56 409.889 388.492 409.889 382.24C409.889 375.988 323.082 370.92 215.999 370.92C108.917 370.92 22.1094 375.988 22.1094 382.24C22.1094 388.492 108.917 393.56 215.999 393.56Z" fill="#F5F5F5"/>
<path d="M129.631 91.23C131.781 94.08 132.041 97.58 129.731 103.23C128.731 105.55 127.431 107.82 124.531 103.93C121.631 100.04 119.141 92.93 123.531 92.3C127.921 91.67 129.631 91.23 129.631 91.23Z" fill="#263238"/>
<path d="M128.701 372.89H136.131L136.451 355.68H129.021L128.701 372.89Z" fill="#FFC3BD"/>
<path d="M73.541 359.69L80.741 361.52L88.191 345.67L80.991 343.84L73.541 359.69Z" fill="#FFC3BD"/>
<path d="M81.7006 360.76L73.7906 358.09C73.6526 358.042 73.5023 358.044 73.3655 358.096C73.2287 358.147 73.1138 358.244 73.0406 358.37L69.6907 364.2C69.6102 364.344 69.5626 364.505 69.5514 364.67C69.5402 364.834 69.5656 365 69.6258 365.154C69.6861 365.307 69.7796 365.446 69.8997 365.56C70.0198 365.673 70.1636 365.759 70.3206 365.81C73.1006 366.7 74.4906 366.99 77.9706 368.17C80.1106 368.89 86.2007 371.45 89.1607 372.45C92.1207 373.45 93.4107 370.64 92.2906 369.96C87.2407 366.96 83.9506 363.75 82.7006 361.59C82.478 361.202 82.1229 360.907 81.7006 360.76Z" fill="#263238"/>
<path d="M136.06 372H128C127.855 371.999 127.714 372.048 127.601 372.14C127.488 372.231 127.41 372.358 127.38 372.5L126 379.14C125.971 379.302 125.978 379.469 126.02 379.628C126.062 379.787 126.139 379.935 126.245 380.061C126.351 380.187 126.484 380.288 126.633 380.357C126.783 380.426 126.946 380.461 127.11 380.46C130.03 380.46 134.26 380.24 137.93 380.24C142.24 380.24 143.14 380.47 148.18 380.47C151.23 380.47 152 377.39 150.72 377.11C144.87 375.84 142.95 375.7 137.85 372.61C137.321 372.247 136.702 372.036 136.06 372Z" fill="#263238"/>
<path d="M134.131 137.91L144.271 134.66C144.271 134.66 154.751 158.92 158.271 160.43C163.051 162.43 166.791 165.84 172.921 166.43C173.751 167.38 175.111 170.43 174.981 171.57C166.751 174.67 154.071 171.38 150.581 168.15C142.591 160.81 134.131 137.91 134.131 137.91Z" fill="#FFC3BD"/>
<path d="M131.76 132.33C128.91 138.83 140.36 159.47 140.36 159.47L155.51 152.47C153.65 146.17 151.133 140.084 148 134.31C143.24 126 134.89 125.19 131.76 132.33Z" fill="#0078FF"/>
<path opacity="0.5" d="M131.76 132.33C128.91 138.83 140.36 159.47 140.36 159.47L155.51 152.47C153.65 146.17 151.133 140.084 148 134.31C143.24 126 134.89 125.19 131.76 132.33Z" fill="black"/>
<path d="M171.66 166.44L177.38 163.44L180.29 171.85C180.29 171.85 178.42 172.68 173.08 172.02L171.66 166.44Z" fill="#FFC3BD"/>
<path d="M183.081 161.33L184.911 168.52L180.291 171.88L177.381 163.47L183.081 161.33Z" fill="#FFC3BD"/>
<path opacity="0.2" d="M136.452 355.69L136.292 364.56H128.852L129.022 355.69H136.452Z" fill="black"/>
<path opacity="0.2" d="M80.9806 343.84L88.1906 345.67L84.3406 353.84L77.1406 352.01L80.9806 343.84Z" fill="black"/>
<path d="M141.47 128.11C141.47 128.11 150.79 153.64 143.47 195.42H103.75C103.32 189.32 106.43 156.47 99.8398 127.73C104.218 126.881 108.648 126.32 113.1 126.05C118.725 125.725 124.365 125.725 129.99 126.05C133.864 126.442 137.701 127.131 141.47 128.11Z" fill="#0078FF"/>
<path opacity="0.5" d="M141.47 128.11C141.47 128.11 150.79 153.64 143.47 195.42H103.75C103.32 189.32 106.43 156.47 99.8398 127.73C104.218 126.881 108.648 126.32 113.1 126.05C118.725 125.725 124.365 125.725 129.99 126.05C133.864 126.442 137.701 127.131 141.47 128.11Z" fill="black"/>
<path opacity="0.2" d="M108.651 134.83C109.421 139.56 108.211 150.83 104.021 163.95C103.818 152.747 102.627 141.584 100.461 130.59V130.53C103.071 130.27 107.901 130.39 108.651 134.83Z" fill="black"/>
<path d="M114.922 110.25C116.122 115.69 116.812 122.42 113.102 126.05C113.102 126.05 115.422 131.56 125.522 131.56C134.752 131.56 129.992 126.05 129.992 126.05C123.902 124.6 123.992 117.11 124.992 112.89L114.922 110.25Z" fill="#FFC3BD"/>
<path d="M125.52 131.56C124.466 133.109 123.841 134.911 123.71 136.78C123.71 136.78 110.95 132.32 111.38 125.78C111.38 125.78 113.15 124.71 114.27 123.84C114.27 123.85 114.81 129 125.52 131.56Z" fill="white"/>
<path d="M125.521 131.56C126.606 133.043 127.481 134.668 128.121 136.39C128.121 136.39 133.761 132.51 131.881 126.05C130.819 125.632 129.726 125.297 128.611 125.05C128.611 125.05 129.471 130.17 125.521 131.56Z" fill="white"/>
<path opacity="0.2" d="M125 112.89C124.251 115.829 124.338 118.918 125.25 121.81C124.307 121.669 123.39 121.39 122.53 120.98C119.07 119.37 117.32 116.84 115.48 113.07C115.32 112.07 115.14 111.17 114.93 110.25L125 112.89Z" fill="black"/>
<path d="M134.271 108.28C133.889 109.105 133.346 109.844 132.672 110.454C131.999 111.064 131.209 111.532 130.351 111.83C128.041 112.61 126.721 110.54 127.221 108.26C127.671 106.26 129.411 103.34 131.791 103.55C132.314 103.61 132.814 103.797 133.248 104.095C133.682 104.393 134.037 104.793 134.282 105.259C134.526 105.725 134.653 106.244 134.651 106.771C134.649 107.297 134.519 107.815 134.271 108.28Z" fill="#FFC3BD"/>
<path opacity="0.2" d="M134.271 108.28C133.889 109.105 133.346 109.844 132.672 110.454C131.999 111.064 131.209 111.532 130.351 111.83C128.041 112.61 126.721 110.54 127.221 108.26C127.671 106.26 129.411 103.34 131.791 103.55C132.314 103.61 132.814 103.797 133.248 104.095C133.682 104.393 134.037 104.793 134.282 105.259C134.526 105.725 134.653 106.244 134.651 106.771C134.649 107.297 134.519 107.815 134.271 108.28Z" fill="black"/>
<path d="M111.54 102.45C112.9 109.76 113.33 114.11 117.46 117.5C123.68 122.61 132.23 118.3 133.05 110.76C133.79 103.98 131.45 93.16 123.98 90.97C122.344 90.4812 120.609 90.4267 118.945 90.8119C117.281 91.1971 115.746 92.0088 114.491 93.167C113.236 94.3252 112.304 95.7902 111.786 97.4178C111.269 99.0454 111.184 100.78 111.54 102.45Z" fill="#FFC3BD"/>
<path d="M116.6 94.09C118.28 97.23 117.4 99.28 115.08 104.87C114.08 107.19 112.5 109.66 109.88 105.57C107.41 101.71 103.64 94.57 106.88 93.79C111.21 92.81 116.6 94.09 116.6 94.09Z" fill="#263238"/>
<path d="M114.491 96.14C117.491 97.14 119.871 95.63 120.441 94.19C122.841 95.25 125.991 95.39 127.011 94.03C129.011 94.03 131.151 94.39 132.111 91.53C133.071 88.67 131.881 86.1 128.741 84.65C128.671 85.29 127.041 86.12 125.511 85.06C124.653 84.5769 123.674 84.3519 122.691 84.4122C121.708 84.4726 120.764 84.8156 119.971 85.4C116.701 84.55 114.391 84.08 112.511 86.23C109.401 85.58 105.611 88.4 106.131 90.85C103.691 93.85 106.051 96.34 108.551 96.77C109.051 98 113.831 97.41 114.491 96.14Z" fill="#263238"/>
<path d="M109.271 110.91C110.428 112.371 112.112 113.319 113.961 113.55C116.391 113.83 117.171 111.55 116.131 109.43C115.191 107.52 112.791 105.09 110.531 105.78C108.271 106.47 107.851 109.09 109.271 110.91Z" fill="#FFC3BD"/>
<path d="M117.371 195.42C117.371 195.42 118.161 204.76 119.161 217.42C120.311 231.77 121.721 250.42 122.561 264.59C122.561 264.67 122.561 264.73 122.561 264.79C122.721 267.48 122.861 270.01 122.971 272.32C124.101 295.47 126.421 362.84 126.421 362.84H139.001C139.001 362.84 145.331 294.09 145.601 270.53C145.851 247.87 143.471 195.42 143.471 195.42H117.371Z" fill="#263238"/>
<path d="M125.5 359C125.45 359 125.6 363.11 125.6 363.11H140.11L140.61 358.49L125.5 359Z" fill="#0078FF"/>
<path opacity="0.2" d="M119.16 217.42C120.31 231.77 121.72 250.42 122.56 264.59C122.56 264.67 122.56 264.73 122.56 264.79C125.64 251.33 126.89 234.59 126.45 207.03L119.16 217.42Z" fill="black"/>
<path d="M129.391 195.42C129.391 195.42 122.391 249.1 118.241 270.42C113.741 293.71 88.0806 353.07 88.0806 353.07L74.8906 349.72C74.8906 349.72 93.6806 295.59 96.0106 272.53C98.5306 247.53 103.751 195.47 103.751 195.47L129.391 195.42Z" fill="#263238"/>
<path d="M75.6797 346.21C75.6297 346.21 74.1797 349.75 74.1797 349.75L88.6697 353.44L90.9297 349.51L75.6797 346.21Z" fill="#0078FF"/>
<path d="M122.81 103.35C122.89 103.95 123.26 104.4 123.65 104.35C124.04 104.3 124.29 103.79 124.21 103.19C124.13 102.59 123.76 102.19 123.38 102.19C123 102.19 122.74 102.75 122.81 103.35Z" fill="#263238"/>
<path d="M129.501 102.65C129.571 103.25 129.941 103.65 130.331 103.65C130.721 103.65 130.971 103.09 130.891 102.49C130.811 101.89 130.451 101.44 130.061 101.49C129.671 101.54 129.421 102.05 129.501 102.65Z" fill="#263238"/>
<path d="M127.41 103.17C128.34 104.929 129.504 106.554 130.87 108C130.501 108.335 130.061 108.583 129.584 108.727C129.106 108.871 128.603 108.906 128.11 108.83L127.41 103.17Z" fill="#ED847E"/>
<path d="M126.62 110.5C126.665 110.49 126.705 110.465 126.733 110.428C126.76 110.391 126.774 110.346 126.77 110.3C126.763 110.254 126.738 110.213 126.7 110.185C126.663 110.157 126.616 110.144 126.57 110.15C125.831 110.264 125.076 110.201 124.365 109.969C123.654 109.736 123.009 109.339 122.48 108.81C122.446 108.78 122.401 108.763 122.355 108.763C122.309 108.763 122.265 108.78 122.23 108.81C122.198 108.844 122.18 108.888 122.18 108.935C122.18 108.982 122.198 109.026 122.23 109.06C122.795 109.632 123.487 110.061 124.251 110.311C125.014 110.562 125.827 110.627 126.62 110.5Z" fill="#263238"/>
<path d="M120.53 101.37C120.583 101.363 120.633 101.346 120.678 101.318C120.723 101.29 120.761 101.254 120.79 101.21C120.997 100.824 121.294 100.494 121.656 100.248C122.019 100.003 122.435 99.8488 122.87 99.8C122.916 99.7975 122.961 99.7858 123.003 99.7659C123.044 99.7459 123.082 99.7179 123.112 99.6835C123.143 99.6491 123.166 99.609 123.182 99.5655C123.197 99.522 123.203 99.476 123.2 99.43C123.195 99.3363 123.154 99.2483 123.085 99.1848C123.015 99.1213 122.924 99.0872 122.83 99.09C122.279 99.1406 121.748 99.3268 121.286 99.6322C120.823 99.9375 120.444 100.352 120.18 100.84C120.136 100.921 120.125 101.017 120.149 101.106C120.173 101.195 120.231 101.272 120.31 101.32C120.374 101.365 120.453 101.383 120.53 101.37Z" fill="#263238"/>
<path d="M132.201 99.9299C132.252 99.9205 132.3 99.9 132.341 99.8699C132.379 99.8433 132.411 99.8091 132.435 99.7696C132.46 99.73 132.476 99.686 132.482 99.6401C132.489 99.5942 132.486 99.5474 132.474 99.5027C132.461 99.458 132.44 99.4162 132.411 99.38C132.096 98.9158 131.675 98.5333 131.183 98.2638C130.691 97.9943 130.142 97.8456 129.581 97.83C129.535 97.8311 129.489 97.8418 129.447 97.8614C129.405 97.8809 129.367 97.9089 129.336 97.9435C129.305 97.9782 129.282 98.0188 129.267 98.0629C129.253 98.107 129.247 98.1537 129.251 98.2C129.257 98.2937 129.298 98.3817 129.367 98.4452C129.436 98.5087 129.528 98.5427 129.621 98.5399C130.065 98.5571 130.499 98.6794 130.887 98.8967C131.274 99.114 131.605 99.4201 131.851 99.7899C131.892 99.8425 131.946 99.8832 132.007 99.9079C132.069 99.9325 132.136 99.9401 132.201 99.9299Z" fill="#263238"/>
<path d="M96 138.83L105.57 143.96C105.57 143.96 94.67 167.57 96.09 171.08C98.02 175.86 101.09 186.42 104.39 191.62C104.13 192.82 102.51 195.62 101.51 196.23C93.88 191.53 85.1 175.5 84.94 170.83C84.58 160.19 96 138.83 96 138.83Z" fill="#FFC3BD"/>
<path d="M99.8409 127.73C92.8409 128.73 85.3809 153.11 85.3809 153.11L100.381 161.45C100.381 161.45 106.601 149.86 109.591 141.26C112.701 132.25 107.351 126.63 99.8409 127.73Z" fill="#0078FF"/>
<path opacity="0.5" d="M99.8409 127.73C92.8409 128.73 85.3809 153.11 85.3809 153.11L100.381 161.45C100.381 161.45 106.601 149.86 109.591 141.26C112.701 132.25 107.351 126.63 99.8409 127.73Z" fill="black"/>
<path d="M83.6399 362.79C84.1011 362.988 84.616 363.023 85.0999 362.89C85.2611 362.822 85.403 362.715 85.513 362.579C85.6229 362.443 85.6974 362.282 85.7299 362.11C85.7594 362.011 85.7619 361.906 85.7373 361.806C85.7127 361.706 85.6618 361.614 85.5899 361.54C84.9399 360.88 82.2299 361.54 81.9199 361.54C81.8867 361.548 81.8566 361.565 81.8334 361.59C81.8102 361.615 81.7951 361.646 81.7899 361.68C81.7866 361.715 81.7932 361.751 81.8091 361.783C81.825 361.815 81.8496 361.841 81.8799 361.86C82.4281 362.238 83.0188 362.55 83.6399 362.79ZM85.1399 361.68C85.217 361.693 85.2874 361.732 85.3399 361.79C85.3611 361.825 85.3724 361.864 85.3724 361.905C85.3724 361.946 85.3611 361.985 85.3399 362.02C85.3193 362.137 85.2703 362.248 85.1971 362.342C85.1239 362.436 85.0287 362.511 84.9199 362.56C84.0124 362.652 83.1039 362.395 82.3799 361.84C83.2788 361.595 84.2188 361.541 85.1399 361.68Z" fill="#0078FF"/>
<path d="M81.91 361.93H82C82.85 361.77 84.74 360.7 84.84 359.85C84.8544 359.718 84.8237 359.585 84.7529 359.472C84.6821 359.36 84.5754 359.274 84.45 359.23C84.3266 359.178 84.194 359.151 84.06 359.151C83.926 359.151 83.7934 359.178 83.67 359.23C82.67 359.63 81.84 361.62 81.8 361.7C81.7851 361.728 81.7773 361.759 81.7773 361.79C81.7773 361.821 81.7851 361.852 81.8 361.88C81.8287 361.91 81.8682 361.928 81.91 361.93ZM84.23 359.53H84.3C84.51 359.63 84.5 359.74 84.49 359.79C84.49 360.28 83.17 361.16 82.28 361.46C82.55 360.89 83.14 359.78 83.8 359.52C83.9402 359.474 84.0921 359.477 84.23 359.53Z" fill="#0078FF"/>
<path d="M139.19 373.32C139.82 373.377 140.451 373.219 140.98 372.87C141.096 372.762 141.185 372.627 141.239 372.477C141.293 372.328 141.31 372.168 141.29 372.01C141.282 371.913 141.251 371.819 141.199 371.737C141.146 371.655 141.075 371.588 140.99 371.54C140.07 371.04 137.12 372.54 136.79 372.73C136.757 372.746 136.731 372.773 136.715 372.805C136.699 372.838 136.694 372.874 136.7 372.91C136.705 372.946 136.721 372.98 136.746 373.007C136.771 373.034 136.804 373.052 136.84 373.06C137.614 373.216 138.4 373.303 139.19 373.32ZM140.49 371.79C140.603 371.785 140.716 371.805 140.82 371.85C140.854 371.869 140.883 371.896 140.904 371.929C140.926 371.963 140.938 372.001 140.94 372.04C140.955 372.144 140.945 372.25 140.91 372.35C140.875 372.449 140.817 372.538 140.74 372.61C140.29 373.01 139.07 373.08 137.42 372.81C138.378 372.298 139.416 371.953 140.49 371.79Z" fill="#0078FF"/>
<path d="M136.88 373.06H137C137.89 372.65 139.62 371.06 139.47 370.21C139.47 370.01 139.28 369.76 138.8 369.72C138.622 369.692 138.439 369.705 138.266 369.757C138.093 369.809 137.934 369.899 137.8 370.02C136.87 370.79 136.72 372.79 136.72 372.88C136.716 372.911 136.721 372.941 136.733 372.97C136.745 372.998 136.765 373.022 136.79 373.04C136.818 373.053 136.849 373.059 136.88 373.06ZM138.62 370.06H138.72C139.04 370.06 139.06 370.21 139.07 370.25C139.16 370.76 137.99 372.02 137.07 372.57C137.128 371.729 137.45 370.927 137.99 370.28C138.164 370.128 138.389 370.046 138.62 370.05V370.06Z" fill="#0078FF"/>
<path d="M103.001 190.66L110.001 191.38L105.131 198.44C105.131 198.44 98.9912 197.61 98.7012 192.75L103.001 190.66Z" fill="#FFC3BD"/>
<path d="M114.041 194.11L109.321 200.28L105.201 198.44L110.071 191.38L114.041 194.11Z" fill="#FFC3BD"/>
<path d="M366.19 190.27L373.19 271.35C373.75 277.95 369.72 283.74 364.19 284.21L210.33 297.41C204.83 297.89 199.86 292.87 199.33 286.28L192.33 205.19C192.191 203.668 192.309 202.133 192.68 200.65C193.78 196.12 197.12 192.65 201.3 192.34L355.16 179.13C359.33 178.77 363.16 181.58 365.07 185.84C365.685 187.245 366.064 188.742 366.19 190.27Z" fill="#0078FF"/>
<path opacity="0.1" d="M366.19 190.27L373.19 271.35C373.75 277.95 369.72 283.74 364.19 284.21L210.33 297.41C204.83 297.89 199.86 292.87 199.33 286.28L192.33 205.19C192.191 203.668 192.309 202.133 192.68 200.65C193.78 196.12 197.12 192.65 201.3 192.34L355.16 179.13C359.33 178.77 363.16 181.58 365.07 185.84C365.685 187.245 366.064 188.742 366.19 190.27Z" fill="black"/>
<path d="M384.455 238.066L383.363 238.198L383.805 241.852L384.897 241.72L384.455 238.066Z" fill="#0078FF"/>
<path d="M382.328 220.427L381.236 220.559L382.881 234.17L383.973 234.038L382.328 220.427Z" fill="#0078FF"/>
<path d="M373.08 175.77L383.14 258.93C383.95 265.69 380.01 271.79 374.37 272.47L216.58 291.56C210.94 292.24 205.65 287.26 204.83 280.49L194.77 197.34C194.579 195.776 194.646 194.192 194.97 192.65C195.97 187.96 199.25 184.31 203.54 183.79L361.33 164.71C365.62 164.19 369.7 166.94 371.77 171.26C372.452 172.681 372.895 174.205 373.08 175.77Z" fill="#0078FF"/>
<path opacity="0.1" d="M371.77 171.26L300.2 219.45C296.697 221.844 292.67 223.36 288.458 223.87C284.246 224.38 279.973 223.869 276 222.38L195 192.65C196 187.96 199.28 184.31 203.57 183.79L361.36 164.71C365.62 164.19 369.7 166.94 371.77 171.26Z" fill="black"/>
<path d="M345.07 189.23L324.51 203.07L317.78 207.61L300.2 219.45C296.788 221.791 292.872 223.296 288.77 223.841C284.668 224.387 280.495 223.958 276.59 222.59L275.96 222.38L266.1 218.76L243.9 210.61L233.52 206.8L221.76 202.48L220.91 181.69L219 135.49L309.33 131.82L343.76 157.91L344.12 166.78L345.07 189.23Z" fill="#0078FF"/>
<path opacity="0.7" d="M345.07 189.23L324.51 203.07L317.78 207.61L300.2 219.45C296.788 221.791 292.872 223.296 288.77 223.841C284.668 224.387 280.495 223.958 276.59 222.59L275.96 222.38L266.1 218.76L243.9 210.61L233.52 206.8L221.76 202.48L220.91 181.69L219 135.49L309.33 131.82L343.76 157.91L344.12 166.78L345.07 189.23Z" fill="#FAFAFA"/>
<g opacity="0.9">
<path opacity="0.9" d="M332.34 167.1L232.34 171.16C231.783 171.182 231.238 170.985 230.824 170.612C230.409 170.238 230.157 169.717 230.12 169.16C230.101 168.604 230.299 168.062 230.672 167.65C231.046 167.237 231.565 166.986 232.12 166.95L332.12 162.89C332.678 162.868 333.223 163.065 333.637 163.438C334.052 163.812 334.304 164.333 334.34 164.89C334.362 165.447 334.165 165.99 333.791 166.403C333.418 166.816 332.897 167.066 332.34 167.1Z" fill="white"/>
<path opacity="0.9" d="M332.87 180.39L232.87 184.45C232.312 184.472 231.768 184.275 231.353 183.902C230.938 183.528 230.686 183.007 230.65 182.45C230.63 181.893 230.828 181.35 231.201 180.936C231.574 180.522 232.094 180.269 232.65 180.23L332.65 176.17C333.207 176.15 333.75 176.348 334.164 176.721C334.578 177.094 334.831 177.614 334.87 178.17C334.887 178.726 334.688 179.268 334.316 179.682C333.943 180.095 333.425 180.349 332.87 180.39Z" fill="white"/>
<path opacity="0.9" d="M333.411 193.67L233.411 197.73C232.853 197.752 232.309 197.555 231.894 197.182C231.48 196.808 231.227 196.287 231.191 195.73C231.169 195.173 231.366 194.63 231.74 194.217C232.114 193.804 232.635 193.554 233.191 193.52L333.191 189.46C333.748 189.438 334.291 189.635 334.704 190.009C335.117 190.383 335.368 190.904 335.401 191.46C335.423 192.015 335.227 192.557 334.856 192.97C334.484 193.383 333.966 193.634 333.411 193.67Z" fill="white"/>
<path opacity="0.9" d="M324.51 203.07L317.78 207.61L243.9 210.61L233.52 206.8C233.606 206.79 233.693 206.79 233.78 206.8L324.51 203.07Z" fill="white"/>
<path opacity="0.9" d="M297.141 219.62V219.7C297.142 220.244 296.936 220.768 296.564 221.166C296.193 221.563 295.684 221.804 295.141 221.84L276.631 222.59L276.001 222.38L266.141 218.76L294.971 217.58C295.526 217.572 296.064 217.78 296.469 218.161C296.874 218.541 297.115 219.065 297.141 219.62Z" fill="white"/>
</g>
<path opacity="0.1" d="M343.801 157.91L319.881 156.88L309.371 131.82L343.801 157.91Z" fill="#263238"/>
<path d="M343.801 157.91L320.591 153.94L309.371 131.82L343.801 157.91Z" fill="#0078FF"/>
<path d="M389.811 60.93C389.811 81.27 367.521 101.26 364.181 101.26C360.841 101.26 338.551 81.26 338.551 60.93C338.551 47.3 350.021 36.24 364.181 36.24C378.341 36.24 389.811 47.3 389.811 60.93Z" fill="#0078FF"/>
<path opacity="0.1" d="M359.421 55.86C354.781 60.95 348.481 62.77 345.351 59.86C342.221 56.95 343.441 50.57 348.071 45.48C352.701 40.39 359.011 38.57 362.151 41.42C365.291 44.27 364.061 50.77 359.421 55.86Z" fill="white"/>
<path opacity="0.1" d="M345.751 76.35C345.141 74.83 345.301 73.35 346.111 73.01C346.921 72.67 348.111 73.65 348.681 75.17C349.251 76.69 349.131 78.17 348.321 78.5C347.511 78.83 346.361 77.86 345.751 76.35Z" fill="white"/>
<path d="M363.079 165.26C362.972 165.257 362.869 165.213 362.792 165.137C362.716 165.061 362.672 164.958 362.669 164.85C362.64 163.501 363.047 162.179 363.829 161.08C364.501 160.095 364.86 158.932 364.86 157.74C364.86 156.548 364.501 155.385 363.829 154.4C363.074 153.288 362.67 151.974 362.67 150.63C362.67 149.286 363.074 147.972 363.829 146.86C364.501 145.877 364.86 144.715 364.86 143.525C364.86 142.335 364.501 141.172 363.829 140.19C363.074 139.08 362.669 137.768 362.669 136.425C362.669 135.082 363.074 133.77 363.829 132.66C364.501 131.677 364.86 130.515 364.86 129.325C364.86 128.135 364.501 126.972 363.829 125.99C363.074 124.88 362.669 123.568 362.669 122.225C362.669 120.882 363.074 119.57 363.829 118.46C364.501 117.477 364.86 116.315 364.86 115.125C364.86 113.935 364.501 112.772 363.829 111.79C363.074 110.68 362.669 109.368 362.669 108.025C362.669 106.682 363.074 105.37 363.829 104.26C364.514 103.287 364.865 102.119 364.829 100.93C364.845 100.831 364.895 100.741 364.971 100.676C365.047 100.61 365.144 100.575 365.244 100.575C365.345 100.575 365.442 100.61 365.518 100.676C365.594 100.741 365.644 100.831 365.659 100.93C365.688 102.275 365.281 103.594 364.499 104.69C363.817 105.667 363.466 106.838 363.499 108.03C363.464 109.219 363.815 110.387 364.499 111.36C365.255 112.47 365.659 113.782 365.659 115.125C365.659 116.468 365.255 117.78 364.499 118.89C363.823 119.87 363.46 121.034 363.46 122.225C363.46 123.416 363.823 124.58 364.499 125.56C365.255 126.67 365.659 127.982 365.659 129.325C365.659 130.668 365.255 131.98 364.499 133.09C363.823 134.07 363.46 135.234 363.46 136.425C363.46 137.616 363.823 138.78 364.499 139.76C365.255 140.87 365.659 142.182 365.659 143.525C365.659 144.868 365.255 146.18 364.499 147.29C363.822 148.272 363.459 149.437 363.459 150.63C363.459 151.823 363.822 152.988 364.499 153.97C365.255 155.082 365.659 156.396 365.659 157.74C365.659 159.084 365.255 160.398 364.499 161.51C363.813 162.486 363.462 163.658 363.499 164.85C363.499 164.905 363.489 164.959 363.467 165.009C363.446 165.06 363.415 165.105 363.376 165.143C363.337 165.182 363.29 165.212 363.239 165.232C363.189 165.252 363.134 165.261 363.079 165.26Z" fill="#263238"/>
<path d="M364.18 100.3C363.39 100.3 358.18 105 358.18 109.78H370.2C370.2 105 365 100.3 364.18 100.3Z" fill="#0078FF"/>
<path d="M365.36 100.46H363C362.807 100.46 362.65 100.617 362.65 100.81V101.06C362.65 101.253 362.807 101.41 363 101.41H365.36C365.554 101.41 365.71 101.253 365.71 101.06V100.81C365.71 100.617 365.554 100.46 365.36 100.46Z" fill="#263238"/>
<path d="M229 79.94C229 100.27 206.71 120.26 203.37 120.26C200.03 120.26 177.74 100.26 177.74 79.94C177.74 66.3 189.21 55.24 203.37 55.24C217.53 55.24 229 66.3 229 79.94Z" fill="#263238"/>
<path opacity="0.1" d="M199.214 75.6933C203.852 70.6018 205.073 64.162 201.941 61.3095C198.81 58.4569 192.512 60.2719 187.874 65.3633C183.236 70.4547 182.015 76.8945 185.147 79.7471C188.278 82.5996 194.577 80.7847 199.214 75.6933Z" fill="white"/>
<path opacity="0.1" d="M185.54 96.18C184.93 94.66 185.09 93.18 185.9 92.84C186.71 92.5 187.9 93.48 188.47 95C189.04 96.52 188.92 98 188.11 98.34C187.3 98.68 186.15 97.7 185.54 96.18Z" fill="white"/>
<path d="M202.23 184.26C202.121 184.26 202.017 184.217 201.94 184.14C201.863 184.063 201.82 183.959 201.82 183.85C201.79 182.501 202.197 181.179 202.98 180.08C203.651 179.095 204.01 177.932 204.01 176.74C204.01 175.548 203.651 174.385 202.98 173.4C202.225 172.288 201.821 170.974 201.821 169.63C201.821 168.286 202.225 166.972 202.98 165.86C203.665 164.887 204.015 163.719 203.98 162.53C204.013 161.338 203.663 160.167 202.98 159.19C202.224 158.08 201.82 156.768 201.82 155.425C201.82 154.082 202.224 152.77 202.98 151.66C203.665 150.687 204.015 149.519 203.98 148.33C204.013 147.138 203.663 145.967 202.98 144.99C202.224 143.88 201.82 142.568 201.82 141.225C201.82 139.882 202.224 138.57 202.98 137.46C203.651 136.479 204.009 135.318 204.009 134.13C204.009 132.942 203.651 131.781 202.98 130.8C202.224 129.69 201.82 128.378 201.82 127.035C201.82 125.692 202.224 124.38 202.98 123.27C203.663 122.293 204.013 121.122 203.98 119.93C203.982 119.822 204.026 119.719 204.103 119.643C204.179 119.567 204.282 119.523 204.39 119.52C204.499 119.52 204.603 119.563 204.68 119.64C204.757 119.717 204.8 119.821 204.8 119.93C204.831 121.278 204.428 122.599 203.65 123.7C202.972 124.678 202.61 125.84 202.61 127.03C202.61 128.22 202.972 129.382 203.65 130.36C204.399 131.473 204.799 132.784 204.799 134.125C204.799 135.466 204.399 136.777 203.65 137.89C202.967 138.867 202.616 140.038 202.65 141.23C202.614 142.419 202.965 143.587 203.65 144.56C204.399 145.673 204.799 146.984 204.799 148.325C204.799 149.666 204.399 150.977 203.65 152.09C202.967 153.067 202.616 154.238 202.65 155.43C202.614 156.619 202.965 157.787 203.65 158.76C204.399 159.873 204.799 161.184 204.799 162.525C204.799 163.866 204.399 165.177 203.65 166.29C202.972 167.272 202.609 168.437 202.609 169.63C202.609 170.823 202.972 171.988 203.65 172.97C204.4 174.084 204.801 175.397 204.801 176.74C204.801 178.083 204.4 179.396 203.65 180.51C202.966 181.487 202.615 182.658 202.65 183.85C202.65 183.905 202.639 183.959 202.618 184.009C202.597 184.06 202.565 184.105 202.526 184.144C202.487 184.182 202.441 184.212 202.39 184.232C202.339 184.252 202.285 184.261 202.23 184.26Z" fill="#0078FF"/>
<path d="M203.33 119.31C202.54 119.31 197.33 124 197.33 128.78H209.33C209.35 124 204.11 119.31 203.33 119.31Z" fill="#263238"/>
<path d="M204.511 119.46H202.151C201.957 119.46 201.801 119.617 201.801 119.81V120.06C201.801 120.253 201.957 120.41 202.151 120.41H204.511C204.704 120.41 204.861 120.253 204.861 120.06V119.81C204.861 119.617 204.704 119.46 204.511 119.46Z" fill="#0078FF"/>
<path d="M378.057 183.826C384.114 178.263 384.515 168.844 378.953 162.787C373.391 156.73 363.972 156.328 357.915 161.891C351.858 167.453 351.456 176.872 357.018 182.929C362.58 188.986 372 189.388 378.057 183.826Z" fill="#DE5753"/>
<path d="M370.94 165.67V180.67H366.8V170.85C366.189 171.321 365.536 171.736 364.85 172.09C364.089 172.452 363.299 172.753 362.49 172.99V169.64C363.664 169.304 364.766 168.755 365.74 168.02C366.509 167.387 367.128 166.591 367.55 165.69L370.94 165.67Z" fill="white"/>
</svg>
