<svg width="100%" viewBox="0 0 432 432" fill="none" xmlns="http://www.w3.org/2000/svg">
<path d="M16 348H416V349H16V348Z" fill="#EBEBEB"/>
<path d="M328.339 355.21H361.459V355.46H328.339V355.21Z" fill="#EBEBEB"/>
<path d="M254.109 364.37H294.859V364.62H254.109V364.37Z" fill="#EBEBEB"/>
<path d="M362.459 361.24H413.539V361.49H362.459V361.24Z" fill="#EBEBEB"/>
<path d="M16.0983 356.89H109.238V357.14H16.0983V356.89Z" fill="#EBEBEB"/>
<path d="M118.139 356.89H124.469V357.14H118.139V356.89Z" fill="#EBEBEB"/>
<path d="M146.559 361.11H188.789V361.36H146.559V361.11Z" fill="#EBEBEB"/>
<path d="M235.609 348.4V147.22H316.359V348.4H235.609Z" fill="#F0F0F0"/>
<path d="M240.049 211.49V152.27H311.929V211.49H240.049Z" fill="#E6E6E6"/>
<path d="M240.039 276.03V216.81H311.919V276.03H240.039Z" fill="#E6E6E6"/>
<path d="M240.039 340.56V281.34H311.919V340.56H240.039Z" fill="#E6E6E6"/>
<path d="M240.039 211.49V152.27H268.309V211.49H240.039Z" fill="#E0E0E0"/>
<path d="M240.049 276.02V216.8H268.319V276.02H240.049Z" fill="#E0E0E0"/>
<path d="M280.969 252.37H300.559V276.03H280.969V252.37Z" fill="#FAFAFA"/>
<path d="M308.829 276.02H300.559V252.36H308.829V276.02Z" fill="#F0F0F0"/>
<path d="M249.33 252.37H268.92V276.03H249.33V252.37Z" fill="#FAFAFA"/>
<path d="M277.178 276.02H268.908V252.36H277.178V276.02Z" fill="#F0F0F0"/>
<path d="M264.799 228.71H284.389V252.37H264.799V228.71Z" fill="#FAFAFA"/>
<path d="M292.659 252.37H284.389V228.71H292.659V252.37Z" fill="#F0F0F0"/>
<path d="M240.039 340.56V281.34H268.309V340.56H240.039Z" fill="#E0E0E0"/>
<path d="M316.359 348.4V147.22H338.289V348.4H316.359Z" fill="#F5F5F5"/>
<path d="M244.919 289.88H303.289V340.56H244.919V289.88Z" fill="#F0F0F0"/>
<path d="M311.919 340.55H303.279V289.87H311.919V340.55Z" fill="#E0E0E0"/>
<path d="M244.919 160.81H303.289V211.49H244.919V160.81Z" fill="#F0F0F0"/>
<path d="M311.919 211.48H303.279V160.8H311.919V211.48Z" fill="#E0E0E0"/>
<path d="M40 348.4L40 53.67L179.12 53.67L179.12 348.4H40Z" fill="#FAFAFA"/>
<path d="M179.119 348.4L179.119 53.67H179.639L179.639 348.4H179.119Z" fill="#F0F0F0"/>
<path d="M55.4986 63.34H169.059V348.4H55.4986V63.34Z" fill="#E6E6E6"/>
<path d="M49.4188 63.34H166.219V348.4H49.4188V63.34Z" fill="#F0F0F0"/>
<path d="M57.9297 208.24V211.83L54.3397 208.24H57.9297Z" fill="#E0E0E0"/>
<path d="M57.9297 339.89L57.9297 71.86H157.71V339.89H57.9297Z" fill="#FAFAFA"/>
<path d="M76.4783 206.78C77.2103 206.78 77.9123 207.071 78.4299 207.588C78.9475 208.106 79.2383 208.808 79.2383 209.54C79.2383 210.272 78.9475 210.974 78.4299 211.492C77.9123 212.009 77.2103 212.3 76.4783 212.3H58.9983V206.78H76.4783Z" fill="#F5F5F5"/>
<path d="M135.818 339.89L105.368 71.86H84.8583L115.308 339.89H135.818Z" fill="white"/>
<path d="M110.898 339.89L80.4485 71.86H72.4485L102.898 339.89H110.898Z" fill="white"/>
<path d="M57.9297 339.88L57.9297 71.85H59.0097L59.0097 339.88H57.9297Z" fill="#E6E6E6"/>
<path d="M55.2896 208.63H72.7596C73.4907 208.627 74.1912 208.336 74.7083 207.819C75.2253 207.302 75.5169 206.601 75.5195 205.87C75.5169 205.139 75.2253 204.438 74.7083 203.921C74.1912 203.404 73.4907 203.113 72.7596 203.11H55.2896C54.5576 203.11 53.8555 203.401 53.3379 203.918C52.8203 204.436 52.5295 205.138 52.5295 205.87C52.5295 206.602 52.8203 207.304 53.3379 207.822C53.8555 208.339 54.5576 208.63 55.2896 208.63Z" fill="#EBEBEB"/>
<path d="M352.939 87.85H402.029V165.94H352.939V87.85Z" fill="#E0E0E0"/>
<path d="M349.988 87.85H400.738V165.94H349.988V87.85Z" fill="#F5F5F5"/>
<path d="M396.479 93.54V160.24H354.229V93.54H396.479Z" fill="white"/>
<path d="M283.629 50.17H332.719V128.26H283.629V50.17Z" fill="#E0E0E0"/>
<path d="M280.67 50.17H331.42V128.26H280.67V50.17Z" fill="#F5F5F5"/>
<path d="M327.17 55.87V122.57H284.92V55.87H327.17Z" fill="white"/>
<path d="M216.001 393.56C108.918 393.56 22.1106 388.492 22.1106 382.24C22.1106 375.988 108.918 370.92 216.001 370.92C323.083 370.92 409.891 375.988 409.891 382.24C409.891 388.492 323.083 393.56 216.001 393.56Z" fill="#F5F5F5"/>
<path d="M65.8102 190.27L58.8102 271.35C58.2502 277.95 62.2802 283.74 67.8102 284.21L221.67 297.41C227.17 297.89 232.14 292.87 232.67 286.28L239.67 205.19C239.809 203.668 239.691 202.133 239.32 200.65C238.22 196.12 234.88 192.65 230.7 192.34L76.8402 179.13C72.6702 178.77 68.8402 181.58 66.9302 185.84C66.3147 187.245 65.9362 188.742 65.8102 190.27Z" fill="#0078FF"/>
<path opacity="0.1" d="M65.8102 190.27L58.8102 271.35C58.2502 277.95 62.2802 283.74 67.8102 284.21L221.67 297.41C227.17 297.89 232.14 292.87 232.67 286.28L239.67 205.19C239.809 203.668 239.691 202.133 239.32 200.65C238.22 196.12 234.88 192.65 230.7 192.34L76.8402 179.13C72.6702 178.77 68.8402 181.58 66.9302 185.84C66.3147 187.245 65.9362 188.742 65.8102 190.27Z" fill="black"/>
<path d="M47.5447 238.066L48.6367 238.198L48.1953 241.852L47.1032 241.72L47.5447 238.066Z" fill="#0078FF"/>
<path d="M49.6716 220.427L50.7637 220.559L49.119 234.17L48.0269 234.038L49.6716 220.427Z" fill="#0078FF"/>
<path d="M58.9197 175.77L48.8597 258.93C48.0497 265.69 51.9897 271.79 57.6297 272.47L215.42 291.56C221.06 292.24 226.35 287.26 227.17 280.49L237.23 197.34C237.421 195.776 237.354 194.192 237.03 192.65C236.03 187.96 232.75 184.31 228.46 183.79L70.6697 164.71C66.3797 164.19 62.2997 166.94 60.2297 171.26C59.5477 172.681 59.105 174.205 58.9197 175.77Z" fill="#0078FF"/>
<path opacity="0.1" d="M60.23 171.26L131.8 219.45C135.303 221.844 139.33 223.36 143.542 223.87C147.754 224.38 152.027 223.869 156 222.38L237 192.65C236 187.96 232.72 184.31 228.43 183.79L70.64 164.71C66.38 164.19 62.3 166.94 60.23 171.26Z" fill="black"/>
<path d="M86.93 189.23L107.49 203.07L114.22 207.61L131.8 219.45C135.212 221.791 139.128 223.296 143.23 223.841C147.332 224.387 151.505 223.958 155.41 222.59L156.04 222.38L165.9 218.76L188.1 210.61L198.48 206.8L210.24 202.48L211.09 181.69L213 135.49L122.67 131.82L88.24 157.91L87.88 166.78L86.93 189.23Z" fill="#0078FF"/>
<path opacity="0.7" d="M86.93 189.23L107.49 203.07L114.22 207.61L131.8 219.45C135.212 221.791 139.128 223.296 143.23 223.841C147.332 224.387 151.505 223.958 155.41 222.59L156.04 222.38L165.9 218.76L188.1 210.61L198.48 206.8L210.24 202.48L211.09 181.69L213 135.49L122.67 131.82L88.24 157.91L87.88 166.78L86.93 189.23Z" fill="#FAFAFA"/>
<g opacity="0.9">
<path opacity="0.9" d="M99.6596 167.1L199.66 171.16C200.217 171.182 200.762 170.985 201.176 170.612C201.591 170.238 201.843 169.717 201.88 169.16C201.899 168.604 201.701 168.062 201.328 167.65C200.954 167.237 200.435 166.986 199.88 166.95L99.8796 162.89C99.3218 162.868 98.7775 163.065 98.3627 163.438C97.948 163.812 97.6956 164.333 97.6596 164.89C97.6376 165.447 97.8347 165.99 98.2086 166.403C98.5825 166.816 99.1034 167.066 99.6596 167.1Z" fill="white"/>
<path opacity="0.9" d="M99.1302 180.39L199.13 184.45C199.688 184.472 200.232 184.275 200.647 183.902C201.062 183.528 201.314 183.007 201.35 182.45C201.37 181.893 201.172 181.35 200.799 180.936C200.426 180.522 199.906 180.269 199.35 180.23L99.3503 176.17C98.7931 176.15 98.2502 176.348 97.836 176.721C97.4219 177.094 97.1688 177.614 97.1302 178.17C97.1133 178.726 97.3118 179.268 97.6844 179.682C98.0571 180.095 98.575 180.349 99.1302 180.39Z" fill="white"/>
<path opacity="0.9" d="M98.5889 193.67L198.589 197.73C199.147 197.752 199.691 197.555 200.106 197.182C200.52 196.808 200.773 196.287 200.809 195.73C200.831 195.173 200.634 194.63 200.26 194.217C199.886 193.804 199.365 193.554 198.809 193.52L98.8089 189.46C98.2521 189.438 97.7089 189.635 97.2958 190.009C96.8827 190.383 96.6325 190.904 96.5989 191.46C96.5769 192.015 96.7726 192.557 97.1444 192.97C97.5161 193.383 98.0345 193.634 98.5889 193.67Z" fill="white"/>
<path opacity="0.9" d="M107.49 203.07L114.22 207.61L188.1 210.61L198.48 206.8C198.394 206.79 198.307 206.79 198.22 206.8L107.49 203.07Z" fill="white"/>
<path opacity="0.9" d="M134.859 219.62V219.7C134.858 220.244 135.064 220.768 135.436 221.166C135.807 221.563 136.316 221.804 136.859 221.84L155.369 222.59L155.999 222.38L165.859 218.76L137.029 217.58C136.474 217.572 135.936 217.78 135.531 218.161C135.126 218.541 134.885 219.065 134.859 219.62Z" fill="white"/>
</g>
<path opacity="0.1" d="M88.1989 157.91L112.119 156.88L122.629 131.82L88.1989 157.91Z" fill="#263238"/>
<path d="M88.1989 157.91L111.409 153.94L122.629 131.82L88.1989 157.91Z" fill="#0078FF"/>
<path d="M42.1892 60.93C42.1892 81.27 64.4792 101.26 67.8192 101.26C71.1592 101.26 93.4492 81.26 93.4492 60.93C93.4492 47.3 81.9792 36.24 67.8192 36.24C53.6592 36.24 42.1892 47.3 42.1892 60.93Z" fill="#0078FF"/>
<path opacity="0.1" d="M72.5791 55.86C77.2191 60.95 83.5191 62.77 86.6491 59.86C89.7791 56.95 88.5591 50.57 83.9291 45.48C79.2991 40.39 72.9891 38.57 69.8491 41.42C66.7091 44.27 67.9391 50.77 72.5791 55.86Z" fill="white"/>
<path opacity="0.1" d="M86.2489 76.35C86.8589 74.83 86.6989 73.35 85.8889 73.01C85.0789 72.67 83.8889 73.65 83.3189 75.17C82.7489 76.69 82.8689 78.17 83.6789 78.5C84.4889 78.83 85.6389 77.86 86.2489 76.35Z" fill="white"/>
<path d="M68.9205 165.26C69.0285 165.257 69.1313 165.213 69.2076 165.137C69.284 165.061 69.328 164.958 69.3305 164.85C69.3602 163.501 68.9534 162.179 68.1705 161.08C67.4994 160.095 67.1405 158.932 67.1405 157.74C67.1405 156.548 67.4994 155.385 68.1705 154.4C68.9259 153.288 69.3298 151.974 69.3298 150.63C69.3298 149.286 68.9259 147.972 68.1705 146.86C67.499 145.877 67.1397 144.715 67.1397 143.525C67.1397 142.335 67.499 141.172 68.1705 140.19C68.9263 139.08 69.3305 137.768 69.3305 136.425C69.3305 135.082 68.9263 133.77 68.1705 132.66C67.499 131.677 67.1397 130.515 67.1397 129.325C67.1397 128.135 67.499 126.972 68.1705 125.99C68.9263 124.88 69.3305 123.568 69.3305 122.225C69.3305 120.882 68.9263 119.57 68.1705 118.46C67.499 117.477 67.1397 116.315 67.1397 115.125C67.1397 113.935 67.499 112.772 68.1705 111.79C68.9263 110.68 69.3305 109.368 69.3305 108.025C69.3305 106.682 68.9263 105.37 68.1705 104.26C67.4859 103.287 67.135 102.119 67.1705 100.93C67.1551 100.831 67.1048 100.741 67.0287 100.676C66.9526 100.61 66.8557 100.575 66.7555 100.575C66.6553 100.575 66.5584 100.61 66.4823 100.676C66.4062 100.741 66.3559 100.831 66.3405 100.93C66.3123 102.275 66.7191 103.594 67.5005 104.69C68.1833 105.667 68.5339 106.838 68.5005 108.03C68.536 109.219 68.1852 110.387 67.5005 111.36C66.7447 112.47 66.3405 113.782 66.3405 115.125C66.3405 116.468 66.7447 117.78 67.5005 118.89C68.1774 119.87 68.5399 121.034 68.5399 122.225C68.5399 123.416 68.1774 124.58 67.5005 125.56C66.7447 126.67 66.3405 127.982 66.3405 129.325C66.3405 130.668 66.7447 131.98 67.5005 133.09C68.1774 134.07 68.5399 135.234 68.5399 136.425C68.5399 137.616 68.1774 138.78 67.5005 139.76C66.7447 140.87 66.3405 142.182 66.3405 143.525C66.3405 144.868 66.7447 146.18 67.5005 147.29C68.1783 148.272 68.5412 149.437 68.5412 150.63C68.5412 151.823 68.1783 152.988 67.5005 153.97C66.7452 155.082 66.3413 156.396 66.3413 157.74C66.3413 159.084 66.7452 160.398 67.5005 161.51C68.1866 162.486 68.5375 163.658 68.5005 164.85C68.5005 164.905 68.5114 164.959 68.5327 165.009C68.5539 165.06 68.585 165.105 68.6241 165.143C68.6633 165.182 68.7097 165.212 68.7606 165.232C68.8115 165.252 68.8659 165.261 68.9205 165.26Z" fill="#263238"/>
<path d="M67.8203 100.3C68.6103 100.3 73.8203 105 73.8203 109.78H61.8003C61.8003 105 67.0003 100.3 67.8203 100.3Z" fill="#0078FF"/>
<path d="M66.6396 100.46H68.9996C69.1929 100.46 69.3496 100.617 69.3496 100.81V101.06C69.3496 101.253 69.1929 101.41 68.9996 101.41H66.6396C66.4463 101.41 66.2896 101.253 66.2896 101.06V100.81C66.2896 100.617 66.4463 100.46 66.6396 100.46Z" fill="#263238"/>
<path d="M203 79.94C203 100.27 225.29 120.26 228.63 120.26C231.97 120.26 254.26 100.26 254.26 79.94C254.26 66.3 242.79 55.24 228.63 55.24C214.47 55.24 203 66.3 203 79.94Z" fill="#263238"/>
<path opacity="0.1" d="M232.786 75.6933C228.148 70.6018 226.927 64.162 230.059 61.3095C233.19 58.4569 239.488 60.2719 244.126 65.3633C248.764 70.4547 249.985 76.8945 246.853 79.7471C243.722 82.5996 237.423 80.7847 232.786 75.6933Z" fill="white"/>
<path opacity="0.1" d="M246.46 96.18C247.07 94.66 246.91 93.18 246.1 92.84C245.29 92.5 244.1 93.48 243.53 95C242.96 96.52 243.08 98 243.89 98.34C244.7 98.68 245.85 97.7 246.46 96.18Z" fill="white"/>
<path d="M229.77 184.26C229.879 184.26 229.983 184.217 230.06 184.14C230.137 184.063 230.18 183.959 230.18 183.85C230.21 182.501 229.803 181.179 229.02 180.08C228.349 179.095 227.99 177.932 227.99 176.74C227.99 175.548 228.349 174.385 229.02 173.4C229.775 172.288 230.179 170.974 230.179 169.63C230.179 168.286 229.775 166.972 229.02 165.86C228.335 164.887 227.985 163.719 228.02 162.53C227.987 161.338 228.337 160.167 229.02 159.19C229.776 158.08 230.18 156.768 230.18 155.425C230.18 154.082 229.776 152.77 229.02 151.66C228.335 150.687 227.985 149.519 228.02 148.33C227.987 147.138 228.337 145.967 229.02 144.99C229.776 143.88 230.18 142.568 230.18 141.225C230.18 139.882 229.776 138.57 229.02 137.46C228.349 136.479 227.991 135.318 227.991 134.13C227.991 132.942 228.349 131.781 229.02 130.8C229.776 129.69 230.18 128.378 230.18 127.035C230.18 125.692 229.776 124.38 229.02 123.27C228.337 122.293 227.987 121.122 228.02 119.93C228.018 119.822 227.974 119.719 227.897 119.643C227.821 119.567 227.718 119.523 227.61 119.52C227.501 119.52 227.397 119.563 227.32 119.64C227.243 119.717 227.2 119.821 227.2 119.93C227.169 121.278 227.572 122.599 228.35 123.7C229.028 124.678 229.39 125.84 229.39 127.03C229.39 128.22 229.028 129.382 228.35 130.36C227.601 131.473 227.201 132.784 227.201 134.125C227.201 135.466 227.601 136.777 228.35 137.89C229.033 138.867 229.384 140.038 229.35 141.23C229.386 142.419 229.035 143.587 228.35 144.56C227.601 145.673 227.201 146.984 227.201 148.325C227.201 149.666 227.601 150.977 228.35 152.09C229.033 153.067 229.384 154.238 229.35 155.43C229.386 156.619 229.035 157.787 228.35 158.76C227.601 159.873 227.201 161.184 227.201 162.525C227.201 163.866 227.601 165.177 228.35 166.29C229.028 167.272 229.391 168.437 229.391 169.63C229.391 170.823 229.028 171.988 228.35 172.97C227.6 174.084 227.199 175.397 227.199 176.74C227.199 178.083 227.6 179.396 228.35 180.51C229.034 181.487 229.385 182.658 229.35 183.85C229.35 183.905 229.361 183.959 229.382 184.009C229.403 184.06 229.435 184.105 229.474 184.144C229.513 184.182 229.559 184.212 229.61 184.232C229.661 184.252 229.715 184.261 229.77 184.26Z" fill="#0078FF"/>
<path d="M228.67 119.31C229.46 119.31 234.67 124 234.67 128.78H222.67C222.65 124 227.89 119.31 228.67 119.31Z" fill="#263238"/>
<path d="M227.489 119.46H229.849C230.043 119.46 230.199 119.617 230.199 119.81V120.06C230.199 120.253 230.043 120.41 229.849 120.41H227.489C227.296 120.41 227.139 120.253 227.139 120.06V119.81C227.139 119.617 227.296 119.46 227.489 119.46Z" fill="#0078FF"/>
<path d="M318.93 74C319.62 61.91 345.18 63.11 350.2 74.39C355.22 85.67 351.1 96.04 365.03 102.85C389.66 114.85 392.34 130.79 383.03 146.48C373.72 162.17 337.36 173.16 317.58 147.48C298.07 122.13 327.73 116.48 312.38 104.55C299 94.09 300.14 75.46 318.93 74Z" fill="#263238"/>
<path d="M307.999 132.21C307.669 132.61 307.489 132.81 307.259 133.07C307.029 133.33 306.809 133.55 306.589 133.79C306.139 134.24 305.689 134.69 305.239 135.1C304.329 135.95 303.399 136.73 302.459 137.49C300.57 138.97 298.589 140.329 296.529 141.56C294.5 142.775 292.407 143.88 290.259 144.87C289.179 145.35 288.109 145.87 287.019 146.27L285.379 146.9L284.559 147.21C284.081 147.391 283.589 147.534 283.089 147.64C281.849 147.911 280.559 147.834 279.361 147.417C278.163 147.001 277.103 146.261 276.299 145.28C275.257 143.992 274.507 142.495 274.099 140.89C273.464 138.46 273.128 135.961 273.099 133.45C273.033 128.823 273.425 124.2 274.269 119.65L278.749 120.02C278.894 124.323 279.261 128.615 279.849 132.88C280.108 134.81 280.57 136.707 281.229 138.54C281.401 139.099 281.702 139.609 282.109 140.03C282.179 140.03 282.109 139.94 281.849 139.81C281.675 139.745 281.493 139.705 281.309 139.69C281.309 139.69 281.309 139.69 281.429 139.62L282.139 139.27L283.569 138.59L286.369 137.15C288.199 136.15 290.009 135.1 291.729 133.95C293.449 132.8 295.129 131.62 296.729 130.34C297.519 129.71 298.289 129.06 299.009 128.34C299.379 128.01 299.719 127.67 300.059 127.34L300.549 126.86L300.909 126.47L307.999 132.21Z" fill="#FFC3BD"/>
<path d="M308.199 118.21C304.529 117.31 295.199 129.39 295.199 129.39L300.869 140.18C300.869 140.18 316.539 131.33 315.949 126.46C315.329 121.38 313.549 119.52 308.199 118.21Z" fill="#0078FF"/>
<path opacity="0.2" d="M308.199 118.21C304.529 117.31 295.199 129.39 295.199 129.39L300.869 140.18C300.869 140.18 316.539 131.33 315.949 126.46C315.329 121.38 313.549 119.52 308.199 118.21Z" fill="black"/>
<path opacity="0.2" d="M305.77 122.39L306.67 136.52C303.55 138.65 300.86 140.18 300.86 140.18L299.68 137.92L305.77 122.39Z" fill="black"/>
<path d="M278.079 123L282.209 113.8L273.429 115.89C273.429 115.89 271.909 121.39 274.589 123.89L278.079 123Z" fill="#FFC3BD"/>
<path d="M281.7 107.22L274.16 107.85L273.43 115.9L282.21 113.81L281.7 107.22Z" fill="#FFC3BD"/>
<path d="M316.33 368.58L307.48 368.93L305.91 348.37L314.76 348.03L316.33 368.58Z" fill="#FFC3BD"/>
<path d="M395.139 292.99L389.369 299.73L371.889 288.55L377.659 281.8L395.139 292.99Z" fill="#FFC3BD"/>
<path d="M387.43 299.35L392.72 290.89C392.808 290.742 392.947 290.632 393.111 290.58C393.276 290.528 393.453 290.539 393.61 290.61L400.9 293.83C401.074 293.918 401.229 294.041 401.354 294.191C401.479 294.341 401.572 294.515 401.628 294.702C401.683 294.89 401.699 295.086 401.676 295.28C401.652 295.474 401.589 295.661 401.49 295.83C399.59 298.75 398.49 300.06 396.21 303.78C394.78 306.07 392.46 310.78 390.48 313.91C388.5 317.04 385.28 315.28 385.82 313.79C388.24 307.1 387.54 303.89 387.11 300.86C387.04 300.335 387.153 299.802 387.43 299.35Z" fill="#263238"/>
<path d="M307.189 368.41L316.789 365.72C316.954 365.669 317.132 365.68 317.289 365.752C317.446 365.824 317.57 365.952 317.639 366.11L320.859 373.4C320.932 373.59 320.963 373.793 320.951 373.996C320.938 374.198 320.883 374.396 320.789 374.576C320.694 374.756 320.562 374.913 320.402 375.038C320.242 375.163 320.057 375.252 319.859 375.3C316.499 376.18 314.859 376.44 310.609 377.62C308.009 378.35 300.419 381.77 296.699 382.07C292.979 382.37 292.499 378.7 294.019 378.25C298.913 376.804 303.119 373.636 305.859 369.33C306.178 368.874 306.65 368.547 307.189 368.41Z" fill="#263238"/>
<g opacity="0.2">
<path opacity="0.2" d="M305.91 348.38L306.72 358.98L315.57 358.63L314.76 348.03L305.91 348.38Z" fill="black"/>
<path opacity="0.2" d="M377.661 281.8L371.891 288.55L380.911 294.31L386.681 287.56L377.661 281.8Z" fill="black"/>
</g>
<path d="M303.569 121.9C302.709 126.9 301.889 139.6 305.569 169.12L341.569 171.34C341.849 157.54 342.569 146.42 350.039 119.75C350.225 119.092 350.262 118.401 350.146 117.727C350.031 117.053 349.765 116.413 349.37 115.855C348.975 115.297 348.46 114.834 347.863 114.501C347.265 114.168 346.601 113.973 345.919 113.93C343.179 113.77 339.729 113.66 336.209 113.81C330.664 113.931 325.134 114.432 319.659 115.31C314.989 116.15 309.879 117.45 306.909 118.24C306.059 118.464 305.292 118.929 304.699 119.578C304.107 120.227 303.714 121.033 303.569 121.9Z" fill="#0078FF"/>
<path opacity="0.2" d="M303.569 121.9C302.709 126.9 301.889 139.6 305.569 169.12L341.569 171.34C341.849 157.54 342.569 146.42 350.039 119.75C350.225 119.092 350.262 118.401 350.146 117.727C350.031 117.053 349.765 116.413 349.37 115.855C348.975 115.297 348.46 114.834 347.863 114.501C347.265 114.168 346.601 113.973 345.919 113.93C343.179 113.77 339.729 113.66 336.209 113.81C330.664 113.931 325.134 114.432 319.659 115.31C314.989 116.15 309.879 117.45 306.909 118.24C306.059 118.464 305.292 118.929 304.699 119.578C304.107 120.227 303.714 121.033 303.569 121.9Z" fill="black"/>
<path d="M305.568 169.12C305.568 169.12 294.368 236.94 293.278 263.99C292.148 292.13 304.808 356.13 304.808 356.13H316.808C316.808 356.13 312.428 295.03 315.198 267.5C318.198 237.5 331.928 170.74 331.928 170.74L305.568 169.12Z" fill="#263238"/>
<path d="M317.849 356.56H303.769L302.729 352.07L318.499 351.52L317.849 356.56Z" fill="#0078FF"/>
<path opacity="0.2" d="M320.048 187.06C310.108 204.29 315.168 237.16 317.548 249.42C320.268 231.42 324.338 209.42 327.458 193.27C326.678 184 324.628 179.11 320.048 187.06Z" fill="black"/>
<path d="M315.08 169.7C315.08 169.7 320.08 250.94 326.28 262.18C336.15 280 378 294.61 378 294.61L385.86 285.41C385.86 285.41 359.68 263.64 345.86 251.27C342.57 228.8 354.2 193.34 341.63 171.34L315.08 169.7Z" fill="#263238"/>
<path d="M342.229 169.26L342.949 172.54C343.059 172.8 342.749 173.03 342.329 173.01L305.329 170.72C304.999 170.72 304.739 170.52 304.739 170.32L304.609 167.08C304.609 166.85 304.889 166.68 305.249 166.7L341.659 169C341.768 168.994 341.877 169.014 341.977 169.059C342.076 169.105 342.163 169.174 342.229 169.26Z" fill="#0078FF"/>
<path d="M337.08 173L338.08 173.06C338.27 173.06 338.43 172.98 338.42 172.86L338.22 168.65C338.22 168.52 338.05 168.41 337.86 168.4L336.86 168.34C336.67 168.34 336.51 168.42 336.52 168.54L336.72 172.76C336.72 172.91 336.89 173 337.08 173Z" fill="#263238"/>
<path d="M308 171.24L309 171.3C309.2 171.3 309.35 171.22 309.35 171.1L309.15 166.88C309.15 166.76 308.98 166.65 308.78 166.64L307.78 166.58C307.58 166.58 307.43 166.66 307.44 166.78L307.63 170.99C307.66 171.12 307.82 171.23 308 171.24Z" fill="#263238"/>
<path d="M322.549 172.14L323.549 172.2C323.739 172.2 323.899 172.12 323.889 171.99L323.689 167.78C323.689 167.66 323.519 167.55 323.329 167.53L322.329 167.47C322.139 167.47 321.979 167.55 321.989 167.68L322.189 171.89C322.189 172 322.359 172.12 322.549 172.14Z" fill="#263238"/>
<path d="M386.81 284.37L377.05 295.79L372.43 293.94L383.3 279.99L386.81 284.37Z" fill="#0078FF"/>
<path d="M349.999 122.57C351.749 126.97 353.269 131.34 354.659 135.82C356.049 140.3 357.319 144.82 358.339 149.44C358.469 150.02 358.589 150.61 358.709 151.19L358.879 152.06L358.969 152.5L359.039 152.92C359.074 153.102 359.097 153.285 359.109 153.47C359.186 154.454 359.01 155.442 358.599 156.34C358.146 157.29 357.436 158.094 356.549 158.66C355.951 159.034 355.296 159.308 354.609 159.47C354.122 159.584 353.627 159.657 353.129 159.69C351.667 159.76 350.202 159.645 348.769 159.35C347.535 159.111 346.313 158.811 345.109 158.45C340.541 157.043 336.112 155.219 331.879 153L333.479 148.8C337.869 149.8 342.359 150.87 346.639 151.54C347.709 151.71 348.759 151.83 349.759 151.9C350.598 151.99 351.444 151.973 352.279 151.85C352.529 151.85 352.659 151.64 352.139 151.91C351.734 152.162 351.41 152.527 351.209 152.96C351.034 153.329 350.945 153.732 350.949 154.14C350.949 154.22 350.949 154.22 350.949 154.26C350.949 154.3 350.949 154.37 350.949 154.26L350.839 153.86L350.619 153.05C350.469 152.52 350.339 151.98 350.169 151.45C348.939 147.16 347.539 142.87 346.079 138.58C344.619 134.29 343.079 130.01 341.519 125.81L349.999 122.57Z" fill="#FFC3BD"/>
<path d="M348.769 114.35C352.299 115.67 355.869 128.35 355.869 128.35L341.259 137.48C341.259 137.48 336.619 125.24 338.419 120.68C340.299 115.92 344.729 112.84 348.769 114.35Z" fill="#0078FF"/>
<path opacity="0.2" d="M348.769 114.35C352.299 115.67 355.869 128.35 355.869 128.35L341.259 137.48C341.259 137.48 336.619 125.24 338.419 120.68C340.299 115.92 344.729 112.84 348.769 114.35Z" fill="black"/>
<path d="M385.999 303.9H385.899C385.701 303.948 385.493 303.945 385.296 303.893C385.099 303.841 384.918 303.74 384.769 303.6C384.665 303.525 384.583 303.423 384.534 303.305C384.484 303.186 384.469 303.057 384.489 302.93C384.639 301.81 387.539 300.44 387.869 300.29C387.903 300.266 387.943 300.254 387.984 300.254C388.025 300.254 388.065 300.266 388.099 300.29C388.13 300.316 388.153 300.351 388.164 300.391C388.174 300.43 388.173 300.472 388.159 300.51C387.739 301.67 386.999 303.51 385.999 303.9ZM387.589 300.9C386.439 301.47 384.979 302.4 384.899 302.99C384.894 303.047 384.904 303.103 384.928 303.155C384.953 303.206 384.991 303.249 385.039 303.28C385.134 303.375 385.252 303.444 385.382 303.481C385.511 303.518 385.648 303.521 385.779 303.49C386.319 303.37 386.999 302.41 387.539 300.94L387.589 300.9Z" fill="#0078FF"/>
<path d="M387.71 300.84C386.71 301.23 384.6 301.45 383.93 300.84C383.81 300.724 383.733 300.571 383.711 300.406C383.69 300.241 383.724 300.073 383.81 299.93C383.875 299.783 383.973 299.653 384.096 299.549C384.219 299.445 384.364 299.37 384.52 299.33C385.76 298.96 387.93 300.33 388.02 300.33C388.052 300.35 388.078 300.378 388.096 300.411C388.113 300.445 388.122 300.482 388.12 300.52C388.119 300.557 388.108 300.593 388.089 300.625C388.069 300.656 388.042 300.682 388.01 300.7L387.71 300.84ZM384.58 299.73C384.494 299.761 384.415 299.809 384.349 299.871C384.282 299.933 384.228 300.007 384.19 300.09C384.08 300.34 384.19 300.45 384.19 300.52C384.64 300.94 386.4 300.85 387.42 300.52C386.67 300.11 385.35 299.52 384.61 299.73H384.58Z" fill="#0078FF"/>
<path d="M304.4 370.8C303.688 371.07 302.904 371.088 302.18 370.85C302.009 370.767 301.86 370.643 301.747 370.49C301.634 370.337 301.559 370.158 301.53 369.97C301.508 369.855 301.515 369.737 301.55 369.625C301.585 369.513 301.647 369.412 301.73 369.33C302.61 368.47 306.51 369.25 306.95 369.33C306.992 369.337 307.03 369.357 307.059 369.388C307.088 369.418 307.106 369.458 307.11 369.5C307.119 369.544 307.113 369.589 307.093 369.629C307.073 369.669 307.04 369.701 307 369.72C306.169 370.159 305.298 370.521 304.4 370.8ZM302.4 369.46C302.266 369.487 302.142 369.549 302.04 369.64C302.006 369.671 301.981 369.71 301.968 369.755C301.956 369.799 301.957 369.846 301.97 369.89C301.987 370.014 302.033 370.132 302.104 370.234C302.176 370.337 302.27 370.421 302.38 370.48C303.03 370.8 304.46 370.48 306.27 369.64C304.993 369.358 303.678 369.297 302.38 369.46H302.4Z" fill="#0078FF"/>
<path d="M306.999 369.75H306.919C305.769 369.57 303.229 368.3 303.119 367.28C303.119 367.04 303.179 366.71 303.719 366.5C303.911 366.416 304.119 366.372 304.329 366.372C304.539 366.372 304.747 366.416 304.939 366.5C306.269 367.1 307.109 369.34 307.139 369.44C307.159 369.47 307.169 369.504 307.169 369.54C307.169 369.576 307.159 369.61 307.139 369.64C307.127 369.668 307.107 369.693 307.083 369.712C307.058 369.732 307.03 369.745 306.999 369.75ZM303.999 366.86H303.879C303.519 367 303.529 367.16 303.539 367.21C303.609 367.81 305.379 368.88 306.599 369.21C306.244 368.263 305.605 367.449 304.769 366.88C304.523 366.78 304.25 366.773 303.999 366.86Z" fill="#0078FF"/>
<path d="M336.209 113.45C330.662 113.57 325.129 114.071 319.649 114.95C317.649 115.31 315.579 115.75 313.649 116.2C312.159 117.79 309.569 125.83 312.479 131.27C314.399 128.05 317.629 125.27 319.779 124.95C322.139 125.59 324.469 129.16 325.039 132.31C328.899 131.61 337.249 122.58 342.039 115.31L343.259 113.43C340.999 113.36 338.639 113.35 336.209 113.45Z" fill="#0078FF"/>
<path d="M335.7 95.63C334.33 100.96 332.7 110.63 336.2 113.81C336.2 113.81 332.9 119.18 324.52 120.15C315.3 121.23 319.65 115.31 319.65 115.31C325.65 113.38 325.79 109.06 325.01 105.08L335.7 95.63Z" fill="#FFC3BD"/>
<path d="M319.65 115.31C319.65 115.31 315.96 119.2 319.47 126.31C326.89 122.86 334 118.77 336.2 113.83L319.65 115.31Z" fill="#FFC3BD"/>
<path opacity="0.2" d="M331.34 99.48L325.01 105.08C325.208 106.014 325.319 106.965 325.34 107.92C327.63 107.39 331.41 105.11 331.8 102.76C331.868 101.647 331.712 100.531 331.34 99.48Z" fill="black"/>
<path d="M342.719 89.19C339.579 97.42 338.419 100.97 332.839 103.95C324.429 108.44 315.009 102.78 315.629 93.78C316.189 85.67 321.229 73.57 330.489 72.78C332.534 72.5936 334.593 72.9351 336.468 73.772C338.343 74.6088 339.973 75.913 341.2 77.5596C342.427 79.2062 343.211 81.1403 343.477 83.1766C343.743 85.213 343.482 87.2835 342.719 89.19Z" fill="#FFC3BD"/>
<path d="M323.999 72.76C327.759 71.89 328.999 76.18 322.419 77.69C315.839 79.2 320.939 73.48 323.999 72.76Z" fill="#263238"/>
<path d="M327.929 70.49C322.559 72.49 324.929 78.66 331.019 80.42C337.109 82.18 335.079 92.51 340.539 94.78C345.999 97.05 348.889 79.68 344.179 74.78C339.469 69.88 331.539 69.13 327.929 70.49Z" fill="#263238"/>
<path d="M322.909 86.79C321.814 88.1585 320.535 89.3698 319.109 90.39C319.38 90.7468 319.725 91.0405 320.121 91.2512C320.516 91.4618 320.952 91.5842 321.399 91.61L322.909 86.79Z" fill="#ED847E"/>
<path d="M324.289 95.45C323.951 95.3939 323.616 95.3137 323.289 95.21C323.236 95.1938 323.192 95.1574 323.166 95.1088C323.14 95.0601 323.134 95.003 323.149 94.95C323.169 94.8978 323.208 94.8548 323.258 94.829C323.307 94.8032 323.365 94.7965 323.419 94.81C324.262 95.0947 325.16 95.177 326.041 95.0502C326.922 94.9233 327.761 94.591 328.489 94.08C328.509 94.06 328.532 94.0442 328.558 94.0334C328.584 94.0225 328.611 94.017 328.639 94.017C328.667 94.017 328.695 94.0225 328.721 94.0334C328.746 94.0442 328.77 94.06 328.789 94.08C328.827 94.1207 328.848 94.1743 328.848 94.23C328.848 94.2857 328.827 94.3393 328.789 94.38C328.15 94.8533 327.422 95.1922 326.649 95.3761C325.875 95.56 325.073 95.5851 324.289 95.45Z" fill="#263238"/>
<path d="M342.92 96.69C341.868 98.0314 340.33 98.9044 338.64 99.12C336.4 99.38 335.64 97.29 336.54 95.36C337.37 93.62 339.54 91.36 341.64 92.02C342.097 92.1667 342.512 92.4254 342.844 92.7726C343.177 93.1198 343.418 93.5445 343.545 94.0082C343.672 94.472 343.681 94.9601 343.572 95.4284C343.463 95.8967 343.239 96.3303 342.92 96.69Z" fill="#FFC3BD"/>
<path d="M333.359 87C333.275 86.9758 333.2 86.9265 333.144 86.8586C333.089 86.7906 333.056 86.7074 333.049 86.62C332.929 84.67 330.799 83.34 330.779 83.33C330.726 83.3045 330.679 83.268 330.641 83.2231C330.602 83.1781 330.574 83.1257 330.558 83.0691C330.541 83.0126 330.537 82.9532 330.545 82.8948C330.553 82.8365 330.573 82.7804 330.604 82.7304C330.635 82.6803 330.676 82.6373 330.725 82.6042C330.774 82.5711 330.829 82.5486 330.887 82.5382C330.945 82.5278 331.004 82.5297 331.062 82.5438C331.119 82.5579 331.172 82.5839 331.219 82.62C331.329 82.68 333.739 84.19 333.879 86.56C333.884 86.6155 333.878 86.6715 333.862 86.7246C333.845 86.7777 333.817 86.8268 333.781 86.8689C333.744 86.9111 333.699 86.9453 333.649 86.9696C333.599 86.9938 333.544 87.0076 333.489 87.01L333.359 87Z" fill="#263238"/>
<path d="M328.76 88C328.53 88.62 328.01 89 327.6 88.86C327.19 88.72 327.04 88.08 327.27 87.45C327.5 86.82 328.02 86.45 328.43 86.59C328.84 86.73 329 87.36 328.76 88Z" fill="#263238"/>
<path d="M320.999 85.26C320.769 85.88 320.249 86.26 319.839 86.12C319.429 85.98 319.279 85.34 319.519 84.71C319.759 84.08 320.269 83.71 320.679 83.85C321.089 83.99 321.239 84.63 320.999 85.26Z" fill="#263238"/>
<path d="M320.85 84L319.51 83C319.51 83 319.85 84.42 320.85 84Z" fill="#263238"/>
<path d="M328.6 86.68L327.26 85.68C327.26 85.68 327.6 87.15 328.6 86.68Z" fill="#263238"/>
<path d="M319.23 80C319.156 80.0004 319.084 79.9811 319.021 79.9441C318.958 79.9072 318.905 79.854 318.87 79.79C318.816 79.6931 318.802 79.5788 318.832 79.472C318.862 79.3652 318.933 79.2746 319.03 79.22C319.6 78.8722 320.246 78.6671 320.913 78.6218C321.579 78.5765 322.247 78.6925 322.86 78.96C322.959 79.0104 323.034 79.0982 323.069 79.2042C323.104 79.3101 323.095 79.4255 323.045 79.525C322.994 79.6245 322.906 79.6998 322.8 79.7345C322.694 79.7692 322.579 79.7604 322.48 79.71C321.996 79.5101 321.472 79.4276 320.951 79.4693C320.429 79.511 319.925 79.6758 319.48 79.95C319.406 79.9985 319.316 80.0164 319.23 80Z" fill="#263238"/>
<path d="M334.65 149.22L328.6 141.77L326.91 150.64C326.91 150.64 331.3 154.27 334.71 152.88L334.65 149.22Z" fill="#FFC3BD"/>
<path d="M323.229 140.54L320.309 147.6L326.909 150.64L328.599 141.77L323.229 140.54Z" fill="#FFC3BD"/>
</svg>
