<svg width="100%" viewBox="0 0 432 432" fill="none" xmlns="http://www.w3.org/2000/svg">
<path d="M16 348H416V349H16V348Z" fill="#EBEBEB"/>
<path d="M16.0996 364.49H42.0996V364.74H16.0996V364.49Z" fill="#EBEBEB"/>
<path d="M109.97 367.21H155V367.46H109.97V367.21Z" fill="#EBEBEB"/>
<path d="M43.0987 355.21H103.889V355.46H43.0987V355.21Z" fill="#EBEBEB"/>
<path d="M394.309 356.89H413.539V357.14H394.309V356.89Z" fill="#EBEBEB"/>
<path d="M330.108 356.89H385.398V357.14H330.108V356.89Z" fill="#EBEBEB"/>
<path d="M221.858 361.11H296.328V361.36H221.858V361.11Z" fill="#EBEBEB"/>
<path d="M41.9995 53.29H134.52V179.19H41.9995V53.29Z" fill="#E6E6E6"/>
<path d="M38.0483 53.29H130.568V179.19H38.0483V53.29Z" fill="#F5F5F5"/>
<path d="M45.1387 172.64L45.1387 59.8401L123.479 59.8401V172.64H45.1387Z" fill="white"/>
<path d="M45.1387 172.65L45.1387 59.8501H48.1287L48.1287 172.65H45.1387Z" fill="#E6E6E6"/>
<path d="M40.9787 79.5601H127.639V88.3501H40.9787V79.5601Z" fill="#F5F5F5"/>
<path d="M175.609 53.29H268.129V179.19H175.609V53.29Z" fill="#E6E6E6"/>
<path d="M171.66 53.29H264.18V179.19H171.66V53.29Z" fill="#F5F5F5"/>
<path d="M178.738 172.65V59.8501L257.078 59.8501V172.65H178.738Z" fill="white"/>
<path d="M178.75 172.64V59.8401H181.74V172.64H178.75Z" fill="#E6E6E6"/>
<path d="M174.578 79.5601H261.238V88.3501H174.578V79.5601Z" fill="#F5F5F5"/>
<path d="M309.209 53.29H401.729V179.19H309.209V53.29Z" fill="#E6E6E6"/>
<path d="M305.259 53.29H397.779V179.19H305.259V53.29Z" fill="#F5F5F5"/>
<path d="M312.35 172.64V59.8401L390.69 59.8401V172.64H312.35Z" fill="white"/>
<path d="M312.35 172.65V59.8501H315.34V172.65H312.35Z" fill="#E6E6E6"/>
<path d="M308.19 79.5601H394.85V88.3501H308.19V79.5601Z" fill="#F5F5F5"/>
<path d="M316.897 286.046C315.11 278.473 319.801 270.884 327.374 269.096C334.948 267.309 342.536 271.999 344.324 279.573C346.111 287.147 341.421 294.735 333.847 296.523C326.274 298.31 318.685 293.62 316.897 286.046Z" fill="#EBEBEB"/>
<path d="M320.649 338.08H374.029V348.39H320.649V338.08Z" fill="#F5F5F5"/>
<path d="M325.889 253.01H368.779V338.08H325.889V253.01Z" fill="#F5F5F5"/>
<path d="M325.889 253.01H336.379V338.08H325.889V253.01Z" fill="#EBEBEB"/>
<path d="M320.649 249.41H374.029V256.6H320.649V249.41Z" fill="#F5F5F5"/>
<path d="M347.34 229.24C353.464 229.243 359.337 231.678 363.667 236.009C367.997 240.341 370.43 246.215 370.43 252.34H324.24C324.24 246.213 326.673 240.338 331.006 236.006C335.338 231.674 341.213 229.24 347.34 229.24Z" fill="#F5F5F5"/>
<path d="M347.34 227.16C347.688 227.157 348.034 227.224 348.356 227.355C348.679 227.487 348.972 227.681 349.22 227.926C349.467 228.172 349.663 228.463 349.797 228.785C349.931 229.107 350 229.452 350 229.8H344.72C344.72 229.103 344.995 228.435 345.486 227.94C345.977 227.446 346.643 227.165 347.34 227.16Z" fill="#F5F5F5"/>
<path d="M350.392 286.051C348.604 278.477 353.295 270.888 360.868 269.101C368.442 267.313 376.031 272.004 377.818 279.577C379.606 287.151 374.915 294.74 367.341 296.527C359.768 298.315 352.179 293.624 350.392 286.051Z" fill="#EBEBEB"/>
<path d="M357.286 292.799C351.784 287.297 351.784 278.375 357.286 272.873C362.789 267.37 371.71 267.37 377.213 272.873C382.715 278.375 382.715 287.297 377.213 292.799C371.71 298.302 362.789 298.302 357.286 292.799Z" fill="#F5F5F5"/>
<path d="M254.468 249.42H259.298L271.568 348.4H266.738L254.468 249.42Z" fill="#E0E0E0"/>
<path d="M60.9586 249.42H65.7986L78.0586 348.4H73.2286L60.9586 249.42Z" fill="#E0E0E0"/>
<path d="M226.189 298.91H221.349L215.219 348.4H220.059L226.189 298.91Z" fill="#E0E0E0"/>
<path d="M33.0781 298.91H28.2381L22.1081 348.4H26.9381L33.0781 298.91Z" fill="#E0E0E0"/>
<path d="M51.8891 291.22H267.889L275.039 240.79H59.0391L51.8891 291.22Z" fill="#F5F5F5"/>
<path d="M272.969 291.22H267.889L275.039 240.79H280.119L272.969 291.22Z" fill="#EBEBEB"/>
<path d="M24.8891 300.78H216.809L220.039 295.55H28.1191L24.8891 300.78Z" fill="#F5F5F5"/>
<path d="M271.348 300.78H216.808L220.038 295.55H274.578L271.348 300.78Z" fill="#EBEBEB"/>
<path d="M216.001 393.56C108.918 393.56 22.1106 388.492 22.1106 382.24C22.1106 375.988 108.918 370.92 216.001 370.92C323.083 370.92 409.891 375.988 409.891 382.24C409.891 388.492 323.083 393.56 216.001 393.56Z" fill="#F5F5F5"/>
<path d="M258.7 125.39C257.506 125.655 256.412 126.258 255.551 127.126C254.689 127.995 254.095 129.093 253.84 130.29C241.12 191.8 273.52 213.39 278.78 214.4C284.04 215.41 323.3 207.54 339 146.61C339.313 145.459 339.263 144.241 338.859 143.119C338.455 141.997 337.715 141.027 336.74 140.34L303.68 117.46C303.017 117.005 302.267 116.692 301.477 116.541C300.687 116.39 299.875 116.403 299.09 116.58L258.7 125.39Z" fill="#0078FF"/>
<path opacity="0.4" d="M258.7 125.39C257.506 125.655 256.412 126.258 255.551 127.126C254.689 127.995 254.095 129.093 253.84 130.29C241.12 191.8 273.52 213.39 278.78 214.4C284.04 215.41 323.3 207.54 339 146.61C339.313 145.459 339.263 144.241 338.859 143.119C338.455 141.997 337.715 141.027 336.74 140.34L303.68 117.46C303.017 117.005 302.267 116.692 301.477 116.541C300.687 116.39 299.875 116.403 299.09 116.58L258.7 125.39Z" fill="black"/>
<path d="M233.4 362.37L225.89 360.17L229.01 342.19L236.51 344.4L233.4 362.37Z" fill="#FF8B7B"/>
<path d="M297.061 374.25H289.231L286.211 356.12H294.041L297.061 374.25Z" fill="#FF8B7B"/>
<path d="M288.48 373.34H298C298.155 373.34 298.306 373.393 298.427 373.489C298.549 373.585 298.635 373.719 298.67 373.87L300.21 380.87C300.249 381.039 300.248 381.215 300.208 381.383C300.168 381.552 300.09 381.709 299.98 381.843C299.87 381.977 299.731 382.085 299.573 382.157C299.416 382.229 299.244 382.264 299.07 382.26C296 382.21 293.76 382.03 289.89 382.03C287.51 382.03 280.34 382.28 277.05 382.28C273.76 382.28 273.34 379.03 274.68 378.74C280.68 377.42 285.26 375.6 287.19 373.86C287.54 373.531 288 373.345 288.48 373.34Z" fill="#263238"/>
<path d="M226.2 359.31L234.399 361.72C234.548 361.765 234.677 361.858 234.766 361.985C234.855 362.112 234.898 362.265 234.89 362.42L234.41 369.53C234.396 369.701 234.345 369.867 234.258 370.016C234.172 370.164 234.053 370.291 233.911 370.388C233.769 370.484 233.607 370.547 233.437 370.571C233.267 370.596 233.093 370.582 232.929 370.53C229.989 369.61 225.77 368.18 222.05 367.09C217.7 365.81 215.93 365.36 210.83 363.86C207.75 362.96 207.83 359.59 209.19 359.68C215.44 360.13 218.19 360.98 224.19 359.34C224.844 359.145 225.54 359.134 226.2 359.31Z" fill="#263238"/>
<path opacity="0.2" d="M229.01 342.19L227.4 351.46L234.91 353.67L236.52 344.4L229.01 342.19Z" fill="black"/>
<path opacity="0.2" d="M294.04 356.12H286.21L287.77 365.47H295.6L294.04 356.12Z" fill="black"/>
<path d="M225.091 348.9L237.811 352.63C237.811 352.63 248.151 309.19 253.111 285.31C254.621 278.04 257.701 268.03 261.361 257.36C266.001 243.92 271.501 229.44 276.001 218.12C280.701 206.2 284.211 197.78 284.211 197.78L257.141 192.84C257.141 192.84 233.421 255.51 229.971 279.15C226.361 303.73 225.091 348.9 225.091 348.9Z" fill="#263238"/>
<path opacity="0.2" d="M261.36 257.36C266 243.92 271.5 229.44 276 218.12L273.84 211.71C266.15 219 261.56 243.69 261.36 257.36Z" fill="black"/>
<path d="M271.721 195.51C271.721 195.51 267.251 262.44 268.021 285.36C268.871 310.46 284.141 363.66 284.141 363.66H298.471C298.471 363.66 292.181 315.89 290.381 291.47C288.381 263.65 298.291 200.36 298.291 200.36L271.721 195.51Z" fill="#263238"/>
<path d="M282.421 363.97H299.301V358.93L280.431 358.6L282.421 363.97Z" fill="#0078FF"/>
<path d="M223.41 348.72L238.56 353.18L240 348.28L223.14 343.04L223.41 348.72Z" fill="#0078FF"/>
<path d="M285.891 374.71C285.357 374.751 284.824 374.61 284.381 374.31C284.239 374.188 284.13 374.033 284.064 373.859C283.997 373.684 283.976 373.495 284.001 373.31C284 373.201 284.029 373.093 284.086 373C284.142 372.906 284.224 372.83 284.321 372.78C285.181 372.34 287.711 373.89 287.991 374.07C288.022 374.09 288.047 374.119 288.063 374.152C288.079 374.186 288.085 374.223 288.081 374.26C288.072 374.295 288.055 374.327 288.03 374.353C288.006 374.38 287.975 374.399 287.941 374.41C287.271 374.585 286.583 374.686 285.891 374.71ZM284.731 373.09C284.652 373.073 284.57 373.073 284.491 373.09C284.452 373.112 284.421 373.144 284.4 373.183C284.379 373.222 284.369 373.266 284.371 373.31C284.351 373.434 284.364 373.561 284.408 373.678C284.452 373.795 284.525 373.899 284.621 373.98C285.495 374.38 286.489 374.434 287.401 374.13C286.588 373.611 285.681 373.257 284.731 373.09Z" fill="#0078FF"/>
<path d="M287.89 374.43H287.81C287 373.99 285.43 372.27 285.59 371.43C285.618 371.294 285.692 371.172 285.799 371.085C285.907 370.997 286.041 370.95 286.18 370.95C286.321 370.93 286.464 370.94 286.6 370.98C286.736 371.02 286.862 371.088 286.97 371.18C287.88 371.93 288.07 374.18 288.08 374.28C288.081 374.314 288.073 374.347 288.057 374.377C288.041 374.406 288.018 374.432 287.99 374.45C287.955 374.454 287.921 374.447 287.89 374.43ZM286.31 371.26H286.23C285.99 371.26 285.97 371.4 285.96 371.45C285.86 371.97 286.86 373.26 287.66 373.87C287.605 372.98 287.284 372.127 286.74 371.42C286.621 371.315 286.468 371.258 286.31 371.26Z" fill="#0078FF"/>
<path d="M225.15 360.13C223.87 360.02 221.63 359.68 221.02 358.71C220.926 358.563 220.869 358.394 220.855 358.22C220.841 358.046 220.87 357.871 220.94 357.71C220.973 357.615 221.03 357.531 221.105 357.464C221.181 357.398 221.271 357.352 221.37 357.33C222.44 357.08 225 359.51 225.29 359.78C225.314 359.806 225.331 359.838 225.338 359.873C225.345 359.908 225.342 359.944 225.33 359.978C225.317 360.011 225.296 360.04 225.267 360.062C225.239 360.083 225.205 360.097 225.17 360.1L225.15 360.13ZM221.51 357.71H221.43C221.39 357.717 221.353 357.737 221.325 357.765C221.296 357.794 221.277 357.83 221.27 357.87C221.218 357.967 221.191 358.075 221.191 358.185C221.191 358.295 221.218 358.403 221.27 358.5C221.61 359.05 222.83 359.5 224.57 359.69C223.58 358.78 222.13 357.68 221.51 357.71Z" fill="#0078FF"/>
<path d="M225.151 360.13C225.109 360.143 225.063 360.143 225.021 360.13C224.241 359.45 222.921 357.3 223.311 356.49C223.401 356.3 223.611 356.1 224.111 356.19C224.294 356.222 224.469 356.292 224.624 356.395C224.779 356.499 224.911 356.633 225.011 356.79C225.741 357.85 225.341 359.93 225.331 360.02C225.324 360.053 225.308 360.083 225.285 360.108C225.262 360.132 225.233 360.15 225.201 360.16L225.151 360.13ZM223.851 356.5C223.691 356.5 223.651 356.58 223.641 356.61C223.411 357.1 224.251 358.73 225.011 359.56C225.182 358.679 225.073 357.767 224.701 356.95C224.628 356.837 224.533 356.739 224.421 356.664C224.309 356.588 224.183 356.536 224.051 356.51L223.851 356.5Z" fill="#0078FF"/>
<path d="M263.671 132.27C262.671 134.27 261.461 136.53 260.271 138.62C259.081 140.71 257.881 142.87 256.631 144.94C254.225 149.05 251.552 152.998 248.631 156.76L247.631 158.06C247.414 158.328 247.18 158.582 246.931 158.82C246.741 159 246.611 159.1 246.641 159.13C246.813 159.137 246.984 159.16 247.151 159.2C247.401 159.27 247.551 159.39 247.501 159.41C247.451 159.43 247.261 159.34 247.031 159.13C246.409 158.544 245.877 157.87 245.451 157.13C244.308 155.174 243.344 153.119 242.571 150.99C242.151 149.87 241.711 148.74 241.331 147.58L240.231 144.13L234.411 144.93C234.411 146.34 234.501 147.62 234.631 148.93C234.761 150.24 234.891 151.59 235.131 152.93C235.549 155.72 236.281 158.454 237.311 161.08C237.93 162.64 238.761 164.107 239.781 165.44C240.445 166.309 241.241 167.068 242.141 167.69C243.289 168.497 244.612 169.021 246.001 169.22C247.428 169.411 248.881 169.264 250.241 168.79C251.312 168.42 252.323 167.895 253.241 167.23C253.993 166.693 254.702 166.098 255.361 165.45C255.701 165.12 255.871 164.92 256.131 164.66L256.841 163.91C257.841 162.91 258.671 161.91 259.571 160.91C260.471 159.91 261.291 158.83 262.081 157.76C263.741 155.65 265.231 153.46 266.691 151.26C268.151 149.06 269.501 146.8 270.791 144.51C271.431 143.36 272.061 142.21 272.671 141.04C273.281 139.87 273.851 138.73 274.461 137.43L263.671 132.27Z" fill="#FF8B7B"/>
<path d="M277.891 133.31C279.231 140.67 262.381 158.56 262.381 158.56L248.511 147.38C251.975 141.499 256.062 136.007 260.701 131C267.631 123.86 276.421 125.23 277.891 133.31Z" fill="#0078FF"/>
<path opacity="0.2" d="M261.251 144.78C259.564 147.779 258.09 150.894 256.841 154.1L262.381 158.56C262.381 158.56 272.381 147.94 276.381 139.69C272.211 135.78 265.371 137.58 261.251 144.78Z" fill="black"/>
<path d="M312.93 133.85C309.712 141.978 307.104 150.334 305.13 158.85C303.73 164.85 302.64 170.5 301.79 175.69C299.79 187.84 299.01 197.2 298.3 200.31C292.3 199.22 269.52 195.07 257.11 192.8C256.39 147.92 269.72 126.32 269.72 126.32C273.071 126.075 276.434 126.035 279.79 126.2C280.5 126.2 281.22 126.29 281.94 126.36C287.833 127.083 293.68 128.148 299.45 129.55C300.55 129.8 301.66 130.09 302.73 130.39C308.18 132 312.93 133.85 312.93 133.85Z" fill="#0078FF"/>
<path d="M304.331 194.67C304.563 194.674 304.79 194.598 304.971 194.454C305.153 194.309 305.279 194.106 305.328 193.879C305.376 193.652 305.344 193.415 305.237 193.209C305.13 193.003 304.955 192.841 304.741 192.75C304.361 192.59 267.431 175.68 273.741 124.9C273.758 124.769 273.748 124.636 273.713 124.508C273.678 124.38 273.618 124.261 273.537 124.156C273.455 124.052 273.354 123.964 273.239 123.899C273.124 123.834 272.997 123.792 272.866 123.775C272.735 123.759 272.602 123.768 272.474 123.803C272.346 123.838 272.227 123.898 272.122 123.98C272.018 124.061 271.931 124.162 271.865 124.277C271.8 124.392 271.758 124.519 271.741 124.65C265.221 176.95 303.511 194.41 303.901 194.58C304.036 194.642 304.183 194.672 304.331 194.67Z" fill="#263238"/>
<path d="M302.69 235.85C302.886 235.723 303.054 235.558 303.186 235.365C303.318 235.172 303.41 234.955 303.457 234.726C303.505 234.498 303.506 234.262 303.462 234.033C303.418 233.803 303.329 233.585 303.2 233.39L171.79 32.0001C171.531 31.6075 171.127 31.3328 170.667 31.2355C170.206 31.1382 169.726 31.2261 169.33 31.4801C168.935 31.7378 168.659 32.1414 168.562 32.6026C168.464 33.0638 168.553 33.5448 168.81 33.9401L300.23 235.34C300.358 235.536 300.523 235.704 300.715 235.836C300.908 235.968 301.125 236.06 301.354 236.107C301.583 236.155 301.818 236.156 302.048 236.112C302.277 236.068 302.495 235.979 302.69 235.85Z" fill="#0078FF"/>
<path opacity="0.7" d="M302.69 235.85C302.886 235.723 303.054 235.558 303.186 235.365C303.318 235.172 303.41 234.955 303.457 234.726C303.505 234.498 303.506 234.262 303.462 234.033C303.418 233.803 303.329 233.585 303.2 233.39L171.79 32.0001C171.531 31.6075 171.127 31.3328 170.667 31.2355C170.206 31.1382 169.726 31.2261 169.33 31.4801C168.935 31.7378 168.659 32.1414 168.562 32.6026C168.464 33.0638 168.553 33.5448 168.81 33.9401L300.23 235.34C300.358 235.536 300.523 235.704 300.715 235.836C300.908 235.968 301.125 236.06 301.354 236.107C301.583 236.155 301.818 236.156 302.048 236.112C302.277 236.068 302.495 235.979 302.69 235.85Z" fill="white"/>
<path d="M83.9297 98.4301C85.5397 97.1601 87.2097 95.8001 88.9297 94.4301L88.2897 93.6602C86.6097 95.0602 84.9497 96.4202 83.3497 97.6602L83.9297 98.4301Z" fill="#0078FF"/>
<path d="M93.2697 90.64C98.2097 86.34 103.07 81.85 107.76 77.52L107.08 76.78C102.39 81.11 97.5398 85.59 92.6198 89.88L93.2697 90.64Z" fill="#0078FF"/>
<path d="M91.2599 201C145.1 187.09 170.75 130 222.75 113.23C223.37 113.029 223.936 112.687 224.403 112.232C224.87 111.777 225.227 111.22 225.444 110.605C225.662 109.99 225.735 109.334 225.658 108.686C225.581 108.038 225.356 107.417 225 106.87L179.6 37.3002C179.094 36.5345 178.355 35.9512 177.493 35.6362C176.631 35.3212 175.69 35.2911 174.81 35.5502C121.26 51.3102 95.6599 109.9 40.9999 124L91.2599 201Z" fill="#0078FF"/>
<path d="M119.009 128.228C128.133 120.083 137.078 111.796 146.275 103.651C146.516 103.413 146.809 103.233 147.132 103.123C147.454 103.013 147.798 102.976 148.137 103.015C148.477 103.055 148.802 103.169 149.09 103.35C149.378 103.53 149.62 103.773 149.798 104.059L163.513 124.715C163.908 125.351 164.07 126.101 163.972 126.84C163.873 127.58 163.52 128.264 162.971 128.778C153.846 136.906 144.902 145.211 135.704 153.356C135.462 153.593 135.168 153.772 134.844 153.881C134.521 153.989 134.177 154.024 133.837 153.983C133.498 153.942 133.173 153.826 132.886 153.644C132.599 153.461 132.358 153.217 132.181 152.93L118.467 132.239C118.085 131.608 117.931 130.869 118.029 130.141C118.127 129.414 118.472 128.74 119.009 128.228ZM139.246 129.63L143.619 138.024C145.155 136.622 146.69 135.22 148.244 133.836L142.354 126.738C142.713 125.928 142.867 125.046 142.804 124.165C142.741 123.285 142.463 122.432 141.992 121.68C141.695 121.193 141.287 120.78 140.801 120.473C140.315 120.165 139.763 119.972 139.189 119.907C138.615 119.841 138.033 119.907 137.488 120.097C136.944 120.288 136.451 120.599 136.048 121.006C135.126 121.884 134.535 123.043 134.371 124.293C134.207 125.544 134.479 126.812 135.144 127.891C135.549 128.574 136.165 129.111 136.903 129.424C137.642 129.737 138.463 129.809 139.246 129.63Z" fill="white"/>
<path d="M119.753 123.359C120.226 122.91 120.53 122.32 120.618 121.683C120.707 121.046 120.574 120.398 120.241 119.843L118.941 117.91C117.202 115.196 116.372 112.023 116.567 108.83C116.761 105.636 117.969 102.581 120.024 100.085C125.188 94.144 133.348 94.6362 137.446 100.736L138.981 103.039C139.137 103.292 139.351 103.507 139.607 103.667C139.862 103.827 140.152 103.927 140.453 103.961C140.755 103.995 141.061 103.962 141.347 103.863C141.633 103.763 141.892 103.602 142.104 103.39C142.579 102.943 142.885 102.352 142.974 101.715C143.062 101.077 142.927 100.429 142.591 99.8745C142.194 99.2768 141.797 98.6792 141.382 98.1167C136.327 90.5756 126.686 88.5893 119.465 94.2846C115.623 97.4903 113.075 101.919 112.271 106.782C111.468 111.645 112.462 116.629 115.077 120.845L116.63 123.148C116.799 123.392 117.023 123.594 117.284 123.741C117.545 123.888 117.838 123.975 118.139 123.995C118.44 124.016 118.742 123.969 119.022 123.859C119.301 123.748 119.552 123.577 119.753 123.359Z" fill="white"/>
<path opacity="0.2" d="M305.131 158.89C303.731 164.89 302.641 170.54 301.791 175.73L297.441 158.56L305.131 158.89Z" fill="black"/>
<path d="M297 109.05C295.48 111.05 295.66 113.76 297.39 115.05C299.12 116.34 301.74 115.76 303.26 113.74C304.78 111.72 304.59 109.03 302.86 107.74C301.13 106.45 298.56 107 297 109.05Z" fill="#263238"/>
<path d="M284.391 94.9302C283.291 99.1602 284.091 103.03 286.181 103.57C288.271 104.11 290.851 101.13 291.961 96.9002C293.071 92.6702 292.261 88.8002 290.171 88.2602C288.081 87.7202 285.491 90.7002 284.391 94.9302Z" fill="#263238"/>
<path d="M301.32 109.56C299.18 114.99 296.2 125.11 299.45 129.56C297.392 131.055 295.037 132.091 292.544 132.598C290.052 133.105 287.479 133.072 285 132.5C280.18 131.5 280.55 128.07 282 126.39C288.56 126.04 289.25 121.39 288.95 116.77L301.32 109.56Z" fill="#FF8B7B"/>
<path opacity="0.2" d="M296.251 112.5L288.901 116.77C288.996 117.838 288.996 118.912 288.901 119.98C291.361 120.07 295.141 118.03 295.901 115.57C296.201 114.576 296.319 113.536 296.251 112.5Z" fill="black"/>
<path d="M305.44 103.21C302.44 110.37 301.02 114.71 296.01 117.21C288.47 120.92 280.61 114.4 281.43 106.48C282.16 99.3602 286.96 88.8502 295.15 88.4802C296.944 88.3898 298.731 88.7569 300.345 89.5468C301.958 90.3368 303.344 91.5238 304.373 92.9964C305.402 94.469 306.039 96.1789 306.226 97.9655C306.412 99.7521 306.142 101.557 305.44 103.21Z" fill="#FF8B7B"/>
<path d="M301.64 108.56C300.53 106.97 299.08 100.13 301.12 97.3801C299.12 96.3801 290.03 93.7301 288.12 90.4601C285.76 86.4601 284.35 79.7601 294.12 79.0801C303.89 78.4001 299.76 85.9201 299.76 85.9201C299.76 85.9201 318.47 90.7501 313.63 96.3301C320.17 99.6701 309.05 111.52 305.97 110.33C304.09 109.58 302.32 113.5 301.37 111.71C301.076 111.224 300.943 110.657 300.991 110.091C301.04 109.525 301.267 108.989 301.64 108.56Z" fill="#263238"/>
<path d="M306.061 111.51C305.35 112.166 304.517 112.675 303.61 113.008C302.702 113.341 301.737 113.491 300.771 113.45C298.181 113.33 297.701 110.82 299.101 108.8C300.361 106.99 303.231 104.87 305.491 105.98C307.751 107.09 307.811 109.87 306.061 111.51Z" fill="#FF8B7B"/>
<path d="M293.62 101.36C293.41 101.96 292.93 102.36 292.54 102.2C292.15 102.04 292 101.47 292.21 100.87C292.42 100.27 292.9 99.8701 293.29 100.04C293.68 100.21 293.83 100.77 293.62 101.36Z" fill="#263238"/>
<path d="M286.881 99.0002C286.681 99.6002 286.191 100 285.801 99.8402C285.411 99.6802 285.271 99.1102 285.471 98.5102C285.671 97.9102 286.171 97.5102 286.561 97.6802C286.951 97.8502 287.091 98.4102 286.881 99.0002Z" fill="#263238"/>
<path d="M288.92 100.05C287.57 101.621 286.013 103 284.29 104.15C284.596 104.583 284.992 104.944 285.451 105.208C285.911 105.472 286.422 105.633 286.95 105.68L288.92 100.05Z" fill="#FF5652"/>
<path d="M288.901 108.16C288.634 108.099 288.37 108.023 288.111 107.93C288.088 107.924 288.067 107.912 288.048 107.897C288.03 107.881 288.015 107.862 288.005 107.84C287.994 107.818 287.988 107.795 287.988 107.77C287.987 107.746 287.992 107.722 288.001 107.7C288.008 107.677 288.019 107.655 288.035 107.637C288.051 107.619 288.07 107.604 288.092 107.593C288.113 107.583 288.137 107.577 288.161 107.577C288.185 107.576 288.209 107.581 288.231 107.59C288.968 107.867 289.759 107.966 290.541 107.879C291.323 107.792 292.074 107.522 292.731 107.09C292.75 107.076 292.772 107.065 292.795 107.059C292.818 107.053 292.843 107.052 292.866 107.055C292.89 107.058 292.913 107.066 292.933 107.078C292.954 107.09 292.972 107.106 292.986 107.125C293.001 107.144 293.011 107.166 293.017 107.189C293.024 107.212 293.025 107.236 293.022 107.26C293.018 107.284 293.011 107.306 292.999 107.327C292.986 107.348 292.97 107.366 292.951 107.38C292.365 107.78 291.704 108.055 291.007 108.189C290.311 108.323 289.594 108.313 288.901 108.16Z" fill="#263238"/>
<path d="M296.46 99.9202C296.395 99.9073 296.335 99.8773 296.286 99.8333C296.237 99.7894 296.2 99.733 296.18 99.6702C296.053 99.2166 295.821 98.7991 295.504 98.4517C295.186 98.1042 294.79 97.8365 294.35 97.6702C294.303 97.6586 294.258 97.6376 294.219 97.6085C294.181 97.5794 294.148 97.5427 294.124 97.5006C294.1 97.4586 294.084 97.4121 294.078 97.3639C294.072 97.3157 294.076 97.2668 294.09 97.2202C294.116 97.1264 294.177 97.0465 294.261 96.9979C294.346 96.9492 294.446 96.9357 294.54 96.9602C295.098 97.1497 295.602 97.47 296.011 97.8946C296.42 98.3191 296.721 98.8353 296.89 99.4002C296.918 99.4943 296.909 99.596 296.865 99.6836C296.82 99.7713 296.743 99.8382 296.65 99.8702C296.591 99.902 296.526 99.9192 296.46 99.9202Z" fill="#263238"/>
<path d="M284.791 95.6702C284.723 95.6551 284.66 95.6203 284.611 95.5702C284.576 95.5366 284.548 95.4962 284.529 95.4515C284.51 95.4068 284.5 95.3587 284.5 95.3102C284.5 95.2616 284.51 95.2135 284.529 95.1688C284.548 95.1241 284.576 95.0838 284.611 95.0502C285.019 94.626 285.522 94.3056 286.079 94.116C286.636 93.9263 287.23 93.8729 287.811 93.9602C287.863 93.9651 287.913 93.9809 287.959 94.0065C288.004 94.0321 288.043 94.067 288.074 94.1089C288.105 94.1508 288.127 94.1987 288.138 94.2496C288.149 94.3004 288.149 94.353 288.139 94.404C288.128 94.4549 288.107 94.5031 288.076 94.5452C288.046 94.5874 288.007 94.6227 287.962 94.6488C287.917 94.6748 287.867 94.6911 287.815 94.6965C287.763 94.7019 287.711 94.6963 287.661 94.6802C287.199 94.6121 286.727 94.6576 286.286 94.8127C285.846 94.9678 285.449 95.2277 285.131 95.5702C285.088 95.6148 285.034 95.6474 284.975 95.6649C284.915 95.6824 284.852 95.6842 284.791 95.6702Z" fill="#263238"/>
<path d="M305.09 141.47L304.46 144.87C304.24 146.04 304.01 147.2 303.76 148.36C303.25 150.68 302.76 153 302.15 155.29C301.074 159.801 299.688 164.231 298 168.55C297.81 169.09 297.56 169.55 297.34 170.09L296.77 171.38C296.486 171.937 296.099 172.436 295.63 172.85C294.086 174.189 292.383 175.334 290.56 176.26C286.352 178.396 282.01 180.257 277.56 181.83L278.63 187.61C283.894 187.328 289.098 186.36 294.11 184.73C296.896 183.833 299.537 182.536 301.95 180.88C303.484 179.823 304.801 178.482 305.83 176.93L306.25 176.27L306.49 175.82L306.98 174.93C307.3 174.33 307.65 173.73 307.93 173.12C310.242 168.386 312.123 163.452 313.55 158.38C314.26 155.88 314.92 153.38 315.44 150.86C315.71 149.6 315.96 148.34 316.2 147.07C316.44 145.8 316.63 144.56 316.82 143.15L305.09 141.47Z" fill="#FF8B7B"/>
<path d="M318.48 138.55C322.57 144.82 316.66 163.28 316.66 163.28L296.87 159.22C298.011 153.249 299.664 147.388 301.81 141.7C305.57 131.86 313.53 131 318.48 138.55Z" fill="#0078FF"/>
<path d="M278.771 181.64L270.831 181.3L274.611 190.56C274.611 190.56 281.431 189.35 281.191 185.66L278.771 181.64Z" fill="#FF8B7B"/>
<path d="M265.491 185.07L268.971 192.58L274.611 190.56L270.831 181.3L265.491 185.07Z" fill="#FF8B7B"/>
<path d="M234.541 146L232.141 140.26L242.271 138.6C242.271 138.6 243.091 143.84 239.161 146.72L234.541 146Z" fill="#FF8B7B"/>
<path d="M235.38 131.07L243.35 134.37L242.27 138.56L232.14 140.22L235.38 131.07Z" fill="#FF8B7B"/>
</svg>
