<svg width="100%" viewBox="0 0 432 432" fill="none" xmlns="http://www.w3.org/2000/svg">
<g clip-path="url(#clip0)">
<path d="M414.979 363.806H382.012V364.055H414.979V363.806Z" fill="#EBEBEB"/>
<path d="M296.845 366.513H288.195V366.762H296.845V366.513Z" fill="#EBEBEB"/>
<path d="M381.016 354.568H361.914V354.817H381.016V354.568Z" fill="#EBEBEB"/>
<path d="M62.3621 356.241H19.3711V356.49H62.3621V356.241Z" fill="#EBEBEB"/>
<path d="M77.5313 356.241H71.2305V356.49H77.5313V356.241Z" fill="#EBEBEB"/>
<path d="M191.264 360.441H98.0156V360.69H191.264V360.441Z" fill="#EBEBEB"/>
<path d="M145.468 208.724L376.09 208.724V55.3637L145.468 55.3637L145.468 208.724Z" fill="#E6E6E6"/>
<path d="M141.893 208.724L372.516 208.724V55.3637L141.893 55.3637L141.893 208.724Z" fill="#F5F5F5"/>
<path d="M366.105 201.517V62.5504L148.294 62.5504V201.517H366.105Z" fill="white"/>
<path d="M151 201.527V62.5604H148.302V201.527H151Z" fill="#E6E6E6"/>
<path d="M144.54 167.982L369.867 167.982V158.317L144.54 158.317V167.982Z" fill="#F5F5F5"/>
<g opacity="0.4">
<path opacity="0.4" d="M156.507 47.7888H134.738V177.528H156.507V47.7888Z" fill="#E6E6E6"/>
<path opacity="0.4" d="M156.519 167.106H167.309L167.309 47.7888H156.519V167.106Z" fill="#F5F5F5"/>
<path opacity="0.4" d="M189.078 47.7888H167.309V177.528H189.078V47.7888Z" fill="#E6E6E6"/>
<path opacity="0.4" d="M189.085 167.106H199.875L199.875 47.7888H189.085V167.106Z" fill="#F5F5F5"/>
<path opacity="0.4" d="M221.644 47.7888H199.875V177.528H221.644V47.7888Z" fill="#E6E6E6"/>
<path opacity="0.4" d="M221.655 167.106H232.445L232.445 47.7888H221.655V167.106Z" fill="#F5F5F5"/>
<path opacity="0.4" d="M254.215 47.7888H232.445V177.528H254.215V47.7888Z" fill="#E6E6E6"/>
<path opacity="0.4" d="M254.226 167.106H265.016V47.7888H254.226V167.106Z" fill="#F5F5F5"/>
<path opacity="0.4" d="M286.785 47.7888H265.016V177.528H286.785V47.7888Z" fill="#E6E6E6"/>
<path opacity="0.4" d="M286.784 167.106H297.574V47.7888H286.784V167.106Z" fill="#F5F5F5"/>
<path opacity="0.4" d="M319.343 47.7888H297.574V177.528H319.343V47.7888Z" fill="#E6E6E6"/>
<path opacity="0.4" d="M319.354 167.106H330.145V47.7888H319.354V167.106Z" fill="#F5F5F5"/>
<path opacity="0.4" d="M351.914 47.7888H330.145V177.528H351.914V47.7888Z" fill="#E6E6E6"/>
<path opacity="0.4" d="M351.921 167.106H362.711V47.7888H351.921V167.106Z" fill="#F5F5F5"/>
<path opacity="0.4" d="M384.48 47.7888H362.711V177.528H384.48V47.7888Z" fill="#E6E6E6"/>
</g>
<path d="M49.5596 347.79H100.613L100.613 242.876H49.5596L49.5596 347.79Z" fill="#EBEBEB"/>
<path d="M59.2576 347.79H49.5625V326.419H69.4305L59.2576 347.79Z" fill="#F5F5F5"/>
<path d="M340.853 347.79H391.906V242.876H340.853V347.79Z" fill="#EBEBEB"/>
<path d="M49.5602 334.681L349.312 334.681V242.876L49.5602 242.876V334.681Z" fill="#F5F5F5"/>
<path d="M339.351 308.78H250.492C250.276 308.78 250.068 308.694 249.915 308.541C249.762 308.388 249.676 308.181 249.676 307.964V249.843C249.676 249.627 249.762 249.419 249.915 249.266C250.068 249.113 250.276 249.027 250.492 249.027H266.896C267.072 249.023 267.244 249.08 267.384 249.186C269.822 250.969 272.526 252.356 275.397 253.297C278.858 254.443 282.481 255.021 286.127 255.009H303.706C310.43 255.128 317.017 253.098 322.509 249.216C322.645 249.111 322.814 249.055 322.986 249.057H339.4C339.617 249.057 339.824 249.143 339.978 249.296C340.131 249.449 340.217 249.657 340.217 249.873V307.964C340.217 308.076 340.194 308.186 340.15 308.289C340.106 308.391 340.041 308.483 339.96 308.56C339.879 308.636 339.783 308.695 339.678 308.733C339.573 308.771 339.462 308.787 339.351 308.78ZM251.308 307.148H338.534V250.689H323.205C317.491 254.672 310.67 256.761 303.706 256.662H286.127C282.305 256.674 278.506 256.066 274.879 254.86C271.935 253.894 269.156 252.484 266.637 250.679H251.308V307.148Z" fill="#E6E6E6"/>
<path d="M243.872 308.78H155.004C154.787 308.78 154.58 308.694 154.427 308.541C154.273 308.388 154.188 308.181 154.188 307.964V249.843C154.187 249.627 154.273 249.419 154.427 249.266C154.58 249.113 154.787 249.027 155.004 249.027H170.522C170.698 249.023 170.87 249.08 171.01 249.186C173.431 250.968 176.118 252.355 178.973 253.297C182.434 254.443 186.057 255.021 189.703 255.009H207.282C213.983 255.108 220.542 253.068 226.005 249.186C226.146 249.082 226.317 249.026 226.493 249.027H243.872C243.98 249.026 244.087 249.046 244.186 249.087C244.286 249.127 244.376 249.187 244.452 249.263C244.529 249.339 244.589 249.43 244.629 249.529C244.67 249.629 244.69 249.736 244.689 249.843V307.934C244.693 308.044 244.674 308.153 244.635 308.256C244.596 308.358 244.536 308.452 244.46 308.531C244.384 308.61 244.293 308.673 244.192 308.716C244.091 308.758 243.982 308.781 243.872 308.78ZM155.83 307.148H243.056V250.689H226.811C221.103 254.67 214.29 256.759 207.331 256.662H189.753C185.931 256.674 182.132 256.066 178.505 254.86C175.555 253.9 172.772 252.49 170.253 250.679H155.82L155.83 307.148Z" fill="#E6E6E6"/>
<path d="M148.382 308.78H59.5233C59.3068 308.78 59.0992 308.694 58.9462 308.541C58.7931 308.388 58.7071 308.181 58.7071 307.964V249.843C58.7058 249.736 58.7259 249.629 58.7665 249.529C58.807 249.43 58.8671 249.339 58.9432 249.263C59.0192 249.187 59.1098 249.127 59.2094 249.087C59.309 249.046 59.4158 249.026 59.5233 249.027H75.0415C75.2141 249.025 75.3825 249.081 75.5193 249.186C77.9425 250.964 80.6295 252.352 83.4824 253.297C86.9468 254.443 90.5737 255.021 94.2227 255.009H111.801C118.509 255.107 125.073 253.067 130.545 249.186C130.684 249.08 130.856 249.023 131.032 249.027H148.332C148.549 249.027 148.756 249.113 148.909 249.266C149.062 249.419 149.148 249.627 149.148 249.843V307.934C149.157 308.148 149.081 308.356 148.938 308.514C148.794 308.672 148.595 308.768 148.382 308.78ZM60.3395 307.148H147.566V250.689H131.391C125.679 254.671 118.862 256.76 111.901 256.662H94.2724C90.4502 256.676 86.6512 256.067 83.0245 254.86C80.0748 253.9 77.2913 252.49 74.7727 250.679H60.3395V307.148Z" fill="#E6E6E6"/>
<path d="M339.616 347.79H349.311V326.419H329.453L339.616 347.79Z" fill="#F5F5F5"/>
<path d="M110.43 225.297H102.377C102.437 219.723 102.377 205.568 101.81 173.148C100.815 114.42 98.9531 110.797 98.9531 110.797L108.499 139.803C110.766 146.624 112.085 153.725 112.421 160.905C113.476 183.52 109.494 201.577 110.43 225.297Z" fill="#E6E6E6"/>
<path d="M116.551 131.053C127.291 114.799 148.732 106.318 170.65 98.3347C179.251 95.1993 155.102 134.089 137.544 151.728C123.907 165.424 110.668 165.116 106.756 178.603C106 162.936 107.294 145.058 116.551 131.053Z" fill="#E6E6E6"/>
<path d="M104.249 120.622C95.8284 101.61 74.5568 76.9537 50.6475 59.5841C41.261 52.7657 64.4237 111.345 80.7581 135.294C93.4792 153.967 105.344 165.335 107.196 178.653C115.219 161.99 112.66 139.624 104.249 120.622Z" fill="#E6E6E6"/>
<path d="M105.044 242.876C109.597 242.875 113.976 241.134 117.285 238.008C120.595 234.882 122.583 230.608 122.842 226.063L124.425 209.948H85.6641L87.2368 226.063C87.4985 230.609 89.4886 234.883 92.7995 238.008C96.1103 241.134 100.491 242.875 105.044 242.876Z" fill="#F0F0F0"/>
<path d="M83.1565 210.038H126.934L128.188 204.314H81.9023L83.1565 210.038Z" fill="#F0F0F0"/>
<path d="M85.3144 219.852H124.772L125.907 214.129H84.1797L85.3144 219.852Z" fill="#F0F0F0"/>
<path d="M216 392.742C322.589 392.742 408.997 387.697 408.997 381.474C408.997 375.251 322.589 370.206 216 370.206C109.411 370.206 23.0039 375.251 23.0039 381.474C23.0039 387.697 109.411 392.742 216 392.742Z" fill="#F5F5F5"/>
<path d="M370.565 284.015H61.4258V319.013H370.565V284.015Z" fill="#0078FF"/>
<path opacity="0.3" d="M370.575 284.015H304.262V319.013H370.575V284.015Z" fill="black"/>
<path d="M95.5578 319.013H61.4258V381.474H95.5578V319.013Z" fill="#0078FF"/>
<path opacity="0.3" d="M61.4375 319.013V322.507L85.6056 329.803V381.474H95.5595V319.013H61.4375Z" fill="black"/>
<path d="M370.573 319.013H336.441V381.474H370.573V319.013Z" fill="#0078FF"/>
<path opacity="0.2" d="M370.573 319.013H336.441V381.474H370.573V319.013Z" fill="black"/>
<path opacity="0.3" d="M336.441 319.013V322.507L360.619 329.803V381.474H370.573V319.013H336.441Z" fill="black"/>
<path d="M304.261 319.013H270.129V381.474H304.261V319.013Z" fill="#0078FF"/>
<path opacity="0.3" d="M270.129 319.013V322.507L294.307 329.803V381.474H304.261V319.013H270.129Z" fill="black"/>
<path d="M161.87 319.013H127.738V381.474H161.87V319.013Z" fill="#0078FF"/>
<path opacity="0.2" d="M161.87 319.013H127.738V381.474H161.87V319.013Z" fill="black"/>
<path opacity="0.3" d="M127.738 319.013V322.507L151.916 329.803V381.474H161.87V319.013H127.738Z" fill="black"/>
<path d="M327.961 277.137H138.956C138.367 277.141 137.784 277.024 137.243 276.791C136.701 276.559 136.214 276.216 135.812 275.786C135.41 275.356 135.101 274.847 134.906 274.291C134.71 273.736 134.632 273.146 134.676 272.558L142.46 149.04C142.559 147.809 143.111 146.658 144.011 145.812C144.911 144.966 146.093 144.484 147.327 144.461H336.322C336.911 144.457 337.495 144.575 338.036 144.807C338.577 145.04 339.064 145.382 339.467 145.812C339.869 146.242 340.177 146.751 340.373 147.307C340.568 147.863 340.647 148.453 340.603 149.04L332.819 272.558C332.72 273.788 332.169 274.937 331.271 275.783C330.374 276.629 329.194 277.111 327.961 277.137Z" fill="#263238"/>
<path opacity="0.6" d="M327.961 277.137H138.956C138.367 277.141 137.784 277.024 137.243 276.791C136.701 276.559 136.214 276.216 135.812 275.786C135.41 275.356 135.101 274.847 134.906 274.291C134.71 273.736 134.632 273.146 134.676 272.558L142.46 149.04C142.559 147.809 143.111 146.658 144.011 145.812C144.911 144.966 146.093 144.484 147.327 144.461H336.322C336.911 144.457 337.495 144.575 338.036 144.807C338.577 145.04 339.064 145.382 339.467 145.812C339.869 146.242 340.177 146.751 340.373 147.307C340.568 147.863 340.647 148.453 340.603 149.04L332.819 272.558C332.72 273.788 332.169 274.937 331.271 275.783C330.374 276.629 329.194 277.111 327.961 277.137Z" fill="black"/>
<path d="M326.547 277.137H137.552C136.962 277.143 136.378 277.026 135.835 276.794C135.293 276.562 134.805 276.22 134.401 275.79C133.998 275.359 133.689 274.85 133.492 274.294C133.296 273.737 133.218 273.146 133.262 272.558L141.046 149.04C141.144 147.809 141.697 146.658 142.597 145.812C143.496 144.966 144.679 144.484 145.913 144.461H334.908C335.498 144.455 336.082 144.572 336.624 144.804C337.166 145.036 337.653 145.378 338.056 145.809C338.458 146.239 338.767 146.749 338.962 147.305C339.157 147.862 339.234 148.452 339.189 149.04L331.405 272.558C331.306 273.788 330.755 274.937 329.857 275.783C328.96 276.629 327.78 277.111 326.547 277.137Z" fill="#263238"/>
<path d="M326.308 278.71H101.419C100.384 278.7 99.3671 278.984 98.4864 279.529C97.6056 280.073 96.8969 280.855 96.4423 281.785C96.3271 282.027 96.2754 282.294 96.2922 282.561C96.3089 282.828 96.3936 283.087 96.5381 283.312C96.6826 283.537 96.8822 283.722 97.118 283.848C97.3538 283.975 97.618 284.039 97.8856 284.035H329.792C330.06 284.039 330.324 283.975 330.56 283.848C330.795 283.722 330.995 283.537 331.139 283.312C331.284 283.087 331.369 282.828 331.385 282.561C331.402 282.294 331.35 282.027 331.235 281.785C330.786 280.861 330.086 280.083 329.214 279.539C328.343 278.995 327.335 278.707 326.308 278.71Z" fill="#263238"/>
<path opacity="0.6" d="M326.308 278.71H294.326C293.299 278.706 292.291 278.993 291.419 279.537C290.548 280.081 289.847 280.861 289.399 281.785C289.284 282.026 289.233 282.292 289.249 282.559C289.265 282.825 289.349 283.083 289.492 283.307C289.636 283.532 289.834 283.717 290.068 283.845C290.303 283.972 290.566 284.037 290.833 284.035H329.792C330.06 284.039 330.324 283.975 330.56 283.848C330.796 283.722 330.995 283.537 331.14 283.312C331.284 283.087 331.369 282.828 331.386 282.561C331.402 282.294 331.351 282.027 331.236 281.785C330.786 280.861 330.086 280.083 329.214 279.539C328.343 278.995 327.336 278.707 326.308 278.71Z" fill="black"/>
<path d="M306.478 282.592H298.217C298.026 282.589 297.843 282.511 297.709 282.375C297.575 282.239 297.5 282.056 297.5 281.865C297.5 281.674 297.575 281.491 297.709 281.355C297.843 281.219 298.026 281.141 298.217 281.138H306.478C306.574 281.138 306.668 281.157 306.757 281.194C306.845 281.23 306.925 281.284 306.992 281.351C307.06 281.419 307.113 281.499 307.15 281.587C307.186 281.675 307.205 281.77 307.205 281.865C307.205 281.961 307.186 282.055 307.15 282.143C307.113 282.231 307.06 282.311 306.992 282.379C306.925 282.446 306.845 282.5 306.757 282.536C306.668 282.573 306.574 282.592 306.478 282.592Z" fill="#0078FF"/>
<path opacity="0.7" d="M200.24 282.592H191.988C191.796 282.592 191.611 282.515 191.475 282.379C191.338 282.243 191.262 282.058 191.262 281.865C191.262 281.77 191.281 281.675 191.317 281.587C191.354 281.499 191.407 281.419 191.475 281.351C191.542 281.284 191.622 281.23 191.71 281.194C191.798 281.157 191.893 281.138 191.988 281.138H200.24C200.336 281.138 200.43 281.157 200.518 281.194C200.606 281.23 200.687 281.284 200.754 281.351C200.821 281.419 200.875 281.499 200.911 281.587C200.948 281.675 200.967 281.77 200.967 281.865C200.967 282.058 200.89 282.243 200.754 282.379C200.618 282.515 200.433 282.592 200.24 282.592Z" fill="white"/>
<path d="M315.03 281.138H309.625C309.295 281.138 309.027 281.406 309.027 281.736V281.994C309.027 282.324 309.295 282.592 309.625 282.592H315.03C315.359 282.592 315.627 282.324 315.627 281.994V281.736C315.627 281.406 315.359 281.138 315.03 281.138Z" fill="#0078FF"/>
<path d="M137.523 268.099L144.75 153.499C144.787 153.021 145.002 152.574 145.352 152.247C145.702 151.919 146.161 151.734 146.641 151.728H333.267C333.496 151.724 333.722 151.768 333.933 151.858C334.144 151.947 334.333 152.079 334.49 152.246C334.646 152.413 334.766 152.61 334.842 152.826C334.917 153.042 334.947 153.271 334.929 153.499L327.713 268.099C327.673 268.578 327.456 269.025 327.105 269.352C326.753 269.68 326.292 269.865 325.811 269.871H139.195C138.967 269.872 138.74 269.827 138.53 269.737C138.319 269.648 138.13 269.516 137.973 269.349C137.816 269.183 137.695 268.986 137.618 268.771C137.54 268.556 137.508 268.327 137.523 268.099Z" fill="white"/>
<path opacity="0.1" d="M243.689 148.194L181.527 266.347H135.67C135.44 266.35 135.211 266.306 135 266.216C134.788 266.126 134.597 265.993 134.44 265.826C134.282 265.658 134.162 265.459 134.085 265.242C134.009 265.025 133.979 264.794 133.997 264.565L141.224 149.976C141.261 149.497 141.475 149.049 141.825 148.719C142.175 148.39 142.635 148.202 143.115 148.194H243.689Z" fill="#0078FF"/>
<path opacity="0.1" d="M298.128 148.194L235.966 266.347H221.473L283.635 148.194H298.128Z" fill="#0078FF"/>
<path opacity="0.1" d="M331.404 149.976L324.177 264.565C324.142 265.045 323.929 265.494 323.579 265.824C323.228 266.154 322.767 266.341 322.286 266.347H251.613L313.775 148.194H329.702C329.934 148.188 330.165 148.23 330.379 148.319C330.594 148.407 330.788 148.54 330.948 148.707C331.108 148.875 331.232 149.075 331.31 149.293C331.389 149.512 331.421 149.744 331.404 149.976Z" fill="#0078FF"/>
<path opacity="0.4" d="M241.51 148.313C241.483 148.674 241.321 149.012 241.058 149.261C240.795 149.509 240.448 149.651 240.086 149.657C239.913 149.659 239.742 149.625 239.583 149.557C239.424 149.489 239.281 149.388 239.163 149.262C239.045 149.135 238.954 148.986 238.897 148.823C238.841 148.659 238.818 148.486 238.832 148.313C238.857 147.951 239.017 147.612 239.281 147.363C239.545 147.114 239.893 146.974 240.256 146.97C240.428 146.968 240.6 147.002 240.759 147.07C240.918 147.138 241.061 147.238 241.179 147.365C241.297 147.491 241.387 147.641 241.444 147.804C241.501 147.968 241.524 148.141 241.51 148.313Z" fill="white"/>
<path d="M210.674 120.831C205.229 127.062 202.084 146.163 206.115 155.56C210.146 164.956 163.373 174.363 201.964 189.632C240.556 204.901 271.423 187.193 260.254 171.377C249.086 155.56 261.459 129.222 248.529 122.602C236.843 116.57 221.583 108.338 210.674 120.831Z" fill="#263238"/>
<path d="M199.137 197.745C197.096 204.712 194.926 211.68 192.677 218.648C190.427 225.615 188.088 232.504 185.61 239.422L184.664 242.029L184.186 243.333L184.037 243.722L183.798 244.309C183.649 244.687 183.42 245.095 183.221 245.484C182.248 247.261 180.796 248.73 179.03 249.724C177.427 250.594 175.638 251.066 173.814 251.098C171.256 251.11 168.722 250.612 166.359 249.634C164.424 248.849 162.551 247.921 160.755 246.857C154.228 242.844 148.246 238.006 142.957 232.464L147.247 227.407C148.69 228.333 150.233 229.318 151.726 230.244C153.22 231.17 154.782 232.066 156.295 232.952C159.26 234.687 162.321 236.252 165.463 237.64C166.895 238.271 168.372 238.794 169.882 239.203C170.927 239.549 172.031 239.678 173.127 239.581C173.406 239.581 173.356 239.422 173.127 239.511C172.898 239.601 172.65 239.86 172.64 239.83C172.63 239.8 172.64 239.83 172.64 239.77C172.644 239.75 172.644 239.73 172.64 239.71L172.719 239.461L173.097 238.177L173.864 235.589L179.946 214.686C182.016 207.718 184.146 200.751 186.336 193.783L199.137 197.745Z" fill="#B65B52"/>
<path d="M146.938 227.248L135.371 222.968L139.96 235.191C139.96 235.191 148.122 236.366 151.287 232.076L148.709 228.622C148.263 228.003 147.648 227.527 146.938 227.248Z" fill="#B55B52"/>
<path d="M125.168 226.521L129.568 236.545L140.009 235.171L135.411 222.948L125.168 226.521Z" fill="#B55B52"/>
<path d="M190.697 179.718C185.401 181.062 181.738 202.831 181.738 202.831L196.321 212.785C196.321 212.785 210.256 190.827 206.225 185.013C201.945 178.912 198.411 177.757 190.697 179.718Z" fill="#0078FF"/>
<path opacity="0.5" d="M190.697 179.718C185.401 181.062 181.738 202.831 181.738 202.831L196.321 212.785C196.321 212.785 210.256 190.827 206.225 185.013C201.945 178.912 198.411 177.757 190.697 179.718Z" fill="white"/>
<path opacity="0.2" d="M190.217 187.631L201.534 190.249L202.619 201.328C200.702 205.239 198.586 209.05 196.279 212.745L187.43 206.773C187.818 201.646 188.773 191.115 190.217 187.631Z" fill="black"/>
<path d="M190.697 179.718C190.697 179.718 184.575 181.868 196.829 257.179H248.947C248.072 235.968 248.052 222.878 258.185 179.35C250.89 177.841 243.494 176.866 236.057 176.433C227.288 176.005 220.131 175.726 212.387 176.433C202.224 177.359 190.697 179.718 190.697 179.718Z" fill="#0078FF"/>
<path opacity="0.5" d="M190.697 179.718C190.697 179.718 184.575 181.868 196.829 257.179H248.947C248.072 235.968 248.052 222.878 258.185 179.35C250.89 177.841 243.494 176.866 236.057 176.433C227.288 176.005 220.131 175.726 212.387 176.433C202.224 177.359 190.697 179.718 190.697 179.718Z" fill="white"/>
<path opacity="0.2" d="M245.92 199.556L252.649 205.29C251.215 212.904 250.25 219.225 249.663 224.889C248.379 219.235 245.173 203.886 245.92 199.556Z" fill="black"/>
<path d="M233.707 149.777C232.214 157.391 230.721 171.347 236.056 176.433C236.056 176.433 231.079 187.84 217.89 187.84C204.701 187.84 212.386 176.433 212.386 176.433C220.876 174.442 220.657 168.102 219.184 162.189L233.707 149.777Z" fill="#B55B52"/>
<path d="M234.364 173.586C233.109 176.125 229.068 181.928 217.78 183.998C217.467 184.056 217.143 183.992 216.875 183.819C214.764 182.346 213.45 179.23 214.376 175.617C214.437 175.395 214.436 175.16 214.37 174.939C214.305 174.718 214.18 174.52 214.008 174.367C213.836 174.213 213.625 174.111 213.398 174.072C213.171 174.033 212.937 174.057 212.724 174.144C211.857 174.507 211.024 174.946 210.235 175.458C210.062 175.573 209.921 175.73 209.827 175.916C209.001 177.468 205.656 185.073 215.75 189.761C215.911 189.83 216.083 189.871 216.257 189.881C222.23 190 232.671 188.826 239.271 176.941C239.389 176.726 239.441 176.482 239.422 176.238C239.402 175.994 239.312 175.76 239.161 175.567C238.274 174.596 237.244 173.767 236.106 173.109C235.962 173.017 235.801 172.956 235.633 172.93C235.464 172.904 235.292 172.914 235.128 172.959C234.964 173.004 234.811 173.083 234.679 173.191C234.547 173.3 234.44 173.434 234.364 173.586Z" fill="#FAFAFA"/>
<path d="M237.131 204.921L223.693 204.533C223.552 204.534 223.413 204.505 223.285 204.448C223.156 204.392 223.041 204.308 222.947 204.204C222.853 204.1 222.782 203.977 222.739 203.843C222.696 203.709 222.682 203.568 222.697 203.428L222.827 201.766C222.866 201.486 223.006 201.231 223.22 201.047C223.435 200.864 223.709 200.765 223.991 200.77L237.429 201.159C237.571 201.158 237.711 201.187 237.84 201.244C237.969 201.301 238.085 201.386 238.179 201.491C238.273 201.597 238.344 201.721 238.386 201.856C238.428 201.991 238.442 202.133 238.425 202.274L238.295 203.926C238.256 204.205 238.116 204.461 237.902 204.645C237.687 204.828 237.413 204.926 237.131 204.921Z" fill="#FAFAFA"/>
<path opacity="0.2" d="M227.784 154.843L219.184 162.179C219.553 163.555 219.799 164.961 219.92 166.38C223.155 165.912 227.615 162.348 227.963 158.954C228.153 157.584 228.093 156.191 227.784 154.843Z" fill="black"/>
<path d="M243.739 135.373C241.34 147.885 240.593 153.231 233.387 158.874C222.547 167.375 207.706 161.681 206.332 148.712C205.088 137.036 209.219 118.541 222.258 115.117C225.116 114.358 228.12 114.34 230.986 115.067C233.852 115.793 236.485 117.239 238.636 119.267C240.787 121.295 242.385 123.839 243.278 126.658C244.171 129.476 244.329 132.476 243.739 135.373Z" fill="#B55B52"/>
<path d="M236.622 126.116C235.07 133.95 234.701 144.332 241.878 144.332C249.055 144.332 254.679 132.118 248.487 122.553C242.296 112.987 237.528 121.498 236.622 126.116Z" fill="#263238"/>
<path d="M249.026 127.082C249.026 135.602 238.295 131.392 233.547 127.719C228.799 124.046 228.57 124.444 219.771 124.434C210.972 124.424 209.21 123.817 206.612 119.616C204.014 115.416 204.253 112.648 210.106 113.534C215.959 114.42 211.041 108.448 215.401 105.133C219.761 101.819 224.927 102.655 230.89 110.22C236.852 117.785 249.026 112.32 249.026 127.082Z" fill="#263238"/>
<path d="M245.877 146.506C247.006 142.655 245.899 138.94 243.404 138.209C240.908 137.477 237.97 140.006 236.841 143.857C235.712 147.708 236.82 151.423 239.315 152.154C241.81 152.886 244.748 150.357 245.877 146.506Z" fill="white"/>
<path d="M225.952 156.137C223.642 156.137 221.356 155.666 219.233 154.754C219.188 154.735 219.147 154.708 219.112 154.673C219.077 154.638 219.05 154.597 219.031 154.552C219.013 154.506 219.003 154.457 219.004 154.408C219.004 154.359 219.015 154.311 219.034 154.266C219.076 154.175 219.151 154.104 219.243 154.067C219.336 154.029 219.439 154.03 219.532 154.067C221.532 154.925 223.684 155.373 225.861 155.385C228.037 155.397 230.194 154.973 232.203 154.136C234.158 153.337 235.932 152.154 237.423 150.658C238.914 149.163 240.09 147.384 240.883 145.427C243.869 136.876 246.915 126.206 243.392 119.547C242.683 118.25 241.702 117.123 240.516 116.242C239.331 115.36 237.969 114.746 236.523 114.44C236.427 114.414 236.345 114.352 236.295 114.266C236.245 114.181 236.23 114.079 236.255 113.982C236.28 113.886 236.343 113.804 236.428 113.754C236.514 113.704 236.616 113.689 236.712 113.714C238.257 114.046 239.711 114.707 240.977 115.651C242.243 116.596 243.291 117.802 244.049 119.188C247.712 126.066 244.656 136.946 241.58 145.656C240.746 147.711 239.508 149.578 237.94 151.148C236.373 152.717 234.507 153.957 232.452 154.793C230.393 155.659 228.186 156.115 225.952 156.137Z" fill="white"/>
<path opacity="0.6" d="M245.513 146.542C244.627 149.528 242.597 151.628 240.974 151.16C239.352 150.692 238.755 147.846 239.64 144.82C240.526 141.794 242.557 139.723 244.179 140.201C245.802 140.679 246.399 143.516 245.513 146.542Z" fill="#0078FF"/>
<path d="M220.266 153.107L216.366 152.354C215.681 152.222 215.018 152.67 214.886 153.356L214.842 153.581C214.71 154.266 215.158 154.929 215.844 155.061L219.744 155.814C220.429 155.946 221.092 155.498 221.224 154.812L221.268 154.587C221.4 153.902 220.952 153.239 220.266 153.107Z" fill="white"/>
<path d="M215.171 136.418C215.171 136.418 212.862 140.609 210.672 142.49C211.856 143.934 214.245 143.655 214.245 143.655L215.171 136.418Z" fill="#A02724"/>
<path d="M217.371 149.01H217.46C219.717 149.188 221.958 148.505 223.731 147.099C223.768 147.062 223.788 147.012 223.788 146.96C223.788 146.908 223.768 146.857 223.731 146.82C223.714 146.803 223.693 146.788 223.67 146.779C223.647 146.769 223.622 146.764 223.597 146.764C223.572 146.764 223.547 146.769 223.524 146.779C223.501 146.788 223.48 146.803 223.463 146.82C221.769 148.152 219.639 148.801 217.49 148.642C217.465 148.638 217.438 148.639 217.413 148.645C217.388 148.651 217.364 148.663 217.344 148.679C217.323 148.695 217.306 148.715 217.294 148.737C217.281 148.76 217.274 148.785 217.271 148.811C217.266 148.85 217.273 148.89 217.291 148.926C217.308 148.961 217.336 148.991 217.371 149.01Z" fill="#263238"/>
<path d="M228.76 131.491C228.816 131.523 228.879 131.539 228.944 131.539C229.008 131.539 229.072 131.523 229.128 131.491C229.213 131.434 229.273 131.347 229.296 131.246C229.318 131.146 229.301 131.041 229.248 130.954C228.771 130.157 228.112 129.484 227.325 128.993C226.537 128.501 225.644 128.204 224.718 128.127C224.615 128.127 224.515 128.167 224.44 128.24C224.366 128.312 224.323 128.411 224.32 128.515C224.32 128.616 224.36 128.714 224.43 128.786C224.501 128.859 224.597 128.901 224.699 128.903C225.496 128.979 226.264 129.242 226.94 129.671C227.617 130.1 228.182 130.683 228.591 131.372C228.635 131.426 228.694 131.467 228.76 131.491Z" fill="#263238"/>
<path d="M223.054 136.588C222.885 137.583 222.198 138.35 221.521 138.24C220.844 138.131 220.456 137.245 220.625 136.17C220.795 135.095 221.491 134.408 222.158 134.517C222.825 134.627 223.233 135.562 223.054 136.588Z" fill="#263238"/>
<path d="M211.449 134.617C211.28 135.612 210.593 136.379 209.916 136.269C209.239 136.16 208.851 135.224 209.02 134.199C209.189 133.173 209.886 132.427 210.553 132.546C211.22 132.666 211.628 133.582 211.449 134.617Z" fill="#263238"/>
<path d="M210.841 132.656L208.492 131.521C208.492 131.521 209.428 133.661 210.841 132.656Z" fill="#263238"/>
<path d="M222.451 134.627L220.102 133.502C220.102 133.502 221.037 135.642 222.451 134.627Z" fill="#263238"/>
<path d="M207.507 127.679C207.567 127.715 207.636 127.734 207.706 127.734C207.776 127.734 207.845 127.715 207.905 127.679C208.519 127.163 209.249 126.802 210.032 126.629C210.816 126.456 211.629 126.474 212.404 126.683C212.502 126.718 212.609 126.712 212.702 126.667C212.796 126.622 212.867 126.542 212.902 126.445C212.936 126.347 212.93 126.24 212.885 126.146C212.841 126.053 212.761 125.981 212.663 125.947C211.77 125.693 210.828 125.657 209.918 125.845C209.009 126.032 208.157 126.436 207.437 127.022C207.395 127.051 207.36 127.089 207.334 127.133C207.308 127.176 207.291 127.225 207.284 127.275C207.278 127.326 207.282 127.377 207.296 127.426C207.31 127.475 207.335 127.52 207.367 127.559C207.401 127.612 207.449 127.654 207.507 127.679Z" fill="#263238"/>
<path d="M194.846 269.871C194.846 269.871 194.706 262.744 196.836 257.179H248.945C248.945 257.179 253.633 264.744 254.848 269.871H194.846Z" fill="#0078FF"/>
<path d="M249.733 254.123L250.141 258.782C250.33 259.15 249.902 259.519 249.295 259.519H196.539C196.072 259.519 195.683 259.29 195.654 258.991L195.176 254.323C195.176 254.004 195.554 253.725 196.072 253.725H248.827C249 253.707 249.174 253.734 249.333 253.804C249.492 253.874 249.63 253.984 249.733 254.123Z" fill="#0078FF"/>
<path opacity="0.3" d="M249.733 254.123L250.141 258.782C250.33 259.15 249.902 259.519 249.295 259.519H196.539C196.072 259.519 195.683 259.29 195.654 258.991L195.176 254.323C195.176 254.004 195.554 253.725 196.072 253.725H248.827C249 253.707 249.174 253.734 249.333 253.804C249.492 253.874 249.63 253.984 249.733 254.123Z" fill="#FAFAFA"/>
<path d="M242.634 260.016H244.047C244.336 260.016 244.545 259.877 244.525 259.698L243.868 253.636C243.868 253.457 243.6 253.317 243.321 253.317H241.878C241.589 253.317 241.38 253.457 241.4 253.636L242.057 259.698C242.106 259.877 242.355 260.016 242.634 260.016Z" fill="#0078FF"/>
<path d="M200.54 260.016H201.953C202.232 260.016 202.451 259.877 202.431 259.698L201.764 253.636C201.764 253.457 201.505 253.317 201.217 253.317H199.803C199.525 253.317 199.306 253.457 199.325 253.636L199.992 259.698C200.012 259.877 200.261 260.016 200.54 260.016Z" fill="#0078FF"/>
<path d="M221.591 260.016H222.965C223.244 260.016 223.463 259.877 223.443 259.698L222.776 253.636C222.776 253.457 222.507 253.317 222.228 253.317H220.815C220.536 253.317 220.317 253.457 220.337 253.636L221.004 259.698C221.064 259.877 221.303 260.016 221.591 260.016Z" fill="#0078FF"/>
<path d="M262.643 194.101C264.933 201.534 267.133 209.006 269.243 216.518L272.418 227.726L274.001 233.3L274.399 234.674L274.598 235.36L274.648 235.52L274.489 235.271C274.237 234.91 273.928 234.594 273.573 234.335C272.794 233.768 271.867 233.44 270.905 233.389C270.178 233.355 269.454 233.498 268.795 233.808C268.078 234.196 268.148 234.285 268.208 234.216C268.376 234.069 268.53 233.906 268.666 233.728C269.135 233.142 269.567 232.527 269.96 231.886C270.836 230.453 271.702 228.841 272.518 227.188C274.21 223.883 275.733 220.38 277.276 216.856C278.819 213.332 280.262 209.769 281.755 206.175C283.248 202.582 284.672 198.969 286.145 195.405L292.505 197.297C290.853 205.061 288.922 212.685 286.533 220.28C285.358 224.093 284.054 227.865 282.551 231.687C281.775 233.599 280.949 235.51 279.923 237.49C279.377 238.562 278.765 239.599 278.092 240.596C277.674 241.222 277.208 241.814 276.698 242.368C275.891 243.284 274.91 244.032 273.812 244.568C272.716 245.101 271.505 245.354 270.288 245.304C268.845 245.224 267.458 244.715 266.307 243.841C265.572 243.288 264.936 242.615 264.425 241.85C264.102 241.36 263.819 240.844 263.579 240.307C263.49 240.088 263.39 239.86 263.32 239.66L263.131 239.173L262.872 238.466L262.355 237.062C261.678 235.201 260.991 233.34 260.364 231.478C259.09 227.756 257.816 224.043 256.621 220.31C254.179 212.851 251.903 205.356 249.793 197.824L262.643 194.101Z" fill="#B65B52"/>
<path d="M258.182 179.35C263.408 180.932 271.401 201.427 271.401 201.427L251.145 215.91C251.145 215.91 242.037 198.392 244.227 191.643C246.516 184.615 252.23 177.538 258.182 179.35Z" fill="#0078FF"/>
<path opacity="0.5" d="M258.182 179.35C263.408 180.932 271.401 201.427 271.401 201.427L251.145 215.91C251.145 215.91 242.037 198.392 244.227 191.643C246.516 184.615 252.23 177.538 258.182 179.35Z" fill="white"/>
<path d="M286.375 198.133L283.598 185.889L295.144 191.981C295.144 191.981 295.284 200.223 290.625 202.821L286.375 198.133Z" fill="#B55B52"/>
<path d="M288.435 176.174L295.801 181.4L295.144 191.981L283.598 185.889L288.435 176.174Z" fill="#B55B52"/>
<path d="M81.6224 114.56H162.249C163.789 114.544 165.314 114.849 166.73 115.454C168.146 116.058 169.421 116.95 170.474 118.073C171.527 119.195 172.336 120.524 172.85 121.976C173.363 123.427 173.57 124.969 173.457 126.504L171.208 162.995C170.96 166.208 169.523 169.212 167.178 171.421C164.833 173.63 161.748 174.885 158.526 174.94H149.19L153.002 187.472L134.766 174.94H77.9295C76.3901 174.955 74.8644 174.651 73.4486 174.046C72.0329 173.441 70.758 172.55 69.7046 171.427C68.6512 170.304 67.8422 168.975 67.3287 167.524C66.8152 166.073 66.6084 164.531 66.7214 162.995L68.9511 126.504C69.1983 123.294 70.6337 120.29 72.9769 118.082C75.3202 115.873 78.4028 114.617 81.6224 114.56Z" fill="#0078FF"/>
<path d="M154.865 133.671H86.6806C86.3911 133.67 86.1051 133.608 85.8406 133.49C85.5762 133.372 85.3392 133.201 85.1446 132.986C84.9499 132.772 84.8019 132.52 84.7099 132.245C84.6179 131.971 84.5839 131.68 84.6101 131.392C84.6547 130.788 84.9234 130.222 85.3636 129.806C85.8037 129.39 86.3835 129.153 86.9891 129.142H155.183C155.471 129.143 155.756 129.203 156.02 129.318C156.284 129.433 156.521 129.602 156.717 129.813C156.913 130.024 157.064 130.273 157.16 130.544C157.255 130.816 157.294 131.104 157.274 131.392C157.238 132.007 156.969 132.586 156.521 133.009C156.074 133.433 155.481 133.67 154.865 133.671Z" fill="white"/>
<path d="M114.469 146.999H85.8616C85.572 147.002 85.285 146.944 85.0187 146.83C84.7525 146.715 84.5127 146.547 84.3146 146.336C84.1164 146.125 83.964 145.875 83.8671 145.602C83.7702 145.329 83.7308 145.039 83.7514 144.75C83.7962 144.144 84.0663 143.577 84.5085 143.161C84.9508 142.744 85.533 142.509 86.1404 142.5H114.778C115.068 142.497 115.356 142.554 115.624 142.667C115.891 142.781 116.132 142.948 116.331 143.16C116.531 143.371 116.684 143.622 116.781 143.895C116.879 144.169 116.919 144.46 116.898 144.75C116.85 145.362 116.574 145.933 116.124 146.35C115.674 146.767 115.083 146.999 114.469 146.999Z" fill="white"/>
<path d="M138.986 160.328H85.0452C84.7556 160.33 84.4686 160.272 84.2023 160.158C83.9361 160.044 83.6963 159.876 83.4982 159.664C83.3 159.453 83.1476 159.203 83.0507 158.93C82.9538 158.657 82.9144 158.367 82.935 158.078C82.9775 157.472 83.247 156.903 83.6897 156.486C84.1324 156.069 84.7159 155.835 85.3239 155.829H139.264C139.554 155.825 139.842 155.882 140.109 155.995C140.376 156.109 140.616 156.277 140.815 156.489C141.013 156.7 141.166 156.951 141.262 157.224C141.358 157.498 141.397 157.789 141.374 158.078C141.33 158.684 141.06 159.251 140.617 159.667C140.175 160.084 139.593 160.319 138.986 160.328Z" fill="white"/>
<path d="M135.483 146.999H124.205C123.916 147.002 123.629 146.944 123.362 146.83C123.096 146.715 122.856 146.547 122.658 146.336C122.46 146.125 122.308 145.875 122.211 145.602C122.114 145.329 122.075 145.039 122.095 144.75C122.142 144.145 122.413 143.579 122.855 143.163C123.296 142.747 123.877 142.511 124.484 142.5H135.752C136.042 142.497 136.33 142.553 136.597 142.667C136.864 142.781 137.104 142.949 137.302 143.16C137.501 143.372 137.653 143.623 137.75 143.896C137.846 144.17 137.884 144.461 137.862 144.75C137.818 145.354 137.549 145.92 137.109 146.336C136.669 146.752 136.089 146.989 135.483 146.999Z" fill="white"/>
<path d="M193.891 48.9633H149.934C147.428 49.0009 145.026 49.9746 143.2 51.6931C141.375 53.4115 140.259 55.7505 140.07 58.2503L138.358 86.6588C138.273 87.8532 138.436 89.0523 138.837 90.1806C139.238 91.3089 139.868 92.3418 140.689 93.2143C141.509 94.0868 142.501 94.78 143.602 95.2501C144.703 95.7202 145.89 95.9571 147.088 95.9458H154.284L150.123 105.701L165.512 95.9458H191.014C193.521 95.9082 195.923 94.9345 197.748 93.216C199.573 91.4976 200.69 89.1586 200.879 86.6588L202.62 58.2503C202.706 57.0559 202.543 55.8568 202.142 54.7285C201.74 53.6002 201.11 52.5673 200.29 51.6948C199.47 50.8223 198.478 50.1291 197.376 49.659C196.275 49.1889 195.088 48.952 193.891 48.9633Z" fill="#0078FF"/>
<g opacity="0.5">
<path opacity="0.5" d="M193.891 48.9633H149.934C147.428 49.0009 145.026 49.9746 143.2 51.6931C141.375 53.4115 140.259 55.7505 140.07 58.2503L138.358 86.6588C138.273 87.8532 138.436 89.0523 138.837 90.1806C139.238 91.3089 139.868 92.3418 140.689 93.2143C141.509 94.0868 142.501 94.78 143.602 95.2501C144.703 95.7202 145.89 95.9571 147.088 95.9458H154.284L150.123 105.701L165.512 95.9458H191.014C193.521 95.9082 195.923 94.9345 197.748 93.216C199.573 91.4976 200.69 89.1586 200.879 86.6588L202.62 58.2503C202.706 57.0559 202.543 55.8568 202.142 54.7285C201.74 53.6002 201.11 52.5673 200.29 51.6948C199.47 50.8223 198.478 50.1291 197.376 49.659C196.275 49.1889 195.088 48.952 193.891 48.9633Z" fill="#FAFAFA"/>
</g>
<path d="M172.702 77.103C172.551 77.7287 172.194 78.2854 171.689 78.6842C171.183 79.0831 170.559 79.3009 169.915 79.3028H167.317C167.317 78.5663 167.377 78.1183 167.387 77.9591C167.425 76.5243 167.792 75.1176 168.462 73.8481C169.402 72.433 170.597 71.2045 171.986 70.2249C173.093 69.4225 174.138 68.5374 175.111 67.5771C175.628 66.966 175.935 66.2055 175.987 65.4072C176.026 64.8782 175.943 64.3474 175.745 63.8555C175.546 63.3637 175.238 62.924 174.842 62.5703C173.877 61.7431 172.628 61.3221 171.359 61.3958C170.024 61.3593 168.719 61.7966 167.676 62.63C167.056 63.1416 166.547 63.7752 166.182 64.4914C165.914 65.0146 165.496 65.4468 164.983 65.7337C164.469 66.0206 163.882 66.1494 163.296 66.104C162.874 66.0517 162.472 65.8939 162.127 65.6451C161.782 65.3962 161.506 65.0645 161.323 64.6804C161.14 64.2964 161.058 63.8725 161.082 63.448C161.107 63.0235 161.238 62.6121 161.464 62.2518C162.065 61.2438 162.836 60.3478 163.744 59.604C165.901 57.87 168.613 56.9754 171.378 57.0857C174.633 57.0857 177.162 57.9318 178.983 59.6339C179.836 60.3671 180.507 61.2879 180.944 62.3242C181.381 63.3604 181.572 64.4839 181.502 65.6063C181.41 66.882 180.969 68.108 180.227 69.1499C178.829 70.8715 177.213 72.404 175.42 73.7087C174.491 74.3575 173.688 75.1704 173.051 76.1076C172.889 76.4216 172.772 76.7566 172.702 77.103ZM167.019 84.2499V83.9314C167.071 83.2121 167.392 82.5387 167.917 82.0446C168.442 81.5505 169.134 81.2718 169.855 81.2638H170.214C170.559 81.2587 170.901 81.3255 171.219 81.4597C171.537 81.594 171.823 81.7929 172.06 82.0437C172.297 82.2946 172.479 82.5919 172.594 82.9169C172.71 83.2419 172.757 83.5873 172.732 83.9314V84.2499C172.68 84.9702 172.36 85.6448 171.834 86.1404C171.309 86.6361 170.617 86.917 169.895 86.9275H169.577C169.228 86.9384 168.88 86.8755 168.557 86.7432C168.234 86.6108 167.942 86.4119 167.701 86.1593C167.459 85.9067 167.274 85.6062 167.156 85.2772C167.039 84.9482 166.992 84.5982 167.019 84.2499Z" fill="white"/>
</g>
<defs>
<clipPath id="clip0">
<rect width="432" height="432" fill="white"/>
</clipPath>
</defs>
</svg>
