<svg width="280" height="280" viewBox="0 0 280 280" fill="none" xmlns="http://www.w3.org/2000/svg">
<g clip-path="url(#clip0)">
<path d="M290 219.44H-10V219.59H290V219.44Z" fill="#EBEBEB"/>
<path d="M259.94 226.502H240.068V226.652H259.94V226.502Z" fill="#EBEBEB"/>
<path d="M206.665 228.134H201.451V228.284H206.665V228.134Z" fill="#EBEBEB"/>
<path d="M220.867 222.014H132.943V222.164H220.867V222.014Z" fill="#EBEBEB"/>
<path d="M30.6026 221.942H21.4766V222.092H30.6026V221.942Z" fill="#EBEBEB"/>
<path d="M56.5334 221.942H35.9414V222.092H56.5334V221.942Z" fill="#EBEBEB"/>
<path d="M95.4009 224.474H68.8809V224.624H95.4009V224.474Z" fill="#EBEBEB"/>
<path d="M246.56 40.01H92.2578V146.678H246.56V40.01Z" fill="#EBEBEB"/>
<path d="M249.669 40.01H93.7109V146.678H249.669V40.01Z" fill="#F5F5F5"/>
<path d="M237.416 146.672H92.2578V152.45H237.416V146.672Z" fill="#EBEBEB"/>
<path d="M254.239 146.672H107.521V152.45H254.239V146.672Z" fill="#F0F0F0"/>
<path d="M245.312 142.322V44.366L98.0605 44.366V142.322H245.312Z" fill="#FAFAFA"/>
<path d="M125.084 142.322L162.26 44.366H179.816L142.634 142.322H125.084Z" fill="white"/>
<path d="M100.082 118.064C99.9988 118.064 99.9194 118.031 99.8609 117.973C99.8024 117.914 99.7695 117.835 99.7695 117.752V47.198C99.7882 47.1328 99.8275 47.0754 99.8816 47.0346C99.9358 46.9938 100.002 46.9717 100.07 46.9717C100.137 46.9717 100.203 46.9938 100.257 47.0346C100.312 47.0754 100.351 47.1328 100.37 47.198V117.752C100.37 117.831 100.34 117.907 100.287 117.965C100.233 118.022 100.16 118.058 100.082 118.064Z" fill="#F0F0F0"/>
<path d="M146.402 142.322L183.584 44.366H190.424L153.248 142.322H146.402Z" fill="white"/>
<path d="M188.918 142.322L226.1 44.366H232.94L195.764 142.322H188.918Z" fill="white"/>
<path d="M245.318 142.322V44.366H244.766V142.322H245.318Z" fill="#EBEBEB"/>
<g opacity="0.7">
<path opacity="0.7" d="M250.7 48.3141H96.3981L95.9961 46.0581H250.298L250.7 48.3141Z" fill="#EBEBEB"/>
<path opacity="0.7" d="M250.7 50.7382H96.3981L95.9961 48.4822H250.298L250.7 50.7382Z" fill="#EBEBEB"/>
<path opacity="0.7" d="M250.7 53.162H96.3981L95.9961 50.906H250.298L250.7 53.162Z" fill="#EBEBEB"/>
<path opacity="0.7" d="M250.7 55.5861H96.3981L95.9961 53.3301H250.298L250.7 55.5861Z" fill="#EBEBEB"/>
<path opacity="0.7" d="M250.7 58.0162H96.3981L95.9961 55.7542H250.298L250.7 58.0162Z" fill="#EBEBEB"/>
<path opacity="0.7" d="M250.7 60.4402H96.3981L95.9961 58.1782H250.298L250.7 60.4402Z" fill="#EBEBEB"/>
<path opacity="0.7" d="M250.7 62.8642H96.3981L95.9961 60.6082H250.298L250.7 62.8642Z" fill="#EBEBEB"/>
<path opacity="0.7" d="M250.7 65.288H96.3981L95.9961 63.032H250.298L250.7 65.288Z" fill="#EBEBEB"/>
<path opacity="0.7" d="M250.7 67.712H96.3981L95.9961 65.4561H250.298L250.7 67.712Z" fill="#EBEBEB"/>
<path opacity="0.7" d="M250.7 70.1361H96.3981L95.9961 67.8801H250.298L250.7 70.1361Z" fill="#EBEBEB"/>
<path opacity="0.7" d="M250.7 72.5602H96.3981L95.9961 70.3042H250.298L250.7 72.5602Z" fill="#EBEBEB"/>
<path opacity="0.7" d="M250.7 74.99H96.3981L95.9961 72.728H250.298L250.7 74.99Z" fill="#EBEBEB"/>
<path opacity="0.7" d="M250.7 77.4142H96.3981L95.9961 75.1582H250.298L250.7 77.4142Z" fill="#EBEBEB"/>
<path opacity="0.7" d="M250.7 79.838H96.3981L95.9961 77.582H250.298L250.7 79.838Z" fill="#EBEBEB"/>
<path opacity="0.7" d="M250.7 82.2621H96.3981L95.9961 80.0061H250.298L250.7 82.2621Z" fill="#EBEBEB"/>
<path opacity="0.7" d="M250.7 84.6862H96.3981L95.9961 82.4302H250.298L250.7 84.6862Z" fill="#EBEBEB"/>
<path opacity="0.7" d="M250.7 87.11H96.3981L95.9961 84.854H250.298L250.7 87.11Z" fill="#EBEBEB"/>
<path opacity="0.7" d="M250.7 89.5401H96.3981L95.9961 87.2781H250.298L250.7 89.5401Z" fill="#EBEBEB"/>
<path opacity="0.7" d="M250.7 91.964H96.3981L95.9961 89.708H250.298L250.7 91.964Z" fill="#EBEBEB"/>
<path opacity="0.7" d="M250.7 94.3881H96.3981L95.9961 92.1321H250.298L250.7 94.3881Z" fill="#EBEBEB"/>
<path opacity="0.7" d="M250.7 96.8122H96.3981L95.9961 94.5562H250.298L250.7 96.8122Z" fill="#EBEBEB"/>
<path opacity="0.7" d="M250.7 99.236H96.3981L95.9961 96.98H250.298L250.7 99.236Z" fill="#EBEBEB"/>
<path opacity="0.7" d="M250.7 101.66H96.3981L95.9961 99.4041H250.298L250.7 101.66Z" fill="#EBEBEB"/>
<path opacity="0.7" d="M250.7 104.09H96.3981L95.9961 101.828H250.298L250.7 104.09Z" fill="#EBEBEB"/>
</g>
<path d="M30.6016 148.508C30.6016 155.198 37.3936 160.622 45.7696 160.622C54.1456 160.622 60.9376 155.222 60.9376 148.508H30.6016Z" fill="#EBEBEB"/>
<path d="M32.3366 160.622H21.4766V215.936H32.3366V160.622Z" fill="#F0F0F0"/>
<path d="M77.1325 215.936H23.5645V219.44H77.1325V215.936Z" fill="#F0F0F0"/>
<path d="M32.3368 215.936H79.2148V160.622H32.3368L32.3368 215.936Z" fill="#F5F5F5"/>
<path d="M36.6074 185.564H74.9414V167.426H36.6074V185.564Z" fill="#F0F0F0"/>
<path d="M36.6074 209.126H74.9414V190.988H36.6074V209.126Z" fill="#F0F0F0"/>
<path d="M60.1461 175.256H51.4101C50.86 175.256 50.4141 175.702 50.4141 176.252V176.75C50.4141 177.3 50.86 177.746 51.4101 177.746H60.1461C60.6961 177.746 61.1421 177.3 61.1421 176.75V176.252C61.1421 175.702 60.6961 175.256 60.1461 175.256Z" fill="#F5F5F5"/>
<path d="M60.1461 198.812H51.4101C50.86 198.812 50.4141 199.258 50.4141 199.808V200.306C50.4141 200.856 50.86 201.302 51.4101 201.302H60.1461C60.6961 201.302 61.1421 200.856 61.1421 200.306V199.808C61.1421 199.258 60.6961 198.812 60.1461 198.812Z" fill="#F5F5F5"/>
<path d="M142.155 174.002H133.227V216.734H142.155V174.002Z" fill="#F0F0F0"/>
<path d="M233.293 216.734H134.941V219.44H233.293V216.734Z" fill="#F0F0F0"/>
<path d="M142.154 216.728H235.01V173.996H142.154V216.728Z" fill="#F5F5F5"/>
<path d="M145.664 193.274H231.5V179.258H145.664V193.274Z" fill="#F0F0F0"/>
<path d="M145.664 211.472H231.5V197.456H145.664V211.472Z" fill="#F0F0F0"/>
<path d="M219.362 185.306H157.802C157.364 185.306 157.01 185.66 157.01 186.098V186.434C157.01 186.871 157.364 187.226 157.802 187.226H219.362C219.799 187.226 220.154 186.871 220.154 186.434V186.098C220.154 185.66 219.799 185.306 219.362 185.306Z" fill="#F5F5F5"/>
<path d="M219.362 203.504H157.802C157.364 203.504 157.01 203.859 157.01 204.296V204.632C157.01 205.069 157.364 205.424 157.802 205.424H219.362C219.799 205.424 220.154 205.069 220.154 204.632V204.296C220.154 203.859 219.799 203.504 219.362 203.504Z" fill="#F5F5F5"/>
<path d="M69.6915 46.7361H27.7695V132.062H69.6915V46.7361Z" fill="#E6E6E6"/>
<path d="M73.0518 46.7361H28.6758V132.062H73.0518V46.7361Z" fill="#F5F5F5"/>
<path d="M66.5957 125.606V53.1921H35.1317V125.606H66.5957Z" fill="white"/>
<path d="M120.512 219.44C130.838 219.44 139.208 211.069 139.208 200.744C139.208 190.418 130.838 182.048 120.512 182.048C110.187 182.048 101.816 190.418 101.816 200.744C101.816 211.069 110.187 219.44 120.512 219.44Z" fill="#F5F5F5"/>
<path d="M140 246.536C204.249 246.536 256.334 243.495 256.334 239.744C256.334 235.993 204.249 232.952 140 232.952C75.7505 232.952 23.666 235.993 23.666 239.744C23.666 243.495 75.7505 246.536 140 246.536Z" fill="#F5F5F5"/>
<path opacity="0.2" d="M140.239 133.322L43.003 144.686L24.043 48.344L121.273 36.98L140.239 133.322Z" fill="#0078FF"/>
<path opacity="0.7" d="M134.581 129.188L46.8132 139.448L29.7012 52.478L117.469 42.218L134.581 129.188Z" fill="#0078FF"/>
<path opacity="0.8" d="M70.4051 79.9502C74.3337 74.7782 72.9856 67.1424 67.3941 62.8951C61.8025 58.6478 54.0849 59.3974 50.1563 64.5694C46.2277 69.7414 47.5758 77.3772 53.1674 81.6245C58.7589 85.8718 66.4765 85.1222 70.4051 79.9502Z" fill="white"/>
<path opacity="0.2" d="M134.581 129.188L94.6145 99.9561L81.8165 117.56L69.3485 108.44L46.8125 139.448L67.7345 136.946L67.5425 137.204L134.581 129.188Z" fill="black"/>
<path d="M78.981 161.074L78.3828 161.121L79.0393 169.519L79.6375 169.472L78.981 161.074Z" fill="#263238"/>
<path d="M79.8736 172.563L79.2754 172.61L79.5653 176.319L80.1635 176.272L79.8736 172.563Z" fill="#263238"/>
<path d="M95.1495 236.726H164.203C165.328 236.74 166.443 236.518 167.476 236.073C168.509 235.628 169.437 234.971 170.2 234.144C170.963 233.318 171.543 232.34 171.903 231.275C172.264 230.209 172.396 229.08 172.291 227.96L159.373 62.6C159.15 60.2323 158.062 58.0298 156.318 56.4129C154.574 54.7961 152.295 53.878 149.917 53.834H80.8635C79.7403 53.8214 78.627 54.0452 77.596 54.4908C76.5649 54.9364 75.6391 55.5939 74.8786 56.4205C74.1182 57.2472 73.5401 58.2246 73.1819 59.2892C72.8237 60.3538 72.6934 61.4818 72.7995 62.6L85.6995 227.96C85.9231 230.327 87.0099 232.528 88.7528 234.145C90.4957 235.762 92.7726 236.681 95.1495 236.726Z" fill="#263238"/>
<path d="M76.7121 106.904H78.0441C78.2448 106.907 78.4438 106.867 78.6282 106.788C78.8125 106.708 78.978 106.591 79.1139 106.443C79.2498 106.295 79.353 106.12 79.4168 105.93C79.4806 105.74 79.5035 105.538 79.4841 105.338L77.9961 86.2402C77.955 85.8172 77.76 85.424 77.448 85.1353C77.1361 84.8466 76.729 84.6825 76.3041 84.6742H74.9721C74.7713 84.6716 74.5723 84.7113 74.388 84.7908C74.2036 84.8703 74.0381 84.9877 73.9022 85.1355C73.7664 85.2833 73.6632 85.458 73.5994 85.6484C73.5356 85.8387 73.5127 86.0404 73.5321 86.2402L75.0201 105.338C75.0599 105.762 75.2545 106.156 75.5667 106.445C75.8789 106.734 76.2868 106.897 76.7121 106.904Z" fill="#263238"/>
<path d="M77.804 125.858H79.91C80.0633 125.861 80.2154 125.831 80.3561 125.77C80.4968 125.709 80.6229 125.619 80.7258 125.505C80.8286 125.391 80.906 125.257 80.9526 125.111C80.9992 124.965 81.014 124.81 80.996 124.658L80.204 114.458C80.1787 114.136 80.0345 113.834 79.7994 113.613C79.5643 113.391 79.2551 113.264 78.932 113.258H76.82C76.6667 113.255 76.5146 113.285 76.3739 113.346C76.2332 113.407 76.1071 113.497 76.0042 113.611C75.9014 113.725 75.824 113.859 75.7774 114.005C75.7308 114.151 75.716 114.306 75.734 114.458L76.532 124.658C76.5573 124.98 76.7015 125.282 76.9366 125.503C77.1717 125.725 77.4809 125.852 77.804 125.858Z" fill="#263238"/>
<path d="M98.1555 236.726H167.209C168.334 236.741 169.449 236.519 170.483 236.075C171.516 235.63 172.444 234.973 173.206 234.146C173.969 233.319 174.548 232.341 174.908 231.275C175.267 230.209 175.398 229.08 175.291 227.96L162.373 62.6001C162.152 60.2323 161.066 58.0292 159.323 56.412C157.58 54.7947 155.301 53.8769 152.923 53.8341H83.8695C82.7458 53.8206 81.6319 54.0438 80.6001 54.489C79.5683 54.9342 78.6417 55.5916 77.8806 56.4184C77.1195 57.2451 76.5409 58.2228 76.1823 59.2878C75.8238 60.3528 75.6933 61.4813 75.7995 62.6001L88.6995 227.96C88.9245 230.327 90.0126 232.529 91.7564 234.146C93.5003 235.762 95.778 236.681 98.1555 236.726Z" fill="#0078FF"/>
<path opacity="0.2" d="M128.126 228.35C128.222 229.404 128.704 230.386 129.479 231.107C130.254 231.828 131.268 232.237 132.326 232.256C132.827 232.265 133.325 232.167 133.786 231.969C134.247 231.772 134.661 231.479 135.001 231.11C135.341 230.741 135.599 230.305 135.759 229.829C135.918 229.353 135.975 228.849 135.926 228.35C135.83 227.297 135.348 226.316 134.573 225.596C133.798 224.876 132.784 224.468 131.726 224.45C131.225 224.442 130.728 224.54 130.267 224.737C129.807 224.934 129.393 225.226 129.053 225.594C128.713 225.963 128.455 226.398 128.295 226.873C128.135 227.348 128.078 227.851 128.126 228.35Z" fill="black"/>
<path opacity="0.8" d="M88.1666 221.084H174.759L162.477 63.9321H75.8906L88.1666 221.084Z" fill="white"/>
<path opacity="0.2" d="M128.695 58.49C128.661 58.1169 128.49 57.7695 128.215 57.5148C127.941 57.26 127.582 57.1158 127.207 57.11C127.03 57.1076 126.854 57.1424 126.691 57.2123C126.528 57.2822 126.381 57.3856 126.261 57.5157C126.14 57.6458 126.049 57.7997 125.991 57.9676C125.934 58.1354 125.913 58.3134 125.929 58.49C125.963 58.8641 126.135 59.2123 126.411 59.4672C126.687 59.7221 127.047 59.8656 127.423 59.87C127.6 59.8725 127.776 59.8376 127.938 59.7677C128.101 59.6977 128.247 59.5943 128.367 59.4641C128.487 59.3339 128.578 59.1798 128.635 59.012C128.691 58.8441 128.712 58.6663 128.695 58.49Z" fill="black"/>
<path opacity="0.2" d="M122.437 57.11H110.971C110.793 57.1076 110.618 57.1424 110.455 57.2123C110.292 57.2822 110.145 57.3856 110.025 57.5157C109.904 57.6458 109.812 57.7997 109.755 57.9676C109.698 58.1354 109.677 58.3134 109.693 58.49C109.729 58.8621 109.901 59.2079 110.175 59.4622C110.449 59.7164 110.807 59.8615 111.181 59.87H122.653C122.829 59.8715 123.005 59.836 123.167 59.7658C123.329 59.6955 123.475 59.5921 123.595 59.4621C123.715 59.3321 123.806 59.1784 123.863 59.011C123.919 58.8435 123.941 58.6661 123.925 58.49C123.889 58.1174 123.718 57.7708 123.444 57.5163C123.169 57.2618 122.811 57.1172 122.437 57.11Z" fill="black"/>
<path d="M124.642 198.425C127.605 195.344 127.306 190.249 123.974 187.044C120.642 183.84 115.539 183.741 112.576 186.822C109.613 189.903 109.912 194.998 113.244 198.202C116.576 201.406 121.679 201.506 124.642 198.425Z" fill="white"/>
<path d="M148.915 205.4C149.015 206.429 148.897 207.468 148.569 208.448C148.24 209.428 147.708 210.328 147.007 211.088C146.306 211.849 145.453 212.452 144.502 212.86C143.552 213.267 142.526 213.469 141.493 213.452C139.305 213.42 137.207 212.579 135.602 211.093C133.997 209.606 132.998 207.579 132.799 205.4C132.698 204.371 132.816 203.332 133.144 202.352C133.473 201.372 134.005 200.472 134.706 199.712C135.407 198.952 136.26 198.348 137.211 197.941C138.161 197.533 139.187 197.331 140.221 197.348C142.408 197.38 144.506 198.221 146.111 199.707C147.716 201.194 148.715 203.222 148.915 205.4Z" fill="white"/>
<path d="M144.908 185.683C147.871 182.601 147.572 177.506 144.24 174.302C140.908 171.098 135.805 170.998 132.842 174.079C129.879 177.16 130.178 182.256 133.51 185.46C136.842 188.664 141.945 188.764 144.908 185.683Z" fill="white"/>
<path d="M140.935 206.294C140.769 206.294 140.606 206.25 140.461 206.168L118.207 193.4C118.067 193.322 117.948 193.21 117.862 193.075C117.775 192.94 117.722 192.786 117.709 192.626C117.694 192.475 117.721 192.323 117.786 192.187C117.852 192.05 117.954 191.934 118.081 191.852L138.349 179.096C138.559 178.978 138.805 178.945 139.038 179.003C139.271 179.061 139.473 179.206 139.603 179.408C139.674 179.502 139.724 179.609 139.752 179.723C139.779 179.837 139.784 179.956 139.764 180.071C139.744 180.187 139.701 180.297 139.638 180.396C139.574 180.494 139.491 180.579 139.393 180.644L120.355 192.644L141.265 204.644C141.478 204.759 141.639 204.951 141.715 205.181C141.791 205.411 141.776 205.661 141.673 205.88C141.599 206.01 141.492 206.116 141.362 206.189C141.232 206.262 141.084 206.299 140.935 206.294Z" fill="white"/>
<path opacity="0.1" d="M170.264 163.592H89.0001L82.3281 78.1941H163.592L170.264 163.592Z" fill="black"/>
<path d="M179.107 158.486H93.7032L87.0312 73.0881H172.435L179.107 158.486Z" fill="white"/>
<path d="M174.626 154.334H97.5377L91.5137 77.2461H168.602L174.626 154.334Z" fill="#0078FF"/>
<path opacity="0.8" d="M123.999 105.164C127.927 101.08 127.531 94.3258 123.114 90.0788C118.698 85.8319 111.934 85.7 108.006 89.7844C104.079 93.8687 104.475 100.623 108.891 104.869C113.307 109.116 120.072 109.248 123.999 105.164Z" fill="white"/>
<path opacity="0.2" d="M174.625 154.334L142.951 124.958L130.087 138.914L120.199 129.746L97.5371 154.334L115.915 154.286L115.729 154.49L174.625 154.334Z" fill="black"/>
<path d="M217.101 96.386C217.371 96.986 217.569 97.508 217.767 98.066C217.965 98.624 218.157 99.152 218.337 99.698C218.703 100.784 219.015 101.882 219.315 102.98C219.903 105.176 220.391 107.388 220.779 109.616L220.923 110.456L220.959 110.66L221.001 110.924C221.036 111.155 221.056 111.387 221.061 111.62C221.076 112.44 220.933 113.254 220.641 114.02C220.162 115.268 219.47 116.423 218.595 117.434C217.052 119.242 215.243 120.806 213.231 122.072L211.623 120.092C213.02 118.553 214.277 116.892 215.379 115.13C215.848 114.387 216.204 113.578 216.435 112.73C216.503 112.453 216.517 112.166 216.477 111.884L216.153 110.63C215.613 108.53 215.037 106.43 214.401 104.396C214.089 103.37 213.753 102.35 213.423 101.336C213.255 100.832 213.081 100.328 212.901 99.836L212.379 98.42L217.101 96.386Z" fill="#FFB573"/>
<path d="M213.801 121.31L215.349 124.64L213.201 125.882C213.201 125.882 209.031 119.792 212.175 119.594L213.801 121.31Z" fill="#FFB573"/>
<path d="M205.227 234.908C205.674 234.897 206.119 234.836 206.553 234.728C206.575 234.721 206.595 234.709 206.611 234.692C206.626 234.675 206.637 234.655 206.643 234.632C206.646 234.609 206.643 234.585 206.634 234.564C206.624 234.543 206.609 234.525 206.589 234.512C206.415 234.398 204.891 233.414 204.309 233.678C204.242 233.707 204.185 233.754 204.142 233.813C204.1 233.872 204.075 233.942 204.069 234.014C204.045 234.127 204.051 234.245 204.086 234.355C204.121 234.465 204.183 234.565 204.267 234.644C204.545 234.844 204.885 234.938 205.227 234.908ZM206.217 234.56C205.341 234.734 204.681 234.704 204.417 234.47C204.362 234.415 204.321 234.348 204.299 234.273C204.277 234.199 204.274 234.12 204.291 234.044C204.293 234.012 204.304 233.982 204.321 233.955C204.339 233.929 204.364 233.908 204.393 233.894C204.711 233.756 205.593 234.2 206.217 234.56Z" fill="#0078FF"/>
<path d="M206.524 234.728H206.584C206.601 234.717 206.616 234.702 206.626 234.684C206.637 234.667 206.643 234.647 206.644 234.626C206.644 234.56 206.644 233.114 206.092 232.634C206.025 232.57 205.946 232.522 205.858 232.494C205.771 232.466 205.678 232.459 205.588 232.472C205.493 232.473 205.401 232.506 205.328 232.566C205.255 232.626 205.205 232.709 205.186 232.802C205.072 233.402 205.984 234.452 206.464 234.728C206.483 234.734 206.504 234.734 206.524 234.728ZM205.672 232.694C205.769 232.696 205.862 232.732 205.936 232.796C206.25 233.263 206.412 233.817 206.398 234.38C205.924 233.996 205.354 233.18 205.42 232.838C205.42 232.784 205.462 232.712 205.618 232.694H205.672Z" fill="#0078FF"/>
<path d="M206.086 78.842C205.486 81.842 204.286 87.842 206.356 89.852C206.356 89.852 205.54 92.852 199.996 92.852C193.906 92.852 197.086 89.852 197.086 89.852C200.41 89.06 200.326 86.594 199.744 84.272L206.086 78.842Z" fill="#FFB573"/>
<path d="M196.737 90.8301C195.915 90.9501 196.677 89.0721 197.019 88.8741C197.805 88.4061 207.819 87.4641 207.705 88.5201C207.64 89.1463 207.366 89.732 206.925 90.1821C206.475 90.5001 203.943 89.6721 196.737 90.8301Z" fill="#0078FF"/>
<path d="M194.001 72.4459C193.964 72.4464 193.927 72.4379 193.894 72.4212C193.86 72.4045 193.831 72.3801 193.809 72.3499C193.64 72.1037 193.416 71.9006 193.155 71.7568C192.893 71.613 192.602 71.5325 192.303 71.5219C192.269 71.5274 192.234 71.5254 192.2 71.516C192.167 71.5066 192.136 71.49 192.11 71.4675C192.083 71.445 192.062 71.417 192.047 71.3855C192.033 71.3539 192.025 71.3196 192.025 71.2849C192.025 71.2502 192.033 71.2159 192.047 71.1844C192.062 71.1529 192.083 71.1249 192.11 71.1023C192.136 71.0798 192.167 71.0633 192.2 71.0539C192.234 71.0445 192.269 71.0425 192.303 71.0479C192.681 71.0524 193.051 71.1473 193.384 71.3248C193.718 71.5023 194.003 71.7571 194.217 72.0679C194.236 72.0935 194.249 72.1225 194.257 72.1532C194.264 72.184 194.265 72.2159 194.26 72.2471C194.255 72.2784 194.244 72.3083 194.227 72.3352C194.211 72.3621 194.189 72.3854 194.163 72.4039C194.116 72.4374 194.059 72.4524 194.001 72.4459Z" fill="#263238"/>
<path d="M192.645 75.3081C192.321 76.248 191.869 77.1385 191.301 77.9541C191.514 78.0925 191.755 78.1829 192.007 78.2192C192.258 78.2554 192.515 78.2366 192.759 78.1641L192.645 75.3081Z" fill="#FF5652"/>
<path d="M192.981 74.6001C192.981 75.0081 192.795 75.3441 192.531 75.3501C192.267 75.3561 192.039 75.0441 192.021 74.6361C192.003 74.2281 192.207 73.8981 192.471 73.8861C192.735 73.8741 192.963 74.1981 192.981 74.6001Z" fill="#263238"/>
<path d="M192.591 73.9041L191.607 73.6641C191.607 73.6641 192.135 74.4021 192.591 73.9041Z" fill="#263238"/>
<path d="M212.368 234.614H207.346L207.736 222.974H212.764L212.368 234.614Z" fill="#FFB573"/>
<path opacity="0.2" d="M212.763 222.974H207.735L207.537 228.974H212.565L212.763 222.974Z" fill="black"/>
<path d="M206.943 234.032H212.601C212.699 234.028 212.795 234.061 212.869 234.125C212.944 234.188 212.992 234.277 213.003 234.374L213.645 238.838C213.659 238.951 213.649 239.066 213.614 239.174C213.58 239.283 213.523 239.383 213.447 239.468C213.37 239.552 213.277 239.62 213.173 239.665C213.068 239.711 212.955 239.734 212.841 239.732C210.873 239.702 209.925 239.582 207.441 239.582C205.917 239.582 203.685 239.744 201.573 239.744C199.461 239.744 199.353 237.656 200.229 237.47C204.165 236.618 204.789 235.454 206.115 234.338C206.348 234.144 206.641 234.036 206.943 234.032Z" fill="#263238"/>
<path d="M190.587 98C189.591 100.508 188.517 102.896 187.311 105.284C186.121 107.709 184.774 110.054 183.279 112.304C182.877 112.904 182.475 113.444 182.025 114.008C181.785 114.296 181.587 114.554 181.317 114.86C180.998 115.214 180.647 115.538 180.267 115.826C179.526 116.375 178.69 116.781 177.801 117.026C177 117.248 176.172 117.357 175.341 117.35C173.851 117.333 172.372 117.08 170.961 116.6C170.292 116.384 169.637 116.128 168.999 115.832C168.352 115.545 167.722 115.219 167.115 114.854L168.201 112.52C170.493 113.12 173.061 113.552 175.107 113.258C175.97 113.179 176.787 112.83 177.441 112.262C177.568 112.141 177.682 112.009 177.783 111.866L178.275 111.182C178.605 110.708 178.923 110.192 179.241 109.676C179.871 108.632 180.471 107.54 181.041 106.424C181.611 105.308 182.187 104.18 182.727 103.028C183.795 100.736 184.851 98.378 185.829 96.074L190.587 98Z" fill="#FFB573"/>
<path d="M188.601 91.1419C186.105 91.7419 183.027 98.6059 183.027 98.6059L188.973 106.226C188.973 106.226 195.117 97.5319 194.295 94.8799C193.431 92.1139 191.601 90.4039 188.601 91.1419Z" fill="#263238"/>
<path d="M169.33 112.88L165.592 111.68L164.77 115.592C164.77 115.592 168.43 116.306 169.876 114.71L169.33 112.88Z" fill="#FFB573"/>
<path d="M162.123 112.16V114.956L164.769 115.622L165.585 111.71L162.123 112.16Z" fill="#FFB573"/>
<path d="M206.542 72.674C206.434 77.66 206.494 79.772 204.082 82.424C200.452 86.414 194.35 85.19 192.97 80.27C191.728 75.842 192.118 68.432 196.906 66.26C197.96 65.7766 199.12 65.5708 200.276 65.6619C201.433 65.7531 202.546 66.1383 203.512 66.7809C204.477 67.4235 205.262 68.3023 205.793 69.3337C206.323 70.3651 206.581 71.5149 206.542 72.674Z" fill="#FFB573"/>
<path d="M213.4 83.87C211.846 81.83 212.128 79.598 212.428 77.234C212.764 74.57 213.136 71.57 210.85 68.456C210.828 68.4254 210.808 68.3933 210.79 68.36C205.084 60.284 194.164 64.118 193.33 68.36C192.73 71.408 193.498 70.448 194.968 73.598C196.438 76.748 194.938 83.522 194.368 85.916C196.816 87.572 210.322 87.854 212.434 84.548C211.162 82.55 211.408 80.552 211.834 78.452C211.636 80.444 211.672 82.34 213.034 84.14C213.055 84.1678 213.082 84.1903 213.114 84.2059C213.145 84.2215 213.179 84.2298 213.214 84.23C213.264 84.2287 213.312 84.212 213.352 84.182C213.399 84.1462 213.43 84.0938 213.439 84.0357C213.448 83.9775 213.434 83.9182 213.4 83.87Z" fill="#263238"/>
<path d="M197.001 74.9839C196.919 75.9239 196.516 76.8072 195.861 77.4859C194.973 78.4039 194.061 77.8759 193.899 76.7899C193.761 75.8119 194.055 74.1559 195.135 73.6339C196.215 73.1119 197.055 73.8739 197.001 74.9839Z" fill="#FFB573"/>
<path d="M196.4 121.472C196.4 121.472 199.316 155.966 202.34 175.406C204.782 191.108 206.714 227.816 206.714 227.816H213.566C213.566 227.816 216.83 192.368 215.588 176.816C212.45 137.522 217.958 130.562 211.418 121.454L196.4 121.472Z" fill="#0078FF"/>
<path opacity="0.2" d="M204.057 140.09C203.769 150.41 201.825 156.8 200.289 160.244C199.485 153.512 198.747 146.486 198.129 140.288C200.235 133.268 204.279 132.32 204.057 140.09Z" fill="black"/>
<path d="M216.561 214.562C216.56 214.54 216.553 214.519 216.542 214.5C216.53 214.482 216.513 214.466 216.494 214.456C216.475 214.446 216.453 214.441 216.431 214.441C216.409 214.442 216.387 214.449 216.369 214.46C216.165 214.61 214.371 215.966 214.407 216.668C214.408 216.733 214.427 216.797 214.46 216.853C214.494 216.909 214.542 216.955 214.599 216.986C214.687 217.044 214.787 217.079 214.891 217.089C214.996 217.1 215.101 217.085 215.199 217.046C215.877 216.776 216.327 215.39 216.537 214.586C216.542 214.584 216.548 214.581 216.552 214.577C216.556 214.573 216.559 214.568 216.561 214.562ZM214.641 216.632C214.641 216.236 215.535 215.432 216.231 214.868C215.913 215.948 215.505 216.668 215.127 216.83C215.061 216.856 214.99 216.865 214.92 216.857C214.85 216.849 214.783 216.823 214.725 216.782C214.7 216.771 214.68 216.753 214.665 216.731C214.65 216.709 214.642 216.683 214.641 216.656V216.632Z" fill="#0078FF"/>
<path d="M216.562 214.562C216.559 214.541 216.55 214.521 216.536 214.505C216.523 214.489 216.504 214.478 216.484 214.472C216.43 214.472 215.164 213.962 214.414 214.298C214.305 214.346 214.207 214.415 214.126 214.502C214.044 214.588 213.981 214.69 213.94 214.802C213.826 215.114 213.94 215.276 214.048 215.354C214.522 215.684 216.016 215.09 216.52 214.67C216.537 214.658 216.55 214.642 216.558 214.622C216.565 214.603 216.567 214.582 216.562 214.562ZM214.132 215C214.148 214.89 214.192 214.786 214.259 214.698C214.326 214.61 214.414 214.541 214.516 214.496C215.07 214.354 215.655 214.387 216.19 214.592C215.59 214.982 214.468 215.336 214.186 215.132C214.165 215.118 214.148 215.098 214.138 215.074C214.129 215.051 214.127 215.025 214.132 215Z" fill="#0078FF"/>
<path d="M219.837 210.086L216.981 214.226L213.009 211.658L207.813 208.292L207.207 207.902L210.057 203.762L210.741 204.2L215.775 207.458L219.837 210.086Z" fill="#FFB573"/>
<path opacity="0.2" d="M215.775 207.458L213.008 211.658L207.812 208.292L210.741 204.2L215.775 207.458Z" fill="black"/>
<path d="M191 121.472C191 121.472 183.482 155.756 183.482 173.402C183.482 189.344 210.482 211.298 210.482 211.298L214.28 205.562C214.28 205.562 195.812 180.314 196.88 175.202C199.994 160.37 205.184 128.402 205.124 121.472H191Z" fill="#0078FF"/>
<path d="M216.064 214.004L218.53 208.928C218.57 208.839 218.643 208.769 218.732 208.73C218.822 208.691 218.923 208.687 219.016 208.718L223.312 210.092C223.419 210.13 223.517 210.191 223.599 210.269C223.681 210.348 223.746 210.443 223.789 210.548C223.832 210.653 223.852 210.767 223.848 210.88C223.845 210.994 223.817 211.106 223.768 211.208C222.874 212.96 222.358 213.764 221.272 216.008C220.606 217.382 219.364 220.298 218.446 222.194C217.528 224.09 215.596 223.28 215.812 222.41C216.772 218.492 216.412 216.59 215.974 214.91C215.894 214.607 215.926 214.285 216.064 214.004Z" fill="#263238"/>
<path d="M210.776 212.624L215.852 205.526L213.362 203.228L207.92 210.824L210.776 212.624Z" fill="#263238"/>
<path d="M205.755 227.948H214.485L214.947 224.888L205.707 224.576L205.755 227.948Z" fill="#263238"/>
<path d="M219.338 98.9659L214.292 102.986L211.262 105.386C211.262 105.386 210.944 104.54 210.56 103.328C209.828 100.988 208.874 97.28 209.534 95.576C210.572 92.876 212.534 90.4399 215.018 90.9799C217.106 91.4539 219.338 98.9659 219.338 98.9659Z" fill="#263238"/>
<path opacity="0.2" d="M214.293 102.986L211.263 105.386C211.263 105.386 210.945 104.54 210.561 103.328L212.361 94.418L214.293 102.986Z" fill="black"/>
<path d="M188.6 91.142C188.6 91.142 186.2 91.982 191 121.472H211.4C211.058 113.168 211.046 108.044 215 90.992C212.143 90.4025 209.248 90.0215 206.336 89.852C203.25 89.6297 200.152 89.6297 197.066 89.852C193.1 90.2 188.6 91.142 188.6 91.142Z" fill="#263238"/>
<path d="M211.707 120.278L212.625 122.078C212.697 122.222 212.529 122.366 212.295 122.366H190.887C190.707 122.366 190.551 122.276 190.539 122.156L190.359 120.356C190.359 120.23 190.503 120.122 190.707 120.122H211.401C211.461 120.12 211.521 120.134 211.574 120.161C211.628 120.188 211.673 120.229 211.707 120.278Z" fill="#0078FF"/>
<path opacity="0.2" d="M211.707 120.278L212.625 122.078C212.697 122.222 212.529 122.366 212.295 122.366H190.887C190.707 122.366 190.551 122.276 190.539 122.156L190.359 120.356C190.359 120.23 190.503 120.122 190.707 120.122H211.401C211.461 120.12 211.521 120.134 211.574 120.161C211.628 120.188 211.673 120.229 211.707 120.278Z" fill="black"/>
<path d="M208.929 122.6H209.487C209.595 122.6 209.679 122.54 209.673 122.474L209.409 120.074C209.409 120.002 209.307 119.948 209.199 119.948H208.641C208.533 119.948 208.449 120.002 208.455 120.074L208.719 122.474C208.725 122.528 208.821 122.6 208.929 122.6Z" fill="#0078FF"/>
<path d="M195.514 122.6H196.066C196.18 122.6 196.264 122.54 196.252 122.474L195.994 120.074C195.994 120.002 195.892 119.948 195.778 119.948H195.202C195.094 119.948 195.01 120.002 195.016 120.074L195.274 122.474C195.31 122.528 195.406 122.6 195.514 122.6Z" fill="#0078FF"/>
</g>
<defs>
<clipPath id="clip0">
<rect width="280" height="280" fill="white"/>
</clipPath>
</defs>
</svg>
