<svg width="100%"  viewBox="0 0 432 432" fill="none" xmlns="http://www.w3.org/2000/svg">
<g clip-path="url(#clip0)">
<path d="M416 348H-34V349H416V348Z" fill="#EBEBEB"/>
<path d="M415.901 364.49H382.781V364.74H415.901V364.49Z" fill="#EBEBEB"/>
<path d="M297.221 367.21H288.531V367.46H297.221V367.21Z" fill="#EBEBEB"/>
<path d="M381.78 355.21H362.59V355.46H381.78V355.21Z" fill="#EBEBEB"/>
<path d="M61.6509 356.89H18.4609V357.14H61.6509V356.89Z" fill="#EBEBEB"/>
<path d="M76.8886 356.89H70.5586V357.14H76.8886V356.89Z" fill="#EBEBEB"/>
<path d="M191.149 361.11H97.4688V361.36H191.149V361.11Z" fill="#EBEBEB"/>
<path d="M203.001 303.8H9.91094C8.39829 303.797 6.94849 303.195 5.87982 302.124C4.81115 301.053 4.21094 299.603 4.21094 298.09V26.66C4.22411 25.156 4.83013 23.718 5.89738 22.6582C6.96463 21.5985 8.40691 21.0026 9.91094 21H203.001C204.515 21 205.968 21.6016 207.039 22.6724C208.109 23.7433 208.711 25.1956 208.711 26.71V298.09C208.711 299.604 208.109 301.057 207.039 302.128C205.968 303.198 204.515 303.8 203.001 303.8ZM9.91094 21.2C8.46459 21.2026 7.07839 21.7791 6.0566 22.8027C5.03481 23.8264 4.46094 25.2136 4.46094 26.66V298.09C4.46094 299.536 5.03481 300.924 6.0566 301.947C7.07839 302.971 8.46459 303.547 9.91094 303.55H203.001C204.448 303.547 205.835 302.971 206.859 301.948C207.882 300.924 208.458 299.537 208.461 298.09V26.66C208.458 25.2127 207.882 23.8255 206.859 22.8021C205.835 21.7787 204.448 21.2026 203.001 21.2H9.91094Z" fill="#EBEBEB"/>
<path d="M181.37 41.34L182.21 43.05C182.259 43.1501 182.333 43.2363 182.423 43.3009C182.514 43.3655 182.62 43.4065 182.73 43.42L184.62 43.7C184.745 43.7193 184.862 43.7731 184.959 43.8553C185.055 43.9375 185.126 44.0449 185.164 44.1654C185.203 44.286 185.207 44.4148 185.176 44.5375C185.145 44.6602 185.081 44.7719 184.99 44.86L183.63 46.2C183.55 46.2758 183.49 46.3703 183.455 46.4749C183.42 46.5796 183.412 46.6913 183.43 46.8L183.75 48.68C183.774 48.8071 183.762 48.9385 183.714 49.0586C183.666 49.1788 183.584 49.2828 183.479 49.3583C183.374 49.4339 183.25 49.478 183.121 49.4854C182.992 49.4928 182.863 49.4632 182.75 49.4L181.06 48.51C180.963 48.4608 180.855 48.4351 180.745 48.4351C180.636 48.4351 180.528 48.4608 180.43 48.51L178.73 49.4C178.617 49.4632 178.489 49.4928 178.36 49.4854C178.23 49.478 178.106 49.4339 178.001 49.3583C177.896 49.2828 177.815 49.1788 177.767 49.0586C177.719 48.9385 177.706 48.8071 177.73 48.68L178.06 46.8C178.076 46.6913 178.067 46.5804 178.032 46.4762C177.997 46.3719 177.938 46.2773 177.86 46.2L176.49 44.86C176.399 44.7713 176.335 44.6588 176.305 44.5353C176.274 44.4119 176.279 44.2825 176.319 44.1617C176.359 44.0409 176.431 43.9336 176.529 43.852C176.626 43.7704 176.744 43.7178 176.87 43.7L178.76 43.42C178.87 43.4048 178.975 43.3632 179.066 43.2988C179.156 43.2343 179.23 43.149 179.28 43.05L180.12 41.34C180.176 41.2212 180.264 41.1206 180.375 41.0502C180.486 40.9798 180.614 40.9424 180.745 40.9424C180.876 40.9424 181.005 40.9798 181.116 41.0502C181.226 41.1206 181.315 41.2212 181.37 41.34Z" fill="#F5F5F5"/>
<path d="M56.8619 182.19L57.7119 183.91C57.7608 184.008 57.8327 184.093 57.9215 184.158C58.0103 184.222 58.1134 184.264 58.2219 184.28L60.1119 184.56C60.2378 184.578 60.3561 184.63 60.4536 184.712C60.551 184.794 60.6237 184.901 60.6632 185.022C60.7028 185.142 60.7077 185.272 60.6774 185.395C60.6472 185.519 60.5829 185.631 60.4919 185.72L59.1219 187.05C59.0434 187.129 58.9852 187.226 58.9521 187.332C58.919 187.438 58.9121 187.551 58.9319 187.66L59.2519 189.54C59.276 189.667 59.2633 189.799 59.2153 189.919C59.1674 190.039 59.0861 190.143 58.9811 190.218C58.8761 190.294 58.7518 190.338 58.6226 190.345C58.4934 190.353 58.3649 190.323 58.2519 190.26L56.5619 189.37C56.4625 189.321 56.353 189.295 56.2419 189.295C56.1309 189.295 56.0214 189.321 55.9219 189.37L54.2319 190.26C54.119 190.323 53.9904 190.353 53.8613 190.345C53.7321 190.338 53.6077 190.294 53.5027 190.218C53.3978 190.143 53.3165 190.039 53.2685 189.919C53.2206 189.799 53.2079 189.667 53.2319 189.54L53.5519 187.66C53.5718 187.551 53.5649 187.438 53.5318 187.332C53.4987 187.226 53.4404 187.129 53.3619 187.05L52.0019 185.72C51.911 185.631 51.8467 185.519 51.8164 185.395C51.7862 185.272 51.7911 185.142 51.8307 185.022C51.8702 184.901 51.9429 184.794 52.0403 184.712C52.1377 184.63 52.2561 184.578 52.3819 184.56L54.2719 184.28C54.3805 184.264 54.4836 184.222 54.5724 184.158C54.6612 184.093 54.7331 184.008 54.7819 183.91L55.6319 182.19C55.6869 182.073 55.774 181.975 55.8829 181.906C55.9917 181.837 56.118 181.8 56.2469 181.8C56.3759 181.8 56.5021 181.837 56.611 181.906C56.7199 181.975 56.8069 182.073 56.8619 182.19Z" fill="#F0F0F0"/>
<path d="M41.1619 87.6899L42.0019 89.3999C42.0502 89.4996 42.1217 89.5861 42.2105 89.6522C42.2993 89.7184 42.4026 89.7622 42.5119 89.7799L44.4019 90.0499C44.5277 90.0698 44.6456 90.124 44.7424 90.2067C44.8393 90.2894 44.9114 90.3973 44.9507 90.5184C44.9901 90.6395 44.9951 90.7692 44.9653 90.893C44.9355 91.0168 44.872 91.13 44.7819 91.2199L43.4119 92.5499C43.3344 92.6277 43.2761 92.7223 43.2414 92.8264C43.2067 92.9306 43.1966 93.0413 43.2119 93.1499L43.5419 95.0399C43.5659 95.1671 43.5532 95.2984 43.5053 95.4186C43.4573 95.5387 43.3761 95.6427 43.2711 95.7183C43.1661 95.7939 43.0417 95.8379 42.9125 95.8453C42.7834 95.8527 42.6548 95.8231 42.5419 95.7599L40.8519 94.8699C40.754 94.8157 40.6438 94.7872 40.5319 94.7872C40.4199 94.7872 40.3098 94.8157 40.2119 94.8699L38.5219 95.7599C38.409 95.8231 38.2804 95.8527 38.1512 95.8453C38.022 95.8379 37.8977 95.7939 37.7927 95.7183C37.6877 95.6427 37.6064 95.5387 37.5585 95.4186C37.5105 95.2984 37.4978 95.1671 37.5219 95.0399L37.8419 93.1499C37.8624 93.0412 37.8548 92.929 37.8198 92.824C37.7848 92.719 37.7235 92.6247 37.6419 92.5499L36.2819 91.2199C36.1881 91.1323 36.1211 91.0198 36.0886 90.8957C36.0561 90.7715 36.0594 90.6407 36.0981 90.5183C36.1368 90.3959 36.2093 90.287 36.3073 90.2041C36.4053 90.1212 36.5248 90.0678 36.6519 90.0499L38.5419 89.7799C38.6524 89.7621 38.7571 89.7183 38.8474 89.6523C38.9378 89.5863 39.0113 89.4998 39.0619 89.3999L39.9019 87.6899C39.9562 87.5683 40.0446 87.465 40.1564 87.3925C40.2682 87.32 40.3986 87.2814 40.5319 87.2814C40.6651 87.2814 40.7955 87.32 40.9073 87.3925C41.0191 87.465 41.1075 87.5683 41.1619 87.6899Z" fill="#F0F0F0"/>
<path d="M116.928 130.67L117.428 131.67C117.459 131.728 117.503 131.779 117.557 131.817C117.611 131.855 117.673 131.88 117.738 131.89L118.868 132.05C118.943 132.062 119.014 132.095 119.071 132.145C119.129 132.194 119.172 132.259 119.195 132.332C119.218 132.405 119.22 132.482 119.201 132.556C119.182 132.63 119.143 132.697 119.088 132.75L118.278 133.55C118.23 133.595 118.194 133.652 118.173 133.715C118.152 133.778 118.147 133.845 118.158 133.91L118.348 135.03C118.364 135.105 118.358 135.184 118.33 135.256C118.303 135.328 118.255 135.391 118.192 135.436C118.13 135.482 118.056 135.508 117.979 135.512C117.902 135.516 117.825 135.498 117.758 135.46L116.758 134.93C116.699 134.9 116.634 134.885 116.568 134.885C116.502 134.885 116.437 134.9 116.378 134.93L115.378 135.46C115.311 135.498 115.235 135.516 115.157 135.512C115.08 135.508 115.006 135.482 114.944 135.436C114.881 135.391 114.834 135.328 114.806 135.256C114.778 135.184 114.772 135.105 114.788 135.03L114.978 133.91C114.989 133.845 114.984 133.778 114.964 133.715C114.943 133.652 114.906 133.595 114.858 133.55L114.038 132.75C113.983 132.696 113.944 132.628 113.926 132.554C113.908 132.479 113.911 132.401 113.935 132.328C113.959 132.255 114.003 132.19 114.061 132.141C114.12 132.092 114.192 132.06 114.268 132.05L115.398 131.89C115.463 131.88 115.526 131.855 115.579 131.817C115.633 131.779 115.677 131.728 115.708 131.67L116.208 130.67C116.245 130.608 116.298 130.556 116.361 130.521C116.424 130.485 116.496 130.466 116.568 130.466C116.641 130.466 116.712 130.485 116.775 130.521C116.838 130.556 116.891 130.608 116.928 130.67Z" fill="#F0F0F0"/>
<path d="M86.2788 261.7L86.7788 262.7C86.809 262.76 86.8527 262.812 86.9066 262.852C86.9604 262.892 87.0228 262.918 87.0888 262.93L88.2188 263.09C88.2949 263.1 88.3665 263.132 88.4255 263.181C88.4845 263.23 88.5284 263.295 88.5524 263.368C88.5764 263.441 88.5794 263.519 88.5611 263.594C88.5427 263.669 88.5039 263.736 88.4488 263.79L87.6288 264.58C87.5805 264.627 87.5443 264.686 87.5234 264.75C87.5025 264.815 87.4975 264.883 87.5088 264.95L87.7088 266.07C87.722 266.146 87.7134 266.224 87.6842 266.295C87.655 266.367 87.6063 266.428 87.5437 266.473C87.481 266.518 87.407 266.544 87.3301 266.549C87.2532 266.554 87.1765 266.537 87.1088 266.5L86.1088 265.97C86.0499 265.94 85.9848 265.925 85.9188 265.925C85.8528 265.925 85.7877 265.94 85.7288 265.97L84.7288 266.5C84.6614 266.534 84.586 266.549 84.5107 266.543C84.4354 266.537 84.3633 266.51 84.3023 266.465C84.2413 266.421 84.1937 266.361 84.1649 266.291C84.136 266.221 84.127 266.145 84.1388 266.07L84.3288 264.95C84.3414 264.884 84.338 264.816 84.3188 264.752C84.2997 264.687 84.2654 264.628 84.2188 264.58L83.3988 263.79C83.344 263.737 83.305 263.67 83.2861 263.596C83.2673 263.522 83.2695 263.445 83.2923 263.372C83.3151 263.299 83.3578 263.234 83.4155 263.185C83.4732 263.135 83.5436 263.102 83.6188 263.09L84.7488 262.93C84.8154 262.92 84.8785 262.894 84.9326 262.854C84.9867 262.814 85.03 262.761 85.0588 262.7L85.5688 261.7C85.6048 261.638 85.6566 261.586 85.7189 261.55C85.7812 261.514 85.8519 261.495 85.9238 261.495C85.9958 261.495 86.0664 261.514 86.1288 261.55C86.1911 261.586 86.2428 261.638 86.2788 261.7Z" fill="#F5F5F5"/>
<path d="M400.4 42.9L400.9 43.9C400.929 43.96 400.973 44.0118 401.027 44.0503C401.081 44.0888 401.144 44.1128 401.21 44.12L402.34 44.29C402.416 44.3005 402.488 44.3321 402.547 44.3813C402.606 44.4305 402.65 44.4952 402.674 44.5682C402.698 44.6411 402.701 44.7193 402.683 44.7939C402.664 44.8685 402.625 44.9364 402.57 44.99L401.75 45.78C401.703 45.8259 401.667 45.8826 401.646 45.9453C401.625 46.0079 401.62 46.0747 401.63 46.14L401.83 47.27C401.844 47.3459 401.835 47.424 401.806 47.4953C401.777 47.5666 401.728 47.6282 401.665 47.6731C401.603 47.718 401.529 47.7443 401.452 47.7491C401.375 47.7538 401.298 47.7368 401.23 47.7L400.23 47.17C400.172 47.1401 400.106 47.1245 400.04 47.1245C399.974 47.1245 399.909 47.1401 399.85 47.17L398.85 47.7C398.783 47.7341 398.708 47.7489 398.632 47.7428C398.557 47.7367 398.485 47.7099 398.424 47.6655C398.363 47.621 398.315 47.5605 398.286 47.4907C398.258 47.4209 398.249 47.3446 398.26 47.27L398.45 46.14C398.462 46.0755 398.458 46.0092 398.439 45.9466C398.42 45.884 398.386 45.8268 398.34 45.78L397.5 45C397.446 44.9471 397.407 44.8799 397.388 44.8061C397.369 44.7323 397.371 44.6546 397.394 44.5819C397.417 44.5092 397.459 44.4443 397.517 44.3945C397.575 44.3447 397.645 44.312 397.72 44.3L398.85 44.13C398.917 44.1238 398.98 44.1001 399.035 44.0615C399.089 44.0229 399.133 43.9706 399.16 43.91L399.67 42.91C399.701 42.8391 399.751 42.7786 399.816 42.7358C399.88 42.693 399.955 42.6696 400.032 42.6686C400.109 42.6675 400.185 42.6888 400.25 42.7298C400.316 42.7709 400.368 42.83 400.4 42.9Z" fill="#F5F5F5"/>
<path d="M391.712 231.63L392.582 233.4C392.631 233.503 392.706 233.591 392.798 233.658C392.891 233.724 392.999 233.766 393.112 233.78L395.112 234.07C395.242 234.088 395.365 234.142 395.467 234.226C395.568 234.311 395.643 234.422 395.684 234.547C395.725 234.673 395.729 234.807 395.697 234.935C395.665 235.063 395.597 235.179 395.502 235.27L394.002 236.65C393.921 236.732 393.861 236.832 393.826 236.941C393.792 237.051 393.783 237.167 393.802 237.28L394.142 239.28C394.159 239.406 394.142 239.534 394.092 239.651C394.043 239.768 393.963 239.87 393.86 239.946C393.758 240.021 393.638 240.068 393.511 240.081C393.385 240.094 393.257 240.073 393.142 240.02L391.392 239.1C391.29 239.046 391.177 239.017 391.062 239.017C390.947 239.017 390.833 239.046 390.732 239.1L389.002 240C388.886 240.057 388.758 240.081 388.63 240.069C388.502 240.058 388.38 240.011 388.276 239.935C388.173 239.858 388.093 239.755 388.044 239.636C387.996 239.517 387.981 239.387 388.002 239.26L388.332 237.26C388.353 237.147 388.346 237.03 388.311 236.92C388.276 236.81 388.214 236.71 388.132 236.63L386.712 235.25C386.62 235.157 386.556 235.04 386.526 234.912C386.497 234.785 386.503 234.652 386.544 234.528C386.586 234.403 386.661 234.293 386.761 234.209C386.861 234.125 386.982 234.07 387.112 234.05L389.062 233.76C389.175 233.746 389.283 233.704 389.375 233.638C389.468 233.571 389.542 233.483 389.592 233.38L390.472 231.61C390.535 231.501 390.627 231.41 390.737 231.348C390.847 231.286 390.971 231.254 391.098 231.256C391.224 231.258 391.348 231.294 391.456 231.359C391.563 231.425 391.652 231.519 391.712 231.63Z" fill="#F0F0F0"/>
<path d="M284.59 65.89C284.59 66.153 284.512 66.4102 284.366 66.6289C284.219 66.8476 284.012 67.0181 283.769 67.1188C283.526 67.2194 283.258 67.2458 283 67.1944C282.742 67.1431 282.505 67.0165 282.319 66.8305C282.133 66.6444 282.007 66.4075 281.955 66.1495C281.904 65.8915 281.93 65.6241 282.031 65.381C282.132 65.138 282.302 64.9303 282.521 64.7841C282.739 64.638 282.997 64.56 283.26 64.56C283.612 64.56 283.951 64.7001 284.2 64.9495C284.45 65.199 284.59 65.5373 284.59 65.89Z" fill="#F0F0F0"/>
<path d="M322.762 323.67C322.762 323.933 322.684 324.19 322.537 324.409C322.391 324.628 322.184 324.798 321.941 324.899C321.698 324.999 321.43 325.026 321.172 324.974C320.914 324.923 320.677 324.796 320.491 324.61C320.305 324.424 320.178 324.187 320.127 323.929C320.076 323.671 320.102 323.404 320.203 323.161C320.303 322.918 320.474 322.71 320.693 322.564C320.911 322.418 321.169 322.34 321.432 322.34C321.607 322.339 321.78 322.372 321.942 322.439C322.104 322.505 322.251 322.603 322.375 322.727C322.499 322.85 322.597 322.997 322.663 323.159C322.729 323.321 322.763 323.495 322.762 323.67Z" fill="#F5F5F5"/>
<path d="M98.7511 49.31C98.7511 50.4354 98.4174 51.5355 97.7922 52.4712C97.1669 53.4069 96.2783 54.1362 95.2386 54.5669C94.1989 54.9975 93.0548 55.1102 91.951 54.8907C90.8473 54.6711 89.8334 54.1292 89.0377 53.3334C88.2419 52.5377 87.7 51.5238 87.4804 50.4201C87.2609 49.3163 87.3736 48.1722 87.8042 47.1325C88.2349 46.0928 88.9642 45.2042 89.8999 44.5789C90.8356 43.9537 91.9357 43.62 93.0611 43.62C94.5702 43.62 96.0174 44.2195 97.0845 45.2866C98.1516 46.3536 98.7511 47.8009 98.7511 49.31Z" fill="#F0F0F0"/>
<path d="M152.591 86.91C156.025 87.5133 159.505 87.8111 162.991 87.7999C161.627 89.3949 159.872 90.6091 157.899 91.3242C155.925 92.0393 153.8 92.231 151.731 91.8805C149.661 91.5301 147.718 90.6494 146.09 89.3244C144.462 87.9994 143.205 86.2752 142.441 84.3199C145.743 85.4771 149.139 86.3437 152.591 86.91Z" fill="#F5F5F5"/>
<path d="M154.359 76.41C150.401 75.7011 146.378 75.4195 142.359 75.57C143.361 72.9387 145.245 70.7365 147.689 69.3393C150.133 67.9421 152.987 67.4363 155.763 67.9084C158.538 68.3804 161.064 69.801 162.909 71.9277C164.754 74.0544 165.804 76.7555 165.879 79.57C162.163 78.1085 158.301 77.0491 154.359 76.41Z" fill="#F5F5F5"/>
<path d="M172.632 83.0647C173.018 80.7775 164.887 77.4965 154.469 75.7364C144.052 73.9763 135.293 74.4035 134.907 76.6907C134.52 78.9779 142.652 82.2589 153.07 84.019C163.487 85.7792 172.246 85.3519 172.632 83.0647Z" fill="#F5F5F5"/>
<path d="M399.641 168.8C394.986 178.12 388.541 186.432 380.673 193.26C372.805 200.089 363.668 205.3 353.786 208.597C343.903 211.894 333.468 213.211 323.076 212.474C312.684 211.736 302.539 208.959 293.221 204.3C291.601 203.5 290.031 202.65 288.531 201.75C302.523 196.561 315.144 188.246 325.434 177.437C335.723 166.629 343.408 153.614 347.903 139.385C352.398 125.155 353.584 110.087 351.371 95.3295C349.157 80.5719 343.603 66.5147 335.131 54.23C348.064 55.2919 360.539 59.5083 371.464 66.5101C382.388 73.5118 391.43 83.0853 397.796 94.3922C404.163 105.699 407.66 118.394 407.982 131.366C408.303 144.338 405.44 157.192 399.641 168.8Z" fill="#F5F5F5"/>
<path d="M363.361 75.35C365.495 76.9262 367.255 78.9547 368.513 81.2903C369.772 83.6259 370.498 86.2108 370.641 88.86C367.872 85.0331 364.526 81.6596 360.721 78.86C356.933 76.0475 352.738 73.8287 348.281 72.28C350.865 71.6452 353.558 71.5913 356.166 72.1222C358.773 72.653 361.231 73.7554 363.361 75.35Z" fill="#F0F0F0"/>
<path d="M343.329 195.59C341.113 197.052 338.601 198.005 335.973 198.382C333.345 198.759 330.666 198.55 328.129 197.77C332.662 196.484 336.967 194.5 340.889 191.89C344.837 189.304 348.368 186.131 351.359 182.48C351.071 185.123 350.202 187.669 348.814 189.935C347.426 192.202 345.552 194.133 343.329 195.59Z" fill="#F0F0F0"/>
<path d="M370.66 120.09C371.796 122.489 372.386 125.11 372.386 127.765C372.386 130.42 371.796 133.041 370.66 135.44C370.039 130.769 368.689 126.223 366.66 121.97C364.663 117.698 362.026 113.756 358.84 110.28C361.412 110.942 363.805 112.165 365.849 113.861C367.892 115.557 369.535 117.684 370.66 120.09Z" fill="#F0F0F0"/>
<path d="M383.548 174.54C381.885 176.609 379.784 178.285 377.396 179.447C375.008 180.609 372.393 181.228 369.738 181.26C373.663 178.653 377.155 175.448 380.088 171.76C383.058 168.094 385.452 163.997 387.188 159.61C387.721 162.213 387.671 164.902 387.042 167.483C386.412 170.064 385.219 172.474 383.548 174.54Z" fill="#F0F0F0"/>
<path d="M215.999 393.56C323.082 393.56 409.889 388.492 409.889 382.24C409.889 375.988 323.082 370.92 215.999 370.92C108.917 370.92 22.1094 375.988 22.1094 382.24C22.1094 388.492 108.917 393.56 215.999 393.56Z" fill="#F5F5F5"/>
<path d="M220.352 98.83L219.652 98.28C222.802 94.28 226.112 90.52 229.492 87L230.122 87.62C226.762 91.11 223.472 94.89 220.352 98.83Z" fill="#0078FF"/>
<path d="M216.616 102.115L213.391 106.181L214.08 106.728L217.305 102.662L216.616 102.115Z" fill="#0078FF"/>
<path d="M286 145.22C307.73 110.29 310.69 75.87 294.87 64.73C279.05 53.59 247.64 67.97 222.07 100.2L149 192.37L223.92 245.13L286 145.22Z" fill="#0078FF"/>
<path opacity="0.1" d="M277.45 139.2L213.85 238.07L206.07 223.2L269.24 133C287.1 107.49 297.11 84.1801 297.15 71.2001C297.148 70.9491 297.235 70.7056 297.396 70.5128C297.557 70.3201 297.781 70.1906 298.028 70.1474C298.275 70.1042 298.53 70.1501 298.746 70.2769C298.963 70.4038 299.127 70.6033 299.21 70.8401C303.71 83.7901 295.91 110.51 277.45 139.2Z" fill="white"/>
<path d="M223.876 245.107C233.99 230.742 225.416 207.287 204.725 192.718C184.034 178.149 159.061 177.983 148.946 192.348C138.832 206.712 147.406 230.168 168.097 244.737C188.789 259.305 213.761 259.471 223.876 245.107Z" fill="#0078FF"/>
<path opacity="0.5" d="M223.876 245.107C233.99 230.742 225.416 207.287 204.725 192.718C184.034 178.149 159.061 177.983 148.946 192.348C138.832 206.712 147.406 230.168 168.097 244.737C188.789 259.305 213.761 259.471 223.876 245.107Z" fill="white"/>
<path opacity="0.1" d="M216.101 176.44C199.661 164.86 181.011 161.55 169.101 166.96L150.551 190.34C161.551 178.06 185.061 178.9 204.721 192.74C224.381 206.58 233.111 228.47 225.231 242.94L240.801 217.94C242.141 204.81 232.721 188.14 216.101 176.44Z" fill="black"/>
<path opacity="0.2" d="M242.43 101.06C237.87 108.28 234.43 121.79 247.98 131.32C261.53 140.85 273.09 133.08 278.34 126.32L242.43 101.06Z" fill="black"/>
<path d="M281.54 118C279.99 130.9 265.08 140.31 249.43 129.29C233.78 118.27 237.61 101.06 249.23 95.29C256.39 91.71 265.51 93.29 271.75 97.63C277.99 101.97 282.5 110 281.54 118Z" fill="white"/>
<path d="M251.561 126.24C245.471 121.96 242.351 116.36 242.791 110.5C242.991 107.971 243.842 105.537 245.261 103.434C246.681 101.331 248.62 99.6312 250.891 98.5C256.331 95.78 264.031 96.63 269.621 100.56C275.211 104.49 278.621 111.47 277.871 117.51C277.573 120.022 276.632 122.415 275.137 124.456C273.643 126.497 271.646 128.118 269.341 129.16C264.001 131.58 257.651 130.53 251.561 126.24Z" fill="#0078FF"/>
<path opacity="0.3" d="M251.561 126.24C245.471 121.96 242.351 116.36 242.791 110.5C242.991 107.971 243.842 105.537 245.261 103.434C246.681 101.331 248.62 99.6312 250.891 98.5C256.331 95.78 264.031 96.63 269.621 100.56C275.211 104.49 278.621 111.47 277.871 117.51C277.573 120.022 276.632 122.415 275.137 124.456C273.643 126.497 271.646 128.118 269.341 129.16C264.001 131.58 257.651 130.53 251.561 126.24Z" fill="black"/>
<path d="M251.561 126.24C245.471 121.96 242.241 116.52 242.481 110.94C242.585 108.568 243.342 106.27 244.669 104.301C245.996 102.332 247.841 100.767 250.001 99.78C255.231 97.36 262.781 98.42 268.371 102.36C273.961 106.3 277.501 113.05 276.981 118.79C276.779 121.16 275.925 123.427 274.513 125.34C273.101 127.254 271.186 128.739 268.981 129.63C263.851 131.74 257.651 130.53 251.561 126.24Z" fill="#0078FF"/>
<path opacity="0.2" d="M251.561 126.24C245.471 121.96 242.241 116.52 242.481 110.94C242.585 108.568 243.342 106.27 244.669 104.301C245.996 102.332 247.841 100.767 250.001 99.78C255.231 97.36 262.781 98.42 268.371 102.36C273.961 106.3 277.501 113.05 276.981 118.79C276.779 121.16 275.925 123.427 274.513 125.34C273.101 127.254 271.186 128.739 268.981 129.63C263.851 131.74 257.651 130.53 251.561 126.24Z" fill="white"/>
<path opacity="0.3" d="M272.611 106.31L244.461 118.73C243.065 116.377 242.371 113.674 242.461 110.94C242.514 109.652 242.767 108.38 243.211 107.17L261.381 99.17C265.791 100.288 269.722 102.799 272.591 106.33L272.611 106.31Z" fill="white"/>
<path opacity="0.3" d="M276.652 114.32L250.822 125.7C249.268 124.561 247.852 123.245 246.602 121.78L274.702 109.38C275.58 110.927 276.236 112.59 276.652 114.32Z" fill="white"/>
<path opacity="0.1" d="M304.812 92.05C303.952 85.15 298.652 77.17 290.272 71.27C281.892 65.37 272.602 63.07 265.812 64.58C277.363 59.87 287.712 59.69 294.872 64.73C302.032 69.77 305.353 79.59 304.812 92.05Z" fill="black"/>
<path opacity="0.5" d="M204.709 216.979C207.86 212.503 205.308 205.28 199.008 200.844C192.709 196.409 185.048 196.441 181.897 200.916C178.746 205.391 181.298 212.615 187.598 217.05C193.897 221.486 201.558 221.454 204.709 216.979Z" fill="#0078FF"/>
<path opacity="0.5" d="M175 212.78C171.85 217.25 164.19 217.29 157.89 212.85C151.59 208.41 149.03 201.19 152.18 196.72C155.33 192.25 163 192.21 169.3 196.65C175.6 201.09 178.11 208.31 175 212.78Z" fill="#0078FF"/>
<path opacity="0.5" d="M218.711 243.59C215.561 248.07 207.901 248.1 201.601 243.66C195.301 239.22 192.751 232 195.901 227.53C199.051 223.06 206.711 223.02 213.011 227.46C219.311 231.9 221.861 239.12 218.711 243.59Z" fill="#0078FF"/>
<path opacity="0.5" d="M189 239.38C185.85 243.85 178.19 243.88 171.89 239.45C165.59 235.02 163.04 227.79 166.19 223.31C169.34 218.83 177 218.81 183.3 223.24C189.6 227.67 192.11 234.9 189 239.38Z" fill="#0078FF"/>
<path opacity="0.5" d="M204.72 217C204.387 217.472 203.997 217.902 203.56 218.28C205.31 213.82 202.67 207.63 197.04 203.67C191.41 199.71 184.7 199.31 181.09 202.45C181.302 201.918 181.574 201.411 181.9 200.94C185.05 196.47 192.72 196.43 199.02 200.87C205.32 205.31 207.86 212.52 204.72 217Z" fill="#0078FF"/>
<path opacity="0.5" d="M174.999 212.78C174.667 213.25 174.281 213.68 173.849 214.06C175.599 209.59 172.969 203.41 167.329 199.44C161.689 195.47 154.989 195.08 151.379 198.23C151.589 197.697 151.861 197.19 152.189 196.72C155.339 192.24 162.999 192.21 169.299 196.65C175.599 201.09 178.109 208.3 174.999 212.78Z" fill="#0078FF"/>
<path opacity="0.5" d="M218.71 243.6C218.378 244.067 217.992 244.493 217.56 244.87C219.31 240.4 216.67 234.22 211.04 230.26C205.41 226.3 198.7 225.89 195.09 229.05C195.298 228.513 195.57 228.002 195.9 227.53C199.05 223.05 206.71 223.02 213.01 227.46C219.31 231.9 221.87 239.12 218.71 243.6Z" fill="#0078FF"/>
<path opacity="0.5" d="M188.999 239.38C188.672 239.851 188.286 240.278 187.849 240.65C189.599 236.19 186.959 230 181.329 226.04C175.699 222.08 168.989 221.68 165.379 224.83C165.585 224.292 165.857 223.781 166.189 223.31C169.339 218.83 176.999 218.81 183.299 223.24C189.599 227.67 192.109 234.9 188.999 239.38Z" fill="#0078FF"/>
<path d="M198.579 134.23C198.579 134.23 185.079 151.75 173.319 166.83C171.649 168.932 169.461 170.564 166.97 171.565C164.479 172.566 161.77 172.902 159.109 172.54C148.839 171.27 132.109 178.54 132.109 178.54C132.109 178.54 163.759 126.55 198.579 134.23Z" fill="#0078FF"/>
<path opacity="0.3" d="M198.579 134.23C198.579 134.23 185.079 151.75 173.319 166.83C171.649 168.932 169.461 170.564 166.97 171.565C164.479 172.566 161.77 172.902 159.109 172.54C148.839 171.27 132.109 178.54 132.109 178.54C132.109 178.54 163.759 126.55 198.579 134.23Z" fill="black"/>
<path d="M261.889 178.82C261.889 178.82 249.999 197.43 239.709 213.58C238.294 215.861 237.496 218.471 237.394 221.153C237.292 223.836 237.89 226.499 239.129 228.88C243.789 238.13 242.569 256.37 242.569 256.37C242.569 256.37 280.859 209 261.889 178.82Z" fill="#0078FF"/>
<path opacity="0.3" d="M261.889 178.82C261.889 178.82 249.999 197.43 239.709 213.58C238.294 215.861 237.496 218.471 237.394 221.153C237.292 223.836 237.89 226.499 239.129 228.88C243.789 238.13 242.569 256.37 242.569 256.37C242.569 256.37 280.859 209 261.889 178.82Z" fill="black"/>
<path d="M305.512 312.61C318.002 282.05 264.002 273.39 242.632 281.06C221.262 288.73 199.472 294.43 198.632 273.98C197.792 253.53 214.252 240.85 206.402 236.13C202.052 233.51 200.812 238.13 198.662 244.87C192.082 265.52 154.812 270.44 171.962 300.33C189.112 330.22 179.962 323.73 151.112 335.72C122.262 347.71 137.112 382.24 165.022 382.24H333.102C410.142 382.24 337.202 234.78 305.512 312.61Z" fill="#0078FF"/>
<path opacity="0.6" d="M305.512 312.61C318.002 282.05 264.002 273.39 242.632 281.06C221.262 288.73 199.472 294.43 198.632 273.98C197.792 253.53 214.252 240.85 206.402 236.13C202.052 233.51 200.812 238.13 198.662 244.87C192.082 265.52 154.812 270.44 171.962 300.33C189.112 330.22 179.962 323.73 151.112 335.72C122.262 347.71 137.112 382.24 165.022 382.24H333.102C410.142 382.24 337.202 234.78 305.512 312.61Z" fill="white"/>
<path d="M163.551 206.09C161.311 198.31 149.191 208.09 137.251 219.94C125.311 231.79 119.421 258.84 107.871 272.94C96.3207 287.04 63.2507 299.78 76.1807 321C95.2507 352.27 51.4207 382.27 103.331 382.27H209.801C229.271 382.27 250.381 358.46 220.061 342.27C189.741 326.08 144.321 363.83 132.061 327.82C125.981 309.95 148.061 318.15 137.831 288.89C127.601 259.63 128.281 251.66 133.491 238.62C146.171 206.84 167.001 217.91 163.551 206.09Z" fill="#0078FF"/>
<path opacity="0.6" d="M163.551 206.09C161.311 198.31 149.191 208.09 137.251 219.94C125.311 231.79 119.421 258.84 107.871 272.94C96.3207 287.04 63.2507 299.78 76.1807 321C95.2507 352.27 51.4207 382.27 103.331 382.27H209.801C229.271 382.27 250.381 358.46 220.061 342.27C189.741 326.08 144.321 363.83 132.061 327.82C125.981 309.95 148.061 318.15 137.831 288.89C127.601 259.63 128.281 251.66 133.491 238.62C146.171 206.84 167.001 217.91 163.551 206.09Z" fill="white"/>
<path d="M185.619 209.68C188.259 204.86 197.319 207.75 197.119 214.06C196.919 220.37 173.459 228.64 177.819 250.43C182.179 272.22 224.059 273.78 233.889 295.61C243.719 317.44 205.639 320.5 216.999 334.15C228.359 347.8 263.419 316.45 288.399 324.51C313.379 332.57 338.339 382.24 292.519 382.24H151.329C120.629 382.24 98.2095 318.85 127.709 292.77C157.209 266.69 133.409 275.16 144.419 258.45C155.429 241.74 175.489 228.16 185.619 209.68Z" fill="#0078FF"/>
<path opacity="0.8" d="M185.619 209.68C188.259 204.86 197.319 207.75 197.119 214.06C196.919 220.37 173.459 228.64 177.819 250.43C182.179 272.22 224.059 273.78 233.889 295.61C243.719 317.44 205.639 320.5 216.999 334.15C228.359 347.8 263.419 316.45 288.399 324.51C313.379 332.57 338.339 382.24 292.519 382.24H151.329C120.629 382.24 98.2095 318.85 127.709 292.77C157.209 266.69 133.409 275.16 144.419 258.45C155.429 241.74 175.489 228.16 185.619 209.68Z" fill="white"/>
</g>
<defs>
<clipPath id="clip0">
<rect width="432" height="432" fill="white"/>
</clipPath>
</defs>
</svg>
