<svg width="100%" height="100%" viewBox="0 0 254 548" fill="none" xmlns="http://www.w3.org/2000/svg">
<rect width="254" height="548" fill="white"/>
<mask id="mask0" mask-type="alpha" maskUnits="userSpaceOnUse" x="0" y="0" width="254" height="548">
<path d="M55.6574 0H27.3227C12.2328 0 0 12.0883 0 27V521C0 535.912 12.2328 548 27.3227 548H226.677C241.767 548 254 535.912 254 521V27C254 12.0883 241.767 0 226.677 0H196.5V3C196.5 12.9411 190.187 21 180.127 21H73.8725C63.8126 21 55.6574 12.9411 55.6574 3V0Z" fill="white"/>
</mask>
<g mask="url(#mask0)">
<path d="M-9.99911 232.272V-178L294.057 -2.86389V407.408L-9.99911 232.272Z" fill="url(#paint0_linear)"/>
<path d="M223.37 342.35H221.818L219.274 339.182L216.762 342.35H215.178L218.522 338.206L215.37 334.302H216.938L219.274 337.262L221.61 334.302H223.194L220.058 338.206L223.37 342.35Z" fill="#0078FF"/>
<path d="M36.322 334.302L32.562 343.086C32.1673 344.003 31.6713 344.675 31.074 345.102C30.4766 345.529 29.7406 345.822 28.866 345.982L28.594 344.974C29.3513 344.803 29.922 344.574 30.306 344.286C30.7006 344.009 31.026 343.577 31.282 342.99L31.602 342.27L28.194 334.302H29.554L32.274 340.942L35.026 334.302H36.322Z" fill="#FF6F48"/>
<g style="mix-blend-mode:multiply">
<path d="M143.002 276.35V204.35L205.502 240.35V312.35L143.002 276.35Z" fill="#E1E4F0"/>
</g>
<path d="M128.602 179.326V180.35H121.802V179.454L126.874 173.326H121.978V172.302H128.426V173.246L123.402 179.326H128.602Z" fill="black"/>
<path d="M125.502 287.35L188.002 251.35L125.002 215.85L63.002 251.35L125.502 287.35Z" fill="#F4F5FA"/>
<path d="M188.002 323.35V251.35L125.502 287.35V359.35L188.002 323.35Z" fill="#DADBDF"/>
<path d="M63.002 323.35V251.35L125.502 287.35V359.35L63.002 323.35Z" fill="#E8E9EE"/>
<line x1="125.502" y1="287.35" x2="125.502" y2="196.35" stroke="black" stroke-dasharray="3 3"/>
<path opacity="0.8" d="M125.502 287.35L188.002 251.35L125.002 215.85L63.002 251.35L125.502 287.35Z" fill="#3594FF"/>
<path d="M125.502 287.35L46.502 332.85" stroke="#FF6F48" stroke-dasharray="3 3"/>
<path d="M125.502 287.35L205.502 333.35" stroke="#0078FF" stroke-dasharray="3 3"/>
<path opacity="0.8" d="M188.002 323.35V251.35L125.502 287.35V359.35L188.002 323.35Z" fill="#005ABF"/>
<path d="M125.502 191.35L128.533 196.6H122.471L125.502 191.35Z" fill="black"/>
<path opacity="0.8" d="M63.002 323.35V251.35L125.502 287.35V359.35L63.002 323.35Z" fill="#FF6F48"/>
<path d="M41.752 335.881L44.783 330.631L47.8141 335.881L41.752 335.881Z" fill="#FF6F48"/>
<path d="M209.814 335.881L206.783 330.631L203.752 335.881L209.814 335.881Z" fill="#0078FF"/>
</g>
<defs>
<linearGradient id="paint0_linear" x1="108.001" y1="-170" x2="88.001" y2="316" gradientUnits="userSpaceOnUse">
<stop offset="0.374994" stop-color="#FBFBFB" stop-opacity="0"/>
<stop offset="1" stop-color="#ECECEC"/>
</linearGradient>
</defs>
</svg>
