<svg width="100%" viewBox="0 0 256 256" fill="none"
    xmlns="http://www.w3.org/2000/svg">
    <rect width="256" height="256" rx="16" fill="#F6F6F6"/>
    <g clip-path="url(#clip0)">
        <path fill-rule="evenodd" clip-rule="evenodd" d="M66 182.081L128.205 146.137L190.373 182.056L128.168 218L66 182.081Z" fill="#FFD4C9"/>
        <path fill-rule="evenodd" clip-rule="evenodd" d="M66 73.9071L128.192 38V146.149L66 182.056V73.9071Z" fill="#FFF0EC"/>
        <path fill-rule="evenodd" clip-rule="evenodd" d="M190.374 182.056L128.193 146.149V38L190.386 73.9071L190.374 182.056Z" fill="#FFE5DE"/>
        <g clip-path="url(#clip1)">
            <path d="M134.816 175.645C129.184 179.595 122.751 182.815 114.85 185.631C113.481 186.12 111.63 186.12 110.255 185.631C102.348 182.815 95.9206 179.595 90.2822 175.645C89.3044 174.96 89.3044 174.035 90.2822 173.35C95.9141 169.4 102.348 166.18 110.248 163.364C111.617 162.875 113.468 162.875 114.844 163.364C122.744 166.18 129.178 169.4 134.81 173.35C135.794 174.035 135.794 174.96 134.816 175.645Z" fill="#C0C0C0"/>
            <path d="M113.397 146.758C108.235 146.644 102.257 149.853 96.4297 155.381L94.8945 174.232L111.781 165.692C112.046 165.561 112.289 165.277 112.451 164.927C113.608 162.412 114.122 158.098 114.154 147.496C114.149 146.901 113.808 146.769 113.397 146.758Z" fill="#0078FF"/>
            <path d="M92.7383 153.757C98.5707 148.235 104.549 145.02 109.706 145.135C109.83 145.135 109.944 145.151 110.046 145.184C110.29 145.26 113.76 146.819 113.76 146.819C113.652 146.78 113.527 146.764 113.392 146.758C108.23 146.644 102.252 149.853 96.4248 155.381L92.7383 153.757Z" fill="#FFF2E5"/>
            <path d="M110.052 145.184C109.949 145.151 109.836 145.135 109.711 145.135C105.938 145.047 101.733 146.747 97.4625 149.82C96.1004 150.821 94.7328 151.958 93.3652 153.232C93.3923 153.243 93.4139 153.248 93.4409 153.259L96.0085 154.582C96.1652 154.664 96.3166 154.796 96.4463 154.954C101.738 149.869 107.944 146.212 113.117 146.529C112.106 146.075 110.225 145.244 110.052 145.184Z" fill="#63ABFC"/>
            <path d="M93.4786 153.658L96.0461 154.96C96.5596 155.217 96.9759 155.96 96.9759 156.616V174.309C96.9759 174.965 96.5596 175.288 96.0461 175.031L95.1813 174.593C94.8894 174.446 94.6191 174.134 94.4407 173.746C93.1488 170.946 92.5867 166.162 92.5488 154.391C92.5488 153.729 92.965 153.401 93.4786 153.658Z" fill="#8AC1FF"/>
            <path d="M95.5332 172.625C94.4899 169.913 94.0575 165.085 93.998 155.555L95.371 156.25C95.4413 156.321 95.5332 156.507 95.5332 156.622V172.625Z" fill="#0078FF"/>
            <path d="M125.035 137.464C118.765 134.397 116.046 133.686 114.706 134.107C114.522 134.167 110.495 136.021 110.36 136.124C109.722 136.606 128.403 164.347 128.403 164.347C130.841 157.486 133.614 149.782 134.16 146.753C134.706 143.735 136.257 142.948 125.035 137.464Z" fill="#7FBBFF"/>
            <path d="M119.631 151.16C124.058 157.896 128.404 164.353 128.404 164.353C130.842 157.491 133.615 149.788 134.161 146.759C134.382 145.523 134.771 144.659 134.388 143.697L119.631 151.16Z" fill="#0078FF"/>
            <path d="M121.019 139.405C109.797 133.921 109.77 135.742 109.187 138.76C108.603 141.778 109.77 150.755 109.349 158.645L124.36 166.239C126.797 159.378 129.457 152.073 129.997 149.05C130.549 146.021 132.241 144.889 121.019 139.405Z" fill="#7FBBFF"/>
            <path d="M130.252 145.774C129.69 144.304 127.528 142.587 121.02 139.405C113.095 135.534 110.755 135.304 109.857 136.567C110.366 137.89 112.739 138.858 118.939 141.936C126.587 145.736 128.89 146.737 130.252 145.774Z" fill="#63ABFC"/>
            <path d="M133.819 145.107L131.273 146.398C131.521 147.054 131.256 147.628 131.116 148.41C130.867 149.804 129.883 152.68 128.775 155.813C129.602 157.048 130.132 157.836 130.132 157.836C131.635 153.609 133.343 148.858 133.678 146.994C133.813 146.234 134.056 145.703 133.819 145.107Z" fill="#7FBBFF"/>
            <path d="M112.398 143.91C116.366 148.011 116.647 148.235 123.631 148.956C119.166 147.447 116.404 146.403 112.398 143.91Z" fill="#0078FF"/>
            <path d="M132.096 156.168C126.934 156.053 120.956 159.263 115.129 164.79L113.594 183.642L130.48 175.102C130.745 174.971 130.988 174.686 131.151 174.336C132.307 171.821 132.821 167.508 132.853 156.906C132.848 156.31 132.507 156.179 132.096 156.168Z" fill="#0078FF"/>
            <path d="M131.405 170.854L113.913 179.7L113.594 183.637L130.48 175.096C130.745 174.965 130.988 174.681 131.151 174.331C131.626 173.303 131.988 171.975 132.259 170.039C132.01 170.405 131.718 170.695 131.405 170.854Z" fill="#0065D6"/>
            <path d="M114.712 164.402L112.145 163.101C111.631 162.844 111.215 163.166 111.215 163.823V181.515C111.215 182.171 111.631 182.915 112.145 183.172L113.009 183.609C113.301 183.757 113.572 183.719 113.75 183.511C115.036 182.018 115.604 177.803 115.636 166.064C115.642 165.408 115.226 164.659 114.712 164.402Z" fill="#8AC1FF"/>
            <path d="M128.75 154.593C128.647 154.561 128.533 154.544 128.409 154.544C123.263 154.429 117.301 157.622 111.49 163.117C111.658 162.986 111.89 162.97 112.144 163.101L114.712 164.402C114.869 164.484 115.02 164.615 115.15 164.768C120.971 159.257 126.944 156.053 132.096 156.168C132.225 156.174 132.355 156.184 132.463 156.228C132.463 156.228 128.993 154.67 128.75 154.593Z" fill="#FFF2E5"/>
            <path d="M128.749 154.593C128.646 154.561 128.533 154.544 128.408 154.544C124.635 154.457 120.43 156.157 116.16 159.23C114.798 160.23 113.43 161.368 112.062 162.642C112.09 162.652 112.111 162.658 112.138 162.669L114.711 163.997C114.868 164.079 115.019 164.211 115.149 164.369C120.435 159.274 126.641 155.616 131.819 155.938C130.798 155.485 128.922 154.648 128.749 154.593Z" fill="#63ABFC"/>
            <path d="M112.82 181.881C112.75 181.81 112.658 181.624 112.658 181.51V164.992L114.037 165.687C114.107 165.758 114.199 165.955 114.199 166.059C114.177 172.68 114.015 179.602 113.004 181.974L112.82 181.881Z" fill="#0078FF"/>
            <path d="M111.214 179.634C106.214 178.147 101.971 175.998 96.9707 172.428C96.9707 173.177 96.9707 173.555 96.9707 174.309C101.971 177.874 106.214 180.023 111.214 181.515C111.214 180.761 111.214 180.389 111.214 179.634Z" fill="#0078FF"/>
            <path d="M111.214 172.171C106.36 169.908 102.106 167.814 96.9707 164.965C96.9707 165.714 96.9707 171.674 96.9707 172.428C101.971 175.993 106.214 178.142 111.214 179.634C111.214 178.885 111.214 172.926 111.214 172.171Z" fill="#7FBBFF"/>
            <path d="M110.588 171.876V179.437C110.799 179.503 111.004 179.569 111.215 179.629V172.171C111.004 172.073 110.799 171.974 110.588 171.876Z" fill="#63ABFC"/>
            <path d="M96.9702 167.605C97.073 167.78 97.2243 167.933 97.4243 168.043C101.132 170.049 105.349 172.039 108.916 173.729C109.641 174.068 110.441 174.172 111.208 174.035C111.208 173.127 111.208 172.406 111.208 172.176C106.354 169.913 102.1 167.819 96.9648 164.97C96.9702 165.26 96.9702 166.348 96.9702 167.605Z" fill="#0078FF"/>
            <path d="M111.213 166.294L96.4669 161.537C96.4615 161.619 96.4615 165.561 96.4669 165.638C96.5048 166.015 96.7102 166.376 97.094 166.584C100.802 168.59 105.018 170.58 108.586 172.27C109.413 172.658 110.343 172.734 111.213 172.505V166.294Z" fill="#7FBBFF"/>
            <path d="M110.336 166.01V172.62C110.633 172.609 110.925 172.57 111.212 172.494V166.294L110.336 166.01Z" fill="#63ABFC"/>
            <path d="M111.213 163.822C111.213 163.527 111.299 163.303 111.44 163.166H111.434C113.467 161.242 115.515 159.596 117.542 158.278L109.331 154.145L97.1152 160.351C96.2504 160.788 96.2342 162.035 97.0882 162.499C100.796 164.506 105.013 166.496 108.58 168.185C109.407 168.574 110.337 168.65 111.207 168.421V163.822H111.213Z" fill="#D2E7FF"/>
        </g>
        <path d="M98.7182 124.763C98.7085 124.828 98.7085 124.894 98.7182 124.959C98.7428 125.024 98.7757 125.086 98.816 125.142C98.8621 125.206 98.9154 125.263 98.975 125.314L99.1094 125.411L99.2317 125.497L100.723 126.365V128.884L99.2317 128.015L99.1339 127.942L98.9994 127.844L98.8772 127.71L98.7182 127.551V127.478C98.715 127.441 98.715 127.404 98.7182 127.368V124.873V124.763Z" fill="#D2E7FF"/>
        <path d="M149.639 134.544C149.795 134.473 149.929 134.362 150.028 134.223C150.127 134.083 150.187 133.92 150.202 133.749V136.268C150.186 136.439 150.124 136.604 150.023 136.743C149.922 136.883 149.785 136.993 149.627 137.062L133.514 146.378V143.86L149.639 134.544Z" fill="#D2E7FF"/>
        <path d="M130.788 143.86C130.908 143.929 131.035 143.986 131.167 144.031H132.793L133.062 143.946L133.355 143.811V146.378L133.074 146.513H131.203C131.072 146.468 130.945 146.41 130.824 146.342L128.514 144.997V142.515L130.788 143.86Z" fill="#D2E7FF"/>
        <path d="M99.2692 123.969C99.1038 124.024 98.9599 124.13 98.858 124.271C98.756 124.413 98.7012 124.583 98.7012 124.757C98.7012 124.932 98.756 125.102 98.858 125.243C98.9599 125.385 99.1038 125.491 99.2692 125.546L100.761 126.414L128.464 142.515L130.775 143.86C131.197 144.076 131.664 144.188 132.138 144.188C132.612 144.188 133.079 144.076 133.501 143.86L149.639 134.544C149.805 134.489 149.949 134.383 150.051 134.241C150.153 134.1 150.207 133.93 150.207 133.755C150.207 133.581 150.153 133.411 150.051 133.269C149.949 133.128 149.805 133.022 149.639 132.967L118.121 114.628C117.699 114.413 117.232 114.3 116.758 114.3C116.284 114.3 115.817 114.413 115.395 114.628L99.2692 123.969Z" fill="#8AC1FF"/>
        <path d="M100.762 126.414L128.478 142.515L147.342 131.622L119.626 115.521L100.762 126.414Z" fill="#0078FF"/>
        <path d="M105.542 121.719C105.346 121.841 105.334 122.074 105.628 122.233C105.725 122.299 105.837 122.34 105.955 122.353C106.072 122.366 106.19 122.35 106.3 122.306L112.168 118.993C112.376 118.871 112.168 118.602 111.912 118.479C111.8 118.423 111.676 118.394 111.551 118.394C111.426 118.394 111.302 118.423 111.19 118.479L105.542 121.719Z" fill="#0078FF"/>
        <path d="M105.712 121.866C105.663 121.877 105.621 121.905 105.59 121.944C105.56 121.982 105.543 122.03 105.543 122.08C105.543 122.129 105.56 122.177 105.59 122.216C105.621 122.255 105.663 122.282 105.712 122.294C105.825 122.351 105.951 122.38 106.078 122.38C106.206 122.38 106.331 122.351 106.445 122.294L112.081 118.993C112.129 118.981 112.172 118.954 112.203 118.915C112.233 118.876 112.25 118.828 112.25 118.779C112.25 118.729 112.233 118.681 112.203 118.643C112.172 118.604 112.129 118.576 112.081 118.565C111.969 118.509 111.846 118.48 111.72 118.48C111.595 118.48 111.472 118.509 111.36 118.565L105.712 121.866Z" fill="#68AFFF"/>
        <path d="M100.762 126.414V128.932L128.478 145.034V142.515L100.762 126.414Z" fill="#0052B4"/>
        <g opacity="0.4" clip-path="url(#clip2)">
            <path d="M128.285 132.592C126.642 133.682 124.766 134.57 122.462 135.347C122.062 135.482 121.522 135.482 121.121 135.347C118.815 134.57 116.94 133.682 115.296 132.592C115.011 132.403 115.011 132.148 115.296 131.959C116.939 130.87 118.815 129.981 121.119 129.204C121.519 129.07 122.059 129.07 122.46 129.204C124.764 129.981 126.64 130.87 128.283 131.959C128.57 132.148 128.57 132.403 128.285 132.592Z" fill="#0052B4"/>
            <path d="M122.037 124.624C120.532 124.592 118.788 125.477 117.088 127.002L116.641 132.203L121.566 129.847C121.643 129.811 121.714 129.732 121.761 129.636C122.099 128.942 122.249 127.752 122.258 124.827C122.256 124.663 122.157 124.627 122.037 124.624Z" fill="#0078FF"/>
            <path d="M116.012 126.554C117.713 125.031 119.457 124.144 120.961 124.176C120.997 124.176 121.03 124.18 121.06 124.189C121.131 124.21 122.143 124.64 122.143 124.64C122.111 124.63 122.075 124.625 122.036 124.624C120.53 124.592 118.786 125.477 117.087 127.002L116.012 126.554Z" fill="#FFF2E5"/>
            <path d="M121.062 124.189C121.032 124.18 120.999 124.176 120.963 124.176C119.862 124.152 118.636 124.621 117.39 125.468C116.993 125.744 116.594 126.058 116.195 126.409C116.203 126.412 116.21 126.414 116.217 126.417L116.966 126.782C117.012 126.805 117.056 126.841 117.094 126.885C118.637 125.482 120.447 124.473 121.956 124.56C121.661 124.435 121.113 124.206 121.062 124.189Z" fill="#63ABFC"/>
            <path d="M116.228 126.527L116.977 126.886C117.127 126.957 117.248 127.162 117.248 127.343V132.224C117.248 132.405 117.127 132.494 116.977 132.423L116.725 132.302C116.64 132.262 116.561 132.176 116.509 132.068C116.132 131.296 115.968 129.976 115.957 126.729C115.957 126.547 116.078 126.456 116.228 126.527Z" fill="#8AC1FF"/>
            <path d="M116.827 131.759C116.522 131.011 116.396 129.679 116.379 127.051L116.779 127.242C116.8 127.262 116.827 127.313 116.827 127.345V131.759Z" fill="#0078FF"/>
            <path d="M125.434 122.06C123.605 121.213 122.812 121.017 122.421 121.134C122.367 121.15 121.193 121.661 121.153 121.69C120.967 121.823 126.416 129.476 126.416 129.476C127.127 127.583 127.936 125.458 128.095 124.622C128.254 123.79 128.706 123.572 125.434 122.06Z" fill="#7FBBFF"/>
            <path d="M123.855 125.838C125.147 127.696 126.414 129.477 126.414 129.477C127.125 127.584 127.934 125.459 128.093 124.624C128.158 124.283 128.271 124.045 128.16 123.779L123.855 125.838Z" fill="#0078FF"/>
            <path d="M124.262 122.595C120.989 121.082 120.981 121.584 120.81 122.417C120.64 123.25 120.981 125.726 120.858 127.903L125.236 129.998C125.947 128.105 126.723 126.09 126.88 125.256C127.041 124.42 127.535 124.108 124.262 122.595Z" fill="#7FBBFF"/>
            <path d="M126.954 124.352C126.79 123.947 126.16 123.473 124.261 122.595C121.95 121.527 121.268 121.464 121.006 121.812C121.154 122.177 121.846 122.444 123.655 123.293C125.885 124.342 126.557 124.618 126.954 124.352Z" fill="#63ABFC"/>
            <path d="M127.994 124.168L127.252 124.524C127.324 124.705 127.247 124.864 127.206 125.079C127.134 125.464 126.847 126.257 126.523 127.121C126.765 127.462 126.919 127.679 126.919 127.679C127.357 126.514 127.856 125.203 127.953 124.689C127.993 124.479 128.064 124.333 127.994 124.168Z" fill="#7FBBFF"/>
            <path d="M121.746 123.838C122.903 124.969 122.985 125.031 125.022 125.23C123.72 124.814 122.914 124.526 121.746 123.838Z" fill="#0078FF"/>
            <path d="M127.49 127.219C125.985 127.188 124.241 128.073 122.541 129.598L122.094 134.798L127.019 132.442C127.096 132.406 127.167 132.328 127.214 132.231C127.552 131.537 127.702 130.347 127.711 127.423C127.71 127.259 127.61 127.222 127.49 127.219Z" fill="#0078FF"/>
            <path d="M127.289 131.271L122.187 133.711L122.094 134.797L127.019 132.441C127.096 132.405 127.167 132.326 127.214 132.23C127.353 131.946 127.459 131.58 127.538 131.046C127.465 131.147 127.38 131.227 127.289 131.271Z" fill="#0065D6"/>
            <path d="M122.42 129.491L121.672 129.132C121.522 129.061 121.4 129.15 121.4 129.331V134.212C121.4 134.393 121.522 134.598 121.672 134.669L121.924 134.789C122.009 134.83 122.088 134.819 122.14 134.762C122.515 134.35 122.681 133.188 122.69 129.949C122.692 129.768 122.57 129.562 122.42 129.491Z" fill="#8AC1FF"/>
            <path d="M126.514 126.785C126.485 126.776 126.451 126.771 126.415 126.771C124.914 126.74 123.175 127.62 121.48 129.136C121.529 129.1 121.597 129.096 121.671 129.132L122.42 129.491C122.466 129.513 122.51 129.55 122.548 129.592C124.246 128.071 125.988 127.188 127.49 127.219C127.528 127.221 127.566 127.224 127.598 127.236C127.598 127.236 126.585 126.806 126.514 126.785Z" fill="#FFF2E5"/>
            <path d="M126.515 126.785C126.485 126.776 126.452 126.771 126.416 126.771C125.316 126.747 124.089 127.216 122.843 128.064C122.446 128.34 122.047 128.654 121.648 129.005C121.656 129.008 121.663 129.01 121.671 129.013L122.421 129.379C122.467 129.402 122.511 129.438 122.549 129.482C124.091 128.076 125.9 127.067 127.411 127.156C127.113 127.031 126.566 126.8 126.515 126.785Z" fill="#63ABFC"/>
            <path d="M121.868 134.313C121.847 134.293 121.82 134.242 121.82 134.21V129.654L122.222 129.845C122.243 129.865 122.27 129.919 122.27 129.948C122.263 131.774 122.216 133.684 121.921 134.338L121.868 134.313Z" fill="#0078FF"/>
            <path d="M121.402 133.693C119.944 133.283 118.706 132.69 117.248 131.705C117.248 131.912 117.248 132.016 117.248 132.224C118.706 133.207 119.944 133.8 121.402 134.212C121.402 134.004 121.402 133.901 121.402 133.693Z" fill="#0078FF"/>
            <path d="M121.402 131.634C119.987 131.01 118.746 130.432 117.248 129.646C117.248 129.853 117.248 131.497 117.248 131.705C118.706 132.688 119.944 133.281 121.402 133.693C121.402 133.486 121.402 131.842 121.402 131.634Z" fill="#7FBBFF"/>
            <path d="M121.219 131.553V133.639C121.28 133.657 121.34 133.675 121.402 133.691V131.634C121.34 131.607 121.28 131.58 121.219 131.553Z" fill="#63ABFC"/>
            <path d="M117.248 130.376C117.278 130.424 117.322 130.467 117.38 130.497C118.462 131.05 119.691 131.599 120.732 132.065C120.943 132.159 121.176 132.188 121.4 132.15C121.4 131.9 121.4 131.7 121.4 131.637C119.985 131.013 118.744 130.435 117.246 129.649C117.248 129.729 117.248 130.029 117.248 130.376Z" fill="#0078FF"/>
            <path d="M121.402 130.013L117.101 128.7C117.099 128.723 117.099 129.811 117.101 129.832C117.112 129.936 117.172 130.035 117.284 130.093C118.365 130.646 119.595 131.195 120.635 131.661C120.877 131.768 121.148 131.789 121.402 131.726V130.013Z" fill="#7FBBFF"/>
            <path d="M121.146 129.934V131.758C121.233 131.755 121.318 131.744 121.402 131.723V130.013L121.146 129.934Z" fill="#63ABFC"/>
            <path d="M121.401 129.331C121.401 129.25 121.427 129.188 121.468 129.15H121.466C122.059 128.619 122.656 128.165 123.248 127.802L120.853 126.661L117.29 128.373C117.037 128.494 117.033 128.838 117.282 128.966C118.363 129.52 119.593 130.069 120.634 130.535C120.875 130.642 121.146 130.663 121.4 130.599V129.331H121.401Z" fill="#D2E7FF"/>
        </g>
        <path d="M135.874 122.905C135.102 122.015 134.251 121.197 133.331 120.46C132.756 120.203 130.372 119.054 128.441 120.02C127.402 120.533 128.636 121.12 130.287 121.585C130.708 121.615 131.113 121.754 131.465 121.987C131.816 122.221 132.101 122.541 132.292 122.917C132.858 123.808 133.579 124.59 134.419 125.228C134.994 125.644 135.874 122.905 135.874 122.905Z" fill="#FFE3CE"/>
        <path d="M134.295 125.179C133.572 124.471 132.748 123.873 131.85 123.406C130.762 123.052 131.019 121.854 130.273 121.646C128.989 121.291 127.938 120.815 128.036 120.423C128.989 120.766 129.931 119.739 132.021 121.352C133.104 122.337 134.054 123.459 134.845 124.69C134.576 125.106 134.515 125.338 134.295 125.179Z" fill="#FFE3CE"/>
        <path d="M134.931 124.556C134.931 124.556 131.789 123.663 130.873 123.26C129.956 122.856 129.491 122.184 129.723 122.098C129.956 122.013 132.719 123.076 132.816 122.025C132.878 121.438 134.516 124.336 134.931 124.556Z" fill="#FFE3CE"/>
        <path d="M158.051 122.587C158.051 122.587 160.007 125.644 155.606 127.343C151.205 129.043 142.561 131.219 140.409 130.094C138.086 128.528 135.902 126.765 133.881 124.825C133.881 124.825 136.106 124.091 135.703 122.147L142.965 125.9C142.965 125.9 156.743 120.423 158.051 122.587Z" fill="#E2613E"/>
        <path d="M158.05 122.587C156.73 120.423 142.952 125.9 142.952 125.9L135.69 122.147C135.768 122.446 135.774 122.759 135.709 123.061C135.643 123.362 135.506 123.644 135.311 123.883C137.014 125.502 138.864 126.959 140.837 128.236C142.988 129.385 151.595 127.184 156.009 125.485C156.984 125.18 157.839 124.577 158.454 123.761C158.397 123.347 158.26 122.948 158.05 122.587Z" fill="#FF6F48"/>
        <g style="mix-blend-mode:multiply">
            <path d="M158.001 182.065C164.677 183.569 165.862 188.349 160.642 192.726C155.422 197.103 145.788 199.426 139.064 197.922C132.339 196.419 131.202 191.65 136.423 187.274C141.643 182.897 151.289 180.562 158.001 182.065Z" fill="#E2E2E2"/>
        </g>
        <path d="M151.486 182.567C151.486 182.567 149.774 182.824 150.19 183.789C150.606 184.755 152.635 186.235 152.843 186.907C153.051 187.579 154.714 189.768 155.288 189.56C155.863 189.352 157.159 189.658 157 187.115C156.841 184.572 153.736 182.457 151.486 182.567Z" fill="#141323"/>
        <path d="M148.222 191.907C148.222 191.907 149.053 194.352 146.999 194.927C144.945 195.502 145.544 194.206 141.021 195.343C136.497 196.48 135.984 194.12 136.131 193.631C136.277 193.142 139.248 192.176 140.238 191.92L143.099 191.198H148.454L148.222 191.907Z" fill="#141323"/>
        <path d="M156.756 149.031V165.451C156.756 167.113 158.614 180.207 157.502 185.917C157.502 185.917 154.286 189.144 151.389 185.917C151.389 185.917 150.484 169.534 149.653 165.83C148.821 162.125 149.188 150.78 149.188 150.78L156.756 149.031Z" fill="#141323"/>
        <path d="M151.12 151.122C151.12 151.122 150.386 160.646 149.628 170.097C149.628 170.097 149.151 188.851 148.711 191.541C148.711 191.541 142.659 193.044 142.06 190.196C142.06 190.196 142.219 173.691 142.06 170.243C141.901 166.796 141.547 157.174 142.916 151.623C144.285 146.073 151.12 151.122 151.12 151.122Z" fill="#141323"/>
        <path d="M148.71 191.54C149.151 188.839 149.627 170.096 149.627 170.096C150.141 163.739 150.63 157.345 150.85 153.848L147.121 154.765C145.282 160.464 144.507 166.452 144.835 172.432C145.153 180.635 145.287 188.704 145.324 191.993C146.466 191.97 147.602 191.818 148.71 191.54Z" fill="#312F4B"/>
        <path d="M157.526 185.917C158.639 180.195 156.78 167.113 156.78 165.451V149.142L153.54 151.587C153.54 151.587 152.513 162.138 153.54 168.14C154.482 173.605 153.871 184.242 154.335 187.298C155.526 187.22 156.654 186.732 157.526 185.917Z" fill="#312F4B"/>
        <path d="M157.66 122.233C157.66 122.233 160.777 123.785 159.005 129.091C157.232 134.397 155.997 137.821 156.107 139.777C156.322 143.123 156.73 146.454 157.33 149.753C157.33 149.753 157.843 154.118 147.879 156.722C147.879 156.722 139.663 157.553 141.02 152.149C142.207 146.832 142.781 141.397 142.732 135.95C142.524 133.872 141.277 129.715 146.473 126.915C151.669 124.116 154.334 122.025 157.66 122.233Z" fill="#FF6F48"/>
        <path d="M142.733 135.95C142.799 141.399 142.241 146.839 141.07 152.161C140.141 155.902 143.796 156.66 146.119 156.758C146.865 154.313 145.606 150.046 147.342 144.777C149.481 138.273 149.176 133.969 148.039 130.509C147.856 129.813 147.466 129.188 146.92 128.718C146.374 128.249 145.698 127.957 144.982 127.881C141.51 130.607 142.513 134.104 142.733 135.95Z" fill="#CF5736"/>
        <path d="M153.967 119.616C153.787 121.145 154.002 122.693 154.59 124.115C155.458 125.692 148.93 127.123 148.771 125.668C149.116 124.804 149.264 123.874 149.205 122.946C149.146 122.017 148.881 121.114 148.428 120.301C147.621 118.822 153.967 119.616 153.967 119.616Z" fill="#FFE3CE"/>
        <path d="M154.555 124.213C154.006 122.956 153.784 121.581 153.907 120.215L149.139 122.575C149.31 122.575 152.525 123.431 153.222 125.741C154.2 125.338 154.873 124.788 154.555 124.213Z" fill="#FFE3CE"/>
        <path d="M147.097 112.257C146.516 113.747 146.241 115.34 146.29 116.939C146.498 119.274 146.156 119.739 146.29 120.778C146.287 121.332 146.472 121.871 146.816 122.306C147.537 123.003 149.016 123.26 151.034 122.526C153.479 121.634 156.022 118.296 154.983 115.289C153.943 112.281 150.753 109.811 147.097 112.257Z" fill="#FFE3CE"/>
        <path d="M154.885 118.54C153.928 116.414 152.8 114.37 151.51 112.428C150.999 111.969 150.427 111.583 149.811 111.278C148.834 111.36 147.897 111.702 147.097 112.269C146.896 112.8 146.729 113.343 146.596 113.895C147.17 114.543 148.356 115.276 148.527 115.826C148.87 117.19 148.798 118.624 148.32 119.946C147.928 120.814 149.542 122.086 149.163 122.844C149.154 122.876 149.154 122.91 149.163 122.942C149.807 122.892 150.441 122.752 151.046 122.526C151.922 122.155 152.713 121.611 153.373 120.926C154.033 120.241 154.547 119.43 154.885 118.54Z" fill="#FFE3CE"/>
        <path d="M146.755 111.498C145.96 111.951 146.033 113.381 148.161 114.42C149.383 115.044 149.383 117.098 149.261 117.489C149.07 118.253 148.976 119.037 148.98 119.824C149.273 120.252 150.276 118.919 150.752 119.005C151.975 119.237 151.486 120.362 150.386 121.548C149.285 122.734 152.293 123.321 153.711 122.282C154.469 121.731 154.738 121.401 155.728 119.433C157.171 116.56 157.244 113.1 153.846 111.266C150.447 109.432 148.723 110.435 146.755 111.498Z" fill="#141323"/>
        <path d="M153.735 122.282C154.493 121.731 154.762 121.401 155.752 119.433C157.195 116.56 157.696 113.112 154.298 111.266C150.899 109.42 149.505 109.897 147.537 111.022C147.353 111.132 146.314 111.584 146.424 112.085C147.5 112.256 150.446 112.843 151.204 114.102C152.146 115.667 153.173 115.166 153.099 117.098C153.026 119.029 153.503 121.413 150.373 122.465C150.894 122.754 151.486 122.89 152.081 122.857C152.675 122.825 153.249 122.625 153.735 122.282Z" fill="#312F4B"/>
        <path d="M149.139 124.812L147.012 126.597C147.012 126.597 153.626 128.492 155.57 125.253C155.698 124.787 155.642 124.291 155.415 123.865C155.187 123.44 154.805 123.118 154.347 122.966C154.347 122.966 154.139 125.607 149.139 124.812Z" fill="white"/>
        <path d="M128.33 140.632C128.33 140.632 125.885 140.437 125.433 139.936C124.98 139.434 124.21 139.85 124.748 140.388C125.142 140.748 125.609 141.019 126.117 141.183C126.117 141.183 123.183 141.342 122.926 140.486C122.67 139.63 122.621 142.772 123.929 143.359C125.237 143.946 126.57 144.838 129.492 142.662C129.458 142.259 129.337 141.869 129.136 141.518C128.935 141.168 128.66 140.865 128.33 140.632Z" fill="#FFE3CE"/>
        <path d="M146.033 127.844C146.033 127.844 149.273 129.153 146.754 132.967C144.236 136.781 139.675 143.029 137.34 143.347C135.005 143.665 128.464 143.738 128.464 143.738C128.464 143.738 129.552 141.733 128.146 140.437L136.423 138.554C136.423 138.554 143.783 126.879 146.033 127.844Z" fill="#E2613E"/>
        <path d="M146.033 127.844C143.783 126.879 136.423 138.554 136.423 138.554L128.146 140.412C128.425 140.664 128.631 140.985 128.746 141.342C131.521 140.999 136.619 140.339 137.731 139.777C139.027 139.129 145.446 130.497 146.95 128.456C146.684 128.198 146.373 127.991 146.033 127.844Z" fill="#FF6F48"/>
    </g>
    <defs>
        <clipPath id="clip0">
            <rect width="124.385" height="180" fill="white" transform="translate(66 38)"/>
        </clipPath>
        <clipPath id="clip1">
            <rect width="48" height="58" fill="white" transform="translate(89.5488 129.998)"/>
        </clipPath>
        <clipPath id="clip2">
            <rect width="14" height="16" fill="white" transform="translate(115.082 120)"/>
        </clipPath>
    </defs>
</svg>
