<svg width="100%"  viewBox="0 0 227 227" fill="none" xmlns="http://www.w3.org/2000/svg">
<rect width="227" height="227" rx="16" fill="#F6F6F6"/>
<g clip-path="url(#clip0)">
<path fill-rule="evenodd" clip-rule="evenodd" d="M55 168.081L117.205 132.137L179.373 168.056L117.168 204L55 168.081Z" fill="#FFD4C9"/>
<path fill-rule="evenodd" clip-rule="evenodd" d="M55 59.9071L117.192 24V132.149L55 168.056V59.9071Z" fill="#FFF0EC"/>
<path fill-rule="evenodd" clip-rule="evenodd" d="M179.373 168.056L117.192 132.149V24L179.385 59.9071L179.373 168.056Z" fill="#FFE5DE"/>
<path d="M103.378 139.851L137.365 159.327L107.204 176.969L73.2168 157.493L103.378 139.851Z" fill="#C0C0C0"/>
<path d="M79.4516 110.461C79.4419 110.526 79.4419 110.591 79.4516 110.656C79.4762 110.721 79.5091 110.783 79.5494 110.84C79.5955 110.903 79.6488 110.96 79.7084 111.011L79.8428 111.109L79.9651 111.194L81.4566 112.062V114.581L79.9651 113.713L79.8673 113.639L79.7328 113.542L79.6106 113.407L79.4516 113.248V113.175C79.4484 113.138 79.4484 113.101 79.4516 113.065V110.571V110.461Z" fill="#D2E7FF"/>
<path d="M130.372 120.241C130.528 120.17 130.662 120.06 130.761 119.92C130.859 119.78 130.919 119.617 130.934 119.447V121.965C130.918 122.137 130.856 122.301 130.755 122.441C130.654 122.58 130.518 122.691 130.36 122.76L114.246 132.076V129.557L130.372 120.241Z" fill="#D2E7FF"/>
<path d="M111.52 129.557C111.641 129.626 111.768 129.684 111.899 129.728H113.525L113.794 129.643L114.088 129.508V132.076L113.806 132.21H111.936C111.804 132.165 111.678 132.108 111.557 132.039L109.246 130.694V128.212L111.52 129.557Z" fill="#D2E7FF"/>
<path d="M80.0017 109.666C79.8362 109.721 79.6924 109.827 79.5904 109.969C79.4885 110.11 79.4336 110.28 79.4336 110.455C79.4336 110.629 79.4885 110.799 79.5904 110.94C79.6924 111.082 79.8362 111.188 80.0017 111.243L81.4932 112.111L109.197 128.212L111.507 129.557C111.93 129.773 112.397 129.885 112.871 129.885C113.345 129.885 113.812 129.773 114.234 129.557L130.372 120.241C130.537 120.186 130.681 120.08 130.783 119.939C130.885 119.797 130.94 119.627 130.94 119.453C130.94 119.278 130.885 119.108 130.783 118.967C130.681 118.825 130.537 118.719 130.372 118.664L98.8538 100.325C98.4318 100.11 97.9646 99.9973 97.4906 99.9973C97.0167 99.9973 96.5495 100.11 96.1275 100.325L80.0017 109.666Z" fill="#8AC1FF"/>
<path d="M81.4932 112.111L109.209 128.213L128.073 117.319L100.358 101.218L81.4932 112.111Z" fill="#0078FF"/>
<path d="M86.2735 107.416C86.0779 107.539 86.0656 107.771 86.3591 107.93C86.4566 107.996 86.5689 108.038 86.6861 108.05C86.8034 108.063 86.9219 108.047 87.0315 108.003L92.8998 104.69C93.1077 104.568 92.8998 104.299 92.6431 104.177C92.5311 104.121 92.4076 104.092 92.2824 104.092C92.1572 104.092 92.0338 104.121 91.9218 104.177L86.2735 107.416Z" fill="#0078FF"/>
<path d="M86.4449 107.563C86.3969 107.575 86.3541 107.602 86.3236 107.641C86.293 107.68 86.2764 107.728 86.2764 107.777C86.2764 107.826 86.293 107.874 86.3236 107.913C86.3541 107.952 86.3969 107.979 86.4449 107.991C86.5588 108.048 86.6844 108.078 86.8117 108.078C86.939 108.078 87.0646 108.048 87.1785 107.991L92.8146 104.69C92.8626 104.678 92.9053 104.651 92.9359 104.612C92.9665 104.573 92.9831 104.525 92.9831 104.476C92.9831 104.427 92.9665 104.379 92.9359 104.34C92.9053 104.301 92.8626 104.274 92.8146 104.262C92.7026 104.206 92.5791 104.177 92.4539 104.177C92.3287 104.177 92.2052 104.206 92.0932 104.262L86.4449 107.563Z" fill="#68AFFF"/>
<path d="M81.4932 112.111V114.63L109.209 130.731V128.212L81.4932 112.111Z" fill="#0052B4"/>
<path d="M116.605 108.602C115.833 107.712 114.982 106.894 114.063 106.157C113.488 105.9 111.104 104.751 109.172 105.717C108.133 106.23 109.368 106.817 111.018 107.282C111.439 107.312 111.845 107.451 112.196 107.684C112.548 107.918 112.832 108.238 113.023 108.614C113.59 109.505 114.31 110.287 115.151 110.925C115.725 111.341 116.605 108.602 116.605 108.602Z" fill="#FFE3CE"/>
<path d="M115.029 110.876C114.306 110.168 113.482 109.57 112.583 109.104C111.495 108.749 111.752 107.551 111.006 107.343C109.723 106.989 108.671 106.512 108.769 106.121C109.723 106.463 110.664 105.436 112.755 107.05C113.838 108.034 114.787 109.156 115.579 110.387C115.31 110.803 115.249 111.035 115.029 110.876Z" fill="#FFE3CE"/>
<path d="M115.664 110.253C115.664 110.253 112.522 109.36 111.605 108.957C110.688 108.553 110.223 107.881 110.456 107.795C110.688 107.71 113.451 108.774 113.549 107.722C113.61 107.135 115.248 110.033 115.664 110.253Z" fill="#FFE3CE"/>
<path d="M138.784 108.285C138.784 108.285 140.74 111.341 136.338 113.04C131.937 114.74 123.294 116.916 121.142 115.791C118.818 114.226 116.634 112.463 114.613 110.522C114.613 110.522 116.838 109.788 116.435 107.844L123.697 111.598C123.697 111.598 137.475 106.121 138.784 108.285Z" fill="#E2613E"/>
<path d="M138.783 108.285C137.463 106.121 123.684 111.598 123.684 111.598L116.422 107.844C116.5 108.143 116.507 108.456 116.441 108.758C116.375 109.06 116.239 109.342 116.043 109.58C117.746 111.199 119.596 112.657 121.569 113.933C123.721 115.082 132.328 112.881 136.741 111.182C137.716 110.877 138.571 110.274 139.186 109.458C139.13 109.044 138.993 108.646 138.783 108.285Z" fill="#FF6F48"/>
<g style="mix-blend-mode:multiply">
<path d="M138.735 167.763C145.41 169.266 146.596 174.047 141.375 178.424C136.155 182.8 126.521 185.123 119.797 183.62C113.073 182.116 111.936 177.348 117.156 172.971C122.377 168.594 132.023 166.259 138.735 167.763Z" fill="#E2E2E2"/>
</g>
<path d="M103.182 136.037L137.17 155.513L106.996 173.154L73.0088 153.679L103.182 136.037Z" fill="#0078FF"/>
<path d="M132.218 168.264C132.218 168.264 130.507 168.521 130.922 169.487C131.338 170.453 133.368 171.932 133.575 172.604C133.783 173.277 135.446 175.465 136.021 175.257C136.595 175.049 137.891 175.355 137.732 172.812C137.573 170.269 134.468 168.154 132.218 168.264Z" fill="#141323"/>
<path d="M128.953 177.605C128.953 177.605 129.785 180.05 127.731 180.624C125.677 181.199 126.276 179.903 121.752 181.04C117.229 182.177 116.715 179.817 116.862 179.328C117.009 178.839 119.98 177.874 120.97 177.617L123.831 176.896H129.186L128.953 177.605Z" fill="#141323"/>
<path d="M137.487 134.729V151.148C137.487 152.811 139.346 165.904 138.233 171.614C138.233 171.614 135.018 174.841 132.12 171.614C132.12 171.614 131.215 155.231 130.384 151.527C129.553 147.823 129.919 136.477 129.919 136.477L137.487 134.729Z" fill="#141323"/>
<path d="M127.132 154.755L104.319 141.6C104.01 141.425 103.664 141.325 103.31 141.309C102.955 141.292 102.602 141.358 102.277 141.502L83.3029 152.578C82.7894 152.872 82.875 153.41 83.4863 153.801L106.263 166.919C106.572 167.094 106.918 167.194 107.272 167.211C107.627 167.228 107.98 167.161 108.305 167.017L127.279 155.941C127.792 155.647 127.719 155.109 127.132 154.755ZM127.071 155.794L108.06 166.87C107.808 166.984 107.533 167.036 107.257 167.024C106.981 167.011 106.711 166.933 106.471 166.797L83.6819 153.593C83.2051 153.312 83.144 152.909 83.5352 152.676L102.51 141.6C102.762 141.486 103.037 141.434 103.313 141.447C103.589 141.459 103.858 141.537 104.099 141.673L126.888 154.816C127.365 155.146 127.438 155.562 127.034 155.794H127.071ZM123.819 154.669L116.484 150.415C116.165 150.241 115.807 150.152 115.444 150.158H104.71C104.062 150.158 103.634 150.451 103.683 150.83L104.502 156.026C104.508 156.107 104.487 156.188 104.443 156.256C104.399 156.324 104.334 156.377 104.258 156.405C104.04 156.505 103.798 156.539 103.561 156.503L99.8933 156.124C99.5811 156.083 99.2636 156.13 98.9763 156.258C98.8734 156.295 98.7847 156.363 98.7232 156.453C98.6616 156.543 98.6304 156.651 98.634 156.76L99.0008 160.537C99.0274 160.66 99.0821 160.774 99.1606 160.872C99.2391 160.97 99.3393 161.048 99.4531 161.1L106.116 164.951C106.384 165.103 106.684 165.19 106.992 165.205C107.3 165.22 107.607 165.162 107.889 165.037L123.966 155.647C124.394 155.439 124.32 154.975 123.782 154.669H123.819ZM99.013 151.674C98.3676 151.308 97.6454 151.098 96.9043 151.062C96.1633 151.026 95.4241 151.165 94.7462 151.466C93.6826 152.089 93.8537 153.202 95.1375 153.911C95.7829 154.277 96.5051 154.486 97.2461 154.523C97.9872 154.559 98.7263 154.42 99.4042 154.119C100.529 153.532 100.346 152.371 99.013 151.674Z" fill="white"/>
<path d="M131.851 136.819C131.851 136.819 131.118 146.343 130.36 155.794C130.36 155.794 129.883 174.548 129.443 177.238C129.443 177.238 123.391 178.742 122.792 175.893C122.792 175.893 122.951 159.388 122.792 155.941C122.633 152.493 122.278 142.871 123.648 137.321C125.017 131.77 131.851 136.819 131.851 136.819Z" fill="#141323"/>
<path d="M129.443 177.238C129.883 174.536 130.36 155.794 130.36 155.794C130.873 149.436 131.362 143.042 131.582 139.546L127.853 140.463C126.015 146.161 125.24 152.15 125.567 158.129C125.885 166.332 126.02 174.401 126.056 177.69C127.199 177.667 128.335 177.515 129.443 177.238Z" fill="#312F4B"/>
<path d="M138.257 171.614C139.37 165.892 137.512 152.811 137.512 151.148V134.839L134.272 137.284C134.272 137.284 133.245 147.835 134.272 153.838C135.213 159.303 134.602 169.939 135.067 172.995C136.258 172.917 137.385 172.429 138.257 171.614Z" fill="#312F4B"/>
<path d="M138.392 107.93C138.392 107.93 141.51 109.483 139.737 114.789C137.964 120.095 136.729 123.518 136.84 125.474C137.055 128.82 137.463 132.151 138.062 135.45C138.062 135.45 138.576 139.815 128.612 142.419C128.612 142.419 120.396 143.25 121.753 137.846C122.939 132.53 123.514 127.095 123.465 121.647C123.257 119.569 122.01 115.412 127.206 112.612C132.402 109.813 135.067 107.722 138.392 107.93Z" fill="#FF6F48"/>
<path d="M123.464 121.647C123.53 127.097 122.972 132.536 121.801 137.859C120.872 141.6 124.528 142.358 126.851 142.455C127.596 140.01 126.337 135.743 128.073 130.474C130.213 123.97 129.907 119.667 128.77 116.207C128.588 115.51 128.198 114.885 127.652 114.416C127.106 113.946 126.43 113.654 125.714 113.578C122.242 116.304 123.244 119.801 123.464 121.647Z" fill="#CF5736"/>
<path d="M134.7 105.314C134.52 106.842 134.735 108.391 135.324 109.813C136.192 111.39 129.663 112.82 129.504 111.365C129.849 110.501 129.998 109.571 129.939 108.643C129.879 107.715 129.614 106.811 129.162 105.998C128.355 104.519 134.7 105.314 134.7 105.314Z" fill="#FFE3CE"/>
<path d="M135.287 109.91C134.739 108.653 134.516 107.278 134.639 105.913L129.871 108.272C130.042 108.272 133.258 109.128 133.954 111.439C134.933 111.035 135.605 110.485 135.287 109.91Z" fill="#FFE3CE"/>
<path d="M127.829 97.9538C127.248 99.4444 126.974 101.037 127.023 102.636C127.23 104.971 126.888 105.436 127.023 106.475C127.019 107.029 127.205 107.568 127.548 108.003C128.27 108.7 129.749 108.957 131.766 108.223C134.211 107.331 136.754 103.993 135.715 100.986C134.676 97.9782 131.485 95.5086 127.829 97.9538Z" fill="#FFE3CE"/>
<path d="M135.617 104.238C134.661 102.112 133.532 100.067 132.243 98.1248C131.731 97.6665 131.159 97.2799 130.544 96.9756C129.566 97.0568 128.629 97.3988 127.829 97.9659C127.628 98.4968 127.461 99.0399 127.328 99.5919C127.903 100.24 129.089 100.973 129.26 101.524C129.603 102.887 129.53 104.322 129.052 105.644C128.661 106.512 130.275 107.783 129.896 108.541C129.887 108.573 129.887 108.607 129.896 108.639C130.539 108.589 131.173 108.449 131.778 108.223C132.654 107.853 133.446 107.308 134.106 106.623C134.765 105.938 135.28 105.127 135.617 104.238Z" fill="#FFE3CE"/>
<path d="M127.487 97.1956C126.692 97.648 126.766 99.0784 128.893 100.118C130.116 100.741 130.116 102.795 129.993 103.186C129.803 103.95 129.708 104.734 129.712 105.521C130.006 105.949 131.008 104.617 131.485 104.702C132.707 104.935 132.218 106.059 131.118 107.245C130.018 108.431 133.025 109.018 134.444 107.979C135.202 107.429 135.47 107.099 136.461 105.13C137.903 102.257 137.977 98.7972 134.578 96.9634C131.179 95.1295 129.455 96.132 127.487 97.1956Z" fill="#141323"/>
<path d="M134.468 107.979C135.226 107.429 135.495 107.099 136.485 105.13C137.927 102.257 138.429 98.8095 135.03 96.9634C131.631 95.1173 130.237 95.5941 128.269 96.7188C128.086 96.8289 127.047 97.2812 127.157 97.7825C128.232 97.9536 131.179 98.5405 131.937 99.7997C132.878 101.365 133.905 100.863 133.832 102.795C133.758 104.727 134.235 107.111 131.105 108.162C131.626 108.451 132.218 108.587 132.813 108.554C133.408 108.522 133.981 108.322 134.468 107.979Z" fill="#312F4B"/>
<path d="M129.87 110.51L127.743 112.295C127.743 112.295 134.357 114.19 136.301 110.95C136.429 110.485 136.374 109.988 136.146 109.563C135.919 109.137 135.537 108.815 135.079 108.664C135.079 108.664 134.871 111.304 129.87 110.51Z" fill="white"/>
<path d="M109.062 126.33C109.062 126.33 106.617 126.134 106.165 125.633C105.713 125.132 104.942 125.547 105.48 126.085C105.875 126.445 106.342 126.716 106.85 126.88C106.85 126.88 103.915 127.039 103.659 126.183C103.402 125.327 103.353 128.469 104.661 129.056C105.969 129.643 107.302 130.535 110.224 128.359C110.19 127.957 110.069 127.566 109.868 127.216C109.668 126.865 109.393 126.562 109.062 126.33Z" fill="#FFE3CE"/>
<path d="M126.765 113.542C126.765 113.542 130.005 114.85 127.487 118.664C124.968 122.479 120.408 128.726 118.073 129.044C115.738 129.362 109.197 129.435 109.197 129.435C109.197 129.435 110.285 127.43 108.879 126.134L117.156 124.251C117.156 124.251 124.516 112.576 126.765 113.542Z" fill="#E2613E"/>
<path d="M126.765 113.542C124.516 112.576 117.156 124.251 117.156 124.251L108.879 126.11C109.157 126.361 109.364 126.682 109.478 127.039C112.253 126.697 117.351 126.036 118.464 125.474C119.76 124.826 126.178 116.195 127.682 114.153C127.416 113.895 127.105 113.688 126.765 113.542Z" fill="#FF6F48"/>
<g opacity="0.5">
<path d="M115.42 114.471L103.83 107.783C103.667 107.707 103.49 107.667 103.31 107.667C103.131 107.667 102.953 107.707 102.791 107.783L93.1324 113.419C92.8757 113.566 92.9124 113.847 93.2302 114.018L104.82 120.584C104.983 120.66 105.16 120.699 105.34 120.699C105.519 120.699 105.697 120.66 105.859 120.584L115.518 114.947C115.775 114.899 115.738 114.63 115.42 114.471ZM115.42 114.996L105.737 120.584C105.612 120.647 105.474 120.68 105.334 120.68C105.194 120.68 105.055 120.647 104.93 120.584L93.3403 113.896C93.0957 113.762 93.0591 113.541 93.2669 113.431L102.925 107.795C103.05 107.732 103.189 107.699 103.329 107.699C103.469 107.699 103.607 107.732 103.732 107.795L115.322 114.471C115.567 114.654 115.591 114.862 115.396 114.984L115.42 114.996ZM113.684 114.41L110.016 112.246C109.855 112.157 109.674 112.11 109.49 112.111H104.038C103.708 112.111 103.488 112.258 103.512 112.453L103.903 115.119C103.906 115.16 103.896 115.201 103.874 115.236C103.852 115.272 103.82 115.299 103.781 115.314C103.665 115.348 103.542 115.348 103.427 115.314L101.568 115.119C101.411 115.096 101.25 115.117 101.104 115.18C101.051 115.198 101.006 115.233 100.975 115.28C100.944 115.326 100.929 115.381 100.932 115.436L101.116 117.356C101.13 117.418 101.158 117.475 101.198 117.524C101.239 117.573 101.29 117.612 101.348 117.637L104.735 119.593C104.875 119.664 105.03 119.701 105.187 119.701C105.344 119.701 105.499 119.664 105.639 119.593L113.818 114.813C114.051 114.801 114.014 114.568 113.684 114.41ZM101.165 112.881C100.838 112.7 100.475 112.596 100.102 112.576C99.7287 112.557 99.3563 112.624 99.013 112.771C98.4629 113.089 98.5607 113.652 99.2086 113.994C99.5382 114.179 99.9062 114.286 100.284 114.305C100.661 114.324 101.038 114.255 101.385 114.104C101.898 113.823 101.813 113.248 101.165 112.881Z" fill="white"/>
</g>
</g>
<defs>
<clipPath id="clip0">
<rect width="124.385" height="180" fill="white" transform="translate(55 24)"/>
</clipPath>
</defs>
</svg>
