<svg width="100%" viewBox="0 0 256 256" fill="none"
    xmlns="http://www.w3.org/2000/svg">
    <rect width="256" height="256" rx="16" fill="#F6F6F6"/>
    <g clip-path="url(#clip0)">
        <path fill-rule="evenodd" clip-rule="evenodd" d="M66 182.081L128.205 146.137L190.373 182.056L128.168 218L66 182.081Z" fill="#FFD4C9"/>
        <path fill-rule="evenodd" clip-rule="evenodd" d="M66 73.9071L128.192 38V146.149L66 182.056V73.9071Z" fill="#FFF0EC"/>
        <path fill-rule="evenodd" clip-rule="evenodd" d="M190.374 182.056L128.193 146.149V38L190.386 73.9071L190.374 182.056Z" fill="#FFE5DE"/>
        <path d="M112.666 69.8237L112.837 129.547L77.5657 149.903L77.3945 90.1796L112.666 69.8237Z" fill="#DDDDDD"/>
        <path d="M116.615 71.9631L116.786 131.698L81.5266 152.054L81.3555 92.3313L116.615 71.9631Z" fill="#0078FF"/>
        <path d="M111.909 90.8275L87.6405 104.838C87.288 105.061 86.9934 105.365 86.7809 105.724C86.5684 106.083 86.444 106.488 86.418 106.904V135.024C86.418 135.782 86.9559 136.099 87.6405 135.72L111.909 121.698C112.261 121.474 112.556 121.171 112.768 120.811C112.981 120.452 113.105 120.048 113.131 119.631V91.5121C113.095 90.7541 112.569 90.4485 111.909 90.8275ZM112.826 119.79C112.808 120.112 112.715 120.424 112.553 120.702C112.392 120.981 112.167 121.217 111.896 121.392L87.6405 135.403C87.5498 135.475 87.4395 135.518 87.324 135.526C87.2085 135.534 87.0931 135.508 86.9929 135.45C86.8927 135.392 86.8122 135.305 86.762 135.201C86.7118 135.096 86.6942 134.979 86.7114 134.865V106.745C86.7291 106.424 86.8225 106.112 86.984 105.833C87.1454 105.555 87.3704 105.319 87.6405 105.144L111.909 91.1331C111.999 91.0612 112.11 91.0182 112.225 91.0097C112.341 91.0013 112.456 91.0279 112.556 91.0859C112.657 91.1439 112.737 91.2307 112.787 91.3351C112.837 91.4395 112.855 91.5565 112.838 91.671L112.826 119.79ZM110.711 108.909L103.84 106.22C103.424 106.061 102.837 106.44 102.458 107.088L97.25 116.135C97.1156 116.379 96.9169 116.582 96.6754 116.722C96.5943 116.777 96.4984 116.806 96.4003 116.806C96.3022 116.806 96.2063 116.777 96.1252 116.722L94.2302 115.145C94.1235 115.073 93.998 115.035 93.8696 115.035C93.7411 115.035 93.6156 115.073 93.5089 115.145C93.1869 115.321 92.9202 115.583 92.7387 115.903L88.802 122.419C88.6 122.738 88.4861 123.105 88.4719 123.482V131.71C88.4719 132.371 88.9365 132.64 89.4989 132.309L110.014 120.438C110.317 120.251 110.572 119.995 110.759 119.692C110.946 119.388 111.059 119.045 111.09 118.69V109.57C111.099 109.434 111.068 109.299 111 109.182C110.933 109.064 110.832 108.97 110.711 108.909ZM96.1741 111.611C96.8895 111.135 97.4834 110.497 97.908 109.75C98.3326 109.003 98.5762 108.166 98.6193 107.308C98.6193 105.718 97.5067 105.07 96.1741 105.865C95.4587 106.342 94.8649 106.979 94.4403 107.726C94.0156 108.474 93.772 109.31 93.729 110.169C93.6923 111.758 94.8048 112.406 96.1741 111.611Z" fill="white"/>
        <path d="M123.95 98.895C124.304 98.6898 124.629 98.6531 124.878 98.7576C125.178 98.8835 127.128 99.8637 127.128 100.351V103.408L110.012 112.577L108.117 110.937V109.715C108.144 109.224 108.287 108.747 108.533 108.322C108.78 107.897 109.123 107.537 109.535 107.27L123.95 98.895Z" fill="#D2E7FF"/>
        <g style="mix-blend-mode:multiply">
            <path d="M146.189 182.337C152.865 183.841 154.05 188.621 148.83 192.998C143.61 197.375 133.976 199.698 127.3 198.157C120.625 196.617 119.439 191.886 124.66 187.509C129.88 183.132 139.514 180.834 146.189 182.337Z" fill="#E2E2E2"/>
        </g>
        <path d="M110.014 141.234L108.18 140.171L125.442 130.207L127.276 131.27L110.014 141.234Z" fill="#BFD4DB"/>
        <path d="M114.426 108.372L112.592 107.308L114.426 108.372Z" fill="#8A999E"/>
        <path d="M114.425 108.372L112.604 107.308L114.425 108.372Z" fill="#8E9DA3"/>
        <path d="M114.439 108.372L112.617 107.308L114.439 108.372Z" fill="#93A2A8"/>
        <path d="M114.462 108.384L112.641 107.32L114.462 108.384Z" fill="#97A7AD"/>
        <path d="M114.474 108.384L112.652 107.32L114.474 108.384Z" fill="#9BACB3"/>
        <path d="M114.499 108.396L112.678 107.332L114.499 108.396Z" fill="#A0B1B8"/>
        <path d="M114.523 108.396L112.701 107.332L114.523 108.396Z" fill="#A4B6BD"/>
        <path d="M114.548 108.384L112.727 107.32L114.548 108.384Z" fill="#A9BBC2"/>
        <path d="M114.572 108.384L112.75 107.32L114.572 108.384Z" fill="#ADC0C7"/>
        <path d="M114.62 108.372L112.799 107.308L114.62 108.372Z" fill="#B2C5CC"/>
        <path d="M110.014 143.41V141.234L108.192 140.171V142.347C108.175 142.521 108.205 142.696 108.278 142.855C108.351 143.014 108.465 143.151 108.608 143.252L110.429 144.315C110.286 144.215 110.173 144.078 110.1 143.919C110.027 143.76 109.997 143.585 110.014 143.41Z" fill="#D2E7FF"/>
        <path d="M110.014 143.411V141.235L127.276 131.271V133.447C127.252 133.936 127.111 134.413 126.867 134.838C126.623 135.263 126.281 135.624 125.871 135.892L111.444 144.218C110.662 144.67 110.014 144.364 110.014 143.411Z" fill="#8AC1FF"/>
        <path d="M110.013 141.234L108.179 140.171L108.105 110.939L109.927 112.003L110.013 141.234Z" fill="#0052B4"/>
        <path d="M127.191 102.026L127.276 131.27L110.013 141.234L109.928 112.003L127.191 102.026Z" fill="#0078FF"/>
        <path d="M122.103 103.249C122.136 103.221 122.177 103.205 122.219 103.201C122.262 103.197 122.305 103.206 122.342 103.228C122.38 103.249 122.409 103.281 122.428 103.32C122.446 103.359 122.452 103.402 122.445 103.444C122.44 103.564 122.406 103.681 122.346 103.785C122.287 103.889 122.204 103.978 122.103 104.044L114.658 108.335C114.625 108.362 114.584 108.379 114.541 108.383C114.499 108.387 114.456 108.377 114.418 108.356C114.381 108.335 114.351 108.303 114.333 108.264C114.314 108.225 114.308 108.182 114.315 108.139C114.321 108.019 114.355 107.903 114.414 107.798C114.474 107.694 114.557 107.606 114.658 107.54L122.103 103.249Z" fill="#68AFFF"/>
        <path d="M125.76 99.9602C126.543 99.5078 127.178 99.8746 127.178 100.767V101.99L109.928 112.003V110.78C109.955 110.289 110.097 109.812 110.344 109.387C110.59 108.962 110.934 108.602 111.346 108.335L125.76 99.9602ZM122.092 104.056C122.193 103.99 122.276 103.902 122.336 103.797C122.395 103.693 122.429 103.577 122.435 103.457C122.435 103.237 122.276 103.151 122.092 103.261L114.647 107.552C114.546 107.618 114.463 107.707 114.404 107.811C114.344 107.915 114.31 108.032 114.305 108.151C114.305 108.371 114.463 108.457 114.647 108.347L122.105 104.019L122.092 104.056Z" fill="#8AC1FF"/>
        <path d="M129.928 111.355C129.822 110.197 129.614 109.052 129.305 107.931C128.999 107.381 127.752 105.046 125.637 104.679C124.488 104.484 125.136 105.682 126.199 107.039C126.519 107.313 126.763 107.666 126.906 108.062C127.05 108.458 127.088 108.885 127.018 109.301C126.957 110.336 127.077 111.375 127.373 112.369C127.593 113.091 129.928 111.355 129.928 111.355Z" fill="#FFE3CE"/>
        <path d="M127.313 112.296C127.161 111.304 126.865 110.34 126.432 109.435C125.772 108.506 126.689 107.699 126.212 107.088C125.393 106.036 124.831 105.034 125.149 104.765C125.711 105.608 127.08 105.34 127.802 107.882C128.09 109.318 128.189 110.786 128.095 112.247C127.557 112.443 127.398 112.577 127.313 112.296Z" fill="#FFE3CE"/>
        <path d="M128.193 112.174C127.316 111.066 126.5 109.911 125.748 108.714C125.308 107.834 125.271 107.027 125.516 107.1C125.76 107.173 127.35 109.668 128.047 108.873C128.352 108.469 127.985 111.746 128.193 112.174Z" fill="#FFE3CE"/>
        <path d="M147.913 124.326C147.913 124.326 147.668 127.994 143.096 126.686C138.523 125.378 130.357 122.077 129.305 119.913C128.345 117.262 127.617 114.534 127.129 111.758C127.129 111.758 129.354 112.492 130.185 110.682L133.853 118.018C133.853 118.018 148.182 121.808 147.913 124.326Z" fill="#E2613E"/>
        <path d="M147.913 124.326C148.145 121.808 133.805 118.018 133.805 118.018L130.137 110.682C130.018 110.959 129.837 111.204 129.608 111.399C129.379 111.594 129.108 111.734 128.816 111.807C129.263 114.13 129.926 116.405 130.797 118.604C131.848 120.805 140.076 124.155 144.637 125.414C145.6 125.745 146.643 125.766 147.62 125.475C147.788 125.114 147.888 124.724 147.913 124.326Z" fill="#FF6F48"/>
        <path d="M140.578 183.242C140.578 183.242 138.866 183.499 139.282 184.465C139.698 185.431 141.727 186.91 141.935 187.582C142.143 188.255 143.805 190.443 144.38 190.235C144.955 190.027 146.251 190.333 146.092 187.79C145.933 185.247 142.803 183.132 140.578 183.242Z" fill="#141323"/>
        <path d="M137.239 192.595C137.239 192.595 138.071 195.04 136.017 195.615C133.963 196.189 134.562 194.893 130.038 196.03C125.515 197.167 125.001 194.808 125.148 194.319C125.295 193.83 128.266 192.864 129.256 192.607L132.117 191.886H137.472L137.239 192.595Z" fill="#141323"/>
        <path d="M145.785 149.707V166.126C145.785 167.789 147.643 180.883 146.531 186.592C146.531 186.592 143.315 189.82 140.418 186.592C140.418 186.592 139.513 170.209 138.682 166.505C137.851 162.801 138.132 151.492 138.132 151.492L145.785 149.707Z" fill="#141323"/>
        <path d="M140.137 151.797C140.137 151.797 139.404 161.321 138.646 170.772C138.646 170.772 138.169 189.526 137.729 192.216C137.729 192.216 131.677 193.72 131.078 190.871C131.078 190.871 131.237 174.366 131.078 170.919C130.919 167.471 130.564 157.849 131.934 152.299C133.303 146.748 140.137 151.797 140.137 151.797Z" fill="#141323"/>
        <path d="M137.728 192.228C138.168 189.526 138.645 170.784 138.645 170.784C139.158 164.427 139.647 158.033 139.868 154.536L136.139 155.453C134.3 161.152 133.525 167.14 133.852 173.119C134.17 181.323 134.305 189.392 134.341 192.681C135.484 192.658 136.62 192.506 137.728 192.228Z" fill="#312F4B"/>
        <path d="M146.555 186.592C147.668 180.87 145.81 167.789 145.81 166.126V149.817L142.57 152.262C142.57 152.262 141.543 162.813 142.57 168.816C143.511 174.281 142.9 184.917 143.364 187.974C144.556 187.895 145.683 187.407 146.555 186.592Z" fill="#312F4B"/>
        <path d="M146.69 122.908C146.69 122.908 149.807 124.461 148.034 129.767C146.262 135.073 145.027 138.496 145.125 140.464C145.34 143.81 145.748 147.141 146.347 150.44C146.347 150.44 146.861 154.805 136.897 157.409C136.897 157.409 128.681 158.241 130.038 152.837C131.209 147.514 131.767 142.075 131.701 136.625C131.493 134.547 130.246 130.39 135.442 127.591C140.638 124.791 143.364 122.7 146.69 122.908Z" fill="#FF6F48"/>
        <path d="M131.725 136.625C131.791 142.075 131.233 147.514 130.062 152.837C129.133 156.578 132.788 157.336 135.111 157.433C135.857 154.988 134.598 150.721 136.334 145.452C138.473 138.948 138.168 134.645 137.031 131.185C136.849 130.488 136.459 129.863 135.913 129.394C135.367 128.924 134.691 128.632 133.974 128.556C130.539 131.295 131.541 134.779 131.725 136.625Z" fill="#CF5736"/>
        <path d="M143.022 120.292C142.832 121.822 143.039 123.375 143.621 124.803C144.489 126.38 137.961 127.81 137.802 126.356C138.147 125.492 138.295 124.562 138.236 123.633C138.177 122.705 137.912 121.801 137.459 120.988C136.64 119.497 143.022 120.292 143.022 120.292Z" fill="#FFE3CE"/>
        <path d="M143.586 124.888C143.029 123.625 142.802 122.241 142.925 120.866L138.133 123.238C138.304 123.238 141.519 124.094 142.216 126.404C143.231 126.025 143.903 125.463 143.586 124.888Z" fill="#FFE3CE"/>
        <path d="M136.126 112.944C135.545 114.435 135.27 116.027 135.319 117.626C135.527 119.962 135.185 120.426 135.319 121.465C135.316 122.02 135.502 122.558 135.845 122.994C136.566 123.69 138.046 123.947 140.063 123.214C142.508 122.321 145.051 118.984 144.012 115.976C142.973 112.968 139.782 110.487 136.126 112.944Z" fill="#FFE3CE"/>
        <path d="M143.914 119.216C142.958 117.09 141.829 115.045 140.54 113.103C140.028 112.645 139.456 112.258 138.84 111.954C137.863 112.035 136.926 112.377 136.126 112.944C135.925 113.475 135.758 114.018 135.625 114.57C136.2 115.218 137.386 115.951 137.557 116.502C137.899 117.865 137.827 119.3 137.349 120.622C136.958 121.49 138.571 122.761 138.192 123.519C138.167 123.534 138.146 123.555 138.131 123.58C138.775 123.531 139.409 123.391 140.014 123.165C140.898 122.805 141.699 122.269 142.37 121.591C143.04 120.912 143.565 120.104 143.914 119.216Z" fill="#FFE3CE"/>
        <path d="M135.772 112.174C134.978 112.626 135.051 114.057 137.178 115.096C138.401 115.719 138.401 117.773 138.279 118.164C138.088 118.928 137.993 119.713 137.997 120.5C138.291 120.927 139.293 119.595 139.77 119.68C140.993 119.913 140.504 121.038 139.403 122.223C138.303 123.409 141.31 123.996 142.729 122.957C143.487 122.407 143.756 122.077 144.746 120.108C146.189 117.235 146.262 113.775 142.863 111.942C139.464 110.108 137.753 111.061 135.772 112.174Z" fill="#141323"/>
        <path d="M142.741 122.969C143.499 122.419 143.768 122.089 144.758 120.12C146.201 117.235 146.69 113.8 143.303 111.954C139.917 110.108 138.511 110.584 136.543 111.709C136.359 111.819 135.32 112.271 135.43 112.773C136.506 112.944 139.452 113.531 140.21 114.79C141.152 116.355 142.179 115.854 142.105 117.785C142.032 119.717 142.509 122.101 139.379 123.152C139.9 123.441 140.492 123.577 141.086 123.545C141.681 123.512 142.255 123.313 142.741 122.969Z" fill="#312F4B"/>
        <path d="M138.132 125.488L136.041 127.248C136.041 127.248 142.655 129.143 144.599 125.903C144.727 125.438 144.671 124.942 144.444 124.516C144.216 124.091 143.834 123.769 143.376 123.617C143.376 123.617 143.156 126.282 138.132 125.488Z" fill="white"/>
        <path d="M117.349 141.308C117.349 141.308 114.904 141.112 114.452 140.611C113.999 140.11 113.229 140.525 113.767 141.063C114.159 141.447 114.631 141.739 115.148 141.919C115.148 141.919 112.214 142.078 111.958 141.222C111.701 140.366 111.652 143.508 112.96 144.095C114.268 144.682 115.613 145.587 118.572 143.362C118.535 142.95 118.406 142.551 118.194 142.196C117.982 141.84 117.694 141.537 117.349 141.308Z" fill="#FFE3CE"/>
        <path d="M135.064 128.471C135.064 128.471 138.304 129.779 135.785 133.593C133.267 137.408 128.707 143.655 126.372 143.973C124.036 144.291 117.496 144.364 117.496 144.364C117.496 144.364 118.584 142.359 117.178 141.063L125.455 139.205C125.455 139.205 132.814 127.554 135.064 128.471Z" fill="#E2613E"/>
        <path d="M135.064 128.471C132.814 127.517 125.455 139.205 125.455 139.205L117.178 141.063C117.456 141.315 117.662 141.635 117.777 141.992C120.552 141.65 125.699 140.978 126.763 140.44C128.059 139.792 134.477 131.16 135.981 129.119C135.718 128.848 135.407 128.628 135.064 128.471Z" fill="#FF6F48"/>
        <g opacity="0.5">
            <path d="M123.461 112.577L113.68 118.201C113.541 118.293 113.425 118.416 113.343 118.56C113.26 118.704 113.212 118.866 113.203 119.032V130.317C113.203 130.622 113.423 130.745 113.68 130.598L123.461 124.974C123.6 124.882 123.715 124.76 123.798 124.615C123.881 124.471 123.928 124.309 123.937 124.143V112.907C123.901 112.577 123.693 112.467 123.461 112.577ZM123.827 124.204C123.822 124.333 123.786 124.459 123.722 124.572C123.658 124.685 123.569 124.78 123.461 124.852L113.68 130.476C113.472 130.598 113.313 130.476 113.313 130.256V119.02C113.319 118.891 113.355 118.765 113.419 118.652C113.482 118.539 113.572 118.444 113.68 118.372L123.461 112.748C123.668 112.626 123.827 112.748 123.827 112.968V124.204ZM122.947 119.913L120.184 118.849C120.013 118.788 119.781 118.935 119.634 119.204L117.543 122.871C117.488 122.968 117.408 123.049 117.311 123.104C117.279 123.126 117.24 123.137 117.201 123.137C117.162 123.137 117.123 123.126 117.091 123.104L116.321 122.358C116.278 122.328 116.226 122.312 116.174 122.312C116.122 122.312 116.07 122.328 116.027 122.358C115.899 122.429 115.793 122.535 115.722 122.663L114.145 125.28C114.062 125.408 114.016 125.556 114.01 125.708V129.009C114.01 129.278 114.193 129.375 114.426 129.253L122.678 124.485C122.799 124.406 122.9 124.3 122.973 124.174C123.045 124.049 123.086 123.908 123.094 123.764V120.096C123.084 120.057 123.066 120.02 123.04 119.988C123.015 119.957 122.983 119.931 122.947 119.913ZM117.115 121.013C117.403 120.823 117.643 120.568 117.815 120.268C117.987 119.969 118.086 119.634 118.106 119.289C118.106 118.653 117.653 118.397 117.115 118.714C116.834 118.9 116.598 119.147 116.426 119.437C116.255 119.728 116.152 120.053 116.125 120.389C116.125 121.025 116.565 121.282 117.115 120.964V121.013Z" fill="white"/>
        </g>
    </g>
    <defs>
        <clipPath id="clip0">
            <rect width="124.385" height="180" fill="white" transform="translate(66 38)"/>
        </clipPath>
    </defs>
</svg>
