<svg width="100%"  viewBox="0 0 227 227" fill="none" xmlns="http://www.w3.org/2000/svg">
<rect width="227" height="227" rx="16" fill="#F6F6F6"/>
<g clip-path="url(#clip0)">
<path fill-rule="evenodd" clip-rule="evenodd" d="M52 168.081L114.205 132.137L176.373 168.056L114.168 204L52 168.081Z" fill="#FFD4C9"/>
<path fill-rule="evenodd" clip-rule="evenodd" d="M52 59.9071L114.192 24V132.149L52 168.056V59.9071Z" fill="#FFF0EC"/>
<path fill-rule="evenodd" clip-rule="evenodd" d="M176.373 168.056L114.192 132.149V24L176.385 59.9071L176.373 168.056Z" fill="#FFE5DE"/>
<path d="M98.6659 55.8237L98.837 115.547L63.5657 135.903L63.3945 76.1796L98.6659 55.8237Z" fill="#DDDDDD"/>
<path d="M102.615 57.9631L102.786 117.698L67.5266 138.054L67.3555 78.3313L102.615 57.9631Z" fill="#0078FF"/>
<path d="M97.9077 76.8275L73.6396 90.8382C73.287 91.0615 72.9924 91.3652 72.7799 91.7243C72.5674 92.0834 72.443 92.4878 72.417 92.9043V121.024C72.417 121.782 72.9549 122.099 73.6396 121.72L97.9077 107.698C98.2603 107.474 98.5549 107.171 98.7674 106.811C98.9799 106.452 99.1043 106.048 99.1303 105.631V77.5121C99.0936 76.7541 98.5679 76.4485 97.9077 76.8275ZM98.8247 105.79C98.8069 106.112 98.7135 106.424 98.5521 106.702C98.3906 106.981 98.1656 107.217 97.8955 107.392L73.6396 121.403C73.5488 121.475 73.4385 121.518 73.323 121.526C73.2075 121.534 73.0922 121.508 72.9919 121.45C72.8917 121.392 72.8113 121.305 72.7611 121.201C72.7108 121.096 72.6932 120.979 72.7104 120.865V92.7454C72.7281 92.4241 72.8215 92.1116 72.983 91.8332C73.1445 91.5549 73.3694 91.3187 73.6396 91.1438L97.9077 77.1331C97.9985 77.0612 98.1088 77.0182 98.2243 77.0097C98.3398 77.0013 98.4551 77.0279 98.5554 77.0859C98.6556 77.1439 98.736 77.2307 98.7862 77.3351C98.8364 77.4395 98.8541 77.5565 98.8369 77.671L98.8247 105.79ZM96.7096 94.9094L89.8387 92.2197C89.423 92.0608 88.8362 92.4398 88.4572 93.0877L83.249 102.135C83.1146 102.379 82.9159 102.582 82.6744 102.722C82.5933 102.777 82.4974 102.806 82.3993 102.806C82.3012 102.806 82.2054 102.777 82.1243 102.722L80.2293 101.145C80.1226 101.073 79.997 101.035 79.8686 101.035C79.7402 101.035 79.6146 101.073 79.5079 101.145C79.1859 101.321 78.9192 101.583 78.7377 101.903L74.801 108.419C74.599 108.738 74.4851 109.105 74.4709 109.482V117.71C74.4709 118.371 74.9355 118.64 75.4979 118.309L96.0127 106.438C96.3159 106.251 96.5711 105.995 96.7579 105.692C96.9447 105.388 97.058 105.045 97.0886 104.69V95.5696C97.0979 95.4344 97.0668 95.2995 96.9993 95.1819C96.9318 95.0644 96.831 94.9696 96.7096 94.9094ZM82.1732 97.6113C82.8886 97.1348 83.4824 96.4974 83.907 95.75C84.3316 95.0027 84.5753 94.1663 84.6183 93.3078C84.6183 91.7184 83.5058 91.0705 82.1732 91.8652C81.4577 92.3416 80.8639 92.979 80.4393 93.7264C80.0147 94.4737 79.7711 95.3102 79.728 96.1686C79.6913 97.758 80.8039 98.4059 82.1732 97.6113Z" fill="white"/>
<path d="M109.951 84.895C110.305 84.6898 110.63 84.6531 110.879 84.7576C111.179 84.8835 113.129 85.8637 113.129 86.3514V89.4078L96.0129 98.5771L94.1182 96.9373V95.7148C94.1452 95.2243 94.2878 94.7472 94.5342 94.3222C94.7807 93.8973 95.124 93.5366 95.5364 93.2696L109.951 84.895Z" fill="#D2E7FF"/>
<g style="mix-blend-mode:multiply">
<path d="M132.189 168.337C138.865 169.841 140.05 174.621 134.83 178.998C129.61 183.375 119.976 185.698 113.3 184.157C106.625 182.617 105.439 177.886 110.66 173.509C115.88 169.132 125.514 166.834 132.189 168.337Z" fill="#E2E2E2"/>
</g>
<path d="M96.0126 127.234L94.1787 126.171L111.441 116.207L113.275 117.27L96.0126 127.234Z" fill="#BFD4DB"/>
<path d="M100.427 94.3715L98.5928 93.3079L100.427 94.3715Z" fill="#8A999E"/>
<path d="M100.426 94.3715L98.6045 93.3079L100.426 94.3715Z" fill="#8E9DA3"/>
<path d="M100.439 94.3715L98.6172 93.3079L100.439 94.3715Z" fill="#93A2A8"/>
<path d="M100.463 94.3837L98.6416 93.3201L100.463 94.3837Z" fill="#97A7AD"/>
<path d="M100.476 94.3837L98.6543 93.3201L100.476 94.3837Z" fill="#9BACB3"/>
<path d="M100.5 94.3959L98.6787 93.3323L100.5 94.3959Z" fill="#A0B1B8"/>
<path d="M100.525 94.3959L98.7031 93.3323L100.525 94.3959Z" fill="#A4B6BD"/>
<path d="M100.549 94.3837L98.7275 93.3201L100.549 94.3837Z" fill="#A9BBC2"/>
<path d="M100.574 94.3837L98.752 93.3201L100.574 94.3837Z" fill="#ADC0C7"/>
<path d="M100.622 94.3715L98.8008 93.3079L100.622 94.3715Z" fill="#B2C5CC"/>
<path d="M96.0127 129.41V127.234L94.1911 126.171V128.347C94.1743 128.521 94.2039 128.696 94.277 128.855C94.35 129.014 94.4638 129.151 94.6068 129.252L96.4284 130.315C96.2854 130.215 96.1716 130.078 96.0986 129.919C96.0256 129.76 95.996 129.585 96.0127 129.41Z" fill="#D2E7FF"/>
<path d="M96.0127 129.411V127.235L113.275 117.271V119.447C113.251 119.936 113.111 120.413 112.866 120.838C112.622 121.263 112.28 121.624 111.87 121.892L97.4431 130.218C96.6607 130.67 96.0127 130.364 96.0127 129.411Z" fill="#8AC1FF"/>
<path d="M96.0127 127.234L94.1788 126.171L94.1055 96.939L95.9271 98.0026L96.0127 127.234Z" fill="#0052B4"/>
<path d="M113.19 88.0264L113.275 117.27L96.0123 127.234L95.9268 98.0026L113.19 88.0264Z" fill="#0078FF"/>
<path d="M108.104 89.2489C108.137 89.2214 108.178 89.2046 108.22 89.2008C108.263 89.197 108.306 89.2064 108.343 89.2277C108.381 89.249 108.41 89.2811 108.429 89.3199C108.447 89.3587 108.453 89.4021 108.446 89.4445C108.441 89.5643 108.407 89.6811 108.347 89.7852C108.288 89.8894 108.204 89.9779 108.104 90.0436L100.659 94.3348C100.626 94.3623 100.585 94.3791 100.542 94.3829C100.5 94.3867 100.457 94.3773 100.419 94.356C100.382 94.3347 100.352 94.3025 100.334 94.2638C100.315 94.225 100.309 94.1815 100.316 94.1392C100.322 94.0194 100.356 93.9026 100.415 93.7985C100.475 93.6943 100.558 93.6058 100.659 93.5401L108.104 89.2489Z" fill="#68AFFF"/>
<path d="M111.76 85.9602C112.543 85.5078 113.178 85.8746 113.178 86.7671V87.9896L95.9277 98.0025V96.78C95.9548 96.2895 96.0973 95.8123 96.3438 95.3874C96.5902 94.9625 96.9336 94.6018 97.3459 94.3348L111.76 85.9602ZM108.092 90.0558C108.193 89.9901 108.276 89.9016 108.336 89.7975C108.395 89.6933 108.429 89.5765 108.435 89.4567C108.435 89.2367 108.276 89.1511 108.092 89.2611L100.647 93.5524C100.546 93.618 100.463 93.7065 100.404 93.8107C100.344 93.9148 100.31 94.0316 100.305 94.1514C100.305 94.3715 100.463 94.4571 100.647 94.347L108.105 90.0191L108.092 90.0558Z" fill="#8AC1FF"/>
<path d="M115.929 97.3545C115.823 96.1972 115.615 95.0516 115.306 93.9313C115 93.3811 113.753 91.046 111.638 90.6792C110.489 90.4836 111.137 91.6818 112.2 93.0388C112.52 93.3133 112.764 93.6657 112.907 94.062C113.051 94.4583 113.089 94.885 113.019 95.3006C112.957 96.3363 113.077 97.3749 113.374 98.3693C113.594 99.0906 115.929 97.3545 115.929 97.3545Z" fill="#FFE3CE"/>
<path d="M113.312 98.296C113.16 97.3044 112.864 96.3405 112.431 95.4351C111.771 94.506 112.688 93.6991 112.211 93.0878C111.392 92.0364 110.83 91.0339 111.148 90.7649C111.71 91.6085 113.079 91.3395 113.801 93.8825C114.089 95.3182 114.188 96.7856 114.094 98.2471C113.556 98.4427 113.397 98.5772 113.312 98.296Z" fill="#FFE3CE"/>
<path d="M114.192 98.1738C113.315 97.0655 112.499 95.9105 111.747 94.7139C111.307 93.8336 111.27 93.0267 111.515 93.1001C111.759 93.1735 113.349 95.6675 114.046 94.8728C114.351 94.4694 113.984 97.7459 114.192 98.1738Z" fill="#FFE3CE"/>
<path d="M133.913 110.326C133.913 110.326 133.668 113.994 129.096 112.686C124.523 111.378 116.357 108.077 115.305 105.913C114.345 103.262 113.617 100.534 113.129 97.758C113.129 97.758 115.354 98.4915 116.185 96.6821L119.853 104.018C119.853 104.018 134.182 107.808 133.913 110.326Z" fill="#E2613E"/>
<path d="M133.913 110.326C134.145 107.808 119.805 104.018 119.805 104.018L116.137 96.6821C116.018 96.9585 115.837 97.2038 115.608 97.3989C115.379 97.5939 115.108 97.7336 114.816 97.8069C115.263 100.13 115.926 102.405 116.797 104.604C117.848 106.805 126.076 110.155 130.637 111.414C131.6 111.745 132.643 111.766 133.62 111.475C133.788 111.114 133.888 110.724 133.913 110.326Z" fill="#FF6F48"/>
<path d="M126.577 169.242C126.577 169.242 124.865 169.499 125.281 170.465C125.697 171.431 127.726 172.91 127.934 173.582C128.142 174.255 129.804 176.443 130.379 176.235C130.954 176.027 132.25 176.333 132.091 173.79C131.932 171.247 128.802 169.132 126.577 169.242Z" fill="#141323"/>
<path d="M123.239 178.595C123.239 178.595 124.071 181.04 122.017 181.615C119.963 182.189 120.562 180.893 116.038 182.03C111.515 183.167 111.001 180.808 111.148 180.319C111.295 179.83 114.266 178.864 115.256 178.607L118.117 177.886H123.472L123.239 178.595Z" fill="#141323"/>
<path d="M131.785 135.707V152.126C131.785 153.789 133.643 166.883 132.531 172.592C132.531 172.592 129.315 175.82 126.418 172.592C126.418 172.592 125.513 156.209 124.682 152.505C123.851 148.801 124.132 137.492 124.132 137.492L131.785 135.707Z" fill="#141323"/>
<path d="M126.137 137.797C126.137 137.797 125.404 147.321 124.646 156.772C124.646 156.772 124.169 175.526 123.729 178.216C123.729 178.216 117.677 179.72 117.078 176.871C117.078 176.871 117.237 160.366 117.078 156.919C116.919 153.471 116.564 143.849 117.934 138.299C119.303 132.748 126.137 137.797 126.137 137.797Z" fill="#141323"/>
<path d="M123.729 178.228C124.169 175.526 124.646 156.784 124.646 156.784C125.159 150.427 125.648 144.033 125.868 140.536L122.14 141.453C120.301 147.152 119.526 153.14 119.853 159.119C120.171 167.323 120.306 175.392 120.342 178.681C121.485 178.658 122.621 178.506 123.729 178.228Z" fill="#312F4B"/>
<path d="M132.555 172.592C133.668 166.87 131.81 153.789 131.81 152.126V135.817L128.57 138.262C128.57 138.262 127.543 148.813 128.57 154.816C129.511 160.281 128.9 170.917 129.364 173.974C130.556 173.895 131.683 173.407 132.555 172.592Z" fill="#312F4B"/>
<path d="M132.691 108.908C132.691 108.908 135.808 110.461 134.035 115.767C132.263 121.073 131.028 124.496 131.126 126.464C131.341 129.81 131.749 133.141 132.348 136.44C132.348 136.44 132.862 140.805 122.898 143.409C122.898 143.409 114.682 144.241 116.039 138.837C117.21 133.514 117.768 128.075 117.702 122.625C117.494 120.547 116.247 116.39 121.443 113.591C126.639 110.791 129.365 108.7 132.691 108.908Z" fill="#FF6F48"/>
<path d="M117.726 122.625C117.792 128.075 117.234 133.514 116.063 138.837C115.134 142.578 118.789 143.336 121.112 143.433C121.858 140.988 120.599 136.721 122.335 131.452C124.474 124.948 124.169 120.645 123.032 117.185C122.85 116.488 122.46 115.863 121.914 115.394C121.368 114.924 120.691 114.632 119.975 114.556C116.54 117.295 117.542 120.779 117.726 122.625Z" fill="#CF5736"/>
<path d="M129.022 106.292C128.832 107.822 129.039 109.375 129.621 110.803C130.489 112.38 123.961 113.81 123.802 112.356C124.147 111.492 124.295 110.562 124.236 109.633C124.177 108.705 123.912 107.801 123.459 106.988C122.64 105.497 129.022 106.292 129.022 106.292Z" fill="#FFE3CE"/>
<path d="M129.585 110.888C129.028 109.625 128.801 108.241 128.924 106.866L124.132 109.238C124.303 109.238 127.518 110.094 128.215 112.404C129.23 112.025 129.902 111.463 129.585 110.888Z" fill="#FFE3CE"/>
<path d="M122.127 98.944C121.546 100.435 121.271 102.027 121.32 103.626C121.528 105.962 121.186 106.426 121.32 107.465C121.317 108.02 121.503 108.558 121.846 108.994C122.567 109.69 124.047 109.947 126.064 109.214C128.509 108.321 131.052 104.984 130.013 101.976C128.974 98.9685 125.783 96.4866 122.127 98.944Z" fill="#FFE3CE"/>
<path d="M129.915 105.216C128.959 103.09 127.83 101.045 126.541 99.1028C126.029 98.6445 125.457 98.2579 124.841 97.9536C123.864 98.0348 122.927 98.3768 122.127 98.9439C121.926 99.4749 121.759 100.018 121.626 100.57C122.201 101.218 123.386 101.951 123.558 102.502C123.9 103.865 123.828 105.3 123.35 106.622C122.959 107.49 124.572 108.761 124.193 109.519C124.168 109.534 124.147 109.555 124.132 109.58C124.776 109.531 125.41 109.391 126.015 109.165C126.899 108.805 127.7 108.269 128.37 107.591C129.041 106.912 129.566 106.104 129.915 105.216Z" fill="#FFE3CE"/>
<path d="M121.772 98.1738C120.978 98.6262 121.051 100.057 123.178 101.096C124.401 101.719 124.401 103.773 124.279 104.164C124.088 104.928 123.993 105.713 123.997 106.5C124.291 106.927 125.293 105.595 125.77 105.68C126.993 105.913 126.504 107.038 125.403 108.223C124.303 109.409 127.31 109.996 128.729 108.957C129.487 108.407 129.756 108.077 130.746 106.108C132.189 103.235 132.262 99.7754 128.863 97.9415C125.464 96.1077 123.753 97.0613 121.772 98.1738Z" fill="#141323"/>
<path d="M128.741 108.969C129.499 108.419 129.768 108.089 130.758 106.12C132.201 103.235 132.69 99.7997 129.303 97.9536C125.917 96.1075 124.511 96.5843 122.543 97.7091C122.359 97.8191 121.32 98.2715 121.43 98.7727C122.506 98.9439 125.452 99.5307 126.21 100.79C127.152 102.355 128.179 101.854 128.105 103.785C128.032 105.717 128.509 108.101 125.379 109.152C125.9 109.441 126.492 109.577 127.086 109.545C127.681 109.512 128.255 109.313 128.741 108.969Z" fill="#312F4B"/>
<path d="M124.132 111.488L122.041 113.248C122.041 113.248 128.655 115.143 130.599 111.903C130.727 111.438 130.671 110.942 130.444 110.516C130.216 110.091 129.834 109.769 129.376 109.617C129.376 109.617 129.156 112.282 124.132 111.488Z" fill="white"/>
<path d="M103.348 127.308C103.348 127.308 100.903 127.112 100.451 126.611C99.9982 126.11 99.228 126.525 99.766 127.063C100.158 127.447 100.63 127.739 101.147 127.919C101.147 127.919 98.2133 128.078 97.9565 127.222C97.6998 126.366 97.6509 129.508 98.959 130.095C100.267 130.682 101.612 131.587 104.571 129.362C104.534 128.95 104.405 128.551 104.193 128.196C103.981 127.84 103.693 127.537 103.348 127.308Z" fill="#FFE3CE"/>
<path d="M121.063 114.471C121.063 114.471 124.303 115.779 121.784 119.593C119.266 123.408 114.706 129.655 112.371 129.973C110.035 130.291 103.495 130.364 103.495 130.364C103.495 130.364 104.583 128.359 103.177 127.063L111.454 125.205C111.454 125.205 118.814 113.554 121.063 114.471Z" fill="#E2613E"/>
<path d="M121.063 114.471C118.814 113.517 111.454 125.205 111.454 125.205L103.177 127.063C103.455 127.315 103.662 127.635 103.776 127.992C106.551 127.65 111.698 126.978 112.762 126.44C114.058 125.792 120.476 117.16 121.98 115.119C121.717 114.848 121.406 114.628 121.063 114.471Z" fill="#FF6F48"/>
<g opacity="0.5">
<path d="M109.462 98.5772L99.6809 104.201C99.5419 104.293 99.4264 104.416 99.3436 104.56C99.2607 104.704 99.213 104.866 99.2041 105.032V116.317C99.2041 116.622 99.4242 116.745 99.6809 116.598L109.462 110.974C109.601 110.882 109.716 110.76 109.799 110.615C109.882 110.471 109.929 110.309 109.938 110.143V98.9072C109.902 98.5772 109.694 98.4671 109.462 98.5772ZM109.828 110.204C109.823 110.333 109.787 110.459 109.723 110.572C109.659 110.685 109.57 110.78 109.462 110.852L99.6809 116.476C99.4731 116.598 99.3141 116.476 99.3141 116.256V105.02C99.3197 104.891 99.3559 104.765 99.4196 104.652C99.4834 104.539 99.5729 104.444 99.6809 104.372L109.462 98.7483C109.669 98.6261 109.828 98.7483 109.828 98.9684V110.204ZM108.948 105.913L106.185 104.849C106.014 104.788 105.782 104.935 105.635 105.204L103.544 108.871C103.489 108.968 103.409 109.049 103.312 109.104C103.28 109.126 103.241 109.137 103.202 109.137C103.163 109.137 103.124 109.126 103.092 109.104L102.322 108.358C102.279 108.328 102.227 108.312 102.175 108.312C102.123 108.312 102.071 108.328 102.028 108.358C101.9 108.429 101.794 108.535 101.723 108.663L100.145 111.28C100.063 111.408 100.017 111.556 100.011 111.708V115.009C100.011 115.278 100.194 115.375 100.427 115.253L108.679 110.485C108.8 110.406 108.901 110.3 108.973 110.174C109.046 110.049 109.087 109.908 109.095 109.764V106.096C109.085 106.057 109.067 106.02 109.041 105.988C109.016 105.957 108.984 105.931 108.948 105.913ZM103.116 107.013C103.404 106.823 103.644 106.568 103.816 106.268C103.988 105.969 104.087 105.634 104.107 105.289C104.107 104.653 103.654 104.397 103.116 104.714C102.835 104.9 102.599 105.147 102.427 105.437C102.256 105.728 102.153 106.053 102.126 106.389C102.126 107.025 102.566 107.282 103.116 106.964V107.013Z" fill="white"/>
</g>
</g>
<path d="M28 38C33.5228 38 38 33.5228 38 28C38 22.4772 33.5228 18 28 18C22.4772 18 18 22.4772 18 28C18 33.5228 22.4772 38 28 38Z" fill="#0078FF"/>
<path d="M32.5499 26.0892L27.1333 31.5059C26.977 31.6621 26.7651 31.7499 26.5441 31.7499C26.3231 31.7499 26.1112 31.6621 25.9549 31.5059L23.2466 28.7976C23.167 28.7207 23.1035 28.6287 23.0598 28.5271C23.0162 28.4254 22.9932 28.3161 22.9922 28.2054C22.9913 28.0948 23.0123 27.985 23.0542 27.8826C23.0961 27.7802 23.158 27.6872 23.2363 27.6089C23.3145 27.5307 23.4075 27.4688 23.51 27.4269C23.6124 27.385 23.7221 27.3639 23.8328 27.3649C23.9434 27.3658 24.0528 27.3888 24.1544 27.4325C24.2561 27.4762 24.3481 27.5396 24.4249 27.6192L26.5441 29.7384L31.3716 24.9109C31.4485 24.8313 31.5404 24.7678 31.6421 24.7242C31.7438 24.6805 31.8531 24.6575 31.9638 24.6565C32.0744 24.6556 32.1841 24.6767 32.2866 24.7186C32.389 24.7605 32.482 24.8223 32.5603 24.9006C32.6385 24.9788 32.7004 25.0719 32.7423 25.1743C32.7842 25.2767 32.8053 25.3864 32.8043 25.4971C32.8033 25.6077 32.7804 25.7171 32.7367 25.8187C32.693 25.9204 32.6295 26.0124 32.5499 26.0892Z" fill="#FAFAFA"/>
<defs>
<clipPath id="clip0">
<rect width="124.385" height="180" fill="white" transform="translate(52 24)"/>
</clipPath>
</defs>
</svg>
