<svg xmlns="http://www.w3.org/2000/svg" width="43.298" height="48" viewBox="0 0 43.298 48"><path d="M42.313,88.262a.551.551,0,0,0,.249.062h24.9a.5.5,0,0,0,.5-.5.493.493,0,0,0-.062-.249L55.447,66.013a.487.487,0,0,0-.684-.186.414.414,0,0,0-.186.186L42.126,87.579a.487.487,0,0,0,.186.684Z" transform="translate(-33.343 -52.133)" /><path d="M71.182,180.666a.518.518,0,0,0-.373-.166H48.5a.5.5,0,0,0-.5.5.51.51,0,0,0,.186.394l11.228,9.592a.5.5,0,0,0,.663,0l11.083-9.592a.541.541,0,0,0,.021-.725Z" transform="translate(-38.056 -143.107)" /><path d="M12,80.893a.518.518,0,0,0,.621.352.536.536,0,0,0,.29-.228l11.87-20.571a.487.487,0,0,0-.186-.684.551.551,0,0,0-.249-.062H6.515A.522.522,0,0,0,6,60.2a.352.352,0,0,0,.021.145Z" transform="translate(-4.754 -47.332)" /><path d="M112.919,59.662a.491.491,0,0,0-.186.684L124.6,80.917a.537.537,0,0,0,.29.228.505.505,0,0,0,.621-.331L131.5,60.242a.352.352,0,0,0,.021-.145.5.5,0,0,0-.5-.5H113.168a.551.551,0,0,0-.249.062Z" transform="translate(-89.323 -47.253)" /><path d="M14.444,10.979H31.68a.5.5,0,0,0,.5-.5h0L32.157.5a.51.51,0,0,0-.518-.5.551.551,0,0,0-.249.062L14.2,10.047a.5.5,0,0,0-.166.684.456.456,0,0,0,.414.249Z" transform="translate(-11.067 0)" /><path d="M6.318,97.209a.352.352,0,0,0-.021-.145L.787,77.9a.4.4,0,0,0-.5-.269.4.4,0,0,0-.29.373V97.23a.5.5,0,0,0,.5.5h0l5.283-.021a.514.514,0,0,0,.539-.5Z" transform="translate(0 -61.536)" /><path d="M184.7,77.649a.414.414,0,0,0-.5.269l-5.49,19.163a.352.352,0,0,0-.021.145.5.5,0,0,0,.5.5l5.283.021h0a.5.5,0,0,0,.5-.5V78.021a.356.356,0,0,0-.269-.373Z" transform="translate(-141.677 -61.552)" /><path d="M141.972,180.62l-3.646-.021a1.212,1.212,0,0,0-.829.311l-8.97,7.789a.286.286,0,0,0-.062.352.278.278,0,0,0,.394.1l13.341-7.6a.505.505,0,0,0,.249-.435.462.462,0,0,0-.476-.5Z" transform="translate(-101.824 -143.186)" /><path d="M17.372,180.91a1.212,1.212,0,0,0-.829-.311l-3.646.021a.51.51,0,0,0-.5.518.532.532,0,0,0,.249.435l13.341,7.6a.3.3,0,0,0,.394-.1.282.282,0,0,0-.062-.352Z" transform="translate(-9.831 -143.186)" /><path d="M108.418,10.98h17.236a.563.563,0,0,0,.435-.249.487.487,0,0,0-.186-.684L108.687.062A.551.551,0,0,0,108.439,0a.537.537,0,0,0-.518.5l-.021,9.985h0a.51.51,0,0,0,.518.5Z" transform="translate(-85.547 0)" /></svg>