<svg xmlns="http://www.w3.org/2000/svg" width="48" height="48.005" viewBox="0 0 48 48.005"><path d="M26.826,184.167h-.319a13.307,13.307,0,0,1-5.117-.993.793.793,0,0,0-.872.178L14.484,189.4A4.8,4.8,0,0,1,7.7,182.611l10.215-10.206a4.8,4.8,0,0,1,6.785,0,3.28,3.28,0,0,0,4.5,0,3.172,3.172,0,0,0,0-4.5,10.82,10.82,0,0,0-1.884-1.509,11.186,11.186,0,0,0-13.955,1.509l-10.2,10.178a11.2,11.2,0,1,0,15.829,15.839l8.4-8.4a.808.808,0,0,0,.234-.572.794.794,0,0,0-.8-.787Z" transform="translate(0.12 -149.195)" /><path d="M216.393,3.256a11.194,11.194,0,0,0-15.838,0l-8.388,8.378A.8.8,0,0,0,192.748,13h.3a13.443,13.443,0,0,1,5.108,1,.793.793,0,0,0,.872-.178l6.026-6.017a4.8,4.8,0,0,1,6.785,6.785l-7.5,7.5-.066.075-2.624,2.605a4.8,4.8,0,0,1-6.785,0,3.28,3.28,0,0,0-4.5,0,3.186,3.186,0,0,0,0,4.508,11.181,11.181,0,0,0,3.2,2.24c.169.084.337.141.506.216s.347.131.515.187.347.122.515.169l.469.131c.319.084.637.141.965.2.394.056.8.094,1.19.112h.609l.478-.056c.178-.009.356-.047.572-.047h.272l.553-.084.253-.047.459-.094H201a11.208,11.208,0,0,0,5.192-2.943l10.2-10.168a11.211,11.211,0,0,0,0-15.838Z" transform="translate(-171.669 0.026)" /></svg>