<svg xmlns="http://www.w3.org/2000/svg" width="48" height="48" viewBox="0 0 48 48"><path d="M251.16,219.5l-4.66,3.031v5.825l4.66-3.031Z" transform="translate(-218.621 -194.674)" /><path d="M168.046,121.7l-5.746,3.6,5.757,3.585L173.8,125.3Z" transform="translate(-143.944 -107.936)" /><path d="M24,0A24,24,0,1,0,48,24,24.028,24.028,0,0,0,24,0Zm-.95,38.771-10.315-6.7V19.51l10.315,6.7ZM13.018,17.361l11.1-6.922,11.1,6.922-11.1,6.922ZM35.367,32.189l-10.315,6.7V26.319l10.315-6.7Z" /><path d="M142.26,221.531,137.6,218.5v5.825l4.66,3.031Z" transform="translate(-122.037 -193.788)" /></svg>