<svg width="48" height="48" viewBox="0 0 24 24" fill="none" xmlns="http://www.w3.org/2000/svg">
<path fill-rule="evenodd" clip-rule="evenodd" d="M1.74623 5.07786C1.64741 5.07466 1.54899 5.09175 1.45705 5.1281C1.36511 5.16445 1.2816 5.21927 1.21169 5.28918C1.14179 5.35909 1.08696 5.44259 1.05062 5.53454C1.01427 5.62648 0.997172 5.7249 1.00038 5.82371V17.8329C0.999331 17.9312 1.01792 18.0288 1.05505 18.1198C1.09218 18.2108 1.14712 18.2935 1.21663 18.363C1.28614 18.4325 1.36883 18.4874 1.45985 18.5246C1.55087 18.5617 1.64839 18.5803 1.74669 18.5793H6.5L16.9274 18.5792C17.0257 18.5803 17.1232 18.5617 17.2142 18.5246C17.3052 18.4874 17.3879 18.4325 17.4574 18.363C17.5269 18.2935 17.5819 18.2108 17.619 18.1198C17.6561 18.0288 17.6747 17.9312 17.6737 17.8329V13.6122L21.966 17.2966C22.069 17.3885 22.1964 17.4485 22.3327 17.4694C22.4691 17.4903 22.6087 17.4712 22.7344 17.4145C22.8602 17.3577 22.9668 17.2657 23.0413 17.1496C23.1159 17.0335 23.1552 16.8983 23.1545 16.7603V6.89632C23.1576 6.75489 23.1195 6.61561 23.0448 6.49551C22.97 6.37542 22.8618 6.27973 22.7335 6.22017C22.6077 6.16336 22.4681 6.14415 22.3316 6.16487C22.1951 6.18559 22.0675 6.24535 21.9641 6.33694L17.6718 10.0214V5.82371C17.6728 5.7256 17.6542 5.62829 17.6172 5.53744C17.5802 5.4466 17.5254 5.36405 17.4561 5.29461C17.3868 5.22517 17.3043 5.17024 17.2135 5.13303C17.1228 5.09581 17.0255 5.07706 16.9274 5.07786H9.33691L9.33691 5.07786H1.74623ZM15.6737 16.5792H8.14757L10.8477 7.07786H15.6718V14.3739L15.6737 14.3724V16.5792ZM21.1545 13.9642L18.6518 11.816L21.1545 9.66774V13.9642Z" fill="#141323"/>
</svg>
