<svg xmlns="http://www.w3.org/2000/svg" width="36.924" height="48" viewBox="0 0 36.924 48"><path d="M16.015,17.01H13.8v2.769h2.215c1.292,0,1.846-.369,1.846-1.292a1.348,1.348,0,0,0-.369-1.108A1.994,1.994,0,0,0,16.015,17.01Z" transform="translate(11.677 14.375)" /><path d="M31.937,7.754,30.645,6.462,29.353,5.17C26.03,1.847,24.184,0,22.153,0H3.877A3.784,3.784,0,0,0,0,3.877V44.121A3.784,3.784,0,0,0,3.877,48H33.045a3.784,3.784,0,0,0,3.877-3.877V14.769C36.922,12.738,35.076,10.892,31.937,7.754ZM14.769,41.537H5.17v-2.4l5.538-7.569H5.17V28.984h9.415v2.4L8.862,38.768h5.907Zm5.169,0H16.615V28.8h3.323Zm11.63-6.092a5.538,5.538,0,0,1-3.323,1.108H25.476v4.984H22.153V28.8h6.092a5.151,5.151,0,0,1,3.323,1.108,3.84,3.84,0,0,1,0,5.538Zm1.108-20.676a2.344,2.344,0,0,1-1.108.185H23.815a1.735,1.735,0,0,1-1.846-1.846V5.354a1.255,1.255,0,0,1,1.292-1.292c.369,0,.554.185.923.369l8.492,8.492a1.237,1.237,0,0,1,0,1.846Z" transform="translate(0.001 0.001)" /></svg>